G04 #@! TF.GenerationSoftware,KiCad,Pcbnew,(5.1.4-0-10_14)*
G04 #@! TF.CreationDate,2019-12-15T18:29:08+01:00*
G04 #@! TF.ProjectId,ProgrammerController,50726f67-7261-46d6-9d65-72436f6e7472,rev?*
G04 #@! TF.SameCoordinates,Original*
G04 #@! TF.FileFunction,Copper,L2,Bot*
G04 #@! TF.FilePolarity,Positive*
%FSLAX46Y46*%
G04 Gerber Fmt 4.6, Leading zero omitted, Abs format (unit mm)*
G04 Created by KiCad (PCBNEW (5.1.4-0-10_14)) date 2019-12-15 18:29:08*
%MOMM*%
%LPD*%
G04 APERTURE LIST*
%ADD10O,2.720000X3.240000*%
%ADD11C,1.800000*%
%ADD12R,1.800000X1.800000*%
%ADD13C,1.100000*%
%ADD14C,2.500000*%
%ADD15C,3.200000*%
%ADD16R,3.000000X3.000000*%
%ADD17C,1.700000*%
%ADD18C,1.400000*%
%ADD19C,4.000000*%
%ADD20C,3.240000*%
%ADD21C,0.800000*%
%ADD22C,0.250000*%
G04 APERTURE END LIST*
D10*
X107900000Y-55100000D03*
X117500000Y-55100000D03*
D11*
X115200000Y-62600000D03*
X112700000Y-62600000D03*
D12*
X110200000Y-62600000D03*
D13*
X56332309Y-78417245D03*
X65165768Y-83517245D03*
X50232309Y-88982755D03*
X59065768Y-94082755D03*
X99667691Y-117682755D03*
X90834232Y-112582755D03*
X105767691Y-107117245D03*
X96934232Y-102017245D03*
X49332309Y-106317245D03*
X58165768Y-101217245D03*
X55432309Y-116882755D03*
X64265768Y-111782755D03*
X105601408Y-89305256D03*
X96767949Y-94405256D03*
X99501408Y-78739746D03*
X90667949Y-83839746D03*
X71800000Y-126600000D03*
X71800000Y-116400000D03*
X84000000Y-126600000D03*
X84000000Y-116400000D03*
X84000000Y-69400000D03*
X84000000Y-79600000D03*
X71800000Y-69400000D03*
X71800000Y-79600000D03*
D14*
X114875000Y-73000000D03*
X114875000Y-123000000D03*
X111125000Y-123000000D03*
D15*
X113000000Y-83000000D03*
X113000000Y-115500000D03*
D16*
X84300000Y-98000000D03*
X71500000Y-98000000D03*
D17*
X81650000Y-108000000D03*
X79150000Y-108000000D03*
X76650000Y-108000000D03*
X74150000Y-108000000D03*
D13*
X132585000Y-61080000D03*
X121415000Y-61080000D03*
X132585000Y-48710000D03*
X121415000Y-48710000D03*
X230985000Y-61080000D03*
X219815000Y-61080000D03*
X230985000Y-48710000D03*
X219815000Y-48710000D03*
X244205000Y-61080000D03*
X233035000Y-61080000D03*
X244205000Y-48710000D03*
X233035000Y-48710000D03*
X61485000Y-61080000D03*
X50315000Y-61080000D03*
X61485000Y-48710000D03*
X50315000Y-48710000D03*
X74585000Y-61080000D03*
X63415000Y-61080000D03*
X74585000Y-48710000D03*
X63415000Y-48710000D03*
D10*
X136100000Y-54900000D03*
X145700000Y-54900000D03*
D11*
X143400000Y-62400000D03*
X140900000Y-62400000D03*
D12*
X138400000Y-62400000D03*
D17*
X144750000Y-68000000D03*
X139750000Y-68000000D03*
X144750000Y-138000000D03*
X142250000Y-138000000D03*
X137250000Y-138000000D03*
X139750000Y-138000000D03*
D15*
X141000000Y-80500000D03*
X141000000Y-128000000D03*
D17*
X130750000Y-68000000D03*
X125750000Y-68000000D03*
X130750000Y-138000000D03*
X128250000Y-138000000D03*
X123250000Y-138000000D03*
X125750000Y-138000000D03*
D15*
X127000000Y-80500000D03*
X127000000Y-128000000D03*
D17*
X227750000Y-68000000D03*
X222750000Y-68000000D03*
X227750000Y-138000000D03*
X225250000Y-138000000D03*
X220250000Y-138000000D03*
X222750000Y-138000000D03*
D15*
X224000000Y-80500000D03*
X224000000Y-128000000D03*
D17*
X243750000Y-68000000D03*
X238750000Y-68000000D03*
X243750000Y-138000000D03*
X241250000Y-138000000D03*
X236250000Y-138000000D03*
X238750000Y-138000000D03*
D15*
X240000000Y-80500000D03*
X240000000Y-128000000D03*
D18*
X201285000Y-116620000D03*
X201285000Y-119160000D03*
X201285000Y-121700000D03*
X201285000Y-124240000D03*
X201285000Y-126780000D03*
D19*
X198900000Y-112000000D03*
X198900000Y-132000000D03*
X171900000Y-132000000D03*
X171900000Y-112000000D03*
D10*
X196100000Y-84900000D03*
X205700000Y-84900000D03*
D11*
X203400000Y-92400000D03*
X200900000Y-92400000D03*
D12*
X198400000Y-92400000D03*
D10*
X166100000Y-84900000D03*
X175700000Y-84900000D03*
D11*
X173400000Y-92400000D03*
X170900000Y-92400000D03*
D12*
X168400000Y-92400000D03*
D20*
X196100000Y-54900000D03*
X205700000Y-54900000D03*
D11*
X203400000Y-62400000D03*
X200900000Y-62400000D03*
D12*
X198400000Y-62400000D03*
D10*
X166100000Y-54900000D03*
X175700000Y-54900000D03*
D11*
X173400000Y-62400000D03*
X170900000Y-62400000D03*
D12*
X168400000Y-62400000D03*
D21*
X200000000Y-71324990D03*
X195000000Y-71300000D03*
X168600000Y-66374990D03*
X210600000Y-75700000D03*
X207600000Y-96800000D03*
X209500000Y-74800000D03*
X206500000Y-95900000D03*
X183300000Y-69500000D03*
X197300000Y-69500000D03*
X198400000Y-70500000D03*
X184300000Y-70400000D03*
X178200000Y-69900000D03*
D22*
X195024990Y-71324990D02*
X195000000Y-71300000D01*
X200000000Y-71324990D02*
X195024990Y-71324990D01*
X168400000Y-66174990D02*
X168600000Y-66374990D01*
X168400000Y-62400000D02*
X168400000Y-66174990D01*
X200565685Y-71324990D02*
X200700000Y-71459305D01*
X200000000Y-71324990D02*
X200565685Y-71324990D01*
X200700000Y-71459305D02*
X200700000Y-88200000D01*
X198400000Y-90500000D02*
X198400000Y-92400000D01*
X200700000Y-88200000D02*
X198400000Y-90500000D01*
X168400000Y-92400000D02*
X168400000Y-71600000D01*
X168600000Y-71400000D02*
X168400000Y-71600000D01*
X168600000Y-66374990D02*
X168600000Y-71400000D01*
X210600000Y-75700000D02*
X209100000Y-77200000D01*
X209100000Y-77200000D02*
X209100000Y-96100000D01*
X208400000Y-96800000D02*
X209100000Y-96100000D01*
X207600000Y-96800000D02*
X208400000Y-96800000D01*
X209500000Y-74800000D02*
X208100000Y-76200000D01*
X208100000Y-94300000D02*
X206500000Y-95900000D01*
X208100000Y-76200000D02*
X208100000Y-94300000D01*
X183300000Y-69500000D02*
X197300000Y-69500000D01*
X197834315Y-70500000D02*
X197734315Y-70400000D01*
X198400000Y-70500000D02*
X197834315Y-70500000D01*
X197734315Y-70400000D02*
X184300000Y-70400000D01*
X178200000Y-69900000D02*
X181700000Y-69900000D01*
X182200000Y-70400000D02*
X184300000Y-70400000D01*
X181700000Y-69900000D02*
X182200000Y-70400000D01*
M02*
