  0
SECTION
  2
HEADER
  9
$ACADVER
  1
AC1009
  9
$INSBASE
 10
0.0
 20
0.0
 30
0.0
  9
$EXTMIN
 10
0.0
 20
0.0
 30
0.0
  9
$EXTMAX
 10
0.0
 20
0.0
 30
0.0
  0
ENDSEC
  0
SECTION
  2
TABLES
  0
TABLE
  2
VPORT
 70
0
  0
ENDTAB
  0
TABLE
  2
LTYPE
 70
1
  0
LTYPE
  2
CONTINUOUS
 70
0
  3
Solid line
 72
65
 73
0
 40
0.0
  0
ENDTAB
  0
TABLE
  2
LAYER
 70
1
  0
LAYER
  2
0
 70
64
 62
7
  6
continuous
  0
ENDTAB
  0
TABLE
  2
STYLE
 70
1
  0
STYLE
  2
STANDARD
 70
0
 40
0
 41
1.0
 50
0.0
 71
0
 42
1
 3
ARIAL.TTF
 4

  0
ENDTAB
  0
TABLE
  2
VIEW
 70
0
  0
ENDTAB
  0
ENDSEC
  0
SECTION
  2
BLOCKS
  0
BLOCK
  8
0
  2
PART__FEATURE
 70
0
 10
0.0
 20
0.0
 30
0.0
  3
PART__FEATURE
  0
CIRCLE
  8
0
 62
0
 10
0.0
 20
0.0
 30
0.0
 40
2.016666666667
  0
CIRCLE
  8
0
 62
0
 10
0.0
 20
0.0
 30
0.0
 40
1.666666666667
  0
POLYLINE
  8
0
 62
0
 70
0
 66
1
 10
0.0
 20
0.0
 30
0.0
  0
VERTEX
  8
0
 10
-1.42822240736
 20
2.4125
 30
0.0
  0
VERTEX
  8
0
 10
-1.4644660940676466
 20
2.499999999999995
 30
0.0
  0
SEQEND
  8
0
  0
LINE
  8
0
 62
0
 10
-1.464466094067
 20
2.5
 30
0.0
 11
-2.5000000000000004
 21
1.4644660940669996
 31
0.0
  0
POLYLINE
  8
0
 62
0
 70
0
 66
1
 10
0.0
 20
0.0
 30
0.0
  0
VERTEX
  8
0
 10
-2.4125
 20
1.42822240736
 30
0.0
  0
VERTEX
  8
0
 10
-2.499999999999995
 20
1.4644660940676466
 30
0.0
  0
SEQEND
  8
0
  0
POLYLINE
  8
0
 62
0
 70
0
 66
1
 10
0.0
 20
0.0
 30
0.0
  0
VERTEX
  8
0
 10
2.4125
 20
2.4125
 30
0.0
  0
VERTEX
  8
0
 10
2.5000000000002505
 20
2.5000000000002505
 30
0.0
  0
SEQEND
  8
0
  0
LINE
  8
0
 62
0
 10
2.5
 20
2.5
 30
0.0
 11
-1.4644660940669998
 21
2.5
 31
0.0
  0
LINE
  8
0
 62
0
 10
-2.5
 20
1.464466094067
 30
0.0
 11
-2.5
 21
-2.5
 31
0.0
  0
POLYLINE
  8
0
 62
0
 70
0
 66
1
 10
0.0
 20
0.0
 30
0.0
  0
VERTEX
  8
0
 10
-2.5000000000002505
 20
-2.5000000000002505
 30
0.0
  0
VERTEX
  8
0
 10
-2.4125
 20
-2.4125
 30
0.0
  0
SEQEND
  8
0
  0
LINE
  8
0
 62
0
 10
2.5
 20
-2.5
 30
0.0
 11
2.5
 21
2.5
 31
0.0
  0
POLYLINE
  8
0
 62
0
 70
0
 66
1
 10
0.0
 20
0.0
 30
0.0
  0
VERTEX
  8
0
 10
2.5000000000002505
 20
-2.5000000000002505
 30
0.0
  0
VERTEX
  8
0
 10
2.4125
 20
-2.4125
 30
0.0
  0
SEQEND
  8
0
  0
LINE
  8
0
 62
0
 10
-2.5
 20
-2.5
 30
0.0
 11
2.5
 21
-2.5
 31
0.0
  0
LINE
  8
0
 62
0
 10
-2.5
 20
1.4644660940670002
 30
0.0
 11
-1.4644660940670002
 21
2.5
 31
0.0
  0
LINE
  8
0
 62
0
 10
-1.464466094067
 20
2.5
 30
0.0
 11
-2.5
 21
2.5
 31
0.0
  0
LINE
  8
0
 62
0
 10
-2.5
 20
2.5
 30
0.0
 11
-2.5
 21
1.464466094067
 31
0.0
  0
LINE
  8
0
 62
0
 10
-2.6500000000000004
 20
1.1
 30
0.0
 11
-2.5
 21
1.1
 31
0.0
  0
LINE
  8
0
 62
0
 10
-2.5
 20
2.1
 30
0.0
 11
-2.65
 21
2.1
 31
0.0
  0
POLYLINE
  8
0
 62
0
 70
0
 66
1
 10
0.0
 20
0.0
 30
0.0
  0
VERTEX
  8
0
 10
-2.6999999999999997
 20
1.1
 30
0.0
  0
VERTEX
  8
0
 10
-2.65
 20
1.1
 30
0.0
  0
SEQEND
  8
0
  0
POLYLINE
  8
0
 62
0
 70
0
 66
1
 10
0.0
 20
0.0
 30
0.0
  0
VERTEX
  8
0
 10
-2.6999999999999997
 20
2.1
 30
0.0
  0
VERTEX
  8
0
 10
-2.65
 20
2.1
 30
0.0
  0
SEQEND
  8
0
  0
LINE
  8
0
 62
0
 10
-2.6500000000000004
 20
-0.5
 30
0.0
 11
-2.5
 21
-0.5
 31
0.0
  0
LINE
  8
0
 62
0
 10
-2.5
 20
0.5
 30
0.0
 11
-2.65
 21
0.5
 31
0.0
  0
POLYLINE
  8
0
 62
0
 70
0
 66
1
 10
0.0
 20
0.0
 30
0.0
  0
VERTEX
  8
0
 10
-2.6999999999999997
 20
-0.5
 30
0.0
  0
VERTEX
  8
0
 10
-2.65
 20
-0.5
 30
0.0
  0
SEQEND
  8
0
  0
POLYLINE
  8
0
 62
0
 70
0
 66
1
 10
0.0
 20
0.0
 30
0.0
  0
VERTEX
  8
0
 10
-2.6999999999999997
 20
0.5
 30
0.0
  0
VERTEX
  8
0
 10
-2.65
 20
0.5
 30
0.0
  0
SEQEND
  8
0
  0
LINE
  8
0
 62
0
 10
-2.5
 20
-1.1
 30
0.0
 11
-2.65
 21
-1.1
 31
0.0
  0
POLYLINE
  8
0
 62
0
 70
0
 66
1
 10
0.0
 20
0.0
 30
0.0
  0
VERTEX
  8
0
 10
-2.6999999999999997
 20
-1.1
 30
0.0
  0
VERTEX
  8
0
 10
-2.65
 20
-1.1
 30
0.0
  0
SEQEND
  8
0
  0
LINE
  8
0
 62
0
 10
-2.6500000000000004
 20
-2.1
 30
0.0
 11
-2.5
 21
-2.1
 31
0.0
  0
POLYLINE
  8
0
 62
0
 70
0
 66
1
 10
0.0
 20
0.0
 30
0.0
  0
VERTEX
  8
0
 10
-2.6999999999999997
 20
-2.1
 30
0.0
  0
VERTEX
  8
0
 10
-2.65
 20
-2.1
 30
0.0
  0
SEQEND
  8
0
  0
LINE
  8
0
 62
0
 10
2.5
 20
-2.1
 30
0.0
 11
2.65
 21
-2.1
 31
0.0
  0
LINE
  8
0
 62
0
 10
2.6500000000000004
 20
-1.1
 30
0.0
 11
2.5
 21
-1.1
 31
0.0
  0
POLYLINE
  8
0
 62
0
 70
0
 66
1
 10
0.0
 20
0.0
 30
0.0
  0
VERTEX
  8
0
 10
2.65
 20
-1.1
 30
0.0
  0
VERTEX
  8
0
 10
2.6999999999999997
 20
-1.1
 30
0.0
  0
SEQEND
  8
0
  0
POLYLINE
  8
0
 62
0
 70
0
 66
1
 10
0.0
 20
0.0
 30
0.0
  0
VERTEX
  8
0
 10
2.65
 20
-2.1
 30
0.0
  0
VERTEX
  8
0
 10
2.6999999999999997
 20
-2.1
 30
0.0
  0
SEQEND
  8
0
  0
LINE
  8
0
 62
0
 10
2.5
 20
1.1
 30
0.0
 11
2.65
 21
1.1
 31
0.0
  0
LINE
  8
0
 62
0
 10
2.6500000000000004
 20
2.1
 30
0.0
 11
2.5
 21
2.1
 31
0.0
  0
POLYLINE
  8
0
 62
0
 70
0
 66
1
 10
0.0
 20
0.0
 30
0.0
  0
VERTEX
  8
0
 10
2.65
 20
2.1
 30
0.0
  0
VERTEX
  8
0
 10
2.6999999999999997
 20
2.1
 30
0.0
  0
SEQEND
  8
0
  0
POLYLINE
  8
0
 62
0
 70
0
 66
1
 10
0.0
 20
0.0
 30
0.0
  0
VERTEX
  8
0
 10
2.65
 20
1.1
 30
0.0
  0
VERTEX
  8
0
 10
2.6999999999999997
 20
1.1
 30
0.0
  0
SEQEND
  8
0
  0
LINE
  8
0
 62
0
 10
2.5
 20
-0.5
 30
0.0
 11
2.65
 21
-0.5
 31
0.0
  0
POLYLINE
  8
0
 62
0
 70
0
 66
1
 10
0.0
 20
0.0
 30
0.0
  0
VERTEX
  8
0
 10
2.65
 20
-0.5
 30
0.0
  0
VERTEX
  8
0
 10
2.6999999999999997
 20
-0.5
 30
0.0
  0
SEQEND
  8
0
  0
LINE
  8
0
 62
0
 10
2.6500000000000004
 20
0.5
 30
0.0
 11
2.5
 21
0.5
 31
0.0
  0
POLYLINE
  8
0
 62
0
 70
0
 66
1
 10
0.0
 20
0.0
 30
0.0
  0
VERTEX
  8
0
 10
2.65
 20
0.5
 30
0.0
  0
VERTEX
  8
0
 10
2.6999999999999997
 20
0.5
 30
0.0
  0
SEQEND
  8
0
  0
LINE
  8
0
 62
0
 10
-2.7
 20
2.1
 30
0.0
 11
-2.7
 21
1.1
 31
0.0
  0
LINE
  8
0
 62
0
 10
-2.7
 20
0.5
 30
0.0
 11
-2.7
 21
-0.5
 31
0.0
  0
LINE
  8
0
 62
0
 10
-2.7
 20
-1.1
 30
0.0
 11
-2.7
 21
-2.1
 31
0.0
  0
LINE
  8
0
 62
0
 10
2.7
 20
-2.1
 30
0.0
 11
2.7
 21
-1.1
 31
0.0
  0
LINE
  8
0
 62
0
 10
2.7
 20
1.1
 30
0.0
 11
2.7
 21
2.1
 31
0.0
  0
LINE
  8
0
 62
0
 10
2.7
 20
-0.5
 30
0.0
 11
2.7
 21
0.5
 31
0.0
  0
LINE
  8
0
 62
0
 10
-1.4282224073594998
 20
2.4124999999995005
 30
0.0
 11
-2.4124999999995005
 21
1.4282224073594998
 31
0.0
  0
LINE
  8
0
 62
0
 10
-2.4125
 20
1.42822240736
 30
0.0
 11
-2.4125
 21
-2.4124999999999996
 31
0.0
  0
LINE
  8
0
 62
0
 10
-2.4125
 20
-2.4125
 30
0.0
 11
2.4124999999999996
 21
-2.4125
 31
0.0
  0
LINE
  8
0
 62
0
 10
2.4125
 20
-2.4125
 30
0.0
 11
2.4125
 21
2.4124999999999996
 31
0.0
  0
LINE
  8
0
 62
0
 10
2.4125
 20
2.4125
 30
0.0
 11
-1.4282224073599998
 21
2.4125
 31
0.0
  0
LINE
  8
0
 62
0
 10
-2.65
 20
2.1
 30
0.0
 11
-2.65
 21
1.1
 31
0.0
  0
LINE
  8
0
 62
0
 10
-2.65
 20
0.5
 30
0.0
 11
-2.65
 21
-0.5
 31
0.0
  0
LINE
  8
0
 62
0
 10
-2.65
 20
-1.1
 30
0.0
 11
-2.65
 21
-2.1
 31
0.0
  0
LINE
  8
0
 62
0
 10
2.65
 20
-2.1
 30
0.0
 11
2.65
 21
-1.1
 31
0.0
  0
LINE
  8
0
 62
0
 10
2.65
 20
1.1
 30
0.0
 11
2.65
 21
2.1
 31
0.0
  0
LINE
  8
0
 62
0
 10
2.65
 20
-0.5
 30
0.0
 11
2.65
 21
0.5
 31
0.0
  0
LINE
  8
0
 62
0
 10
2.0166666666669997
 20
0.0
 30
0.0
 11
1.666666666667
 21
0.0
 31
0.0
  0
ENDBLK
  0
BLOCK
  8
0
  2
PART__FEATURE001
 70
0
 10
0.0
 20
0.0
 30
0.0
  3
PART__FEATURE001
  0
LINE
  8
0
 62
0
 10
-4.0
 20
-4.2
 30
0.0
 11
-4.0
 21
-4.8
 31
0.0
  0
LINE
  8
0
 62
0
 10
-4.0
 20
-4.8
 30
0.0
 11
-3.7
 21
-4.8
 31
0.0
  0
LINE
  8
0
 62
0
 10
-3.7
 20
-4.2
 30
0.0
 11
-3.7
 21
-4.8
 31
0.0
  0
LINE
  8
0
 62
0
 10
-4.0
 20
-4.2
 30
0.0
 11
-3.7
 21
-4.2
 31
0.0
  0
LINE
  8
0
 62
0
 10
-3.7
 20
-4.2
 30
0.0
 11
-3.3000000000000003
 21
-4.2
 31
0.0
  0
LINE
  8
0
 62
0
 10
-3.0
 20
-4.2
 30
0.0
 11
-3.3
 21
-4.2
 31
0.0
  0
LINE
  8
0
 62
0
 10
-3.3
 20
-4.8
 30
0.0
 11
-3.0
 21
-4.8
 31
0.0
  0
LINE
  8
0
 62
0
 10
-3.7
 20
-4.8
 30
0.0
 11
-3.3000000000000003
 21
-4.8
 31
0.0
  0
LINE
  8
0
 62
0
 10
-3.3
 20
-4.2
 30
0.0
 11
-3.3
 21
-4.8
 31
0.0
  0
LINE
  8
0
 62
0
 10
-2.98
 20
-6.23
 30
0.0
 11
-2.98
 21
-4.825
 31
0.0
  0
LINE
  8
0
 62
0
 10
-2.98
 20
-4.175000000000001
 30
0.0
 11
-2.98
 21
-2.7700000000000005
 31
0.0
  0
LINE
  8
0
 62
0
 10
-3.0
 20
-5.83
 30
0.0
 11
-3.0
 21
-6.23
 31
0.0
  0
LINE
  8
0
 62
0
 10
-2.98
 20
-5.83
 30
0.0
 11
-3.0
 21
-5.83
 31
0.0
  0
LINE
  8
0
 62
0
 10
-3.0
 20
-6.23
 30
0.0
 11
-2.8
 21
-6.23
 31
0.0
  0
LINE
  8
0
 62
0
 10
-2.98
 20
-3.17
 30
0.0
 11
-3.0
 21
-3.17
 31
0.0
  0
LINE
  8
0
 62
0
 10
-3.0
 20
-3.17
 30
0.0
 11
-3.0
 21
-2.77
 31
0.0
  0
LINE
  8
0
 62
0
 10
-3.0
 20
-2.77
 30
0.0
 11
-2.8
 21
-2.77
 31
0.0
  0
LINE
  8
0
 62
0
 10
-3.0
 20
-6.25
 30
0.0
 11
-3.0
 21
-6.23
 31
0.0
  0
LINE
  8
0
 62
0
 10
-2.8
 20
-4.825
 30
0.0
 11
-2.8
 21
-6.23
 31
0.0
  0
LINE
  8
0
 62
0
 10
2.876439
 20
-4.175
 30
0.0
 11
2.876439
 21
-2.7699999999999996
 31
0.0
  0
LINE
  8
0
 62
0
 10
2.8764390000000004
 20
-2.77
 30
0.0
 11
3.0
 21
-2.77
 31
0.0
  0
LINE
  8
0
 62
0
 10
3.0
 20
-2.77
 30
0.0
 11
3.0
 21
-2.75
 31
0.0
  0
LINE
  8
0
 62
0
 10
-3.0
 20
-2.75
 30
0.0
 11
3.0
 21
-2.75
 31
0.0
  0
LINE
  8
0
 62
0
 10
-3.0
 20
-2.75
 30
0.0
 11
-3.0
 21
-2.77
 31
0.0
  0
LINE
  8
0
 62
0
 10
-2.8
 20
-2.77
 30
0.0
 11
-2.8
 21
-4.175
 31
0.0
  0
LINE
  8
0
 62
0
 10
-2.8
 20
-4.175
 30
0.0
 11
-3.0
 21
-4.175
 31
0.0
  0
LINE
  8
0
 62
0
 10
-3.0
 20
-4.175
 30
0.0
 11
-3.0
 21
-4.825
 31
0.0
  0
LINE
  8
0
 62
0
 10
-3.0
 20
-4.825
 30
0.0
 11
-2.8
 21
-4.825
 31
0.0
  0
LINE
  8
0
 62
0
 10
3.0
 20
-6.25
 30
0.0
 11
-3.0
 21
-6.25
 31
0.0
  0
LINE
  8
0
 62
0
 10
3.0
 20
-6.23
 30
0.0
 11
3.0
 21
-6.25
 31
0.0
  0
LINE
  8
0
 62
0
 10
2.8764390000000004
 20
-6.23
 30
0.0
 11
3.0
 21
-6.23
 31
0.0
  0
LINE
  8
0
 62
0
 10
2.876439
 20
-6.23
 30
0.0
 11
2.876439
 21
-4.825
 31
0.0
  0
LINE
  8
0
 62
0
 10
2.876439
 20
-4.825
 30
0.0
 11
3.076439
 21
-4.825
 31
0.0
  0
LINE
  8
0
 62
0
 10
3.076439
 20
-4.825
 30
0.0
 11
3.076439
 21
-4.175
 31
0.0
  0
LINE
  8
0
 62
0
 10
3.076439
 20
-4.175
 30
0.0
 11
2.876439
 21
-4.175
 31
0.0
  0
POLYLINE
  8
0
 62
0
 70
0
 66
1
 10
0.0
 20
0.0
 30
0.0
  0
VERTEX
  8
0
 10
2.116477402461
 20
-5.819912354986
 30
0.0
  0
VERTEX
  8
0
 10
2.091160114272422
 20
-5.794595066797422
 30
0.0
  0
SEQEND
  8
0
  0
POLYLINE
  8
0
 62
0
 70
0
 66
1
 10
0.0
 20
0.0
 30
0.0
  0
VERTEX
  8
0
 10
2.116477402461
 20
-3.180087645014
 30
0.0
  0
VERTEX
  8
0
 10
2.091160114272422
 20
-3.205404933202578
 30
0.0
  0
SEQEND
  8
0
  0
POLYLINE
  8
0
 62
0
 70
0
 66
1
 10
0.0
 20
0.0
 30
0.0
  0
VERTEX
  8
0
 10
2.0911601142725615
 20
-3.2054049332026215
 30
0.0
  0
VERTEX
  8
0
 10
2.0883349844476053
 20
-3.2077329878380754
 30
0.0
  0
SEQEND
  8
0
  0
POLYLINE
  8
0
 62
0
 70
0
 66
1
 10
0.0
 20
0.0
 30
0.0
  0
VERTEX
  8
0
 10
-2.0911601142725615
 20
-3.2054049332026215
 30
0.0
  0
VERTEX
  8
0
 10
-2.0883349844476053
 20
-3.2077329878380754
 30
0.0
  0
SEQEND
  8
0
  0
POLYLINE
  8
0
 62
0
 70
0
 66
1
 10
0.0
 20
0.0
 30
0.0
  0
VERTEX
  8
0
 10
-2.116477402461
 20
-3.180087645014
 30
0.0
  0
VERTEX
  8
0
 10
-2.091160114272422
 20
-3.205404933202578
 30
0.0
  0
SEQEND
  8
0
  0
POLYLINE
  8
0
 62
0
 70
0
 66
1
 10
0.0
 20
0.0
 30
0.0
  0
VERTEX
  8
0
 10
-2.116477402461
 20
-5.819912354986
 30
0.0
  0
VERTEX
  8
0
 10
-2.091160114272422
 20
-5.794595066797422
 30
0.0
  0
SEQEND
  8
0
  0
POLYLINE
  8
0
 62
0
 70
0
 66
1
 10
0.0
 20
0.0
 30
0.0
  0
VERTEX
  8
0
 10
-2.0911601142725615
 20
-5.7945950667973785
 30
0.0
  0
VERTEX
  8
0
 10
-2.088334984447605
 20
-5.792267012161925
 30
0.0
  0
SEQEND
  8
0
  0
POLYLINE
  8
0
 62
0
 70
0
 66
1
 10
0.0
 20
0.0
 30
0.0
  0
VERTEX
  8
0
 10
2.0911601142725615
 20
-5.7945950667973785
 30
0.0
  0
VERTEX
  8
0
 10
2.088334984447605
 20
-5.792267012161925
 30
0.0
  0
SEQEND
  8
0
  0
LINE
  8
0
 62
0
 10
2.98
 20
-2.77
 30
0.0
 11
2.98
 21
-4.175
 31
0.0
  0
LINE
  8
0
 62
0
 10
2.98
 20
-4.825
 30
0.0
 11
2.98
 21
-6.23
 31
0.0
  0
LINE
  8
0
 62
0
 10
3.0
 20
-3.17
 30
0.0
 11
3.0
 21
-2.77
 31
0.0
  0
LINE
  8
0
 62
0
 10
3.0
 20
-5.83
 30
0.0
 11
3.0
 21
-6.23
 31
0.0
  0
LINE
  8
0
 62
0
 10
2.98
 20
-5.83
 30
0.0
 11
3.0
 21
-5.83
 31
0.0
  0
LINE
  8
0
 62
0
 10
2.98
 20
-3.17
 30
0.0
 11
3.0
 21
-3.17
 31
0.0
  0
LINE
  8
0
 62
0
 10
3.3
 20
-4.2
 30
0.0
 11
3.076439
 21
-4.2
 31
0.0
  0
LINE
  8
0
 62
0
 10
3.7
 20
-4.2
 30
0.0
 11
3.3000000000000003
 21
-4.2
 31
0.0
  0
LINE
  8
0
 62
0
 10
4.0
 20
-4.2
 30
0.0
 11
3.7
 21
-4.2
 31
0.0
  0
LINE
  8
0
 62
0
 10
3.3
 20
-4.2
 30
0.0
 11
3.3
 21
-4.8
 31
0.0
  0
LINE
  8
0
 62
0
 10
3.076439
 20
-4.8
 30
0.0
 11
3.3
 21
-4.8
 31
0.0
  0
LINE
  8
0
 62
0
 10
4.0
 20
-4.8
 30
0.0
 11
3.7
 21
-4.8
 31
0.0
  0
LINE
  8
0
 62
0
 10
3.7
 20
-4.8
 30
0.0
 11
3.3000000000000003
 21
-4.8
 31
0.0
  0
LINE
  8
0
 62
0
 10
2.0883349844473442
 20
-5.792267012161716
 30
0.0
 11
1.65500000000005
 21
-5.504999999999786
 31
0.0
  0
LINE
  8
0
 62
0
 10
2.0883349844473442
 20
-3.207732987838284
 30
0.0
 11
1.65500000000005
 21
-3.4950000000002146
 31
0.0
  0
LINE
  8
0
 62
0
 10
1.655
 20
-3.495
 30
0.0
 11
1.655
 21
-5.505
 31
0.0
  0
LINE
  8
0
 62
0
 10
-2.0883349844473442
 20
-3.207732987838284
 30
0.0
 11
-1.65500000000005
 21
-3.4950000000002146
 31
0.0
  0
LINE
  8
0
 62
0
 10
-1.655
 20
-3.495
 30
0.0
 11
1.655
 21
-3.495
 31
0.0
  0
LINE
  8
0
 62
0
 10
-2.0883349844473442
 20
-5.792267012161716
 30
0.0
 11
-1.65500000000005
 21
-5.504999999999786
 31
0.0
  0
LINE
  8
0
 62
0
 10
-1.655
 20
-3.495
 30
0.0
 11
-1.655
 21
-5.505
 31
0.0
  0
LINE
  8
0
 62
0
 10
-1.655
 20
-5.505
 30
0.0
 11
1.655
 21
-5.505
 31
0.0
  0
LINE
  8
0
 62
0
 10
4.0
 20
-4.2
 30
0.0
 11
4.0
 21
-4.8
 31
0.0
  0
LINE
  8
0
 62
0
 10
3.7
 20
-4.2
 30
0.0
 11
3.7
 21
-4.8
 31
0.0
  0
LINE
  8
0
 62
0
 10
1.255
 20
-3.895
 30
0.0
 11
1.255
 21
-5.105
 31
0.0
  0
LINE
  8
0
 62
0
 10
1.255
 20
-5.105
 30
0.0
 11
-1.255
 21
-5.105
 31
0.0
  0
LINE
  8
0
 62
0
 10
-1.255
 20
-5.105
 30
0.0
 11
-1.255
 21
-3.8950000000000005
 31
0.0
  0
LINE
  8
0
 62
0
 10
-1.255
 20
-3.895
 30
0.0
 11
1.255
 21
-3.895
 31
0.0
  0
LINE
  8
0
 62
0
 10
-1.25
 20
-5.1
 30
0.0
 11
-1.25
 21
-3.8999999999999995
 31
0.0
  0
LINE
  8
0
 62
0
 10
1.25
 20
-5.1
 30
0.0
 11
-1.25
 21
-5.1
 31
0.0
  0
LINE
  8
0
 62
0
 10
1.25
 20
-3.9
 30
0.0
 11
1.25
 21
-5.1
 31
0.0
  0
LINE
  8
0
 62
0
 10
-1.25
 20
-3.9
 30
0.0
 11
1.25
 21
-3.9
 31
0.0
  0
POLYLINE
  8
0
 62
0
 70
0
 66
1
 10
0.0
 20
0.0
 30
0.0
  0
VERTEX
  8
0
 10
-1.249999999999781
 20
-5.099999999999781
 30
0.0
  0
VERTEX
  8
0
 10
-1.15
 20
-5.0
 30
0.0
  0
SEQEND
  8
0
  0
POLYLINE
  8
0
 62
0
 70
0
 66
1
 10
0.0
 20
0.0
 30
0.0
  0
VERTEX
  8
0
 10
-1.249999999999781
 20
-3.900000000000219
 30
0.0
  0
VERTEX
  8
0
 10
-1.15
 20
-4.0
 30
0.0
  0
SEQEND
  8
0
  0
POLYLINE
  8
0
 62
0
 70
0
 66
1
 10
0.0
 20
0.0
 30
0.0
  0
VERTEX
  8
0
 10
1.249999999999781
 20
-5.099999999999781
 30
0.0
  0
VERTEX
  8
0
 10
1.15
 20
-5.0
 30
0.0
  0
SEQEND
  8
0
  0
POLYLINE
  8
0
 62
0
 70
0
 66
1
 10
0.0
 20
0.0
 30
0.0
  0
VERTEX
  8
0
 10
1.249999999999781
 20
-3.900000000000219
 30
0.0
  0
VERTEX
  8
0
 10
1.15
 20
-4.0
 30
0.0
  0
SEQEND
  8
0
  0
LINE
  8
0
 62
0
 10
2.116477402461
 20
-3.1800876450140003
 30
0.0
 11
2.116477402461
 21
-5.819912354986
 31
0.0
  0
LINE
  8
0
 62
0
 10
-2.1164774024610002
 20
-5.819912354986
 30
0.0
 11
2.116477402461
 21
-5.819912354986
 31
0.0
  0
LINE
  8
0
 62
0
 10
-2.116477402461
 20
-3.1800876450140003
 30
0.0
 11
-2.116477402461
 21
-5.819912354986
 31
0.0
  0
LINE
  8
0
 62
0
 10
-2.1164774024610002
 20
-3.180087645014
 30
0.0
 11
2.116477402461
 21
-3.180087645014
 31
0.0
  0
LINE
  8
0
 62
0
 10
2.091160114272
 20
-3.2054049332030004
 30
0.0
 11
2.091160114272
 21
-5.794595066797
 31
0.0
  0
LINE
  8
0
 62
0
 10
-2.088334984447
 20
-3.207732987838
 30
0.0
 11
2.0883349844469996
 21
-3.207732987838
 31
0.0
  0
LINE
  8
0
 62
0
 10
-2.088334984447
 20
-5.792267012162
 30
0.0
 11
2.0883349844469996
 21
-5.792267012162
 31
0.0
  0
LINE
  8
0
 62
0
 10
-2.091160114272
 20
-3.2054049332030004
 30
0.0
 11
-2.091160114272
 21
-5.794595066797
 31
0.0
  0
LINE
  8
0
 62
0
 10
-1.15
 20
-5.0
 30
0.0
 11
-1.15
 21
-3.9999999999999996
 31
0.0
  0
LINE
  8
0
 62
0
 10
1.15
 20
-5.0
 30
0.0
 11
-1.15
 21
-5.0
 31
0.0
  0
LINE
  8
0
 62
0
 10
1.15
 20
-4.0
 30
0.0
 11
1.15
 21
-5.0
 31
0.0
  0
LINE
  8
0
 62
0
 10
-1.15
 20
-4.0
 30
0.0
 11
1.15
 21
-4.0
 31
0.0
  0
ENDBLK
  0
BLOCK
  8
0
  2
BODY
 70
0
 10
0.0
 20
0.0
 30
0.0
  3
BODY
  0
LINE
  8
0
 62
0
 10
-5.0
 20
-4.6
 30
0.0
 11
-5.0
 21
2.4000000000000004
 31
0.0
  0
LINE
  8
0
 62
0
 10
-4.5
 20
2.9000000000000004
 30
0.0
 11
4.5
 21
2.9000000000000004
 31
0.0
  0
LINE
  8
0
 62
0
 10
5.0
 20
2.4
 30
0.0
 11
5.0
 21
-4.6
 31
0.0
  0
ARC
  8
0
 62
0
 10
-4.5
 20
2.4000000000000004
 30
0.0
 40
0.5
 50
90.0
 51
-180.0
  0
POLYLINE
  8
0
 62
0
 70
0
 66
1
 10
0.0
 20
0.0
 30
0.0
  0
VERTEX
  8
0
 10
-4.05
 20
2.9
 30
0.0
  0
VERTEX
  8
0
 10
-3.9
 20
3.05
 30
0.0
  0
SEQEND
  8
0
  0
POLYLINE
  8
0
 62
0
 70
0
 66
1
 10
0.0
 20
0.0
 30
0.0
  0
VERTEX
  8
0
 10
-1.9500000000000002
 20
2.9
 30
0.0
  0
VERTEX
  8
0
 10
-2.1
 20
3.05
 30
0.0
  0
SEQEND
  8
0
  0
POLYLINE
  8
0
 62
0
 70
0
 66
1
 10
0.0
 20
0.0
 30
0.0
  0
VERTEX
  8
0
 10
1.9499999999999997
 20
2.9
 30
0.0
  0
VERTEX
  8
0
 10
2.0999999999999996
 20
3.05
 30
0.0
  0
SEQEND
  8
0
  0
POLYLINE
  8
0
 62
0
 70
0
 66
1
 10
0.0
 20
0.0
 30
0.0
  0
VERTEX
  8
0
 10
4.050000000000001
 20
2.9
 30
0.0
  0
VERTEX
  8
0
 10
3.900000000000001
 20
3.05
 30
0.0
  0
SEQEND
  8
0
  0
LINE
  8
0
 62
0
 10
-2.1
 20
3.0499999999999994
 30
0.0
 11
-2.1
 21
5.5
 31
0.0
  0
LINE
  8
0
 62
0
 10
-3.9
 20
5.499999999999998
 30
0.0
 11
-2.0999999999999996
 21
5.499999999999998
 31
0.0
  0
LINE
  8
0
 62
0
 10
-3.9
 20
3.0500000000000003
 30
0.0
 11
-3.9
 21
5.5
 31
0.0
  0
ARC
  8
0
 62
0
 10
4.5
 20
2.4
 30
0.0
 40
0.5
 50
-0.0
 51
90.0
  0
LINE
  8
0
 62
0
 10
2.1
 20
3.0499999999999994
 30
0.0
 11
2.1
 21
5.5
 31
0.0
  0
LINE
  8
0
 62
0
 10
3.9
 20
5.499999999999998
 30
0.0
 11
2.0999999999999996
 21
5.499999999999998
 31
0.0
  0
LINE
  8
0
 62
0
 10
3.9
 20
3.0499999999999994
 30
0.0
 11
3.9
 21
5.5
 31
0.0
  0
LINE
  8
0
 62
0
 10
4.5
 20
-5.1
 30
0.0
 11
-4.5
 21
-5.1
 31
0.0
  0
ARC
  8
0
 62
0
 10
-4.5
 20
-4.6
 30
0.0
 40
0.5
 50
-180.0
 51
-90.0
  0
ARC
  8
0
 62
0
 10
4.5
 20
-4.6
 30
0.0
 40
0.5
 50
-90.0
 51
-0.0
  0
ARC
  8
0
 62
0
 10
-4.5
 20
2.4000000000000004
 30
0.0
 40
0.5
 50
90.0
 51
-180.0
  0
ARC
  8
0
 62
0
 10
4.5
 20
2.4
 30
0.0
 40
0.5
 50
-0.0
 51
90.0
  0
ARC
  8
0
 62
0
 10
-4.5
 20
-4.6
 30
0.0
 40
0.5
 50
-180.0
 51
-90.0
  0
POLYLINE
  8
0
 62
0
 70
0
 66
1
 10
0.0
 20
0.0
 30
0.0
  0
VERTEX
  8
0
 10
-5.0
 20
-4.6
 30
0.0
  0
VERTEX
  8
0
 10
-4.5
 20
-4.6
 30
0.0
  0
SEQEND
  8
0
  0
LINE
  8
0
 62
0
 10
-4.5
 20
-4.6
 30
0.0
 11
-4.5
 21
2.4000000000000004
 31
0.0
  0
POLYLINE
  8
0
 62
0
 70
0
 66
1
 10
0.0
 20
0.0
 30
0.0
  0
VERTEX
  8
0
 10
-5.0
 20
2.4000000000000004
 30
0.0
  0
VERTEX
  8
0
 10
-4.5
 20
2.4000000000000004
 30
0.0
  0
SEQEND
  8
0
  0
POLYLINE
  8
0
 62
0
 70
0
 66
1
 10
0.0
 20
0.0
 30
0.0
  0
VERTEX
  8
0
 10
-4.5
 20
2.4000000000000004
 30
0.0
  0
VERTEX
  8
0
 10
-4.5
 20
2.9000000000000004
 30
0.0
  0
SEQEND
  8
0
  0
LINE
  8
0
 62
0
 10
-3.9
 20
3.05
 30
0.0
 11
-2.0999999999999996
 21
3.05
 31
0.0
  0
POLYLINE
  8
0
 62
0
 70
0
 66
1
 10
0.0
 20
0.0
 30
0.0
  0
VERTEX
  8
0
 10
4.5
 20
2.9
 30
0.0
  0
VERTEX
  8
0
 10
4.5
 20
2.4
 30
0.0
  0
SEQEND
  8
0
  0
LINE
  8
0
 62
0
 10
-4.5
 20
2.4000000000000004
 30
0.0
 11
4.5
 21
2.4000000000000004
 31
0.0
  0
LINE
  8
0
 62
0
 10
3.9000000000000004
 20
3.05
 30
0.0
 11
2.1000000000000005
 21
3.05
 31
0.0
  0
POLYLINE
  8
0
 62
0
 70
0
 66
1
 10
0.0
 20
0.0
 30
0.0
  0
VERTEX
  8
0
 10
5.0
 20
2.4
 30
0.0
  0
VERTEX
  8
0
 10
4.5
 20
2.4
 30
0.0
  0
SEQEND
  8
0
  0
POLYLINE
  8
0
 62
0
 70
0
 66
1
 10
0.0
 20
0.0
 30
0.0
  0
VERTEX
  8
0
 10
5.0
 20
-4.6
 30
0.0
  0
VERTEX
  8
0
 10
4.5
 20
-4.6
 30
0.0
  0
SEQEND
  8
0
  0
LINE
  8
0
 62
0
 10
4.5
 20
2.4
 30
0.0
 11
4.5
 21
-4.6
 31
0.0
  0
ARC
  8
0
 62
0
 10
4.5
 20
-4.6
 30
0.0
 40
0.5
 50
-90.0
 51
-0.0
  0
POLYLINE
  8
0
 62
0
 70
0
 66
1
 10
0.0
 20
0.0
 30
0.0
  0
VERTEX
  8
0
 10
-4.5
 20
-4.6
 30
0.0
  0
VERTEX
  8
0
 10
-4.5
 20
-5.1
 30
0.0
  0
SEQEND
  8
0
  0
LINE
  8
0
 62
0
 10
4.5
 20
-4.6
 30
0.0
 11
-4.5
 21
-4.6
 31
0.0
  0
POLYLINE
  8
0
 62
0
 70
0
 66
1
 10
0.0
 20
0.0
 30
0.0
  0
VERTEX
  8
0
 10
4.5
 20
-5.1
 30
0.0
  0
VERTEX
  8
0
 10
4.5
 20
-4.6
 30
0.0
  0
SEQEND
  8
0
  0
ENDBLK
  0
ENDSEC
  0
SECTION
  2
ENTITIES
  0
INSERT
  2
PART__FEATURE
  8
0
 62
0
 10
0.0
 20
0.0
 30
0.0
  0
INSERT
  2
PART__FEATURE001
  8
0
 62
0
 10
0.0
 20
0.0
 30
0.0
  0
INSERT
  2
BODY
  8
0
 62
0
 10
0.0
 20
0.0
 30
0.0
  0
ENDSEC
  0
EOF
