  0
SECTION
  2
HEADER
  9
$ACADVER
  1
AC1009
  9
$INSBASE
 10
0.0
 20
0.0
 30
0.0
  9
$EXTMIN
 10
0.0
 20
0.0
 30
0.0
  9
$EXTMAX
 10
0.0
 20
0.0
 30
0.0
  0
ENDSEC
  0
SECTION
  2
TABLES
  0
TABLE
  2
VPORT
 70
0
  0
ENDTAB
  0
TABLE
  2
LTYPE
 70
1
  0
LTYPE
  2
CONTINUOUS
 70
0
  3
Solid line
 72
65
 73
0
 40
0.0
  0
ENDTAB
  0
TABLE
  2
LAYER
 70
1
  0
LAYER
  2
0
 70
64
 62
7
  6
continuous
  0
ENDTAB
  0
TABLE
  2
STYLE
 70
1
  0
STYLE
  2
STANDARD
 70
0
 40
0
 41
1.0
 50
0.0
 71
0
 42
1
 3
ARIAL.TTF
 4

  0
ENDTAB
  0
TABLE
  2
VIEW
 70
0
  0
ENDTAB
  0
ENDSEC
  0
SECTION
  2
BLOCKS
  0
BLOCK
  8
0
  2
BODY
 70
0
 10
0.0
 20
0.0
 30
0.0
  3
BODY
  0
LINE
  8
0
 62
0
 10
-5.0
 20
-4.6
 30
0.0
 11
-5.0
 21
2.4000000000000004
 31
0.0
  0
LINE
  8
0
 62
0
 10
-4.5
 20
2.9000000000000004
 30
0.0
 11
4.5
 21
2.9000000000000004
 31
0.0
  0
LINE
  8
0
 62
0
 10
5.0
 20
2.4
 30
0.0
 11
5.0
 21
-4.6
 31
0.0
  0
ARC
  8
0
 62
0
 10
-4.5
 20
2.4000000000000004
 30
0.0
 40
0.5
 50
90.0
 51
-180.0
  0
POLYLINE
  8
0
 62
0
 70
0
 66
1
 10
0.0
 20
0.0
 30
0.0
  0
VERTEX
  8
0
 10
-4.05
 20
2.9
 30
0.0
  0
VERTEX
  8
0
 10
-3.9
 20
3.05
 30
0.0
  0
SEQEND
  8
0
  0
POLYLINE
  8
0
 62
0
 70
0
 66
1
 10
0.0
 20
0.0
 30
0.0
  0
VERTEX
  8
0
 10
-1.9500000000000002
 20
2.9
 30
0.0
  0
VERTEX
  8
0
 10
-2.1
 20
3.05
 30
0.0
  0
SEQEND
  8
0
  0
POLYLINE
  8
0
 62
0
 70
0
 66
1
 10
0.0
 20
0.0
 30
0.0
  0
VERTEX
  8
0
 10
1.9499999999999997
 20
2.9
 30
0.0
  0
VERTEX
  8
0
 10
2.0999999999999996
 20
3.05
 30
0.0
  0
SEQEND
  8
0
  0
POLYLINE
  8
0
 62
0
 70
0
 66
1
 10
0.0
 20
0.0
 30
0.0
  0
VERTEX
  8
0
 10
4.050000000000001
 20
2.9
 30
0.0
  0
VERTEX
  8
0
 10
3.900000000000001
 20
3.05
 30
0.0
  0
SEQEND
  8
0
  0
LINE
  8
0
 62
0
 10
-2.1
 20
3.0499999999999994
 30
0.0
 11
-2.1
 21
5.5
 31
0.0
  0
LINE
  8
0
 62
0
 10
-3.9
 20
5.499999999999998
 30
0.0
 11
-2.0999999999999996
 21
5.499999999999998
 31
0.0
  0
LINE
  8
0
 62
0
 10
-3.9
 20
3.0500000000000003
 30
0.0
 11
-3.9
 21
5.5
 31
0.0
  0
ARC
  8
0
 62
0
 10
4.5
 20
2.4
 30
0.0
 40
0.5
 50
-0.0
 51
90.0
  0
LINE
  8
0
 62
0
 10
2.1
 20
3.0499999999999994
 30
0.0
 11
2.1
 21
5.5
 31
0.0
  0
LINE
  8
0
 62
0
 10
3.9
 20
5.499999999999998
 30
0.0
 11
2.0999999999999996
 21
5.499999999999998
 31
0.0
  0
LINE
  8
0
 62
0
 10
3.9
 20
3.0499999999999994
 30
0.0
 11
3.9
 21
5.5
 31
0.0
  0
LINE
  8
0
 62
0
 10
4.5
 20
-5.1
 30
0.0
 11
-4.5
 21
-5.1
 31
0.0
  0
ARC
  8
0
 62
0
 10
-4.5
 20
-4.6
 30
0.0
 40
0.5
 50
-180.0
 51
-90.0
  0
ARC
  8
0
 62
0
 10
4.5
 20
-4.6
 30
0.0
 40
0.5
 50
-90.0
 51
-0.0
  0
ARC
  8
0
 62
0
 10
-4.5
 20
2.4000000000000004
 30
0.0
 40
0.5
 50
90.0
 51
-180.0
  0
ARC
  8
0
 62
0
 10
4.5
 20
2.4
 30
0.0
 40
0.5
 50
-0.0
 51
90.0
  0
ARC
  8
0
 62
0
 10
-4.5
 20
-4.6
 30
0.0
 40
0.5
 50
-180.0
 51
-90.0
  0
POLYLINE
  8
0
 62
0
 70
0
 66
1
 10
0.0
 20
0.0
 30
0.0
  0
VERTEX
  8
0
 10
-5.0
 20
-4.6
 30
0.0
  0
VERTEX
  8
0
 10
-4.5
 20
-4.6
 30
0.0
  0
SEQEND
  8
0
  0
LINE
  8
0
 62
0
 10
-4.5
 20
-4.6
 30
0.0
 11
-4.5
 21
2.4000000000000004
 31
0.0
  0
POLYLINE
  8
0
 62
0
 70
0
 66
1
 10
0.0
 20
0.0
 30
0.0
  0
VERTEX
  8
0
 10
-5.0
 20
2.4000000000000004
 30
0.0
  0
VERTEX
  8
0
 10
-4.5
 20
2.4000000000000004
 30
0.0
  0
SEQEND
  8
0
  0
POLYLINE
  8
0
 62
0
 70
0
 66
1
 10
0.0
 20
0.0
 30
0.0
  0
VERTEX
  8
0
 10
-4.5
 20
2.4000000000000004
 30
0.0
  0
VERTEX
  8
0
 10
-4.5
 20
2.9000000000000004
 30
0.0
  0
SEQEND
  8
0
  0
LINE
  8
0
 62
0
 10
-3.9
 20
3.05
 30
0.0
 11
-2.0999999999999996
 21
3.05
 31
0.0
  0
POLYLINE
  8
0
 62
0
 70
0
 66
1
 10
0.0
 20
0.0
 30
0.0
  0
VERTEX
  8
0
 10
4.5
 20
2.9
 30
0.0
  0
VERTEX
  8
0
 10
4.5
 20
2.4
 30
0.0
  0
SEQEND
  8
0
  0
LINE
  8
0
 62
0
 10
-4.5
 20
2.4000000000000004
 30
0.0
 11
4.5
 21
2.4000000000000004
 31
0.0
  0
LINE
  8
0
 62
0
 10
3.9000000000000004
 20
3.05
 30
0.0
 11
2.1000000000000005
 21
3.05
 31
0.0
  0
POLYLINE
  8
0
 62
0
 70
0
 66
1
 10
0.0
 20
0.0
 30
0.0
  0
VERTEX
  8
0
 10
5.0
 20
2.4
 30
0.0
  0
VERTEX
  8
0
 10
4.5
 20
2.4
 30
0.0
  0
SEQEND
  8
0
  0
POLYLINE
  8
0
 62
0
 70
0
 66
1
 10
0.0
 20
0.0
 30
0.0
  0
VERTEX
  8
0
 10
5.0
 20
-4.6
 30
0.0
  0
VERTEX
  8
0
 10
4.5
 20
-4.6
 30
0.0
  0
SEQEND
  8
0
  0
LINE
  8
0
 62
0
 10
4.5
 20
2.4
 30
0.0
 11
4.5
 21
-4.6
 31
0.0
  0
ARC
  8
0
 62
0
 10
4.5
 20
-4.6
 30
0.0
 40
0.5
 50
-90.0
 51
-0.0
  0
POLYLINE
  8
0
 62
0
 70
0
 66
1
 10
0.0
 20
0.0
 30
0.0
  0
VERTEX
  8
0
 10
-4.5
 20
-4.6
 30
0.0
  0
VERTEX
  8
0
 10
-4.5
 20
-5.1
 30
0.0
  0
SEQEND
  8
0
  0
LINE
  8
0
 62
0
 10
4.5
 20
-4.6
 30
0.0
 11
-4.5
 21
-4.6
 31
0.0
  0
POLYLINE
  8
0
 62
0
 70
0
 66
1
 10
0.0
 20
0.0
 30
0.0
  0
VERTEX
  8
0
 10
4.5
 20
-5.1
 30
0.0
  0
VERTEX
  8
0
 10
4.5
 20
-4.6
 30
0.0
  0
SEQEND
  8
0
  0
ENDBLK
  0
ENDSEC
  0
SECTION
  2
ENTITIES
  0
INSERT
  2
BODY
  8
0
 62
0
 10
0.0
 20
0.0
 30
0.0
  0
ENDSEC
  0
EOF
