  0
SECTION
  2
HEADER
  9
$ACADVER
  1
AC1009
  9
$INSBASE
 10
0.0
 20
0.0
 30
0.0
  9
$EXTMIN
 10
0.0
 20
0.0
 30
0.0
  9
$EXTMAX
 10
0.0
 20
0.0
 30
0.0
  0
ENDSEC
  0
SECTION
  2
TABLES
  0
TABLE
  2
VPORT
 70
0
  0
ENDTAB
  0
TABLE
  2
LTYPE
 70
1
  0
LTYPE
  2
CONTINUOUS
 70
0
  3
Solid line
 72
65
 73
0
 40
0.0
  0
ENDTAB
  0
TABLE
  2
LAYER
 70
1
  0
LAYER
  2
0
 70
64
 62
7
  6
continuous
  0
ENDTAB
  0
TABLE
  2
STYLE
 70
1
  0
STYLE
  2
STANDARD
 70
0
 40
0
 41
1.0
 50
0.0
 71
0
 42
1
 3
ARIAL.TTF
 4

  0
ENDTAB
  0
TABLE
  2
VIEW
 70
0
  0
ENDTAB
  0
ENDSEC
  0
SECTION
  2
BLOCKS
  0
BLOCK
  8
0
  2
SHAPE2DVIEW
 70
0
 10
0.0
 20
0.0
 30
0.0
  3
SHAPE2DVIEW
  0
LINE
  8
0
 62
0
 10
-48.6
 20
64.0
 30
0.0
 11
218.4
 21
64.0
 31
0.0
  0
ARC
  8
0
 62
0
 10
218.4
 20
62.5
 30
0.0
 40
1.5
 50
-0.0
 51
90.0
  0
LINE
  8
0
 62
0
 10
219.9
 20
62.5
 30
0.0
 11
219.9
 21
-49.5
 31
0.0
  0
ARC
  8
0
 62
0
 10
218.4
 20
-49.5
 30
0.0
 40
1.5
 50
-90.0
 51
-0.0
  0
LINE
  8
0
 62
0
 10
218.4
 20
-51.0
 30
0.0
 11
-48.599999999999994
 21
-51.0
 31
0.0
  0
ARC
  8
0
 62
0
 10
-48.6
 20
-49.5
 30
0.0
 40
1.5
 50
-180.0
 51
-90.0
  0
LINE
  8
0
 62
0
 10
-50.1
 20
-49.5
 30
0.0
 11
-50.1
 21
62.5
 31
0.0
  0
ARC
  8
0
 62
0
 10
-48.6
 20
62.5
 30
0.0
 40
1.5
 50
90.0
 51
-180.0
  0
CIRCLE
  8
0
 62
0
 10
22.5
 20
-38.9711431703
 30
0.0
 40
3.75
  0
LINE
  8
0
 62
0
 10
21.76371880627254
 20
-19.16363499893946
 30
0.0
 11
18.798902019011962
 21
-16.18501307819805
 31
0.0
  0
POLYLINE
  8
0
 62
0
 70
0
 66
1
 10
0.0
 20
0.0
 30
0.0
  0
VERTEX
  8
0
 10
18.79890201901
 20
-16.1850130782
 30
0.0
  0
VERTEX
  8
0
 10
18.622104302984205
 20
-15.884004187602587
 30
0.0
  0
VERTEX
  8
0
 10
18.615781688857044
 20
-15.521990226003435
 30
0.0
  0
VERTEX
  8
0
 10
18.781967064459
 20
-15.21498413782
 30
0.0
  0
SEQEND
  8
0
  0
ARC
  8
0
 62
0
 10
6.321985447626
 20
-3.65
 30
0.0
 40
17.0
 50
-42.86655777050109
 51
-17.13344222948142
  0
POLYLINE
  8
0
 62
0
 70
0
 66
1
 10
0.0
 20
0.0
 30
0.0
  0
VERTEX
  8
0
 10
22.567546313765
 20
-8.658168541951
 30
0.0
  0
VERTEX
  8
0
 10
22.750321750509205
 20
-8.360751453787035
 30
0.0
  0
VERTEX
  8
0
 10
23.066993917556196
 20
-8.185215638467497
 30
0.0
  0
VERTEX
  8
0
 10
23.416083495813
 20
-8.187820172616
 30
0.0
  0
SEQEND
  8
0
  0
LINE
  8
0
 62
0
 10
27.478054141075265
 20
-9.266115867578991
 30
0.0
 11
23.416083495813385
 21
-8.187820172614554
 31
0.0
  0
POLYLINE
  8
0
 62
0
 70
0
 66
1
 10
0.0
 20
0.0
 30
0.0
  0
VERTEX
  8
0
 10
27.968932478469
 20
-10.14381892601
 30
0.0
  0
VERTEX
  8
0
 10
27.979086755990338
 20
-9.779171247871055
 30
0.0
  0
VERTEX
  8
0
 10
27.79406482116689
 20
-9.448347282537803
 30
0.0
  0
VERTEX
  8
0
 10
27.478054141075
 20
-9.26611586758
 30
0.0
  0
SEQEND
  8
0
  0
ARC
  8
0
 62
0
 10
6.321985447626
 20
-3.65
 30
0.0
 40
22.6
 50
-43.301399708373715
 51
-16.69860029159412
  0
POLYLINE
  8
0
 62
0
 70
0
 66
1
 10
0.0
 20
0.0
 30
0.0
  0
VERTEX
  8
0
 10
21.763718806272
 20
-19.16363499894
 30
0.0
  0
VERTEX
  8
0
 10
22.079541181038593
 20
-19.346192568288156
 30
0.0
  0
VERTEX
  8
0
 10
22.458554106609835
 20
-19.34101428143858
 30
0.0
  0
VERTEX
  8
0
 10
22.769271120555
 20
-19.14989658007
 30
0.0
  0
SEQEND
  8
0
  0
LINE
  8
0
 62
0
 10
27.478054141075265
 20
9.266115867578991
 30
0.0
 11
23.416083495813385
 21
8.187820172614554
 31
0.0
  0
POLYLINE
  8
0
 62
0
 70
0
 66
1
 10
0.0
 20
0.0
 30
0.0
  0
VERTEX
  8
0
 10
23.416083495813
 20
8.187820172616
 30
0.0
  0
VERTEX
  8
0
 10
23.0669939175562
 20
8.185215638467497
 30
0.0
  0
VERTEX
  8
0
 10
22.7503217505092
 20
8.360751453786708
 30
0.0
  0
VERTEX
  8
0
 10
22.567546313765
 20
8.658168541951
 30
0.0
  0
SEQEND
  8
0
  0
ARC
  8
0
 62
0
 10
6.321985447626
 20
3.65
 30
0.0
 40
17.0
 50
17.133442229481467
 51
42.86655777051839
  0
POLYLINE
  8
0
 62
0
 70
0
 66
1
 10
0.0
 20
0.0
 30
0.0
  0
VERTEX
  8
0
 10
18.781967064459
 20
15.214984137827
 30
0.0
  0
VERTEX
  8
0
 10
18.615781688857044
 20
15.521990226009674
 30
0.0
  0
VERTEX
  8
0
 10
18.622104302984205
 20
15.8840041876091
 30
0.0
  0
VERTEX
  8
0
 10
18.79890201901
 20
16.185013078203
 30
0.0
  0
SEQEND
  8
0
  0
LINE
  8
0
 62
0
 10
21.763718806271537
 20
19.163634998945458
 30
0.0
 11
18.798902019009958
 21
16.185013078203042
 31
0.0
  0
POLYLINE
  8
0
 62
0
 70
0
 66
1
 10
0.0
 20
0.0
 30
0.0
  0
VERTEX
  8
0
 10
22.769271120555
 20
19.149896580077
 30
0.0
  0
VERTEX
  8
0
 10
22.45855410660984
 20
19.34101428144095
 30
0.0
  0
VERTEX
  8
0
 10
22.079541181038696
 20
19.34619256829323
 30
0.0
  0
VERTEX
  8
0
 10
21.763718806272
 20
19.163634998945
 30
0.0
  0
SEQEND
  8
0
  0
ARC
  8
0
 62
0
 10
6.321985447626
 20
3.65
 30
0.0
 40
22.6
 50
16.698600291611143
 51
43.30139970838659
  0
POLYLINE
  8
0
 62
0
 70
0
 66
1
 10
0.0
 20
0.0
 30
0.0
  0
VERTEX
  8
0
 10
27.478054141075
 20
9.26611586758
 30
0.0
  0
VERTEX
  8
0
 10
27.79406482116689
 20
9.448347282537801
 30
0.0
  0
VERTEX
  8
0
 10
27.979086755990334
 20
9.779171247871055
 30
0.0
  0
VERTEX
  8
0
 10
27.968932478469
 20
10.143818926017
 30
0.0
  0
SEQEND
  8
0
  0
CIRCLE
  8
0
 62
0
 10
58.7
 20
-4.6
 30
0.0
 40
0.9
  0
LINE
  8
0
 62
0
 10
40.0
 20
-36.6
 30
0.0
 11
40.0
 21
12.399999999999999
 31
0.0
  0
ARC
  8
0
 62
0
 10
41.5
 20
12.4
 30
0.0
 40
1.5
 50
90.0
 51
-180.0
  0
LINE
  8
0
 62
0
 10
41.5
 20
13.9
 30
0.0
 11
42.5
 21
13.9
 31
0.0
  0
ARC
  8
0
 62
0
 10
42.5
 20
12.4
 30
0.0
 40
1.5
 50
-0.0
 51
90.0
  0
LINE
  8
0
 62
0
 10
44.0
 20
12.4
 30
0.0
 11
44.0
 21
-36.6
 31
0.0
  0
ARC
  8
0
 62
0
 10
42.5
 20
-36.6
 30
0.0
 40
1.5
 50
-90.0
 51
-0.0
  0
LINE
  8
0
 62
0
 10
42.5
 20
-38.1
 30
0.0
 11
41.5
 21
-38.1
 31
0.0
  0
ARC
  8
0
 62
0
 10
41.5
 20
-36.6
 30
0.0
 40
1.5
 50
-180.0
 51
-90.0
  0
CIRCLE
  8
0
 62
0
 10
73.7
 20
-4.6
 30
0.0
 40
0.9
  0
LINE
  8
0
 62
0
 10
63.2
 20
-36.6
 30
0.0
 11
63.2
 21
27.4
 31
0.0
  0
ARC
  8
0
 62
0
 10
64.7
 20
27.4
 30
0.0
 40
1.5
 50
90.0
 51
-180.0
  0
LINE
  8
0
 62
0
 10
64.7
 20
28.9
 30
0.0
 11
65.7
 21
28.9
 31
0.0
  0
ARC
  8
0
 62
0
 10
65.7
 20
27.4
 30
0.0
 40
1.5
 50
-0.0
 51
90.0
  0
LINE
  8
0
 62
0
 10
67.2
 20
27.4
 30
0.0
 11
67.2
 21
-36.6
 31
0.0
  0
ARC
  8
0
 62
0
 10
65.7
 20
-36.6
 30
0.0
 40
1.5
 50
-90.0
 51
-0.0
  0
LINE
  8
0
 62
0
 10
65.7
 20
-38.1
 30
0.0
 11
64.7
 21
-38.1
 31
0.0
  0
ARC
  8
0
 62
0
 10
64.7
 20
-36.6
 30
0.0
 40
1.5
 50
-180.0
 51
-90.0
  0
LINE
  8
0
 62
0
 10
129.25
 20
-3.3
 30
0.0
 11
129.25
 21
0.09999999999998987
 31
0.0
  0
ARC
  8
0
 62
0
 10
129.45
 20
0.1
 30
0.0
 40
0.2
 50
90.0
 51
-180.0
  0
LINE
  8
0
 62
0
 10
129.45
 20
0.3
 30
0.0
 11
129.95
 21
0.3
 31
0.0
  0
ARC
  8
0
 62
0
 10
129.95
 20
0.1
 30
0.0
 40
0.2
 50
-0.0
 51
90.0
  0
LINE
  8
0
 62
0
 10
130.15
 20
0.09999999999998999
 30
0.0
 11
130.15
 21
-3.3000000000000003
 31
0.0
  0
ARC
  8
0
 62
0
 10
129.95
 20
-3.3
 30
0.0
 40
0.2
 50
-90.0
 51
-0.0
  0
LINE
  8
0
 62
0
 10
129.95
 20
-3.5
 30
0.0
 11
129.45
 21
-3.5
 31
0.0
  0
ARC
  8
0
 62
0
 10
129.45
 20
-3.3
 30
0.0
 40
0.2
 50
-180.0
 51
-90.0
  0
LINE
  8
0
 62
0
 10
121.95
 20
-0.2
 30
0.0
 11
121.45
 21
-0.2
 31
0.0
  0
ARC
  8
0
 62
0
 10
121.45
 20
-0.4
 30
0.0
 40
0.2
 50
90.0
 51
-180.0
  0
LINE
  8
0
 62
0
 10
121.25
 20
-0.4
 30
0.0
 11
121.25
 21
-2.8000000000000003
 31
0.0
  0
ARC
  8
0
 62
0
 10
121.45
 20
-2.8
 30
0.0
 40
0.2
 50
-180.0
 51
-90.0
  0
LINE
  8
0
 62
0
 10
121.45
 20
-3.0
 30
0.0
 11
121.95
 21
-3.0
 31
0.0
  0
ARC
  8
0
 62
0
 10
121.95
 20
-2.8
 30
0.0
 40
0.2
 50
-90.0
 51
-0.0
  0
LINE
  8
0
 62
0
 10
122.15
 20
-2.8
 30
0.0
 11
122.15
 21
-0.3999999999999999
 31
0.0
  0
ARC
  8
0
 62
0
 10
121.95
 20
-0.4
 30
0.0
 40
0.2
 50
-0.0
 51
90.0
  0
LINE
  8
0
 62
0
 10
125.95
 20
-0.2
 30
0.0
 11
125.45
 21
-0.2
 31
0.0
  0
ARC
  8
0
 62
0
 10
125.45
 20
-0.4
 30
0.0
 40
0.2
 50
90.0
 51
-180.0
  0
LINE
  8
0
 62
0
 10
125.25
 20
-0.4
 30
0.0
 11
125.25
 21
-2.8000000000000003
 31
0.0
  0
ARC
  8
0
 62
0
 10
125.45
 20
-2.8
 30
0.0
 40
0.2
 50
-180.0
 51
-90.0
  0
LINE
  8
0
 62
0
 10
125.45
 20
-3.0
 30
0.0
 11
125.95
 21
-3.0
 31
0.0
  0
ARC
  8
0
 62
0
 10
125.95
 20
-2.8
 30
0.0
 40
0.2
 50
-90.0
 51
-0.0
  0
LINE
  8
0
 62
0
 10
126.15
 20
-2.8
 30
0.0
 11
126.15
 21
-0.3999999999999999
 31
0.0
  0
ARC
  8
0
 62
0
 10
125.95
 20
-0.4
 30
0.0
 40
0.2
 50
-0.0
 51
90.0
  0
LINE
  8
0
 62
0
 10
117.95
 20
-0.2
 30
0.0
 11
117.45
 21
-0.2
 31
0.0
  0
ARC
  8
0
 62
0
 10
117.45
 20
-0.4
 30
0.0
 40
0.2
 50
90.0
 51
-180.0
  0
LINE
  8
0
 62
0
 10
117.25
 20
-0.4
 30
0.0
 11
117.25
 21
-2.8000000000000003
 31
0.0
  0
ARC
  8
0
 62
0
 10
117.45
 20
-2.8
 30
0.0
 40
0.2
 50
-180.0
 51
-90.0
  0
LINE
  8
0
 62
0
 10
117.45
 20
-3.0
 30
0.0
 11
117.95
 21
-3.0
 31
0.0
  0
ARC
  8
0
 62
0
 10
117.95
 20
-2.8
 30
0.0
 40
0.2
 50
-90.0
 51
-0.0
  0
LINE
  8
0
 62
0
 10
118.15
 20
-2.8
 30
0.0
 11
118.15
 21
-0.3999999999999999
 31
0.0
  0
ARC
  8
0
 62
0
 10
117.95
 20
-0.4
 30
0.0
 40
0.2
 50
-0.0
 51
90.0
  0
LINE
  8
0
 62
0
 10
113.25
 20
0.09999999999998999
 30
0.0
 11
113.25
 21
-3.3000000000000003
 31
0.0
  0
ARC
  8
0
 62
0
 10
113.45
 20
-3.3
 30
0.0
 40
0.2
 50
-180.0
 51
-90.0
  0
LINE
  8
0
 62
0
 10
113.45
 20
-3.5
 30
0.0
 11
113.95
 21
-3.5
 31
0.0
  0
ARC
  8
0
 62
0
 10
113.95
 20
-3.3
 30
0.0
 40
0.2
 50
-90.0
 51
-0.0
  0
LINE
  8
0
 62
0
 10
114.15
 20
0.09999999999998999
 30
0.0
 11
114.15
 21
-3.3000000000000003
 31
0.0
  0
ARC
  8
0
 62
0
 10
113.95
 20
0.09999999999999
 30
0.0
 40
0.2
 50
-0.0
 51
90.0
  0
LINE
  8
0
 62
0
 10
113.45
 20
0.3
 30
0.0
 11
113.95
 21
0.3
 31
0.0
  0
ARC
  8
0
 62
0
 10
113.45
 20
0.09999999999999
 30
0.0
 40
0.2
 50
90.0
 51
180.0
  0
ARC
  8
0
 62
0
 10
129.7
 20
-23.6
 30
0.0
 40
16.0
 50
-86.41667830152771
 51
-0.0
  0
ARC
  8
0
 62
0
 10
129.7
 20
-23.6
 30
0.0
 40
16.0
 50
-0.0
 51
-93.58332169850797
  0
LINE
  8
0
 62
0
 10
128.7
 20
-40.6
 30
0.0
 11
128.7
 21
-39.56871942267
 31
0.0
  0
LINE
  8
0
 62
0
 10
130.7
 20
-40.6
 30
0.0
 11
128.7
 21
-40.6
 31
0.0
  0
LINE
  8
0
 62
0
 10
130.7
 20
-39.56871942267
 30
0.0
 11
130.7
 21
-40.6
 31
0.0
  0
LINE
  8
0
 62
0
 10
109.6
 20
-23.35
 30
0.0
 11
109.6
 21
-23.85
 31
0.0
  0
ARC
  8
0
 62
0
 10
109.4
 20
-23.85
 30
0.0
 40
0.2
 50
-90.0
 51
-0.0
  0
LINE
  8
0
 62
0
 10
109.4
 20
-24.05
 30
0.0
 11
106.0
 21
-24.05
 31
0.0
  0
ARC
  8
0
 62
0
 10
106.0
 20
-23.85
 30
0.0
 40
0.2
 50
-180.0
 51
-90.0
  0
LINE
  8
0
 62
0
 10
105.8
 20
-23.85
 30
0.0
 11
105.8
 21
-23.35
 31
0.0
  0
ARC
  8
0
 62
0
 10
106.0
 20
-23.35
 30
0.0
 40
0.2
 50
90.0
 51
-180.0
  0
LINE
  8
0
 62
0
 10
106.0
 20
-23.15
 30
0.0
 11
109.4
 21
-23.15
 31
0.0
  0
ARC
  8
0
 62
0
 10
109.4
 20
-23.35
 30
0.0
 40
0.2
 50
-0.0
 51
90.0
  0
LINE
  8
0
 62
0
 10
109.1
 20
-19.35
 30
0.0
 11
109.1
 21
-19.85
 31
0.0
  0
ARC
  8
0
 62
0
 10
108.9
 20
-19.85
 30
0.0
 40
0.2
 50
-90.0
 51
-0.0
  0
LINE
  8
0
 62
0
 10
108.9
 20
-20.05
 30
0.0
 11
106.5
 21
-20.05
 31
0.0
  0
ARC
  8
0
 62
0
 10
106.5
 20
-19.85
 30
0.0
 40
0.2
 50
-180.0
 51
-90.0
  0
LINE
  8
0
 62
0
 10
106.3
 20
-19.85
 30
0.0
 11
106.3
 21
-19.35
 31
0.0
  0
ARC
  8
0
 62
0
 10
106.5
 20
-19.35
 30
0.0
 40
0.2
 50
90.0
 51
-180.0
  0
LINE
  8
0
 62
0
 10
106.5
 20
-19.15
 30
0.0
 11
108.9
 21
-19.15
 31
0.0
  0
ARC
  8
0
 62
0
 10
108.9
 20
-19.35
 30
0.0
 40
0.2
 50
-0.0
 51
90.0
  0
LINE
  8
0
 62
0
 10
109.1
 20
-15.35
 30
0.0
 11
109.1
 21
-15.85
 31
0.0
  0
ARC
  8
0
 62
0
 10
108.9
 20
-15.85
 30
0.0
 40
0.2
 50
-90.0
 51
-0.0
  0
LINE
  8
0
 62
0
 10
108.9
 20
-16.05
 30
0.0
 11
106.5
 21
-16.05
 31
0.0
  0
ARC
  8
0
 62
0
 10
106.5
 20
-15.85
 30
0.0
 40
0.2
 50
-180.0
 51
-90.0
  0
LINE
  8
0
 62
0
 10
106.3
 20
-15.85
 30
0.0
 11
106.3
 21
-15.35
 31
0.0
  0
ARC
  8
0
 62
0
 10
106.5
 20
-15.35
 30
0.0
 40
0.2
 50
90.0
 51
-180.0
  0
LINE
  8
0
 62
0
 10
106.5
 20
-15.15
 30
0.0
 11
108.9
 21
-15.15
 31
0.0
  0
ARC
  8
0
 62
0
 10
108.9
 20
-15.35
 30
0.0
 40
0.2
 50
-0.0
 51
90.0
  0
LINE
  8
0
 62
0
 10
109.6
 20
-7.35
 30
0.0
 11
109.6
 21
-7.85
 31
0.0
  0
ARC
  8
0
 62
0
 10
109.4
 20
-7.85
 30
0.0
 40
0.2
 50
-90.0
 51
-0.0
  0
LINE
  8
0
 62
0
 10
109.4
 20
-8.05
 30
0.0
 11
106.0
 21
-8.05
 31
0.0
  0
ARC
  8
0
 62
0
 10
106.0
 20
-7.85
 30
0.0
 40
0.2
 50
-180.0
 51
-90.0
  0
LINE
  8
0
 62
0
 10
105.8
 20
-7.85
 30
0.0
 11
105.8
 21
-7.35
 31
0.0
  0
ARC
  8
0
 62
0
 10
106.0
 20
-7.35
 30
0.0
 40
0.2
 50
90.0
 51
-180.0
  0
LINE
  8
0
 62
0
 10
106.0
 20
-7.15
 30
0.0
 11
109.4
 21
-7.15
 31
0.0
  0
ARC
  8
0
 62
0
 10
109.4
 20
-7.35
 30
0.0
 40
0.2
 50
-0.0
 51
90.0
  0
LINE
  8
0
 62
0
 10
109.1
 20
-11.35
 30
0.0
 11
109.1
 21
-11.85
 31
0.0
  0
ARC
  8
0
 62
0
 10
108.9
 20
-11.85
 30
0.0
 40
0.2
 50
-90.0
 51
-0.0
  0
LINE
  8
0
 62
0
 10
108.9
 20
-12.05
 30
0.0
 11
106.5
 21
-12.05
 31
0.0
  0
ARC
  8
0
 62
0
 10
106.5
 20
-11.85
 30
0.0
 40
0.2
 50
-180.0
 51
-90.0
  0
LINE
  8
0
 62
0
 10
106.3
 20
-11.85
 30
0.0
 11
106.3
 21
-11.35
 31
0.0
  0
ARC
  8
0
 62
0
 10
106.5
 20
-11.35
 30
0.0
 40
0.2
 50
90.0
 51
-180.0
  0
LINE
  8
0
 62
0
 10
106.5
 20
-11.15
 30
0.0
 11
108.9
 21
-11.15
 31
0.0
  0
ARC
  8
0
 62
0
 10
108.9
 20
-11.35
 30
0.0
 40
0.2
 50
-0.0
 51
90.0
  0
LINE
  8
0
 62
0
 10
109.1
 20
-27.35
 30
0.0
 11
109.1
 21
-27.85
 31
0.0
  0
ARC
  8
0
 62
0
 10
108.9
 20
-27.85
 30
0.0
 40
0.2
 50
-90.0
 51
-0.0
  0
LINE
  8
0
 62
0
 10
108.9
 20
-28.05
 30
0.0
 11
106.5
 21
-28.05
 31
0.0
  0
ARC
  8
0
 62
0
 10
106.5
 20
-27.85
 30
0.0
 40
0.2
 50
-180.0
 51
-90.0
  0
LINE
  8
0
 62
0
 10
106.3
 20
-27.85
 30
0.0
 11
106.3
 21
-27.35
 31
0.0
  0
ARC
  8
0
 62
0
 10
106.5
 20
-27.35
 30
0.0
 40
0.2
 50
90.0
 51
-180.0
  0
LINE
  8
0
 62
0
 10
106.5
 20
-27.15
 30
0.0
 11
108.9
 21
-27.15
 31
0.0
  0
ARC
  8
0
 62
0
 10
108.9
 20
-27.35
 30
0.0
 40
0.2
 50
-0.0
 51
90.0
  0
LINE
  8
0
 62
0
 10
109.1
 20
-31.35
 30
0.0
 11
109.1
 21
-31.85
 31
0.0
  0
ARC
  8
0
 62
0
 10
108.9
 20
-31.85
 30
0.0
 40
0.2
 50
-90.0
 51
-0.0
  0
LINE
  8
0
 62
0
 10
108.9
 20
-32.05
 30
0.0
 11
106.5
 21
-32.05
 31
0.0
  0
ARC
  8
0
 62
0
 10
106.5
 20
-31.85
 30
0.0
 40
0.2
 50
-180.0
 51
-90.0
  0
LINE
  8
0
 62
0
 10
106.3
 20
-31.85
 30
0.0
 11
106.3
 21
-31.35
 31
0.0
  0
ARC
  8
0
 62
0
 10
106.5
 20
-31.35
 30
0.0
 40
0.2
 50
90.0
 51
-180.0
  0
LINE
  8
0
 62
0
 10
106.5
 20
-31.15
 30
0.0
 11
108.9
 21
-31.15
 31
0.0
  0
ARC
  8
0
 62
0
 10
108.9
 20
-31.35
 30
0.0
 40
0.2
 50
-0.0
 51
90.0
  0
LINE
  8
0
 62
0
 10
106.5
 20
-36.05
 30
0.0
 11
108.9
 21
-36.05
 31
0.0
  0
ARC
  8
0
 62
0
 10
108.9
 20
-35.85
 30
0.0
 40
0.2
 50
-90.0
 51
-0.0
  0
LINE
  8
0
 62
0
 10
109.1
 20
-35.85
 30
0.0
 11
109.1
 21
-35.35
 31
0.0
  0
ARC
  8
0
 62
0
 10
108.9
 20
-35.35
 30
0.0
 40
0.2
 50
-0.0
 51
90.0
  0
LINE
  8
0
 62
0
 10
108.9
 20
-35.15
 30
0.0
 11
106.5
 21
-35.15
 31
0.0
  0
ARC
  8
0
 62
0
 10
106.5
 20
-35.35
 30
0.0
 40
0.2
 50
90.0
 51
-180.0
  0
LINE
  8
0
 62
0
 10
106.3
 20
-35.35
 30
0.0
 11
106.3
 21
-35.85
 31
0.0
  0
ARC
  8
0
 62
0
 10
106.5
 20
-35.85
 30
0.0
 40
0.2
 50
-180.0
 51
-90.0
  0
CIRCLE
  8
0
 62
0
 10
113.2
 20
13.5
 30
0.0
 40
3.75
  0
CIRCLE
  8
0
 62
0
 10
146.2
 20
13.5
 30
0.0
 40
3.75
  0
LINE
  8
0
 62
0
 10
78.2
 20
-36.6
 30
0.0
 11
78.2
 21
27.4
 31
0.0
  0
ARC
  8
0
 62
0
 10
79.7
 20
27.4
 30
0.0
 40
1.5
 50
90.0
 51
-180.0
  0
LINE
  8
0
 62
0
 10
79.7
 20
28.9
 30
0.0
 11
80.7
 21
28.9
 31
0.0
  0
ARC
  8
0
 62
0
 10
80.7
 20
27.4
 30
0.0
 40
1.5
 50
-0.0
 51
90.0
  0
LINE
  8
0
 62
0
 10
82.2
 20
27.4
 30
0.0
 11
82.2
 21
-36.6
 31
0.0
  0
ARC
  8
0
 62
0
 10
80.7
 20
-36.6
 30
0.0
 40
1.5
 50
-90.0
 51
-0.0
  0
LINE
  8
0
 62
0
 10
80.7
 20
-38.1
 30
0.0
 11
79.7
 21
-38.1
 31
0.0
  0
ARC
  8
0
 62
0
 10
79.7
 20
-36.6
 30
0.0
 40
1.5
 50
-180.0
 51
-90.0
  0
LINE
  8
0
 62
0
 10
106.0
 20
-40.05
 30
0.0
 11
109.4
 21
-40.05
 31
0.0
  0
ARC
  8
0
 62
0
 10
109.4
 20
-39.85
 30
0.0
 40
0.2
 50
-90.0
 51
-0.0
  0
LINE
  8
0
 62
0
 10
109.6
 20
-39.85
 30
0.0
 11
109.6
 21
-39.35
 31
0.0
  0
ARC
  8
0
 62
0
 10
109.4
 20
-39.35
 30
0.0
 40
0.2
 50
-0.0
 51
90.0
  0
LINE
  8
0
 62
0
 10
109.4
 20
-39.15
 30
0.0
 11
106.0
 21
-39.15
 31
0.0
  0
ARC
  8
0
 62
0
 10
106.0
 20
-39.35
 30
0.0
 40
0.2
 50
90.0
 51
-180.0
  0
LINE
  8
0
 62
0
 10
105.8
 20
-39.35
 30
0.0
 11
105.8
 21
-39.85
 31
0.0
  0
ARC
  8
0
 62
0
 10
106.0
 20
-39.85
 30
0.0
 40
0.2
 50
-180.0
 51
-90.0
  0
CIRCLE
  8
0
 62
0
 10
80.2
 20
56.5
 30
0.0
 40
0.9
  0
CIRCLE
  8
0
 62
0
 10
80.2
 20
43.5
 30
0.0
 40
3.75
  0
CIRCLE
  8
0
 62
0
 10
113.2
 20
43.5
 30
0.0
 40
3.75
  0
CIRCLE
  8
0
 62
0
 10
22.5
 20
38.9711431703
 30
0.0
 40
3.75
  0
CIRCLE
  8
0
 62
0
 10
22.5
 20
51.9711431703
 30
0.0
 40
0.9
  0
LINE
  8
0
 62
0
 10
60.5
 20
40.2
 30
0.0
 11
60.5
 21
46.8
 31
0.0
  0
ARC
  8
0
 62
0
 10
59.5
 20
46.8
 30
0.0
 40
1.0
 50
-0.0
 51
90.0
  0
LINE
  8
0
 62
0
 10
50.9
 20
47.8
 30
0.0
 11
59.5
 21
47.8
 31
0.0
  0
ARC
  8
0
 62
0
 10
50.9
 20
46.8
 30
0.0
 40
1.0
 50
90.0
 51
-180.0
  0
LINE
  8
0
 62
0
 10
49.9
 20
40.2
 30
0.0
 11
49.9
 21
46.8
 31
0.0
  0
ARC
  8
0
 62
0
 10
50.9
 20
40.2
 30
0.0
 40
1.0
 50
-180.0
 51
-90.0
  0
LINE
  8
0
 62
0
 10
50.9
 20
39.2
 30
0.0
 11
59.5
 21
39.2
 31
0.0
  0
ARC
  8
0
 62
0
 10
59.5
 20
40.2
 30
0.0
 40
1.0
 50
-90.0
 51
-0.0
  0
CIRCLE
  8
0
 62
0
 10
146.2
 20
43.5
 30
0.0
 40
3.75
  0
CIRCLE
  8
0
 62
0
 10
-41.85
 20
55.75
 30
0.0
 40
3.15
  0
CIRCLE
  8
0
 62
0
 10
-41.85
 20
6.5
 30
0.0
 40
3.15
  0
CIRCLE
  8
0
 62
0
 10
-41.85
 20
-42.75
 30
0.0
 40
3.15
  0
LINE
  8
0
 62
0
 10
5.7143353348034855
 20
28.42975086652514
 30
0.0
 11
4.617181476801205
 21
24.372833250819212
 31
0.0
  0
POLYLINE
  8
0
 62
0
 70
0
 66
1
 10
0.0
 20
0.0
 30
0.0
  0
VERTEX
  8
0
 10
4.617181476802
 20
24.372833250819
 30
0.0
  0
VERTEX
  8
0
 10
4.444892280411599
 20
24.069210540778563
 30
0.0
  0
VERTEX
  8
0
 10
4.134537721547325
 20
23.882732307103915
 30
0.0
  0
VERTEX
  8
0
 10
3.785579249306
 20
23.873152679778
 30
0.0
  0
SEQEND
  8
0
  0
ARC
  8
0
 62
0
 10
0.0
 20
7.3
 30
0.0
 40
17.0
 50
77.13344222948083
 51
102.86655777051917
  0
POLYLINE
  8
0
 62
0
 70
0
 66
1
 10
0.0
 20
0.0
 30
0.0
  0
VERTEX
  8
0
 10
-3.785579249306
 20
23.873152679778
 30
0.0
  0
VERTEX
  8
0
 10
-4.134537721547324
 20
23.882732307103918
 30
0.0
  0
VERTEX
  8
0
 10
-4.444892280411853
 20
24.069210540778563
 30
0.0
  0
VERTEX
  8
0
 10
-4.617181476802
 20
24.372833250819
 30
0.0
  0
SEQEND
  8
0
  0
LINE
  8
0
 62
0
 10
-5.7143353348034855
 20
28.42975086652514
 30
0.0
 11
-4.617181476801205
 21
24.372833250819212
 31
0.0
  0
POLYLINE
  8
0
 62
0
 70
0
 66
1
 10
0.0
 20
0.0
 30
0.0
  0
VERTEX
  8
0
 10
-5.199661357914
 20
29.293715506094
 30
0.0
  0
VERTEX
  8
0
 10
-5.520532649380782
 20
29.120185529311858
 30
0.0
  0
VERTEX
  8
0
 10
-5.714523640128303
 20
28.794539850830525
 30
0.0
  0
VERTEX
  8
0
 10
-5.714335334804
 20
28.429750866525
 30
0.0
  0
SEQEND
  8
0
  0
ARC
  8
0
 62
0
 10
0.0
 20
7.3
 30
0.0
 40
22.6
 50
76.69860029161221
 51
103.30139970838778
  0
POLYLINE
  8
0
 62
0
 70
0
 66
1
 10
0.0
 20
0.0
 30
0.0
  0
VERTEX
  8
0
 10
5.714335334804
 20
28.429750866525
 30
0.0
  0
VERTEX
  8
0
 10
5.714523640128302
 20
28.794539850830528
 30
0.0
  0
VERTEX
  8
0
 10
5.520532649380782
 20
29.120185529311854
 30
0.0
  0
VERTEX
  8
0
 10
5.199661357914
 20
29.293715506094
 30
0.0
  0
SEQEND
  8
0
  0
LINE
  8
0
 62
0
 10
-14.3
 20
40.2
 30
0.0
 11
-14.3
 21
46.8
 31
0.0
  0
ARC
  8
0
 62
0
 10
-13.3
 20
46.8
 30
0.0
 40
1.0
 50
90.0
 51
-180.0
  0
LINE
  8
0
 62
0
 10
-13.3
 20
47.8
 30
0.0
 11
-4.699999999999999
 21
47.8
 31
0.0
  0
ARC
  8
0
 62
0
 10
-4.7
 20
46.8
 30
0.0
 40
1.0
 50
-0.0
 51
90.0
  0
LINE
  8
0
 62
0
 10
-3.7
 20
46.8
 30
0.0
 11
-3.7
 21
40.2
 31
0.0
  0
ARC
  8
0
 62
0
 10
-4.7
 20
40.2
 30
0.0
 40
1.0
 50
-90.0
 51
-0.0
  0
LINE
  8
0
 62
0
 10
-4.7
 20
39.2
 30
0.0
 11
-13.3
 21
39.2
 31
0.0
  0
ARC
  8
0
 62
0
 10
-13.3
 20
40.2
 30
0.0
 40
1.0
 50
-180.0
 51
-90.0
  0
ARC
  8
0
 62
0
 10
-21.7
 20
43.5
 30
0.0
 40
2.8
 50
-90.0
 51
90.0
  0
LINE
  8
0
 62
0
 10
-21.7
 20
46.3
 30
0.0
 11
-26.3
 21
46.3
 31
0.0
  0
ARC
  8
0
 62
0
 10
-26.3
 20
43.5
 30
0.0
 40
2.8
 50
90.0
 51
-90.0
  0
LINE
  8
0
 62
0
 10
-21.7
 20
40.7
 30
0.0
 11
-26.3
 21
40.700000000000024
 31
0.0
  0
LINE
  8
0
 62
0
 10
-21.763718806268532
 20
19.16363499894646
 30
0.0
 11
-18.79890201900795
 21
16.185013078205042
 31
0.0
  0
POLYLINE
  8
0
 62
0
 70
0
 66
1
 10
0.0
 20
0.0
 30
0.0
  0
VERTEX
  8
0
 10
-18.79890201901
 20
16.185013078203
 30
0.0
  0
VERTEX
  8
0
 10
-18.622104302981548
 20
15.8840041876091
 30
0.0
  0
VERTEX
  8
0
 10
-18.615781688849673
 20
15.521990226009672
 30
0.0
  0
VERTEX
  8
0
 10
-18.78196706445
 20
15.214984137827
 30
0.0
  0
SEQEND
  8
0
  0
ARC
  8
0
 62
0
 10
-6.321985447626
 20
3.65
 30
0.0
 40
17.0
 50
137.13344222946097
 51
162.86655777051357
  0
POLYLINE
  8
0
 62
0
 70
0
 66
1
 10
0.0
 20
0.0
 30
0.0
  0
VERTEX
  8
0
 10
-22.56754631376
 20
8.658168541951
 30
0.0
  0
VERTEX
  8
0
 10
-22.750328697441006
 20
8.36074474085061
 30
0.0
  0
VERTEX
  8
0
 10
-23.067003291775737
 20
8.185213304502998
 30
0.0
  0
VERTEX
  8
0
 10
-23.41608349581
 20
8.187820172616
 30
0.0
  0
SEQEND
  8
0
  0
LINE
  8
0
 62
0
 10
-27.478054141070334
 20
9.266115867578744
 30
0.0
 11
-23.416083495810316
 21
8.187820172614803
 31
0.0
  0
POLYLINE
  8
0
 62
0
 70
0
 66
1
 10
0.0
 20
0.0
 30
0.0
  0
VERTEX
  8
0
 10
-27.96893247846
 20
10.143818926017
 30
0.0
  0
VERTEX
  8
0
 10
-27.979086755987293
 20
9.779171247871055
 30
0.0
  0
VERTEX
  8
0
 10
-27.79406482116386
 20
9.448347282537803
 30
0.0
  0
VERTEX
  8
0
 10
-27.47805414107
 20
9.26611586758
 30
0.0
  0
SEQEND
  8
0
  0
ARC
  8
0
 62
0
 10
-6.321985447626
 20
3.65
 30
0.0
 40
22.6
 50
136.6986002916047
 51
163.3013997083823
  0
POLYLINE
  8
0
 62
0
 70
0
 66
1
 10
0.0
 20
0.0
 30
0.0
  0
VERTEX
  8
0
 10
-21.76371880627
 20
19.163634998945
 30
0.0
  0
VERTEX
  8
0
 10
-22.079541181037136
 20
19.346192568293226
 30
0.0
  0
VERTEX
  8
0
 10
-22.45855410660697
 20
19.341014281440952
 30
0.0
  0
VERTEX
  8
0
 10
-22.76927112055
 20
19.149896580077
 30
0.0
  0
SEQEND
  8
0
  0
LINE
  8
0
 62
0
 10
-27.478054141070334
 20
-9.266115867578744
 30
0.0
 11
-23.416083495810316
 21
-8.187820172614803
 31
0.0
  0
POLYLINE
  8
0
 62
0
 70
0
 66
1
 10
0.0
 20
0.0
 30
0.0
  0
VERTEX
  8
0
 10
-23.41608349581
 20
-8.187820172616
 30
0.0
  0
VERTEX
  8
0
 10
-23.066993917549077
 20
-8.185215638467497
 30
0.0
  0
VERTEX
  8
0
 10
-22.750321750505723
 20
-8.360751453786708
 30
0.0
  0
VERTEX
  8
0
 10
-22.56754631376
 20
-8.658168541951
 30
0.0
  0
SEQEND
  8
0
  0
ARC
  8
0
 62
0
 10
-6.321985447626
 20
-3.65
 30
0.0
 40
17.0
 50
-162.86655777051362
 51
-137.1334422294783
  0
POLYLINE
  8
0
 62
0
 70
0
 66
1
 10
0.0
 20
0.0
 30
0.0
  0
VERTEX
  8
0
 10
-18.78196706445
 20
-15.21498413782
 30
0.0
  0
VERTEX
  8
0
 10
-18.615781688849673
 20
-15.521990226003435
 30
0.0
  0
VERTEX
  8
0
 10
-18.622104302981548
 20
-15.884004187602587
 30
0.0
  0
VERTEX
  8
0
 10
-18.79890201901
 20
-16.1850130782
 30
0.0
  0
SEQEND
  8
0
  0
LINE
  8
0
 62
0
 10
-21.763718806269534
 20
-19.163634998940463
 30
0.0
 11
-18.79890201900995
 21
-16.18501307820005
 31
0.0
  0
POLYLINE
  8
0
 62
0
 70
0
 66
1
 10
0.0
 20
0.0
 30
0.0
  0
VERTEX
  8
0
 10
-22.76927112055
 20
-19.14989658007
 30
0.0
  0
VERTEX
  8
0
 10
-22.458554106606975
 20
-19.34101428143858
 30
0.0
  0
VERTEX
  8
0
 10
-22.079541181037136
 20
-19.346192568288153
 30
0.0
  0
VERTEX
  8
0
 10
-21.76371880627
 20
-19.16363499894
 30
0.0
  0
SEQEND
  8
0
  0
ARC
  8
0
 62
0
 10
-6.321985447626
 20
-3.65
 30
0.0
 40
22.6
 50
-163.30139970839934
 51
-136.6986002916176
  0
POLYLINE
  8
0
 62
0
 70
0
 66
1
 10
0.0
 20
0.0
 30
0.0
  0
VERTEX
  8
0
 10
-27.47805414107
 20
-9.26611586758
 30
0.0
  0
VERTEX
  8
0
 10
-27.794064821163865
 20
-9.448347282537801
 30
0.0
  0
VERTEX
  8
0
 10
-27.979086755987293
 20
-9.779171247871055
 30
0.0
  0
VERTEX
  8
0
 10
-27.96893247846
 20
-10.14381892601
 30
0.0
  0
SEQEND
  8
0
  0
LINE
  8
0
 62
0
 10
-15.949919742968724
 20
8.34266505337521
 30
0.0
 11
-16.8294826718995
 21
8.850480947162865
 31
0.0
  0
LINE
  8
0
 62
0
 10
-16.8294826719
 20
8.850480947162
 30
0.0
 11
-16.0794826719
 21
10.149519052838
 31
0.0
  0
LINE
  8
0
 62
0
 10
-16.0794826719
 20
10.149519052838
 30
0.0
 11
-15.199919742969657
 21
9.641703159050595
 31
0.0
  0
ARC
  8
0
 62
0
 10
0.0
 20
0.0
 30
0.0
 40
18.0
 50
92.38801546326874
 51
147.61198453672802
  0
LINE
  8
0
 62
0
 10
-0.75
 20
17.984368212423
 30
0.0
 11
-0.75
 21
19.0
 31
0.0
  0
LINE
  8
0
 62
0
 10
-0.75
 20
19.0
 30
0.0
 11
0.75
 21
19.0
 31
0.0
  0
LINE
  8
0
 62
0
 10
0.75
 20
19.0
 30
0.0
 11
0.75
 21
17.984368212423
 31
0.0
  0
ARC
  8
0
 62
0
 10
0.0
 20
0.0
 30
0.0
 40
18.0
 50
32.388015463270285
 51
87.61198453673124
  0
LINE
  8
0
 62
0
 10
15.199919742971158
 20
9.641703159049728
 30
0.0
 11
16.07948267190375
 21
10.149519052838434
 31
0.0
  0
LINE
  8
0
 62
0
 10
16.079482671904
 20
10.149519052838
 30
0.0
 11
16.829482671904
 21
8.850480947162
 31
0.0
  0
LINE
  8
0
 62
0
 10
16.829482671904
 20
8.850480947162
 30
0.0
 11
15.949919742971725
 21
8.342665053373478
 31
0.0
  0
ARC
  8
0
 62
0
 10
0.0
 20
0.0
 30
0.0
 40
18.0
 50
-0.0
 51
27.611984536730247
  0
ARC
  8
0
 62
0
 10
0.0
 20
0.0
 30
0.0
 40
18.0
 50
-27.611984536730294
 51
-0.0
  0
LINE
  8
0
 62
0
 10
15.949919742971474
 20
-8.34266505337391
 30
0.0
 11
16.82948267190375
 21
-8.850480947162433
 31
0.0
  0
LINE
  8
0
 62
0
 10
16.829482671904
 20
-8.850480947162
 30
0.0
 11
16.079482671907463
 21
-10.149519052832
 31
0.0
  0
LINE
  8
0
 62
0
 10
16.079482671904
 20
-10.14951905283
 30
0.0
 11
15.19991974297487
 21
-9.641703159043294
 31
0.0
  0
ARC
  8
0
 62
0
 10
0.0
 20
0.0
 30
0.0
 40
18.0
 50
-87.61198453673089
 51
-32.38801546327033
  0
LINE
  8
0
 62
0
 10
0.75
 20
-17.98436821242
 30
0.0
 11
0.75
 21
-19.0
 31
0.0
  0
LINE
  8
0
 62
0
 10
0.75
 20
-19.0
 30
0.0
 11
-0.75
 21
-19.0
 31
0.0
  0
LINE
  8
0
 62
0
 10
-0.75
 20
-19.0
 30
0.0
 11
-0.75
 21
-17.98436821242
 31
0.0
  0
ARC
  8
0
 62
0
 10
0.0
 20
0.0
 30
0.0
 40
18.0
 50
-147.61198453672802
 51
-92.38801546326914
  0
LINE
  8
0
 62
0
 10
-15.199919742969156
 20
-9.64170315905146
 30
0.0
 11
-16.079482671896034
 21
-10.149519052836865
 31
0.0
  0
LINE
  8
0
 62
0
 10
-16.0794826719
 20
-10.14951905283
 30
0.0
 11
-16.829482671896535
 21
-8.85048094716
 31
0.0
  0
LINE
  8
0
 62
0
 10
-16.8294826719
 20
-8.850480947162
 30
0.0
 11
-15.949919742969223
 21
-8.342665053374343
 31
0.0
  0
ARC
  8
0
 62
0
 10
0.0
 20
0.0
 30
0.0
 40
18.0
 50
152.38801546326678
 51
-152.38801546326678
  0
LINE
  8
0
 62
0
 10
-28.0
 20
-44.5711431703
 30
0.0
 11
-28.0
 21
-33.3711431703
 31
0.0
  0
ARC
  8
0
 62
0
 10
-27.6
 20
-33.3711431703
 30
0.0
 40
0.4
 50
90.0
 51
-180.0
  0
LINE
  8
0
 62
0
 10
-27.6
 20
-32.9711431703
 30
0.0
 11
1.6000000000000014
 21
-32.9711431703
 31
0.0
  0
ARC
  8
0
 62
0
 10
1.6
 20
-33.3711431703
 30
0.0
 40
0.4
 50
-0.0
 51
90.0
  0
LINE
  8
0
 62
0
 10
2.0
 20
-33.3711431703
 30
0.0
 11
2.0
 21
-44.5711431703
 31
0.0
  0
ARC
  8
0
 62
0
 10
1.6
 20
-44.5711431703
 30
0.0
 40
0.4
 50
-90.0
 51
-0.0
  0
LINE
  8
0
 62
0
 10
1.6
 20
-44.9711431703
 30
0.0
 11
-27.6
 21
-44.9711431703
 31
0.0
  0
ARC
  8
0
 62
0
 10
-27.6
 20
-44.5711431703
 30
0.0
 40
0.4
 50
-180.0
 51
-90.0
  0
LINE
  8
0
 62
0
 10
-5.714335334803988
 20
-28.429750866520003
 30
0.0
 11
-4.617181476800701
 21
-24.372833250810352
 31
0.0
  0
POLYLINE
  8
0
 62
0
 70
0
 66
1
 10
0.0
 20
0.0
 30
0.0
  0
VERTEX
  8
0
 10
-4.617181476802
 20
-24.37283325081
 30
0.0
  0
VERTEX
  8
0
 10
-4.444898988795716
 20
-24.069217492109246
 30
0.0
  0
VERTEX
  8
0
 10
-4.134547008589703
 20
-23.882734966856784
 30
0.0
  0
VERTEX
  8
0
 10
-3.785579249306
 20
-23.87315267977
 30
0.0
  0
SEQEND
  8
0
  0
ARC
  8
0
 62
0
 10
0.0
 20
-7.3
 30
0.0
 40
17.0
 50
-102.86655777052513
 51
-77.13344222947481
  0
POLYLINE
  8
0
 62
0
 70
0
 66
1
 10
0.0
 20
0.0
 30
0.0
  0
VERTEX
  8
0
 10
3.785579249306
 20
-23.87315267977
 30
0.0
  0
VERTEX
  8
0
 10
4.134547008589704
 20
-23.882734966856784
 30
0.0
  0
VERTEX
  8
0
 10
4.444898988795715
 20
-24.069217492109246
 30
0.0
  0
VERTEX
  8
0
 10
4.617181476802
 20
-24.37283325081
 30
0.0
  0
SEQEND
  8
0
  0
LINE
  8
0
 62
0
 10
5.714335334803988
 20
-28.429750866520003
 30
0.0
 11
4.617181476800701
 21
-24.372833250810352
 31
0.0
  0
POLYLINE
  8
0
 62
0
 70
0
 66
1
 10
0.0
 20
0.0
 30
0.0
  0
VERTEX
  8
0
 10
5.199661357914
 20
-29.29371550609
 30
0.0
  0
VERTEX
  8
0
 10
5.520532649380782
 20
-29.120185529309342
 30
0.0
  0
VERTEX
  8
0
 10
5.714523640128303
 20
-28.794539850827153
 30
0.0
  0
VERTEX
  8
0
 10
5.714335334804
 20
-28.42975086652
 30
0.0
  0
SEQEND
  8
0
  0
ARC
  8
0
 62
0
 10
0.0
 20
-7.3
 30
0.0
 40
22.6
 50
-103.30139970839015
 51
-76.69860029160986
  0
POLYLINE
  8
0
 62
0
 70
0
 66
1
 10
0.0
 20
0.0
 30
0.0
  0
VERTEX
  8
0
 10
-5.714335334804
 20
-28.42975086652
 30
0.0
  0
VERTEX
  8
0
 10
-5.714523640128302
 20
-28.794539850827153
 30
0.0
  0
VERTEX
  8
0
 10
-5.520532649380782
 20
-29.120185529309342
 30
0.0
  0
VERTEX
  8
0
 10
-5.199661357914
 20
-29.29371550609
 30
0.0
  0
SEQEND
  8
0
  0
LINE
  8
0
 62
0
 10
145.25
 20
-3.3
 30
0.0
 11
145.25
 21
0.10000000000000009
 31
0.0
  0
ARC
  8
0
 62
0
 10
145.45
 20
0.1
 30
0.0
 40
0.2
 50
90.0
 51
180.0
  0
LINE
  8
0
 62
0
 10
145.45
 20
0.3
 30
0.0
 11
145.95
 21
0.3
 31
0.0
  0
ARC
  8
0
 62
0
 10
145.95
 20
0.1
 30
0.0
 40
0.2
 50
-0.0
 51
90.0
  0
LINE
  8
0
 62
0
 10
146.15
 20
0.09999999999999998
 30
0.0
 11
146.15
 21
-3.3000000000000003
 31
0.0
  0
ARC
  8
0
 62
0
 10
145.95
 20
-3.3
 30
0.0
 40
0.2
 50
-90.0
 51
-0.0
  0
LINE
  8
0
 62
0
 10
145.95
 20
-3.5
 30
0.0
 11
145.45
 21
-3.5
 31
0.0
  0
ARC
  8
0
 62
0
 10
145.45
 20
-3.3
 30
0.0
 40
0.2
 50
-180.0
 51
-90.0
  0
LINE
  8
0
 62
0
 10
142.15
 20
-0.4
 30
0.0
 11
142.15
 21
-2.8000000000000003
 31
0.0
  0
ARC
  8
0
 62
0
 10
141.95
 20
-2.8
 30
0.0
 40
0.2
 50
-90.0
 51
-0.0
  0
LINE
  8
0
 62
0
 10
141.95
 20
-3.0
 30
0.0
 11
141.45
 21
-3.0
 31
0.0
  0
ARC
  8
0
 62
0
 10
141.45
 20
-2.8
 30
0.0
 40
0.2
 50
-180.0
 51
-90.0
  0
LINE
  8
0
 62
0
 10
141.25
 20
-2.8
 30
0.0
 11
141.25
 21
-0.3999999999999999
 31
0.0
  0
ARC
  8
0
 62
0
 10
141.45
 20
-0.4
 30
0.0
 40
0.2
 50
90.0
 51
-180.0
  0
LINE
  8
0
 62
0
 10
141.45
 20
-0.2
 30
0.0
 11
141.95
 21
-0.2
 31
0.0
  0
ARC
  8
0
 62
0
 10
141.95
 20
-0.4
 30
0.0
 40
0.2
 50
-0.0
 51
90.0
  0
LINE
  8
0
 62
0
 10
133.95
 20
-0.2
 30
0.0
 11
133.45
 21
-0.2
 31
0.0
  0
ARC
  8
0
 62
0
 10
133.45
 20
-0.4
 30
0.0
 40
0.2
 50
90.0
 51
-180.0
  0
LINE
  8
0
 62
0
 10
133.25
 20
-0.4
 30
0.0
 11
133.25
 21
-2.8000000000000003
 31
0.0
  0
ARC
  8
0
 62
0
 10
133.45
 20
-2.8
 30
0.0
 40
0.2
 50
-180.0
 51
-90.0
  0
LINE
  8
0
 62
0
 10
133.45
 20
-3.0
 30
0.0
 11
133.95
 21
-3.0
 31
0.0
  0
ARC
  8
0
 62
0
 10
133.95
 20
-2.8
 30
0.0
 40
0.2
 50
-90.0
 51
-0.0
  0
LINE
  8
0
 62
0
 10
134.15
 20
-2.8
 30
0.0
 11
134.15
 21
-0.3999999999999999
 31
0.0
  0
ARC
  8
0
 62
0
 10
133.95
 20
-0.4
 30
0.0
 40
0.2
 50
-0.0
 51
90.0
  0
LINE
  8
0
 62
0
 10
138.15
 20
-0.4
 30
0.0
 11
138.15
 21
-2.8000000000000003
 31
0.0
  0
ARC
  8
0
 62
0
 10
137.95
 20
-2.8
 30
0.0
 40
0.2
 50
-90.0
 51
-0.0
  0
LINE
  8
0
 62
0
 10
137.95
 20
-3.0
 30
0.0
 11
137.45
 21
-3.0
 31
0.0
  0
ARC
  8
0
 62
0
 10
137.45
 20
-2.8
 30
0.0
 40
0.2
 50
-180.0
 51
-90.0
  0
LINE
  8
0
 62
0
 10
137.25
 20
-2.8
 30
0.0
 11
137.25
 21
-0.3999999999999999
 31
0.0
  0
ARC
  8
0
 62
0
 10
137.45
 20
-0.4
 30
0.0
 40
0.2
 50
90.0
 51
-180.0
  0
LINE
  8
0
 62
0
 10
137.45
 20
-0.2
 30
0.0
 11
137.95
 21
-0.2
 31
0.0
  0
ARC
  8
0
 62
0
 10
137.95
 20
-0.4
 30
0.0
 40
0.2
 50
-0.0
 51
90.0
  0
LINE
  8
0
 62
0
 10
186.9
 20
-35.1
 30
0.0
 11
186.9
 21
-28.5
 31
0.0
  0
ARC
  8
0
 62
0
 10
187.9
 20
-28.5
 30
0.0
 40
1.0
 50
90.0
 51
-180.0
  0
LINE
  8
0
 62
0
 10
187.9
 20
-27.5
 30
0.0
 11
196.5
 21
-27.5
 31
0.0
  0
ARC
  8
0
 62
0
 10
196.5
 20
-28.5
 30
0.0
 40
1.0
 50
-0.0
 51
90.0
  0
LINE
  8
0
 62
0
 10
197.5
 20
-28.5
 30
0.0
 11
197.5
 21
-35.1
 31
0.0
  0
ARC
  8
0
 62
0
 10
196.5
 20
-35.1
 30
0.0
 40
1.0
 50
-90.0
 51
-0.0
  0
LINE
  8
0
 62
0
 10
196.5
 20
-36.1
 30
0.0
 11
187.9
 21
-36.1
 31
0.0
  0
ARC
  8
0
 62
0
 10
187.9
 20
-35.1
 30
0.0
 40
1.0
 50
-180.0
 51
-90.0
  0
LINE
  8
0
 62
0
 10
173.5
 20
-35.1
 30
0.0
 11
173.5
 21
-28.5
 31
0.0
  0
ARC
  8
0
 62
0
 10
174.5
 20
-28.5
 30
0.0
 40
1.0
 50
90.0
 51
-180.0
  0
LINE
  8
0
 62
0
 10
174.5
 20
-27.5
 30
0.0
 11
183.1
 21
-27.5
 31
0.0
  0
ARC
  8
0
 62
0
 10
183.1
 20
-28.5
 30
0.0
 40
1.0
 50
-0.0
 51
90.0
  0
LINE
  8
0
 62
0
 10
184.1
 20
-28.5
 30
0.0
 11
184.1
 21
-35.1
 31
0.0
  0
ARC
  8
0
 62
0
 10
183.1
 20
-35.1
 30
0.0
 40
1.0
 50
-90.0
 51
-0.0
  0
LINE
  8
0
 62
0
 10
183.1
 20
-36.1
 30
0.0
 11
174.5
 21
-36.1
 31
0.0
  0
ARC
  8
0
 62
0
 10
174.5
 20
-35.1
 30
0.0
 40
1.0
 50
-180.0
 51
-90.0
  0
LINE
  8
0
 62
0
 10
183.5
 20
-18.7
 30
0.0
 11
183.5
 21
45.3
 31
0.0
  0
ARC
  8
0
 62
0
 10
185.0
 20
45.3
 30
0.0
 40
1.5
 50
90.0
 51
-180.0
  0
LINE
  8
0
 62
0
 10
185.0
 20
46.8
 30
0.0
 11
186.0
 21
46.8
 31
0.0
  0
ARC
  8
0
 62
0
 10
186.0
 20
45.3
 30
0.0
 40
1.5
 50
-0.0
 51
90.0
  0
LINE
  8
0
 62
0
 10
187.5
 20
45.3
 30
0.0
 11
187.5
 21
-18.700000000000003
 31
0.0
  0
ARC
  8
0
 62
0
 10
186.0
 20
-18.7
 30
0.0
 40
1.5
 50
-90.0
 51
-0.0
  0
LINE
  8
0
 62
0
 10
186.0
 20
-20.2
 30
0.0
 11
185.0
 21
-20.2
 31
0.0
  0
ARC
  8
0
 62
0
 10
185.0
 20
-18.7
 30
0.0
 40
1.5
 50
-180.0
 51
-90.0
  0
LINE
  8
0
 62
0
 10
168.5
 20
-18.7
 30
0.0
 11
168.5
 21
45.3
 31
0.0
  0
ARC
  8
0
 62
0
 10
170.0
 20
45.3
 30
0.0
 40
1.5
 50
90.0
 51
-180.0
  0
LINE
  8
0
 62
0
 10
170.0
 20
46.8
 30
0.0
 11
171.0
 21
46.8
 31
0.0
  0
ARC
  8
0
 62
0
 10
171.0
 20
45.3
 30
0.0
 40
1.5
 50
-0.0
 51
90.0
  0
LINE
  8
0
 62
0
 10
172.5
 20
45.3
 30
0.0
 11
172.5
 21
-18.700000000000003
 31
0.0
  0
ARC
  8
0
 62
0
 10
171.0
 20
-18.7
 30
0.0
 40
1.5
 50
-90.0
 51
-0.0
  0
LINE
  8
0
 62
0
 10
171.0
 20
-20.2
 30
0.0
 11
170.0
 21
-20.2
 31
0.0
  0
ARC
  8
0
 62
0
 10
170.0
 20
-18.7
 30
0.0
 40
1.5
 50
-180.0
 51
-90.0
  0
CIRCLE
  8
0
 62
0
 10
209.65
 20
6.5
 30
0.0
 40
3.15
  0
CIRCLE
  8
0
 62
0
 10
209.65
 20
-42.75
 30
0.0
 40
3.15
  0
CIRCLE
  8
0
 62
0
 10
209.65
 20
55.75
 30
0.0
 40
3.15
  0
ENDBLK
  0
ENDSEC
  0
SECTION
  2
ENTITIES
  0
INSERT
  2
SHAPE2DVIEW
  8
0
 62
0
 10
0.0
 20
0.0
 30
0.0
  0
ENDSEC
  0
EOF
