  0
SECTION
  2
HEADER
  9
$ANGBASE
  50
0.0
  9
$ANGDIR
  70
1
  9
$MEASUREMENT
  70
0
  0
ENDSEC
  0
SECTION
  2
TABLES
  0
TABLE
  2
LTYPE
  70
4
  0
LTYPE
  5
40F
  2
CONTINUOUS
  70
0
  3
Solid line
  72
65
  73
0
  40
0.0
  0
LTYPE
  5
410
  2
DASHDOT
 70
0
  3
Dash Dot ____ _ ____ _
 72
65
 73
4
 40
2.0
 49
1.25
 49
-0.25
 49
0.25
 49
-0.25
  0
LTYPE
  5
411
  2
DASHED
 70
0
  3
Dashed __ __ __ __ __
 72
65
 73
2
 40
0.75
 49
0.5
 49
-0.25
  0
LTYPE
  5
43B
  2
DOTTED
 70
0
  3
Dotted .  .  .  .
 72
65
 73
2
 40
0.2
 49
0.0
 49
-0.2
  0
ENDTAB
  0
TABLE
  2
STYLE
  70
4
  0
STYLE
  2
KICAD
  70
0
  40
0
  41
1
  42
1
  50
0
  71
0
  3
isocp.shx
  0
STYLE
  2
KICADB
  70
0
  40
0
  41
1
  42
1
  50
0
  71
0
  3
isocp.shx
  0
STYLE
  2
KICADI
  70
0
  40
0
  41
1
  42
1
  50
15
  71
0
  3
isocp.shx
  0
STYLE
  2
KICADBI
  70
0
  40
0
  41
1
  42
1
  50
15
  71
0
  3
isocp.shx
  0
ENDTAB
  0
TABLE
  2
LAYER
  70
1
  0
LAYER
  2
BLACK
  70
0
  62
7
  6
CONTINUOUS
  0
ENDTAB
  0
ENDSEC
  0
SECTION
  2
ENTITIES
0
LINE
8
BLACK
6
CONTINUOUS
10
5.66858
20
-5.60141
11
5.64838
21
-5.6569
0
LINE
8
BLACK
6
CONTINUOUS
10
5.64838
20
-5.6569
11
5.61139
21
-5.64343
0
LINE
8
BLACK
6
CONTINUOUS
10
5.61139
20
-5.64343
11
5.63158
21
-5.58794
0
LINE
8
BLACK
6
CONTINUOUS
10
5.63158
20
-5.58794
11
5.66858
21
-5.60141
0
LINE
8
BLACK
6
CONTINUOUS
10
5.55019
20
-5.55832
11
5.52999
21
-5.61381
0
LINE
8
BLACK
6
CONTINUOUS
10
5.52999
20
-5.61381
11
5.493
21
-5.60035
0
LINE
8
BLACK
6
CONTINUOUS
10
5.493
20
-5.60035
11
5.5132
21
-5.54485
0
LINE
8
BLACK
6
CONTINUOUS
10
5.5132
20
-5.54485
11
5.55019
21
-5.55832
0
LINE
8
BLACK
6
CONTINUOUS
10
6.21097
20
-5.51646
11
6.21283
21
-5.51694
0
LINE
8
BLACK
6
CONTINUOUS
10
6.21283
20
-5.51694
11
6.21457
21
-5.51778
0
LINE
8
BLACK
6
CONTINUOUS
10
6.21457
20
-5.51778
11
6.21612
21
-5.51894
0
LINE
8
BLACK
6
CONTINUOUS
10
6.21612
20
-5.51894
11
6.21741
21
-5.52037
0
LINE
8
BLACK
6
CONTINUOUS
10
6.21741
20
-5.52037
11
6.21839
21
-5.52203
0
LINE
8
BLACK
6
CONTINUOUS
10
6.21839
20
-5.52203
11
6.2292
21
-5.54523
0
LINE
8
BLACK
6
CONTINUOUS
10
6.2292
20
-5.54523
11
6.22984
21
-5.54705
0
LINE
8
BLACK
6
CONTINUOUS
10
6.22984
20
-5.54705
11
6.23012
21
-5.54896
0
LINE
8
BLACK
6
CONTINUOUS
10
6.23012
20
-5.54896
11
6.23001
21
-5.55088
0
LINE
8
BLACK
6
CONTINUOUS
10
6.23001
20
-5.55088
11
6.22953
21
-5.55275
0
LINE
8
BLACK
6
CONTINUOUS
10
6.22953
20
-5.55275
11
6.2287
21
-5.55449
0
LINE
8
BLACK
6
CONTINUOUS
10
6.2287
20
-5.55449
11
6.22754
21
-5.55603
0
LINE
8
BLACK
6
CONTINUOUS
10
6.22754
20
-5.55603
11
6.2261
21
-5.55732
0
LINE
8
BLACK
6
CONTINUOUS
10
6.2261
20
-5.55732
11
6.22444
21
-5.55831
0
LINE
8
BLACK
6
CONTINUOUS
10
6.22444
20
-5.55831
11
6.19233
21
-5.57328
0
LINE
8
BLACK
6
CONTINUOUS
10
6.19233
20
-5.57328
11
6.19051
21
-5.57392
0
LINE
8
BLACK
6
CONTINUOUS
10
6.19051
20
-5.57392
11
6.1886
21
-5.57419
0
LINE
8
BLACK
6
CONTINUOUS
10
6.1886
20
-5.57419
11
6.18667
21
-5.57409
0
LINE
8
BLACK
6
CONTINUOUS
10
6.18667
20
-5.57409
11
6.1848
21
-5.57361
0
LINE
8
BLACK
6
CONTINUOUS
10
6.1848
20
-5.57361
11
6.18306
21
-5.57277
0
LINE
8
BLACK
6
CONTINUOUS
10
6.18306
20
-5.57277
11
6.18152
21
-5.57162
0
LINE
8
BLACK
6
CONTINUOUS
10
6.18152
20
-5.57162
11
6.18023
21
-5.57018
0
LINE
8
BLACK
6
CONTINUOUS
10
6.18023
20
-5.57018
11
6.17925
21
-5.56852
0
LINE
8
BLACK
6
CONTINUOUS
10
6.17925
20
-5.56852
11
6.16843
21
-5.54533
0
LINE
8
BLACK
6
CONTINUOUS
10
6.16843
20
-5.54533
11
6.16779
21
-5.54351
0
LINE
8
BLACK
6
CONTINUOUS
10
6.16779
20
-5.54351
11
6.16752
21
-5.5416
0
LINE
8
BLACK
6
CONTINUOUS
10
6.16752
20
-5.5416
11
6.16763
21
-5.53967
0
LINE
8
BLACK
6
CONTINUOUS
10
6.16763
20
-5.53967
11
6.16811
21
-5.5378
0
LINE
8
BLACK
6
CONTINUOUS
10
6.16811
20
-5.5378
11
6.16894
21
-5.53606
0
LINE
8
BLACK
6
CONTINUOUS
10
6.16894
20
-5.53606
11
6.1701
21
-5.53452
0
LINE
8
BLACK
6
CONTINUOUS
10
6.1701
20
-5.53452
11
6.17153
21
-5.53323
0
LINE
8
BLACK
6
CONTINUOUS
10
6.17153
20
-5.53323
11
6.1732
21
-5.53225
0
LINE
8
BLACK
6
CONTINUOUS
10
6.1732
20
-5.53225
11
6.20531
21
-5.51727
0
LINE
8
BLACK
6
CONTINUOUS
10
6.20531
20
-5.51727
11
6.20713
21
-5.51663
0
LINE
8
BLACK
6
CONTINUOUS
10
6.20713
20
-5.51663
11
6.20904
21
-5.51636
0
LINE
8
BLACK
6
CONTINUOUS
10
6.20904
20
-5.51636
11
6.21097
21
-5.51646
0
LINE
8
BLACK
6
CONTINUOUS
10
6.17686
20
-5.44332
11
6.17873
21
-5.4438
0
LINE
8
BLACK
6
CONTINUOUS
10
6.17873
20
-5.4438
11
6.18047
21
-5.44463
0
LINE
8
BLACK
6
CONTINUOUS
10
6.18047
20
-5.44463
11
6.18201
21
-5.44579
0
LINE
8
BLACK
6
CONTINUOUS
10
6.18201
20
-5.44579
11
6.1833
21
-5.44722
0
LINE
8
BLACK
6
CONTINUOUS
10
6.1833
20
-5.44722
11
6.18428
21
-5.44889
0
LINE
8
BLACK
6
CONTINUOUS
10
6.18428
20
-5.44889
11
6.19509
21
-5.47208
0
LINE
8
BLACK
6
CONTINUOUS
10
6.19509
20
-5.47208
11
6.19573
21
-5.4739
0
LINE
8
BLACK
6
CONTINUOUS
10
6.19573
20
-5.4739
11
6.19601
21
-5.47581
0
LINE
8
BLACK
6
CONTINUOUS
10
6.19601
20
-5.47581
11
6.1959
21
-5.47774
0
LINE
8
BLACK
6
CONTINUOUS
10
6.1959
20
-5.47774
11
6.19542
21
-5.4796
0
LINE
8
BLACK
6
CONTINUOUS
10
6.19542
20
-5.4796
11
6.19459
21
-5.48134
0
LINE
8
BLACK
6
CONTINUOUS
10
6.19459
20
-5.48134
11
6.19343
21
-5.48289
0
LINE
8
BLACK
6
CONTINUOUS
10
6.19343
20
-5.48289
11
6.19199
21
-5.48418
0
LINE
8
BLACK
6
CONTINUOUS
10
6.19199
20
-5.48418
11
6.19033
21
-5.48516
0
LINE
8
BLACK
6
CONTINUOUS
10
6.19033
20
-5.48516
11
6.15822
21
-5.50013
0
LINE
8
BLACK
6
CONTINUOUS
10
6.15822
20
-5.50013
11
6.1564
21
-5.50077
0
LINE
8
BLACK
6
CONTINUOUS
10
6.1564
20
-5.50077
11
6.15449
21
-5.50105
0
LINE
8
BLACK
6
CONTINUOUS
10
6.15449
20
-5.50105
11
6.15256
21
-5.50094
0
LINE
8
BLACK
6
CONTINUOUS
10
6.15256
20
-5.50094
11
6.15069
21
-5.50046
0
LINE
8
BLACK
6
CONTINUOUS
10
6.15069
20
-5.50046
11
6.14895
21
-5.49963
0
LINE
8
BLACK
6
CONTINUOUS
10
6.14895
20
-5.49963
11
6.14741
21
-5.49847
0
LINE
8
BLACK
6
CONTINUOUS
10
6.14741
20
-5.49847
11
6.14612
21
-5.49703
0
LINE
8
BLACK
6
CONTINUOUS
10
6.14612
20
-5.49703
11
6.14514
21
-5.49537
0
LINE
8
BLACK
6
CONTINUOUS
10
6.14514
20
-5.49537
11
6.13433
21
-5.47218
0
LINE
8
BLACK
6
CONTINUOUS
10
6.13433
20
-5.47218
11
6.13369
21
-5.47036
0
LINE
8
BLACK
6
CONTINUOUS
10
6.13369
20
-5.47036
11
6.13341
21
-5.46845
0
LINE
8
BLACK
6
CONTINUOUS
10
6.13341
20
-5.46845
11
6.13352
21
-5.46652
0
LINE
8
BLACK
6
CONTINUOUS
10
6.13352
20
-5.46652
11
6.134
21
-5.46465
0
LINE
8
BLACK
6
CONTINUOUS
10
6.134
20
-5.46465
11
6.13483
21
-5.46291
0
LINE
8
BLACK
6
CONTINUOUS
10
6.13483
20
-5.46291
11
6.13599
21
-5.46137
0
LINE
8
BLACK
6
CONTINUOUS
10
6.13599
20
-5.46137
11
6.13743
21
-5.46008
0
LINE
8
BLACK
6
CONTINUOUS
10
6.13743
20
-5.46008
11
6.13909
21
-5.4591
0
LINE
8
BLACK
6
CONTINUOUS
10
6.13909
20
-5.4591
11
6.1712
21
-5.44412
0
LINE
8
BLACK
6
CONTINUOUS
10
6.1712
20
-5.44412
11
6.17302
21
-5.44348
0
LINE
8
BLACK
6
CONTINUOUS
10
6.17302
20
-5.44348
11
6.17493
21
-5.44321
0
LINE
8
BLACK
6
CONTINUOUS
10
6.17493
20
-5.44321
11
6.17686
21
-5.44332
0
LINE
8
BLACK
6
CONTINUOUS
10
5.73456
20
-5.42013
11
5.71436
21
-5.47562
0
LINE
8
BLACK
6
CONTINUOUS
10
5.71436
20
-5.47562
11
5.67737
21
-5.46216
0
LINE
8
BLACK
6
CONTINUOUS
10
5.67737
20
-5.46216
11
5.69756
21
-5.40666
0
LINE
8
BLACK
6
CONTINUOUS
10
5.69756
20
-5.40666
11
5.73456
21
-5.42013
0
LINE
8
BLACK
6
CONTINUOUS
10
5.61617
20
-5.37704
11
5.59598
21
-5.43253
0
LINE
8
BLACK
6
CONTINUOUS
10
5.59598
20
-5.43253
11
5.55898
21
-5.41907
0
LINE
8
BLACK
6
CONTINUOUS
10
5.55898
20
-5.41907
11
5.57918
21
-5.36357
0
LINE
8
BLACK
6
CONTINUOUS
10
5.57918
20
-5.36357
11
5.61617
21
-5.37704
0
LINE
8
BLACK
6
CONTINUOUS
10
6.01094
20
-5.2159
11
6.01269
21
-5.21647
0
LINE
8
BLACK
6
CONTINUOUS
10
6.01269
20
-5.21647
11
6.01428
21
-5.21737
0
LINE
8
BLACK
6
CONTINUOUS
10
6.01428
20
-5.21737
11
6.03283
21
-5.23036
0
LINE
8
BLACK
6
CONTINUOUS
10
6.03283
20
-5.23036
11
6.03422
21
-5.23155
0
LINE
8
BLACK
6
CONTINUOUS
10
6.03422
20
-5.23155
11
6.03535
21
-5.23299
0
LINE
8
BLACK
6
CONTINUOUS
10
6.03535
20
-5.23299
11
6.03618
21
-5.23463
0
LINE
8
BLACK
6
CONTINUOUS
10
6.03618
20
-5.23463
11
6.03667
21
-5.23639
0
LINE
8
BLACK
6
CONTINUOUS
10
6.03667
20
-5.23639
11
6.03681
21
-5.23822
0
LINE
8
BLACK
6
CONTINUOUS
10
6.03681
20
-5.23822
11
6.03659
21
-5.24004
0
LINE
8
BLACK
6
CONTINUOUS
10
6.03659
20
-5.24004
11
6.03602
21
-5.24178
0
LINE
8
BLACK
6
CONTINUOUS
10
6.03602
20
-5.24178
11
6.03512
21
-5.24338
0
LINE
8
BLACK
6
CONTINUOUS
10
6.03512
20
-5.24338
11
6.0244
21
-5.2587
0
LINE
8
BLACK
6
CONTINUOUS
10
6.0244
20
-5.2587
11
6.0232
21
-5.26009
0
LINE
8
BLACK
6
CONTINUOUS
10
6.0232
20
-5.26009
11
6.02176
21
-5.26122
0
LINE
8
BLACK
6
CONTINUOUS
10
6.02176
20
-5.26122
11
6.02013
21
-5.26205
0
LINE
8
BLACK
6
CONTINUOUS
10
6.02013
20
-5.26205
11
6.01836
21
-5.26254
0
LINE
8
BLACK
6
CONTINUOUS
10
6.01836
20
-5.26254
11
6.01653
21
-5.26268
0
LINE
8
BLACK
6
CONTINUOUS
10
6.01653
20
-5.26268
11
6.01471
21
-5.26246
0
LINE
8
BLACK
6
CONTINUOUS
10
6.01471
20
-5.26246
11
6.01297
21
-5.26189
0
LINE
8
BLACK
6
CONTINUOUS
10
6.01297
20
-5.26189
11
6.01137
21
-5.26099
0
LINE
8
BLACK
6
CONTINUOUS
10
6.01137
20
-5.26099
11
5.99283
21
-5.24801
0
LINE
8
BLACK
6
CONTINUOUS
10
5.99283
20
-5.24801
11
5.99144
21
-5.24682
0
LINE
8
BLACK
6
CONTINUOUS
10
5.99144
20
-5.24682
11
5.99031
21
-5.24537
0
LINE
8
BLACK
6
CONTINUOUS
10
5.99031
20
-5.24537
11
5.98948
21
-5.24374
0
LINE
8
BLACK
6
CONTINUOUS
10
5.98948
20
-5.24374
11
5.98899
21
-5.24197
0
LINE
8
BLACK
6
CONTINUOUS
10
5.98899
20
-5.24197
11
5.98885
21
-5.24015
0
LINE
8
BLACK
6
CONTINUOUS
10
5.98885
20
-5.24015
11
5.98906
21
-5.23833
0
LINE
8
BLACK
6
CONTINUOUS
10
5.98906
20
-5.23833
11
5.98964
21
-5.23659
0
LINE
8
BLACK
6
CONTINUOUS
10
5.98964
20
-5.23659
11
5.99053
21
-5.23499
0
LINE
8
BLACK
6
CONTINUOUS
10
5.99053
20
-5.23499
11
6.00126
21
-5.21967
0
LINE
8
BLACK
6
CONTINUOUS
10
6.00126
20
-5.21967
11
6.00245
21
-5.21828
0
LINE
8
BLACK
6
CONTINUOUS
10
6.00245
20
-5.21828
11
6.0039
21
-5.21715
0
LINE
8
BLACK
6
CONTINUOUS
10
6.0039
20
-5.21715
11
6.00553
21
-5.21632
0
LINE
8
BLACK
6
CONTINUOUS
10
6.00553
20
-5.21632
11
6.0073
21
-5.21582
0
LINE
8
BLACK
6
CONTINUOUS
10
6.0073
20
-5.21582
11
6.00912
21
-5.21568
0
LINE
8
BLACK
6
CONTINUOUS
10
6.00912
20
-5.21568
11
6.01094
21
-5.2159
0
LINE
8
BLACK
6
CONTINUOUS
10
5.85073
20
-5.17727
11
5.85252
21
-5.17768
0
LINE
8
BLACK
6
CONTINUOUS
10
5.85252
20
-5.17768
11
5.85418
21
-5.17844
0
LINE
8
BLACK
6
CONTINUOUS
10
5.85418
20
-5.17844
11
5.87379
21
-5.18976
0
LINE
8
BLACK
6
CONTINUOUS
10
5.87379
20
-5.18976
11
5.87528
21
-5.19083
0
LINE
8
BLACK
6
CONTINUOUS
10
5.87528
20
-5.19083
11
5.87653
21
-5.19216
0
LINE
8
BLACK
6
CONTINUOUS
10
5.87653
20
-5.19216
11
5.8775
21
-5.19372
0
LINE
8
BLACK
6
CONTINUOUS
10
5.8775
20
-5.19372
11
5.87815
21
-5.19544
0
LINE
8
BLACK
6
CONTINUOUS
10
5.87815
20
-5.19544
11
5.87844
21
-5.19725
0
LINE
8
BLACK
6
CONTINUOUS
10
5.87844
20
-5.19725
11
5.87838
21
-5.19908
0
LINE
8
BLACK
6
CONTINUOUS
10
5.87838
20
-5.19908
11
5.87797
21
-5.20086
0
LINE
8
BLACK
6
CONTINUOUS
10
5.87797
20
-5.20086
11
5.87721
21
-5.20253
0
LINE
8
BLACK
6
CONTINUOUS
10
5.87721
20
-5.20253
11
5.86786
21
-5.21873
0
LINE
8
BLACK
6
CONTINUOUS
10
5.86786
20
-5.21873
11
5.86679
21
-5.22022
0
LINE
8
BLACK
6
CONTINUOUS
10
5.86679
20
-5.22022
11
5.86546
21
-5.22147
0
LINE
8
BLACK
6
CONTINUOUS
10
5.86546
20
-5.22147
11
5.8639
21
-5.22244
0
LINE
8
BLACK
6
CONTINUOUS
10
5.8639
20
-5.22244
11
5.86218
21
-5.22308
0
LINE
8
BLACK
6
CONTINUOUS
10
5.86218
20
-5.22308
11
5.86038
21
-5.22338
0
LINE
8
BLACK
6
CONTINUOUS
10
5.86038
20
-5.22338
11
5.85854
21
-5.22332
0
LINE
8
BLACK
6
CONTINUOUS
10
5.85854
20
-5.22332
11
5.85676
21
-5.22291
0
LINE
8
BLACK
6
CONTINUOUS
10
5.85676
20
-5.22291
11
5.85509
21
-5.22215
0
LINE
8
BLACK
6
CONTINUOUS
10
5.85509
20
-5.22215
11
5.83548
21
-5.21083
0
LINE
8
BLACK
6
CONTINUOUS
10
5.83548
20
-5.21083
11
5.83399
21
-5.20976
0
LINE
8
BLACK
6
CONTINUOUS
10
5.83399
20
-5.20976
11
5.83274
21
-5.20843
0
LINE
8
BLACK
6
CONTINUOUS
10
5.83274
20
-5.20843
11
5.83177
21
-5.20687
0
LINE
8
BLACK
6
CONTINUOUS
10
5.83177
20
-5.20687
11
5.83113
21
-5.20515
0
LINE
8
BLACK
6
CONTINUOUS
10
5.83113
20
-5.20515
11
5.83083
21
-5.20335
0
LINE
8
BLACK
6
CONTINUOUS
10
5.83083
20
-5.20335
11
5.83089
21
-5.20151
0
LINE
8
BLACK
6
CONTINUOUS
10
5.83089
20
-5.20151
11
5.8313
21
-5.19973
0
LINE
8
BLACK
6
CONTINUOUS
10
5.8313
20
-5.19973
11
5.83206
21
-5.19806
0
LINE
8
BLACK
6
CONTINUOUS
10
5.83206
20
-5.19806
11
5.84141
21
-5.18186
0
LINE
8
BLACK
6
CONTINUOUS
10
5.84141
20
-5.18186
11
5.84248
21
-5.18037
0
LINE
8
BLACK
6
CONTINUOUS
10
5.84248
20
-5.18037
11
5.84382
21
-5.17912
0
LINE
8
BLACK
6
CONTINUOUS
10
5.84382
20
-5.17912
11
5.84537
21
-5.17815
0
LINE
8
BLACK
6
CONTINUOUS
10
5.84537
20
-5.17815
11
5.84709
21
-5.17751
0
LINE
8
BLACK
6
CONTINUOUS
10
5.84709
20
-5.17751
11
5.8489
21
-5.17721
0
LINE
8
BLACK
6
CONTINUOUS
10
5.8489
20
-5.17721
11
5.85073
21
-5.17727
0
LINE
8
BLACK
6
CONTINUOUS
10
5.95451
20
-5.17639
11
5.95625
21
-5.17696
0
LINE
8
BLACK
6
CONTINUOUS
10
5.95625
20
-5.17696
11
5.95785
21
-5.17785
0
LINE
8
BLACK
6
CONTINUOUS
10
5.95785
20
-5.17785
11
5.97639
21
-5.19084
0
LINE
8
BLACK
6
CONTINUOUS
10
5.97639
20
-5.19084
11
5.97778
21
-5.19203
0
LINE
8
BLACK
6
CONTINUOUS
10
5.97778
20
-5.19203
11
5.97891
21
-5.19347
0
LINE
8
BLACK
6
CONTINUOUS
10
5.97891
20
-5.19347
11
5.97974
21
-5.19511
0
LINE
8
BLACK
6
CONTINUOUS
10
5.97974
20
-5.19511
11
5.98023
21
-5.19687
0
LINE
8
BLACK
6
CONTINUOUS
10
5.98023
20
-5.19687
11
5.98037
21
-5.1987
0
LINE
8
BLACK
6
CONTINUOUS
10
5.98037
20
-5.1987
11
5.98015
21
-5.20052
0
LINE
8
BLACK
6
CONTINUOUS
10
5.98015
20
-5.20052
11
5.97958
21
-5.20226
0
LINE
8
BLACK
6
CONTINUOUS
10
5.97958
20
-5.20226
11
5.97869
21
-5.20386
0
LINE
8
BLACK
6
CONTINUOUS
10
5.97869
20
-5.20386
11
5.96796
21
-5.21918
0
LINE
8
BLACK
6
CONTINUOUS
10
5.96796
20
-5.21918
11
5.96677
21
-5.22057
0
LINE
8
BLACK
6
CONTINUOUS
10
5.96677
20
-5.22057
11
5.96532
21
-5.2217
0
LINE
8
BLACK
6
CONTINUOUS
10
5.96532
20
-5.2217
11
5.96369
21
-5.22253
0
LINE
8
BLACK
6
CONTINUOUS
10
5.96369
20
-5.22253
11
5.96192
21
-5.22303
0
LINE
8
BLACK
6
CONTINUOUS
10
5.96192
20
-5.22303
11
5.9601
21
-5.22317
0
LINE
8
BLACK
6
CONTINUOUS
10
5.9601
20
-5.22317
11
5.95828
21
-5.22295
0
LINE
8
BLACK
6
CONTINUOUS
10
5.95828
20
-5.22295
11
5.95653
21
-5.22238
0
LINE
8
BLACK
6
CONTINUOUS
10
5.95653
20
-5.22238
11
5.95494
21
-5.22148
0
LINE
8
BLACK
6
CONTINUOUS
10
5.95494
20
-5.22148
11
5.93639
21
-5.20849
0
LINE
8
BLACK
6
CONTINUOUS
10
5.93639
20
-5.20849
11
5.935
21
-5.2073
0
LINE
8
BLACK
6
CONTINUOUS
10
5.935
20
-5.2073
11
5.93387
21
-5.20586
0
LINE
8
BLACK
6
CONTINUOUS
10
5.93387
20
-5.20586
11
5.93304
21
-5.20422
0
LINE
8
BLACK
6
CONTINUOUS
10
5.93304
20
-5.20422
11
5.93255
21
-5.20246
0
LINE
8
BLACK
6
CONTINUOUS
10
5.93255
20
-5.20246
11
5.93241
21
-5.20063
0
LINE
8
BLACK
6
CONTINUOUS
10
5.93241
20
-5.20063
11
5.93263
21
-5.19881
0
LINE
8
BLACK
6
CONTINUOUS
10
5.93263
20
-5.19881
11
5.9332
21
-5.19707
0
LINE
8
BLACK
6
CONTINUOUS
10
5.9332
20
-5.19707
11
5.9341
21
-5.19547
0
LINE
8
BLACK
6
CONTINUOUS
10
5.9341
20
-5.19547
11
5.94482
21
-5.18015
0
LINE
8
BLACK
6
CONTINUOUS
10
5.94482
20
-5.18015
11
5.94602
21
-5.17876
0
LINE
8
BLACK
6
CONTINUOUS
10
5.94602
20
-5.17876
11
5.94746
21
-5.17763
0
LINE
8
BLACK
6
CONTINUOUS
10
5.94746
20
-5.17763
11
5.94909
21
-5.1768
0
LINE
8
BLACK
6
CONTINUOUS
10
5.94909
20
-5.1768
11
5.95086
21
-5.17631
0
LINE
8
BLACK
6
CONTINUOUS
10
5.95086
20
-5.17631
11
5.95269
21
-5.17617
0
LINE
8
BLACK
6
CONTINUOUS
10
5.95269
20
-5.17617
11
5.95451
21
-5.17639
0
LINE
8
BLACK
6
CONTINUOUS
10
6.70888
20
-5.17678
11
6.71061
21
-5.17739
0
LINE
8
BLACK
6
CONTINUOUS
10
6.71061
20
-5.17739
11
6.71219
21
-5.17832
0
LINE
8
BLACK
6
CONTINUOUS
10
6.71219
20
-5.17832
11
6.71355
21
-5.17954
0
LINE
8
BLACK
6
CONTINUOUS
10
6.71355
20
-5.17954
11
6.71465
21
-5.18101
0
LINE
8
BLACK
6
CONTINUOUS
10
6.71465
20
-5.18101
11
6.71544
21
-5.18266
0
LINE
8
BLACK
6
CONTINUOUS
10
6.71544
20
-5.18266
11
6.72319
21
-5.20393
0
LINE
8
BLACK
6
CONTINUOUS
10
6.72319
20
-5.20393
11
6.72364
21
-5.20571
0
LINE
8
BLACK
6
CONTINUOUS
10
6.72364
20
-5.20571
11
6.72374
21
-5.20754
0
LINE
8
BLACK
6
CONTINUOUS
10
6.72374
20
-5.20754
11
6.72348
21
-5.20935
0
LINE
8
BLACK
6
CONTINUOUS
10
6.72348
20
-5.20935
11
6.72287
21
-5.21108
0
LINE
8
BLACK
6
CONTINUOUS
10
6.72287
20
-5.21108
11
6.72194
21
-5.21266
0
LINE
8
BLACK
6
CONTINUOUS
10
6.72194
20
-5.21266
11
6.72072
21
-5.21403
0
LINE
8
BLACK
6
CONTINUOUS
10
6.72072
20
-5.21403
11
6.71925
21
-5.21513
0
LINE
8
BLACK
6
CONTINUOUS
10
6.71925
20
-5.21513
11
6.7176
21
-5.21592
0
LINE
8
BLACK
6
CONTINUOUS
10
6.7176
20
-5.21592
11
6.70003
21
-5.22231
0
LINE
8
BLACK
6
CONTINUOUS
10
6.70003
20
-5.22231
11
6.69825
21
-5.22277
0
LINE
8
BLACK
6
CONTINUOUS
10
6.69825
20
-5.22277
11
6.69642
21
-5.22287
0
LINE
8
BLACK
6
CONTINUOUS
10
6.69642
20
-5.22287
11
6.69461
21
-5.22261
0
LINE
8
BLACK
6
CONTINUOUS
10
6.69461
20
-5.22261
11
6.69288
21
-5.222
0
LINE
8
BLACK
6
CONTINUOUS
10
6.69288
20
-5.222
11
6.6913
21
-5.22107
0
LINE
8
BLACK
6
CONTINUOUS
10
6.6913
20
-5.22107
11
6.68993
21
-5.21985
0
LINE
8
BLACK
6
CONTINUOUS
10
6.68993
20
-5.21985
11
6.68883
21
-5.21838
0
LINE
8
BLACK
6
CONTINUOUS
10
6.68883
20
-5.21838
11
6.68804
21
-5.21673
0
LINE
8
BLACK
6
CONTINUOUS
10
6.68804
20
-5.21673
11
6.6803
21
-5.19545
0
LINE
8
BLACK
6
CONTINUOUS
10
6.6803
20
-5.19545
11
6.67984
21
-5.19368
0
LINE
8
BLACK
6
CONTINUOUS
10
6.67984
20
-5.19368
11
6.67974
21
-5.19185
0
LINE
8
BLACK
6
CONTINUOUS
10
6.67974
20
-5.19185
11
6.68
21
-5.19003
0
LINE
8
BLACK
6
CONTINUOUS
10
6.68
20
-5.19003
11
6.68061
21
-5.1883
0
LINE
8
BLACK
6
CONTINUOUS
10
6.68061
20
-5.1883
11
6.68154
21
-5.18673
0
LINE
8
BLACK
6
CONTINUOUS
10
6.68154
20
-5.18673
11
6.68277
21
-5.18536
0
LINE
8
BLACK
6
CONTINUOUS
10
6.68277
20
-5.18536
11
6.68423
21
-5.18426
0
LINE
8
BLACK
6
CONTINUOUS
10
6.68423
20
-5.18426
11
6.68589
21
-5.18347
0
LINE
8
BLACK
6
CONTINUOUS
10
6.68589
20
-5.18347
11
6.70346
21
-5.17707
0
LINE
8
BLACK
6
CONTINUOUS
10
6.70346
20
-5.17707
11
6.70524
21
-5.17662
0
LINE
8
BLACK
6
CONTINUOUS
10
6.70524
20
-5.17662
11
6.70707
21
-5.17652
0
LINE
8
BLACK
6
CONTINUOUS
10
6.70707
20
-5.17652
11
6.70888
21
-5.17678
0
LINE
8
BLACK
6
CONTINUOUS
10
6.04788
20
-5.16487
11
6.04962
21
-5.16544
0
LINE
8
BLACK
6
CONTINUOUS
10
6.04962
20
-5.16544
11
6.05122
21
-5.16634
0
LINE
8
BLACK
6
CONTINUOUS
10
6.05122
20
-5.16634
11
6.06976
21
-5.17932
0
LINE
8
BLACK
6
CONTINUOUS
10
6.06976
20
-5.17932
11
6.07116
21
-5.18052
0
LINE
8
BLACK
6
CONTINUOUS
10
6.07116
20
-5.18052
11
6.07229
21
-5.18196
0
LINE
8
BLACK
6
CONTINUOUS
10
6.07229
20
-5.18196
11
6.07312
21
-5.18359
0
LINE
8
BLACK
6
CONTINUOUS
10
6.07312
20
-5.18359
11
6.07361
21
-5.18536
0
LINE
8
BLACK
6
CONTINUOUS
10
6.07361
20
-5.18536
11
6.07375
21
-5.18719
0
LINE
8
BLACK
6
CONTINUOUS
10
6.07375
20
-5.18719
11
6.07353
21
-5.189
0
LINE
8
BLACK
6
CONTINUOUS
10
6.07353
20
-5.189
11
6.07296
21
-5.19075
0
LINE
8
BLACK
6
CONTINUOUS
10
6.07296
20
-5.19075
11
6.07206
21
-5.19234
0
LINE
8
BLACK
6
CONTINUOUS
10
6.07206
20
-5.19234
11
6.06133
21
-5.20766
0
LINE
8
BLACK
6
CONTINUOUS
10
6.06133
20
-5.20766
11
6.06014
21
-5.20905
0
LINE
8
BLACK
6
CONTINUOUS
10
6.06014
20
-5.20905
11
6.0587
21
-5.21019
0
LINE
8
BLACK
6
CONTINUOUS
10
6.0587
20
-5.21019
11
6.05706
21
-5.21101
0
LINE
8
BLACK
6
CONTINUOUS
10
6.05706
20
-5.21101
11
6.0553
21
-5.21151
0
LINE
8
BLACK
6
CONTINUOUS
10
6.0553
20
-5.21151
11
6.05347
21
-5.21165
0
LINE
8
BLACK
6
CONTINUOUS
10
6.05347
20
-5.21165
11
6.05165
21
-5.21143
0
LINE
8
BLACK
6
CONTINUOUS
10
6.05165
20
-5.21143
11
6.04991
21
-5.21086
0
LINE
8
BLACK
6
CONTINUOUS
10
6.04991
20
-5.21086
11
6.04831
21
-5.20996
0
LINE
8
BLACK
6
CONTINUOUS
10
6.04831
20
-5.20996
11
6.02977
21
-5.19697
0
LINE
8
BLACK
6
CONTINUOUS
10
6.02977
20
-5.19697
11
6.02838
21
-5.19578
0
LINE
8
BLACK
6
CONTINUOUS
10
6.02838
20
-5.19578
11
6.02724
21
-5.19434
0
LINE
8
BLACK
6
CONTINUOUS
10
6.02724
20
-5.19434
11
6.02642
21
-5.1927
0
LINE
8
BLACK
6
CONTINUOUS
10
6.02642
20
-5.1927
11
6.02592
21
-5.19094
0
LINE
8
BLACK
6
CONTINUOUS
10
6.02592
20
-5.19094
11
6.02578
21
-5.18911
0
LINE
8
BLACK
6
CONTINUOUS
10
6.02578
20
-5.18911
11
6.026
21
-5.18729
0
LINE
8
BLACK
6
CONTINUOUS
10
6.026
20
-5.18729
11
6.02657
21
-5.18555
0
LINE
8
BLACK
6
CONTINUOUS
10
6.02657
20
-5.18555
11
6.02747
21
-5.18395
0
LINE
8
BLACK
6
CONTINUOUS
10
6.02747
20
-5.18395
11
6.0382
21
-5.16863
0
LINE
8
BLACK
6
CONTINUOUS
10
6.0382
20
-5.16863
11
6.03939
21
-5.16724
0
LINE
8
BLACK
6
CONTINUOUS
10
6.03939
20
-5.16724
11
6.04083
21
-5.16611
0
LINE
8
BLACK
6
CONTINUOUS
10
6.04083
20
-5.16611
11
6.04247
21
-5.16528
0
LINE
8
BLACK
6
CONTINUOUS
10
6.04247
20
-5.16528
11
6.04423
21
-5.16479
0
LINE
8
BLACK
6
CONTINUOUS
10
6.04423
20
-5.16479
11
6.04606
21
-5.16465
0
LINE
8
BLACK
6
CONTINUOUS
10
6.04606
20
-5.16465
11
6.04788
21
-5.16487
0
LINE
8
BLACK
6
CONTINUOUS
10
5.79106
20
-5.14282
11
5.79285
21
-5.14324
0
LINE
8
BLACK
6
CONTINUOUS
10
5.79285
20
-5.14324
11
5.79452
21
-5.14399
0
LINE
8
BLACK
6
CONTINUOUS
10
5.79452
20
-5.14399
11
5.81412
21
-5.15531
0
LINE
8
BLACK
6
CONTINUOUS
10
5.81412
20
-5.15531
11
5.81561
21
-5.15638
0
LINE
8
BLACK
6
CONTINUOUS
10
5.81561
20
-5.15638
11
5.81687
21
-5.15772
0
LINE
8
BLACK
6
CONTINUOUS
10
5.81687
20
-5.15772
11
5.81783
21
-5.15927
0
LINE
8
BLACK
6
CONTINUOUS
10
5.81783
20
-5.15927
11
5.81848
21
-5.16099
0
LINE
8
BLACK
6
CONTINUOUS
10
5.81848
20
-5.16099
11
5.81878
21
-5.1628
0
LINE
8
BLACK
6
CONTINUOUS
10
5.81878
20
-5.1628
11
5.81872
21
-5.16463
0
LINE
8
BLACK
6
CONTINUOUS
10
5.81872
20
-5.16463
11
5.8183
21
-5.16641
0
LINE
8
BLACK
6
CONTINUOUS
10
5.8183
20
-5.16641
11
5.81754
21
-5.16808
0
LINE
8
BLACK
6
CONTINUOUS
10
5.81754
20
-5.16808
11
5.80819
21
-5.18428
0
LINE
8
BLACK
6
CONTINUOUS
10
5.80819
20
-5.18428
11
5.80713
21
-5.18577
0
LINE
8
BLACK
6
CONTINUOUS
10
5.80713
20
-5.18577
11
5.80579
21
-5.18702
0
LINE
8
BLACK
6
CONTINUOUS
10
5.80579
20
-5.18702
11
5.80423
21
-5.18799
0
LINE
8
BLACK
6
CONTINUOUS
10
5.80423
20
-5.18799
11
5.80252
21
-5.18864
0
LINE
8
BLACK
6
CONTINUOUS
10
5.80252
20
-5.18864
11
5.80071
21
-5.18893
0
LINE
8
BLACK
6
CONTINUOUS
10
5.80071
20
-5.18893
11
5.79888
21
-5.18887
0
LINE
8
BLACK
6
CONTINUOUS
10
5.79888
20
-5.18887
11
5.79709
21
-5.18846
0
LINE
8
BLACK
6
CONTINUOUS
10
5.79709
20
-5.18846
11
5.79542
21
-5.1877
0
LINE
8
BLACK
6
CONTINUOUS
10
5.79542
20
-5.1877
11
5.77582
21
-5.17638
0
LINE
8
BLACK
6
CONTINUOUS
10
5.77582
20
-5.17638
11
5.77433
21
-5.17531
0
LINE
8
BLACK
6
CONTINUOUS
10
5.77433
20
-5.17531
11
5.77307
21
-5.17398
0
LINE
8
BLACK
6
CONTINUOUS
10
5.77307
20
-5.17398
11
5.77211
21
-5.17242
0
LINE
8
BLACK
6
CONTINUOUS
10
5.77211
20
-5.17242
11
5.77146
21
-5.1707
0
LINE
8
BLACK
6
CONTINUOUS
10
5.77146
20
-5.1707
11
5.77116
21
-5.1689
0
LINE
8
BLACK
6
CONTINUOUS
10
5.77116
20
-5.1689
11
5.77122
21
-5.16706
0
LINE
8
BLACK
6
CONTINUOUS
10
5.77122
20
-5.16706
11
5.77164
21
-5.16528
0
LINE
8
BLACK
6
CONTINUOUS
10
5.77164
20
-5.16528
11
5.77239
21
-5.16361
0
LINE
8
BLACK
6
CONTINUOUS
10
5.77239
20
-5.16361
11
5.78174
21
-5.14741
0
LINE
8
BLACK
6
CONTINUOUS
10
5.78174
20
-5.14741
11
5.78281
21
-5.14592
0
LINE
8
BLACK
6
CONTINUOUS
10
5.78281
20
-5.14592
11
5.78415
21
-5.14467
0
LINE
8
BLACK
6
CONTINUOUS
10
5.78415
20
-5.14467
11
5.78571
21
-5.1437
0
LINE
8
BLACK
6
CONTINUOUS
10
5.78571
20
-5.1437
11
5.78742
21
-5.14306
0
LINE
8
BLACK
6
CONTINUOUS
10
5.78742
20
-5.14306
11
5.78923
21
-5.14276
0
LINE
8
BLACK
6
CONTINUOUS
10
5.78923
20
-5.14276
11
5.79106
21
-5.14282
0
LINE
8
BLACK
6
CONTINUOUS
10
5.99144
20
-5.12535
11
5.99319
21
-5.12592
0
LINE
8
BLACK
6
CONTINUOUS
10
5.99319
20
-5.12592
11
5.99478
21
-5.12682
0
LINE
8
BLACK
6
CONTINUOUS
10
5.99478
20
-5.12682
11
6.01333
21
-5.1398
0
LINE
8
BLACK
6
CONTINUOUS
10
6.01333
20
-5.1398
11
6.01472
21
-5.141
0
LINE
8
BLACK
6
CONTINUOUS
10
6.01472
20
-5.141
11
6.01585
21
-5.14244
0
LINE
8
BLACK
6
CONTINUOUS
10
6.01585
20
-5.14244
11
6.01668
21
-5.14407
0
LINE
8
BLACK
6
CONTINUOUS
10
6.01668
20
-5.14407
11
6.01717
21
-5.14584
0
LINE
8
BLACK
6
CONTINUOUS
10
6.01717
20
-5.14584
11
6.01731
21
-5.14767
0
LINE
8
BLACK
6
CONTINUOUS
10
6.01731
20
-5.14767
11
6.01709
21
-5.14949
0
LINE
8
BLACK
6
CONTINUOUS
10
6.01709
20
-5.14949
11
6.01652
21
-5.15123
0
LINE
8
BLACK
6
CONTINUOUS
10
6.01652
20
-5.15123
11
6.01562
21
-5.15283
0
LINE
8
BLACK
6
CONTINUOUS
10
6.01562
20
-5.15283
11
6.0049
21
-5.16814
0
LINE
8
BLACK
6
CONTINUOUS
10
6.0049
20
-5.16814
11
6.0037
21
-5.16954
0
LINE
8
BLACK
6
CONTINUOUS
10
6.0037
20
-5.16954
11
6.00226
21
-5.17067
0
LINE
8
BLACK
6
CONTINUOUS
10
6.00226
20
-5.17067
11
6.00063
21
-5.1715
0
LINE
8
BLACK
6
CONTINUOUS
10
6.00063
20
-5.1715
11
5.99886
21
-5.17199
0
LINE
8
BLACK
6
CONTINUOUS
10
5.99886
20
-5.17199
11
5.99703
21
-5.17213
0
LINE
8
BLACK
6
CONTINUOUS
10
5.99703
20
-5.17213
11
5.99521
21
-5.17191
0
LINE
8
BLACK
6
CONTINUOUS
10
5.99521
20
-5.17191
11
5.99347
21
-5.17134
0
LINE
8
BLACK
6
CONTINUOUS
10
5.99347
20
-5.17134
11
5.99187
21
-5.17044
0
LINE
8
BLACK
6
CONTINUOUS
10
5.99187
20
-5.17044
11
5.97333
21
-5.15746
0
LINE
8
BLACK
6
CONTINUOUS
10
5.97333
20
-5.15746
11
5.97194
21
-5.15626
0
LINE
8
BLACK
6
CONTINUOUS
10
5.97194
20
-5.15626
11
5.97081
21
-5.15482
0
LINE
8
BLACK
6
CONTINUOUS
10
5.97081
20
-5.15482
11
5.96998
21
-5.15319
0
LINE
8
BLACK
6
CONTINUOUS
10
5.96998
20
-5.15319
11
5.96948
21
-5.15142
0
LINE
8
BLACK
6
CONTINUOUS
10
5.96948
20
-5.15142
11
5.96934
21
-5.14959
0
LINE
8
BLACK
6
CONTINUOUS
10
5.96934
20
-5.14959
11
5.96956
21
-5.14777
0
LINE
8
BLACK
6
CONTINUOUS
10
5.96956
20
-5.14777
11
5.97013
21
-5.14603
0
LINE
8
BLACK
6
CONTINUOUS
10
5.97013
20
-5.14603
11
5.97103
21
-5.14443
0
LINE
8
BLACK
6
CONTINUOUS
10
5.97103
20
-5.14443
11
5.98176
21
-5.12912
0
LINE
8
BLACK
6
CONTINUOUS
10
5.98176
20
-5.12912
11
5.98295
21
-5.12772
0
LINE
8
BLACK
6
CONTINUOUS
10
5.98295
20
-5.12772
11
5.9844
21
-5.12659
0
LINE
8
BLACK
6
CONTINUOUS
10
5.9844
20
-5.12659
11
5.98603
21
-5.12576
0
LINE
8
BLACK
6
CONTINUOUS
10
5.98603
20
-5.12576
11
5.9878
21
-5.12527
0
LINE
8
BLACK
6
CONTINUOUS
10
5.9878
20
-5.12527
11
5.98962
21
-5.12513
0
LINE
8
BLACK
6
CONTINUOUS
10
5.98962
20
-5.12513
11
5.99144
21
-5.12535
0
LINE
8
BLACK
6
CONTINUOUS
10
6.09228
20
-5.1136
11
6.09402
21
-5.11417
0
LINE
8
BLACK
6
CONTINUOUS
10
6.09402
20
-5.11417
11
6.09562
21
-5.11507
0
LINE
8
BLACK
6
CONTINUOUS
10
6.09562
20
-5.11507
11
6.11416
21
-5.12806
0
LINE
8
BLACK
6
CONTINUOUS
10
6.11416
20
-5.12806
11
6.11555
21
-5.12925
0
LINE
8
BLACK
6
CONTINUOUS
10
6.11555
20
-5.12925
11
6.11668
21
-5.13069
0
LINE
8
BLACK
6
CONTINUOUS
10
6.11668
20
-5.13069
11
6.11751
21
-5.13233
0
LINE
8
BLACK
6
CONTINUOUS
10
6.11751
20
-5.13233
11
6.11801
21
-5.13409
0
LINE
8
BLACK
6
CONTINUOUS
10
6.11801
20
-5.13409
11
6.11815
21
-5.13592
0
LINE
8
BLACK
6
CONTINUOUS
10
6.11815
20
-5.13592
11
6.11793
21
-5.13774
0
LINE
8
BLACK
6
CONTINUOUS
10
6.11793
20
-5.13774
11
6.11736
21
-5.13948
0
LINE
8
BLACK
6
CONTINUOUS
10
6.11736
20
-5.13948
11
6.11646
21
-5.14108
0
LINE
8
BLACK
6
CONTINUOUS
10
6.11646
20
-5.14108
11
6.10573
21
-5.1564
0
LINE
8
BLACK
6
CONTINUOUS
10
6.10573
20
-5.1564
11
6.10454
21
-5.15779
0
LINE
8
BLACK
6
CONTINUOUS
10
6.10454
20
-5.15779
11
6.1031
21
-5.15892
0
LINE
8
BLACK
6
CONTINUOUS
10
6.1031
20
-5.15892
11
6.10146
21
-5.15975
0
LINE
8
BLACK
6
CONTINUOUS
10
6.10146
20
-5.15975
11
6.0997
21
-5.16024
0
LINE
8
BLACK
6
CONTINUOUS
10
6.0997
20
-5.16024
11
6.09787
21
-5.16038
0
LINE
8
BLACK
6
CONTINUOUS
10
6.09787
20
-5.16038
11
6.09605
21
-5.16017
0
LINE
8
BLACK
6
CONTINUOUS
10
6.09605
20
-5.16017
11
6.09431
21
-5.1596
0
LINE
8
BLACK
6
CONTINUOUS
10
6.09431
20
-5.1596
11
6.09271
21
-5.1587
0
LINE
8
BLACK
6
CONTINUOUS
10
6.09271
20
-5.1587
11
6.07417
21
-5.14571
0
LINE
8
BLACK
6
CONTINUOUS
10
6.07417
20
-5.14571
11
6.07277
21
-5.14452
0
LINE
8
BLACK
6
CONTINUOUS
10
6.07277
20
-5.14452
11
6.07164
21
-5.14308
0
LINE
8
BLACK
6
CONTINUOUS
10
6.07164
20
-5.14308
11
6.07081
21
-5.14144
0
LINE
8
BLACK
6
CONTINUOUS
10
6.07081
20
-5.14144
11
6.07032
21
-5.13968
0
LINE
8
BLACK
6
CONTINUOUS
10
6.07032
20
-5.13968
11
6.07018
21
-5.13785
0
LINE
8
BLACK
6
CONTINUOUS
10
6.07018
20
-5.13785
11
6.0704
21
-5.13603
0
LINE
8
BLACK
6
CONTINUOUS
10
6.0704
20
-5.13603
11
6.07097
21
-5.13429
0
LINE
8
BLACK
6
CONTINUOUS
10
6.07097
20
-5.13429
11
6.07187
21
-5.13269
0
LINE
8
BLACK
6
CONTINUOUS
10
6.07187
20
-5.13269
11
6.0826
21
-5.11737
0
LINE
8
BLACK
6
CONTINUOUS
10
6.0826
20
-5.11737
11
6.08379
21
-5.11598
0
LINE
8
BLACK
6
CONTINUOUS
10
6.08379
20
-5.11598
11
6.08523
21
-5.11485
0
LINE
8
BLACK
6
CONTINUOUS
10
6.08523
20
-5.11485
11
6.08687
21
-5.11402
0
LINE
8
BLACK
6
CONTINUOUS
10
6.08687
20
-5.11402
11
6.08863
21
-5.11353
0
LINE
8
BLACK
6
CONTINUOUS
10
6.08863
20
-5.11353
11
6.09046
21
-5.11339
0
LINE
8
BLACK
6
CONTINUOUS
10
6.09046
20
-5.11339
11
6.09228
21
-5.1136
0
LINE
8
BLACK
6
CONTINUOUS
10
6.68532
20
-5.11203
11
6.68705
21
-5.11264
0
LINE
8
BLACK
6
CONTINUOUS
10
6.68705
20
-5.11264
11
6.68862
21
-5.11358
0
LINE
8
BLACK
6
CONTINUOUS
10
6.68862
20
-5.11358
11
6.68999
21
-5.1148
0
LINE
8
BLACK
6
CONTINUOUS
10
6.68999
20
-5.1148
11
6.69109
21
-5.11627
0
LINE
8
BLACK
6
CONTINUOUS
10
6.69109
20
-5.11627
11
6.69188
21
-5.11792
0
LINE
8
BLACK
6
CONTINUOUS
10
6.69188
20
-5.11792
11
6.69962
21
-5.13919
0
LINE
8
BLACK
6
CONTINUOUS
10
6.69962
20
-5.13919
11
6.70008
21
-5.14097
0
LINE
8
BLACK
6
CONTINUOUS
10
6.70008
20
-5.14097
11
6.70018
21
-5.1428
0
LINE
8
BLACK
6
CONTINUOUS
10
6.70018
20
-5.1428
11
6.69992
21
-5.14461
0
LINE
8
BLACK
6
CONTINUOUS
10
6.69992
20
-5.14461
11
6.69931
21
-5.14634
0
LINE
8
BLACK
6
CONTINUOUS
10
6.69931
20
-5.14634
11
6.69838
21
-5.14792
0
LINE
8
BLACK
6
CONTINUOUS
10
6.69838
20
-5.14792
11
6.69715
21
-5.14928
0
LINE
8
BLACK
6
CONTINUOUS
10
6.69715
20
-5.14928
11
6.69569
21
-5.15038
0
LINE
8
BLACK
6
CONTINUOUS
10
6.69569
20
-5.15038
11
6.69403
21
-5.15118
0
LINE
8
BLACK
6
CONTINUOUS
10
6.69403
20
-5.15118
11
6.67646
21
-5.15757
0
LINE
8
BLACK
6
CONTINUOUS
10
6.67646
20
-5.15757
11
6.67469
21
-5.15803
0
LINE
8
BLACK
6
CONTINUOUS
10
6.67469
20
-5.15803
11
6.67286
21
-5.15813
0
LINE
8
BLACK
6
CONTINUOUS
10
6.67286
20
-5.15813
11
6.67104
21
-5.15787
0
LINE
8
BLACK
6
CONTINUOUS
10
6.67104
20
-5.15787
11
6.66931
21
-5.15726
0
LINE
8
BLACK
6
CONTINUOUS
10
6.66931
20
-5.15726
11
6.66773
21
-5.15633
0
LINE
8
BLACK
6
CONTINUOUS
10
6.66773
20
-5.15633
11
6.66637
21
-5.1551
0
LINE
8
BLACK
6
CONTINUOUS
10
6.66637
20
-5.1551
11
6.66527
21
-5.15364
0
LINE
8
BLACK
6
CONTINUOUS
10
6.66527
20
-5.15364
11
6.66448
21
-5.15198
0
LINE
8
BLACK
6
CONTINUOUS
10
6.66448
20
-5.15198
11
6.65673
21
-5.13071
0
LINE
8
BLACK
6
CONTINUOUS
10
6.65673
20
-5.13071
11
6.65628
21
-5.12894
0
LINE
8
BLACK
6
CONTINUOUS
10
6.65628
20
-5.12894
11
6.65618
21
-5.12711
0
LINE
8
BLACK
6
CONTINUOUS
10
6.65618
20
-5.12711
11
6.65644
21
-5.12529
0
LINE
8
BLACK
6
CONTINUOUS
10
6.65644
20
-5.12529
11
6.65705
21
-5.12356
0
LINE
8
BLACK
6
CONTINUOUS
10
6.65705
20
-5.12356
11
6.65798
21
-5.12198
0
LINE
8
BLACK
6
CONTINUOUS
10
6.65798
20
-5.12198
11
6.6592
21
-5.12062
0
LINE
8
BLACK
6
CONTINUOUS
10
6.6592
20
-5.12062
11
6.66067
21
-5.11952
0
LINE
8
BLACK
6
CONTINUOUS
10
6.66067
20
-5.11952
11
6.66232
21
-5.11873
0
LINE
8
BLACK
6
CONTINUOUS
10
6.66232
20
-5.11873
11
6.6799
21
-5.11233
0
LINE
8
BLACK
6
CONTINUOUS
10
6.6799
20
-5.11233
11
6.68167
21
-5.11188
0
LINE
8
BLACK
6
CONTINUOUS
10
6.68167
20
-5.11188
11
6.6835
21
-5.11178
0
LINE
8
BLACK
6
CONTINUOUS
10
6.6835
20
-5.11178
11
6.68532
21
-5.11203
0
LINE
8
BLACK
6
CONTINUOUS
10
6.21409
20
-5.10589
11
6.21585
21
-5.10642
0
LINE
8
BLACK
6
CONTINUOUS
10
6.21585
20
-5.10642
11
6.21746
21
-5.10728
0
LINE
8
BLACK
6
CONTINUOUS
10
6.21746
20
-5.10728
11
6.21888
21
-5.10845
0
LINE
8
BLACK
6
CONTINUOUS
10
6.21888
20
-5.10845
11
6.2321
21
-5.12167
0
LINE
8
BLACK
6
CONTINUOUS
10
6.2321
20
-5.12167
11
6.23327
21
-5.12309
0
LINE
8
BLACK
6
CONTINUOUS
10
6.23327
20
-5.12309
11
6.23413
21
-5.1247
0
LINE
8
BLACK
6
CONTINUOUS
10
6.23413
20
-5.1247
11
6.23466
21
-5.12646
0
LINE
8
BLACK
6
CONTINUOUS
10
6.23466
20
-5.12646
11
6.23484
21
-5.12828
0
LINE
8
BLACK
6
CONTINUOUS
10
6.23484
20
-5.12828
11
6.23466
21
-5.13011
0
LINE
8
BLACK
6
CONTINUOUS
10
6.23466
20
-5.13011
11
6.23413
21
-5.13186
0
LINE
8
BLACK
6
CONTINUOUS
10
6.23413
20
-5.13186
11
6.23327
21
-5.13348
0
LINE
8
BLACK
6
CONTINUOUS
10
6.23327
20
-5.13348
11
6.2321
21
-5.13489
0
LINE
8
BLACK
6
CONTINUOUS
10
6.2321
20
-5.13489
11
6.2161
21
-5.1509
0
LINE
8
BLACK
6
CONTINUOUS
10
6.2161
20
-5.1509
11
6.21468
21
-5.15206
0
LINE
8
BLACK
6
CONTINUOUS
10
6.21468
20
-5.15206
11
6.21306
21
-5.15293
0
LINE
8
BLACK
6
CONTINUOUS
10
6.21306
20
-5.15293
11
6.21131
21
-5.15346
0
LINE
8
BLACK
6
CONTINUOUS
10
6.21131
20
-5.15346
11
6.20949
21
-5.15364
0
LINE
8
BLACK
6
CONTINUOUS
10
6.20949
20
-5.15364
11
6.20766
21
-5.15346
0
LINE
8
BLACK
6
CONTINUOUS
10
6.20766
20
-5.15346
11
6.20591
21
-5.15293
0
LINE
8
BLACK
6
CONTINUOUS
10
6.20591
20
-5.15293
11
6.20429
21
-5.15206
0
LINE
8
BLACK
6
CONTINUOUS
10
6.20429
20
-5.15206
11
6.20287
21
-5.1509
0
LINE
8
BLACK
6
CONTINUOUS
10
6.20287
20
-5.1509
11
6.18965
21
-5.13768
0
LINE
8
BLACK
6
CONTINUOUS
10
6.18965
20
-5.13768
11
6.18849
21
-5.13626
0
LINE
8
BLACK
6
CONTINUOUS
10
6.18849
20
-5.13626
11
6.18762
21
-5.13464
0
LINE
8
BLACK
6
CONTINUOUS
10
6.18762
20
-5.13464
11
6.18709
21
-5.13289
0
LINE
8
BLACK
6
CONTINUOUS
10
6.18709
20
-5.13289
11
6.18691
21
-5.13107
0
LINE
8
BLACK
6
CONTINUOUS
10
6.18691
20
-5.13107
11
6.18709
21
-5.12924
0
LINE
8
BLACK
6
CONTINUOUS
10
6.18709
20
-5.12924
11
6.18762
21
-5.12749
0
LINE
8
BLACK
6
CONTINUOUS
10
6.18762
20
-5.12749
11
6.18849
21
-5.12587
0
LINE
8
BLACK
6
CONTINUOUS
10
6.18849
20
-5.12587
11
6.18965
21
-5.12445
0
LINE
8
BLACK
6
CONTINUOUS
10
6.18965
20
-5.12445
11
6.20566
21
-5.10845
0
LINE
8
BLACK
6
CONTINUOUS
10
6.20566
20
-5.10845
11
6.20707
21
-5.10728
0
LINE
8
BLACK
6
CONTINUOUS
10
6.20707
20
-5.10728
11
6.20869
21
-5.10642
0
LINE
8
BLACK
6
CONTINUOUS
10
6.20869
20
-5.10642
11
6.21044
21
-5.10589
0
LINE
8
BLACK
6
CONTINUOUS
10
6.21044
20
-5.10589
11
6.21227
21
-5.10571
0
LINE
8
BLACK
6
CONTINUOUS
10
6.21227
20
-5.10571
11
6.21409
21
-5.10589
0
LINE
8
BLACK
6
CONTINUOUS
10
6.03584
20
-5.07409
11
6.03758
21
-5.07466
0
LINE
8
BLACK
6
CONTINUOUS
10
6.03758
20
-5.07466
11
6.03918
21
-5.07556
0
LINE
8
BLACK
6
CONTINUOUS
10
6.03918
20
-5.07556
11
6.05772
21
-5.08854
0
LINE
8
BLACK
6
CONTINUOUS
10
6.05772
20
-5.08854
11
6.05912
21
-5.08973
0
LINE
8
BLACK
6
CONTINUOUS
10
6.05912
20
-5.08973
11
6.06025
21
-5.09118
0
LINE
8
BLACK
6
CONTINUOUS
10
6.06025
20
-5.09118
11
6.06108
21
-5.09281
0
LINE
8
BLACK
6
CONTINUOUS
10
6.06108
20
-5.09281
11
6.06157
21
-5.09458
0
LINE
8
BLACK
6
CONTINUOUS
10
6.06157
20
-5.09458
11
6.06171
21
-5.0964
0
LINE
8
BLACK
6
CONTINUOUS
10
6.06171
20
-5.0964
11
6.06149
21
-5.09822
0
LINE
8
BLACK
6
CONTINUOUS
10
6.06149
20
-5.09822
11
6.06092
21
-5.09997
0
LINE
8
BLACK
6
CONTINUOUS
10
6.06092
20
-5.09997
11
6.06002
21
-5.10156
0
LINE
8
BLACK
6
CONTINUOUS
10
6.06002
20
-5.10156
11
6.04929
21
-5.11688
0
LINE
8
BLACK
6
CONTINUOUS
10
6.04929
20
-5.11688
11
6.0481
21
-5.11827
0
LINE
8
BLACK
6
CONTINUOUS
10
6.0481
20
-5.11827
11
6.04666
21
-5.1194
0
LINE
8
BLACK
6
CONTINUOUS
10
6.04666
20
-5.1194
11
6.04502
21
-5.12023
0
LINE
8
BLACK
6
CONTINUOUS
10
6.04502
20
-5.12023
11
6.04326
21
-5.12073
0
LINE
8
BLACK
6
CONTINUOUS
10
6.04326
20
-5.12073
11
6.04143
21
-5.12087
0
LINE
8
BLACK
6
CONTINUOUS
10
6.04143
20
-5.12087
11
6.03961
21
-5.12065
0
LINE
8
BLACK
6
CONTINUOUS
10
6.03961
20
-5.12065
11
6.03787
21
-5.12008
0
LINE
8
BLACK
6
CONTINUOUS
10
6.03787
20
-5.12008
11
6.03627
21
-5.11918
0
LINE
8
BLACK
6
CONTINUOUS
10
6.03627
20
-5.11918
11
6.01773
21
-5.10619
0
LINE
8
BLACK
6
CONTINUOUS
10
6.01773
20
-5.10619
11
6.01634
21
-5.105
0
LINE
8
BLACK
6
CONTINUOUS
10
6.01634
20
-5.105
11
6.0152
21
-5.10356
0
LINE
8
BLACK
6
CONTINUOUS
10
6.0152
20
-5.10356
11
6.01438
21
-5.10192
0
LINE
8
BLACK
6
CONTINUOUS
10
6.01438
20
-5.10192
11
6.01388
21
-5.10016
0
LINE
8
BLACK
6
CONTINUOUS
10
6.01388
20
-5.10016
11
6.01374
21
-5.09833
0
LINE
8
BLACK
6
CONTINUOUS
10
6.01374
20
-5.09833
11
6.01396
21
-5.09651
0
LINE
8
BLACK
6
CONTINUOUS
10
6.01396
20
-5.09651
11
6.01453
21
-5.09477
0
LINE
8
BLACK
6
CONTINUOUS
10
6.01453
20
-5.09477
11
6.01543
21
-5.09317
0
LINE
8
BLACK
6
CONTINUOUS
10
6.01543
20
-5.09317
11
6.02616
21
-5.07785
0
LINE
8
BLACK
6
CONTINUOUS
10
6.02616
20
-5.07785
11
6.02735
21
-5.07646
0
LINE
8
BLACK
6
CONTINUOUS
10
6.02735
20
-5.07646
11
6.02879
21
-5.07533
0
LINE
8
BLACK
6
CONTINUOUS
10
6.02879
20
-5.07533
11
6.03043
21
-5.0745
0
LINE
8
BLACK
6
CONTINUOUS
10
6.03043
20
-5.0745
11
6.03219
21
-5.07401
0
LINE
8
BLACK
6
CONTINUOUS
10
6.03219
20
-5.07401
11
6.03402
21
-5.07387
0
LINE
8
BLACK
6
CONTINUOUS
10
6.03402
20
-5.07387
11
6.03584
21
-5.07409
0
LINE
8
BLACK
6
CONTINUOUS
10
5.97506
20
-5.08902
11
5.957
21
-5.11482
0
LINE
8
BLACK
6
CONTINUOUS
10
5.957
20
-5.11482
11
5.92797
21
-5.0945
0
LINE
8
BLACK
6
CONTINUOUS
10
5.92797
20
-5.0945
11
5.94604
21
-5.0687
0
LINE
8
BLACK
6
CONTINUOUS
10
5.94604
20
-5.0687
11
5.97506
21
-5.08902
0
LINE
8
BLACK
6
CONTINUOUS
10
6.26281
20
-5.05717
11
6.26457
21
-5.0577
0
LINE
8
BLACK
6
CONTINUOUS
10
6.26457
20
-5.0577
11
6.26618
21
-5.05857
0
LINE
8
BLACK
6
CONTINUOUS
10
6.26618
20
-5.05857
11
6.2676
21
-5.05973
0
LINE
8
BLACK
6
CONTINUOUS
10
6.2676
20
-5.05973
11
6.28082
21
-5.07295
0
LINE
8
BLACK
6
CONTINUOUS
10
6.28082
20
-5.07295
11
6.28199
21
-5.07437
0
LINE
8
BLACK
6
CONTINUOUS
10
6.28199
20
-5.07437
11
6.28285
21
-5.07599
0
LINE
8
BLACK
6
CONTINUOUS
10
6.28285
20
-5.07599
11
6.28338
21
-5.07774
0
LINE
8
BLACK
6
CONTINUOUS
10
6.28338
20
-5.07774
11
6.28356
21
-5.07956
0
LINE
8
BLACK
6
CONTINUOUS
10
6.28356
20
-5.07956
11
6.28338
21
-5.08139
0
LINE
8
BLACK
6
CONTINUOUS
10
6.28338
20
-5.08139
11
6.28285
21
-5.08314
0
LINE
8
BLACK
6
CONTINUOUS
10
6.28285
20
-5.08314
11
6.28199
21
-5.08476
0
LINE
8
BLACK
6
CONTINUOUS
10
6.28199
20
-5.08476
11
6.28082
21
-5.08618
0
LINE
8
BLACK
6
CONTINUOUS
10
6.28082
20
-5.08618
11
6.26481
21
-5.10218
0
LINE
8
BLACK
6
CONTINUOUS
10
6.26481
20
-5.10218
11
6.2634
21
-5.10335
0
LINE
8
BLACK
6
CONTINUOUS
10
6.2634
20
-5.10335
11
6.26178
21
-5.10421
0
LINE
8
BLACK
6
CONTINUOUS
10
6.26178
20
-5.10421
11
6.26003
21
-5.10474
0
LINE
8
BLACK
6
CONTINUOUS
10
6.26003
20
-5.10474
11
6.2582
21
-5.10492
0
LINE
8
BLACK
6
CONTINUOUS
10
6.2582
20
-5.10492
11
6.25638
21
-5.10474
0
LINE
8
BLACK
6
CONTINUOUS
10
6.25638
20
-5.10474
11
6.25463
21
-5.10421
0
LINE
8
BLACK
6
CONTINUOUS
10
6.25463
20
-5.10421
11
6.25301
21
-5.10335
0
LINE
8
BLACK
6
CONTINUOUS
10
6.25301
20
-5.10335
11
6.25159
21
-5.10218
0
LINE
8
BLACK
6
CONTINUOUS
10
6.25159
20
-5.10218
11
6.23837
21
-5.08896
0
LINE
8
BLACK
6
CONTINUOUS
10
6.23837
20
-5.08896
11
6.23721
21
-5.08754
0
LINE
8
BLACK
6
CONTINUOUS
10
6.23721
20
-5.08754
11
6.23634
21
-5.08593
0
LINE
8
BLACK
6
CONTINUOUS
10
6.23634
20
-5.08593
11
6.23581
21
-5.08417
0
LINE
8
BLACK
6
CONTINUOUS
10
6.23581
20
-5.08417
11
6.23563
21
-5.08235
0
LINE
8
BLACK
6
CONTINUOUS
10
6.23563
20
-5.08235
11
6.23581
21
-5.08052
0
LINE
8
BLACK
6
CONTINUOUS
10
6.23581
20
-5.08052
11
6.23634
21
-5.07877
0
LINE
8
BLACK
6
CONTINUOUS
10
6.23634
20
-5.07877
11
6.23721
21
-5.07715
0
LINE
8
BLACK
6
CONTINUOUS
10
6.23721
20
-5.07715
11
6.23837
21
-5.07574
0
LINE
8
BLACK
6
CONTINUOUS
10
6.23837
20
-5.07574
11
6.25438
21
-5.05973
0
LINE
8
BLACK
6
CONTINUOUS
10
6.25438
20
-5.05973
11
6.25579
21
-5.05857
0
LINE
8
BLACK
6
CONTINUOUS
10
6.25579
20
-5.05857
11
6.25741
21
-5.0577
0
LINE
8
BLACK
6
CONTINUOUS
10
6.25741
20
-5.0577
11
6.25916
21
-5.05717
0
LINE
8
BLACK
6
CONTINUOUS
10
6.25916
20
-5.05717
11
6.26099
21
-5.05699
0
LINE
8
BLACK
6
CONTINUOUS
10
6.26099
20
-5.05699
11
6.26281
21
-5.05717
0
LINE
8
BLACK
6
CONTINUOUS
10
5.88911
20
-5.0745
11
5.87104
21
-5.1003
0
LINE
8
BLACK
6
CONTINUOUS
10
5.87104
20
-5.1003
11
5.84202
21
-5.07997
0
LINE
8
BLACK
6
CONTINUOUS
10
5.84202
20
-5.07997
11
5.86008
21
-5.05417
0
LINE
8
BLACK
6
CONTINUOUS
10
5.86008
20
-5.05417
11
5.88911
21
-5.0745
0
LINE
8
BLACK
6
CONTINUOUS
10
6.67836
20
-4.97921
11
6.66469
21
-5.05676
0
LINE
8
BLACK
6
CONTINUOUS
10
6.66469
20
-5.05676
11
6.60653
21
-5.0465
0
LINE
8
BLACK
6
CONTINUOUS
10
6.60653
20
-5.0465
11
6.6202
21
-4.96896
0
LINE
8
BLACK
6
CONTINUOUS
10
6.6202
20
-4.96896
11
6.67836
21
-4.97921
0
LINE
8
BLACK
6
CONTINUOUS
10
6.15925
20
-4.99658
11
6.16099
21
-4.99715
0
LINE
8
BLACK
6
CONTINUOUS
10
6.16099
20
-4.99715
11
6.16259
21
-4.99805
0
LINE
8
BLACK
6
CONTINUOUS
10
6.16259
20
-4.99805
11
6.17791
21
-5.00878
0
LINE
8
BLACK
6
CONTINUOUS
10
6.17791
20
-5.00878
11
6.1793
21
-5.00997
0
LINE
8
BLACK
6
CONTINUOUS
10
6.1793
20
-5.00997
11
6.18043
21
-5.01141
0
LINE
8
BLACK
6
CONTINUOUS
10
6.18043
20
-5.01141
11
6.18126
21
-5.01305
0
LINE
8
BLACK
6
CONTINUOUS
10
6.18126
20
-5.01305
11
6.18175
21
-5.01481
0
LINE
8
BLACK
6
CONTINUOUS
10
6.18175
20
-5.01481
11
6.18189
21
-5.01664
0
LINE
8
BLACK
6
CONTINUOUS
10
6.18189
20
-5.01664
11
6.18167
21
-5.01846
0
LINE
8
BLACK
6
CONTINUOUS
10
6.18167
20
-5.01846
11
6.1811
21
-5.0202
0
LINE
8
BLACK
6
CONTINUOUS
10
6.1811
20
-5.0202
11
6.1802
21
-5.0218
0
LINE
8
BLACK
6
CONTINUOUS
10
6.1802
20
-5.0218
11
6.16722
21
-5.04034
0
LINE
8
BLACK
6
CONTINUOUS
10
6.16722
20
-5.04034
11
6.16602
21
-5.04173
0
LINE
8
BLACK
6
CONTINUOUS
10
6.16602
20
-5.04173
11
6.16458
21
-5.04287
0
LINE
8
BLACK
6
CONTINUOUS
10
6.16458
20
-5.04287
11
6.16295
21
-5.04369
0
LINE
8
BLACK
6
CONTINUOUS
10
6.16295
20
-5.04369
11
6.16118
21
-5.04419
0
LINE
8
BLACK
6
CONTINUOUS
10
6.16118
20
-5.04419
11
6.15935
21
-5.04433
0
LINE
8
BLACK
6
CONTINUOUS
10
6.15935
20
-5.04433
11
6.15753
21
-5.04411
0
LINE
8
BLACK
6
CONTINUOUS
10
6.15753
20
-5.04411
11
6.15579
21
-5.04354
0
LINE
8
BLACK
6
CONTINUOUS
10
6.15579
20
-5.04354
11
6.15419
21
-5.04264
0
LINE
8
BLACK
6
CONTINUOUS
10
6.15419
20
-5.04264
11
6.13888
21
-5.03191
0
LINE
8
BLACK
6
CONTINUOUS
10
6.13888
20
-5.03191
11
6.13748
21
-5.03072
0
LINE
8
BLACK
6
CONTINUOUS
10
6.13748
20
-5.03072
11
6.13635
21
-5.02928
0
LINE
8
BLACK
6
CONTINUOUS
10
6.13635
20
-5.02928
11
6.13552
21
-5.02764
0
LINE
8
BLACK
6
CONTINUOUS
10
6.13552
20
-5.02764
11
6.13503
21
-5.02588
0
LINE
8
BLACK
6
CONTINUOUS
10
6.13503
20
-5.02588
11
6.13489
21
-5.02405
0
LINE
8
BLACK
6
CONTINUOUS
10
6.13489
20
-5.02405
11
6.13511
21
-5.02223
0
LINE
8
BLACK
6
CONTINUOUS
10
6.13511
20
-5.02223
11
6.13568
21
-5.02049
0
LINE
8
BLACK
6
CONTINUOUS
10
6.13568
20
-5.02049
11
6.13658
21
-5.01889
0
LINE
8
BLACK
6
CONTINUOUS
10
6.13658
20
-5.01889
11
6.14956
21
-5.00035
0
LINE
8
BLACK
6
CONTINUOUS
10
6.14956
20
-5.00035
11
6.15076
21
-4.99896
0
LINE
8
BLACK
6
CONTINUOUS
10
6.15076
20
-4.99896
11
6.1522
21
-4.99782
0
LINE
8
BLACK
6
CONTINUOUS
10
6.1522
20
-4.99782
11
6.15383
21
-4.997
0
LINE
8
BLACK
6
CONTINUOUS
10
6.15383
20
-4.997
11
6.1556
21
-4.9965
0
LINE
8
BLACK
6
CONTINUOUS
10
6.1556
20
-4.9965
11
6.15743
21
-4.99636
0
LINE
8
BLACK
6
CONTINUOUS
10
6.15743
20
-4.99636
11
6.15925
21
-4.99658
0
LINE
8
BLACK
6
CONTINUOUS
10
6.58918
20
-4.96349
11
6.57551
21
-5.04103
0
LINE
8
BLACK
6
CONTINUOUS
10
6.57551
20
-5.04103
11
6.51735
21
-5.03078
0
LINE
8
BLACK
6
CONTINUOUS
10
6.51735
20
-5.03078
11
6.53103
21
-4.95323
0
LINE
8
BLACK
6
CONTINUOUS
10
6.53103
20
-4.95323
11
6.58918
21
-4.96349
0
LINE
8
BLACK
6
CONTINUOUS
10
5.93201
20
-5.01322
11
5.91395
21
-5.03902
0
LINE
8
BLACK
6
CONTINUOUS
10
5.91395
20
-5.03902
11
5.88492
21
-5.0187
0
LINE
8
BLACK
6
CONTINUOUS
10
5.88492
20
-5.0187
11
5.90299
21
-4.9929
0
LINE
8
BLACK
6
CONTINUOUS
10
5.90299
20
-4.9929
11
5.93201
21
-5.01322
0
LINE
8
BLACK
6
CONTINUOUS
10
5.75114
20
-4.97388
11
5.70597
21
-5.03838
0
LINE
8
BLACK
6
CONTINUOUS
10
5.70597
20
-5.03838
11
5.67695
21
-5.01806
0
LINE
8
BLACK
6
CONTINUOUS
10
5.67695
20
-5.01806
11
5.72211
21
-4.95356
0
LINE
8
BLACK
6
CONTINUOUS
10
5.72211
20
-4.95356
11
5.75114
21
-4.97388
0
LINE
8
BLACK
6
CONTINUOUS
10
6.50001
20
-4.94776
11
6.48633
21
-5.02531
0
LINE
8
BLACK
6
CONTINUOUS
10
6.48633
20
-5.02531
11
6.42818
21
-5.01505
0
LINE
8
BLACK
6
CONTINUOUS
10
6.42818
20
-5.01505
11
6.44185
21
-4.93751
0
LINE
8
BLACK
6
CONTINUOUS
10
6.44185
20
-4.93751
11
6.50001
21
-4.94776
0
LINE
8
BLACK
6
CONTINUOUS
10
6.0056
20
-4.9731
11
6.00735
21
-4.97367
0
LINE
8
BLACK
6
CONTINUOUS
10
6.00735
20
-4.97367
11
6.00894
21
-4.97457
0
LINE
8
BLACK
6
CONTINUOUS
10
6.00894
20
-4.97457
11
6.02749
21
-4.98755
0
LINE
8
BLACK
6
CONTINUOUS
10
6.02749
20
-4.98755
11
6.02888
21
-4.98875
0
LINE
8
BLACK
6
CONTINUOUS
10
6.02888
20
-4.98875
11
6.03001
21
-4.99019
0
LINE
8
BLACK
6
CONTINUOUS
10
6.03001
20
-4.99019
11
6.03084
21
-4.99182
0
LINE
8
BLACK
6
CONTINUOUS
10
6.03084
20
-4.99182
11
6.03133
21
-4.99359
0
LINE
8
BLACK
6
CONTINUOUS
10
6.03133
20
-4.99359
11
6.03147
21
-4.99542
0
LINE
8
BLACK
6
CONTINUOUS
10
6.03147
20
-4.99542
11
6.03125
21
-4.99724
0
LINE
8
BLACK
6
CONTINUOUS
10
6.03125
20
-4.99724
11
6.03068
21
-4.99898
0
LINE
8
BLACK
6
CONTINUOUS
10
6.03068
20
-4.99898
11
6.02978
21
-5.00057
0
LINE
8
BLACK
6
CONTINUOUS
10
6.02978
20
-5.00057
11
6.01906
21
-5.01589
0
LINE
8
BLACK
6
CONTINUOUS
10
6.01906
20
-5.01589
11
6.01786
21
-5.01728
0
LINE
8
BLACK
6
CONTINUOUS
10
6.01786
20
-5.01728
11
6.01642
21
-5.01842
0
LINE
8
BLACK
6
CONTINUOUS
10
6.01642
20
-5.01842
11
6.01479
21
-5.01925
0
LINE
8
BLACK
6
CONTINUOUS
10
6.01479
20
-5.01925
11
6.01302
21
-5.01974
0
LINE
8
BLACK
6
CONTINUOUS
10
6.01302
20
-5.01974
11
6.01119
21
-5.01988
0
LINE
8
BLACK
6
CONTINUOUS
10
6.01119
20
-5.01988
11
6.00937
21
-5.01966
0
LINE
8
BLACK
6
CONTINUOUS
10
6.00937
20
-5.01966
11
6.00763
21
-5.01909
0
LINE
8
BLACK
6
CONTINUOUS
10
6.00763
20
-5.01909
11
6.00604
21
-5.01819
0
LINE
8
BLACK
6
CONTINUOUS
10
6.00604
20
-5.01819
11
5.98749
21
-5.00521
0
LINE
8
BLACK
6
CONTINUOUS
10
5.98749
20
-5.00521
11
5.9861
21
-5.00401
0
LINE
8
BLACK
6
CONTINUOUS
10
5.9861
20
-5.00401
11
5.98497
21
-5.00257
0
LINE
8
BLACK
6
CONTINUOUS
10
5.98497
20
-5.00257
11
5.98414
21
-5.00093
0
LINE
8
BLACK
6
CONTINUOUS
10
5.98414
20
-5.00093
11
5.98365
21
-4.99917
0
LINE
8
BLACK
6
CONTINUOUS
10
5.98365
20
-4.99917
11
5.98351
21
-4.99734
0
LINE
8
BLACK
6
CONTINUOUS
10
5.98351
20
-4.99734
11
5.98373
21
-4.99552
0
LINE
8
BLACK
6
CONTINUOUS
10
5.98373
20
-4.99552
11
5.9843
21
-4.99378
0
LINE
8
BLACK
6
CONTINUOUS
10
5.9843
20
-4.99378
11
5.9852
21
-4.99218
0
LINE
8
BLACK
6
CONTINUOUS
10
5.9852
20
-4.99218
11
5.99592
21
-4.97686
0
LINE
8
BLACK
6
CONTINUOUS
10
5.99592
20
-4.97686
11
5.99712
21
-4.97547
0
LINE
8
BLACK
6
CONTINUOUS
10
5.99712
20
-4.97547
11
5.99856
21
-4.97434
0
LINE
8
BLACK
6
CONTINUOUS
10
5.99856
20
-4.97434
11
6.00019
21
-4.97351
0
LINE
8
BLACK
6
CONTINUOUS
10
6.00019
20
-4.97351
11
6.00196
21
-4.97302
0
LINE
8
BLACK
6
CONTINUOUS
10
6.00196
20
-4.97302
11
6.00378
21
-4.97288
0
LINE
8
BLACK
6
CONTINUOUS
10
6.00378
20
-4.97288
11
6.0056
21
-4.9731
0
LINE
8
BLACK
6
CONTINUOUS
10
6.30871
20
-4.96304
11
6.31051
21
-4.96342
0
LINE
8
BLACK
6
CONTINUOUS
10
6.31051
20
-4.96342
11
6.31219
21
-4.96414
0
LINE
8
BLACK
6
CONTINUOUS
10
6.31219
20
-4.96414
11
6.3137
21
-4.96518
0
LINE
8
BLACK
6
CONTINUOUS
10
6.3137
20
-4.96518
11
6.32803
21
-4.9772
0
LINE
8
BLACK
6
CONTINUOUS
10
6.32803
20
-4.9772
11
6.32931
21
-4.97851
0
LINE
8
BLACK
6
CONTINUOUS
10
6.32931
20
-4.97851
11
6.33031
21
-4.98004
0
LINE
8
BLACK
6
CONTINUOUS
10
6.33031
20
-4.98004
11
6.331
21
-4.98174
0
LINE
8
BLACK
6
CONTINUOUS
10
6.331
20
-4.98174
11
6.33133
21
-4.98354
0
LINE
8
BLACK
6
CONTINUOUS
10
6.33133
20
-4.98354
11
6.33131
21
-4.98538
0
LINE
8
BLACK
6
CONTINUOUS
10
6.33131
20
-4.98538
11
6.33094
21
-4.98717
0
LINE
8
BLACK
6
CONTINUOUS
10
6.33094
20
-4.98717
11
6.33022
21
-4.98886
0
LINE
8
BLACK
6
CONTINUOUS
10
6.33022
20
-4.98886
11
6.32918
21
-4.99037
0
LINE
8
BLACK
6
CONTINUOUS
10
6.32918
20
-4.99037
11
6.31463
21
-5.00771
0
LINE
8
BLACK
6
CONTINUOUS
10
6.31463
20
-5.00771
11
6.31332
21
-5.00899
0
LINE
8
BLACK
6
CONTINUOUS
10
6.31332
20
-5.00899
11
6.31179
21
-5.00999
0
LINE
8
BLACK
6
CONTINUOUS
10
6.31179
20
-5.00999
11
6.31008
21
-5.01068
0
LINE
8
BLACK
6
CONTINUOUS
10
6.31008
20
-5.01068
11
6.30828
21
-5.01102
0
LINE
8
BLACK
6
CONTINUOUS
10
6.30828
20
-5.01102
11
6.30645
21
-5.011
0
LINE
8
BLACK
6
CONTINUOUS
10
6.30645
20
-5.011
11
6.30466
21
-5.01062
0
LINE
8
BLACK
6
CONTINUOUS
10
6.30466
20
-5.01062
11
6.30297
21
-5.0099
0
LINE
8
BLACK
6
CONTINUOUS
10
6.30297
20
-5.0099
11
6.30146
21
-5.00886
0
LINE
8
BLACK
6
CONTINUOUS
10
6.30146
20
-5.00886
11
6.28713
21
-4.99684
0
LINE
8
BLACK
6
CONTINUOUS
10
6.28713
20
-4.99684
11
6.28585
21
-4.99553
0
LINE
8
BLACK
6
CONTINUOUS
10
6.28585
20
-4.99553
11
6.28485
21
-4.994
0
LINE
8
BLACK
6
CONTINUOUS
10
6.28485
20
-4.994
11
6.28417
21
-4.9923
0
LINE
8
BLACK
6
CONTINUOUS
10
6.28417
20
-4.9923
11
6.28383
21
-4.99049
0
LINE
8
BLACK
6
CONTINUOUS
10
6.28383
20
-4.99049
11
6.28385
21
-4.98866
0
LINE
8
BLACK
6
CONTINUOUS
10
6.28385
20
-4.98866
11
6.28423
21
-4.98687
0
LINE
8
BLACK
6
CONTINUOUS
10
6.28423
20
-4.98687
11
6.28494
21
-4.98518
0
LINE
8
BLACK
6
CONTINUOUS
10
6.28494
20
-4.98518
11
6.28598
21
-4.98367
0
LINE
8
BLACK
6
CONTINUOUS
10
6.28598
20
-4.98367
11
6.30053
21
-4.96633
0
LINE
8
BLACK
6
CONTINUOUS
10
6.30053
20
-4.96633
11
6.30184
21
-4.96505
0
LINE
8
BLACK
6
CONTINUOUS
10
6.30184
20
-4.96505
11
6.30338
21
-4.96404
0
LINE
8
BLACK
6
CONTINUOUS
10
6.30338
20
-4.96404
11
6.30508
21
-4.96336
0
LINE
8
BLACK
6
CONTINUOUS
10
6.30508
20
-4.96336
11
6.30688
21
-4.96302
0
LINE
8
BLACK
6
CONTINUOUS
10
6.30688
20
-4.96302
11
6.30871
21
-4.96304
0
LINE
8
BLACK
6
CONTINUOUS
10
5.71018
20
-4.9452
11
5.66502
21
-5.0097
0
LINE
8
BLACK
6
CONTINUOUS
10
5.66502
20
-5.0097
11
5.63599
21
-4.98938
0
LINE
8
BLACK
6
CONTINUOUS
10
5.63599
20
-4.98938
11
5.68115
21
-4.92488
0
LINE
8
BLACK
6
CONTINUOUS
10
5.68115
20
-4.92488
11
5.71018
21
-4.9452
0
LINE
8
BLACK
6
CONTINUOUS
10
6.19877
20
-4.94014
11
6.20051
21
-4.94071
0
LINE
8
BLACK
6
CONTINUOUS
10
6.20051
20
-4.94071
11
6.2021
21
-4.94161
0
LINE
8
BLACK
6
CONTINUOUS
10
6.2021
20
-4.94161
11
6.21742
21
-4.95234
0
LINE
8
BLACK
6
CONTINUOUS
10
6.21742
20
-4.95234
11
6.21881
21
-4.95353
0
LINE
8
BLACK
6
CONTINUOUS
10
6.21881
20
-4.95353
11
6.21995
21
-4.95497
0
LINE
8
BLACK
6
CONTINUOUS
10
6.21995
20
-4.95497
11
6.22077
21
-4.95661
0
LINE
8
BLACK
6
CONTINUOUS
10
6.22077
20
-4.95661
11
6.22127
21
-4.95837
0
LINE
8
BLACK
6
CONTINUOUS
10
6.22127
20
-4.95837
11
6.22141
21
-4.9602
0
LINE
8
BLACK
6
CONTINUOUS
10
6.22141
20
-4.9602
11
6.22119
21
-4.96202
0
LINE
8
BLACK
6
CONTINUOUS
10
6.22119
20
-4.96202
11
6.22062
21
-4.96376
0
LINE
8
BLACK
6
CONTINUOUS
10
6.22062
20
-4.96376
11
6.21972
21
-4.96536
0
LINE
8
BLACK
6
CONTINUOUS
10
6.21972
20
-4.96536
11
6.20674
21
-4.98391
0
LINE
8
BLACK
6
CONTINUOUS
10
6.20674
20
-4.98391
11
6.20554
21
-4.9853
0
LINE
8
BLACK
6
CONTINUOUS
10
6.20554
20
-4.9853
11
6.2041
21
-4.98643
0
LINE
8
BLACK
6
CONTINUOUS
10
6.2041
20
-4.98643
11
6.20246
21
-4.98726
0
LINE
8
BLACK
6
CONTINUOUS
10
6.20246
20
-4.98726
11
6.2007
21
-4.98775
0
LINE
8
BLACK
6
CONTINUOUS
10
6.2007
20
-4.98775
11
6.19887
21
-4.98789
0
LINE
8
BLACK
6
CONTINUOUS
10
6.19887
20
-4.98789
11
6.19705
21
-4.98767
0
LINE
8
BLACK
6
CONTINUOUS
10
6.19705
20
-4.98767
11
6.19531
21
-4.9871
0
LINE
8
BLACK
6
CONTINUOUS
10
6.19531
20
-4.9871
11
6.19371
21
-4.9862
0
LINE
8
BLACK
6
CONTINUOUS
10
6.19371
20
-4.9862
11
6.17839
21
-4.97548
0
LINE
8
BLACK
6
CONTINUOUS
10
6.17839
20
-4.97548
11
6.177
21
-4.97428
0
LINE
8
BLACK
6
CONTINUOUS
10
6.177
20
-4.97428
11
6.17587
21
-4.97284
0
LINE
8
BLACK
6
CONTINUOUS
10
6.17587
20
-4.97284
11
6.17504
21
-4.9712
0
LINE
8
BLACK
6
CONTINUOUS
10
6.17504
20
-4.9712
11
6.17455
21
-4.96944
0
LINE
8
BLACK
6
CONTINUOUS
10
6.17455
20
-4.96944
11
6.17441
21
-4.96761
0
LINE
8
BLACK
6
CONTINUOUS
10
6.17441
20
-4.96761
11
6.17463
21
-4.96579
0
LINE
8
BLACK
6
CONTINUOUS
10
6.17463
20
-4.96579
11
6.1752
21
-4.96405
0
LINE
8
BLACK
6
CONTINUOUS
10
6.1752
20
-4.96405
11
6.1761
21
-4.96245
0
LINE
8
BLACK
6
CONTINUOUS
10
6.1761
20
-4.96245
11
6.18908
21
-4.94391
0
LINE
8
BLACK
6
CONTINUOUS
10
6.18908
20
-4.94391
11
6.19028
21
-4.94252
0
LINE
8
BLACK
6
CONTINUOUS
10
6.19028
20
-4.94252
11
6.19172
21
-4.94139
0
LINE
8
BLACK
6
CONTINUOUS
10
6.19172
20
-4.94139
11
6.19335
21
-4.94056
0
LINE
8
BLACK
6
CONTINUOUS
10
6.19335
20
-4.94056
11
6.19512
21
-4.94006
0
LINE
8
BLACK
6
CONTINUOUS
10
6.19512
20
-4.94006
11
6.19695
21
-4.93992
0
LINE
8
BLACK
6
CONTINUOUS
10
6.19695
20
-4.93992
11
6.19877
21
-4.94014
0
LINE
8
BLACK
6
CONTINUOUS
10
5.66922
20
-4.91653
11
5.62406
21
-4.98103
0
LINE
8
BLACK
6
CONTINUOUS
10
5.62406
20
-4.98103
11
5.59503
21
-4.9607
0
LINE
8
BLACK
6
CONTINUOUS
10
5.59503
20
-4.9607
11
5.6402
21
-4.8962
0
LINE
8
BLACK
6
CONTINUOUS
10
5.6402
20
-4.8962
11
5.66922
21
-4.91653
0
LINE
8
BLACK
6
CONTINUOUS
10
5.94917
20
-4.93358
11
5.95091
21
-4.93415
0
LINE
8
BLACK
6
CONTINUOUS
10
5.95091
20
-4.93415
11
5.95251
21
-4.93505
0
LINE
8
BLACK
6
CONTINUOUS
10
5.95251
20
-4.93505
11
5.97105
21
-4.94803
0
LINE
8
BLACK
6
CONTINUOUS
10
5.97105
20
-4.94803
11
5.97244
21
-4.94923
0
LINE
8
BLACK
6
CONTINUOUS
10
5.97244
20
-4.94923
11
5.97357
21
-4.95067
0
LINE
8
BLACK
6
CONTINUOUS
10
5.97357
20
-4.95067
11
5.9744
21
-4.9523
0
LINE
8
BLACK
6
CONTINUOUS
10
5.9744
20
-4.9523
11
5.9749
21
-4.95407
0
LINE
8
BLACK
6
CONTINUOUS
10
5.9749
20
-4.95407
11
5.97504
21
-4.9559
0
LINE
8
BLACK
6
CONTINUOUS
10
5.97504
20
-4.9559
11
5.97482
21
-4.95772
0
LINE
8
BLACK
6
CONTINUOUS
10
5.97482
20
-4.95772
11
5.97425
21
-4.95946
0
LINE
8
BLACK
6
CONTINUOUS
10
5.97425
20
-4.95946
11
5.97335
21
-4.96106
0
LINE
8
BLACK
6
CONTINUOUS
10
5.97335
20
-4.96106
11
5.96262
21
-4.97638
0
LINE
8
BLACK
6
CONTINUOUS
10
5.96262
20
-4.97638
11
5.96143
21
-4.97777
0
LINE
8
BLACK
6
CONTINUOUS
10
5.96143
20
-4.97777
11
5.95998
21
-4.9789
0
LINE
8
BLACK
6
CONTINUOUS
10
5.95998
20
-4.9789
11
5.95835
21
-4.97973
0
LINE
8
BLACK
6
CONTINUOUS
10
5.95835
20
-4.97973
11
5.95658
21
-4.98022
0
LINE
8
BLACK
6
CONTINUOUS
10
5.95658
20
-4.98022
11
5.95476
21
-4.98036
0
LINE
8
BLACK
6
CONTINUOUS
10
5.95476
20
-4.98036
11
5.95294
21
-4.98014
0
LINE
8
BLACK
6
CONTINUOUS
10
5.95294
20
-4.98014
11
5.9512
21
-4.97957
0
LINE
8
BLACK
6
CONTINUOUS
10
5.9512
20
-4.97957
11
5.9496
21
-4.97867
0
LINE
8
BLACK
6
CONTINUOUS
10
5.9496
20
-4.97867
11
5.93105
21
-4.96569
0
LINE
8
BLACK
6
CONTINUOUS
10
5.93105
20
-4.96569
11
5.92966
21
-4.96449
0
LINE
8
BLACK
6
CONTINUOUS
10
5.92966
20
-4.96449
11
5.92853
21
-4.96305
0
LINE
8
BLACK
6
CONTINUOUS
10
5.92853
20
-4.96305
11
5.9277
21
-4.96142
0
LINE
8
BLACK
6
CONTINUOUS
10
5.9277
20
-4.96142
11
5.92721
21
-4.95965
0
LINE
8
BLACK
6
CONTINUOUS
10
5.92721
20
-4.95965
11
5.92707
21
-4.95782
0
LINE
8
BLACK
6
CONTINUOUS
10
5.92707
20
-4.95782
11
5.92729
21
-4.956
0
LINE
8
BLACK
6
CONTINUOUS
10
5.92729
20
-4.956
11
5.92786
21
-4.95426
0
LINE
8
BLACK
6
CONTINUOUS
10
5.92786
20
-4.95426
11
5.92876
21
-4.95266
0
LINE
8
BLACK
6
CONTINUOUS
10
5.92876
20
-4.95266
11
5.93948
21
-4.93735
0
LINE
8
BLACK
6
CONTINUOUS
10
5.93948
20
-4.93735
11
5.94068
21
-4.93595
0
LINE
8
BLACK
6
CONTINUOUS
10
5.94068
20
-4.93595
11
5.94212
21
-4.93482
0
LINE
8
BLACK
6
CONTINUOUS
10
5.94212
20
-4.93482
11
5.94375
21
-4.93399
0
LINE
8
BLACK
6
CONTINUOUS
10
5.94375
20
-4.93399
11
5.94552
21
-4.9335
0
LINE
8
BLACK
6
CONTINUOUS
10
5.94552
20
-4.9335
11
5.94735
21
-4.93336
0
LINE
8
BLACK
6
CONTINUOUS
10
5.94735
20
-4.93336
11
5.94917
21
-4.93358
0
LINE
8
BLACK
6
CONTINUOUS
10
5.46409
20
-4.90693
11
5.41893
21
-4.97143
0
LINE
8
BLACK
6
CONTINUOUS
10
5.41893
20
-4.97143
11
5.37055
21
-4.93756
0
LINE
8
BLACK
6
CONTINUOUS
10
5.37055
20
-4.93756
11
5.41572
21
-4.87306
0
LINE
8
BLACK
6
CONTINUOUS
10
5.41572
20
-4.87306
11
5.46409
21
-4.90693
0
LINE
8
BLACK
6
CONTINUOUS
10
5.8516
20
-4.93681
11
5.83127
21
-4.96583
0
LINE
8
BLACK
6
CONTINUOUS
10
5.83127
20
-4.96583
11
5.76677
21
-4.92067
0
LINE
8
BLACK
6
CONTINUOUS
10
5.76677
20
-4.92067
11
5.7871
21
-4.89164
0
LINE
8
BLACK
6
CONTINUOUS
10
5.7871
20
-4.89164
11
5.8516
21
-4.93681
0
LINE
8
BLACK
6
CONTINUOUS
10
6.05192
20
-4.91675
11
6.05367
21
-4.91732
0
LINE
8
BLACK
6
CONTINUOUS
10
6.05367
20
-4.91732
11
6.05526
21
-4.91822
0
LINE
8
BLACK
6
CONTINUOUS
10
6.05526
20
-4.91822
11
6.07381
21
-4.93121
0
LINE
8
BLACK
6
CONTINUOUS
10
6.07381
20
-4.93121
11
6.0752
21
-4.9324
0
LINE
8
BLACK
6
CONTINUOUS
10
6.0752
20
-4.9324
11
6.07633
21
-4.93384
0
LINE
8
BLACK
6
CONTINUOUS
10
6.07633
20
-4.93384
11
6.07716
21
-4.93548
0
LINE
8
BLACK
6
CONTINUOUS
10
6.07716
20
-4.93548
11
6.07765
21
-4.93724
0
LINE
8
BLACK
6
CONTINUOUS
10
6.07765
20
-4.93724
11
6.07779
21
-4.93907
0
LINE
8
BLACK
6
CONTINUOUS
10
6.07779
20
-4.93907
11
6.07757
21
-4.94089
0
LINE
8
BLACK
6
CONTINUOUS
10
6.07757
20
-4.94089
11
6.077
21
-4.94263
0
LINE
8
BLACK
6
CONTINUOUS
10
6.077
20
-4.94263
11
6.0761
21
-4.94423
0
LINE
8
BLACK
6
CONTINUOUS
10
6.0761
20
-4.94423
11
6.06538
21
-4.95955
0
LINE
8
BLACK
6
CONTINUOUS
10
6.06538
20
-4.95955
11
6.06418
21
-4.96094
0
LINE
8
BLACK
6
CONTINUOUS
10
6.06418
20
-4.96094
11
6.06274
21
-4.96207
0
LINE
8
BLACK
6
CONTINUOUS
10
6.06274
20
-4.96207
11
6.06111
21
-4.9629
0
LINE
8
BLACK
6
CONTINUOUS
10
6.06111
20
-4.9629
11
6.05934
21
-4.96339
0
LINE
8
BLACK
6
CONTINUOUS
10
6.05934
20
-4.96339
11
6.05751
21
-4.96353
0
LINE
8
BLACK
6
CONTINUOUS
10
6.05751
20
-4.96353
11
6.05569
21
-4.96331
0
LINE
8
BLACK
6
CONTINUOUS
10
6.05569
20
-4.96331
11
6.05395
21
-4.96274
0
LINE
8
BLACK
6
CONTINUOUS
10
6.05395
20
-4.96274
11
6.05235
21
-4.96185
0
LINE
8
BLACK
6
CONTINUOUS
10
6.05235
20
-4.96185
11
6.03381
21
-4.94886
0
LINE
8
BLACK
6
CONTINUOUS
10
6.03381
20
-4.94886
11
6.03242
21
-4.94767
0
LINE
8
BLACK
6
CONTINUOUS
10
6.03242
20
-4.94767
11
6.03129
21
-4.94623
0
LINE
8
BLACK
6
CONTINUOUS
10
6.03129
20
-4.94623
11
6.03046
21
-4.94459
0
LINE
8
BLACK
6
CONTINUOUS
10
6.03046
20
-4.94459
11
6.02997
21
-4.94283
0
LINE
8
BLACK
6
CONTINUOUS
10
6.02997
20
-4.94283
11
6.02983
21
-4.941
0
LINE
8
BLACK
6
CONTINUOUS
10
6.02983
20
-4.941
11
6.03005
21
-4.93918
0
LINE
8
BLACK
6
CONTINUOUS
10
6.03005
20
-4.93918
11
6.03062
21
-4.93744
0
LINE
8
BLACK
6
CONTINUOUS
10
6.03062
20
-4.93744
11
6.03151
21
-4.93584
0
LINE
8
BLACK
6
CONTINUOUS
10
6.03151
20
-4.93584
11
6.04224
21
-4.92052
0
LINE
8
BLACK
6
CONTINUOUS
10
6.04224
20
-4.92052
11
6.04343
21
-4.91913
0
LINE
8
BLACK
6
CONTINUOUS
10
6.04343
20
-4.91913
11
6.04488
21
-4.918
0
LINE
8
BLACK
6
CONTINUOUS
10
6.04488
20
-4.918
11
6.04651
21
-4.91717
0
LINE
8
BLACK
6
CONTINUOUS
10
6.04651
20
-4.91717
11
6.04828
21
-4.91667
0
LINE
8
BLACK
6
CONTINUOUS
10
6.04828
20
-4.91667
11
6.0501
21
-4.91653
0
LINE
8
BLACK
6
CONTINUOUS
10
6.0501
20
-4.91653
11
6.05192
21
-4.91675
0
LINE
8
BLACK
6
CONTINUOUS
10
6.353
20
-4.91026
11
6.35479
21
-4.91064
0
LINE
8
BLACK
6
CONTINUOUS
10
6.35479
20
-4.91064
11
6.35648
21
-4.91136
0
LINE
8
BLACK
6
CONTINUOUS
10
6.35648
20
-4.91136
11
6.35799
21
-4.9124
0
LINE
8
BLACK
6
CONTINUOUS
10
6.35799
20
-4.9124
11
6.37232
21
-4.92442
0
LINE
8
BLACK
6
CONTINUOUS
10
6.37232
20
-4.92442
11
6.3736
21
-4.92573
0
LINE
8
BLACK
6
CONTINUOUS
10
6.3736
20
-4.92573
11
6.3746
21
-4.92726
0
LINE
8
BLACK
6
CONTINUOUS
10
6.3746
20
-4.92726
11
6.37528
21
-4.92896
0
LINE
8
BLACK
6
CONTINUOUS
10
6.37528
20
-4.92896
11
6.37562
21
-4.93077
0
LINE
8
BLACK
6
CONTINUOUS
10
6.37562
20
-4.93077
11
6.3756
21
-4.9326
0
LINE
8
BLACK
6
CONTINUOUS
10
6.3756
20
-4.9326
11
6.37522
21
-4.93439
0
LINE
8
BLACK
6
CONTINUOUS
10
6.37522
20
-4.93439
11
6.3745
21
-4.93608
0
LINE
8
BLACK
6
CONTINUOUS
10
6.3745
20
-4.93608
11
6.37347
21
-4.93759
0
LINE
8
BLACK
6
CONTINUOUS
10
6.37347
20
-4.93759
11
6.35892
21
-4.95493
0
LINE
8
BLACK
6
CONTINUOUS
10
6.35892
20
-4.95493
11
6.35761
21
-4.95621
0
LINE
8
BLACK
6
CONTINUOUS
10
6.35761
20
-4.95621
11
6.35607
21
-4.95722
0
LINE
8
BLACK
6
CONTINUOUS
10
6.35607
20
-4.95722
11
6.35437
21
-4.9579
0
LINE
8
BLACK
6
CONTINUOUS
10
6.35437
20
-4.9579
11
6.35257
21
-4.95824
0
LINE
8
BLACK
6
CONTINUOUS
10
6.35257
20
-4.95824
11
6.35074
21
-4.95822
0
LINE
8
BLACK
6
CONTINUOUS
10
6.35074
20
-4.95822
11
6.34894
21
-4.95784
0
LINE
8
BLACK
6
CONTINUOUS
10
6.34894
20
-4.95784
11
6.34726
21
-4.95712
0
LINE
8
BLACK
6
CONTINUOUS
10
6.34726
20
-4.95712
11
6.34574
21
-4.95608
0
LINE
8
BLACK
6
CONTINUOUS
10
6.34574
20
-4.95608
11
6.33142
21
-4.94406
0
LINE
8
BLACK
6
CONTINUOUS
10
6.33142
20
-4.94406
11
6.33014
21
-4.94275
0
LINE
8
BLACK
6
CONTINUOUS
10
6.33014
20
-4.94275
11
6.32914
21
-4.94122
0
LINE
8
BLACK
6
CONTINUOUS
10
6.32914
20
-4.94122
11
6.32845
21
-4.93952
0
LINE
8
BLACK
6
CONTINUOUS
10
6.32845
20
-4.93952
11
6.32811
21
-4.93772
0
LINE
8
BLACK
6
CONTINUOUS
10
6.32811
20
-4.93772
11
6.32813
21
-4.93588
0
LINE
8
BLACK
6
CONTINUOUS
10
6.32813
20
-4.93588
11
6.32851
21
-4.93409
0
LINE
8
BLACK
6
CONTINUOUS
10
6.32851
20
-4.93409
11
6.32923
21
-4.9324
0
LINE
8
BLACK
6
CONTINUOUS
10
6.32923
20
-4.9324
11
6.33027
21
-4.93089
0
LINE
8
BLACK
6
CONTINUOUS
10
6.33027
20
-4.93089
11
6.34482
21
-4.91355
0
LINE
8
BLACK
6
CONTINUOUS
10
6.34482
20
-4.91355
11
6.34613
21
-4.91227
0
LINE
8
BLACK
6
CONTINUOUS
10
6.34613
20
-4.91227
11
6.34766
21
-4.91127
0
LINE
8
BLACK
6
CONTINUOUS
10
6.34766
20
-4.91127
11
6.34936
21
-4.91058
0
LINE
8
BLACK
6
CONTINUOUS
10
6.34936
20
-4.91058
11
6.35117
21
-4.91024
0
LINE
8
BLACK
6
CONTINUOUS
10
6.35117
20
-4.91024
11
6.353
21
-4.91026
0
LINE
8
BLACK
6
CONTINUOUS
10
5.62826
20
-4.88785
11
5.5831
21
-4.95235
0
LINE
8
BLACK
6
CONTINUOUS
10
5.5831
20
-4.95235
11
5.55408
21
-4.93202
0
LINE
8
BLACK
6
CONTINUOUS
10
5.55408
20
-4.93202
11
5.59924
21
-4.86752
0
LINE
8
BLACK
6
CONTINUOUS
10
5.59924
20
-4.86752
11
5.62826
21
-4.88785
0
LINE
8
BLACK
6
CONTINUOUS
10
5.88027
20
-4.89585
11
5.85995
21
-4.92487
0
LINE
8
BLACK
6
CONTINUOUS
10
5.85995
20
-4.92487
11
5.79545
21
-4.87971
0
LINE
8
BLACK
6
CONTINUOUS
10
5.79545
20
-4.87971
11
5.81577
21
-4.85068
0
LINE
8
BLACK
6
CONTINUOUS
10
5.81577
20
-4.85068
11
5.88027
21
-4.89585
0
LINE
8
BLACK
6
CONTINUOUS
10
5.99549
20
-4.87724
11
5.99723
21
-4.87781
0
LINE
8
BLACK
6
CONTINUOUS
10
5.99723
20
-4.87781
11
5.99883
21
-4.87871
0
LINE
8
BLACK
6
CONTINUOUS
10
5.99883
20
-4.87871
11
6.01737
21
-4.89169
0
LINE
8
BLACK
6
CONTINUOUS
10
6.01737
20
-4.89169
11
6.01876
21
-4.89288
0
LINE
8
BLACK
6
CONTINUOUS
10
6.01876
20
-4.89288
11
6.01989
21
-4.89433
0
LINE
8
BLACK
6
CONTINUOUS
10
6.01989
20
-4.89433
11
6.02072
21
-4.89596
0
LINE
8
BLACK
6
CONTINUOUS
10
6.02072
20
-4.89596
11
6.02122
21
-4.89773
0
LINE
8
BLACK
6
CONTINUOUS
10
6.02122
20
-4.89773
11
6.02135
21
-4.89955
0
LINE
8
BLACK
6
CONTINUOUS
10
6.02135
20
-4.89955
11
6.02114
21
-4.90137
0
LINE
8
BLACK
6
CONTINUOUS
10
6.02114
20
-4.90137
11
6.02057
21
-4.90312
0
LINE
8
BLACK
6
CONTINUOUS
10
6.02057
20
-4.90312
11
6.01967
21
-4.90471
0
LINE
8
BLACK
6
CONTINUOUS
10
6.01967
20
-4.90471
11
6.00894
21
-4.92003
0
LINE
8
BLACK
6
CONTINUOUS
10
6.00894
20
-4.92003
11
6.00775
21
-4.92142
0
LINE
8
BLACK
6
CONTINUOUS
10
6.00775
20
-4.92142
11
6.0063
21
-4.92255
0
LINE
8
BLACK
6
CONTINUOUS
10
6.0063
20
-4.92255
11
6.00467
21
-4.92338
0
LINE
8
BLACK
6
CONTINUOUS
10
6.00467
20
-4.92338
11
6.0029
21
-4.92388
0
LINE
8
BLACK
6
CONTINUOUS
10
6.0029
20
-4.92388
11
6.00108
21
-4.92402
0
LINE
8
BLACK
6
CONTINUOUS
10
6.00108
20
-4.92402
11
5.99926
21
-4.9238
0
LINE
8
BLACK
6
CONTINUOUS
10
5.99926
20
-4.9238
11
5.99751
21
-4.92323
0
LINE
8
BLACK
6
CONTINUOUS
10
5.99751
20
-4.92323
11
5.99592
21
-4.92233
0
LINE
8
BLACK
6
CONTINUOUS
10
5.99592
20
-4.92233
11
5.97737
21
-4.90934
0
LINE
8
BLACK
6
CONTINUOUS
10
5.97737
20
-4.90934
11
5.97598
21
-4.90815
0
LINE
8
BLACK
6
CONTINUOUS
10
5.97598
20
-4.90815
11
5.97485
21
-4.90671
0
LINE
8
BLACK
6
CONTINUOUS
10
5.97485
20
-4.90671
11
5.97402
21
-4.90507
0
LINE
8
BLACK
6
CONTINUOUS
10
5.97402
20
-4.90507
11
5.97353
21
-4.90331
0
LINE
8
BLACK
6
CONTINUOUS
10
5.97353
20
-4.90331
11
5.97339
21
-4.90148
0
LINE
8
BLACK
6
CONTINUOUS
10
5.97339
20
-4.90148
11
5.97361
21
-4.89966
0
LINE
8
BLACK
6
CONTINUOUS
10
5.97361
20
-4.89966
11
5.97418
21
-4.89792
0
LINE
8
BLACK
6
CONTINUOUS
10
5.97418
20
-4.89792
11
5.97508
21
-4.89632
0
LINE
8
BLACK
6
CONTINUOUS
10
5.97508
20
-4.89632
11
5.9858
21
-4.881
0
LINE
8
BLACK
6
CONTINUOUS
10
5.9858
20
-4.881
11
5.987
21
-4.87961
0
LINE
8
BLACK
6
CONTINUOUS
10
5.987
20
-4.87961
11
5.98844
21
-4.87848
0
LINE
8
BLACK
6
CONTINUOUS
10
5.98844
20
-4.87848
11
5.99007
21
-4.87765
0
LINE
8
BLACK
6
CONTINUOUS
10
5.99007
20
-4.87765
11
5.99184
21
-4.87716
0
LINE
8
BLACK
6
CONTINUOUS
10
5.99184
20
-4.87716
11
5.99367
21
-4.87702
0
LINE
8
BLACK
6
CONTINUOUS
10
5.99367
20
-4.87702
11
5.99549
21
-4.87724
0
LINE
8
BLACK
6
CONTINUOUS
10
5.58731
20
-4.85917
11
5.54214
21
-4.92367
0
LINE
8
BLACK
6
CONTINUOUS
10
5.54214
20
-4.92367
11
5.51312
21
-4.90334
0
LINE
8
BLACK
6
CONTINUOUS
10
5.51312
20
-4.90334
11
5.55828
21
-4.83884
0
LINE
8
BLACK
6
CONTINUOUS
10
5.55828
20
-4.83884
11
5.58731
21
-4.85917
0
LINE
8
BLACK
6
CONTINUOUS
10
6.0748
20
-4.84841
11
6.07654
21
-4.84898
0
LINE
8
BLACK
6
CONTINUOUS
10
6.07654
20
-4.84898
11
6.07814
21
-4.84988
0
LINE
8
BLACK
6
CONTINUOUS
10
6.07814
20
-4.84988
11
6.09668
21
-4.86287
0
LINE
8
BLACK
6
CONTINUOUS
10
6.09668
20
-4.86287
11
6.09807
21
-4.86406
0
LINE
8
BLACK
6
CONTINUOUS
10
6.09807
20
-4.86406
11
6.0992
21
-4.8655
0
LINE
8
BLACK
6
CONTINUOUS
10
6.0992
20
-4.8655
11
6.10003
21
-4.86714
0
LINE
8
BLACK
6
CONTINUOUS
10
6.10003
20
-4.86714
11
6.10053
21
-4.8689
0
LINE
8
BLACK
6
CONTINUOUS
10
6.10053
20
-4.8689
11
6.10067
21
-4.87073
0
LINE
8
BLACK
6
CONTINUOUS
10
6.10067
20
-4.87073
11
6.10045
21
-4.87255
0
LINE
8
BLACK
6
CONTINUOUS
10
6.10045
20
-4.87255
11
6.09988
21
-4.87429
0
LINE
8
BLACK
6
CONTINUOUS
10
6.09988
20
-4.87429
11
6.09898
21
-4.87589
0
LINE
8
BLACK
6
CONTINUOUS
10
6.09898
20
-4.87589
11
6.08825
21
-4.89121
0
LINE
8
BLACK
6
CONTINUOUS
10
6.08825
20
-4.89121
11
6.08706
21
-4.8926
0
LINE
8
BLACK
6
CONTINUOUS
10
6.08706
20
-4.8926
11
6.08562
21
-4.89373
0
LINE
8
BLACK
6
CONTINUOUS
10
6.08562
20
-4.89373
11
6.08398
21
-4.89456
0
LINE
8
BLACK
6
CONTINUOUS
10
6.08398
20
-4.89456
11
6.08222
21
-4.89505
0
LINE
8
BLACK
6
CONTINUOUS
10
6.08222
20
-4.89505
11
6.08039
21
-4.89519
0
LINE
8
BLACK
6
CONTINUOUS
10
6.08039
20
-4.89519
11
6.07857
21
-4.89497
0
LINE
8
BLACK
6
CONTINUOUS
10
6.07857
20
-4.89497
11
6.07683
21
-4.8944
0
LINE
8
BLACK
6
CONTINUOUS
10
6.07683
20
-4.8944
11
6.07523
21
-4.8935
0
LINE
8
BLACK
6
CONTINUOUS
10
6.07523
20
-4.8935
11
6.05669
21
-4.88052
0
LINE
8
BLACK
6
CONTINUOUS
10
6.05669
20
-4.88052
11
6.05529
21
-4.87933
0
LINE
8
BLACK
6
CONTINUOUS
10
6.05529
20
-4.87933
11
6.05416
21
-4.87788
0
LINE
8
BLACK
6
CONTINUOUS
10
6.05416
20
-4.87788
11
6.05333
21
-4.87625
0
LINE
8
BLACK
6
CONTINUOUS
10
6.05333
20
-4.87625
11
6.05284
21
-4.87448
0
LINE
8
BLACK
6
CONTINUOUS
10
6.05284
20
-4.87448
11
6.0527
21
-4.87266
0
LINE
8
BLACK
6
CONTINUOUS
10
6.0527
20
-4.87266
11
6.05292
21
-4.87084
0
LINE
8
BLACK
6
CONTINUOUS
10
6.05292
20
-4.87084
11
6.05349
21
-4.86909
0
LINE
8
BLACK
6
CONTINUOUS
10
6.05349
20
-4.86909
11
6.05439
21
-4.8675
0
LINE
8
BLACK
6
CONTINUOUS
10
6.05439
20
-4.8675
11
6.06512
21
-4.85218
0
LINE
8
BLACK
6
CONTINUOUS
10
6.06512
20
-4.85218
11
6.06631
21
-4.85079
0
LINE
8
BLACK
6
CONTINUOUS
10
6.06631
20
-4.85079
11
6.06775
21
-4.84965
0
LINE
8
BLACK
6
CONTINUOUS
10
6.06775
20
-4.84965
11
6.06939
21
-4.84883
0
LINE
8
BLACK
6
CONTINUOUS
10
6.06939
20
-4.84883
11
6.07115
21
-4.84833
0
LINE
8
BLACK
6
CONTINUOUS
10
6.07115
20
-4.84833
11
6.07298
21
-4.84819
0
LINE
8
BLACK
6
CONTINUOUS
10
6.07298
20
-4.84819
11
6.0748
21
-4.84841
0
LINE
8
BLACK
6
CONTINUOUS
10
5.54635
20
-4.83049
11
5.50119
21
-4.89499
0
LINE
8
BLACK
6
CONTINUOUS
10
5.50119
20
-4.89499
11
5.47216
21
-4.87467
0
LINE
8
BLACK
6
CONTINUOUS
10
5.47216
20
-4.87467
11
5.51732
21
-4.81017
0
LINE
8
BLACK
6
CONTINUOUS
10
5.51732
20
-4.81017
11
5.54635
21
-4.83049
0
LINE
8
BLACK
6
CONTINUOUS
10
5.90895
20
-4.85489
11
5.88863
21
-4.88392
0
LINE
8
BLACK
6
CONTINUOUS
10
5.88863
20
-4.88392
11
5.82413
21
-4.83875
0
LINE
8
BLACK
6
CONTINUOUS
10
5.82413
20
-4.83875
11
5.84445
21
-4.80973
0
LINE
8
BLACK
6
CONTINUOUS
10
5.84445
20
-4.80973
11
5.90895
21
-4.85489
0
LINE
8
BLACK
6
CONTINUOUS
10
5.1622
20
-4.82237
11
5.16394
21
-4.82294
0
LINE
8
BLACK
6
CONTINUOUS
10
5.16394
20
-4.82294
11
5.16554
21
-4.82384
0
LINE
8
BLACK
6
CONTINUOUS
10
5.16554
20
-4.82384
11
5.18086
21
-4.83456
0
LINE
8
BLACK
6
CONTINUOUS
10
5.18086
20
-4.83456
11
5.18225
21
-4.83576
0
LINE
8
BLACK
6
CONTINUOUS
10
5.18225
20
-4.83576
11
5.18338
21
-4.8372
0
LINE
8
BLACK
6
CONTINUOUS
10
5.18338
20
-4.8372
11
5.18421
21
-4.83883
0
LINE
8
BLACK
6
CONTINUOUS
10
5.18421
20
-4.83883
11
5.1847
21
-4.8406
0
LINE
8
BLACK
6
CONTINUOUS
10
5.1847
20
-4.8406
11
5.18484
21
-4.84243
0
LINE
8
BLACK
6
CONTINUOUS
10
5.18484
20
-4.84243
11
5.18462
21
-4.84425
0
LINE
8
BLACK
6
CONTINUOUS
10
5.18462
20
-4.84425
11
5.18405
21
-4.84599
0
LINE
8
BLACK
6
CONTINUOUS
10
5.18405
20
-4.84599
11
5.18315
21
-4.84759
0
LINE
8
BLACK
6
CONTINUOUS
10
5.18315
20
-4.84759
11
5.17017
21
-4.86613
0
LINE
8
BLACK
6
CONTINUOUS
10
5.17017
20
-4.86613
11
5.16898
21
-4.86752
0
LINE
8
BLACK
6
CONTINUOUS
10
5.16898
20
-4.86752
11
5.16753
21
-4.86865
0
LINE
8
BLACK
6
CONTINUOUS
10
5.16753
20
-4.86865
11
5.1659
21
-4.86948
0
LINE
8
BLACK
6
CONTINUOUS
10
5.1659
20
-4.86948
11
5.16413
21
-4.86998
0
LINE
8
BLACK
6
CONTINUOUS
10
5.16413
20
-4.86998
11
5.16231
21
-4.87012
0
LINE
8
BLACK
6
CONTINUOUS
10
5.16231
20
-4.87012
11
5.16049
21
-4.8699
0
LINE
8
BLACK
6
CONTINUOUS
10
5.16049
20
-4.8699
11
5.15874
21
-4.86933
0
LINE
8
BLACK
6
CONTINUOUS
10
5.15874
20
-4.86933
11
5.15715
21
-4.86843
0
LINE
8
BLACK
6
CONTINUOUS
10
5.15715
20
-4.86843
11
5.14183
21
-4.8577
0
LINE
8
BLACK
6
CONTINUOUS
10
5.14183
20
-4.8577
11
5.14044
21
-4.85651
0
LINE
8
BLACK
6
CONTINUOUS
10
5.14044
20
-4.85651
11
5.13931
21
-4.85506
0
LINE
8
BLACK
6
CONTINUOUS
10
5.13931
20
-4.85506
11
5.13848
21
-4.85343
0
LINE
8
BLACK
6
CONTINUOUS
10
5.13848
20
-4.85343
11
5.13798
21
-4.85166
0
LINE
8
BLACK
6
CONTINUOUS
10
5.13798
20
-4.85166
11
5.13784
21
-4.84984
0
LINE
8
BLACK
6
CONTINUOUS
10
5.13784
20
-4.84984
11
5.13806
21
-4.84802
0
LINE
8
BLACK
6
CONTINUOUS
10
5.13806
20
-4.84802
11
5.13863
21
-4.84628
0
LINE
8
BLACK
6
CONTINUOUS
10
5.13863
20
-4.84628
11
5.13953
21
-4.84468
0
LINE
8
BLACK
6
CONTINUOUS
10
5.13953
20
-4.84468
11
5.15252
21
-4.82613
0
LINE
8
BLACK
6
CONTINUOUS
10
5.15252
20
-4.82613
11
5.15371
21
-4.82474
0
LINE
8
BLACK
6
CONTINUOUS
10
5.15371
20
-4.82474
11
5.15515
21
-4.82361
0
LINE
8
BLACK
6
CONTINUOUS
10
5.15515
20
-4.82361
11
5.15679
21
-4.82278
0
LINE
8
BLACK
6
CONTINUOUS
10
5.15679
20
-4.82278
11
5.15855
21
-4.82229
0
LINE
8
BLACK
6
CONTINUOUS
10
5.15855
20
-4.82229
11
5.16038
21
-4.82215
0
LINE
8
BLACK
6
CONTINUOUS
10
5.16038
20
-4.82215
11
5.1622
21
-4.82237
0
LINE
8
BLACK
6
CONTINUOUS
10
5.50539
20
-4.80181
11
5.46023
21
-4.86631
0
LINE
8
BLACK
6
CONTINUOUS
10
5.46023
20
-4.86631
11
5.4312
21
-4.84599
0
LINE
8
BLACK
6
CONTINUOUS
10
5.4312
20
-4.84599
11
5.47637
21
-4.78149
0
LINE
8
BLACK
6
CONTINUOUS
10
5.47637
20
-4.78149
11
5.50539
21
-4.80181
0
LINE
8
BLACK
6
CONTINUOUS
10
6.01836
20
-4.80889
11
6.0201
21
-4.80946
0
LINE
8
BLACK
6
CONTINUOUS
10
6.0201
20
-4.80946
11
6.0217
21
-4.81036
0
LINE
8
BLACK
6
CONTINUOUS
10
6.0217
20
-4.81036
11
6.04024
21
-4.82335
0
LINE
8
BLACK
6
CONTINUOUS
10
6.04024
20
-4.82335
11
6.04164
21
-4.82454
0
LINE
8
BLACK
6
CONTINUOUS
10
6.04164
20
-4.82454
11
6.04277
21
-4.82598
0
LINE
8
BLACK
6
CONTINUOUS
10
6.04277
20
-4.82598
11
6.0436
21
-4.82762
0
LINE
8
BLACK
6
CONTINUOUS
10
6.0436
20
-4.82762
11
6.04409
21
-4.82938
0
LINE
8
BLACK
6
CONTINUOUS
10
6.04409
20
-4.82938
11
6.04423
21
-4.83121
0
LINE
8
BLACK
6
CONTINUOUS
10
6.04423
20
-4.83121
11
6.04401
21
-4.83303
0
LINE
8
BLACK
6
CONTINUOUS
10
6.04401
20
-4.83303
11
6.04344
21
-4.83477
0
LINE
8
BLACK
6
CONTINUOUS
10
6.04344
20
-4.83477
11
6.04254
21
-4.83637
0
LINE
8
BLACK
6
CONTINUOUS
10
6.04254
20
-4.83637
11
6.03181
21
-4.85169
0
LINE
8
BLACK
6
CONTINUOUS
10
6.03181
20
-4.85169
11
6.03062
21
-4.85308
0
LINE
8
BLACK
6
CONTINUOUS
10
6.03062
20
-4.85308
11
6.02918
21
-4.85421
0
LINE
8
BLACK
6
CONTINUOUS
10
6.02918
20
-4.85421
11
6.02754
21
-4.85504
0
LINE
8
BLACK
6
CONTINUOUS
10
6.02754
20
-4.85504
11
6.02578
21
-4.85553
0
LINE
8
BLACK
6
CONTINUOUS
10
6.02578
20
-4.85553
11
6.02395
21
-4.85567
0
LINE
8
BLACK
6
CONTINUOUS
10
6.02395
20
-4.85567
11
6.02213
21
-4.85545
0
LINE
8
BLACK
6
CONTINUOUS
10
6.02213
20
-4.85545
11
6.02039
21
-4.85488
0
LINE
8
BLACK
6
CONTINUOUS
10
6.02039
20
-4.85488
11
6.01879
21
-4.85399
0
LINE
8
BLACK
6
CONTINUOUS
10
6.01879
20
-4.85399
11
6.00025
21
-4.841
0
LINE
8
BLACK
6
CONTINUOUS
10
6.00025
20
-4.841
11
5.99886
21
-4.83981
0
LINE
8
BLACK
6
CONTINUOUS
10
5.99886
20
-4.83981
11
5.99772
21
-4.83837
0
LINE
8
BLACK
6
CONTINUOUS
10
5.99772
20
-4.83837
11
5.9969
21
-4.83673
0
LINE
8
BLACK
6
CONTINUOUS
10
5.9969
20
-4.83673
11
5.9964
21
-4.83497
0
LINE
8
BLACK
6
CONTINUOUS
10
5.9964
20
-4.83497
11
5.99626
21
-4.83314
0
LINE
8
BLACK
6
CONTINUOUS
10
5.99626
20
-4.83314
11
5.99648
21
-4.83132
0
LINE
8
BLACK
6
CONTINUOUS
10
5.99648
20
-4.83132
11
5.99705
21
-4.82958
0
LINE
8
BLACK
6
CONTINUOUS
10
5.99705
20
-4.82958
11
5.99795
21
-4.82798
0
LINE
8
BLACK
6
CONTINUOUS
10
5.99795
20
-4.82798
11
6.00868
21
-4.81266
0
LINE
8
BLACK
6
CONTINUOUS
10
6.00868
20
-4.81266
11
6.00987
21
-4.81127
0
LINE
8
BLACK
6
CONTINUOUS
10
6.00987
20
-4.81127
11
6.01131
21
-4.81014
0
LINE
8
BLACK
6
CONTINUOUS
10
6.01131
20
-4.81014
11
6.01295
21
-4.80931
0
LINE
8
BLACK
6
CONTINUOUS
10
6.01295
20
-4.80931
11
6.01471
21
-4.80881
0
LINE
8
BLACK
6
CONTINUOUS
10
6.01471
20
-4.80881
11
6.01654
21
-4.80867
0
LINE
8
BLACK
6
CONTINUOUS
10
6.01654
20
-4.80867
11
6.01836
21
-4.80889
0
LINE
8
BLACK
6
CONTINUOUS
10
5.93763
20
-4.81393
11
5.91731
21
-4.84296
0
LINE
8
BLACK
6
CONTINUOUS
10
5.91731
20
-4.84296
11
5.85281
21
-4.79779
0
LINE
8
BLACK
6
CONTINUOUS
10
5.85281
20
-4.79779
11
5.87313
21
-4.76877
0
LINE
8
BLACK
6
CONTINUOUS
10
5.87313
20
-4.76877
11
5.93763
21
-4.81393
0
LINE
8
BLACK
6
CONTINUOUS
10
5.46443
20
-4.77313
11
5.41927
21
-4.83763
0
LINE
8
BLACK
6
CONTINUOUS
10
5.41927
20
-4.83763
11
5.39025
21
-4.81731
0
LINE
8
BLACK
6
CONTINUOUS
10
5.39025
20
-4.81731
11
5.43541
21
-4.75281
0
LINE
8
BLACK
6
CONTINUOUS
10
5.43541
20
-4.75281
11
5.46443
21
-4.77313
0
LINE
8
BLACK
6
CONTINUOUS
10
5.20172
20
-4.76593
11
5.20346
21
-4.7665
0
LINE
8
BLACK
6
CONTINUOUS
10
5.20346
20
-4.7665
11
5.20506
21
-4.7674
0
LINE
8
BLACK
6
CONTINUOUS
10
5.20506
20
-4.7674
11
5.22038
21
-4.77813
0
LINE
8
BLACK
6
CONTINUOUS
10
5.22038
20
-4.77813
11
5.22177
21
-4.77932
0
LINE
8
BLACK
6
CONTINUOUS
10
5.22177
20
-4.77932
11
5.2229
21
-4.78076
0
LINE
8
BLACK
6
CONTINUOUS
10
5.2229
20
-4.78076
11
5.22373
21
-4.7824
0
LINE
8
BLACK
6
CONTINUOUS
10
5.22373
20
-4.7824
11
5.22422
21
-4.78416
0
LINE
8
BLACK
6
CONTINUOUS
10
5.22422
20
-4.78416
11
5.22436
21
-4.78599
0
LINE
8
BLACK
6
CONTINUOUS
10
5.22436
20
-4.78599
11
5.22414
21
-4.78781
0
LINE
8
BLACK
6
CONTINUOUS
10
5.22414
20
-4.78781
11
5.22357
21
-4.78955
0
LINE
8
BLACK
6
CONTINUOUS
10
5.22357
20
-4.78955
11
5.22267
21
-4.79115
0
LINE
8
BLACK
6
CONTINUOUS
10
5.22267
20
-4.79115
11
5.20969
21
-4.80969
0
LINE
8
BLACK
6
CONTINUOUS
10
5.20969
20
-4.80969
11
5.20849
21
-4.81108
0
LINE
8
BLACK
6
CONTINUOUS
10
5.20849
20
-4.81108
11
5.20705
21
-4.81222
0
LINE
8
BLACK
6
CONTINUOUS
10
5.20705
20
-4.81222
11
5.20542
21
-4.81304
0
LINE
8
BLACK
6
CONTINUOUS
10
5.20542
20
-4.81304
11
5.20365
21
-4.81354
0
LINE
8
BLACK
6
CONTINUOUS
10
5.20365
20
-4.81354
11
5.20182
21
-4.81368
0
LINE
8
BLACK
6
CONTINUOUS
10
5.20182
20
-4.81368
11
5.2
21
-4.81346
0
LINE
8
BLACK
6
CONTINUOUS
10
5.2
20
-4.81346
11
5.19826
21
-4.81289
0
LINE
8
BLACK
6
CONTINUOUS
10
5.19826
20
-4.81289
11
5.19667
21
-4.81199
0
LINE
8
BLACK
6
CONTINUOUS
10
5.19667
20
-4.81199
11
5.18135
21
-4.80126
0
LINE
8
BLACK
6
CONTINUOUS
10
5.18135
20
-4.80126
11
5.17996
21
-4.80007
0
LINE
8
BLACK
6
CONTINUOUS
10
5.17996
20
-4.80007
11
5.17882
21
-4.79863
0
LINE
8
BLACK
6
CONTINUOUS
10
5.17882
20
-4.79863
11
5.178
21
-4.79699
0
LINE
8
BLACK
6
CONTINUOUS
10
5.178
20
-4.79699
11
5.1775
21
-4.79523
0
LINE
8
BLACK
6
CONTINUOUS
10
5.1775
20
-4.79523
11
5.17736
21
-4.7934
0
LINE
8
BLACK
6
CONTINUOUS
10
5.17736
20
-4.7934
11
5.17758
21
-4.79158
0
LINE
8
BLACK
6
CONTINUOUS
10
5.17758
20
-4.79158
11
5.17815
21
-4.78984
0
LINE
8
BLACK
6
CONTINUOUS
10
5.17815
20
-4.78984
11
5.17905
21
-4.78824
0
LINE
8
BLACK
6
CONTINUOUS
10
5.17905
20
-4.78824
11
5.19203
21
-4.7697
0
LINE
8
BLACK
6
CONTINUOUS
10
5.19203
20
-4.7697
11
5.19323
21
-4.76831
0
LINE
8
BLACK
6
CONTINUOUS
10
5.19323
20
-4.76831
11
5.19467
21
-4.76717
0
LINE
8
BLACK
6
CONTINUOUS
10
5.19467
20
-4.76717
11
5.19631
21
-4.76634
0
LINE
8
BLACK
6
CONTINUOUS
10
5.19631
20
-4.76634
11
5.19807
21
-4.76585
0
LINE
8
BLACK
6
CONTINUOUS
10
5.19807
20
-4.76585
11
5.1999
21
-4.76571
0
LINE
8
BLACK
6
CONTINUOUS
10
5.1999
20
-4.76571
11
5.20172
21
-4.76593
0
LINE
8
BLACK
6
CONTINUOUS
10
6.16846
20
-4.78696
11
6.15039
21
-4.81276
0
LINE
8
BLACK
6
CONTINUOUS
10
6.15039
20
-4.81276
11
6.12137
21
-4.79244
0
LINE
8
BLACK
6
CONTINUOUS
10
6.12137
20
-4.79244
11
6.13943
21
-4.76664
0
LINE
8
BLACK
6
CONTINUOUS
10
6.13943
20
-4.76664
11
6.16846
21
-4.78696
0
LINE
8
BLACK
6
CONTINUOUS
10
5.42348
20
-4.74445
11
5.37831
21
-4.80895
0
LINE
8
BLACK
6
CONTINUOUS
10
5.37831
20
-4.80895
11
5.34929
21
-4.78863
0
LINE
8
BLACK
6
CONTINUOUS
10
5.34929
20
-4.78863
11
5.39445
21
-4.72413
0
LINE
8
BLACK
6
CONTINUOUS
10
5.39445
20
-4.72413
11
5.42348
21
-4.74445
0
LINE
8
BLACK
6
CONTINUOUS
10
6.67684
20
-4.72709
11
6.66317
21
-4.80463
0
LINE
8
BLACK
6
CONTINUOUS
10
6.66317
20
-4.80463
11
6.51584
21
-4.77865
0
LINE
8
BLACK
6
CONTINUOUS
10
6.51584
20
-4.77865
11
6.52951
21
-4.70111
0
LINE
8
BLACK
6
CONTINUOUS
10
6.52951
20
-4.70111
11
6.67684
21
-4.72709
0
LINE
8
BLACK
6
CONTINUOUS
10
5.96631
20
-4.77298
11
5.94599
21
-4.802
0
LINE
8
BLACK
6
CONTINUOUS
10
5.94599
20
-4.802
11
5.88149
21
-4.75684
0
LINE
8
BLACK
6
CONTINUOUS
10
5.88149
20
-4.75684
11
5.90181
21
-4.72781
0
LINE
8
BLACK
6
CONTINUOUS
10
5.90181
20
-4.72781
11
5.96631
21
-4.77298
0
LINE
8
BLACK
6
CONTINUOUS
10
6.0825
20
-4.77243
11
6.06444
21
-4.79823
0
LINE
8
BLACK
6
CONTINUOUS
10
6.06444
20
-4.79823
11
6.03541
21
-4.77791
0
LINE
8
BLACK
6
CONTINUOUS
10
6.03541
20
-4.77791
11
6.05348
21
-4.75211
0
LINE
8
BLACK
6
CONTINUOUS
10
6.05348
20
-4.75211
11
6.0825
21
-4.77243
0
LINE
8
BLACK
6
CONTINUOUS
10
5.1451
20
-4.72003
11
5.14694
21
-4.72063
0
LINE
8
BLACK
6
CONTINUOUS
10
5.14694
20
-4.72063
11
5.14862
21
-4.72158
0
LINE
8
BLACK
6
CONTINUOUS
10
5.14862
20
-4.72158
11
5.16958
21
-4.73626
0
LINE
8
BLACK
6
CONTINUOUS
10
5.16958
20
-4.73626
11
5.17105
21
-4.73751
0
LINE
8
BLACK
6
CONTINUOUS
10
5.17105
20
-4.73751
11
5.17224
21
-4.73903
0
LINE
8
BLACK
6
CONTINUOUS
10
5.17224
20
-4.73903
11
5.17311
21
-4.74075
0
LINE
8
BLACK
6
CONTINUOUS
10
5.17311
20
-4.74075
11
5.17363
21
-4.74261
0
LINE
8
BLACK
6
CONTINUOUS
10
5.17363
20
-4.74261
11
5.17378
21
-4.74453
0
LINE
8
BLACK
6
CONTINUOUS
10
5.17378
20
-4.74453
11
5.17354
21
-4.74645
0
LINE
8
BLACK
6
CONTINUOUS
10
5.17354
20
-4.74645
11
5.17294
21
-4.74828
0
LINE
8
BLACK
6
CONTINUOUS
10
5.17294
20
-4.74828
11
5.172
21
-4.74996
0
LINE
8
BLACK
6
CONTINUOUS
10
5.172
20
-4.74996
11
5.15167
21
-4.77899
0
LINE
8
BLACK
6
CONTINUOUS
10
5.15167
20
-4.77899
11
5.15042
21
-4.78045
0
LINE
8
BLACK
6
CONTINUOUS
10
5.15042
20
-4.78045
11
5.1489
21
-4.78165
0
LINE
8
BLACK
6
CONTINUOUS
10
5.1489
20
-4.78165
11
5.14718
21
-4.78252
0
LINE
8
BLACK
6
CONTINUOUS
10
5.14718
20
-4.78252
11
5.14532
21
-4.78304
0
LINE
8
BLACK
6
CONTINUOUS
10
5.14532
20
-4.78304
11
5.1434
21
-4.78318
0
LINE
8
BLACK
6
CONTINUOUS
10
5.1434
20
-4.78318
11
5.14148
21
-4.78295
0
LINE
8
BLACK
6
CONTINUOUS
10
5.14148
20
-4.78295
11
5.13965
21
-4.78235
0
LINE
8
BLACK
6
CONTINUOUS
10
5.13965
20
-4.78235
11
5.13797
21
-4.78141
0
LINE
8
BLACK
6
CONTINUOUS
10
5.13797
20
-4.78141
11
5.117
21
-4.76673
0
LINE
8
BLACK
6
CONTINUOUS
10
5.117
20
-4.76673
11
5.11554
21
-4.76547
0
LINE
8
BLACK
6
CONTINUOUS
10
5.11554
20
-4.76547
11
5.11435
21
-4.76395
0
LINE
8
BLACK
6
CONTINUOUS
10
5.11435
20
-4.76395
11
5.11348
21
-4.76223
0
LINE
8
BLACK
6
CONTINUOUS
10
5.11348
20
-4.76223
11
5.11296
21
-4.76038
0
LINE
8
BLACK
6
CONTINUOUS
10
5.11296
20
-4.76038
11
5.11281
21
-4.75845
0
LINE
8
BLACK
6
CONTINUOUS
10
5.11281
20
-4.75845
11
5.11304
21
-4.75654
0
LINE
8
BLACK
6
CONTINUOUS
10
5.11304
20
-4.75654
11
5.11364
21
-4.7547
0
LINE
8
BLACK
6
CONTINUOUS
10
5.11364
20
-4.7547
11
5.11459
21
-4.75302
0
LINE
8
BLACK
6
CONTINUOUS
10
5.11459
20
-4.75302
11
5.13491
21
-4.724
0
LINE
8
BLACK
6
CONTINUOUS
10
5.13491
20
-4.724
11
5.13617
21
-4.72253
0
LINE
8
BLACK
6
CONTINUOUS
10
5.13617
20
-4.72253
11
5.13768
21
-4.72134
0
LINE
8
BLACK
6
CONTINUOUS
10
5.13768
20
-4.72134
11
5.13941
21
-4.72047
0
LINE
8
BLACK
6
CONTINUOUS
10
5.13941
20
-4.72047
11
5.14126
21
-4.71995
0
LINE
8
BLACK
6
CONTINUOUS
10
5.14126
20
-4.71995
11
5.14319
21
-4.7198
0
LINE
8
BLACK
6
CONTINUOUS
10
5.14319
20
-4.7198
11
5.1451
21
-4.72003
0
LINE
8
BLACK
6
CONTINUOUS
10
5.38252
20
-4.71577
11
5.33736
21
-4.78027
0
LINE
8
BLACK
6
CONTINUOUS
10
5.33736
20
-4.78027
11
5.30833
21
-4.75995
0
LINE
8
BLACK
6
CONTINUOUS
10
5.30833
20
-4.75995
11
5.35349
21
-4.69545
0
LINE
8
BLACK
6
CONTINUOUS
10
5.35349
20
-4.69545
11
5.38252
21
-4.71577
0
LINE
8
BLACK
6
CONTINUOUS
10
5.99499
20
-4.73202
11
5.97467
21
-4.76104
0
LINE
8
BLACK
6
CONTINUOUS
10
5.97467
20
-4.76104
11
5.91017
21
-4.71588
0
LINE
8
BLACK
6
CONTINUOUS
10
5.91017
20
-4.71588
11
5.93049
21
-4.68685
0
LINE
8
BLACK
6
CONTINUOUS
10
5.93049
20
-4.68685
11
5.99499
21
-4.73202
0
LINE
8
BLACK
6
CONTINUOUS
10
5.34156
20
-4.68709
11
5.2964
21
-4.75159
0
LINE
8
BLACK
6
CONTINUOUS
10
5.2964
20
-4.75159
11
5.26737
21
-4.73127
0
LINE
8
BLACK
6
CONTINUOUS
10
5.26737
20
-4.73127
11
5.31254
21
-4.66677
0
LINE
8
BLACK
6
CONTINUOUS
10
5.31254
20
-4.66677
11
5.34156
21
-4.68709
0
LINE
8
BLACK
6
CONTINUOUS
10
6.12541
20
-4.71116
11
6.10734
21
-4.73696
0
LINE
8
BLACK
6
CONTINUOUS
10
6.10734
20
-4.73696
11
6.07832
21
-4.71664
0
LINE
8
BLACK
6
CONTINUOUS
10
6.07832
20
-4.71664
11
6.09638
21
-4.69084
0
LINE
8
BLACK
6
CONTINUOUS
10
6.09638
20
-4.69084
11
6.12541
21
-4.71116
0
LINE
8
BLACK
6
CONTINUOUS
10
5.07899
20
-4.67374
11
5.08082
21
-4.67434
0
LINE
8
BLACK
6
CONTINUOUS
10
5.08082
20
-4.67434
11
5.08251
21
-4.67529
0
LINE
8
BLACK
6
CONTINUOUS
10
5.08251
20
-4.67529
11
5.10347
21
-4.68996
0
LINE
8
BLACK
6
CONTINUOUS
10
5.10347
20
-4.68996
11
5.10493
21
-4.69122
0
LINE
8
BLACK
6
CONTINUOUS
10
5.10493
20
-4.69122
11
5.10612
21
-4.69274
0
LINE
8
BLACK
6
CONTINUOUS
10
5.10612
20
-4.69274
11
5.107
21
-4.69446
0
LINE
8
BLACK
6
CONTINUOUS
10
5.107
20
-4.69446
11
5.10752
21
-4.69632
0
LINE
8
BLACK
6
CONTINUOUS
10
5.10752
20
-4.69632
11
5.10766
21
-4.69824
0
LINE
8
BLACK
6
CONTINUOUS
10
5.10766
20
-4.69824
11
5.10743
21
-4.70016
0
LINE
8
BLACK
6
CONTINUOUS
10
5.10743
20
-4.70016
11
5.10683
21
-4.70199
0
LINE
8
BLACK
6
CONTINUOUS
10
5.10683
20
-4.70199
11
5.10589
21
-4.70367
0
LINE
8
BLACK
6
CONTINUOUS
10
5.10589
20
-4.70367
11
5.08556
21
-4.7327
0
LINE
8
BLACK
6
CONTINUOUS
10
5.08556
20
-4.7327
11
5.08431
21
-4.73416
0
LINE
8
BLACK
6
CONTINUOUS
10
5.08431
20
-4.73416
11
5.08279
21
-4.73535
0
LINE
8
BLACK
6
CONTINUOUS
10
5.08279
20
-4.73535
11
5.08107
21
-4.73623
0
LINE
8
BLACK
6
CONTINUOUS
10
5.08107
20
-4.73623
11
5.07921
21
-4.73674
0
LINE
8
BLACK
6
CONTINUOUS
10
5.07921
20
-4.73674
11
5.07728
21
-4.73689
0
LINE
8
BLACK
6
CONTINUOUS
10
5.07728
20
-4.73689
11
5.07537
21
-4.73666
0
LINE
8
BLACK
6
CONTINUOUS
10
5.07537
20
-4.73666
11
5.07354
21
-4.73606
0
LINE
8
BLACK
6
CONTINUOUS
10
5.07354
20
-4.73606
11
5.07185
21
-4.73511
0
LINE
8
BLACK
6
CONTINUOUS
10
5.07185
20
-4.73511
11
5.05089
21
-4.72044
0
LINE
8
BLACK
6
CONTINUOUS
10
5.05089
20
-4.72044
11
5.04943
21
-4.71918
0
LINE
8
BLACK
6
CONTINUOUS
10
5.04943
20
-4.71918
11
5.04824
21
-4.71766
0
LINE
8
BLACK
6
CONTINUOUS
10
5.04824
20
-4.71766
11
5.04736
21
-4.71594
0
LINE
8
BLACK
6
CONTINUOUS
10
5.04736
20
-4.71594
11
5.04684
21
-4.71408
0
LINE
8
BLACK
6
CONTINUOUS
10
5.04684
20
-4.71408
11
5.0467
21
-4.71216
0
LINE
8
BLACK
6
CONTINUOUS
10
5.0467
20
-4.71216
11
5.04693
21
-4.71024
0
LINE
8
BLACK
6
CONTINUOUS
10
5.04693
20
-4.71024
11
5.04753
21
-4.70841
0
LINE
8
BLACK
6
CONTINUOUS
10
5.04753
20
-4.70841
11
5.04847
21
-4.70673
0
LINE
8
BLACK
6
CONTINUOUS
10
5.04847
20
-4.70673
11
5.0688
21
-4.6777
0
LINE
8
BLACK
6
CONTINUOUS
10
5.0688
20
-4.6777
11
5.07005
21
-4.67624
0
LINE
8
BLACK
6
CONTINUOUS
10
5.07005
20
-4.67624
11
5.07157
21
-4.67505
0
LINE
8
BLACK
6
CONTINUOUS
10
5.07157
20
-4.67505
11
5.07329
21
-4.67418
0
LINE
8
BLACK
6
CONTINUOUS
10
5.07329
20
-4.67418
11
5.07515
21
-4.67366
0
LINE
8
BLACK
6
CONTINUOUS
10
5.07515
20
-4.67366
11
5.07708
21
-4.67351
0
LINE
8
BLACK
6
CONTINUOUS
10
5.07708
20
-4.67351
11
5.07899
21
-4.67374
0
LINE
8
BLACK
6
CONTINUOUS
10
5.3006
20
-4.65842
11
5.25544
21
-4.72292
0
LINE
8
BLACK
6
CONTINUOUS
10
5.25544
20
-4.72292
11
5.22642
21
-4.70259
0
LINE
8
BLACK
6
CONTINUOUS
10
5.22642
20
-4.70259
11
5.27158
21
-4.63809
0
LINE
8
BLACK
6
CONTINUOUS
10
5.27158
20
-4.63809
11
5.3006
21
-4.65842
0
LINE
8
BLACK
6
CONTINUOUS
10
6.19593
20
-4.6737
11
6.19768
21
-4.67427
0
LINE
8
BLACK
6
CONTINUOUS
10
6.19768
20
-4.67427
11
6.19927
21
-4.67517
0
LINE
8
BLACK
6
CONTINUOUS
10
6.19927
20
-4.67517
11
6.21782
21
-4.68815
0
LINE
8
BLACK
6
CONTINUOUS
10
6.21782
20
-4.68815
11
6.21921
21
-4.68934
0
LINE
8
BLACK
6
CONTINUOUS
10
6.21921
20
-4.68934
11
6.22034
21
-4.69079
0
LINE
8
BLACK
6
CONTINUOUS
10
6.22034
20
-4.69079
11
6.22117
21
-4.69242
0
LINE
8
BLACK
6
CONTINUOUS
10
6.22117
20
-4.69242
11
6.22166
21
-4.69419
0
LINE
8
BLACK
6
CONTINUOUS
10
6.22166
20
-4.69419
11
6.2218
21
-4.69601
0
LINE
8
BLACK
6
CONTINUOUS
10
6.2218
20
-4.69601
11
6.22158
21
-4.69783
0
LINE
8
BLACK
6
CONTINUOUS
10
6.22158
20
-4.69783
11
6.22101
21
-4.69958
0
LINE
8
BLACK
6
CONTINUOUS
10
6.22101
20
-4.69958
11
6.22011
21
-4.70117
0
LINE
8
BLACK
6
CONTINUOUS
10
6.22011
20
-4.70117
11
6.20939
21
-4.71649
0
LINE
8
BLACK
6
CONTINUOUS
10
6.20939
20
-4.71649
11
6.20819
21
-4.71788
0
LINE
8
BLACK
6
CONTINUOUS
10
6.20819
20
-4.71788
11
6.20675
21
-4.71902
0
LINE
8
BLACK
6
CONTINUOUS
10
6.20675
20
-4.71902
11
6.20512
21
-4.71984
0
LINE
8
BLACK
6
CONTINUOUS
10
6.20512
20
-4.71984
11
6.20335
21
-4.72034
0
LINE
8
BLACK
6
CONTINUOUS
10
6.20335
20
-4.72034
11
6.20152
21
-4.72048
0
LINE
8
BLACK
6
CONTINUOUS
10
6.20152
20
-4.72048
11
6.1997
21
-4.72026
0
LINE
8
BLACK
6
CONTINUOUS
10
6.1997
20
-4.72026
11
6.19796
21
-4.71969
0
LINE
8
BLACK
6
CONTINUOUS
10
6.19796
20
-4.71969
11
6.19636
21
-4.71879
0
LINE
8
BLACK
6
CONTINUOUS
10
6.19636
20
-4.71879
11
6.17782
21
-4.7058
0
LINE
8
BLACK
6
CONTINUOUS
10
6.17782
20
-4.7058
11
6.17643
21
-4.70461
0
LINE
8
BLACK
6
CONTINUOUS
10
6.17643
20
-4.70461
11
6.1753
21
-4.70317
0
LINE
8
BLACK
6
CONTINUOUS
10
6.1753
20
-4.70317
11
6.17447
21
-4.70153
0
LINE
8
BLACK
6
CONTINUOUS
10
6.17447
20
-4.70153
11
6.17398
21
-4.69977
0
LINE
8
BLACK
6
CONTINUOUS
10
6.17398
20
-4.69977
11
6.17384
21
-4.69794
0
LINE
8
BLACK
6
CONTINUOUS
10
6.17384
20
-4.69794
11
6.17405
21
-4.69612
0
LINE
8
BLACK
6
CONTINUOUS
10
6.17405
20
-4.69612
11
6.17462
21
-4.69438
0
LINE
8
BLACK
6
CONTINUOUS
10
6.17462
20
-4.69438
11
6.17552
21
-4.69278
0
LINE
8
BLACK
6
CONTINUOUS
10
6.17552
20
-4.69278
11
6.18625
21
-4.67746
0
LINE
8
BLACK
6
CONTINUOUS
10
6.18625
20
-4.67746
11
6.18744
21
-4.67607
0
LINE
8
BLACK
6
CONTINUOUS
10
6.18744
20
-4.67607
11
6.18889
21
-4.67494
0
LINE
8
BLACK
6
CONTINUOUS
10
6.18889
20
-4.67494
11
6.19052
21
-4.67411
0
LINE
8
BLACK
6
CONTINUOUS
10
6.19052
20
-4.67411
11
6.19229
21
-4.67362
0
LINE
8
BLACK
6
CONTINUOUS
10
6.19229
20
-4.67362
11
6.19411
21
-4.67348
0
LINE
8
BLACK
6
CONTINUOUS
10
6.19411
20
-4.67348
11
6.19593
21
-4.6737
0
LINE
8
BLACK
6
CONTINUOUS
10
6.02367
20
-4.69106
11
6.00334
21
-4.72009
0
LINE
8
BLACK
6
CONTINUOUS
10
6.00334
20
-4.72009
11
5.93884
21
-4.67492
0
LINE
8
BLACK
6
CONTINUOUS
10
5.93884
20
-4.67492
11
5.95917
21
-4.6459
0
LINE
8
BLACK
6
CONTINUOUS
10
5.95917
20
-4.6459
11
6.02367
21
-4.69106
0
LINE
8
BLACK
6
CONTINUOUS
10
5.25965
20
-4.62974
11
5.21448
21
-4.69424
0
LINE
8
BLACK
6
CONTINUOUS
10
5.21448
20
-4.69424
11
5.18546
21
-4.67391
0
LINE
8
BLACK
6
CONTINUOUS
10
5.18546
20
-4.67391
11
5.23062
21
-4.60941
0
LINE
8
BLACK
6
CONTINUOUS
10
5.23062
20
-4.60941
11
5.25965
21
-4.62974
0
LINE
8
BLACK
6
CONTINUOUS
10
5.72991
20
-4.52646
11
5.617
21
-4.68771
0
LINE
8
BLACK
6
CONTINUOUS
10
5.617
20
-4.68771
11
5.45575
21
-4.5748
0
LINE
8
BLACK
6
CONTINUOUS
10
5.45575
20
-4.5748
11
5.56866
21
-4.41355
0
LINE
8
BLACK
6
CONTINUOUS
10
5.56866
20
-4.41355
11
5.72991
21
-4.52646
0
LINE
8
BLACK
6
CONTINUOUS
10
6.1395
20
-4.63418
11
6.14124
21
-4.63475
0
LINE
8
BLACK
6
CONTINUOUS
10
6.14124
20
-4.63475
11
6.14284
21
-4.63565
0
LINE
8
BLACK
6
CONTINUOUS
10
6.14284
20
-4.63565
11
6.16138
21
-4.64863
0
LINE
8
BLACK
6
CONTINUOUS
10
6.16138
20
-4.64863
11
6.16277
21
-4.64983
0
LINE
8
BLACK
6
CONTINUOUS
10
6.16277
20
-4.64983
11
6.1639
21
-4.65127
0
LINE
8
BLACK
6
CONTINUOUS
10
6.1639
20
-4.65127
11
6.16473
21
-4.6529
0
LINE
8
BLACK
6
CONTINUOUS
10
6.16473
20
-4.6529
11
6.16522
21
-4.65467
0
LINE
8
BLACK
6
CONTINUOUS
10
6.16522
20
-4.65467
11
6.16536
21
-4.6565
0
LINE
8
BLACK
6
CONTINUOUS
10
6.16536
20
-4.6565
11
6.16514
21
-4.65832
0
LINE
8
BLACK
6
CONTINUOUS
10
6.16514
20
-4.65832
11
6.16457
21
-4.66006
0
LINE
8
BLACK
6
CONTINUOUS
10
6.16457
20
-4.66006
11
6.16368
21
-4.66166
0
LINE
8
BLACK
6
CONTINUOUS
10
6.16368
20
-4.66166
11
6.15295
21
-4.67697
0
LINE
8
BLACK
6
CONTINUOUS
10
6.15295
20
-4.67697
11
6.15176
21
-4.67837
0
LINE
8
BLACK
6
CONTINUOUS
10
6.15176
20
-4.67837
11
6.15031
21
-4.6795
0
LINE
8
BLACK
6
CONTINUOUS
10
6.15031
20
-4.6795
11
6.14868
21
-4.68033
0
LINE
8
BLACK
6
CONTINUOUS
10
6.14868
20
-4.68033
11
6.14691
21
-4.68082
0
LINE
8
BLACK
6
CONTINUOUS
10
6.14691
20
-4.68082
11
6.14509
21
-4.68096
0
LINE
8
BLACK
6
CONTINUOUS
10
6.14509
20
-4.68096
11
6.14327
21
-4.68074
0
LINE
8
BLACK
6
CONTINUOUS
10
6.14327
20
-4.68074
11
6.14152
21
-4.68017
0
LINE
8
BLACK
6
CONTINUOUS
10
6.14152
20
-4.68017
11
6.13993
21
-4.67927
0
LINE
8
BLACK
6
CONTINUOUS
10
6.13993
20
-4.67927
11
6.12138
21
-4.66629
0
LINE
8
BLACK
6
CONTINUOUS
10
6.12138
20
-4.66629
11
6.11999
21
-4.66509
0
LINE
8
BLACK
6
CONTINUOUS
10
6.11999
20
-4.66509
11
6.11886
21
-4.66365
0
LINE
8
BLACK
6
CONTINUOUS
10
6.11886
20
-4.66365
11
6.11803
21
-4.66202
0
LINE
8
BLACK
6
CONTINUOUS
10
6.11803
20
-4.66202
11
6.11754
21
-4.66025
0
LINE
8
BLACK
6
CONTINUOUS
10
6.11754
20
-4.66025
11
6.1174
21
-4.65842
0
LINE
8
BLACK
6
CONTINUOUS
10
6.1174
20
-4.65842
11
6.11762
21
-4.6566
0
LINE
8
BLACK
6
CONTINUOUS
10
6.11762
20
-4.6566
11
6.11819
21
-4.65486
0
LINE
8
BLACK
6
CONTINUOUS
10
6.11819
20
-4.65486
11
6.11909
21
-4.65326
0
LINE
8
BLACK
6
CONTINUOUS
10
6.11909
20
-4.65326
11
6.12981
21
-4.63794
0
LINE
8
BLACK
6
CONTINUOUS
10
6.12981
20
-4.63794
11
6.13101
21
-4.63655
0
LINE
8
BLACK
6
CONTINUOUS
10
6.13101
20
-4.63655
11
6.13245
21
-4.63542
0
LINE
8
BLACK
6
CONTINUOUS
10
6.13245
20
-4.63542
11
6.13408
21
-4.63459
0
LINE
8
BLACK
6
CONTINUOUS
10
6.13408
20
-4.63459
11
6.13585
21
-4.6341
0
LINE
8
BLACK
6
CONTINUOUS
10
6.13585
20
-4.6341
11
6.13768
21
-4.63396
0
LINE
8
BLACK
6
CONTINUOUS
10
6.13768
20
-4.63396
11
6.1395
21
-4.63418
0
LINE
8
BLACK
6
CONTINUOUS
10
6.05235
20
-4.6501
11
6.03202
21
-4.67913
0
LINE
8
BLACK
6
CONTINUOUS
10
6.03202
20
-4.67913
11
5.96752
21
-4.63396
0
LINE
8
BLACK
6
CONTINUOUS
10
5.96752
20
-4.63396
11
5.98785
21
-4.60494
0
LINE
8
BLACK
6
CONTINUOUS
10
5.98785
20
-4.60494
11
6.05235
21
-4.6501
0
LINE
8
BLACK
6
CONTINUOUS
10
5.21869
20
-4.60106
11
5.17353
21
-4.66556
0
LINE
8
BLACK
6
CONTINUOUS
10
5.17353
20
-4.66556
11
5.1445
21
-4.64523
0
LINE
8
BLACK
6
CONTINUOUS
10
5.1445
20
-4.64523
11
5.18966
21
-4.58073
0
LINE
8
BLACK
6
CONTINUOUS
10
5.18966
20
-4.58073
11
5.21869
21
-4.60106
0
LINE
8
BLACK
6
CONTINUOUS
10
6.08103
20
-4.60914
11
6.0607
21
-4.63817
0
LINE
8
BLACK
6
CONTINUOUS
10
6.0607
20
-4.63817
11
5.9962
21
-4.59301
0
LINE
8
BLACK
6
CONTINUOUS
10
5.9962
20
-4.59301
11
6.01653
21
-4.56398
0
LINE
8
BLACK
6
CONTINUOUS
10
6.01653
20
-4.56398
11
6.08103
21
-4.60914
0
LINE
8
BLACK
6
CONTINUOUS
10
6.1097
20
-4.56819
11
6.08938
21
-4.59721
0
LINE
8
BLACK
6
CONTINUOUS
10
6.08938
20
-4.59721
11
6.02488
21
-4.55205
0
LINE
8
BLACK
6
CONTINUOUS
10
6.02488
20
-4.55205
11
6.0452
21
-4.52302
0
LINE
8
BLACK
6
CONTINUOUS
10
6.0452
20
-4.52302
11
6.1097
21
-4.56819
0
LINE
8
BLACK
6
CONTINUOUS
10
6.13503
20
-4.42563
11
6.08986
21
-4.49013
0
LINE
8
BLACK
6
CONTINUOUS
10
6.08986
20
-4.49013
11
6.06084
21
-4.46981
0
LINE
8
BLACK
6
CONTINUOUS
10
6.06084
20
-4.46981
11
6.106
21
-4.40531
0
LINE
8
BLACK
6
CONTINUOUS
10
6.106
20
-4.40531
11
6.13503
21
-4.42563
0
LINE
8
BLACK
6
CONTINUOUS
10
6.09407
20
-4.39695
11
6.04891
21
-4.46145
0
LINE
8
BLACK
6
CONTINUOUS
10
6.04891
20
-4.46145
11
6.01988
21
-4.44113
0
LINE
8
BLACK
6
CONTINUOUS
10
6.01988
20
-4.44113
11
6.06504
21
-4.37663
0
LINE
8
BLACK
6
CONTINUOUS
10
6.06504
20
-4.37663
11
6.09407
21
-4.39695
0
LINE
8
BLACK
6
CONTINUOUS
10
6.05311
20
-4.36827
11
6.00795
21
-4.43277
0
LINE
8
BLACK
6
CONTINUOUS
10
6.00795
20
-4.43277
11
5.97892
21
-4.41245
0
LINE
8
BLACK
6
CONTINUOUS
10
5.97892
20
-4.41245
11
6.02409
21
-4.34795
0
LINE
8
BLACK
6
CONTINUOUS
10
6.02409
20
-4.34795
11
6.05311
21
-4.36827
0
LINE
8
BLACK
6
CONTINUOUS
10
6.01215
20
-4.33959
11
5.96699
21
-4.4041
0
LINE
8
BLACK
6
CONTINUOUS
10
5.96699
20
-4.4041
11
5.93797
21
-4.38377
0
LINE
8
BLACK
6
CONTINUOUS
10
5.93797
20
-4.38377
11
5.98313
21
-4.31927
0
LINE
8
BLACK
6
CONTINUOUS
10
5.98313
20
-4.31927
11
6.01215
21
-4.33959
0
LINE
8
BLACK
6
CONTINUOUS
10
5.9712
20
-4.31092
11
5.92603
21
-4.37542
0
LINE
8
BLACK
6
CONTINUOUS
10
5.92603
20
-4.37542
11
5.89701
21
-4.35509
0
LINE
8
BLACK
6
CONTINUOUS
10
5.89701
20
-4.35509
11
5.94217
21
-4.29059
0
LINE
8
BLACK
6
CONTINUOUS
10
5.94217
20
-4.29059
11
5.9712
21
-4.31092
0
LINE
8
BLACK
6
CONTINUOUS
10
5.93024
20
-4.28224
11
5.88508
21
-4.34674
0
LINE
8
BLACK
6
CONTINUOUS
10
5.88508
20
-4.34674
11
5.85605
21
-4.32641
0
LINE
8
BLACK
6
CONTINUOUS
10
5.85605
20
-4.32641
11
5.90121
21
-4.26191
0
LINE
8
BLACK
6
CONTINUOUS
10
5.90121
20
-4.26191
11
5.93024
21
-4.28224
0
LINE
8
BLACK
6
CONTINUOUS
10
5.88928
20
-4.25356
11
5.84412
21
-4.31806
0
LINE
8
BLACK
6
CONTINUOUS
10
5.84412
20
-4.31806
11
5.81509
21
-4.29774
0
LINE
8
BLACK
6
CONTINUOUS
10
5.81509
20
-4.29774
11
5.86026
21
-4.23323
0
LINE
8
BLACK
6
CONTINUOUS
10
5.86026
20
-4.23323
11
5.88928
21
-4.25356
0
LINE
8
BLACK
6
CONTINUOUS
10
5.84832
20
-4.22488
11
5.80316
21
-4.28938
0
LINE
8
BLACK
6
CONTINUOUS
10
5.80316
20
-4.28938
11
5.77414
21
-4.26906
0
LINE
8
BLACK
6
CONTINUOUS
10
5.77414
20
-4.26906
11
5.8193
21
-4.20456
0
LINE
8
BLACK
6
CONTINUOUS
10
5.8193
20
-4.20456
11
5.84832
21
-4.22488
0
LINE
8
BLACK
6
CONTINUOUS
10
5.80737
20
-4.1962
11
5.7622
21
-4.2607
0
LINE
8
BLACK
6
CONTINUOUS
10
5.7622
20
-4.2607
11
5.73318
21
-4.24038
0
LINE
8
BLACK
6
CONTINUOUS
10
5.73318
20
-4.24038
11
5.77834
21
-4.17588
0
LINE
8
BLACK
6
CONTINUOUS
10
5.77834
20
-4.17588
11
5.80737
21
-4.1962
0
LINE
8
BLACK
6
CONTINUOUS
10
5.76641
20
-4.16752
11
5.72125
21
-4.23202
0
LINE
8
BLACK
6
CONTINUOUS
10
5.72125
20
-4.23202
11
5.69222
21
-4.2117
0
LINE
8
BLACK
6
CONTINUOUS
10
5.69222
20
-4.2117
11
5.73738
21
-4.1472
0
LINE
8
BLACK
6
CONTINUOUS
10
5.73738
20
-4.1472
11
5.76641
21
-4.16752
0
LINE
8
BLACK
6
CONTINUOUS
10
5.72545
20
-4.13884
11
5.68029
21
-4.20334
0
LINE
8
BLACK
6
CONTINUOUS
10
5.68029
20
-4.20334
11
5.65126
21
-4.18302
0
LINE
8
BLACK
6
CONTINUOUS
10
5.65126
20
-4.18302
11
5.69643
21
-4.11852
0
LINE
8
BLACK
6
CONTINUOUS
10
5.69643
20
-4.11852
11
5.72545
21
-4.13884
0
LINE
8
BLACK
6
CONTINUOUS
10
5.68449
20
-4.11016
11
5.63933
21
-4.17466
0
LINE
8
BLACK
6
CONTINUOUS
10
5.63933
20
-4.17466
11
5.61031
21
-4.15434
0
LINE
8
BLACK
6
CONTINUOUS
10
5.61031
20
-4.15434
11
5.65547
21
-4.08984
0
LINE
8
BLACK
6
CONTINUOUS
10
5.65547
20
-4.08984
11
5.68449
21
-4.11016
0
LINE
8
BLACK
6
CONTINUOUS
10
5.64354
20
-4.08149
11
5.59837
21
-4.14599
0
LINE
8
BLACK
6
CONTINUOUS
10
5.59837
20
-4.14599
11
5.56935
21
-4.12566
0
LINE
8
BLACK
6
CONTINUOUS
10
5.56935
20
-4.12566
11
5.61451
21
-4.06116
0
LINE
8
BLACK
6
CONTINUOUS
10
5.61451
20
-4.06116
11
5.64354
21
-4.08149
0
LINE
8
BLACK
6
CONTINUOUS
10
5.60258
20
-4.05281
11
5.55742
21
-4.11731
0
LINE
8
BLACK
6
CONTINUOUS
10
5.55742
20
-4.11731
11
5.52839
21
-4.09698
0
LINE
8
BLACK
6
CONTINUOUS
10
5.52839
20
-4.09698
11
5.57355
21
-4.03248
0
LINE
8
BLACK
6
CONTINUOUS
10
5.57355
20
-4.03248
11
5.60258
21
-4.05281
  0
ENDSEC
  0
EOF
