M48
; DRILL file {KiCad (5.1.4-0-10_14)} date 2020 April 14, Tuesday 14:45:07
; FORMAT={-:-/ absolute / inch / decimal}
; #@! TF.CreationDate,2020-04-14T14:45:07+02:00
; #@! TF.GenerationSoftware,Kicad,Pcbnew,(5.1.4-0-10_14)
; #@! TF.FileFunction,Plated,1,2,PTH
FMAT,2
INCH
T1C0.0157
T2C0.0295
T3C0.0315
T4C0.0354
T5C0.0394
T6C0.0433
T7C0.0709
%
G90
G05
T1
X5.0858Y-4.4063
X5.3079Y-4.9772
X5.3173Y-4.9335
X5.3366Y-4.8551
X5.3791Y-4.8638
X5.5972Y-5.2449
X5.6122Y-3.998
X5.6606Y-4.0252
X5.7008Y-4.0531
X5.724Y-5.1791
X5.8205Y-5.7087
X5.8421Y-5.5996
X5.8705Y-4.9909
X5.9504Y-4.8661
X5.9539Y-5.552
X5.9724Y-4.2209
X5.9831Y-5.5154
X6.0157Y-4.2787
X6.0974Y-5.3795
X6.0994Y-5.6482
X6.1319Y-5.3061
X6.1417Y-5.1663
X6.1654Y-5.0876
X6.2425Y-5.0205
X6.3177Y-4.8287
X6.3299Y-5.485
X6.3559Y-5.5272
X6.3843Y-5.5681
X6.3953Y-3.9661
X6.587Y-5.1142
X6.7921Y-4.524
T2
X6.562Y-4.375
X6.6396Y-4.3613
X6.4596Y-4.5709
X6.4733Y-4.6484
T3
X6.1983Y-4.3332
X6.334Y-4.3093
T5
X5.8307Y-3.7815
X6.0276Y-3.7815
X5.6801Y-3.8287
X5.7224Y-3.9194
T6
X6.7975Y-5.0354
X6.82Y-4.938
X6.8425Y-4.8406
T7
X6.3789Y-5.1978
X6.546Y-5.3649
X5.2651Y-5.3649
X5.4321Y-5.1978
T4
G00X5.1412Y-5.3134
M15
G01X5.1746Y-5.28
M16
G05
G00X5.2303Y-5.2243
M15
G01X5.2637Y-5.1909
M16
G05
G00X5.3166Y-5.4887
M15
G01X5.35Y-5.4553
M16
G05
G00X5.3277Y-5.1268
M15
G01X5.3611Y-5.0934
M16
G05
G00X5.5031Y-5.3022
M15
G01X5.5365Y-5.2688
M16
G05
G00X6.3079Y-5.3022
M15
G01X6.2745Y-5.2688
M16
G05
G00X6.4054Y-5.3997
M15
G01X6.372Y-5.3663
M16
G05
G00X6.4833Y-5.1268
M15
G01X6.4499Y-5.0934
M16
G05
G00X6.4945Y-5.4887
M15
G01X6.4611Y-5.4553
M16
G05
G00X6.6699Y-5.3134
M15
G01X6.6364Y-5.28
M16
G05
T0
M30
