  0
SECTION
  2
HEADER
  9
$ANGBASE
  50
0.0
  9
$ANGDIR
  70
1
  9
$MEASUREMENT
  70
0
  0
ENDSEC
  0
SECTION
  2
TABLES
  0
TABLE
  2
LTYPE
  70
4
  0
LTYPE
  5
40F
  2
CONTINUOUS
  70
0
  3
Solid line
  72
65
  73
0
  40
0.0
  0
LTYPE
  5
410
  2
DASHDOT
 70
0
  3
Dash Dot ____ _ ____ _
 72
65
 73
4
 40
2.0
 49
1.25
 49
-0.25
 49
0.25
 49
-0.25
  0
LTYPE
  5
411
  2
DASHED
 70
0
  3
Dashed __ __ __ __ __
 72
65
 73
2
 40
0.75
 49
0.5
 49
-0.25
  0
LTYPE
  5
43B
  2
DOTTED
 70
0
  3
Dotted .  .  .  .
 72
65
 73
2
 40
0.2
 49
0.0
 49
-0.2
  0
ENDTAB
  0
TABLE
  2
STYLE
  70
4
  0
STYLE
  2
KICAD
  70
0
  40
0
  41
1
  42
1
  50
0
  71
0
  3
isocp.shx
  0
STYLE
  2
KICADB
  70
0
  40
0
  41
1
  42
1
  50
0
  71
0
  3
isocp.shx
  0
STYLE
  2
KICADI
  70
0
  40
0
  41
1
  42
1
  50
15
  71
0
  3
isocp.shx
  0
STYLE
  2
KICADBI
  70
0
  40
0
  41
1
  42
1
  50
15
  71
0
  3
isocp.shx
  0
ENDTAB
  0
TABLE
  2
LAYER
  70
1
  0
LAYER
  2
BLACK
  70
0
  62
7
  6
CONTINUOUS
  0
ENDTAB
  0
ENDSEC
  0
SECTION
  2
ENTITIES
0
LINE
8
BLACK
6
CONTINUOUS
10
5.89615
20
-5.66672
11
5.89801
21
-5.66724
0
LINE
8
BLACK
6
CONTINUOUS
10
5.89801
20
-5.66724
11
5.89973
21
-5.66811
0
LINE
8
BLACK
6
CONTINUOUS
10
5.89973
20
-5.66811
11
5.90125
21
-5.6693
0
LINE
8
BLACK
6
CONTINUOUS
10
5.90125
20
-5.6693
11
5.90251
21
-5.67076
0
LINE
8
BLACK
6
CONTINUOUS
10
5.90251
20
-5.67076
11
5.92283
21
-5.69979
0
LINE
8
BLACK
6
CONTINUOUS
10
5.92283
20
-5.69979
11
5.92378
21
-5.70147
0
LINE
8
BLACK
6
CONTINUOUS
10
5.92378
20
-5.70147
11
5.92438
21
-5.7033
0
LINE
8
BLACK
6
CONTINUOUS
10
5.92438
20
-5.7033
11
5.92461
21
-5.70522
0
LINE
8
BLACK
6
CONTINUOUS
10
5.92461
20
-5.70522
11
5.92446
21
-5.70714
0
LINE
8
BLACK
6
CONTINUOUS
10
5.92446
20
-5.70714
11
5.92394
21
-5.709
0
LINE
8
BLACK
6
CONTINUOUS
10
5.92394
20
-5.709
11
5.92307
21
-5.71072
0
LINE
8
BLACK
6
CONTINUOUS
10
5.92307
20
-5.71072
11
5.92188
21
-5.71224
0
LINE
8
BLACK
6
CONTINUOUS
10
5.92188
20
-5.71224
11
5.92041
21
-5.7135
0
LINE
8
BLACK
6
CONTINUOUS
10
5.92041
20
-5.7135
11
5.89945
21
-5.72818
0
LINE
8
BLACK
6
CONTINUOUS
10
5.89945
20
-5.72818
11
5.89777
21
-5.72912
0
LINE
8
BLACK
6
CONTINUOUS
10
5.89777
20
-5.72912
11
5.89593
21
-5.72972
0
LINE
8
BLACK
6
CONTINUOUS
10
5.89593
20
-5.72972
11
5.89402
21
-5.72995
0
LINE
8
BLACK
6
CONTINUOUS
10
5.89402
20
-5.72995
11
5.89209
21
-5.72981
0
LINE
8
BLACK
6
CONTINUOUS
10
5.89209
20
-5.72981
11
5.89024
21
-5.72929
0
LINE
8
BLACK
6
CONTINUOUS
10
5.89024
20
-5.72929
11
5.88852
21
-5.72841
0
LINE
8
BLACK
6
CONTINUOUS
10
5.88852
20
-5.72841
11
5.887
21
-5.72722
0
LINE
8
BLACK
6
CONTINUOUS
10
5.887
20
-5.72722
11
5.88574
21
-5.72576
0
LINE
8
BLACK
6
CONTINUOUS
10
5.88574
20
-5.72576
11
5.86542
21
-5.69673
0
LINE
8
BLACK
6
CONTINUOUS
10
5.86542
20
-5.69673
11
5.86447
21
-5.69505
0
LINE
8
BLACK
6
CONTINUOUS
10
5.86447
20
-5.69505
11
5.86387
21
-5.69322
0
LINE
8
BLACK
6
CONTINUOUS
10
5.86387
20
-5.69322
11
5.86364
21
-5.6913
0
LINE
8
BLACK
6
CONTINUOUS
10
5.86364
20
-5.6913
11
5.86379
21
-5.68938
0
LINE
8
BLACK
6
CONTINUOUS
10
5.86379
20
-5.68938
11
5.86431
21
-5.68752
0
LINE
8
BLACK
6
CONTINUOUS
10
5.86431
20
-5.68752
11
5.86518
21
-5.6858
0
LINE
8
BLACK
6
CONTINUOUS
10
5.86518
20
-5.6858
11
5.86637
21
-5.68428
0
LINE
8
BLACK
6
CONTINUOUS
10
5.86637
20
-5.68428
11
5.86783
21
-5.68303
0
LINE
8
BLACK
6
CONTINUOUS
10
5.86783
20
-5.68303
11
5.8888
21
-5.66835
0
LINE
8
BLACK
6
CONTINUOUS
10
5.8888
20
-5.66835
11
5.89048
21
-5.6674
0
LINE
8
BLACK
6
CONTINUOUS
10
5.89048
20
-5.6674
11
5.89231
21
-5.6668
0
LINE
8
BLACK
6
CONTINUOUS
10
5.89231
20
-5.6668
11
5.89423
21
-5.66657
0
LINE
8
BLACK
6
CONTINUOUS
10
5.89423
20
-5.66657
11
5.89615
21
-5.66672
0
LINE
8
BLACK
6
CONTINUOUS
10
6.16061
20
-5.61334
11
6.16173
21
-5.61363
0
LINE
8
BLACK
6
CONTINUOUS
10
6.16173
20
-5.61363
11
6.16278
21
-5.61413
0
LINE
8
BLACK
6
CONTINUOUS
10
6.16278
20
-5.61413
11
6.1637
21
-5.61482
0
LINE
8
BLACK
6
CONTINUOUS
10
6.1637
20
-5.61482
11
6.16448
21
-5.61569
0
LINE
8
BLACK
6
CONTINUOUS
10
6.16448
20
-5.61569
11
6.16507
21
-5.61668
0
LINE
8
BLACK
6
CONTINUOUS
10
6.16507
20
-5.61668
11
6.19252
21
-5.67556
0
LINE
8
BLACK
6
CONTINUOUS
10
6.19252
20
-5.67556
11
6.1929
21
-5.67665
0
LINE
8
BLACK
6
CONTINUOUS
10
6.1929
20
-5.67665
11
6.19307
21
-5.67779
0
LINE
8
BLACK
6
CONTINUOUS
10
6.19307
20
-5.67779
11
6.193
21
-5.67895
0
LINE
8
BLACK
6
CONTINUOUS
10
6.193
20
-5.67895
11
6.19272
21
-5.68007
0
LINE
8
BLACK
6
CONTINUOUS
10
6.19272
20
-5.68007
11
6.19222
21
-5.68112
0
LINE
8
BLACK
6
CONTINUOUS
10
6.19222
20
-5.68112
11
6.19152
21
-5.68204
0
LINE
8
BLACK
6
CONTINUOUS
10
6.19152
20
-5.68204
11
6.19066
21
-5.68281
0
LINE
8
BLACK
6
CONTINUOUS
10
6.19066
20
-5.68281
11
6.18966
21
-5.6834
0
LINE
8
BLACK
6
CONTINUOUS
10
6.18966
20
-5.6834
11
6.17896
21
-5.6884
0
LINE
8
BLACK
6
CONTINUOUS
10
6.17896
20
-5.6884
11
6.17787
21
-5.68878
0
LINE
8
BLACK
6
CONTINUOUS
10
6.17787
20
-5.68878
11
6.17672
21
-5.68894
0
LINE
8
BLACK
6
CONTINUOUS
10
6.17672
20
-5.68894
11
6.17557
21
-5.68888
0
LINE
8
BLACK
6
CONTINUOUS
10
6.17557
20
-5.68888
11
6.17444
21
-5.68859
0
LINE
8
BLACK
6
CONTINUOUS
10
6.17444
20
-5.68859
11
6.1734
21
-5.68809
0
LINE
8
BLACK
6
CONTINUOUS
10
6.1734
20
-5.68809
11
6.17247
21
-5.6874
0
LINE
8
BLACK
6
CONTINUOUS
10
6.17247
20
-5.6874
11
6.1717
21
-5.68654
0
LINE
8
BLACK
6
CONTINUOUS
10
6.1717
20
-5.68654
11
6.17111
21
-5.68554
0
LINE
8
BLACK
6
CONTINUOUS
10
6.17111
20
-5.68554
11
6.14366
21
-5.62666
0
LINE
8
BLACK
6
CONTINUOUS
10
6.14366
20
-5.62666
11
6.14327
21
-5.62557
0
LINE
8
BLACK
6
CONTINUOUS
10
6.14327
20
-5.62557
11
6.14311
21
-5.62443
0
LINE
8
BLACK
6
CONTINUOUS
10
6.14311
20
-5.62443
11
6.14317
21
-5.62327
0
LINE
8
BLACK
6
CONTINUOUS
10
6.14317
20
-5.62327
11
6.14346
21
-5.62215
0
LINE
8
BLACK
6
CONTINUOUS
10
6.14346
20
-5.62215
11
6.14396
21
-5.62111
0
LINE
8
BLACK
6
CONTINUOUS
10
6.14396
20
-5.62111
11
6.14466
21
-5.62018
0
LINE
8
BLACK
6
CONTINUOUS
10
6.14466
20
-5.62018
11
6.14552
21
-5.61941
0
LINE
8
BLACK
6
CONTINUOUS
10
6.14552
20
-5.61941
11
6.14651
21
-5.61882
0
LINE
8
BLACK
6
CONTINUOUS
10
6.14651
20
-5.61882
11
6.15722
21
-5.61383
0
LINE
8
BLACK
6
CONTINUOUS
10
6.15722
20
-5.61383
11
6.15831
21
-5.61344
0
LINE
8
BLACK
6
CONTINUOUS
10
6.15831
20
-5.61344
11
6.15946
21
-5.61328
0
LINE
8
BLACK
6
CONTINUOUS
10
6.15946
20
-5.61328
11
6.16061
21
-5.61334
0
LINE
8
BLACK
6
CONTINUOUS
10
5.96226
20
-5.62042
11
5.96412
21
-5.62094
0
LINE
8
BLACK
6
CONTINUOUS
10
5.96412
20
-5.62094
11
5.96584
21
-5.62182
0
LINE
8
BLACK
6
CONTINUOUS
10
5.96584
20
-5.62182
11
5.96736
21
-5.62301
0
LINE
8
BLACK
6
CONTINUOUS
10
5.96736
20
-5.62301
11
5.96862
21
-5.62447
0
LINE
8
BLACK
6
CONTINUOUS
10
5.96862
20
-5.62447
11
5.98894
21
-5.6535
0
LINE
8
BLACK
6
CONTINUOUS
10
5.98894
20
-5.6535
11
5.98989
21
-5.65518
0
LINE
8
BLACK
6
CONTINUOUS
10
5.98989
20
-5.65518
11
5.99049
21
-5.65701
0
LINE
8
BLACK
6
CONTINUOUS
10
5.99049
20
-5.65701
11
5.99072
21
-5.65893
0
LINE
8
BLACK
6
CONTINUOUS
10
5.99072
20
-5.65893
11
5.99057
21
-5.66085
0
LINE
8
BLACK
6
CONTINUOUS
10
5.99057
20
-5.66085
11
5.99005
21
-5.66271
0
LINE
8
BLACK
6
CONTINUOUS
10
5.99005
20
-5.66271
11
5.98918
21
-5.66443
0
LINE
8
BLACK
6
CONTINUOUS
10
5.98918
20
-5.66443
11
5.98799
21
-5.66595
0
LINE
8
BLACK
6
CONTINUOUS
10
5.98799
20
-5.66595
11
5.98652
21
-5.6672
0
LINE
8
BLACK
6
CONTINUOUS
10
5.98652
20
-5.6672
11
5.96556
21
-5.68188
0
LINE
8
BLACK
6
CONTINUOUS
10
5.96556
20
-5.68188
11
5.96388
21
-5.68283
0
LINE
8
BLACK
6
CONTINUOUS
10
5.96388
20
-5.68283
11
5.96205
21
-5.68343
0
LINE
8
BLACK
6
CONTINUOUS
10
5.96205
20
-5.68343
11
5.96013
21
-5.68366
0
LINE
8
BLACK
6
CONTINUOUS
10
5.96013
20
-5.68366
11
5.95821
21
-5.68351
0
LINE
8
BLACK
6
CONTINUOUS
10
5.95821
20
-5.68351
11
5.95635
21
-5.68299
0
LINE
8
BLACK
6
CONTINUOUS
10
5.95635
20
-5.68299
11
5.95463
21
-5.68212
0
LINE
8
BLACK
6
CONTINUOUS
10
5.95463
20
-5.68212
11
5.95311
21
-5.68093
0
LINE
8
BLACK
6
CONTINUOUS
10
5.95311
20
-5.68093
11
5.95185
21
-5.67947
0
LINE
8
BLACK
6
CONTINUOUS
10
5.95185
20
-5.67947
11
5.93153
21
-5.65044
0
LINE
8
BLACK
6
CONTINUOUS
10
5.93153
20
-5.65044
11
5.93058
21
-5.64876
0
LINE
8
BLACK
6
CONTINUOUS
10
5.93058
20
-5.64876
11
5.92998
21
-5.64693
0
LINE
8
BLACK
6
CONTINUOUS
10
5.92998
20
-5.64693
11
5.92975
21
-5.64501
0
LINE
8
BLACK
6
CONTINUOUS
10
5.92975
20
-5.64501
11
5.9299
21
-5.64309
0
LINE
8
BLACK
6
CONTINUOUS
10
5.9299
20
-5.64309
11
5.93042
21
-5.64123
0
LINE
8
BLACK
6
CONTINUOUS
10
5.93042
20
-5.64123
11
5.93129
21
-5.63951
0
LINE
8
BLACK
6
CONTINUOUS
10
5.93129
20
-5.63951
11
5.93248
21
-5.63799
0
LINE
8
BLACK
6
CONTINUOUS
10
5.93248
20
-5.63799
11
5.93395
21
-5.63673
0
LINE
8
BLACK
6
CONTINUOUS
10
5.93395
20
-5.63673
11
5.95491
21
-5.62205
0
LINE
8
BLACK
6
CONTINUOUS
10
5.95491
20
-5.62205
11
5.95659
21
-5.62111
0
LINE
8
BLACK
6
CONTINUOUS
10
5.95659
20
-5.62111
11
5.95843
21
-5.62051
0
LINE
8
BLACK
6
CONTINUOUS
10
5.95843
20
-5.62051
11
5.96034
21
-5.62028
0
LINE
8
BLACK
6
CONTINUOUS
10
5.96034
20
-5.62028
11
5.96226
21
-5.62042
0
LINE
8
BLACK
6
CONTINUOUS
10
6.20593
20
-5.59221
11
6.20705
21
-5.5925
0
LINE
8
BLACK
6
CONTINUOUS
10
6.20705
20
-5.5925
11
6.20809
21
-5.593
0
LINE
8
BLACK
6
CONTINUOUS
10
6.20809
20
-5.593
11
6.20902
21
-5.59369
0
LINE
8
BLACK
6
CONTINUOUS
10
6.20902
20
-5.59369
11
6.20979
21
-5.59455
0
LINE
8
BLACK
6
CONTINUOUS
10
6.20979
20
-5.59455
11
6.21038
21
-5.59555
0
LINE
8
BLACK
6
CONTINUOUS
10
6.21038
20
-5.59555
11
6.23784
21
-5.65442
0
LINE
8
BLACK
6
CONTINUOUS
10
6.23784
20
-5.65442
11
6.23822
21
-5.65552
0
LINE
8
BLACK
6
CONTINUOUS
10
6.23822
20
-5.65552
11
6.23838
21
-5.65666
0
LINE
8
BLACK
6
CONTINUOUS
10
6.23838
20
-5.65666
11
6.23832
21
-5.65782
0
LINE
8
BLACK
6
CONTINUOUS
10
6.23832
20
-5.65782
11
6.23803
21
-5.65894
0
LINE
8
BLACK
6
CONTINUOUS
10
6.23803
20
-5.65894
11
6.23753
21
-5.65998
0
LINE
8
BLACK
6
CONTINUOUS
10
6.23753
20
-5.65998
11
6.23684
21
-5.66091
0
LINE
8
BLACK
6
CONTINUOUS
10
6.23684
20
-5.66091
11
6.23598
21
-5.66168
0
LINE
8
BLACK
6
CONTINUOUS
10
6.23598
20
-5.66168
11
6.23498
21
-5.66227
0
LINE
8
BLACK
6
CONTINUOUS
10
6.23498
20
-5.66227
11
6.22427
21
-5.66726
0
LINE
8
BLACK
6
CONTINUOUS
10
6.22427
20
-5.66726
11
6.22318
21
-5.66765
0
LINE
8
BLACK
6
CONTINUOUS
10
6.22318
20
-5.66765
11
6.22204
21
-5.66781
0
LINE
8
BLACK
6
CONTINUOUS
10
6.22204
20
-5.66781
11
6.22088
21
-5.66775
0
LINE
8
BLACK
6
CONTINUOUS
10
6.22088
20
-5.66775
11
6.21976
21
-5.66746
0
LINE
8
BLACK
6
CONTINUOUS
10
6.21976
20
-5.66746
11
6.21872
21
-5.66696
0
LINE
8
BLACK
6
CONTINUOUS
10
6.21872
20
-5.66696
11
6.21779
21
-5.66627
0
LINE
8
BLACK
6
CONTINUOUS
10
6.21779
20
-5.66627
11
6.21702
21
-5.6654
0
LINE
8
BLACK
6
CONTINUOUS
10
6.21702
20
-5.6654
11
6.21643
21
-5.66441
0
LINE
8
BLACK
6
CONTINUOUS
10
6.21643
20
-5.66441
11
6.18897
21
-5.60553
0
LINE
8
BLACK
6
CONTINUOUS
10
6.18897
20
-5.60553
11
6.18859
21
-5.60444
0
LINE
8
BLACK
6
CONTINUOUS
10
6.18859
20
-5.60444
11
6.18843
21
-5.6033
0
LINE
8
BLACK
6
CONTINUOUS
10
6.18843
20
-5.6033
11
6.18849
21
-5.60214
0
LINE
8
BLACK
6
CONTINUOUS
10
6.18849
20
-5.60214
11
6.18878
21
-5.60102
0
LINE
8
BLACK
6
CONTINUOUS
10
6.18878
20
-5.60102
11
6.18928
21
-5.59997
0
LINE
8
BLACK
6
CONTINUOUS
10
6.18928
20
-5.59997
11
6.18997
21
-5.59905
0
LINE
8
BLACK
6
CONTINUOUS
10
6.18997
20
-5.59905
11
6.19083
21
-5.59828
0
LINE
8
BLACK
6
CONTINUOUS
10
6.19083
20
-5.59828
11
6.19183
21
-5.59769
0
LINE
8
BLACK
6
CONTINUOUS
10
6.19183
20
-5.59769
11
6.20253
21
-5.59269
0
LINE
8
BLACK
6
CONTINUOUS
10
6.20253
20
-5.59269
11
6.20363
21
-5.59231
0
LINE
8
BLACK
6
CONTINUOUS
10
6.20363
20
-5.59231
11
6.20477
21
-5.59215
0
LINE
8
BLACK
6
CONTINUOUS
10
6.20477
20
-5.59215
11
6.20593
21
-5.59221
0
LINE
8
BLACK
6
CONTINUOUS
10
6.25124
20
-5.57108
11
6.25237
21
-5.57137
0
LINE
8
BLACK
6
CONTINUOUS
10
6.25237
20
-5.57137
11
6.25341
21
-5.57187
0
LINE
8
BLACK
6
CONTINUOUS
10
6.25341
20
-5.57187
11
6.25434
21
-5.57256
0
LINE
8
BLACK
6
CONTINUOUS
10
6.25434
20
-5.57256
11
6.25511
21
-5.57342
0
LINE
8
BLACK
6
CONTINUOUS
10
6.25511
20
-5.57342
11
6.2557
21
-5.57442
0
LINE
8
BLACK
6
CONTINUOUS
10
6.2557
20
-5.57442
11
6.28315
21
-5.63329
0
LINE
8
BLACK
6
CONTINUOUS
10
6.28315
20
-5.63329
11
6.28354
21
-5.63439
0
LINE
8
BLACK
6
CONTINUOUS
10
6.28354
20
-5.63439
11
6.2837
21
-5.63553
0
LINE
8
BLACK
6
CONTINUOUS
10
6.2837
20
-5.63553
11
6.28364
21
-5.63669
0
LINE
8
BLACK
6
CONTINUOUS
10
6.28364
20
-5.63669
11
6.28335
21
-5.63781
0
LINE
8
BLACK
6
CONTINUOUS
10
6.28335
20
-5.63781
11
6.28285
21
-5.63885
0
LINE
8
BLACK
6
CONTINUOUS
10
6.28285
20
-5.63885
11
6.28215
21
-5.63978
0
LINE
8
BLACK
6
CONTINUOUS
10
6.28215
20
-5.63978
11
6.28129
21
-5.64055
0
LINE
8
BLACK
6
CONTINUOUS
10
6.28129
20
-5.64055
11
6.28029
21
-5.64114
0
LINE
8
BLACK
6
CONTINUOUS
10
6.28029
20
-5.64114
11
6.26959
21
-5.64613
0
LINE
8
BLACK
6
CONTINUOUS
10
6.26959
20
-5.64613
11
6.2685
21
-5.64652
0
LINE
8
BLACK
6
CONTINUOUS
10
6.2685
20
-5.64652
11
6.26735
21
-5.64668
0
LINE
8
BLACK
6
CONTINUOUS
10
6.26735
20
-5.64668
11
6.2662
21
-5.64662
0
LINE
8
BLACK
6
CONTINUOUS
10
6.2662
20
-5.64662
11
6.26507
21
-5.64633
0
LINE
8
BLACK
6
CONTINUOUS
10
6.26507
20
-5.64633
11
6.26403
21
-5.64583
0
LINE
8
BLACK
6
CONTINUOUS
10
6.26403
20
-5.64583
11
6.2631
21
-5.64514
0
LINE
8
BLACK
6
CONTINUOUS
10
6.2631
20
-5.64514
11
6.26233
21
-5.64427
0
LINE
8
BLACK
6
CONTINUOUS
10
6.26233
20
-5.64427
11
6.26174
21
-5.64328
0
LINE
8
BLACK
6
CONTINUOUS
10
6.26174
20
-5.64328
11
6.23429
21
-5.5844
0
LINE
8
BLACK
6
CONTINUOUS
10
6.23429
20
-5.5844
11
6.2339
21
-5.58331
0
LINE
8
BLACK
6
CONTINUOUS
10
6.2339
20
-5.58331
11
6.23374
21
-5.58216
0
LINE
8
BLACK
6
CONTINUOUS
10
6.23374
20
-5.58216
11
6.2338
21
-5.58101
0
LINE
8
BLACK
6
CONTINUOUS
10
6.2338
20
-5.58101
11
6.23409
21
-5.57989
0
LINE
8
BLACK
6
CONTINUOUS
10
6.23409
20
-5.57989
11
6.23459
21
-5.57884
0
LINE
8
BLACK
6
CONTINUOUS
10
6.23459
20
-5.57884
11
6.23529
21
-5.57792
0
LINE
8
BLACK
6
CONTINUOUS
10
6.23529
20
-5.57792
11
6.23615
21
-5.57714
0
LINE
8
BLACK
6
CONTINUOUS
10
6.23615
20
-5.57714
11
6.23715
21
-5.57655
0
LINE
8
BLACK
6
CONTINUOUS
10
6.23715
20
-5.57655
11
6.24785
21
-5.57156
0
LINE
8
BLACK
6
CONTINUOUS
10
6.24785
20
-5.57156
11
6.24894
21
-5.57118
0
LINE
8
BLACK
6
CONTINUOUS
10
6.24894
20
-5.57118
11
6.25009
21
-5.57102
0
LINE
8
BLACK
6
CONTINUOUS
10
6.25009
20
-5.57102
11
6.25124
21
-5.57108
0
LINE
8
BLACK
6
CONTINUOUS
10
6.29656
20
-5.54995
11
6.29768
21
-5.55024
0
LINE
8
BLACK
6
CONTINUOUS
10
6.29768
20
-5.55024
11
6.29872
21
-5.55074
0
LINE
8
BLACK
6
CONTINUOUS
10
6.29872
20
-5.55074
11
6.29965
21
-5.55143
0
LINE
8
BLACK
6
CONTINUOUS
10
6.29965
20
-5.55143
11
6.30042
21
-5.55229
0
LINE
8
BLACK
6
CONTINUOUS
10
6.30042
20
-5.55229
11
6.30101
21
-5.55329
0
LINE
8
BLACK
6
CONTINUOUS
10
6.30101
20
-5.55329
11
6.32847
21
-5.61216
0
LINE
8
BLACK
6
CONTINUOUS
10
6.32847
20
-5.61216
11
6.32885
21
-5.61326
0
LINE
8
BLACK
6
CONTINUOUS
10
6.32885
20
-5.61326
11
6.32901
21
-5.6144
0
LINE
8
BLACK
6
CONTINUOUS
10
6.32901
20
-5.6144
11
6.32895
21
-5.61556
0
LINE
8
BLACK
6
CONTINUOUS
10
6.32895
20
-5.61556
11
6.32866
21
-5.61668
0
LINE
8
BLACK
6
CONTINUOUS
10
6.32866
20
-5.61668
11
6.32816
21
-5.61772
0
LINE
8
BLACK
6
CONTINUOUS
10
6.32816
20
-5.61772
11
6.32747
21
-5.61865
0
LINE
8
BLACK
6
CONTINUOUS
10
6.32747
20
-5.61865
11
6.32661
21
-5.61942
0
LINE
8
BLACK
6
CONTINUOUS
10
6.32661
20
-5.61942
11
6.32561
21
-5.62001
0
LINE
8
BLACK
6
CONTINUOUS
10
6.32561
20
-5.62001
11
6.31491
21
-5.625
0
LINE
8
BLACK
6
CONTINUOUS
10
6.31491
20
-5.625
11
6.31381
21
-5.62539
0
LINE
8
BLACK
6
CONTINUOUS
10
6.31381
20
-5.62539
11
6.31267
21
-5.62555
0
LINE
8
BLACK
6
CONTINUOUS
10
6.31267
20
-5.62555
11
6.31151
21
-5.62549
0
LINE
8
BLACK
6
CONTINUOUS
10
6.31151
20
-5.62549
11
6.31039
21
-5.6252
0
LINE
8
BLACK
6
CONTINUOUS
10
6.31039
20
-5.6252
11
6.30935
21
-5.6247
0
LINE
8
BLACK
6
CONTINUOUS
10
6.30935
20
-5.6247
11
6.30842
21
-5.624
0
LINE
8
BLACK
6
CONTINUOUS
10
6.30842
20
-5.624
11
6.30765
21
-5.62314
0
LINE
8
BLACK
6
CONTINUOUS
10
6.30765
20
-5.62314
11
6.30706
21
-5.62215
0
LINE
8
BLACK
6
CONTINUOUS
10
6.30706
20
-5.62215
11
6.2796
21
-5.56327
0
LINE
8
BLACK
6
CONTINUOUS
10
6.2796
20
-5.56327
11
6.27922
21
-5.56218
0
LINE
8
BLACK
6
CONTINUOUS
10
6.27922
20
-5.56218
11
6.27906
21
-5.56103
0
LINE
8
BLACK
6
CONTINUOUS
10
6.27906
20
-5.56103
11
6.27912
21
-5.55988
0
LINE
8
BLACK
6
CONTINUOUS
10
6.27912
20
-5.55988
11
6.27941
21
-5.55876
0
LINE
8
BLACK
6
CONTINUOUS
10
6.27941
20
-5.55876
11
6.27991
21
-5.55771
0
LINE
8
BLACK
6
CONTINUOUS
10
6.27991
20
-5.55771
11
6.2806
21
-5.55679
0
LINE
8
BLACK
6
CONTINUOUS
10
6.2806
20
-5.55679
11
6.28146
21
-5.55601
0
LINE
8
BLACK
6
CONTINUOUS
10
6.28146
20
-5.55601
11
6.28246
21
-5.55542
0
LINE
8
BLACK
6
CONTINUOUS
10
6.28246
20
-5.55542
11
6.29316
21
-5.55043
0
LINE
8
BLACK
6
CONTINUOUS
10
6.29316
20
-5.55043
11
6.29426
21
-5.55005
0
LINE
8
BLACK
6
CONTINUOUS
10
6.29426
20
-5.55005
11
6.2954
21
-5.54988
0
LINE
8
BLACK
6
CONTINUOUS
10
6.2954
20
-5.54988
11
6.29656
21
-5.54995
0
LINE
8
BLACK
6
CONTINUOUS
10
6.07825
20
-5.43672
11
6.07937
21
-5.437
0
LINE
8
BLACK
6
CONTINUOUS
10
6.07937
20
-5.437
11
6.08042
21
-5.43751
0
LINE
8
BLACK
6
CONTINUOUS
10
6.08042
20
-5.43751
11
6.08134
21
-5.4382
0
LINE
8
BLACK
6
CONTINUOUS
10
6.08134
20
-5.4382
11
6.08212
21
-5.43906
0
LINE
8
BLACK
6
CONTINUOUS
10
6.08212
20
-5.43906
11
6.08271
21
-5.44006
0
LINE
8
BLACK
6
CONTINUOUS
10
6.08271
20
-5.44006
11
6.11016
21
-5.49893
0
LINE
8
BLACK
6
CONTINUOUS
10
6.11016
20
-5.49893
11
6.11054
21
-5.50002
0
LINE
8
BLACK
6
CONTINUOUS
10
6.11054
20
-5.50002
11
6.11071
21
-5.50117
0
LINE
8
BLACK
6
CONTINUOUS
10
6.11071
20
-5.50117
11
6.11064
21
-5.50233
0
LINE
8
BLACK
6
CONTINUOUS
10
6.11064
20
-5.50233
11
6.11036
21
-5.50345
0
LINE
8
BLACK
6
CONTINUOUS
10
6.11036
20
-5.50345
11
6.10986
21
-5.50449
0
LINE
8
BLACK
6
CONTINUOUS
10
6.10986
20
-5.50449
11
6.10916
21
-5.50542
0
LINE
8
BLACK
6
CONTINUOUS
10
6.10916
20
-5.50542
11
6.1083
21
-5.50619
0
LINE
8
BLACK
6
CONTINUOUS
10
6.1083
20
-5.50619
11
6.1073
21
-5.50678
0
LINE
8
BLACK
6
CONTINUOUS
10
6.1073
20
-5.50678
11
6.0966
21
-5.51177
0
LINE
8
BLACK
6
CONTINUOUS
10
6.0966
20
-5.51177
11
6.09551
21
-5.51216
0
LINE
8
BLACK
6
CONTINUOUS
10
6.09551
20
-5.51216
11
6.09436
21
-5.51232
0
LINE
8
BLACK
6
CONTINUOUS
10
6.09436
20
-5.51232
11
6.0932
21
-5.51226
0
LINE
8
BLACK
6
CONTINUOUS
10
6.0932
20
-5.51226
11
6.09208
21
-5.51197
0
LINE
8
BLACK
6
CONTINUOUS
10
6.09208
20
-5.51197
11
6.09104
21
-5.51147
0
LINE
8
BLACK
6
CONTINUOUS
10
6.09104
20
-5.51147
11
6.09011
21
-5.51077
0
LINE
8
BLACK
6
CONTINUOUS
10
6.09011
20
-5.51077
11
6.08934
21
-5.50991
0
LINE
8
BLACK
6
CONTINUOUS
10
6.08934
20
-5.50991
11
6.08875
21
-5.50892
0
LINE
8
BLACK
6
CONTINUOUS
10
6.08875
20
-5.50892
11
6.0613
21
-5.45004
0
LINE
8
BLACK
6
CONTINUOUS
10
6.0613
20
-5.45004
11
6.06091
21
-5.44895
0
LINE
8
BLACK
6
CONTINUOUS
10
6.06091
20
-5.44895
11
6.06075
21
-5.4478
0
LINE
8
BLACK
6
CONTINUOUS
10
6.06075
20
-5.4478
11
6.06081
21
-5.44665
0
LINE
8
BLACK
6
CONTINUOUS
10
6.06081
20
-5.44665
11
6.0611
21
-5.44553
0
LINE
8
BLACK
6
CONTINUOUS
10
6.0611
20
-5.44553
11
6.0616
21
-5.44448
0
LINE
8
BLACK
6
CONTINUOUS
10
6.0616
20
-5.44448
11
6.0623
21
-5.44356
0
LINE
8
BLACK
6
CONTINUOUS
10
6.0623
20
-5.44356
11
6.06316
21
-5.44278
0
LINE
8
BLACK
6
CONTINUOUS
10
6.06316
20
-5.44278
11
6.06415
21
-5.44219
0
LINE
8
BLACK
6
CONTINUOUS
10
6.06415
20
-5.44219
11
6.07486
21
-5.4372
0
LINE
8
BLACK
6
CONTINUOUS
10
6.07486
20
-5.4372
11
6.07595
21
-5.43682
0
LINE
8
BLACK
6
CONTINUOUS
10
6.07595
20
-5.43682
11
6.0771
21
-5.43665
0
LINE
8
BLACK
6
CONTINUOUS
10
6.0771
20
-5.43665
11
6.07825
21
-5.43672
0
LINE
8
BLACK
6
CONTINUOUS
10
6.12357
20
-5.41559
11
6.12469
21
-5.41587
0
LINE
8
BLACK
6
CONTINUOUS
10
6.12469
20
-5.41587
11
6.12573
21
-5.41637
0
LINE
8
BLACK
6
CONTINUOUS
10
6.12573
20
-5.41637
11
6.12666
21
-5.41707
0
LINE
8
BLACK
6
CONTINUOUS
10
6.12666
20
-5.41707
11
6.12743
21
-5.41793
0
LINE
8
BLACK
6
CONTINUOUS
10
6.12743
20
-5.41793
11
6.12802
21
-5.41893
0
LINE
8
BLACK
6
CONTINUOUS
10
6.12802
20
-5.41893
11
6.15548
21
-5.4778
0
LINE
8
BLACK
6
CONTINUOUS
10
6.15548
20
-5.4778
11
6.15586
21
-5.47889
0
LINE
8
BLACK
6
CONTINUOUS
10
6.15586
20
-5.47889
11
6.15602
21
-5.48004
0
LINE
8
BLACK
6
CONTINUOUS
10
6.15602
20
-5.48004
11
6.15596
21
-5.4812
0
LINE
8
BLACK
6
CONTINUOUS
10
6.15596
20
-5.4812
11
6.15567
21
-5.48232
0
LINE
8
BLACK
6
CONTINUOUS
10
6.15567
20
-5.48232
11
6.15517
21
-5.48336
0
LINE
8
BLACK
6
CONTINUOUS
10
6.15517
20
-5.48336
11
6.15448
21
-5.48429
0
LINE
8
BLACK
6
CONTINUOUS
10
6.15448
20
-5.48429
11
6.15361
21
-5.48506
0
LINE
8
BLACK
6
CONTINUOUS
10
6.15361
20
-5.48506
11
6.15262
21
-5.48565
0
LINE
8
BLACK
6
CONTINUOUS
10
6.15262
20
-5.48565
11
6.14191
21
-5.49064
0
LINE
8
BLACK
6
CONTINUOUS
10
6.14191
20
-5.49064
11
6.14082
21
-5.49103
0
LINE
8
BLACK
6
CONTINUOUS
10
6.14082
20
-5.49103
11
6.13968
21
-5.49119
0
LINE
8
BLACK
6
CONTINUOUS
10
6.13968
20
-5.49119
11
6.13852
21
-5.49113
0
LINE
8
BLACK
6
CONTINUOUS
10
6.13852
20
-5.49113
11
6.1374
21
-5.49084
0
LINE
8
BLACK
6
CONTINUOUS
10
6.1374
20
-5.49084
11
6.13635
21
-5.49034
0
LINE
8
BLACK
6
CONTINUOUS
10
6.13635
20
-5.49034
11
6.13543
21
-5.48964
0
LINE
8
BLACK
6
CONTINUOUS
10
6.13543
20
-5.48964
11
6.13466
21
-5.48878
0
LINE
8
BLACK
6
CONTINUOUS
10
6.13466
20
-5.48878
11
6.13407
21
-5.48779
0
LINE
8
BLACK
6
CONTINUOUS
10
6.13407
20
-5.48779
11
6.10661
21
-5.42891
0
LINE
8
BLACK
6
CONTINUOUS
10
6.10661
20
-5.42891
11
6.10623
21
-5.42782
0
LINE
8
BLACK
6
CONTINUOUS
10
6.10623
20
-5.42782
11
6.10607
21
-5.42667
0
LINE
8
BLACK
6
CONTINUOUS
10
6.10607
20
-5.42667
11
6.10613
21
-5.42552
0
LINE
8
BLACK
6
CONTINUOUS
10
6.10613
20
-5.42552
11
6.10642
21
-5.4244
0
LINE
8
BLACK
6
CONTINUOUS
10
6.10642
20
-5.4244
11
6.10692
21
-5.42335
0
LINE
8
BLACK
6
CONTINUOUS
10
6.10692
20
-5.42335
11
6.10761
21
-5.42243
0
LINE
8
BLACK
6
CONTINUOUS
10
6.10761
20
-5.42243
11
6.10847
21
-5.42165
0
LINE
8
BLACK
6
CONTINUOUS
10
6.10847
20
-5.42165
11
6.10947
21
-5.42106
0
LINE
8
BLACK
6
CONTINUOUS
10
6.10947
20
-5.42106
11
6.12017
21
-5.41607
0
LINE
8
BLACK
6
CONTINUOUS
10
6.12017
20
-5.41607
11
6.12127
21
-5.41569
0
LINE
8
BLACK
6
CONTINUOUS
10
6.12127
20
-5.41569
11
6.12241
21
-5.41552
0
LINE
8
BLACK
6
CONTINUOUS
10
6.12241
20
-5.41552
11
6.12357
21
-5.41559
0
LINE
8
BLACK
6
CONTINUOUS
10
6.16888
20
-5.39446
11
6.17
21
-5.39474
0
LINE
8
BLACK
6
CONTINUOUS
10
6.17
20
-5.39474
11
6.17105
21
-5.39524
0
LINE
8
BLACK
6
CONTINUOUS
10
6.17105
20
-5.39524
11
6.17197
21
-5.39594
0
LINE
8
BLACK
6
CONTINUOUS
10
6.17197
20
-5.39594
11
6.17275
21
-5.3968
0
LINE
8
BLACK
6
CONTINUOUS
10
6.17275
20
-5.3968
11
6.17334
21
-5.3978
0
LINE
8
BLACK
6
CONTINUOUS
10
6.17334
20
-5.3978
11
6.20079
21
-5.45667
0
LINE
8
BLACK
6
CONTINUOUS
10
6.20079
20
-5.45667
11
6.20117
21
-5.45776
0
LINE
8
BLACK
6
CONTINUOUS
10
6.20117
20
-5.45776
11
6.20134
21
-5.45891
0
LINE
8
BLACK
6
CONTINUOUS
10
6.20134
20
-5.45891
11
6.20127
21
-5.46007
0
LINE
8
BLACK
6
CONTINUOUS
10
6.20127
20
-5.46007
11
6.20099
21
-5.46119
0
LINE
8
BLACK
6
CONTINUOUS
10
6.20099
20
-5.46119
11
6.20049
21
-5.46223
0
LINE
8
BLACK
6
CONTINUOUS
10
6.20049
20
-5.46223
11
6.19979
21
-5.46316
0
LINE
8
BLACK
6
CONTINUOUS
10
6.19979
20
-5.46316
11
6.19893
21
-5.46393
0
LINE
8
BLACK
6
CONTINUOUS
10
6.19893
20
-5.46393
11
6.19793
21
-5.46452
0
LINE
8
BLACK
6
CONTINUOUS
10
6.19793
20
-5.46452
11
6.18723
21
-5.46951
0
LINE
8
BLACK
6
CONTINUOUS
10
6.18723
20
-5.46951
11
6.18614
21
-5.46989
0
LINE
8
BLACK
6
CONTINUOUS
10
6.18614
20
-5.46989
11
6.18499
21
-5.47006
0
LINE
8
BLACK
6
CONTINUOUS
10
6.18499
20
-5.47006
11
6.18384
21
-5.47
0
LINE
8
BLACK
6
CONTINUOUS
10
6.18384
20
-5.47
11
6.18271
21
-5.46971
0
LINE
8
BLACK
6
CONTINUOUS
10
6.18271
20
-5.46971
11
6.18167
21
-5.46921
0
LINE
8
BLACK
6
CONTINUOUS
10
6.18167
20
-5.46921
11
6.18074
21
-5.46851
0
LINE
8
BLACK
6
CONTINUOUS
10
6.18074
20
-5.46851
11
6.17997
21
-5.46765
0
LINE
8
BLACK
6
CONTINUOUS
10
6.17997
20
-5.46765
11
6.17938
21
-5.46665
0
LINE
8
BLACK
6
CONTINUOUS
10
6.17938
20
-5.46665
11
6.15193
21
-5.40778
0
LINE
8
BLACK
6
CONTINUOUS
10
6.15193
20
-5.40778
11
6.15154
21
-5.40669
0
LINE
8
BLACK
6
CONTINUOUS
10
6.15154
20
-5.40669
11
6.15138
21
-5.40554
0
LINE
8
BLACK
6
CONTINUOUS
10
6.15138
20
-5.40554
11
6.15144
21
-5.40439
0
LINE
8
BLACK
6
CONTINUOUS
10
6.15144
20
-5.40439
11
6.15173
21
-5.40326
0
LINE
8
BLACK
6
CONTINUOUS
10
6.15173
20
-5.40326
11
6.15223
21
-5.40222
0
LINE
8
BLACK
6
CONTINUOUS
10
6.15223
20
-5.40222
11
6.15293
21
-5.40129
0
LINE
8
BLACK
6
CONTINUOUS
10
6.15293
20
-5.40129
11
6.15379
21
-5.40052
0
LINE
8
BLACK
6
CONTINUOUS
10
6.15379
20
-5.40052
11
6.15478
21
-5.39993
0
LINE
8
BLACK
6
CONTINUOUS
10
6.15478
20
-5.39993
11
6.16549
21
-5.39494
0
LINE
8
BLACK
6
CONTINUOUS
10
6.16549
20
-5.39494
11
6.16658
21
-5.39456
0
LINE
8
BLACK
6
CONTINUOUS
10
6.16658
20
-5.39456
11
6.16773
21
-5.39439
0
LINE
8
BLACK
6
CONTINUOUS
10
6.16773
20
-5.39439
11
6.16888
21
-5.39446
0
LINE
8
BLACK
6
CONTINUOUS
10
6.2142
20
-5.37332
11
6.21532
21
-5.37361
0
LINE
8
BLACK
6
CONTINUOUS
10
6.21532
20
-5.37361
11
6.21636
21
-5.37411
0
LINE
8
BLACK
6
CONTINUOUS
10
6.21636
20
-5.37411
11
6.21729
21
-5.37481
0
LINE
8
BLACK
6
CONTINUOUS
10
6.21729
20
-5.37481
11
6.21806
21
-5.37567
0
LINE
8
BLACK
6
CONTINUOUS
10
6.21806
20
-5.37567
11
6.21865
21
-5.37667
0
LINE
8
BLACK
6
CONTINUOUS
10
6.21865
20
-5.37667
11
6.24611
21
-5.43554
0
LINE
8
BLACK
6
CONTINUOUS
10
6.24611
20
-5.43554
11
6.24649
21
-5.43663
0
LINE
8
BLACK
6
CONTINUOUS
10
6.24649
20
-5.43663
11
6.24665
21
-5.43778
0
LINE
8
BLACK
6
CONTINUOUS
10
6.24665
20
-5.43778
11
6.24659
21
-5.43893
0
LINE
8
BLACK
6
CONTINUOUS
10
6.24659
20
-5.43893
11
6.2463
21
-5.44006
0
LINE
8
BLACK
6
CONTINUOUS
10
6.2463
20
-5.44006
11
6.2458
21
-5.4411
0
LINE
8
BLACK
6
CONTINUOUS
10
6.2458
20
-5.4411
11
6.24511
21
-5.44203
0
LINE
8
BLACK
6
CONTINUOUS
10
6.24511
20
-5.44203
11
6.24425
21
-5.4428
0
LINE
8
BLACK
6
CONTINUOUS
10
6.24425
20
-5.4428
11
6.24325
21
-5.44339
0
LINE
8
BLACK
6
CONTINUOUS
10
6.24325
20
-5.44339
11
6.23255
21
-5.44838
0
LINE
8
BLACK
6
CONTINUOUS
10
6.23255
20
-5.44838
11
6.23145
21
-5.44876
0
LINE
8
BLACK
6
CONTINUOUS
10
6.23145
20
-5.44876
11
6.23031
21
-5.44893
0
LINE
8
BLACK
6
CONTINUOUS
10
6.23031
20
-5.44893
11
6.22915
21
-5.44886
0
LINE
8
BLACK
6
CONTINUOUS
10
6.22915
20
-5.44886
11
6.22803
21
-5.44858
0
LINE
8
BLACK
6
CONTINUOUS
10
6.22803
20
-5.44858
11
6.22699
21
-5.44808
0
LINE
8
BLACK
6
CONTINUOUS
10
6.22699
20
-5.44808
11
6.22606
21
-5.44738
0
LINE
8
BLACK
6
CONTINUOUS
10
6.22606
20
-5.44738
11
6.22529
21
-5.44652
0
LINE
8
BLACK
6
CONTINUOUS
10
6.22529
20
-5.44652
11
6.2247
21
-5.44552
0
LINE
8
BLACK
6
CONTINUOUS
10
6.2247
20
-5.44552
11
6.19724
21
-5.38665
0
LINE
8
BLACK
6
CONTINUOUS
10
6.19724
20
-5.38665
11
6.19686
21
-5.38556
0
LINE
8
BLACK
6
CONTINUOUS
10
6.19686
20
-5.38556
11
6.1967
21
-5.38441
0
LINE
8
BLACK
6
CONTINUOUS
10
6.1967
20
-5.38441
11
6.19676
21
-5.38325
0
LINE
8
BLACK
6
CONTINUOUS
10
6.19676
20
-5.38325
11
6.19705
21
-5.38213
0
LINE
8
BLACK
6
CONTINUOUS
10
6.19705
20
-5.38213
11
6.19755
21
-5.38109
0
LINE
8
BLACK
6
CONTINUOUS
10
6.19755
20
-5.38109
11
6.19824
21
-5.38016
0
LINE
8
BLACK
6
CONTINUOUS
10
6.19824
20
-5.38016
11
6.1991
21
-5.37939
0
LINE
8
BLACK
6
CONTINUOUS
10
6.1991
20
-5.37939
11
6.2001
21
-5.3788
0
LINE
8
BLACK
6
CONTINUOUS
10
6.2001
20
-5.3788
11
6.2108
21
-5.37381
0
LINE
8
BLACK
6
CONTINUOUS
10
6.2108
20
-5.37381
11
6.2119
21
-5.37343
0
LINE
8
BLACK
6
CONTINUOUS
10
6.2119
20
-5.37343
11
6.21304
21
-5.37326
0
LINE
8
BLACK
6
CONTINUOUS
10
6.21304
20
-5.37326
11
6.2142
21
-5.37332
0
LINE
8
BLACK
6
CONTINUOUS
10
5.1973
20
-5.12777
11
5.11587
21
-5.14212
0
LINE
8
BLACK
6
CONTINUOUS
10
5.11587
20
-5.14212
11
5.0981
21
-5.04132
0
LINE
8
BLACK
6
CONTINUOUS
10
5.0981
20
-5.04132
11
5.17952
21
-5.02696
0
LINE
8
BLACK
6
CONTINUOUS
10
5.17952
20
-5.02696
11
5.1973
21
-5.12777
0
LINE
8
BLACK
6
CONTINUOUS
10
5.26038
20
-4.98672
11
5.18283
21
-5.00039
0
LINE
8
BLACK
6
CONTINUOUS
10
5.18283
20
-5.00039
11
5.17873
21
-4.97713
0
LINE
8
BLACK
6
CONTINUOUS
10
5.17873
20
-4.97713
11
5.25627
21
-4.96345
0
LINE
8
BLACK
6
CONTINUOUS
10
5.25627
20
-4.96345
11
5.26038
21
-4.98672
0
LINE
8
BLACK
6
CONTINUOUS
10
5.25354
20
-4.94795
11
5.17599
21
-4.96162
0
LINE
8
BLACK
6
CONTINUOUS
10
5.17599
20
-4.96162
11
5.17189
21
-4.93836
0
LINE
8
BLACK
6
CONTINUOUS
10
5.17189
20
-4.93836
11
5.24944
21
-4.92468
0
LINE
8
BLACK
6
CONTINUOUS
10
5.24944
20
-4.92468
11
5.25354
21
-4.94795
0
LINE
8
BLACK
6
CONTINUOUS
10
5.2467
20
-4.90917
11
5.16916
21
-4.92285
0
LINE
8
BLACK
6
CONTINUOUS
10
5.16916
20
-4.92285
11
5.16506
21
-4.89958
0
LINE
8
BLACK
6
CONTINUOUS
10
5.16506
20
-4.89958
11
5.2426
21
-4.88591
0
LINE
8
BLACK
6
CONTINUOUS
10
5.2426
20
-4.88591
11
5.2467
21
-4.90917
0
LINE
8
BLACK
6
CONTINUOUS
10
5.23987
20
-4.8704
11
5.16232
21
-4.88408
0
LINE
8
BLACK
6
CONTINUOUS
10
5.16232
20
-4.88408
11
5.15822
21
-4.86081
0
LINE
8
BLACK
6
CONTINUOUS
10
5.15822
20
-4.86081
11
5.23576
21
-4.84714
0
LINE
8
BLACK
6
CONTINUOUS
10
5.23576
20
-4.84714
11
5.23987
21
-4.8704
0
LINE
8
BLACK
6
CONTINUOUS
10
5.23303
20
-4.83163
11
5.15548
21
-4.8453
0
LINE
8
BLACK
6
CONTINUOUS
10
5.15548
20
-4.8453
11
5.15138
21
-4.82204
0
LINE
8
BLACK
6
CONTINUOUS
10
5.15138
20
-4.82204
11
5.22893
21
-4.80837
0
LINE
8
BLACK
6
CONTINUOUS
10
5.22893
20
-4.80837
11
5.23303
21
-4.83163
0
LINE
8
BLACK
6
CONTINUOUS
10
5.22619
20
-4.79286
11
5.14865
21
-4.80653
0
LINE
8
BLACK
6
CONTINUOUS
10
5.14865
20
-4.80653
11
5.14455
21
-4.78327
0
LINE
8
BLACK
6
CONTINUOUS
10
5.14455
20
-4.78327
11
5.22209
21
-4.7696
0
LINE
8
BLACK
6
CONTINUOUS
10
5.22209
20
-4.7696
11
5.22619
21
-4.79286
0
LINE
8
BLACK
6
CONTINUOUS
10
5.21936
20
-4.75409
11
5.14181
21
-4.76776
0
LINE
8
BLACK
6
CONTINUOUS
10
5.14181
20
-4.76776
11
5.13771
21
-4.7445
0
LINE
8
BLACK
6
CONTINUOUS
10
5.13771
20
-4.7445
11
5.21525
21
-4.73082
0
LINE
8
BLACK
6
CONTINUOUS
10
5.21525
20
-4.73082
11
5.21936
21
-4.75409
0
LINE
8
BLACK
6
CONTINUOUS
10
5.21252
20
-4.71531
11
5.13498
21
-4.72899
0
LINE
8
BLACK
6
CONTINUOUS
10
5.13498
20
-4.72899
11
5.13087
21
-4.70572
0
LINE
8
BLACK
6
CONTINUOUS
10
5.13087
20
-4.70572
11
5.20842
21
-4.69205
0
LINE
8
BLACK
6
CONTINUOUS
10
5.20842
20
-4.69205
11
5.21252
21
-4.71531
0
LINE
8
BLACK
6
CONTINUOUS
10
5.11868
20
-4.68189
11
5.03725
21
-4.69625
0
LINE
8
BLACK
6
CONTINUOUS
10
5.03725
20
-4.69625
11
5.01948
21
-4.59544
0
LINE
8
BLACK
6
CONTINUOUS
10
5.01948
20
-4.59544
11
5.1009
21
-4.58108
0
LINE
8
BLACK
6
CONTINUOUS
10
5.1009
20
-4.58108
11
5.11868
21
-4.68189
0
LINE
8
BLACK
6
CONTINUOUS
10
5.33775
20
-4.37794
11
5.3395
21
-4.37847
0
LINE
8
BLACK
6
CONTINUOUS
10
5.3395
20
-4.37847
11
5.34112
21
-4.37933
0
LINE
8
BLACK
6
CONTINUOUS
10
5.34112
20
-4.37933
11
5.34254
21
-4.38049
0
LINE
8
BLACK
6
CONTINUOUS
10
5.34254
20
-4.38049
11
5.3437
21
-4.38191
0
LINE
8
BLACK
6
CONTINUOUS
10
5.3437
20
-4.38191
11
5.34456
21
-4.38353
0
LINE
8
BLACK
6
CONTINUOUS
10
5.34456
20
-4.38353
11
5.3451
21
-4.38528
0
LINE
8
BLACK
6
CONTINUOUS
10
5.3451
20
-4.38528
11
5.34528
21
-4.38711
0
LINE
8
BLACK
6
CONTINUOUS
10
5.34528
20
-4.38711
11
5.34528
21
-4.40581
0
LINE
8
BLACK
6
CONTINUOUS
10
5.34528
20
-4.40581
11
5.3451
21
-4.40763
0
LINE
8
BLACK
6
CONTINUOUS
10
5.3451
20
-4.40763
11
5.34456
21
-4.40939
0
LINE
8
BLACK
6
CONTINUOUS
10
5.34456
20
-4.40939
11
5.3437
21
-4.411
0
LINE
8
BLACK
6
CONTINUOUS
10
5.3437
20
-4.411
11
5.34254
21
-4.41242
0
LINE
8
BLACK
6
CONTINUOUS
10
5.34254
20
-4.41242
11
5.34112
21
-4.41358
0
LINE
8
BLACK
6
CONTINUOUS
10
5.34112
20
-4.41358
11
5.3395
21
-4.41445
0
LINE
8
BLACK
6
CONTINUOUS
10
5.3395
20
-4.41445
11
5.33775
21
-4.41498
0
LINE
8
BLACK
6
CONTINUOUS
10
5.33775
20
-4.41498
11
5.33593
21
-4.41516
0
LINE
8
BLACK
6
CONTINUOUS
10
5.33593
20
-4.41516
11
5.31329
21
-4.41516
0
LINE
8
BLACK
6
CONTINUOUS
10
5.31329
20
-4.41516
11
5.31146
21
-4.41498
0
LINE
8
BLACK
6
CONTINUOUS
10
5.31146
20
-4.41498
11
5.30971
21
-4.41445
0
LINE
8
BLACK
6
CONTINUOUS
10
5.30971
20
-4.41445
11
5.30809
21
-4.41358
0
LINE
8
BLACK
6
CONTINUOUS
10
5.30809
20
-4.41358
11
5.30668
21
-4.41242
0
LINE
8
BLACK
6
CONTINUOUS
10
5.30668
20
-4.41242
11
5.30551
21
-4.411
0
LINE
8
BLACK
6
CONTINUOUS
10
5.30551
20
-4.411
11
5.30465
21
-4.40939
0
LINE
8
BLACK
6
CONTINUOUS
10
5.30465
20
-4.40939
11
5.30412
21
-4.40763
0
LINE
8
BLACK
6
CONTINUOUS
10
5.30412
20
-4.40763
11
5.30394
21
-4.40581
0
LINE
8
BLACK
6
CONTINUOUS
10
5.30394
20
-4.40581
11
5.30394
21
-4.38711
0
LINE
8
BLACK
6
CONTINUOUS
10
5.30394
20
-4.38711
11
5.30412
21
-4.38528
0
LINE
8
BLACK
6
CONTINUOUS
10
5.30412
20
-4.38528
11
5.30465
21
-4.38353
0
LINE
8
BLACK
6
CONTINUOUS
10
5.30465
20
-4.38353
11
5.30551
21
-4.38191
0
LINE
8
BLACK
6
CONTINUOUS
10
5.30551
20
-4.38191
11
5.30668
21
-4.38049
0
LINE
8
BLACK
6
CONTINUOUS
10
5.30668
20
-4.38049
11
5.30809
21
-4.37933
0
LINE
8
BLACK
6
CONTINUOUS
10
5.30809
20
-4.37933
11
5.30971
21
-4.37847
0
LINE
8
BLACK
6
CONTINUOUS
10
5.30971
20
-4.37847
11
5.31146
21
-4.37794
0
LINE
8
BLACK
6
CONTINUOUS
10
5.31146
20
-4.37794
11
5.31329
21
-4.37776
0
LINE
8
BLACK
6
CONTINUOUS
10
5.31329
20
-4.37776
11
5.33593
21
-4.37776
0
LINE
8
BLACK
6
CONTINUOUS
10
5.33593
20
-4.37776
11
5.33775
21
-4.37794
0
LINE
8
BLACK
6
CONTINUOUS
10
5.40665
20
-4.37794
11
5.4084
21
-4.37847
0
LINE
8
BLACK
6
CONTINUOUS
10
5.4084
20
-4.37847
11
5.41002
21
-4.37933
0
LINE
8
BLACK
6
CONTINUOUS
10
5.41002
20
-4.37933
11
5.41143
21
-4.38049
0
LINE
8
BLACK
6
CONTINUOUS
10
5.41143
20
-4.38049
11
5.4126
21
-4.38191
0
LINE
8
BLACK
6
CONTINUOUS
10
5.4126
20
-4.38191
11
5.41346
21
-4.38353
0
LINE
8
BLACK
6
CONTINUOUS
10
5.41346
20
-4.38353
11
5.41399
21
-4.38528
0
LINE
8
BLACK
6
CONTINUOUS
10
5.41399
20
-4.38528
11
5.41417
21
-4.38711
0
LINE
8
BLACK
6
CONTINUOUS
10
5.41417
20
-4.38711
11
5.41417
21
-4.40581
0
LINE
8
BLACK
6
CONTINUOUS
10
5.41417
20
-4.40581
11
5.41399
21
-4.40763
0
LINE
8
BLACK
6
CONTINUOUS
10
5.41399
20
-4.40763
11
5.41346
21
-4.40939
0
LINE
8
BLACK
6
CONTINUOUS
10
5.41346
20
-4.40939
11
5.4126
21
-4.411
0
LINE
8
BLACK
6
CONTINUOUS
10
5.4126
20
-4.411
11
5.41143
21
-4.41242
0
LINE
8
BLACK
6
CONTINUOUS
10
5.41143
20
-4.41242
11
5.41002
21
-4.41358
0
LINE
8
BLACK
6
CONTINUOUS
10
5.41002
20
-4.41358
11
5.4084
21
-4.41445
0
LINE
8
BLACK
6
CONTINUOUS
10
5.4084
20
-4.41445
11
5.40665
21
-4.41498
0
LINE
8
BLACK
6
CONTINUOUS
10
5.40665
20
-4.41498
11
5.40482
21
-4.41516
0
LINE
8
BLACK
6
CONTINUOUS
10
5.40482
20
-4.41516
11
5.38219
21
-4.41516
0
LINE
8
BLACK
6
CONTINUOUS
10
5.38219
20
-4.41516
11
5.38036
21
-4.41498
0
LINE
8
BLACK
6
CONTINUOUS
10
5.38036
20
-4.41498
11
5.37861
21
-4.41445
0
LINE
8
BLACK
6
CONTINUOUS
10
5.37861
20
-4.41445
11
5.37699
21
-4.41358
0
LINE
8
BLACK
6
CONTINUOUS
10
5.37699
20
-4.41358
11
5.37557
21
-4.41242
0
LINE
8
BLACK
6
CONTINUOUS
10
5.37557
20
-4.41242
11
5.37441
21
-4.411
0
LINE
8
BLACK
6
CONTINUOUS
10
5.37441
20
-4.411
11
5.37355
21
-4.40939
0
LINE
8
BLACK
6
CONTINUOUS
10
5.37355
20
-4.40939
11
5.37301
21
-4.40763
0
LINE
8
BLACK
6
CONTINUOUS
10
5.37301
20
-4.40763
11
5.37283
21
-4.40581
0
LINE
8
BLACK
6
CONTINUOUS
10
5.37283
20
-4.40581
11
5.37283
21
-4.38711
0
LINE
8
BLACK
6
CONTINUOUS
10
5.37283
20
-4.38711
11
5.37301
21
-4.38528
0
LINE
8
BLACK
6
CONTINUOUS
10
5.37301
20
-4.38528
11
5.37355
21
-4.38353
0
LINE
8
BLACK
6
CONTINUOUS
10
5.37355
20
-4.38353
11
5.37441
21
-4.38191
0
LINE
8
BLACK
6
CONTINUOUS
10
5.37441
20
-4.38191
11
5.37557
21
-4.38049
0
LINE
8
BLACK
6
CONTINUOUS
10
5.37557
20
-4.38049
11
5.37699
21
-4.37933
0
LINE
8
BLACK
6
CONTINUOUS
10
5.37699
20
-4.37933
11
5.37861
21
-4.37847
0
LINE
8
BLACK
6
CONTINUOUS
10
5.37861
20
-4.37847
11
5.38036
21
-4.37794
0
LINE
8
BLACK
6
CONTINUOUS
10
5.38036
20
-4.37794
11
5.38219
21
-4.37776
0
LINE
8
BLACK
6
CONTINUOUS
10
5.38219
20
-4.37776
11
5.40482
21
-4.37776
0
LINE
8
BLACK
6
CONTINUOUS
10
5.40482
20
-4.37776
11
5.40665
21
-4.37794
0
LINE
8
BLACK
6
CONTINUOUS
10
5.4252
20
-4.30413
11
5.36614
21
-4.30413
0
LINE
8
BLACK
6
CONTINUOUS
10
5.36614
20
-4.30413
11
5.36614
21
-4.24508
0
LINE
8
BLACK
6
CONTINUOUS
10
5.36614
20
-4.24508
11
5.4252
21
-4.24508
0
LINE
8
BLACK
6
CONTINUOUS
10
5.4252
20
-4.24508
11
5.4252
21
-4.30413
0
LINE
8
BLACK
6
CONTINUOUS
10
5.11811
20
-4.30413
11
5.05906
21
-4.30413
0
LINE
8
BLACK
6
CONTINUOUS
10
5.05906
20
-4.30413
11
5.05906
21
-4.24508
0
LINE
8
BLACK
6
CONTINUOUS
10
5.05906
20
-4.24508
11
5.11811
21
-4.24508
0
LINE
8
BLACK
6
CONTINUOUS
10
5.11811
20
-4.24508
11
5.11811
21
-4.30413
0
LINE
8
BLACK
6
CONTINUOUS
10
5.57554
20
-4.26506
11
5.57729
21
-4.26559
0
LINE
8
BLACK
6
CONTINUOUS
10
5.57729
20
-4.26559
11
5.57891
21
-4.26646
0
LINE
8
BLACK
6
CONTINUOUS
10
5.57891
20
-4.26646
11
5.58032
21
-4.26762
0
LINE
8
BLACK
6
CONTINUOUS
10
5.58032
20
-4.26762
11
5.58149
21
-4.26904
0
LINE
8
BLACK
6
CONTINUOUS
10
5.58149
20
-4.26904
11
5.58235
21
-4.27065
0
LINE
8
BLACK
6
CONTINUOUS
10
5.58235
20
-4.27065
11
5.58288
21
-4.27241
0
LINE
8
BLACK
6
CONTINUOUS
10
5.58288
20
-4.27241
11
5.58306
21
-4.27423
0
LINE
8
BLACK
6
CONTINUOUS
10
5.58306
20
-4.27423
11
5.58306
21
-4.29293
0
LINE
8
BLACK
6
CONTINUOUS
10
5.58306
20
-4.29293
11
5.58288
21
-4.29476
0
LINE
8
BLACK
6
CONTINUOUS
10
5.58288
20
-4.29476
11
5.58235
21
-4.29651
0
LINE
8
BLACK
6
CONTINUOUS
10
5.58235
20
-4.29651
11
5.58149
21
-4.29813
0
LINE
8
BLACK
6
CONTINUOUS
10
5.58149
20
-4.29813
11
5.58032
21
-4.29954
0
LINE
8
BLACK
6
CONTINUOUS
10
5.58032
20
-4.29954
11
5.57891
21
-4.30071
0
LINE
8
BLACK
6
CONTINUOUS
10
5.57891
20
-4.30071
11
5.57729
21
-4.30157
0
LINE
8
BLACK
6
CONTINUOUS
10
5.57729
20
-4.30157
11
5.57554
21
-4.3021
0
LINE
8
BLACK
6
CONTINUOUS
10
5.57554
20
-4.3021
11
5.57371
21
-4.30228
0
LINE
8
BLACK
6
CONTINUOUS
10
5.57371
20
-4.30228
11
5.55107
21
-4.30228
0
LINE
8
BLACK
6
CONTINUOUS
10
5.55107
20
-4.30228
11
5.54925
21
-4.3021
0
LINE
8
BLACK
6
CONTINUOUS
10
5.54925
20
-4.3021
11
5.5475
21
-4.30157
0
LINE
8
BLACK
6
CONTINUOUS
10
5.5475
20
-4.30157
11
5.54588
21
-4.30071
0
LINE
8
BLACK
6
CONTINUOUS
10
5.54588
20
-4.30071
11
5.54446
21
-4.29954
0
LINE
8
BLACK
6
CONTINUOUS
10
5.54446
20
-4.29954
11
5.5433
21
-4.29813
0
LINE
8
BLACK
6
CONTINUOUS
10
5.5433
20
-4.29813
11
5.54244
21
-4.29651
0
LINE
8
BLACK
6
CONTINUOUS
10
5.54244
20
-4.29651
11
5.5419
21
-4.29476
0
LINE
8
BLACK
6
CONTINUOUS
10
5.5419
20
-4.29476
11
5.54172
21
-4.29293
0
LINE
8
BLACK
6
CONTINUOUS
10
5.54172
20
-4.29293
11
5.54172
21
-4.27423
0
LINE
8
BLACK
6
CONTINUOUS
10
5.54172
20
-4.27423
11
5.5419
21
-4.27241
0
LINE
8
BLACK
6
CONTINUOUS
10
5.5419
20
-4.27241
11
5.54244
21
-4.27065
0
LINE
8
BLACK
6
CONTINUOUS
10
5.54244
20
-4.27065
11
5.5433
21
-4.26904
0
LINE
8
BLACK
6
CONTINUOUS
10
5.5433
20
-4.26904
11
5.54446
21
-4.26762
0
LINE
8
BLACK
6
CONTINUOUS
10
5.54446
20
-4.26762
11
5.54588
21
-4.26646
0
LINE
8
BLACK
6
CONTINUOUS
10
5.54588
20
-4.26646
11
5.5475
21
-4.26559
0
LINE
8
BLACK
6
CONTINUOUS
10
5.5475
20
-4.26559
11
5.54925
21
-4.26506
0
LINE
8
BLACK
6
CONTINUOUS
10
5.54925
20
-4.26506
11
5.55107
21
-4.26488
0
LINE
8
BLACK
6
CONTINUOUS
10
5.55107
20
-4.26488
11
5.57371
21
-4.26488
0
LINE
8
BLACK
6
CONTINUOUS
10
5.57371
20
-4.26488
11
5.57554
21
-4.26506
0
LINE
8
BLACK
6
CONTINUOUS
10
5.50664
20
-4.26506
11
5.50839
21
-4.26559
0
LINE
8
BLACK
6
CONTINUOUS
10
5.50839
20
-4.26559
11
5.51001
21
-4.26646
0
LINE
8
BLACK
6
CONTINUOUS
10
5.51001
20
-4.26646
11
5.51143
21
-4.26762
0
LINE
8
BLACK
6
CONTINUOUS
10
5.51143
20
-4.26762
11
5.51259
21
-4.26904
0
LINE
8
BLACK
6
CONTINUOUS
10
5.51259
20
-4.26904
11
5.51345
21
-4.27065
0
LINE
8
BLACK
6
CONTINUOUS
10
5.51345
20
-4.27065
11
5.51399
21
-4.27241
0
LINE
8
BLACK
6
CONTINUOUS
10
5.51399
20
-4.27241
11
5.51417
21
-4.27423
0
LINE
8
BLACK
6
CONTINUOUS
10
5.51417
20
-4.27423
11
5.51417
21
-4.29293
0
LINE
8
BLACK
6
CONTINUOUS
10
5.51417
20
-4.29293
11
5.51399
21
-4.29476
0
LINE
8
BLACK
6
CONTINUOUS
10
5.51399
20
-4.29476
11
5.51345
21
-4.29651
0
LINE
8
BLACK
6
CONTINUOUS
10
5.51345
20
-4.29651
11
5.51259
21
-4.29813
0
LINE
8
BLACK
6
CONTINUOUS
10
5.51259
20
-4.29813
11
5.51143
21
-4.29954
0
LINE
8
BLACK
6
CONTINUOUS
10
5.51143
20
-4.29954
11
5.51001
21
-4.30071
0
LINE
8
BLACK
6
CONTINUOUS
10
5.51001
20
-4.30071
11
5.50839
21
-4.30157
0
LINE
8
BLACK
6
CONTINUOUS
10
5.50839
20
-4.30157
11
5.50664
21
-4.3021
0
LINE
8
BLACK
6
CONTINUOUS
10
5.50664
20
-4.3021
11
5.50481
21
-4.30228
0
LINE
8
BLACK
6
CONTINUOUS
10
5.50481
20
-4.30228
11
5.48218
21
-4.30228
0
LINE
8
BLACK
6
CONTINUOUS
10
5.48218
20
-4.30228
11
5.48035
21
-4.3021
0
LINE
8
BLACK
6
CONTINUOUS
10
5.48035
20
-4.3021
11
5.4786
21
-4.30157
0
LINE
8
BLACK
6
CONTINUOUS
10
5.4786
20
-4.30157
11
5.47698
21
-4.30071
0
LINE
8
BLACK
6
CONTINUOUS
10
5.47698
20
-4.30071
11
5.47557
21
-4.29954
0
LINE
8
BLACK
6
CONTINUOUS
10
5.47557
20
-4.29954
11
5.4744
21
-4.29813
0
LINE
8
BLACK
6
CONTINUOUS
10
5.4744
20
-4.29813
11
5.47354
21
-4.29651
0
LINE
8
BLACK
6
CONTINUOUS
10
5.47354
20
-4.29651
11
5.47301
21
-4.29476
0
LINE
8
BLACK
6
CONTINUOUS
10
5.47301
20
-4.29476
11
5.47283
21
-4.29293
0
LINE
8
BLACK
6
CONTINUOUS
10
5.47283
20
-4.29293
11
5.47283
21
-4.27423
0
LINE
8
BLACK
6
CONTINUOUS
10
5.47283
20
-4.27423
11
5.47301
21
-4.27241
0
LINE
8
BLACK
6
CONTINUOUS
10
5.47301
20
-4.27241
11
5.47354
21
-4.27065
0
LINE
8
BLACK
6
CONTINUOUS
10
5.47354
20
-4.27065
11
5.4744
21
-4.26904
0
LINE
8
BLACK
6
CONTINUOUS
10
5.4744
20
-4.26904
11
5.47557
21
-4.26762
0
LINE
8
BLACK
6
CONTINUOUS
10
5.47557
20
-4.26762
11
5.47698
21
-4.26646
0
LINE
8
BLACK
6
CONTINUOUS
10
5.47698
20
-4.26646
11
5.4786
21
-4.26559
0
LINE
8
BLACK
6
CONTINUOUS
10
5.4786
20
-4.26559
11
5.48035
21
-4.26506
0
LINE
8
BLACK
6
CONTINUOUS
10
5.48035
20
-4.26506
11
5.48218
21
-4.26488
0
LINE
8
BLACK
6
CONTINUOUS
10
5.48218
20
-4.26488
11
5.50481
21
-4.26488
0
LINE
8
BLACK
6
CONTINUOUS
10
5.50481
20
-4.26488
11
5.50664
21
-4.26506
  0
ENDSEC
  0
EOF
