  0
SECTION
  2
HEADER
  9
$ANGBASE
  50
0.0
  9
$ANGDIR
  70
1
  9
$MEASUREMENT
  70
0
  0
ENDSEC
  0
SECTION
  2
TABLES
  0
TABLE
  2
LTYPE
  70
4
  0
LTYPE
  5
40F
  2
CONTINUOUS
  70
0
  3
Solid line
  72
65
  73
0
  40
0.0
  0
LTYPE
  5
410
  2
DASHDOT
 70
0
  3
Dash Dot ____ _ ____ _
 72
65
 73
4
 40
2.0
 49
1.25
 49
-0.25
 49
0.25
 49
-0.25
  0
LTYPE
  5
411
  2
DASHED
 70
0
  3
Dashed __ __ __ __ __
 72
65
 73
2
 40
0.75
 49
0.5
 49
-0.25
  0
LTYPE
  5
43B
  2
DOTTED
 70
0
  3
Dotted .  .  .  .
 72
65
 73
2
 40
0.2
 49
0.0
 49
-0.2
  0
ENDTAB
  0
TABLE
  2
STYLE
  70
4
  0
STYLE
  2
KICAD
  70
0
  40
0
  41
1
  42
1
  50
0
  71
0
  3
isocp.shx
  0
STYLE
  2
KICADB
  70
0
  40
0
  41
1
  42
1
  50
0
  71
0
  3
isocp.shx
  0
STYLE
  2
KICADI
  70
0
  40
0
  41
1
  42
1
  50
15
  71
0
  3
isocp.shx
  0
STYLE
  2
KICADBI
  70
0
  40
0
  41
1
  42
1
  50
15
  71
0
  3
isocp.shx
  0
ENDTAB
  0
TABLE
  2
LAYER
  70
1
  0
LAYER
  2
BLACK
  70
0
  62
7
  6
CONTINUOUS
  0
ENDTAB
  0
ENDSEC
  0
SECTION
  2
ENTITIES
0
LINE
8
BLACK
6
CONTINUOUS
10
5.89678
20
-5.66317
11
5.89827
21
-5.66358
0
LINE
8
BLACK
6
CONTINUOUS
10
5.89827
20
-5.66358
11
5.89966
21
-5.66428
0
LINE
8
BLACK
6
CONTINUOUS
10
5.89966
20
-5.66428
11
5.90087
21
-5.66524
0
LINE
8
BLACK
6
CONTINUOUS
10
5.90087
20
-5.66524
11
5.90204
21
-5.6666
0
LINE
8
BLACK
6
CONTINUOUS
10
5.90204
20
-5.6666
11
5.92658
21
-5.70165
0
LINE
8
BLACK
6
CONTINUOUS
10
5.92658
20
-5.70165
11
5.92746
21
-5.70321
0
LINE
8
BLACK
6
CONTINUOUS
10
5.92746
20
-5.70321
11
5.92794
21
-5.70468
0
LINE
8
BLACK
6
CONTINUOUS
10
5.92794
20
-5.70468
11
5.92813
21
-5.70622
0
LINE
8
BLACK
6
CONTINUOUS
10
5.92813
20
-5.70622
11
5.92801
21
-5.70777
0
LINE
8
BLACK
6
CONTINUOUS
10
5.92801
20
-5.70777
11
5.92759
21
-5.70926
0
LINE
8
BLACK
6
CONTINUOUS
10
5.92759
20
-5.70926
11
5.92689
21
-5.71065
0
LINE
8
BLACK
6
CONTINUOUS
10
5.92689
20
-5.71065
11
5.92594
21
-5.71187
0
LINE
8
BLACK
6
CONTINUOUS
10
5.92594
20
-5.71187
11
5.92457
21
-5.71303
0
LINE
8
BLACK
6
CONTINUOUS
10
5.92457
20
-5.71303
11
5.89759
21
-5.73193
0
LINE
8
BLACK
6
CONTINUOUS
10
5.89759
20
-5.73193
11
5.89603
21
-5.73281
0
LINE
8
BLACK
6
CONTINUOUS
10
5.89603
20
-5.73281
11
5.89455
21
-5.73329
0
LINE
8
BLACK
6
CONTINUOUS
10
5.89455
20
-5.73329
11
5.89301
21
-5.73348
0
LINE
8
BLACK
6
CONTINUOUS
10
5.89301
20
-5.73348
11
5.89147
21
-5.73336
0
LINE
8
BLACK
6
CONTINUOUS
10
5.89147
20
-5.73336
11
5.88998
21
-5.73294
0
LINE
8
BLACK
6
CONTINUOUS
10
5.88998
20
-5.73294
11
5.88859
21
-5.73224
0
LINE
8
BLACK
6
CONTINUOUS
10
5.88859
20
-5.73224
11
5.88737
21
-5.73128
0
LINE
8
BLACK
6
CONTINUOUS
10
5.88737
20
-5.73128
11
5.8862
21
-5.72992
0
LINE
8
BLACK
6
CONTINUOUS
10
5.8862
20
-5.72992
11
5.86167
21
-5.69487
0
LINE
8
BLACK
6
CONTINUOUS
10
5.86167
20
-5.69487
11
5.86079
21
-5.69331
0
LINE
8
BLACK
6
CONTINUOUS
10
5.86079
20
-5.69331
11
5.8603
21
-5.69184
0
LINE
8
BLACK
6
CONTINUOUS
10
5.8603
20
-5.69184
11
5.86012
21
-5.6903
0
LINE
8
BLACK
6
CONTINUOUS
10
5.86012
20
-5.6903
11
5.86024
21
-5.68875
0
LINE
8
BLACK
6
CONTINUOUS
10
5.86024
20
-5.68875
11
5.86065
21
-5.68726
0
LINE
8
BLACK
6
CONTINUOUS
10
5.86065
20
-5.68726
11
5.86135
21
-5.68588
0
LINE
8
BLACK
6
CONTINUOUS
10
5.86135
20
-5.68588
11
5.86231
21
-5.68466
0
LINE
8
BLACK
6
CONTINUOUS
10
5.86231
20
-5.68466
11
5.86367
21
-5.68349
0
LINE
8
BLACK
6
CONTINUOUS
10
5.86367
20
-5.68349
11
5.89066
21
-5.66459
0
LINE
8
BLACK
6
CONTINUOUS
10
5.89066
20
-5.66459
11
5.89222
21
-5.66371
0
LINE
8
BLACK
6
CONTINUOUS
10
5.89222
20
-5.66371
11
5.89369
21
-5.66323
0
LINE
8
BLACK
6
CONTINUOUS
10
5.89369
20
-5.66323
11
5.89523
21
-5.66305
0
LINE
8
BLACK
6
CONTINUOUS
10
5.89523
20
-5.66305
11
5.89678
21
-5.66317
0
LINE
8
BLACK
6
CONTINUOUS
10
6.16206
20
-5.6102
11
6.1629
21
-5.61042
0
LINE
8
BLACK
6
CONTINUOUS
10
6.1629
20
-5.61042
11
6.16369
21
-5.61079
0
LINE
8
BLACK
6
CONTINUOUS
10
6.16369
20
-5.61079
11
6.16438
21
-5.61131
0
LINE
8
BLACK
6
CONTINUOUS
10
6.16438
20
-5.61131
11
6.16496
21
-5.61196
0
LINE
8
BLACK
6
CONTINUOUS
10
6.16496
20
-5.61196
11
6.16552
21
-5.61291
0
LINE
8
BLACK
6
CONTINUOUS
10
6.16552
20
-5.61291
11
6.16646
21
-5.61492
0
LINE
8
BLACK
6
CONTINUOUS
10
6.16646
20
-5.61492
11
6.16646
21
-5.61492
0
LINE
8
BLACK
6
CONTINUOUS
10
6.16646
20
-5.61492
11
6.19476
21
-5.67562
0
LINE
8
BLACK
6
CONTINUOUS
10
6.19476
20
-5.67562
11
6.19476
21
-5.67562
0
LINE
8
BLACK
6
CONTINUOUS
10
6.19476
20
-5.67562
11
6.1957
21
-5.67763
0
LINE
8
BLACK
6
CONTINUOUS
10
6.1957
20
-5.67763
11
6.19607
21
-5.67868
0
LINE
8
BLACK
6
CONTINUOUS
10
6.19607
20
-5.67868
11
6.19619
21
-5.67953
0
LINE
8
BLACK
6
CONTINUOUS
10
6.19619
20
-5.67953
11
6.19615
21
-5.6804
0
LINE
8
BLACK
6
CONTINUOUS
10
6.19615
20
-5.6804
11
6.19593
21
-5.68124
0
LINE
8
BLACK
6
CONTINUOUS
10
6.19593
20
-5.68124
11
6.19556
21
-5.68202
0
LINE
8
BLACK
6
CONTINUOUS
10
6.19556
20
-5.68202
11
6.19503
21
-5.68272
0
LINE
8
BLACK
6
CONTINUOUS
10
6.19503
20
-5.68272
11
6.19439
21
-5.6833
0
LINE
8
BLACK
6
CONTINUOUS
10
6.19439
20
-5.6833
11
6.19343
21
-5.68386
0
LINE
8
BLACK
6
CONTINUOUS
10
6.19343
20
-5.68386
11
6.19142
21
-5.6848
0
LINE
8
BLACK
6
CONTINUOUS
10
6.19142
20
-5.6848
11
6.19142
21
-5.6848
0
LINE
8
BLACK
6
CONTINUOUS
10
6.19142
20
-5.6848
11
6.1789
21
-5.69064
0
LINE
8
BLACK
6
CONTINUOUS
10
6.1789
20
-5.69064
11
6.1789
21
-5.69064
0
LINE
8
BLACK
6
CONTINUOUS
10
6.1789
20
-5.69064
11
6.17689
21
-5.69158
0
LINE
8
BLACK
6
CONTINUOUS
10
6.17689
20
-5.69158
11
6.17584
21
-5.69195
0
LINE
8
BLACK
6
CONTINUOUS
10
6.17584
20
-5.69195
11
6.17498
21
-5.69207
0
LINE
8
BLACK
6
CONTINUOUS
10
6.17498
20
-5.69207
11
6.17411
21
-5.69202
0
LINE
8
BLACK
6
CONTINUOUS
10
6.17411
20
-5.69202
11
6.17327
21
-5.69181
0
LINE
8
BLACK
6
CONTINUOUS
10
6.17327
20
-5.69181
11
6.17249
21
-5.69143
0
LINE
8
BLACK
6
CONTINUOUS
10
6.17249
20
-5.69143
11
6.1718
21
-5.69091
0
LINE
8
BLACK
6
CONTINUOUS
10
6.1718
20
-5.69091
11
6.17122
21
-5.69026
0
LINE
8
BLACK
6
CONTINUOUS
10
6.17122
20
-5.69026
11
6.17065
21
-5.68931
0
LINE
8
BLACK
6
CONTINUOUS
10
6.17065
20
-5.68931
11
6.16972
21
-5.6873
0
LINE
8
BLACK
6
CONTINUOUS
10
6.16972
20
-5.6873
11
6.16972
21
-5.6873
0
LINE
8
BLACK
6
CONTINUOUS
10
6.16972
20
-5.6873
11
6.14141
21
-5.6266
0
LINE
8
BLACK
6
CONTINUOUS
10
6.14141
20
-5.6266
11
6.14141
21
-5.6266
0
LINE
8
BLACK
6
CONTINUOUS
10
6.14141
20
-5.6266
11
6.14048
21
-5.62459
0
LINE
8
BLACK
6
CONTINUOUS
10
6.14048
20
-5.62459
11
6.14011
21
-5.62354
0
LINE
8
BLACK
6
CONTINUOUS
10
6.14011
20
-5.62354
11
6.13999
21
-5.62269
0
LINE
8
BLACK
6
CONTINUOUS
10
6.13999
20
-5.62269
11
6.14003
21
-5.62182
0
LINE
8
BLACK
6
CONTINUOUS
10
6.14003
20
-5.62182
11
6.14025
21
-5.62098
0
LINE
8
BLACK
6
CONTINUOUS
10
6.14025
20
-5.62098
11
6.14062
21
-5.6202
0
LINE
8
BLACK
6
CONTINUOUS
10
6.14062
20
-5.6202
11
6.14114
21
-5.6195
0
LINE
8
BLACK
6
CONTINUOUS
10
6.14114
20
-5.6195
11
6.14179
21
-5.61892
0
LINE
8
BLACK
6
CONTINUOUS
10
6.14179
20
-5.61892
11
6.14274
21
-5.61836
0
LINE
8
BLACK
6
CONTINUOUS
10
6.14274
20
-5.61836
11
6.14476
21
-5.61742
0
LINE
8
BLACK
6
CONTINUOUS
10
6.14476
20
-5.61742
11
6.14476
21
-5.61742
0
LINE
8
BLACK
6
CONTINUOUS
10
6.14476
20
-5.61742
11
6.15728
21
-5.61158
0
LINE
8
BLACK
6
CONTINUOUS
10
6.15728
20
-5.61158
11
6.15728
21
-5.61158
0
LINE
8
BLACK
6
CONTINUOUS
10
6.15728
20
-5.61158
11
6.15929
21
-5.61064
0
LINE
8
BLACK
6
CONTINUOUS
10
6.15929
20
-5.61064
11
6.16034
21
-5.61027
0
LINE
8
BLACK
6
CONTINUOUS
10
6.16034
20
-5.61027
11
6.1612
21
-5.61015
0
LINE
8
BLACK
6
CONTINUOUS
10
6.1612
20
-5.61015
11
6.16206
21
-5.6102
0
LINE
8
BLACK
6
CONTINUOUS
10
5.96289
20
-5.61687
11
5.96438
21
-5.61729
0
LINE
8
BLACK
6
CONTINUOUS
10
5.96438
20
-5.61729
11
5.96577
21
-5.61799
0
LINE
8
BLACK
6
CONTINUOUS
10
5.96577
20
-5.61799
11
5.96699
21
-5.61895
0
LINE
8
BLACK
6
CONTINUOUS
10
5.96699
20
-5.61895
11
5.96816
21
-5.62031
0
LINE
8
BLACK
6
CONTINUOUS
10
5.96816
20
-5.62031
11
5.99269
21
-5.65536
0
LINE
8
BLACK
6
CONTINUOUS
10
5.99269
20
-5.65536
11
5.99357
21
-5.65692
0
LINE
8
BLACK
6
CONTINUOUS
10
5.99357
20
-5.65692
11
5.99406
21
-5.65839
0
LINE
8
BLACK
6
CONTINUOUS
10
5.99406
20
-5.65839
11
5.99424
21
-5.65993
0
LINE
8
BLACK
6
CONTINUOUS
10
5.99424
20
-5.65993
11
5.99412
21
-5.66148
0
LINE
8
BLACK
6
CONTINUOUS
10
5.99412
20
-5.66148
11
5.99371
21
-5.66297
0
LINE
8
BLACK
6
CONTINUOUS
10
5.99371
20
-5.66297
11
5.99301
21
-5.66435
0
LINE
8
BLACK
6
CONTINUOUS
10
5.99301
20
-5.66435
11
5.99205
21
-5.66557
0
LINE
8
BLACK
6
CONTINUOUS
10
5.99205
20
-5.66557
11
5.99069
21
-5.66674
0
LINE
8
BLACK
6
CONTINUOUS
10
5.99069
20
-5.66674
11
5.9637
21
-5.68564
0
LINE
8
BLACK
6
CONTINUOUS
10
5.9637
20
-5.68564
11
5.96214
21
-5.68651
0
LINE
8
BLACK
6
CONTINUOUS
10
5.96214
20
-5.68651
11
5.96067
21
-5.687
0
LINE
8
BLACK
6
CONTINUOUS
10
5.96067
20
-5.687
11
5.95913
21
-5.68718
0
LINE
8
BLACK
6
CONTINUOUS
10
5.95913
20
-5.68718
11
5.95758
21
-5.68706
0
LINE
8
BLACK
6
CONTINUOUS
10
5.95758
20
-5.68706
11
5.95609
21
-5.68665
0
LINE
8
BLACK
6
CONTINUOUS
10
5.95609
20
-5.68665
11
5.9547
21
-5.68595
0
LINE
8
BLACK
6
CONTINUOUS
10
5.9547
20
-5.68595
11
5.95348
21
-5.68499
0
LINE
8
BLACK
6
CONTINUOUS
10
5.95348
20
-5.68499
11
5.95232
21
-5.68363
0
LINE
8
BLACK
6
CONTINUOUS
10
5.95232
20
-5.68363
11
5.92778
21
-5.64858
0
LINE
8
BLACK
6
CONTINUOUS
10
5.92778
20
-5.64858
11
5.9269
21
-5.64702
0
LINE
8
BLACK
6
CONTINUOUS
10
5.9269
20
-5.64702
11
5.92642
21
-5.64555
0
LINE
8
BLACK
6
CONTINUOUS
10
5.92642
20
-5.64555
11
5.92623
21
-5.64401
0
LINE
8
BLACK
6
CONTINUOUS
10
5.92623
20
-5.64401
11
5.92635
21
-5.64246
0
LINE
8
BLACK
6
CONTINUOUS
10
5.92635
20
-5.64246
11
5.92677
21
-5.64097
0
LINE
8
BLACK
6
CONTINUOUS
10
5.92677
20
-5.64097
11
5.92747
21
-5.63958
0
LINE
8
BLACK
6
CONTINUOUS
10
5.92747
20
-5.63958
11
5.92842
21
-5.63836
0
LINE
8
BLACK
6
CONTINUOUS
10
5.92842
20
-5.63836
11
5.92979
21
-5.6372
0
LINE
8
BLACK
6
CONTINUOUS
10
5.92979
20
-5.6372
11
5.95677
21
-5.6183
0
LINE
8
BLACK
6
CONTINUOUS
10
5.95677
20
-5.6183
11
5.95833
21
-5.61742
0
LINE
8
BLACK
6
CONTINUOUS
10
5.95833
20
-5.61742
11
5.95981
21
-5.61694
0
LINE
8
BLACK
6
CONTINUOUS
10
5.95981
20
-5.61694
11
5.96134
21
-5.61675
0
LINE
8
BLACK
6
CONTINUOUS
10
5.96134
20
-5.61675
11
5.96289
21
-5.61687
0
LINE
8
BLACK
6
CONTINUOUS
10
6.20738
20
-5.58907
11
6.20822
21
-5.58928
0
LINE
8
BLACK
6
CONTINUOUS
10
6.20822
20
-5.58928
11
6.209
21
-5.58966
0
LINE
8
BLACK
6
CONTINUOUS
10
6.209
20
-5.58966
11
6.2097
21
-5.59018
0
LINE
8
BLACK
6
CONTINUOUS
10
6.2097
20
-5.59018
11
6.21027
21
-5.59083
0
LINE
8
BLACK
6
CONTINUOUS
10
6.21027
20
-5.59083
11
6.21084
21
-5.59178
0
LINE
8
BLACK
6
CONTINUOUS
10
6.21084
20
-5.59178
11
6.21178
21
-5.59379
0
LINE
8
BLACK
6
CONTINUOUS
10
6.21178
20
-5.59379
11
6.21178
21
-5.59379
0
LINE
8
BLACK
6
CONTINUOUS
10
6.21178
20
-5.59379
11
6.24008
21
-5.65449
0
LINE
8
BLACK
6
CONTINUOUS
10
6.24008
20
-5.65449
11
6.24008
21
-5.65449
0
LINE
8
BLACK
6
CONTINUOUS
10
6.24008
20
-5.65449
11
6.24102
21
-5.6565
0
LINE
8
BLACK
6
CONTINUOUS
10
6.24102
20
-5.6565
11
6.24139
21
-5.65754
0
LINE
8
BLACK
6
CONTINUOUS
10
6.24139
20
-5.65754
11
6.24151
21
-5.6584
0
LINE
8
BLACK
6
CONTINUOUS
10
6.24151
20
-5.6584
11
6.24146
21
-5.65927
0
LINE
8
BLACK
6
CONTINUOUS
10
6.24146
20
-5.65927
11
6.24125
21
-5.66011
0
LINE
8
BLACK
6
CONTINUOUS
10
6.24125
20
-5.66011
11
6.24087
21
-5.66089
0
LINE
8
BLACK
6
CONTINUOUS
10
6.24087
20
-5.66089
11
6.24035
21
-5.66159
0
LINE
8
BLACK
6
CONTINUOUS
10
6.24035
20
-5.66159
11
6.2397
21
-5.66217
0
LINE
8
BLACK
6
CONTINUOUS
10
6.2397
20
-5.66217
11
6.23875
21
-5.66273
0
LINE
8
BLACK
6
CONTINUOUS
10
6.23875
20
-5.66273
11
6.23674
21
-5.66367
0
LINE
8
BLACK
6
CONTINUOUS
10
6.23674
20
-5.66367
11
6.23674
21
-5.66367
0
LINE
8
BLACK
6
CONTINUOUS
10
6.23674
20
-5.66367
11
6.22421
21
-5.66951
0
LINE
8
BLACK
6
CONTINUOUS
10
6.22421
20
-5.66951
11
6.22421
21
-5.66951
0
LINE
8
BLACK
6
CONTINUOUS
10
6.22421
20
-5.66951
11
6.2222
21
-5.67045
0
LINE
8
BLACK
6
CONTINUOUS
10
6.2222
20
-5.67045
11
6.22116
21
-5.67081
0
LINE
8
BLACK
6
CONTINUOUS
10
6.22116
20
-5.67081
11
6.2203
21
-5.67094
0
LINE
8
BLACK
6
CONTINUOUS
10
6.2203
20
-5.67094
11
6.21943
21
-5.67089
0
LINE
8
BLACK
6
CONTINUOUS
10
6.21943
20
-5.67089
11
6.21859
21
-5.67067
0
LINE
8
BLACK
6
CONTINUOUS
10
6.21859
20
-5.67067
11
6.21781
21
-5.6703
0
LINE
8
BLACK
6
CONTINUOUS
10
6.21781
20
-5.6703
11
6.21711
21
-5.66978
0
LINE
8
BLACK
6
CONTINUOUS
10
6.21711
20
-5.66978
11
6.21653
21
-5.66913
0
LINE
8
BLACK
6
CONTINUOUS
10
6.21653
20
-5.66913
11
6.21597
21
-5.66818
0
LINE
8
BLACK
6
CONTINUOUS
10
6.21597
20
-5.66818
11
6.21503
21
-5.66617
0
LINE
8
BLACK
6
CONTINUOUS
10
6.21503
20
-5.66617
11
6.21503
21
-5.66617
0
LINE
8
BLACK
6
CONTINUOUS
10
6.21503
20
-5.66617
11
6.18673
21
-5.60547
0
LINE
8
BLACK
6
CONTINUOUS
10
6.18673
20
-5.60547
11
6.18673
21
-5.60547
0
LINE
8
BLACK
6
CONTINUOUS
10
6.18673
20
-5.60547
11
6.18579
21
-5.60346
0
LINE
8
BLACK
6
CONTINUOUS
10
6.18579
20
-5.60346
11
6.18542
21
-5.60241
0
LINE
8
BLACK
6
CONTINUOUS
10
6.18542
20
-5.60241
11
6.1853
21
-5.60156
0
LINE
8
BLACK
6
CONTINUOUS
10
6.1853
20
-5.60156
11
6.18535
21
-5.60069
0
LINE
8
BLACK
6
CONTINUOUS
10
6.18535
20
-5.60069
11
6.18556
21
-5.59985
0
LINE
8
BLACK
6
CONTINUOUS
10
6.18556
20
-5.59985
11
6.18594
21
-5.59907
0
LINE
8
BLACK
6
CONTINUOUS
10
6.18594
20
-5.59907
11
6.18646
21
-5.59837
0
LINE
8
BLACK
6
CONTINUOUS
10
6.18646
20
-5.59837
11
6.1871
21
-5.59779
0
LINE
8
BLACK
6
CONTINUOUS
10
6.1871
20
-5.59779
11
6.18806
21
-5.59723
0
LINE
8
BLACK
6
CONTINUOUS
10
6.18806
20
-5.59723
11
6.19007
21
-5.59629
0
LINE
8
BLACK
6
CONTINUOUS
10
6.19007
20
-5.59629
11
6.19007
21
-5.59629
0
LINE
8
BLACK
6
CONTINUOUS
10
6.19007
20
-5.59629
11
6.2026
21
-5.59045
0
LINE
8
BLACK
6
CONTINUOUS
10
6.2026
20
-5.59045
11
6.2026
21
-5.59045
0
LINE
8
BLACK
6
CONTINUOUS
10
6.2026
20
-5.59045
11
6.20461
21
-5.58951
0
LINE
8
BLACK
6
CONTINUOUS
10
6.20461
20
-5.58951
11
6.20565
21
-5.58914
0
LINE
8
BLACK
6
CONTINUOUS
10
6.20565
20
-5.58914
11
6.20651
21
-5.58902
0
LINE
8
BLACK
6
CONTINUOUS
10
6.20651
20
-5.58902
11
6.20738
21
-5.58907
0
LINE
8
BLACK
6
CONTINUOUS
10
6.25269
20
-5.56794
11
6.25353
21
-5.56815
0
LINE
8
BLACK
6
CONTINUOUS
10
6.25353
20
-5.56815
11
6.25432
21
-5.56853
0
LINE
8
BLACK
6
CONTINUOUS
10
6.25432
20
-5.56853
11
6.25501
21
-5.56905
0
LINE
8
BLACK
6
CONTINUOUS
10
6.25501
20
-5.56905
11
6.25559
21
-5.56969
0
LINE
8
BLACK
6
CONTINUOUS
10
6.25559
20
-5.56969
11
6.25616
21
-5.57065
0
LINE
8
BLACK
6
CONTINUOUS
10
6.25616
20
-5.57065
11
6.25709
21
-5.57266
0
LINE
8
BLACK
6
CONTINUOUS
10
6.25709
20
-5.57266
11
6.25709
21
-5.57266
0
LINE
8
BLACK
6
CONTINUOUS
10
6.25709
20
-5.57266
11
6.2854
21
-5.63336
0
LINE
8
BLACK
6
CONTINUOUS
10
6.2854
20
-5.63336
11
6.2854
21
-5.63336
0
LINE
8
BLACK
6
CONTINUOUS
10
6.2854
20
-5.63336
11
6.28633
21
-5.63537
0
LINE
8
BLACK
6
CONTINUOUS
10
6.28633
20
-5.63537
11
6.2867
21
-5.63641
0
LINE
8
BLACK
6
CONTINUOUS
10
6.2867
20
-5.63641
11
6.28682
21
-5.63727
0
LINE
8
BLACK
6
CONTINUOUS
10
6.28682
20
-5.63727
11
6.28678
21
-5.63814
0
LINE
8
BLACK
6
CONTINUOUS
10
6.28678
20
-5.63814
11
6.28656
21
-5.63898
0
LINE
8
BLACK
6
CONTINUOUS
10
6.28656
20
-5.63898
11
6.28619
21
-5.63976
0
LINE
8
BLACK
6
CONTINUOUS
10
6.28619
20
-5.63976
11
6.28567
21
-5.64045
0
LINE
8
BLACK
6
CONTINUOUS
10
6.28567
20
-5.64045
11
6.28502
21
-5.64103
0
LINE
8
BLACK
6
CONTINUOUS
10
6.28502
20
-5.64103
11
6.28406
21
-5.6416
0
LINE
8
BLACK
6
CONTINUOUS
10
6.28406
20
-5.6416
11
6.28205
21
-5.64254
0
LINE
8
BLACK
6
CONTINUOUS
10
6.28205
20
-5.64254
11
6.28205
21
-5.64254
0
LINE
8
BLACK
6
CONTINUOUS
10
6.28205
20
-5.64254
11
6.26953
21
-5.64838
0
LINE
8
BLACK
6
CONTINUOUS
10
6.26953
20
-5.64838
11
6.26953
21
-5.64838
0
LINE
8
BLACK
6
CONTINUOUS
10
6.26953
20
-5.64838
11
6.26752
21
-5.64932
0
LINE
8
BLACK
6
CONTINUOUS
10
6.26752
20
-5.64932
11
6.26647
21
-5.64968
0
LINE
8
BLACK
6
CONTINUOUS
10
6.26647
20
-5.64968
11
6.26561
21
-5.64981
0
LINE
8
BLACK
6
CONTINUOUS
10
6.26561
20
-5.64981
11
6.26475
21
-5.64976
0
LINE
8
BLACK
6
CONTINUOUS
10
6.26475
20
-5.64976
11
6.26391
21
-5.64954
0
LINE
8
BLACK
6
CONTINUOUS
10
6.26391
20
-5.64954
11
6.26312
21
-5.64917
0
LINE
8
BLACK
6
CONTINUOUS
10
6.26312
20
-5.64917
11
6.26243
21
-5.64865
0
LINE
8
BLACK
6
CONTINUOUS
10
6.26243
20
-5.64865
11
6.26185
21
-5.648
0
LINE
8
BLACK
6
CONTINUOUS
10
6.26185
20
-5.648
11
6.26128
21
-5.64705
0
LINE
8
BLACK
6
CONTINUOUS
10
6.26128
20
-5.64705
11
6.26035
21
-5.64504
0
LINE
8
BLACK
6
CONTINUOUS
10
6.26035
20
-5.64504
11
6.26035
21
-5.64504
0
LINE
8
BLACK
6
CONTINUOUS
10
6.26035
20
-5.64504
11
6.23204
21
-5.58434
0
LINE
8
BLACK
6
CONTINUOUS
10
6.23204
20
-5.58434
11
6.23204
21
-5.58434
0
LINE
8
BLACK
6
CONTINUOUS
10
6.23204
20
-5.58434
11
6.23111
21
-5.58233
0
LINE
8
BLACK
6
CONTINUOUS
10
6.23111
20
-5.58233
11
6.23074
21
-5.58128
0
LINE
8
BLACK
6
CONTINUOUS
10
6.23074
20
-5.58128
11
6.23062
21
-5.58042
0
LINE
8
BLACK
6
CONTINUOUS
10
6.23062
20
-5.58042
11
6.23066
21
-5.57956
0
LINE
8
BLACK
6
CONTINUOUS
10
6.23066
20
-5.57956
11
6.23088
21
-5.57872
0
LINE
8
BLACK
6
CONTINUOUS
10
6.23088
20
-5.57872
11
6.23125
21
-5.57794
0
LINE
8
BLACK
6
CONTINUOUS
10
6.23125
20
-5.57794
11
6.23177
21
-5.57724
0
LINE
8
BLACK
6
CONTINUOUS
10
6.23177
20
-5.57724
11
6.23242
21
-5.57666
0
LINE
8
BLACK
6
CONTINUOUS
10
6.23242
20
-5.57666
11
6.23338
21
-5.5761
0
LINE
8
BLACK
6
CONTINUOUS
10
6.23338
20
-5.5761
11
6.23539
21
-5.57516
0
LINE
8
BLACK
6
CONTINUOUS
10
6.23539
20
-5.57516
11
6.23539
21
-5.57516
0
LINE
8
BLACK
6
CONTINUOUS
10
6.23539
20
-5.57516
11
6.24791
21
-5.56932
0
LINE
8
BLACK
6
CONTINUOUS
10
6.24791
20
-5.56932
11
6.24791
21
-5.56932
0
LINE
8
BLACK
6
CONTINUOUS
10
6.24791
20
-5.56932
11
6.24992
21
-5.56838
0
LINE
8
BLACK
6
CONTINUOUS
10
6.24992
20
-5.56838
11
6.25097
21
-5.56801
0
LINE
8
BLACK
6
CONTINUOUS
10
6.25097
20
-5.56801
11
6.25183
21
-5.56789
0
LINE
8
BLACK
6
CONTINUOUS
10
6.25183
20
-5.56789
11
6.25269
21
-5.56794
0
LINE
8
BLACK
6
CONTINUOUS
10
6.29801
20
-5.54681
11
6.29885
21
-5.54702
0
LINE
8
BLACK
6
CONTINUOUS
10
6.29885
20
-5.54702
11
6.29963
21
-5.5474
0
LINE
8
BLACK
6
CONTINUOUS
10
6.29963
20
-5.5474
11
6.30033
21
-5.54792
0
LINE
8
BLACK
6
CONTINUOUS
10
6.30033
20
-5.54792
11
6.30091
21
-5.54856
0
LINE
8
BLACK
6
CONTINUOUS
10
6.30091
20
-5.54856
11
6.30147
21
-5.54952
0
LINE
8
BLACK
6
CONTINUOUS
10
6.30147
20
-5.54952
11
6.30241
21
-5.55153
0
LINE
8
BLACK
6
CONTINUOUS
10
6.30241
20
-5.55153
11
6.30241
21
-5.55153
0
LINE
8
BLACK
6
CONTINUOUS
10
6.30241
20
-5.55153
11
6.33071
21
-5.61222
0
LINE
8
BLACK
6
CONTINUOUS
10
6.33071
20
-5.61222
11
6.33071
21
-5.61222
0
LINE
8
BLACK
6
CONTINUOUS
10
6.33071
20
-5.61222
11
6.33165
21
-5.61424
0
LINE
8
BLACK
6
CONTINUOUS
10
6.33165
20
-5.61424
11
6.33202
21
-5.61528
0
LINE
8
BLACK
6
CONTINUOUS
10
6.33202
20
-5.61528
11
6.33214
21
-5.61614
0
LINE
8
BLACK
6
CONTINUOUS
10
6.33214
20
-5.61614
11
6.33209
21
-5.61701
0
LINE
8
BLACK
6
CONTINUOUS
10
6.33209
20
-5.61701
11
6.33188
21
-5.61785
0
LINE
8
BLACK
6
CONTINUOUS
10
6.33188
20
-5.61785
11
6.3315
21
-5.61863
0
LINE
8
BLACK
6
CONTINUOUS
10
6.3315
20
-5.61863
11
6.33098
21
-5.61932
0
LINE
8
BLACK
6
CONTINUOUS
10
6.33098
20
-5.61932
11
6.33033
21
-5.6199
0
LINE
8
BLACK
6
CONTINUOUS
10
6.33033
20
-5.6199
11
6.32938
21
-5.62047
0
LINE
8
BLACK
6
CONTINUOUS
10
6.32938
20
-5.62047
11
6.32737
21
-5.62141
0
LINE
8
BLACK
6
CONTINUOUS
10
6.32737
20
-5.62141
11
6.32737
21
-5.62141
0
LINE
8
BLACK
6
CONTINUOUS
10
6.32737
20
-5.62141
11
6.31484
21
-5.62725
0
LINE
8
BLACK
6
CONTINUOUS
10
6.31484
20
-5.62725
11
6.31484
21
-5.62725
0
LINE
8
BLACK
6
CONTINUOUS
10
6.31484
20
-5.62725
11
6.31283
21
-5.62818
0
LINE
8
BLACK
6
CONTINUOUS
10
6.31283
20
-5.62818
11
6.31179
21
-5.62855
0
LINE
8
BLACK
6
CONTINUOUS
10
6.31179
20
-5.62855
11
6.31093
21
-5.62868
0
LINE
8
BLACK
6
CONTINUOUS
10
6.31093
20
-5.62868
11
6.31006
21
-5.62863
0
LINE
8
BLACK
6
CONTINUOUS
10
6.31006
20
-5.62863
11
6.30922
21
-5.62841
0
LINE
8
BLACK
6
CONTINUOUS
10
6.30922
20
-5.62841
11
6.30844
21
-5.62804
0
LINE
8
BLACK
6
CONTINUOUS
10
6.30844
20
-5.62804
11
6.30774
21
-5.62752
0
LINE
8
BLACK
6
CONTINUOUS
10
6.30774
20
-5.62752
11
6.30717
21
-5.62687
0
LINE
8
BLACK
6
CONTINUOUS
10
6.30717
20
-5.62687
11
6.3066
21
-5.62592
0
LINE
8
BLACK
6
CONTINUOUS
10
6.3066
20
-5.62592
11
6.30566
21
-5.6239
0
LINE
8
BLACK
6
CONTINUOUS
10
6.30566
20
-5.6239
11
6.30566
21
-5.6239
0
LINE
8
BLACK
6
CONTINUOUS
10
6.30566
20
-5.6239
11
6.27736
21
-5.56321
0
LINE
8
BLACK
6
CONTINUOUS
10
6.27736
20
-5.56321
11
6.27736
21
-5.56321
0
LINE
8
BLACK
6
CONTINUOUS
10
6.27736
20
-5.56321
11
6.27642
21
-5.5612
0
LINE
8
BLACK
6
CONTINUOUS
10
6.27642
20
-5.5612
11
6.27605
21
-5.56015
0
LINE
8
BLACK
6
CONTINUOUS
10
6.27605
20
-5.56015
11
6.27593
21
-5.55929
0
LINE
8
BLACK
6
CONTINUOUS
10
6.27593
20
-5.55929
11
6.27598
21
-5.55843
0
LINE
8
BLACK
6
CONTINUOUS
10
6.27598
20
-5.55843
11
6.27619
21
-5.55759
0
LINE
8
BLACK
6
CONTINUOUS
10
6.27619
20
-5.55759
11
6.27657
21
-5.5568
0
LINE
8
BLACK
6
CONTINUOUS
10
6.27657
20
-5.5568
11
6.27709
21
-5.55611
0
LINE
8
BLACK
6
CONTINUOUS
10
6.27709
20
-5.55611
11
6.27774
21
-5.55553
0
LINE
8
BLACK
6
CONTINUOUS
10
6.27774
20
-5.55553
11
6.27869
21
-5.55497
0
LINE
8
BLACK
6
CONTINUOUS
10
6.27869
20
-5.55497
11
6.2807
21
-5.55403
0
LINE
8
BLACK
6
CONTINUOUS
10
6.2807
20
-5.55403
11
6.2807
21
-5.55403
0
LINE
8
BLACK
6
CONTINUOUS
10
6.2807
20
-5.55403
11
6.29323
21
-5.54819
0
LINE
8
BLACK
6
CONTINUOUS
10
6.29323
20
-5.54819
11
6.29323
21
-5.54819
0
LINE
8
BLACK
6
CONTINUOUS
10
6.29323
20
-5.54819
11
6.29524
21
-5.54725
0
LINE
8
BLACK
6
CONTINUOUS
10
6.29524
20
-5.54725
11
6.29628
21
-5.54688
0
LINE
8
BLACK
6
CONTINUOUS
10
6.29628
20
-5.54688
11
6.29714
21
-5.54676
0
LINE
8
BLACK
6
CONTINUOUS
10
6.29714
20
-5.54676
11
6.29801
21
-5.54681
0
LINE
8
BLACK
6
CONTINUOUS
10
6.46863
20
-5.42565
11
6.47053
21
-5.42623
0
LINE
8
BLACK
6
CONTINUOUS
10
6.47053
20
-5.42623
11
6.47458
21
-5.42746
0
LINE
8
BLACK
6
CONTINUOUS
10
6.47458
20
-5.42746
11
6.47649
21
-5.42848
0
LINE
8
BLACK
6
CONTINUOUS
10
6.47649
20
-5.42848
11
6.48006
21
-5.43039
0
LINE
8
BLACK
6
CONTINUOUS
10
6.48006
20
-5.43039
11
6.48366
21
-5.43334
0
LINE
8
BLACK
6
CONTINUOUS
10
6.48366
20
-5.43334
11
6.51647
21
-5.46615
0
LINE
8
BLACK
6
CONTINUOUS
10
6.51647
20
-5.46615
11
6.51942
21
-5.46975
0
LINE
8
BLACK
6
CONTINUOUS
10
6.51942
20
-5.46975
11
6.52083
21
-5.4724
0
LINE
8
BLACK
6
CONTINUOUS
10
6.52083
20
-5.4724
11
6.52235
21
-5.47523
0
LINE
8
BLACK
6
CONTINUOUS
10
6.52235
20
-5.47523
11
6.52415
21
-5.48117
0
LINE
8
BLACK
6
CONTINUOUS
10
6.52415
20
-5.48117
11
6.52476
21
-5.48736
0
LINE
8
BLACK
6
CONTINUOUS
10
6.52476
20
-5.48736
11
6.52415
21
-5.49354
0
LINE
8
BLACK
6
CONTINUOUS
10
6.52415
20
-5.49354
11
6.52235
21
-5.49948
0
LINE
8
BLACK
6
CONTINUOUS
10
6.52235
20
-5.49948
11
6.52235
21
-5.49948
0
LINE
8
BLACK
6
CONTINUOUS
10
6.52235
20
-5.49948
11
6.51942
21
-5.50496
0
LINE
8
BLACK
6
CONTINUOUS
10
6.51942
20
-5.50496
11
6.51898
21
-5.5055
0
LINE
8
BLACK
6
CONTINUOUS
10
6.51898
20
-5.5055
11
6.51548
21
-5.50976
0
LINE
8
BLACK
6
CONTINUOUS
10
6.51548
20
-5.50976
11
6.51295
21
-5.51184
0
LINE
8
BLACK
6
CONTINUOUS
10
6.51295
20
-5.51184
11
6.51068
21
-5.5137
0
LINE
8
BLACK
6
CONTINUOUS
10
6.51068
20
-5.5137
11
6.50742
21
-5.51545
0
LINE
8
BLACK
6
CONTINUOUS
10
6.50742
20
-5.51545
11
6.5052
21
-5.51663
0
LINE
8
BLACK
6
CONTINUOUS
10
6.5052
20
-5.51663
11
6.49926
21
-5.51844
0
LINE
8
BLACK
6
CONTINUOUS
10
6.49926
20
-5.51844
11
6.49307
21
-5.51904
0
LINE
8
BLACK
6
CONTINUOUS
10
6.49307
20
-5.51904
11
6.48689
21
-5.51844
0
LINE
8
BLACK
6
CONTINUOUS
10
6.48689
20
-5.51844
11
6.48095
21
-5.51663
0
LINE
8
BLACK
6
CONTINUOUS
10
6.48095
20
-5.51663
11
6.47821
21
-5.51517
0
LINE
8
BLACK
6
CONTINUOUS
10
6.47821
20
-5.51517
11
6.47547
21
-5.5137
0
LINE
8
BLACK
6
CONTINUOUS
10
6.47547
20
-5.5137
11
6.47187
21
-5.51075
0
LINE
8
BLACK
6
CONTINUOUS
10
6.47187
20
-5.51075
11
6.43906
21
-5.47794
0
LINE
8
BLACK
6
CONTINUOUS
10
6.43906
20
-5.47794
11
6.4361
21
-5.47434
0
LINE
8
BLACK
6
CONTINUOUS
10
6.4361
20
-5.47434
11
6.43401
21
-5.47042
0
LINE
8
BLACK
6
CONTINUOUS
10
6.43401
20
-5.47042
11
6.43318
21
-5.46886
0
LINE
8
BLACK
6
CONTINUOUS
10
6.43318
20
-5.46886
11
6.43165
21
-5.46383
0
LINE
8
BLACK
6
CONTINUOUS
10
6.43165
20
-5.46383
11
6.43137
21
-5.46292
0
LINE
8
BLACK
6
CONTINUOUS
10
6.43137
20
-5.46292
11
6.43076
21
-5.45673
0
LINE
8
BLACK
6
CONTINUOUS
10
6.43076
20
-5.45673
11
6.43137
21
-5.45055
0
LINE
8
BLACK
6
CONTINUOUS
10
6.43137
20
-5.45055
11
6.43312
21
-5.44478
0
LINE
8
BLACK
6
CONTINUOUS
10
6.43312
20
-5.44478
11
6.43318
21
-5.44461
0
LINE
8
BLACK
6
CONTINUOUS
10
6.43318
20
-5.44461
11
6.43441
21
-5.4423
0
LINE
8
BLACK
6
CONTINUOUS
10
6.43441
20
-5.4423
11
6.4361
21
-5.43913
0
LINE
8
BLACK
6
CONTINUOUS
10
6.4361
20
-5.43913
11
6.43795
21
-5.43688
0
LINE
8
BLACK
6
CONTINUOUS
10
6.43795
20
-5.43688
11
6.44004
21
-5.43433
0
LINE
8
BLACK
6
CONTINUOUS
10
6.44004
20
-5.43433
11
6.44335
21
-5.43162
0
LINE
8
BLACK
6
CONTINUOUS
10
6.44335
20
-5.43162
11
6.44485
21
-5.43039
0
LINE
8
BLACK
6
CONTINUOUS
10
6.44485
20
-5.43039
11
6.44842
21
-5.42848
0
LINE
8
BLACK
6
CONTINUOUS
10
6.44842
20
-5.42848
11
6.45032
21
-5.42746
0
LINE
8
BLACK
6
CONTINUOUS
10
6.45032
20
-5.42746
11
6.45437
21
-5.42623
0
LINE
8
BLACK
6
CONTINUOUS
10
6.45437
20
-5.42623
11
6.45627
21
-5.42565
0
LINE
8
BLACK
6
CONTINUOUS
10
6.45627
20
-5.42565
11
6.46245
21
-5.42505
0
LINE
8
BLACK
6
CONTINUOUS
10
6.46245
20
-5.42505
11
6.46863
21
-5.42565
0
LINE
8
BLACK
6
CONTINUOUS
10
5.35475
20
-5.42565
11
5.3607
21
-5.42746
0
LINE
8
BLACK
6
CONTINUOUS
10
5.3607
20
-5.42746
11
5.36244
21
-5.42839
0
LINE
8
BLACK
6
CONTINUOUS
10
5.36244
20
-5.42839
11
5.36618
21
-5.43039
0
LINE
8
BLACK
6
CONTINUOUS
10
5.36618
20
-5.43039
11
5.36768
21
-5.43162
0
LINE
8
BLACK
6
CONTINUOUS
10
5.36768
20
-5.43162
11
5.37098
21
-5.43433
0
LINE
8
BLACK
6
CONTINUOUS
10
5.37098
20
-5.43433
11
5.37307
21
-5.43688
0
LINE
8
BLACK
6
CONTINUOUS
10
5.37307
20
-5.43688
11
5.37492
21
-5.43913
0
LINE
8
BLACK
6
CONTINUOUS
10
5.37492
20
-5.43913
11
5.37604
21
-5.44123
0
LINE
8
BLACK
6
CONTINUOUS
10
5.37604
20
-5.44123
11
5.37785
21
-5.44461
0
LINE
8
BLACK
6
CONTINUOUS
10
5.37785
20
-5.44461
11
5.37965
21
-5.45055
0
LINE
8
BLACK
6
CONTINUOUS
10
5.37965
20
-5.45055
11
5.38026
21
-5.45673
0
LINE
8
BLACK
6
CONTINUOUS
10
5.38026
20
-5.45673
11
5.37965
21
-5.46292
0
LINE
8
BLACK
6
CONTINUOUS
10
5.37965
20
-5.46292
11
5.37785
21
-5.46886
0
LINE
8
BLACK
6
CONTINUOUS
10
5.37785
20
-5.46886
11
5.3765
21
-5.47138
0
LINE
8
BLACK
6
CONTINUOUS
10
5.3765
20
-5.47138
11
5.37492
21
-5.47434
0
LINE
8
BLACK
6
CONTINUOUS
10
5.37492
20
-5.47434
11
5.37197
21
-5.47794
0
LINE
8
BLACK
6
CONTINUOUS
10
5.37197
20
-5.47794
11
5.33915
21
-5.51075
0
LINE
8
BLACK
6
CONTINUOUS
10
5.33915
20
-5.51075
11
5.33555
21
-5.5137
0
LINE
8
BLACK
6
CONTINUOUS
10
5.33555
20
-5.5137
11
5.33253
21
-5.51532
0
LINE
8
BLACK
6
CONTINUOUS
10
5.33253
20
-5.51532
11
5.33008
21
-5.51663
0
LINE
8
BLACK
6
CONTINUOUS
10
5.33008
20
-5.51663
11
5.3271
21
-5.51753
0
LINE
8
BLACK
6
CONTINUOUS
10
5.3271
20
-5.51753
11
5.32413
21
-5.51844
0
LINE
8
BLACK
6
CONTINUOUS
10
5.32413
20
-5.51844
11
5.31795
21
-5.51904
0
LINE
8
BLACK
6
CONTINUOUS
10
5.31795
20
-5.51904
11
5.31177
21
-5.51844
0
LINE
8
BLACK
6
CONTINUOUS
10
5.31177
20
-5.51844
11
5.3088
21
-5.51753
0
LINE
8
BLACK
6
CONTINUOUS
10
5.3088
20
-5.51753
11
5.30582
21
-5.51663
0
LINE
8
BLACK
6
CONTINUOUS
10
5.30582
20
-5.51663
11
5.30337
21
-5.51532
0
LINE
8
BLACK
6
CONTINUOUS
10
5.30337
20
-5.51532
11
5.30034
21
-5.5137
0
LINE
8
BLACK
6
CONTINUOUS
10
5.30034
20
-5.5137
11
5.29807
21
-5.51184
0
LINE
8
BLACK
6
CONTINUOUS
10
5.29807
20
-5.51184
11
5.29554
21
-5.50976
0
LINE
8
BLACK
6
CONTINUOUS
10
5.29554
20
-5.50976
11
5.29204
21
-5.5055
0
LINE
8
BLACK
6
CONTINUOUS
10
5.29204
20
-5.5055
11
5.2916
21
-5.50496
0
LINE
8
BLACK
6
CONTINUOUS
10
5.2916
20
-5.50496
11
5.2891
21
-5.50027
0
LINE
8
BLACK
6
CONTINUOUS
10
5.2891
20
-5.50027
11
5.28867
21
-5.49948
0
LINE
8
BLACK
6
CONTINUOUS
10
5.28867
20
-5.49948
11
5.28707
21
-5.49419
0
LINE
8
BLACK
6
CONTINUOUS
10
5.28707
20
-5.49419
11
5.28687
21
-5.49354
0
LINE
8
BLACK
6
CONTINUOUS
10
5.28687
20
-5.49354
11
5.28626
21
-5.48736
0
LINE
8
BLACK
6
CONTINUOUS
10
5.28626
20
-5.48736
11
5.28687
21
-5.48117
0
LINE
8
BLACK
6
CONTINUOUS
10
5.28687
20
-5.48117
11
5.28785
21
-5.47794
0
LINE
8
BLACK
6
CONTINUOUS
10
5.28785
20
-5.47794
11
5.28867
21
-5.47523
0
LINE
8
BLACK
6
CONTINUOUS
10
5.28867
20
-5.47523
11
5.29003
21
-5.47269
0
LINE
8
BLACK
6
CONTINUOUS
10
5.29003
20
-5.47269
11
5.2916
21
-5.46975
0
LINE
8
BLACK
6
CONTINUOUS
10
5.2916
20
-5.46975
11
5.29456
21
-5.46615
0
LINE
8
BLACK
6
CONTINUOUS
10
5.29456
20
-5.46615
11
5.32737
21
-5.43334
0
LINE
8
BLACK
6
CONTINUOUS
10
5.32737
20
-5.43334
11
5.33097
21
-5.43039
0
LINE
8
BLACK
6
CONTINUOUS
10
5.33097
20
-5.43039
11
5.33384
21
-5.42885
0
LINE
8
BLACK
6
CONTINUOUS
10
5.33384
20
-5.42885
11
5.33645
21
-5.42746
0
LINE
8
BLACK
6
CONTINUOUS
10
5.33645
20
-5.42746
11
5.34239
21
-5.42565
0
LINE
8
BLACK
6
CONTINUOUS
10
5.34239
20
-5.42565
11
5.34857
21
-5.42505
0
LINE
8
BLACK
6
CONTINUOUS
10
5.34857
20
-5.42505
11
5.35475
21
-5.42565
0
LINE
8
BLACK
6
CONTINUOUS
10
6.0797
20
-5.43358
11
6.08054
21
-5.43379
0
LINE
8
BLACK
6
CONTINUOUS
10
6.08054
20
-5.43379
11
6.08133
21
-5.43417
0
LINE
8
BLACK
6
CONTINUOUS
10
6.08133
20
-5.43417
11
6.08202
21
-5.43469
0
LINE
8
BLACK
6
CONTINUOUS
10
6.08202
20
-5.43469
11
6.0826
21
-5.43533
0
LINE
8
BLACK
6
CONTINUOUS
10
6.0826
20
-5.43533
11
6.08316
21
-5.43629
0
LINE
8
BLACK
6
CONTINUOUS
10
6.08316
20
-5.43629
11
6.0841
21
-5.4383
0
LINE
8
BLACK
6
CONTINUOUS
10
6.0841
20
-5.4383
11
6.0841
21
-5.4383
0
LINE
8
BLACK
6
CONTINUOUS
10
6.0841
20
-5.4383
11
6.1124
21
-5.49899
0
LINE
8
BLACK
6
CONTINUOUS
10
6.1124
20
-5.49899
11
6.1124
21
-5.49899
0
LINE
8
BLACK
6
CONTINUOUS
10
6.1124
20
-5.49899
11
6.11334
21
-5.50101
0
LINE
8
BLACK
6
CONTINUOUS
10
6.11334
20
-5.50101
11
6.11371
21
-5.50205
0
LINE
8
BLACK
6
CONTINUOUS
10
6.11371
20
-5.50205
11
6.11383
21
-5.50291
0
LINE
8
BLACK
6
CONTINUOUS
10
6.11383
20
-5.50291
11
6.11379
21
-5.50378
0
LINE
8
BLACK
6
CONTINUOUS
10
6.11379
20
-5.50378
11
6.11357
21
-5.50462
0
LINE
8
BLACK
6
CONTINUOUS
10
6.11357
20
-5.50462
11
6.11319
21
-5.5054
0
LINE
8
BLACK
6
CONTINUOUS
10
6.11319
20
-5.5054
11
6.11267
21
-5.50609
0
LINE
8
BLACK
6
CONTINUOUS
10
6.11267
20
-5.50609
11
6.11203
21
-5.50667
0
LINE
8
BLACK
6
CONTINUOUS
10
6.11203
20
-5.50667
11
6.11107
21
-5.50724
0
LINE
8
BLACK
6
CONTINUOUS
10
6.11107
20
-5.50724
11
6.10906
21
-5.50818
0
LINE
8
BLACK
6
CONTINUOUS
10
6.10906
20
-5.50818
11
6.10906
21
-5.50818
0
LINE
8
BLACK
6
CONTINUOUS
10
6.10906
20
-5.50818
11
6.09654
21
-5.51402
0
LINE
8
BLACK
6
CONTINUOUS
10
6.09654
20
-5.51402
11
6.09654
21
-5.51402
0
LINE
8
BLACK
6
CONTINUOUS
10
6.09654
20
-5.51402
11
6.09453
21
-5.51495
0
LINE
8
BLACK
6
CONTINUOUS
10
6.09453
20
-5.51495
11
6.09348
21
-5.51532
0
LINE
8
BLACK
6
CONTINUOUS
10
6.09348
20
-5.51532
11
6.09262
21
-5.51545
0
LINE
8
BLACK
6
CONTINUOUS
10
6.09262
20
-5.51545
11
6.09175
21
-5.5154
0
LINE
8
BLACK
6
CONTINUOUS
10
6.09175
20
-5.5154
11
6.09091
21
-5.51518
0
LINE
8
BLACK
6
CONTINUOUS
10
6.09091
20
-5.51518
11
6.09013
21
-5.51481
0
LINE
8
BLACK
6
CONTINUOUS
10
6.09013
20
-5.51481
11
6.08944
21
-5.51429
0
LINE
8
BLACK
6
CONTINUOUS
10
6.08944
20
-5.51429
11
6.08886
21
-5.51364
0
LINE
8
BLACK
6
CONTINUOUS
10
6.08886
20
-5.51364
11
6.08829
21
-5.51269
0
LINE
8
BLACK
6
CONTINUOUS
10
6.08829
20
-5.51269
11
6.08736
21
-5.51067
0
LINE
8
BLACK
6
CONTINUOUS
10
6.08736
20
-5.51067
11
6.08736
21
-5.51067
0
LINE
8
BLACK
6
CONTINUOUS
10
6.08736
20
-5.51067
11
6.05905
21
-5.44998
0
LINE
8
BLACK
6
CONTINUOUS
10
6.05905
20
-5.44998
11
6.05905
21
-5.44998
0
LINE
8
BLACK
6
CONTINUOUS
10
6.05905
20
-5.44998
11
6.05812
21
-5.44797
0
LINE
8
BLACK
6
CONTINUOUS
10
6.05812
20
-5.44797
11
6.05775
21
-5.44692
0
LINE
8
BLACK
6
CONTINUOUS
10
6.05775
20
-5.44692
11
6.05762
21
-5.44606
0
LINE
8
BLACK
6
CONTINUOUS
10
6.05762
20
-5.44606
11
6.05767
21
-5.4452
0
LINE
8
BLACK
6
CONTINUOUS
10
6.05767
20
-5.4452
11
6.05789
21
-5.44436
0
LINE
8
BLACK
6
CONTINUOUS
10
6.05789
20
-5.44436
11
6.05826
21
-5.44357
0
LINE
8
BLACK
6
CONTINUOUS
10
6.05826
20
-5.44357
11
6.05878
21
-5.44288
0
LINE
8
BLACK
6
CONTINUOUS
10
6.05878
20
-5.44288
11
6.05943
21
-5.4423
0
LINE
8
BLACK
6
CONTINUOUS
10
6.05943
20
-5.4423
11
6.06038
21
-5.44174
0
LINE
8
BLACK
6
CONTINUOUS
10
6.06038
20
-5.44174
11
6.06239
21
-5.4408
0
LINE
8
BLACK
6
CONTINUOUS
10
6.06239
20
-5.4408
11
6.0624
21
-5.4408
0
LINE
8
BLACK
6
CONTINUOUS
10
6.0624
20
-5.4408
11
6.07492
21
-5.43496
0
LINE
8
BLACK
6
CONTINUOUS
10
6.07492
20
-5.43496
11
6.07492
21
-5.43496
0
LINE
8
BLACK
6
CONTINUOUS
10
6.07492
20
-5.43496
11
6.07693
21
-5.43402
0
LINE
8
BLACK
6
CONTINUOUS
10
6.07693
20
-5.43402
11
6.07798
21
-5.43365
0
LINE
8
BLACK
6
CONTINUOUS
10
6.07798
20
-5.43365
11
6.07884
21
-5.43353
0
LINE
8
BLACK
6
CONTINUOUS
10
6.07884
20
-5.43353
11
6.0797
21
-5.43358
0
LINE
8
BLACK
6
CONTINUOUS
10
6.12502
20
-5.41245
11
6.12586
21
-5.41266
0
LINE
8
BLACK
6
CONTINUOUS
10
6.12586
20
-5.41266
11
6.12664
21
-5.41304
0
LINE
8
BLACK
6
CONTINUOUS
10
6.12664
20
-5.41304
11
6.12733
21
-5.41356
0
LINE
8
BLACK
6
CONTINUOUS
10
6.12733
20
-5.41356
11
6.12791
21
-5.4142
0
LINE
8
BLACK
6
CONTINUOUS
10
6.12791
20
-5.4142
11
6.12848
21
-5.41516
0
LINE
8
BLACK
6
CONTINUOUS
10
6.12848
20
-5.41516
11
6.12942
21
-5.41717
0
LINE
8
BLACK
6
CONTINUOUS
10
6.12942
20
-5.41717
11
6.12942
21
-5.41717
0
LINE
8
BLACK
6
CONTINUOUS
10
6.12942
20
-5.41717
11
6.15772
21
-5.47786
0
LINE
8
BLACK
6
CONTINUOUS
10
6.15772
20
-5.47786
11
6.15772
21
-5.47786
0
LINE
8
BLACK
6
CONTINUOUS
10
6.15772
20
-5.47786
11
6.15866
21
-5.47987
0
LINE
8
BLACK
6
CONTINUOUS
10
6.15866
20
-5.47987
11
6.15903
21
-5.48092
0
LINE
8
BLACK
6
CONTINUOUS
10
6.15903
20
-5.48092
11
6.15915
21
-5.48178
0
LINE
8
BLACK
6
CONTINUOUS
10
6.15915
20
-5.48178
11
6.1591
21
-5.48265
0
LINE
8
BLACK
6
CONTINUOUS
10
6.1591
20
-5.48265
11
6.15889
21
-5.48349
0
LINE
8
BLACK
6
CONTINUOUS
10
6.15889
20
-5.48349
11
6.15851
21
-5.48427
0
LINE
8
BLACK
6
CONTINUOUS
10
6.15851
20
-5.48427
11
6.15799
21
-5.48496
0
LINE
8
BLACK
6
CONTINUOUS
10
6.15799
20
-5.48496
11
6.15734
21
-5.48554
0
LINE
8
BLACK
6
CONTINUOUS
10
6.15734
20
-5.48554
11
6.15639
21
-5.48611
0
LINE
8
BLACK
6
CONTINUOUS
10
6.15639
20
-5.48611
11
6.15438
21
-5.48705
0
LINE
8
BLACK
6
CONTINUOUS
10
6.15438
20
-5.48705
11
6.15438
21
-5.48705
0
LINE
8
BLACK
6
CONTINUOUS
10
6.15438
20
-5.48705
11
6.14185
21
-5.49289
0
LINE
8
BLACK
6
CONTINUOUS
10
6.14185
20
-5.49289
11
6.14185
21
-5.49289
0
LINE
8
BLACK
6
CONTINUOUS
10
6.14185
20
-5.49289
11
6.13984
21
-5.49382
0
LINE
8
BLACK
6
CONTINUOUS
10
6.13984
20
-5.49382
11
6.13879
21
-5.49419
0
LINE
8
BLACK
6
CONTINUOUS
10
6.13879
20
-5.49419
11
6.13794
21
-5.49431
0
LINE
8
BLACK
6
CONTINUOUS
10
6.13794
20
-5.49431
11
6.13707
21
-5.49427
0
LINE
8
BLACK
6
CONTINUOUS
10
6.13707
20
-5.49427
11
6.13623
21
-5.49405
0
LINE
8
BLACK
6
CONTINUOUS
10
6.13623
20
-5.49405
11
6.13545
21
-5.49368
0
LINE
8
BLACK
6
CONTINUOUS
10
6.13545
20
-5.49368
11
6.13475
21
-5.49316
0
LINE
8
BLACK
6
CONTINUOUS
10
6.13475
20
-5.49316
11
6.13417
21
-5.49251
0
LINE
8
BLACK
6
CONTINUOUS
10
6.13417
20
-5.49251
11
6.13361
21
-5.49155
0
LINE
8
BLACK
6
CONTINUOUS
10
6.13361
20
-5.49155
11
6.13267
21
-5.48954
0
LINE
8
BLACK
6
CONTINUOUS
10
6.13267
20
-5.48954
11
6.13267
21
-5.48954
0
LINE
8
BLACK
6
CONTINUOUS
10
6.13267
20
-5.48954
11
6.10437
21
-5.42885
0
LINE
8
BLACK
6
CONTINUOUS
10
6.10437
20
-5.42885
11
6.10437
21
-5.42885
0
LINE
8
BLACK
6
CONTINUOUS
10
6.10437
20
-5.42885
11
6.10343
21
-5.42684
0
LINE
8
BLACK
6
CONTINUOUS
10
6.10343
20
-5.42684
11
6.10306
21
-5.42579
0
LINE
8
BLACK
6
CONTINUOUS
10
6.10306
20
-5.42579
11
6.10294
21
-5.42493
0
LINE
8
BLACK
6
CONTINUOUS
10
6.10294
20
-5.42493
11
6.10299
21
-5.42407
0
LINE
8
BLACK
6
CONTINUOUS
10
6.10299
20
-5.42407
11
6.1032
21
-5.42323
0
LINE
8
BLACK
6
CONTINUOUS
10
6.1032
20
-5.42323
11
6.10358
21
-5.42244
0
LINE
8
BLACK
6
CONTINUOUS
10
6.10358
20
-5.42244
11
6.1041
21
-5.42175
0
LINE
8
BLACK
6
CONTINUOUS
10
6.1041
20
-5.42175
11
6.10474
21
-5.42117
0
LINE
8
BLACK
6
CONTINUOUS
10
6.10474
20
-5.42117
11
6.1057
21
-5.42061
0
LINE
8
BLACK
6
CONTINUOUS
10
6.1057
20
-5.42061
11
6.10771
21
-5.41967
0
LINE
8
BLACK
6
CONTINUOUS
10
6.10771
20
-5.41967
11
6.10771
21
-5.41967
0
LINE
8
BLACK
6
CONTINUOUS
10
6.10771
20
-5.41967
11
6.12023
21
-5.41383
0
LINE
8
BLACK
6
CONTINUOUS
10
6.12023
20
-5.41383
11
6.12024
21
-5.41383
0
LINE
8
BLACK
6
CONTINUOUS
10
6.12024
20
-5.41383
11
6.12225
21
-5.41289
0
LINE
8
BLACK
6
CONTINUOUS
10
6.12225
20
-5.41289
11
6.12329
21
-5.41252
0
LINE
8
BLACK
6
CONTINUOUS
10
6.12329
20
-5.41252
11
6.12415
21
-5.4124
0
LINE
8
BLACK
6
CONTINUOUS
10
6.12415
20
-5.4124
11
6.12502
21
-5.41245
0
LINE
8
BLACK
6
CONTINUOUS
10
6.17033
20
-5.39131
11
6.17117
21
-5.39153
0
LINE
8
BLACK
6
CONTINUOUS
10
6.17117
20
-5.39153
11
6.17196
21
-5.39191
0
LINE
8
BLACK
6
CONTINUOUS
10
6.17196
20
-5.39191
11
6.17265
21
-5.39243
0
LINE
8
BLACK
6
CONTINUOUS
10
6.17265
20
-5.39243
11
6.17323
21
-5.39307
0
LINE
8
BLACK
6
CONTINUOUS
10
6.17323
20
-5.39307
11
6.17379
21
-5.39403
0
LINE
8
BLACK
6
CONTINUOUS
10
6.17379
20
-5.39403
11
6.17473
21
-5.39604
0
LINE
8
BLACK
6
CONTINUOUS
10
6.17473
20
-5.39604
11
6.17473
21
-5.39604
0
LINE
8
BLACK
6
CONTINUOUS
10
6.17473
20
-5.39604
11
6.20303
21
-5.45673
0
LINE
8
BLACK
6
CONTINUOUS
10
6.20303
20
-5.45673
11
6.20303
21
-5.45673
0
LINE
8
BLACK
6
CONTINUOUS
10
6.20303
20
-5.45673
11
6.20397
21
-5.45874
0
LINE
8
BLACK
6
CONTINUOUS
10
6.20397
20
-5.45874
11
6.20434
21
-5.45979
0
LINE
8
BLACK
6
CONTINUOUS
10
6.20434
20
-5.45979
11
6.20446
21
-5.46065
0
LINE
8
BLACK
6
CONTINUOUS
10
6.20446
20
-5.46065
11
6.20442
21
-5.46152
0
LINE
8
BLACK
6
CONTINUOUS
10
6.20442
20
-5.46152
11
6.2042
21
-5.46236
0
LINE
8
BLACK
6
CONTINUOUS
10
6.2042
20
-5.46236
11
6.20383
21
-5.46314
0
LINE
8
BLACK
6
CONTINUOUS
10
6.20383
20
-5.46314
11
6.2033
21
-5.46383
0
LINE
8
BLACK
6
CONTINUOUS
10
6.2033
20
-5.46383
11
6.20266
21
-5.46441
0
LINE
8
BLACK
6
CONTINUOUS
10
6.20266
20
-5.46441
11
6.2017
21
-5.46498
0
LINE
8
BLACK
6
CONTINUOUS
10
6.2017
20
-5.46498
11
6.19969
21
-5.46591
0
LINE
8
BLACK
6
CONTINUOUS
10
6.19969
20
-5.46591
11
6.19969
21
-5.46591
0
LINE
8
BLACK
6
CONTINUOUS
10
6.19969
20
-5.46591
11
6.18717
21
-5.47175
0
LINE
8
BLACK
6
CONTINUOUS
10
6.18717
20
-5.47175
11
6.18717
21
-5.47175
0
LINE
8
BLACK
6
CONTINUOUS
10
6.18717
20
-5.47175
11
6.18516
21
-5.47269
0
LINE
8
BLACK
6
CONTINUOUS
10
6.18516
20
-5.47269
11
6.18411
21
-5.47306
0
LINE
8
BLACK
6
CONTINUOUS
10
6.18411
20
-5.47306
11
6.18325
21
-5.47318
0
LINE
8
BLACK
6
CONTINUOUS
10
6.18325
20
-5.47318
11
6.18238
21
-5.47314
0
LINE
8
BLACK
6
CONTINUOUS
10
6.18238
20
-5.47314
11
6.18154
21
-5.47292
0
LINE
8
BLACK
6
CONTINUOUS
10
6.18154
20
-5.47292
11
6.18076
21
-5.47255
0
LINE
8
BLACK
6
CONTINUOUS
10
6.18076
20
-5.47255
11
6.18007
21
-5.47203
0
LINE
8
BLACK
6
CONTINUOUS
10
6.18007
20
-5.47203
11
6.17949
21
-5.47138
0
LINE
8
BLACK
6
CONTINUOUS
10
6.17949
20
-5.47138
11
6.17892
21
-5.47042
0
LINE
8
BLACK
6
CONTINUOUS
10
6.17892
20
-5.47042
11
6.17799
21
-5.46841
0
LINE
8
BLACK
6
CONTINUOUS
10
6.17799
20
-5.46841
11
6.17799
21
-5.46841
0
LINE
8
BLACK
6
CONTINUOUS
10
6.17799
20
-5.46841
11
6.14968
21
-5.40772
0
LINE
8
BLACK
6
CONTINUOUS
10
6.14968
20
-5.40772
11
6.14968
21
-5.40772
0
LINE
8
BLACK
6
CONTINUOUS
10
6.14968
20
-5.40772
11
6.14875
21
-5.40571
0
LINE
8
BLACK
6
CONTINUOUS
10
6.14875
20
-5.40571
11
6.14838
21
-5.40466
0
LINE
8
BLACK
6
CONTINUOUS
10
6.14838
20
-5.40466
11
6.14826
21
-5.4038
0
LINE
8
BLACK
6
CONTINUOUS
10
6.14826
20
-5.4038
11
6.1483
21
-5.40294
0
LINE
8
BLACK
6
CONTINUOUS
10
6.1483
20
-5.40294
11
6.14852
21
-5.40209
0
LINE
8
BLACK
6
CONTINUOUS
10
6.14852
20
-5.40209
11
6.14889
21
-5.40131
0
LINE
8
BLACK
6
CONTINUOUS
10
6.14889
20
-5.40131
11
6.14941
21
-5.40062
0
LINE
8
BLACK
6
CONTINUOUS
10
6.14941
20
-5.40062
11
6.15006
21
-5.40004
0
LINE
8
BLACK
6
CONTINUOUS
10
6.15006
20
-5.40004
11
6.15101
21
-5.39947
0
LINE
8
BLACK
6
CONTINUOUS
10
6.15101
20
-5.39947
11
6.15303
21
-5.39854
0
LINE
8
BLACK
6
CONTINUOUS
10
6.15303
20
-5.39854
11
6.15303
21
-5.39854
0
LINE
8
BLACK
6
CONTINUOUS
10
6.15303
20
-5.39854
11
6.16555
21
-5.3927
0
LINE
8
BLACK
6
CONTINUOUS
10
6.16555
20
-5.3927
11
6.16555
21
-5.3927
0
LINE
8
BLACK
6
CONTINUOUS
10
6.16555
20
-5.3927
11
6.16756
21
-5.39176
0
LINE
8
BLACK
6
CONTINUOUS
10
6.16756
20
-5.39176
11
6.16861
21
-5.39139
0
LINE
8
BLACK
6
CONTINUOUS
10
6.16861
20
-5.39139
11
6.16947
21
-5.39127
0
LINE
8
BLACK
6
CONTINUOUS
10
6.16947
20
-5.39127
11
6.17033
21
-5.39131
0
LINE
8
BLACK
6
CONTINUOUS
10
6.21565
20
-5.37018
11
6.21649
21
-5.3704
0
LINE
8
BLACK
6
CONTINUOUS
10
6.21649
20
-5.3704
11
6.21727
21
-5.37077
0
LINE
8
BLACK
6
CONTINUOUS
10
6.21727
20
-5.37077
11
6.21797
21
-5.37129
0
LINE
8
BLACK
6
CONTINUOUS
10
6.21797
20
-5.37129
11
6.21854
21
-5.37194
0
LINE
8
BLACK
6
CONTINUOUS
10
6.21854
20
-5.37194
11
6.21911
21
-5.3729
0
LINE
8
BLACK
6
CONTINUOUS
10
6.21911
20
-5.3729
11
6.22005
21
-5.37491
0
LINE
8
BLACK
6
CONTINUOUS
10
6.22005
20
-5.37491
11
6.22005
21
-5.37491
0
LINE
8
BLACK
6
CONTINUOUS
10
6.22005
20
-5.37491
11
6.24835
21
-5.4356
0
LINE
8
BLACK
6
CONTINUOUS
10
6.24835
20
-5.4356
11
6.24835
21
-5.4356
0
LINE
8
BLACK
6
CONTINUOUS
10
6.24835
20
-5.4356
11
6.24929
21
-5.43761
0
LINE
8
BLACK
6
CONTINUOUS
10
6.24929
20
-5.43761
11
6.24966
21
-5.43866
0
LINE
8
BLACK
6
CONTINUOUS
10
6.24966
20
-5.43866
11
6.24978
21
-5.43952
0
LINE
8
BLACK
6
CONTINUOUS
10
6.24978
20
-5.43952
11
6.24973
21
-5.44038
0
LINE
8
BLACK
6
CONTINUOUS
10
6.24973
20
-5.44038
11
6.24952
21
-5.44123
0
LINE
8
BLACK
6
CONTINUOUS
10
6.24952
20
-5.44123
11
6.24914
21
-5.44201
0
LINE
8
BLACK
6
CONTINUOUS
10
6.24914
20
-5.44201
11
6.24862
21
-5.4427
0
LINE
8
BLACK
6
CONTINUOUS
10
6.24862
20
-5.4427
11
6.24797
21
-5.44328
0
LINE
8
BLACK
6
CONTINUOUS
10
6.24797
20
-5.44328
11
6.24702
21
-5.44385
0
LINE
8
BLACK
6
CONTINUOUS
10
6.24702
20
-5.44385
11
6.24501
21
-5.44478
0
LINE
8
BLACK
6
CONTINUOUS
10
6.24501
20
-5.44478
11
6.24501
21
-5.44478
0
LINE
8
BLACK
6
CONTINUOUS
10
6.24501
20
-5.44478
11
6.23248
21
-5.45062
0
LINE
8
BLACK
6
CONTINUOUS
10
6.23248
20
-5.45062
11
6.23248
21
-5.45062
0
LINE
8
BLACK
6
CONTINUOUS
10
6.23248
20
-5.45062
11
6.23047
21
-5.45156
0
LINE
8
BLACK
6
CONTINUOUS
10
6.23047
20
-5.45156
11
6.22943
21
-5.45193
0
LINE
8
BLACK
6
CONTINUOUS
10
6.22943
20
-5.45193
11
6.22857
21
-5.45205
0
LINE
8
BLACK
6
CONTINUOUS
10
6.22857
20
-5.45205
11
6.2277
21
-5.45201
0
LINE
8
BLACK
6
CONTINUOUS
10
6.2277
20
-5.45201
11
6.22686
21
-5.45179
0
LINE
8
BLACK
6
CONTINUOUS
10
6.22686
20
-5.45179
11
6.22608
21
-5.45141
0
LINE
8
BLACK
6
CONTINUOUS
10
6.22608
20
-5.45141
11
6.22538
21
-5.45089
0
LINE
8
BLACK
6
CONTINUOUS
10
6.22538
20
-5.45089
11
6.2248
21
-5.45025
0
LINE
8
BLACK
6
CONTINUOUS
10
6.2248
20
-5.45025
11
6.22424
21
-5.44929
0
LINE
8
BLACK
6
CONTINUOUS
10
6.22424
20
-5.44929
11
6.2233
21
-5.44728
0
LINE
8
BLACK
6
CONTINUOUS
10
6.2233
20
-5.44728
11
6.2233
21
-5.44728
0
LINE
8
BLACK
6
CONTINUOUS
10
6.2233
20
-5.44728
11
6.195
21
-5.38659
0
LINE
8
BLACK
6
CONTINUOUS
10
6.195
20
-5.38659
11
6.195
21
-5.38659
0
LINE
8
BLACK
6
CONTINUOUS
10
6.195
20
-5.38659
11
6.19406
21
-5.38458
0
LINE
8
BLACK
6
CONTINUOUS
10
6.19406
20
-5.38458
11
6.19369
21
-5.38353
0
LINE
8
BLACK
6
CONTINUOUS
10
6.19369
20
-5.38353
11
6.19357
21
-5.38267
0
LINE
8
BLACK
6
CONTINUOUS
10
6.19357
20
-5.38267
11
6.19362
21
-5.3818
0
LINE
8
BLACK
6
CONTINUOUS
10
6.19362
20
-5.3818
11
6.19383
21
-5.38096
0
LINE
8
BLACK
6
CONTINUOUS
10
6.19383
20
-5.38096
11
6.19421
21
-5.38018
0
LINE
8
BLACK
6
CONTINUOUS
10
6.19421
20
-5.38018
11
6.19473
21
-5.37949
0
LINE
8
BLACK
6
CONTINUOUS
10
6.19473
20
-5.37949
11
6.19538
21
-5.37891
0
LINE
8
BLACK
6
CONTINUOUS
10
6.19538
20
-5.37891
11
6.19633
21
-5.37834
0
LINE
8
BLACK
6
CONTINUOUS
10
6.19633
20
-5.37834
11
6.19834
21
-5.37741
0
LINE
8
BLACK
6
CONTINUOUS
10
6.19834
20
-5.37741
11
6.19834
21
-5.37741
0
LINE
8
BLACK
6
CONTINUOUS
10
6.19834
20
-5.37741
11
6.21087
21
-5.37157
0
LINE
8
BLACK
6
CONTINUOUS
10
6.21087
20
-5.37157
11
6.21087
21
-5.37157
0
LINE
8
BLACK
6
CONTINUOUS
10
6.21087
20
-5.37157
11
6.21288
21
-5.37063
0
LINE
8
BLACK
6
CONTINUOUS
10
6.21288
20
-5.37063
11
6.21392
21
-5.37026
0
LINE
8
BLACK
6
CONTINUOUS
10
6.21392
20
-5.37026
11
6.21478
21
-5.37014
0
LINE
8
BLACK
6
CONTINUOUS
10
6.21478
20
-5.37014
11
6.21565
21
-5.37018
0
LINE
8
BLACK
6
CONTINUOUS
10
5.92029
20
-5.31068
11
5.92447
21
-5.31151
0
LINE
8
BLACK
6
CONTINUOUS
10
5.92447
20
-5.31151
11
5.9363
21
-5.31641
0
LINE
8
BLACK
6
CONTINUOUS
10
5.9363
20
-5.31641
11
5.94695
21
-5.32353
0
LINE
8
BLACK
6
CONTINUOUS
10
5.94695
20
-5.32353
11
5.956
21
-5.33258
0
LINE
8
BLACK
6
CONTINUOUS
10
5.956
20
-5.33258
11
5.963
21
-5.34305
0
LINE
8
BLACK
6
CONTINUOUS
10
5.963
20
-5.34305
11
5.96311
21
-5.34323
0
LINE
8
BLACK
6
CONTINUOUS
10
5.96311
20
-5.34323
11
5.96455
21
-5.34669
0
LINE
8
BLACK
6
CONTINUOUS
10
5.96455
20
-5.34669
11
5.96755
21
-5.35394
0
LINE
8
BLACK
6
CONTINUOUS
10
5.96755
20
-5.35394
11
5.96801
21
-5.35506
0
LINE
8
BLACK
6
CONTINUOUS
10
5.96801
20
-5.35506
11
5.97051
21
-5.36761
0
LINE
8
BLACK
6
CONTINUOUS
10
5.97051
20
-5.36761
11
5.97051
21
-5.38042
0
LINE
8
BLACK
6
CONTINUOUS
10
5.97051
20
-5.38042
11
5.97008
21
-5.3826
0
LINE
8
BLACK
6
CONTINUOUS
10
5.97008
20
-5.3826
11
5.96801
21
-5.39298
0
LINE
8
BLACK
6
CONTINUOUS
10
5.96801
20
-5.39298
11
5.96509
21
-5.40004
0
LINE
8
BLACK
6
CONTINUOUS
10
5.96509
20
-5.40004
11
5.96317
21
-5.40466
0
LINE
8
BLACK
6
CONTINUOUS
10
5.96317
20
-5.40466
11
5.96311
21
-5.4048
0
LINE
8
BLACK
6
CONTINUOUS
10
5.96311
20
-5.4048
11
5.956
21
-5.41545
0
LINE
8
BLACK
6
CONTINUOUS
10
5.956
20
-5.41545
11
5.94695
21
-5.4245
0
LINE
8
BLACK
6
CONTINUOUS
10
5.94695
20
-5.4245
11
5.9363
21
-5.43162
0
LINE
8
BLACK
6
CONTINUOUS
10
5.9363
20
-5.43162
11
5.92447
21
-5.43652
0
LINE
8
BLACK
6
CONTINUOUS
10
5.92447
20
-5.43652
11
5.92029
21
-5.43735
0
LINE
8
BLACK
6
CONTINUOUS
10
5.92029
20
-5.43735
11
5.91191
21
-5.43902
0
LINE
8
BLACK
6
CONTINUOUS
10
5.91191
20
-5.43902
11
5.89911
21
-5.43902
0
LINE
8
BLACK
6
CONTINUOUS
10
5.89911
20
-5.43902
11
5.89074
21
-5.43735
0
LINE
8
BLACK
6
CONTINUOUS
10
5.89074
20
-5.43735
11
5.88655
21
-5.43652
0
LINE
8
BLACK
6
CONTINUOUS
10
5.88655
20
-5.43652
11
5.87472
21
-5.43162
0
LINE
8
BLACK
6
CONTINUOUS
10
5.87472
20
-5.43162
11
5.86408
21
-5.4245
0
LINE
8
BLACK
6
CONTINUOUS
10
5.86408
20
-5.4245
11
5.85502
21
-5.41545
0
LINE
8
BLACK
6
CONTINUOUS
10
5.85502
20
-5.41545
11
5.84791
21
-5.4048
0
LINE
8
BLACK
6
CONTINUOUS
10
5.84791
20
-5.4048
11
5.84785
21
-5.40466
0
LINE
8
BLACK
6
CONTINUOUS
10
5.84785
20
-5.40466
11
5.84594
21
-5.40004
0
LINE
8
BLACK
6
CONTINUOUS
10
5.84594
20
-5.40004
11
5.84301
21
-5.39298
0
LINE
8
BLACK
6
CONTINUOUS
10
5.84301
20
-5.39298
11
5.84095
21
-5.3826
0
LINE
8
BLACK
6
CONTINUOUS
10
5.84095
20
-5.3826
11
5.84051
21
-5.38042
0
LINE
8
BLACK
6
CONTINUOUS
10
5.84051
20
-5.38042
11
5.84051
21
-5.36761
0
LINE
8
BLACK
6
CONTINUOUS
10
5.84051
20
-5.36761
11
5.84301
21
-5.35506
0
LINE
8
BLACK
6
CONTINUOUS
10
5.84301
20
-5.35506
11
5.84347
21
-5.35394
0
LINE
8
BLACK
6
CONTINUOUS
10
5.84347
20
-5.35394
11
5.84647
21
-5.34669
0
LINE
8
BLACK
6
CONTINUOUS
10
5.84647
20
-5.34669
11
5.84791
21
-5.34323
0
LINE
8
BLACK
6
CONTINUOUS
10
5.84791
20
-5.34323
11
5.84803
21
-5.34305
0
LINE
8
BLACK
6
CONTINUOUS
10
5.84803
20
-5.34305
11
5.85502
21
-5.33258
0
LINE
8
BLACK
6
CONTINUOUS
10
5.85502
20
-5.33258
11
5.86408
21
-5.32353
0
LINE
8
BLACK
6
CONTINUOUS
10
5.86408
20
-5.32353
11
5.87472
21
-5.31641
0
LINE
8
BLACK
6
CONTINUOUS
10
5.87472
20
-5.31641
11
5.88655
21
-5.31151
0
LINE
8
BLACK
6
CONTINUOUS
10
5.88655
20
-5.31151
11
5.89074
21
-5.31068
0
LINE
8
BLACK
6
CONTINUOUS
10
5.89074
20
-5.31068
11
5.89911
21
-5.30902
0
LINE
8
BLACK
6
CONTINUOUS
10
5.89911
20
-5.30902
11
5.91191
21
-5.30902
0
LINE
8
BLACK
6
CONTINUOUS
10
5.91191
20
-5.30902
11
5.92029
21
-5.31068
0
LINE
8
BLACK
6
CONTINUOUS
10
6.37955
20
-5.33657
11
6.38252
21
-5.33747
0
LINE
8
BLACK
6
CONTINUOUS
10
6.38252
20
-5.33747
11
6.38549
21
-5.33837
0
LINE
8
BLACK
6
CONTINUOUS
10
6.38549
20
-5.33837
11
6.3874
21
-5.33939
0
LINE
8
BLACK
6
CONTINUOUS
10
6.3874
20
-5.33939
11
6.39097
21
-5.3413
0
LINE
8
BLACK
6
CONTINUOUS
10
6.39097
20
-5.3413
11
6.39457
21
-5.34426
0
LINE
8
BLACK
6
CONTINUOUS
10
6.39457
20
-5.34426
11
6.42738
21
-5.37707
0
LINE
8
BLACK
6
CONTINUOUS
10
6.42738
20
-5.37707
11
6.43034
21
-5.38067
0
LINE
8
BLACK
6
CONTINUOUS
10
6.43034
20
-5.38067
11
6.43137
21
-5.3826
0
LINE
8
BLACK
6
CONTINUOUS
10
6.43137
20
-5.3826
11
6.43327
21
-5.38615
0
LINE
8
BLACK
6
CONTINUOUS
10
6.43327
20
-5.38615
11
6.43507
21
-5.39209
0
LINE
8
BLACK
6
CONTINUOUS
10
6.43507
20
-5.39209
11
6.43568
21
-5.39827
0
LINE
8
BLACK
6
CONTINUOUS
10
6.43568
20
-5.39827
11
6.43507
21
-5.40445
0
LINE
8
BLACK
6
CONTINUOUS
10
6.43507
20
-5.40445
11
6.43327
21
-5.4104
0
LINE
8
BLACK
6
CONTINUOUS
10
6.43327
20
-5.4104
11
6.43327
21
-5.4104
0
LINE
8
BLACK
6
CONTINUOUS
10
6.43327
20
-5.4104
11
6.43034
21
-5.41588
0
LINE
8
BLACK
6
CONTINUOUS
10
6.43034
20
-5.41588
11
6.42928
21
-5.41717
0
LINE
8
BLACK
6
CONTINUOUS
10
6.42928
20
-5.41717
11
6.4264
21
-5.42068
0
LINE
8
BLACK
6
CONTINUOUS
10
6.4264
20
-5.42068
11
6.4233
21
-5.42322
0
LINE
8
BLACK
6
CONTINUOUS
10
6.4233
20
-5.42322
11
6.42159
21
-5.42462
0
LINE
8
BLACK
6
CONTINUOUS
10
6.42159
20
-5.42462
11
6.41858
21
-5.42623
0
LINE
8
BLACK
6
CONTINUOUS
10
6.41858
20
-5.42623
11
6.41612
21
-5.42755
0
LINE
8
BLACK
6
CONTINUOUS
10
6.41612
20
-5.42755
11
6.41017
21
-5.42935
0
LINE
8
BLACK
6
CONTINUOUS
10
6.41017
20
-5.42935
11
6.40399
21
-5.42996
0
LINE
8
BLACK
6
CONTINUOUS
10
6.40399
20
-5.42996
11
6.39781
21
-5.42935
0
LINE
8
BLACK
6
CONTINUOUS
10
6.39781
20
-5.42935
11
6.39186
21
-5.42755
0
LINE
8
BLACK
6
CONTINUOUS
10
6.39186
20
-5.42755
11
6.38912
21
-5.42608
0
LINE
8
BLACK
6
CONTINUOUS
10
6.38912
20
-5.42608
11
6.38638
21
-5.42462
0
LINE
8
BLACK
6
CONTINUOUS
10
6.38638
20
-5.42462
11
6.38279
21
-5.42167
0
LINE
8
BLACK
6
CONTINUOUS
10
6.38279
20
-5.42167
11
6.34997
21
-5.38885
0
LINE
8
BLACK
6
CONTINUOUS
10
6.34997
20
-5.38885
11
6.34702
21
-5.38525
0
LINE
8
BLACK
6
CONTINUOUS
10
6.34702
20
-5.38525
11
6.34473
21
-5.38096
0
LINE
8
BLACK
6
CONTINUOUS
10
6.34473
20
-5.38096
11
6.34409
21
-5.37978
0
LINE
8
BLACK
6
CONTINUOUS
10
6.34409
20
-5.37978
11
6.34229
21
-5.37383
0
LINE
8
BLACK
6
CONTINUOUS
10
6.34229
20
-5.37383
11
6.34168
21
-5.36765
0
LINE
8
BLACK
6
CONTINUOUS
10
6.34168
20
-5.36765
11
6.34229
21
-5.36147
0
LINE
8
BLACK
6
CONTINUOUS
10
6.34229
20
-5.36147
11
6.34409
21
-5.35552
0
LINE
8
BLACK
6
CONTINUOUS
10
6.34409
20
-5.35552
11
6.34409
21
-5.35552
0
LINE
8
BLACK
6
CONTINUOUS
10
6.34409
20
-5.35552
11
6.34511
21
-5.35361
0
LINE
8
BLACK
6
CONTINUOUS
10
6.34511
20
-5.35361
11
6.34702
21
-5.35004
0
LINE
8
BLACK
6
CONTINUOUS
10
6.34702
20
-5.35004
11
6.34842
21
-5.34834
0
LINE
8
BLACK
6
CONTINUOUS
10
6.34842
20
-5.34834
11
6.35096
21
-5.34524
0
LINE
8
BLACK
6
CONTINUOUS
10
6.35096
20
-5.34524
11
6.35406
21
-5.3427
0
LINE
8
BLACK
6
CONTINUOUS
10
6.35406
20
-5.3427
11
6.35576
21
-5.3413
0
LINE
8
BLACK
6
CONTINUOUS
10
6.35576
20
-5.3413
11
6.35933
21
-5.33939
0
LINE
8
BLACK
6
CONTINUOUS
10
6.35933
20
-5.33939
11
6.36124
21
-5.33837
0
LINE
8
BLACK
6
CONTINUOUS
10
6.36124
20
-5.33837
11
6.36421
21
-5.33747
0
LINE
8
BLACK
6
CONTINUOUS
10
6.36421
20
-5.33747
11
6.36719
21
-5.33657
0
LINE
8
BLACK
6
CONTINUOUS
10
6.36719
20
-5.33657
11
6.37337
21
-5.33596
0
LINE
8
BLACK
6
CONTINUOUS
10
6.37337
20
-5.33596
11
6.37955
21
-5.33657
0
LINE
8
BLACK
6
CONTINUOUS
10
6.55689
20
-5.32886
11
6.5637
21
-5.33169
0
LINE
8
BLACK
6
CONTINUOUS
10
6.5637
20
-5.33169
11
6.56504
21
-5.33258
0
LINE
8
BLACK
6
CONTINUOUS
10
6.56504
20
-5.33258
11
6.56984
21
-5.33578
0
LINE
8
BLACK
6
CONTINUOUS
10
6.56984
20
-5.33578
11
6.57505
21
-5.341
0
LINE
8
BLACK
6
CONTINUOUS
10
6.57505
20
-5.341
11
6.57642
21
-5.34305
0
LINE
8
BLACK
6
CONTINUOUS
10
6.57642
20
-5.34305
11
6.57915
21
-5.34713
0
LINE
8
BLACK
6
CONTINUOUS
10
6.57915
20
-5.34713
11
6.58197
21
-5.35394
0
LINE
8
BLACK
6
CONTINUOUS
10
6.58197
20
-5.35394
11
6.58341
21
-5.36118
0
LINE
8
BLACK
6
CONTINUOUS
10
6.58341
20
-5.36118
11
6.58341
21
-5.36855
0
LINE
8
BLACK
6
CONTINUOUS
10
6.58341
20
-5.36855
11
6.58197
21
-5.37579
0
LINE
8
BLACK
6
CONTINUOUS
10
6.58197
20
-5.37579
11
6.57915
21
-5.3826
0
LINE
8
BLACK
6
CONTINUOUS
10
6.57915
20
-5.3826
11
6.57823
21
-5.38397
0
LINE
8
BLACK
6
CONTINUOUS
10
6.57823
20
-5.38397
11
6.57505
21
-5.38873
0
LINE
8
BLACK
6
CONTINUOUS
10
6.57505
20
-5.38873
11
6.56984
21
-5.39395
0
LINE
8
BLACK
6
CONTINUOUS
10
6.56984
20
-5.39395
11
6.56972
21
-5.39403
0
LINE
8
BLACK
6
CONTINUOUS
10
6.56972
20
-5.39403
11
6.5637
21
-5.39805
0
LINE
8
BLACK
6
CONTINUOUS
10
6.5637
20
-5.39805
11
6.55689
21
-5.40087
0
LINE
8
BLACK
6
CONTINUOUS
10
6.55689
20
-5.40087
11
6.54966
21
-5.40231
0
LINE
8
BLACK
6
CONTINUOUS
10
6.54966
20
-5.40231
11
6.54228
21
-5.40231
0
LINE
8
BLACK
6
CONTINUOUS
10
6.54228
20
-5.40231
11
6.53505
21
-5.40087
0
LINE
8
BLACK
6
CONTINUOUS
10
6.53505
20
-5.40087
11
6.52823
21
-5.39805
0
LINE
8
BLACK
6
CONTINUOUS
10
6.52823
20
-5.39805
11
6.52222
21
-5.39403
0
LINE
8
BLACK
6
CONTINUOUS
10
6.52222
20
-5.39403
11
6.5221
21
-5.39395
0
LINE
8
BLACK
6
CONTINUOUS
10
6.5221
20
-5.39395
11
6.51689
21
-5.38873
0
LINE
8
BLACK
6
CONTINUOUS
10
6.51689
20
-5.38873
11
6.5137
21
-5.38397
0
LINE
8
BLACK
6
CONTINUOUS
10
6.5137
20
-5.38397
11
6.51279
21
-5.3826
0
LINE
8
BLACK
6
CONTINUOUS
10
6.51279
20
-5.3826
11
6.50997
21
-5.37579
0
LINE
8
BLACK
6
CONTINUOUS
10
6.50997
20
-5.37579
11
6.50853
21
-5.36855
0
LINE
8
BLACK
6
CONTINUOUS
10
6.50853
20
-5.36855
11
6.50853
21
-5.36118
0
LINE
8
BLACK
6
CONTINUOUS
10
6.50853
20
-5.36118
11
6.50997
21
-5.35394
0
LINE
8
BLACK
6
CONTINUOUS
10
6.50997
20
-5.35394
11
6.51279
21
-5.34713
0
LINE
8
BLACK
6
CONTINUOUS
10
6.51279
20
-5.34713
11
6.51551
21
-5.34305
0
LINE
8
BLACK
6
CONTINUOUS
10
6.51551
20
-5.34305
11
6.51689
21
-5.341
0
LINE
8
BLACK
6
CONTINUOUS
10
6.51689
20
-5.341
11
6.5221
21
-5.33578
0
LINE
8
BLACK
6
CONTINUOUS
10
6.5221
20
-5.33578
11
6.52689
21
-5.33258
0
LINE
8
BLACK
6
CONTINUOUS
10
6.52689
20
-5.33258
11
6.52823
21
-5.33169
0
LINE
8
BLACK
6
CONTINUOUS
10
6.52823
20
-5.33169
11
6.53505
21
-5.32886
0
LINE
8
BLACK
6
CONTINUOUS
10
6.53505
20
-5.32886
11
6.54228
21
-5.32742
0
LINE
8
BLACK
6
CONTINUOUS
10
6.54228
20
-5.32742
11
6.54966
21
-5.32742
0
LINE
8
BLACK
6
CONTINUOUS
10
6.54966
20
-5.32742
11
6.55689
21
-5.32886
0
LINE
8
BLACK
6
CONTINUOUS
10
5.27598
20
-5.32886
11
5.28279
21
-5.33169
0
LINE
8
BLACK
6
CONTINUOUS
10
5.28279
20
-5.33169
11
5.28413
21
-5.33258
0
LINE
8
BLACK
6
CONTINUOUS
10
5.28413
20
-5.33258
11
5.28892
21
-5.33578
0
LINE
8
BLACK
6
CONTINUOUS
10
5.28892
20
-5.33578
11
5.29414
21
-5.341
0
LINE
8
BLACK
6
CONTINUOUS
10
5.29414
20
-5.341
11
5.29551
21
-5.34305
0
LINE
8
BLACK
6
CONTINUOUS
10
5.29551
20
-5.34305
11
5.29824
21
-5.34713
0
LINE
8
BLACK
6
CONTINUOUS
10
5.29824
20
-5.34713
11
5.30106
21
-5.35394
0
LINE
8
BLACK
6
CONTINUOUS
10
5.30106
20
-5.35394
11
5.3025
21
-5.36118
0
LINE
8
BLACK
6
CONTINUOUS
10
5.3025
20
-5.36118
11
5.3025
21
-5.36855
0
LINE
8
BLACK
6
CONTINUOUS
10
5.3025
20
-5.36855
11
5.30106
21
-5.37579
0
LINE
8
BLACK
6
CONTINUOUS
10
5.30106
20
-5.37579
11
5.29824
21
-5.3826
0
LINE
8
BLACK
6
CONTINUOUS
10
5.29824
20
-5.3826
11
5.29732
21
-5.38397
0
LINE
8
BLACK
6
CONTINUOUS
10
5.29732
20
-5.38397
11
5.29414
21
-5.38873
0
LINE
8
BLACK
6
CONTINUOUS
10
5.29414
20
-5.38873
11
5.28892
21
-5.39395
0
LINE
8
BLACK
6
CONTINUOUS
10
5.28892
20
-5.39395
11
5.2888
21
-5.39403
0
LINE
8
BLACK
6
CONTINUOUS
10
5.2888
20
-5.39403
11
5.28279
21
-5.39805
0
LINE
8
BLACK
6
CONTINUOUS
10
5.28279
20
-5.39805
11
5.27598
21
-5.40087
0
LINE
8
BLACK
6
CONTINUOUS
10
5.27598
20
-5.40087
11
5.26874
21
-5.40231
0
LINE
8
BLACK
6
CONTINUOUS
10
5.26874
20
-5.40231
11
5.26137
21
-5.40231
0
LINE
8
BLACK
6
CONTINUOUS
10
5.26137
20
-5.40231
11
5.25413
21
-5.40087
0
LINE
8
BLACK
6
CONTINUOUS
10
5.25413
20
-5.40087
11
5.24732
21
-5.39805
0
LINE
8
BLACK
6
CONTINUOUS
10
5.24732
20
-5.39805
11
5.24131
21
-5.39403
0
LINE
8
BLACK
6
CONTINUOUS
10
5.24131
20
-5.39403
11
5.24119
21
-5.39395
0
LINE
8
BLACK
6
CONTINUOUS
10
5.24119
20
-5.39395
11
5.23597
21
-5.38873
0
LINE
8
BLACK
6
CONTINUOUS
10
5.23597
20
-5.38873
11
5.23279
21
-5.38397
0
LINE
8
BLACK
6
CONTINUOUS
10
5.23279
20
-5.38397
11
5.23188
21
-5.3826
0
LINE
8
BLACK
6
CONTINUOUS
10
5.23188
20
-5.3826
11
5.22905
21
-5.37579
0
LINE
8
BLACK
6
CONTINUOUS
10
5.22905
20
-5.37579
11
5.22761
21
-5.36855
0
LINE
8
BLACK
6
CONTINUOUS
10
5.22761
20
-5.36855
11
5.22761
21
-5.36118
0
LINE
8
BLACK
6
CONTINUOUS
10
5.22761
20
-5.36118
11
5.22905
21
-5.35394
0
LINE
8
BLACK
6
CONTINUOUS
10
5.22905
20
-5.35394
11
5.23188
21
-5.34713
0
LINE
8
BLACK
6
CONTINUOUS
10
5.23188
20
-5.34713
11
5.2346
21
-5.34305
0
LINE
8
BLACK
6
CONTINUOUS
10
5.2346
20
-5.34305
11
5.23597
21
-5.341
0
LINE
8
BLACK
6
CONTINUOUS
10
5.23597
20
-5.341
11
5.24119
21
-5.33578
0
LINE
8
BLACK
6
CONTINUOUS
10
5.24119
20
-5.33578
11
5.24598
21
-5.33258
0
LINE
8
BLACK
6
CONTINUOUS
10
5.24598
20
-5.33258
11
5.24732
21
-5.33169
0
LINE
8
BLACK
6
CONTINUOUS
10
5.24732
20
-5.33169
11
5.25413
21
-5.32886
0
LINE
8
BLACK
6
CONTINUOUS
10
5.25413
20
-5.32886
11
5.26137
21
-5.32742
0
LINE
8
BLACK
6
CONTINUOUS
10
5.26137
20
-5.32742
11
5.26874
21
-5.32742
0
LINE
8
BLACK
6
CONTINUOUS
10
5.26874
20
-5.32742
11
5.27598
21
-5.32886
0
LINE
8
BLACK
6
CONTINUOUS
10
6.64402
20
-5.25027
11
6.64699
21
-5.25117
0
LINE
8
BLACK
6
CONTINUOUS
10
6.64699
20
-5.25117
11
6.64996
21
-5.25207
0
LINE
8
BLACK
6
CONTINUOUS
10
6.64996
20
-5.25207
11
6.65187
21
-5.25309
0
LINE
8
BLACK
6
CONTINUOUS
10
6.65187
20
-5.25309
11
6.65544
21
-5.255
0
LINE
8
BLACK
6
CONTINUOUS
10
6.65544
20
-5.255
11
6.65904
21
-5.25795
0
LINE
8
BLACK
6
CONTINUOUS
10
6.65904
20
-5.25795
11
6.69185
21
-5.29077
0
LINE
8
BLACK
6
CONTINUOUS
10
6.69185
20
-5.29077
11
6.69481
21
-5.29437
0
LINE
8
BLACK
6
CONTINUOUS
10
6.69481
20
-5.29437
11
6.69496
21
-5.29465
0
LINE
8
BLACK
6
CONTINUOUS
10
6.69496
20
-5.29465
11
6.69773
21
-5.29985
0
LINE
8
BLACK
6
CONTINUOUS
10
6.69773
20
-5.29985
11
6.69954
21
-5.30579
0
LINE
8
BLACK
6
CONTINUOUS
10
6.69954
20
-5.30579
11
6.70015
21
-5.31197
0
LINE
8
BLACK
6
CONTINUOUS
10
6.70015
20
-5.31197
11
6.69954
21
-5.31815
0
LINE
8
BLACK
6
CONTINUOUS
10
6.69954
20
-5.31815
11
6.69773
21
-5.3241
0
LINE
8
BLACK
6
CONTINUOUS
10
6.69773
20
-5.3241
11
6.69773
21
-5.3241
0
LINE
8
BLACK
6
CONTINUOUS
10
6.69773
20
-5.3241
11
6.69481
21
-5.32958
0
LINE
8
BLACK
6
CONTINUOUS
10
6.69481
20
-5.32958
11
6.69341
21
-5.33128
0
LINE
8
BLACK
6
CONTINUOUS
10
6.69341
20
-5.33128
11
6.69087
21
-5.33438
0
LINE
8
BLACK
6
CONTINUOUS
10
6.69087
20
-5.33438
11
6.68777
21
-5.33692
0
LINE
8
BLACK
6
CONTINUOUS
10
6.68777
20
-5.33692
11
6.68606
21
-5.33832
0
LINE
8
BLACK
6
CONTINUOUS
10
6.68606
20
-5.33832
11
6.68233
21
-5.34032
0
LINE
8
BLACK
6
CONTINUOUS
10
6.68233
20
-5.34032
11
6.68059
21
-5.34125
0
LINE
8
BLACK
6
CONTINUOUS
10
6.68059
20
-5.34125
11
6.67464
21
-5.34305
0
LINE
8
BLACK
6
CONTINUOUS
10
6.67464
20
-5.34305
11
6.66846
21
-5.34366
0
LINE
8
BLACK
6
CONTINUOUS
10
6.66846
20
-5.34366
11
6.66228
21
-5.34305
0
LINE
8
BLACK
6
CONTINUOUS
10
6.66228
20
-5.34305
11
6.65633
21
-5.34125
0
LINE
8
BLACK
6
CONTINUOUS
10
6.65633
20
-5.34125
11
6.65359
21
-5.33978
0
LINE
8
BLACK
6
CONTINUOUS
10
6.65359
20
-5.33978
11
6.65085
21
-5.33832
0
LINE
8
BLACK
6
CONTINUOUS
10
6.65085
20
-5.33832
11
6.64726
21
-5.33537
0
LINE
8
BLACK
6
CONTINUOUS
10
6.64726
20
-5.33537
11
6.61444
21
-5.30255
0
LINE
8
BLACK
6
CONTINUOUS
10
6.61444
20
-5.30255
11
6.61149
21
-5.29895
0
LINE
8
BLACK
6
CONTINUOUS
10
6.61149
20
-5.29895
11
6.60919
21
-5.29465
0
LINE
8
BLACK
6
CONTINUOUS
10
6.60919
20
-5.29465
11
6.60856
21
-5.29348
0
LINE
8
BLACK
6
CONTINUOUS
10
6.60856
20
-5.29348
11
6.60766
21
-5.2905
0
LINE
8
BLACK
6
CONTINUOUS
10
6.60766
20
-5.2905
11
6.60676
21
-5.28753
0
LINE
8
BLACK
6
CONTINUOUS
10
6.60676
20
-5.28753
11
6.60615
21
-5.28135
0
LINE
8
BLACK
6
CONTINUOUS
10
6.60615
20
-5.28135
11
6.60676
21
-5.27517
0
LINE
8
BLACK
6
CONTINUOUS
10
6.60676
20
-5.27517
11
6.60856
21
-5.26922
0
LINE
8
BLACK
6
CONTINUOUS
10
6.60856
20
-5.26922
11
6.60856
21
-5.26922
0
LINE
8
BLACK
6
CONTINUOUS
10
6.60856
20
-5.26922
11
6.61133
21
-5.26403
0
LINE
8
BLACK
6
CONTINUOUS
10
6.61133
20
-5.26403
11
6.61149
21
-5.26374
0
LINE
8
BLACK
6
CONTINUOUS
10
6.61149
20
-5.26374
11
6.61289
21
-5.26204
0
LINE
8
BLACK
6
CONTINUOUS
10
6.61289
20
-5.26204
11
6.61543
21
-5.25894
0
LINE
8
BLACK
6
CONTINUOUS
10
6.61543
20
-5.25894
11
6.61853
21
-5.2564
0
LINE
8
BLACK
6
CONTINUOUS
10
6.61853
20
-5.2564
11
6.62023
21
-5.255
0
LINE
8
BLACK
6
CONTINUOUS
10
6.62023
20
-5.255
11
6.6238
21
-5.25309
0
LINE
8
BLACK
6
CONTINUOUS
10
6.6238
20
-5.25309
11
6.62571
21
-5.25207
0
LINE
8
BLACK
6
CONTINUOUS
10
6.62571
20
-5.25207
11
6.62868
21
-5.25117
0
LINE
8
BLACK
6
CONTINUOUS
10
6.62868
20
-5.25117
11
6.63165
21
-5.25027
0
LINE
8
BLACK
6
CONTINUOUS
10
6.63165
20
-5.25027
11
6.63784
21
-5.24966
0
LINE
8
BLACK
6
CONTINUOUS
10
6.63784
20
-5.24966
11
6.64402
21
-5.25027
0
LINE
8
BLACK
6
CONTINUOUS
10
5.17937
20
-5.25027
11
5.18531
21
-5.25207
0
LINE
8
BLACK
6
CONTINUOUS
10
5.18531
20
-5.25207
11
5.18632
21
-5.25261
0
LINE
8
BLACK
6
CONTINUOUS
10
5.18632
20
-5.25261
11
5.19079
21
-5.255
0
LINE
8
BLACK
6
CONTINUOUS
10
5.19079
20
-5.255
11
5.19249
21
-5.2564
0
LINE
8
BLACK
6
CONTINUOUS
10
5.19249
20
-5.2564
11
5.19559
21
-5.25894
0
LINE
8
BLACK
6
CONTINUOUS
10
5.19559
20
-5.25894
11
5.19814
21
-5.26204
0
LINE
8
BLACK
6
CONTINUOUS
10
5.19814
20
-5.26204
11
5.19954
21
-5.26374
0
LINE
8
BLACK
6
CONTINUOUS
10
5.19954
20
-5.26374
11
5.19969
21
-5.26403
0
LINE
8
BLACK
6
CONTINUOUS
10
5.19969
20
-5.26403
11
5.20246
21
-5.26922
0
LINE
8
BLACK
6
CONTINUOUS
10
5.20246
20
-5.26922
11
5.20427
21
-5.27517
0
LINE
8
BLACK
6
CONTINUOUS
10
5.20427
20
-5.27517
11
5.20488
21
-5.28135
0
LINE
8
BLACK
6
CONTINUOUS
10
5.20488
20
-5.28135
11
5.20427
21
-5.28753
0
LINE
8
BLACK
6
CONTINUOUS
10
5.20427
20
-5.28753
11
5.20246
21
-5.29348
0
LINE
8
BLACK
6
CONTINUOUS
10
5.20246
20
-5.29348
11
5.201
21
-5.29621
0
LINE
8
BLACK
6
CONTINUOUS
10
5.201
20
-5.29621
11
5.19954
21
-5.29895
0
LINE
8
BLACK
6
CONTINUOUS
10
5.19954
20
-5.29895
11
5.19658
21
-5.30255
0
LINE
8
BLACK
6
CONTINUOUS
10
5.19658
20
-5.30255
11
5.16377
21
-5.33537
0
LINE
8
BLACK
6
CONTINUOUS
10
5.16377
20
-5.33537
11
5.16017
21
-5.33832
0
LINE
8
BLACK
6
CONTINUOUS
10
5.16017
20
-5.33832
11
5.1566
21
-5.34023
0
LINE
8
BLACK
6
CONTINUOUS
10
5.1566
20
-5.34023
11
5.15469
21
-5.34125
0
LINE
8
BLACK
6
CONTINUOUS
10
5.15469
20
-5.34125
11
5.15172
21
-5.34215
0
LINE
8
BLACK
6
CONTINUOUS
10
5.15172
20
-5.34215
11
5.14875
21
-5.34305
0
LINE
8
BLACK
6
CONTINUOUS
10
5.14875
20
-5.34305
11
5.14256
21
-5.34366
0
LINE
8
BLACK
6
CONTINUOUS
10
5.14256
20
-5.34366
11
5.13638
21
-5.34305
0
LINE
8
BLACK
6
CONTINUOUS
10
5.13638
20
-5.34305
11
5.13341
21
-5.34215
0
LINE
8
BLACK
6
CONTINUOUS
10
5.13341
20
-5.34215
11
5.13044
21
-5.34125
0
LINE
8
BLACK
6
CONTINUOUS
10
5.13044
20
-5.34125
11
5.12853
21
-5.34023
0
LINE
8
BLACK
6
CONTINUOUS
10
5.12853
20
-5.34023
11
5.12496
21
-5.33832
0
LINE
8
BLACK
6
CONTINUOUS
10
5.12496
20
-5.33832
11
5.12326
21
-5.33692
0
LINE
8
BLACK
6
CONTINUOUS
10
5.12326
20
-5.33692
11
5.12016
21
-5.33438
0
LINE
8
BLACK
6
CONTINUOUS
10
5.12016
20
-5.33438
11
5.11761
21
-5.33128
0
LINE
8
BLACK
6
CONTINUOUS
10
5.11761
20
-5.33128
11
5.11622
21
-5.32958
0
LINE
8
BLACK
6
CONTINUOUS
10
5.11622
20
-5.32958
11
5.11336
21
-5.32423
0
LINE
8
BLACK
6
CONTINUOUS
10
5.11336
20
-5.32423
11
5.11329
21
-5.3241
0
LINE
8
BLACK
6
CONTINUOUS
10
5.11329
20
-5.3241
11
5.11239
21
-5.32113
0
LINE
8
BLACK
6
CONTINUOUS
10
5.11239
20
-5.32113
11
5.11149
21
-5.31815
0
LINE
8
BLACK
6
CONTINUOUS
10
5.11149
20
-5.31815
11
5.11088
21
-5.31197
0
LINE
8
BLACK
6
CONTINUOUS
10
5.11088
20
-5.31197
11
5.11149
21
-5.30579
0
LINE
8
BLACK
6
CONTINUOUS
10
5.11149
20
-5.30579
11
5.11247
21
-5.30255
0
LINE
8
BLACK
6
CONTINUOUS
10
5.11247
20
-5.30255
11
5.11329
21
-5.29985
0
LINE
8
BLACK
6
CONTINUOUS
10
5.11329
20
-5.29985
11
5.11606
21
-5.29465
0
LINE
8
BLACK
6
CONTINUOUS
10
5.11606
20
-5.29465
11
5.11622
21
-5.29437
0
LINE
8
BLACK
6
CONTINUOUS
10
5.11622
20
-5.29437
11
5.11917
21
-5.29077
0
LINE
8
BLACK
6
CONTINUOUS
10
5.11917
20
-5.29077
11
5.15198
21
-5.25795
0
LINE
8
BLACK
6
CONTINUOUS
10
5.15198
20
-5.25795
11
5.15558
21
-5.255
0
LINE
8
BLACK
6
CONTINUOUS
10
5.15558
20
-5.255
11
5.15832
21
-5.25354
0
LINE
8
BLACK
6
CONTINUOUS
10
5.15832
20
-5.25354
11
5.16106
21
-5.25207
0
LINE
8
BLACK
6
CONTINUOUS
10
5.16106
20
-5.25207
11
5.16701
21
-5.25027
0
LINE
8
BLACK
6
CONTINUOUS
10
5.16701
20
-5.25027
11
5.17319
21
-5.24966
0
LINE
8
BLACK
6
CONTINUOUS
10
5.17319
20
-5.24966
11
5.17937
21
-5.25027
0
LINE
8
BLACK
6
CONTINUOUS
10
6.28211
20
-5.23913
11
6.28509
21
-5.24004
0
LINE
8
BLACK
6
CONTINUOUS
10
6.28509
20
-5.24004
11
6.28806
21
-5.24094
0
LINE
8
BLACK
6
CONTINUOUS
10
6.28806
20
-5.24094
11
6.28997
21
-5.24196
0
LINE
8
BLACK
6
CONTINUOUS
10
6.28997
20
-5.24196
11
6.29354
21
-5.24387
0
LINE
8
BLACK
6
CONTINUOUS
10
6.29354
20
-5.24387
11
6.29713
21
-5.24682
0
LINE
8
BLACK
6
CONTINUOUS
10
6.29713
20
-5.24682
11
6.32995
21
-5.27963
0
LINE
8
BLACK
6
CONTINUOUS
10
6.32995
20
-5.27963
11
6.3329
21
-5.28323
0
LINE
8
BLACK
6
CONTINUOUS
10
6.3329
20
-5.28323
11
6.33437
21
-5.28597
0
LINE
8
BLACK
6
CONTINUOUS
10
6.33437
20
-5.28597
11
6.33583
21
-5.28871
0
LINE
8
BLACK
6
CONTINUOUS
10
6.33583
20
-5.28871
11
6.33763
21
-5.29465
0
LINE
8
BLACK
6
CONTINUOUS
10
6.33763
20
-5.29465
11
6.33824
21
-5.30084
0
LINE
8
BLACK
6
CONTINUOUS
10
6.33824
20
-5.30084
11
6.33763
21
-5.30702
0
LINE
8
BLACK
6
CONTINUOUS
10
6.33763
20
-5.30702
11
6.33583
21
-5.31296
0
LINE
8
BLACK
6
CONTINUOUS
10
6.33583
20
-5.31296
11
6.33583
21
-5.31296
0
LINE
8
BLACK
6
CONTINUOUS
10
6.33583
20
-5.31296
11
6.3329
21
-5.31844
0
LINE
8
BLACK
6
CONTINUOUS
10
6.3329
20
-5.31844
11
6.3315
21
-5.32014
0
LINE
8
BLACK
6
CONTINUOUS
10
6.3315
20
-5.32014
11
6.32896
21
-5.32324
0
LINE
8
BLACK
6
CONTINUOUS
10
6.32896
20
-5.32324
11
6.32586
21
-5.32579
0
LINE
8
BLACK
6
CONTINUOUS
10
6.32586
20
-5.32579
11
6.32416
21
-5.32718
0
LINE
8
BLACK
6
CONTINUOUS
10
6.32416
20
-5.32718
11
6.32102
21
-5.32886
0
LINE
8
BLACK
6
CONTINUOUS
10
6.32102
20
-5.32886
11
6.31868
21
-5.33011
0
LINE
8
BLACK
6
CONTINUOUS
10
6.31868
20
-5.33011
11
6.31349
21
-5.33169
0
LINE
8
BLACK
6
CONTINUOUS
10
6.31349
20
-5.33169
11
6.31274
21
-5.33192
0
LINE
8
BLACK
6
CONTINUOUS
10
6.31274
20
-5.33192
11
6.30655
21
-5.33252
0
LINE
8
BLACK
6
CONTINUOUS
10
6.30655
20
-5.33252
11
6.30037
21
-5.33192
0
LINE
8
BLACK
6
CONTINUOUS
10
6.30037
20
-5.33192
11
6.29443
21
-5.33011
0
LINE
8
BLACK
6
CONTINUOUS
10
6.29443
20
-5.33011
11
6.29169
21
-5.32865
0
LINE
8
BLACK
6
CONTINUOUS
10
6.29169
20
-5.32865
11
6.28895
21
-5.32718
0
LINE
8
BLACK
6
CONTINUOUS
10
6.28895
20
-5.32718
11
6.28535
21
-5.32423
0
LINE
8
BLACK
6
CONTINUOUS
10
6.28535
20
-5.32423
11
6.25254
21
-5.29142
0
LINE
8
BLACK
6
CONTINUOUS
10
6.25254
20
-5.29142
11
6.24958
21
-5.28782
0
LINE
8
BLACK
6
CONTINUOUS
10
6.24958
20
-5.28782
11
6.24768
21
-5.28425
0
LINE
8
BLACK
6
CONTINUOUS
10
6.24768
20
-5.28425
11
6.24666
21
-5.28234
0
LINE
8
BLACK
6
CONTINUOUS
10
6.24666
20
-5.28234
11
6.24485
21
-5.2764
0
LINE
8
BLACK
6
CONTINUOUS
10
6.24485
20
-5.2764
11
6.24485
21
-5.2764
0
LINE
8
BLACK
6
CONTINUOUS
10
6.24485
20
-5.2764
11
6.24424
21
-5.27021
0
LINE
8
BLACK
6
CONTINUOUS
10
6.24424
20
-5.27021
11
6.24485
21
-5.26403
0
LINE
8
BLACK
6
CONTINUOUS
10
6.24485
20
-5.26403
11
6.24666
21
-5.25809
0
LINE
8
BLACK
6
CONTINUOUS
10
6.24666
20
-5.25809
11
6.24666
21
-5.25809
0
LINE
8
BLACK
6
CONTINUOUS
10
6.24666
20
-5.25809
11
6.2483
21
-5.255
0
LINE
8
BLACK
6
CONTINUOUS
10
6.2483
20
-5.255
11
6.24958
21
-5.25261
0
LINE
8
BLACK
6
CONTINUOUS
10
6.24958
20
-5.25261
11
6.25098
21
-5.25091
0
LINE
8
BLACK
6
CONTINUOUS
10
6.25098
20
-5.25091
11
6.25352
21
-5.24781
0
LINE
8
BLACK
6
CONTINUOUS
10
6.25352
20
-5.24781
11
6.25662
21
-5.24526
0
LINE
8
BLACK
6
CONTINUOUS
10
6.25662
20
-5.24526
11
6.25833
21
-5.24387
0
LINE
8
BLACK
6
CONTINUOUS
10
6.25833
20
-5.24387
11
6.2619
21
-5.24196
0
LINE
8
BLACK
6
CONTINUOUS
10
6.2619
20
-5.24196
11
6.2638
21
-5.24094
0
LINE
8
BLACK
6
CONTINUOUS
10
6.2638
20
-5.24094
11
6.26678
21
-5.24004
0
LINE
8
BLACK
6
CONTINUOUS
10
6.26678
20
-5.24004
11
6.26975
21
-5.23913
0
LINE
8
BLACK
6
CONTINUOUS
10
6.26975
20
-5.23913
11
6.27593
21
-5.23853
0
LINE
8
BLACK
6
CONTINUOUS
10
6.27593
20
-5.23853
11
6.28211
21
-5.23913
0
LINE
8
BLACK
6
CONTINUOUS
10
5.54127
20
-5.23913
11
5.54722
21
-5.24094
0
LINE
8
BLACK
6
CONTINUOUS
10
5.54722
20
-5.24094
11
5.54896
21
-5.24187
0
LINE
8
BLACK
6
CONTINUOUS
10
5.54896
20
-5.24187
11
5.5527
21
-5.24387
0
LINE
8
BLACK
6
CONTINUOUS
10
5.5527
20
-5.24387
11
5.5544
21
-5.24526
0
LINE
8
BLACK
6
CONTINUOUS
10
5.5544
20
-5.24526
11
5.5575
21
-5.24781
0
LINE
8
BLACK
6
CONTINUOUS
10
5.5575
20
-5.24781
11
5.56004
21
-5.25091
0
LINE
8
BLACK
6
CONTINUOUS
10
5.56004
20
-5.25091
11
5.56144
21
-5.25261
0
LINE
8
BLACK
6
CONTINUOUS
10
5.56144
20
-5.25261
11
5.56272
21
-5.255
0
LINE
8
BLACK
6
CONTINUOUS
10
5.56272
20
-5.255
11
5.56437
21
-5.25809
0
LINE
8
BLACK
6
CONTINUOUS
10
5.56437
20
-5.25809
11
5.56617
21
-5.26403
0
LINE
8
BLACK
6
CONTINUOUS
10
5.56617
20
-5.26403
11
5.56678
21
-5.27021
0
LINE
8
BLACK
6
CONTINUOUS
10
5.56678
20
-5.27021
11
5.56617
21
-5.2764
0
LINE
8
BLACK
6
CONTINUOUS
10
5.56617
20
-5.2764
11
5.56437
21
-5.28234
0
LINE
8
BLACK
6
CONTINUOUS
10
5.56437
20
-5.28234
11
5.56389
21
-5.28323
0
LINE
8
BLACK
6
CONTINUOUS
10
5.56389
20
-5.28323
11
5.56144
21
-5.28782
0
LINE
8
BLACK
6
CONTINUOUS
10
5.56144
20
-5.28782
11
5.55849
21
-5.29142
0
LINE
8
BLACK
6
CONTINUOUS
10
5.55849
20
-5.29142
11
5.52567
21
-5.32423
0
LINE
8
BLACK
6
CONTINUOUS
10
5.52567
20
-5.32423
11
5.52207
21
-5.32718
0
LINE
8
BLACK
6
CONTINUOUS
10
5.52207
20
-5.32718
11
5.51893
21
-5.32886
0
LINE
8
BLACK
6
CONTINUOUS
10
5.51893
20
-5.32886
11
5.5166
21
-5.33011
0
LINE
8
BLACK
6
CONTINUOUS
10
5.5166
20
-5.33011
11
5.51362
21
-5.33101
0
LINE
8
BLACK
6
CONTINUOUS
10
5.51362
20
-5.33101
11
5.51065
21
-5.33192
0
LINE
8
BLACK
6
CONTINUOUS
10
5.51065
20
-5.33192
11
5.50447
21
-5.33252
0
LINE
8
BLACK
6
CONTINUOUS
10
5.50447
20
-5.33252
11
5.49829
21
-5.33192
0
LINE
8
BLACK
6
CONTINUOUS
10
5.49829
20
-5.33192
11
5.49532
21
-5.33101
0
LINE
8
BLACK
6
CONTINUOUS
10
5.49532
20
-5.33101
11
5.49234
21
-5.33011
0
LINE
8
BLACK
6
CONTINUOUS
10
5.49234
20
-5.33011
11
5.49001
21
-5.32886
0
LINE
8
BLACK
6
CONTINUOUS
10
5.49001
20
-5.32886
11
5.48686
21
-5.32718
0
LINE
8
BLACK
6
CONTINUOUS
10
5.48686
20
-5.32718
11
5.48516
21
-5.32579
0
LINE
8
BLACK
6
CONTINUOUS
10
5.48516
20
-5.32579
11
5.48206
21
-5.32324
0
LINE
8
BLACK
6
CONTINUOUS
10
5.48206
20
-5.32324
11
5.47952
21
-5.32014
0
LINE
8
BLACK
6
CONTINUOUS
10
5.47952
20
-5.32014
11
5.47812
21
-5.31844
0
LINE
8
BLACK
6
CONTINUOUS
10
5.47812
20
-5.31844
11
5.47621
21
-5.31487
0
LINE
8
BLACK
6
CONTINUOUS
10
5.47621
20
-5.31487
11
5.47519
21
-5.31296
0
LINE
8
BLACK
6
CONTINUOUS
10
5.47519
20
-5.31296
11
5.474
21
-5.30902
0
LINE
8
BLACK
6
CONTINUOUS
10
5.474
20
-5.30902
11
5.47339
21
-5.30702
0
LINE
8
BLACK
6
CONTINUOUS
10
5.47339
20
-5.30702
11
5.47278
21
-5.30084
0
LINE
8
BLACK
6
CONTINUOUS
10
5.47278
20
-5.30084
11
5.47339
21
-5.29465
0
LINE
8
BLACK
6
CONTINUOUS
10
5.47339
20
-5.29465
11
5.47437
21
-5.29142
0
LINE
8
BLACK
6
CONTINUOUS
10
5.47437
20
-5.29142
11
5.47519
21
-5.28871
0
LINE
8
BLACK
6
CONTINUOUS
10
5.47519
20
-5.28871
11
5.47621
21
-5.2868
0
LINE
8
BLACK
6
CONTINUOUS
10
5.47621
20
-5.2868
11
5.47812
21
-5.28323
0
LINE
8
BLACK
6
CONTINUOUS
10
5.47812
20
-5.28323
11
5.48108
21
-5.27963
0
LINE
8
BLACK
6
CONTINUOUS
10
5.48108
20
-5.27963
11
5.51389
21
-5.24682
0
LINE
8
BLACK
6
CONTINUOUS
10
5.51389
20
-5.24682
11
5.51749
21
-5.24387
0
LINE
8
BLACK
6
CONTINUOUS
10
5.51749
20
-5.24387
11
5.52023
21
-5.2424
0
LINE
8
BLACK
6
CONTINUOUS
10
5.52023
20
-5.2424
11
5.52297
21
-5.24094
0
LINE
8
BLACK
6
CONTINUOUS
10
5.52297
20
-5.24094
11
5.52891
21
-5.23913
0
LINE
8
BLACK
6
CONTINUOUS
10
5.52891
20
-5.23913
11
5.53509
21
-5.23853
0
LINE
8
BLACK
6
CONTINUOUS
10
5.53509
20
-5.23853
11
5.54127
21
-5.23913
0
LINE
8
BLACK
6
CONTINUOUS
10
5.26845
20
-5.16119
11
5.2744
21
-5.16299
0
LINE
8
BLACK
6
CONTINUOUS
10
5.2744
20
-5.16299
11
5.27614
21
-5.16392
0
LINE
8
BLACK
6
CONTINUOUS
10
5.27614
20
-5.16392
11
5.27988
21
-5.16592
0
LINE
8
BLACK
6
CONTINUOUS
10
5.27988
20
-5.16592
11
5.28158
21
-5.16731
0
LINE
8
BLACK
6
CONTINUOUS
10
5.28158
20
-5.16731
11
5.28468
21
-5.16986
0
LINE
8
BLACK
6
CONTINUOUS
10
5.28468
20
-5.16986
11
5.28722
21
-5.17296
0
LINE
8
BLACK
6
CONTINUOUS
10
5.28722
20
-5.17296
11
5.28862
21
-5.17466
0
LINE
8
BLACK
6
CONTINUOUS
10
5.28862
20
-5.17466
11
5.29062
21
-5.1784
0
LINE
8
BLACK
6
CONTINUOUS
10
5.29062
20
-5.1784
11
5.29155
21
-5.18014
0
LINE
8
BLACK
6
CONTINUOUS
10
5.29155
20
-5.18014
11
5.29335
21
-5.18608
0
LINE
8
BLACK
6
CONTINUOUS
10
5.29335
20
-5.18608
11
5.29396
21
-5.19226
0
LINE
8
BLACK
6
CONTINUOUS
10
5.29396
20
-5.19226
11
5.29335
21
-5.19845
0
LINE
8
BLACK
6
CONTINUOUS
10
5.29335
20
-5.19845
11
5.29155
21
-5.20439
0
LINE
8
BLACK
6
CONTINUOUS
10
5.29155
20
-5.20439
11
5.29107
21
-5.20528
0
LINE
8
BLACK
6
CONTINUOUS
10
5.29107
20
-5.20528
11
5.28862
21
-5.20987
0
LINE
8
BLACK
6
CONTINUOUS
10
5.28862
20
-5.20987
11
5.28567
21
-5.21347
0
LINE
8
BLACK
6
CONTINUOUS
10
5.28567
20
-5.21347
11
5.25285
21
-5.24628
0
LINE
8
BLACK
6
CONTINUOUS
10
5.25285
20
-5.24628
11
5.24925
21
-5.24924
0
LINE
8
BLACK
6
CONTINUOUS
10
5.24925
20
-5.24924
11
5.24568
21
-5.25114
0
LINE
8
BLACK
6
CONTINUOUS
10
5.24568
20
-5.25114
11
5.24378
21
-5.25216
0
LINE
8
BLACK
6
CONTINUOUS
10
5.24378
20
-5.25216
11
5.24231
21
-5.25261
0
LINE
8
BLACK
6
CONTINUOUS
10
5.24231
20
-5.25261
11
5.23783
21
-5.25397
0
LINE
8
BLACK
6
CONTINUOUS
10
5.23783
20
-5.25397
11
5.23165
21
-5.25458
0
LINE
8
BLACK
6
CONTINUOUS
10
5.23165
20
-5.25458
11
5.22547
21
-5.25397
0
LINE
8
BLACK
6
CONTINUOUS
10
5.22547
20
-5.25397
11
5.22099
21
-5.25261
0
LINE
8
BLACK
6
CONTINUOUS
10
5.22099
20
-5.25261
11
5.21952
21
-5.25216
0
LINE
8
BLACK
6
CONTINUOUS
10
5.21952
20
-5.25216
11
5.21761
21
-5.25114
0
LINE
8
BLACK
6
CONTINUOUS
10
5.21761
20
-5.25114
11
5.21404
21
-5.24924
0
LINE
8
BLACK
6
CONTINUOUS
10
5.21404
20
-5.24924
11
5.2123
21
-5.24781
0
LINE
8
BLACK
6
CONTINUOUS
10
5.2123
20
-5.24781
11
5.20924
21
-5.24529
0
LINE
8
BLACK
6
CONTINUOUS
10
5.20924
20
-5.24529
11
5.2067
21
-5.24219
0
LINE
8
BLACK
6
CONTINUOUS
10
5.2067
20
-5.24219
11
5.2053
21
-5.24049
0
LINE
8
BLACK
6
CONTINUOUS
10
5.2053
20
-5.24049
11
5.20251
21
-5.23527
0
LINE
8
BLACK
6
CONTINUOUS
10
5.20251
20
-5.23527
11
5.20237
21
-5.23501
0
LINE
8
BLACK
6
CONTINUOUS
10
5.20237
20
-5.23501
11
5.20147
21
-5.23204
0
LINE
8
BLACK
6
CONTINUOUS
10
5.20147
20
-5.23204
11
5.20057
21
-5.22907
0
LINE
8
BLACK
6
CONTINUOUS
10
5.20057
20
-5.22907
11
5.19996
21
-5.22289
0
LINE
8
BLACK
6
CONTINUOUS
10
5.19996
20
-5.22289
11
5.20057
21
-5.21671
0
LINE
8
BLACK
6
CONTINUOUS
10
5.20057
20
-5.21671
11
5.20237
21
-5.21076
0
LINE
8
BLACK
6
CONTINUOUS
10
5.20237
20
-5.21076
11
5.20237
21
-5.21076
0
LINE
8
BLACK
6
CONTINUOUS
10
5.20237
20
-5.21076
11
5.20345
21
-5.20875
0
LINE
8
BLACK
6
CONTINUOUS
10
5.20345
20
-5.20875
11
5.2053
21
-5.20528
0
LINE
8
BLACK
6
CONTINUOUS
10
5.2053
20
-5.20528
11
5.20825
21
-5.20168
0
LINE
8
BLACK
6
CONTINUOUS
10
5.20825
20
-5.20168
11
5.24107
21
-5.16887
0
LINE
8
BLACK
6
CONTINUOUS
10
5.24107
20
-5.16887
11
5.24467
21
-5.16592
0
LINE
8
BLACK
6
CONTINUOUS
10
5.24467
20
-5.16592
11
5.24741
21
-5.16445
0
LINE
8
BLACK
6
CONTINUOUS
10
5.24741
20
-5.16445
11
5.25015
21
-5.16299
0
LINE
8
BLACK
6
CONTINUOUS
10
5.25015
20
-5.16299
11
5.25609
21
-5.16119
0
LINE
8
BLACK
6
CONTINUOUS
10
5.25609
20
-5.16119
11
5.26227
21
-5.16058
0
LINE
8
BLACK
6
CONTINUOUS
10
5.26227
20
-5.16058
11
5.26845
21
-5.16119
0
LINE
8
BLACK
6
CONTINUOUS
10
6.38986
20
-5.16183
11
6.39667
21
-5.16465
0
LINE
8
BLACK
6
CONTINUOUS
10
6.39667
20
-5.16465
11
6.39667
21
-5.16465
0
LINE
8
BLACK
6
CONTINUOUS
10
6.39667
20
-5.16465
11
6.4028
21
-5.16875
0
LINE
8
BLACK
6
CONTINUOUS
10
6.4028
20
-5.16875
11
6.40802
21
-5.17397
0
LINE
8
BLACK
6
CONTINUOUS
10
6.40802
20
-5.17397
11
6.41008
21
-5.17705
0
LINE
8
BLACK
6
CONTINUOUS
10
6.41008
20
-5.17705
11
6.41211
21
-5.1801
0
LINE
8
BLACK
6
CONTINUOUS
10
6.41211
20
-5.1801
11
6.41494
21
-5.18691
0
LINE
8
BLACK
6
CONTINUOUS
10
6.41494
20
-5.18691
11
6.41638
21
-5.19414
0
LINE
8
BLACK
6
CONTINUOUS
10
6.41638
20
-5.19414
11
6.41638
21
-5.20152
0
LINE
8
BLACK
6
CONTINUOUS
10
6.41638
20
-5.20152
11
6.41494
21
-5.20875
0
LINE
8
BLACK
6
CONTINUOUS
10
6.41494
20
-5.20875
11
6.41211
21
-5.21557
0
LINE
8
BLACK
6
CONTINUOUS
10
6.41211
20
-5.21557
11
6.41008
21
-5.21861
0
LINE
8
BLACK
6
CONTINUOUS
10
6.41008
20
-5.21861
11
6.40802
21
-5.2217
0
LINE
8
BLACK
6
CONTINUOUS
10
6.40802
20
-5.2217
11
6.4028
21
-5.22691
0
LINE
8
BLACK
6
CONTINUOUS
10
6.4028
20
-5.22691
11
6.39972
21
-5.22898
0
LINE
8
BLACK
6
CONTINUOUS
10
6.39972
20
-5.22898
11
6.39667
21
-5.23101
0
LINE
8
BLACK
6
CONTINUOUS
10
6.39667
20
-5.23101
11
6.38986
21
-5.23383
0
LINE
8
BLACK
6
CONTINUOUS
10
6.38986
20
-5.23383
11
6.38262
21
-5.23527
0
LINE
8
BLACK
6
CONTINUOUS
10
6.38262
20
-5.23527
11
6.37525
21
-5.23527
0
LINE
8
BLACK
6
CONTINUOUS
10
6.37525
20
-5.23527
11
6.36801
21
-5.23383
0
LINE
8
BLACK
6
CONTINUOUS
10
6.36801
20
-5.23383
11
6.3612
21
-5.23101
0
LINE
8
BLACK
6
CONTINUOUS
10
6.3612
20
-5.23101
11
6.35815
21
-5.22898
0
LINE
8
BLACK
6
CONTINUOUS
10
6.35815
20
-5.22898
11
6.35507
21
-5.22691
0
LINE
8
BLACK
6
CONTINUOUS
10
6.35507
20
-5.22691
11
6.34985
21
-5.2217
0
LINE
8
BLACK
6
CONTINUOUS
10
6.34985
20
-5.2217
11
6.34779
21
-5.21861
0
LINE
8
BLACK
6
CONTINUOUS
10
6.34779
20
-5.21861
11
6.34576
21
-5.21557
0
LINE
8
BLACK
6
CONTINUOUS
10
6.34576
20
-5.21557
11
6.34293
21
-5.20875
0
LINE
8
BLACK
6
CONTINUOUS
10
6.34293
20
-5.20875
11
6.34149
21
-5.20152
0
LINE
8
BLACK
6
CONTINUOUS
10
6.34149
20
-5.20152
11
6.34149
21
-5.19414
0
LINE
8
BLACK
6
CONTINUOUS
10
6.34149
20
-5.19414
11
6.34293
21
-5.18691
0
LINE
8
BLACK
6
CONTINUOUS
10
6.34293
20
-5.18691
11
6.34576
21
-5.1801
0
LINE
8
BLACK
6
CONTINUOUS
10
6.34576
20
-5.1801
11
6.34779
21
-5.17705
0
LINE
8
BLACK
6
CONTINUOUS
10
6.34779
20
-5.17705
11
6.34985
21
-5.17397
0
LINE
8
BLACK
6
CONTINUOUS
10
6.34985
20
-5.17397
11
6.35507
21
-5.16875
0
LINE
8
BLACK
6
CONTINUOUS
10
6.35507
20
-5.16875
11
6.3612
21
-5.16465
0
LINE
8
BLACK
6
CONTINUOUS
10
6.3612
20
-5.16465
11
6.3612
21
-5.16465
0
LINE
8
BLACK
6
CONTINUOUS
10
6.3612
20
-5.16465
11
6.36801
21
-5.16183
0
LINE
8
BLACK
6
CONTINUOUS
10
6.36801
20
-5.16183
11
6.37525
21
-5.16039
0
LINE
8
BLACK
6
CONTINUOUS
10
6.37525
20
-5.16039
11
6.38262
21
-5.16039
0
LINE
8
BLACK
6
CONTINUOUS
10
6.38262
20
-5.16039
11
6.38986
21
-5.16183
0
LINE
8
BLACK
6
CONTINUOUS
10
5.44301
20
-5.16183
11
5.44982
21
-5.16465
0
LINE
8
BLACK
6
CONTINUOUS
10
5.44982
20
-5.16465
11
5.44982
21
-5.16465
0
LINE
8
BLACK
6
CONTINUOUS
10
5.44982
20
-5.16465
11
5.45596
21
-5.16875
0
LINE
8
BLACK
6
CONTINUOUS
10
5.45596
20
-5.16875
11
5.46117
21
-5.17397
0
LINE
8
BLACK
6
CONTINUOUS
10
5.46117
20
-5.17397
11
5.46323
21
-5.17705
0
LINE
8
BLACK
6
CONTINUOUS
10
5.46323
20
-5.17705
11
5.46527
21
-5.1801
0
LINE
8
BLACK
6
CONTINUOUS
10
5.46527
20
-5.1801
11
5.46809
21
-5.18691
0
LINE
8
BLACK
6
CONTINUOUS
10
5.46809
20
-5.18691
11
5.46953
21
-5.19414
0
LINE
8
BLACK
6
CONTINUOUS
10
5.46953
20
-5.19414
11
5.46953
21
-5.20152
0
LINE
8
BLACK
6
CONTINUOUS
10
5.46953
20
-5.20152
11
5.46809
21
-5.20875
0
LINE
8
BLACK
6
CONTINUOUS
10
5.46809
20
-5.20875
11
5.46527
21
-5.21557
0
LINE
8
BLACK
6
CONTINUOUS
10
5.46527
20
-5.21557
11
5.46323
21
-5.21861
0
LINE
8
BLACK
6
CONTINUOUS
10
5.46323
20
-5.21861
11
5.46117
21
-5.2217
0
LINE
8
BLACK
6
CONTINUOUS
10
5.46117
20
-5.2217
11
5.45596
21
-5.22691
0
LINE
8
BLACK
6
CONTINUOUS
10
5.45596
20
-5.22691
11
5.45287
21
-5.22898
0
LINE
8
BLACK
6
CONTINUOUS
10
5.45287
20
-5.22898
11
5.44982
21
-5.23101
0
LINE
8
BLACK
6
CONTINUOUS
10
5.44982
20
-5.23101
11
5.44301
21
-5.23383
0
LINE
8
BLACK
6
CONTINUOUS
10
5.44301
20
-5.23383
11
5.43578
21
-5.23527
0
LINE
8
BLACK
6
CONTINUOUS
10
5.43578
20
-5.23527
11
5.4284
21
-5.23527
0
LINE
8
BLACK
6
CONTINUOUS
10
5.4284
20
-5.23527
11
5.42117
21
-5.23383
0
LINE
8
BLACK
6
CONTINUOUS
10
5.42117
20
-5.23383
11
5.41435
21
-5.23101
0
LINE
8
BLACK
6
CONTINUOUS
10
5.41435
20
-5.23101
11
5.41131
21
-5.22898
0
LINE
8
BLACK
6
CONTINUOUS
10
5.41131
20
-5.22898
11
5.40822
21
-5.22691
0
LINE
8
BLACK
6
CONTINUOUS
10
5.40822
20
-5.22691
11
5.40301
21
-5.2217
0
LINE
8
BLACK
6
CONTINUOUS
10
5.40301
20
-5.2217
11
5.40094
21
-5.21861
0
LINE
8
BLACK
6
CONTINUOUS
10
5.40094
20
-5.21861
11
5.39891
21
-5.21557
0
LINE
8
BLACK
6
CONTINUOUS
10
5.39891
20
-5.21557
11
5.39609
21
-5.20875
0
LINE
8
BLACK
6
CONTINUOUS
10
5.39609
20
-5.20875
11
5.39465
21
-5.20152
0
LINE
8
BLACK
6
CONTINUOUS
10
5.39465
20
-5.20152
11
5.39465
21
-5.19414
0
LINE
8
BLACK
6
CONTINUOUS
10
5.39465
20
-5.19414
11
5.39609
21
-5.18691
0
LINE
8
BLACK
6
CONTINUOUS
10
5.39609
20
-5.18691
11
5.39891
21
-5.1801
0
LINE
8
BLACK
6
CONTINUOUS
10
5.39891
20
-5.1801
11
5.40094
21
-5.17705
0
LINE
8
BLACK
6
CONTINUOUS
10
5.40094
20
-5.17705
11
5.40301
21
-5.17397
0
LINE
8
BLACK
6
CONTINUOUS
10
5.40301
20
-5.17397
11
5.40822
21
-5.16875
0
LINE
8
BLACK
6
CONTINUOUS
10
5.40822
20
-5.16875
11
5.41435
21
-5.16465
0
LINE
8
BLACK
6
CONTINUOUS
10
5.41435
20
-5.16465
11
5.41435
21
-5.16465
0
LINE
8
BLACK
6
CONTINUOUS
10
5.41435
20
-5.16465
11
5.42117
21
-5.16183
0
LINE
8
BLACK
6
CONTINUOUS
10
5.42117
20
-5.16183
11
5.4284
21
-5.16039
0
LINE
8
BLACK
6
CONTINUOUS
10
5.4284
20
-5.16039
11
5.43578
21
-5.16039
0
LINE
8
BLACK
6
CONTINUOUS
10
5.43578
20
-5.16039
11
5.44301
21
-5.16183
0
LINE
8
BLACK
6
CONTINUOUS
10
5.36589
20
-5.06375
11
5.37183
21
-5.06555
0
LINE
8
BLACK
6
CONTINUOUS
10
5.37183
20
-5.06555
11
5.37357
21
-5.06648
0
LINE
8
BLACK
6
CONTINUOUS
10
5.37357
20
-5.06648
11
5.37731
21
-5.06848
0
LINE
8
BLACK
6
CONTINUOUS
10
5.37731
20
-5.06848
11
5.37857
21
-5.06951
0
LINE
8
BLACK
6
CONTINUOUS
10
5.37857
20
-5.06951
11
5.38211
21
-5.07242
0
LINE
8
BLACK
6
CONTINUOUS
10
5.38211
20
-5.07242
11
5.38405
21
-5.07478
0
LINE
8
BLACK
6
CONTINUOUS
10
5.38405
20
-5.07478
11
5.38606
21
-5.07722
0
LINE
8
BLACK
6
CONTINUOUS
10
5.38606
20
-5.07722
11
5.38805
21
-5.08096
0
LINE
8
BLACK
6
CONTINUOUS
10
5.38805
20
-5.08096
11
5.38898
21
-5.0827
0
LINE
8
BLACK
6
CONTINUOUS
10
5.38898
20
-5.0827
11
5.39079
21
-5.08865
0
LINE
8
BLACK
6
CONTINUOUS
10
5.39079
20
-5.08865
11
5.3914
21
-5.09483
0
LINE
8
BLACK
6
CONTINUOUS
10
5.3914
20
-5.09483
11
5.39079
21
-5.10101
0
LINE
8
BLACK
6
CONTINUOUS
10
5.39079
20
-5.10101
11
5.38898
21
-5.10696
0
LINE
8
BLACK
6
CONTINUOUS
10
5.38898
20
-5.10696
11
5.38851
21
-5.10785
0
LINE
8
BLACK
6
CONTINUOUS
10
5.38851
20
-5.10785
11
5.38606
21
-5.11243
0
LINE
8
BLACK
6
CONTINUOUS
10
5.38606
20
-5.11243
11
5.3831
21
-5.11603
0
LINE
8
BLACK
6
CONTINUOUS
10
5.3831
20
-5.11603
11
5.35029
21
-5.14885
0
LINE
8
BLACK
6
CONTINUOUS
10
5.35029
20
-5.14885
11
5.34669
21
-5.1518
0
LINE
8
BLACK
6
CONTINUOUS
10
5.34669
20
-5.1518
11
5.34312
21
-5.15371
0
LINE
8
BLACK
6
CONTINUOUS
10
5.34312
20
-5.15371
11
5.34121
21
-5.15473
0
LINE
8
BLACK
6
CONTINUOUS
10
5.34121
20
-5.15473
11
5.33824
21
-5.15563
0
LINE
8
BLACK
6
CONTINUOUS
10
5.33824
20
-5.15563
11
5.33527
21
-5.15653
0
LINE
8
BLACK
6
CONTINUOUS
10
5.33527
20
-5.15653
11
5.32908
21
-5.15714
0
LINE
8
BLACK
6
CONTINUOUS
10
5.32908
20
-5.15714
11
5.3229
21
-5.15653
0
LINE
8
BLACK
6
CONTINUOUS
10
5.3229
20
-5.15653
11
5.31993
21
-5.15563
0
LINE
8
BLACK
6
CONTINUOUS
10
5.31993
20
-5.15563
11
5.31696
21
-5.15473
0
LINE
8
BLACK
6
CONTINUOUS
10
5.31696
20
-5.15473
11
5.31505
21
-5.15371
0
LINE
8
BLACK
6
CONTINUOUS
10
5.31505
20
-5.15371
11
5.31148
21
-5.1518
0
LINE
8
BLACK
6
CONTINUOUS
10
5.31148
20
-5.1518
11
5.30978
21
-5.1504
0
LINE
8
BLACK
6
CONTINUOUS
10
5.30978
20
-5.1504
11
5.30668
21
-5.14786
0
LINE
8
BLACK
6
CONTINUOUS
10
5.30668
20
-5.14786
11
5.30388
21
-5.14445
0
LINE
8
BLACK
6
CONTINUOUS
10
5.30388
20
-5.14445
11
5.30274
21
-5.14306
0
LINE
8
BLACK
6
CONTINUOUS
10
5.30274
20
-5.14306
11
5.30083
21
-5.13949
0
LINE
8
BLACK
6
CONTINUOUS
10
5.30083
20
-5.13949
11
5.29981
21
-5.13758
0
LINE
8
BLACK
6
CONTINUOUS
10
5.29981
20
-5.13758
11
5.29891
21
-5.13461
0
LINE
8
BLACK
6
CONTINUOUS
10
5.29891
20
-5.13461
11
5.29801
21
-5.13163
0
LINE
8
BLACK
6
CONTINUOUS
10
5.29801
20
-5.13163
11
5.2974
21
-5.12545
0
LINE
8
BLACK
6
CONTINUOUS
10
5.2974
20
-5.12545
11
5.29801
21
-5.11927
0
LINE
8
BLACK
6
CONTINUOUS
10
5.29801
20
-5.11927
11
5.29899
21
-5.11603
0
LINE
8
BLACK
6
CONTINUOUS
10
5.29899
20
-5.11603
11
5.29981
21
-5.11333
0
LINE
8
BLACK
6
CONTINUOUS
10
5.29981
20
-5.11333
11
5.30083
21
-5.11142
0
LINE
8
BLACK
6
CONTINUOUS
10
5.30083
20
-5.11142
11
5.30274
21
-5.10785
0
LINE
8
BLACK
6
CONTINUOUS
10
5.30274
20
-5.10785
11
5.30569
21
-5.10425
0
LINE
8
BLACK
6
CONTINUOUS
10
5.30569
20
-5.10425
11
5.3385
21
-5.07143
0
LINE
8
BLACK
6
CONTINUOUS
10
5.3385
20
-5.07143
11
5.3421
21
-5.06848
0
LINE
8
BLACK
6
CONTINUOUS
10
5.3421
20
-5.06848
11
5.34484
21
-5.06702
0
LINE
8
BLACK
6
CONTINUOUS
10
5.34484
20
-5.06702
11
5.34758
21
-5.06555
0
LINE
8
BLACK
6
CONTINUOUS
10
5.34758
20
-5.06555
11
5.35353
21
-5.06375
0
LINE
8
BLACK
6
CONTINUOUS
10
5.35353
20
-5.06375
11
5.35971
21
-5.06314
0
LINE
8
BLACK
6
CONTINUOUS
10
5.35971
20
-5.06314
11
5.36589
21
-5.06375
0
LINE
8
BLACK
6
CONTINUOUS
10
6.4575
20
-5.06375
11
6.46047
21
-5.06465
0
LINE
8
BLACK
6
CONTINUOUS
10
6.46047
20
-5.06465
11
6.46344
21
-5.06555
0
LINE
8
BLACK
6
CONTINUOUS
10
6.46344
20
-5.06555
11
6.46535
21
-5.06657
0
LINE
8
BLACK
6
CONTINUOUS
10
6.46535
20
-5.06657
11
6.46892
21
-5.06848
0
LINE
8
BLACK
6
CONTINUOUS
10
6.46892
20
-5.06848
11
6.47252
21
-5.07143
0
LINE
8
BLACK
6
CONTINUOUS
10
6.47252
20
-5.07143
11
6.50533
21
-5.10425
0
LINE
8
BLACK
6
CONTINUOUS
10
6.50533
20
-5.10425
11
6.50829
21
-5.10785
0
LINE
8
BLACK
6
CONTINUOUS
10
6.50829
20
-5.10785
11
6.50975
21
-5.11059
0
LINE
8
BLACK
6
CONTINUOUS
10
6.50975
20
-5.11059
11
6.51121
21
-5.11333
0
LINE
8
BLACK
6
CONTINUOUS
10
6.51121
20
-5.11333
11
6.51302
21
-5.11927
0
LINE
8
BLACK
6
CONTINUOUS
10
6.51302
20
-5.11927
11
6.51363
21
-5.12545
0
LINE
8
BLACK
6
CONTINUOUS
10
6.51363
20
-5.12545
11
6.51302
21
-5.13163
0
LINE
8
BLACK
6
CONTINUOUS
10
6.51302
20
-5.13163
11
6.51121
21
-5.13758
0
LINE
8
BLACK
6
CONTINUOUS
10
6.51121
20
-5.13758
11
6.51121
21
-5.13758
0
LINE
8
BLACK
6
CONTINUOUS
10
6.51121
20
-5.13758
11
6.50829
21
-5.14306
0
LINE
8
BLACK
6
CONTINUOUS
10
6.50829
20
-5.14306
11
6.50714
21
-5.14445
0
LINE
8
BLACK
6
CONTINUOUS
10
6.50714
20
-5.14445
11
6.50435
21
-5.14786
0
LINE
8
BLACK
6
CONTINUOUS
10
6.50435
20
-5.14786
11
6.50125
21
-5.1504
0
LINE
8
BLACK
6
CONTINUOUS
10
6.50125
20
-5.1504
11
6.49954
21
-5.1518
0
LINE
8
BLACK
6
CONTINUOUS
10
6.49954
20
-5.1518
11
6.49581
21
-5.1538
0
LINE
8
BLACK
6
CONTINUOUS
10
6.49581
20
-5.1538
11
6.49407
21
-5.15473
0
LINE
8
BLACK
6
CONTINUOUS
10
6.49407
20
-5.15473
11
6.48812
21
-5.15653
0
LINE
8
BLACK
6
CONTINUOUS
10
6.48812
20
-5.15653
11
6.48194
21
-5.15714
0
LINE
8
BLACK
6
CONTINUOUS
10
6.48194
20
-5.15714
11
6.47576
21
-5.15653
0
LINE
8
BLACK
6
CONTINUOUS
10
6.47576
20
-5.15653
11
6.46981
21
-5.15473
0
LINE
8
BLACK
6
CONTINUOUS
10
6.46981
20
-5.15473
11
6.46707
21
-5.15326
0
LINE
8
BLACK
6
CONTINUOUS
10
6.46707
20
-5.15326
11
6.46433
21
-5.1518
0
LINE
8
BLACK
6
CONTINUOUS
10
6.46433
20
-5.1518
11
6.46074
21
-5.14885
0
LINE
8
BLACK
6
CONTINUOUS
10
6.46074
20
-5.14885
11
6.42792
21
-5.11603
0
LINE
8
BLACK
6
CONTINUOUS
10
6.42792
20
-5.11603
11
6.42497
21
-5.11243
0
LINE
8
BLACK
6
CONTINUOUS
10
6.42497
20
-5.11243
11
6.42306
21
-5.10886
0
LINE
8
BLACK
6
CONTINUOUS
10
6.42306
20
-5.10886
11
6.42204
21
-5.10696
0
LINE
8
BLACK
6
CONTINUOUS
10
6.42204
20
-5.10696
11
6.42024
21
-5.10101
0
LINE
8
BLACK
6
CONTINUOUS
10
6.42024
20
-5.10101
11
6.42024
21
-5.10101
0
LINE
8
BLACK
6
CONTINUOUS
10
6.42024
20
-5.10101
11
6.41963
21
-5.09483
0
LINE
8
BLACK
6
CONTINUOUS
10
6.41963
20
-5.09483
11
6.42024
21
-5.08865
0
LINE
8
BLACK
6
CONTINUOUS
10
6.42024
20
-5.08865
11
6.42204
21
-5.0827
0
LINE
8
BLACK
6
CONTINUOUS
10
6.42204
20
-5.0827
11
6.42204
21
-5.0827
0
LINE
8
BLACK
6
CONTINUOUS
10
6.42204
20
-5.0827
11
6.42306
21
-5.08079
0
LINE
8
BLACK
6
CONTINUOUS
10
6.42306
20
-5.08079
11
6.42497
21
-5.07722
0
LINE
8
BLACK
6
CONTINUOUS
10
6.42497
20
-5.07722
11
6.42698
21
-5.07478
0
LINE
8
BLACK
6
CONTINUOUS
10
6.42698
20
-5.07478
11
6.42891
21
-5.07242
0
LINE
8
BLACK
6
CONTINUOUS
10
6.42891
20
-5.07242
11
6.43245
21
-5.06951
0
LINE
8
BLACK
6
CONTINUOUS
10
6.43245
20
-5.06951
11
6.43371
21
-5.06848
0
LINE
8
BLACK
6
CONTINUOUS
10
6.43371
20
-5.06848
11
6.43728
21
-5.06657
0
LINE
8
BLACK
6
CONTINUOUS
10
6.43728
20
-5.06657
11
6.43919
21
-5.06555
0
LINE
8
BLACK
6
CONTINUOUS
10
6.43919
20
-5.06555
11
6.44216
21
-5.06465
0
LINE
8
BLACK
6
CONTINUOUS
10
6.44216
20
-5.06465
11
6.44513
21
-5.06375
0
LINE
8
BLACK
6
CONTINUOUS
10
6.44513
20
-5.06375
11
6.45132
21
-5.06314
0
LINE
8
BLACK
6
CONTINUOUS
10
6.45132
20
-5.06314
11
6.4575
21
-5.06375
0
LINE
8
BLACK
6
CONTINUOUS
10
5.19962
20
-5.1294
11
5.11425
21
-5.14445
0
LINE
8
BLACK
6
CONTINUOUS
10
5.11425
20
-5.14445
11
5.09577
21
-5.03969
0
LINE
8
BLACK
6
CONTINUOUS
10
5.09577
20
-5.03969
11
5.18115
21
-5.02463
0
LINE
8
BLACK
6
CONTINUOUS
10
5.18115
20
-5.02463
11
5.19962
21
-5.1294
0
LINE
8
BLACK
6
CONTINUOUS
10
6.8027
20
-4.99607
11
6.81013
21
-4.99779
0
LINE
8
BLACK
6
CONTINUOUS
10
6.81013
20
-4.99779
11
6.81013
21
-4.99779
0
LINE
8
BLACK
6
CONTINUOUS
10
6.81013
20
-4.99779
11
6.81203
21
-4.99843
0
LINE
8
BLACK
6
CONTINUOUS
10
6.81203
20
-4.99843
11
6.81566
21
-4.99965
0
LINE
8
BLACK
6
CONTINUOUS
10
6.81566
20
-4.99965
11
6.8224
21
-5.00353
0
LINE
8
BLACK
6
CONTINUOUS
10
6.8224
20
-5.00353
11
6.82827
21
-5.00864
0
LINE
8
BLACK
6
CONTINUOUS
10
6.82827
20
-5.00864
11
6.83302
21
-5.01481
0
LINE
8
BLACK
6
CONTINUOUS
10
6.83302
20
-5.01481
11
6.83648
21
-5.02178
0
LINE
8
BLACK
6
CONTINUOUS
10
6.83648
20
-5.02178
11
6.83764
21
-5.02607
0
LINE
8
BLACK
6
CONTINUOUS
10
6.83764
20
-5.02607
11
6.83851
21
-5.02929
0
LINE
8
BLACK
6
CONTINUOUS
10
6.83851
20
-5.02929
11
6.83881
21
-5.03379
0
LINE
8
BLACK
6
CONTINUOUS
10
6.83881
20
-5.03379
11
6.83903
21
-5.03706
0
LINE
8
BLACK
6
CONTINUOUS
10
6.83903
20
-5.03706
11
6.83803
21
-5.04478
0
LINE
8
BLACK
6
CONTINUOUS
10
6.83803
20
-5.04478
11
6.83555
21
-5.05215
0
LINE
8
BLACK
6
CONTINUOUS
10
6.83555
20
-5.05215
11
6.83555
21
-5.05215
0
LINE
8
BLACK
6
CONTINUOUS
10
6.83555
20
-5.05215
11
6.83167
21
-5.0589
0
LINE
8
BLACK
6
CONTINUOUS
10
6.83167
20
-5.0589
11
6.82911
21
-5.06183
0
LINE
8
BLACK
6
CONTINUOUS
10
6.82911
20
-5.06183
11
6.82655
21
-5.06476
0
LINE
8
BLACK
6
CONTINUOUS
10
6.82655
20
-5.06476
11
6.82039
21
-5.06951
0
LINE
8
BLACK
6
CONTINUOUS
10
6.82039
20
-5.06951
11
6.81698
21
-5.0712
0
LINE
8
BLACK
6
CONTINUOUS
10
6.81698
20
-5.0712
11
6.81342
21
-5.07297
0
LINE
8
BLACK
6
CONTINUOUS
10
6.81342
20
-5.07297
11
6.81342
21
-5.07297
0
LINE
8
BLACK
6
CONTINUOUS
10
6.81342
20
-5.07297
11
6.81342
21
-5.07297
0
LINE
8
BLACK
6
CONTINUOUS
10
6.81342
20
-5.07297
11
6.8059
21
-5.075
0
LINE
8
BLACK
6
CONTINUOUS
10
6.8059
20
-5.075
11
6.79814
21
-5.07553
0
LINE
8
BLACK
6
CONTINUOUS
10
6.79814
20
-5.07553
11
6.79236
21
-5.07478
0
LINE
8
BLACK
6
CONTINUOUS
10
6.79236
20
-5.07478
11
6.78493
21
-5.07306
0
LINE
8
BLACK
6
CONTINUOUS
10
6.78493
20
-5.07306
11
6.78493
21
-5.07306
0
LINE
8
BLACK
6
CONTINUOUS
10
6.78493
20
-5.07306
11
6.78493
21
-5.07306
0
LINE
8
BLACK
6
CONTINUOUS
10
6.78493
20
-5.07306
11
6.78303
21
-5.07242
0
LINE
8
BLACK
6
CONTINUOUS
10
6.78303
20
-5.07242
11
6.7794
21
-5.0712
0
LINE
8
BLACK
6
CONTINUOUS
10
6.7794
20
-5.0712
11
6.77265
21
-5.06732
0
LINE
8
BLACK
6
CONTINUOUS
10
6.77265
20
-5.06732
11
6.76679
21
-5.06221
0
LINE
8
BLACK
6
CONTINUOUS
10
6.76679
20
-5.06221
11
6.76679
21
-5.06221
0
LINE
8
BLACK
6
CONTINUOUS
10
6.76679
20
-5.06221
11
6.76204
21
-5.05604
0
LINE
8
BLACK
6
CONTINUOUS
10
6.76204
20
-5.05604
11
6.75858
21
-5.04907
0
LINE
8
BLACK
6
CONTINUOUS
10
6.75858
20
-5.04907
11
6.75858
21
-5.04907
0
LINE
8
BLACK
6
CONTINUOUS
10
6.75858
20
-5.04907
11
6.75655
21
-5.04156
0
LINE
8
BLACK
6
CONTINUOUS
10
6.75655
20
-5.04156
11
6.75603
21
-5.03379
0
LINE
8
BLACK
6
CONTINUOUS
10
6.75603
20
-5.03379
11
6.75703
21
-5.02607
0
LINE
8
BLACK
6
CONTINUOUS
10
6.75703
20
-5.02607
11
6.75951
21
-5.0187
0
LINE
8
BLACK
6
CONTINUOUS
10
6.75951
20
-5.0187
11
6.76339
21
-5.01195
0
LINE
8
BLACK
6
CONTINUOUS
10
6.76339
20
-5.01195
11
6.76851
21
-5.00609
0
LINE
8
BLACK
6
CONTINUOUS
10
6.76851
20
-5.00609
11
6.76851
21
-5.00609
0
LINE
8
BLACK
6
CONTINUOUS
10
6.76851
20
-5.00609
11
6.77467
21
-5.00134
0
LINE
8
BLACK
6
CONTINUOUS
10
6.77467
20
-5.00134
11
6.78164
21
-4.99788
0
LINE
8
BLACK
6
CONTINUOUS
10
6.78164
20
-4.99788
11
6.78164
21
-4.99788
0
LINE
8
BLACK
6
CONTINUOUS
10
6.78164
20
-4.99788
11
6.78164
21
-4.99788
0
LINE
8
BLACK
6
CONTINUOUS
10
6.78164
20
-4.99788
11
6.78915
21
-4.99585
0
LINE
8
BLACK
6
CONTINUOUS
10
6.78915
20
-4.99585
11
6.79692
21
-4.99532
0
LINE
8
BLACK
6
CONTINUOUS
10
6.79692
20
-4.99532
11
6.8027
21
-4.99607
0
LINE
8
BLACK
6
CONTINUOUS
10
5.26089
20
-4.97809
11
5.2627
21
-4.98835
0
LINE
8
BLACK
6
CONTINUOUS
10
5.2627
20
-4.98835
11
5.1812
21
-5.00272
0
LINE
8
BLACK
6
CONTINUOUS
10
5.1812
20
-5.00272
11
5.1812
21
-5.00272
0
LINE
8
BLACK
6
CONTINUOUS
10
5.1812
20
-5.00272
11
5.1764
21
-4.9755
0
LINE
8
BLACK
6
CONTINUOUS
10
5.1764
20
-4.9755
11
5.20823
21
-4.96989
0
LINE
8
BLACK
6
CONTINUOUS
10
5.20823
20
-4.96989
11
5.2579
21
-4.96113
0
LINE
8
BLACK
6
CONTINUOUS
10
5.2579
20
-4.96113
11
5.2579
21
-4.96113
0
LINE
8
BLACK
6
CONTINUOUS
10
5.2579
20
-4.96113
11
5.26089
21
-4.97809
0
LINE
8
BLACK
6
CONTINUOUS
10
6.8252
20
-4.89864
11
6.83262
21
-4.90035
0
LINE
8
BLACK
6
CONTINUOUS
10
6.83262
20
-4.90035
11
6.83262
21
-4.90035
0
LINE
8
BLACK
6
CONTINUOUS
10
6.83262
20
-4.90035
11
6.83453
21
-4.90099
0
LINE
8
BLACK
6
CONTINUOUS
10
6.83453
20
-4.90099
11
6.83815
21
-4.90221
0
LINE
8
BLACK
6
CONTINUOUS
10
6.83815
20
-4.90221
11
6.8449
21
-4.90609
0
LINE
8
BLACK
6
CONTINUOUS
10
6.8449
20
-4.90609
11
6.85076
21
-4.91121
0
LINE
8
BLACK
6
CONTINUOUS
10
6.85076
20
-4.91121
11
6.85551
21
-4.91737
0
LINE
8
BLACK
6
CONTINUOUS
10
6.85551
20
-4.91737
11
6.85897
21
-4.92434
0
LINE
8
BLACK
6
CONTINUOUS
10
6.85897
20
-4.92434
11
6.86013
21
-4.92864
0
LINE
8
BLACK
6
CONTINUOUS
10
6.86013
20
-4.92864
11
6.861
21
-4.93186
0
LINE
8
BLACK
6
CONTINUOUS
10
6.861
20
-4.93186
11
6.86153
21
-4.93962
0
LINE
8
BLACK
6
CONTINUOUS
10
6.86153
20
-4.93962
11
6.86153
21
-4.93962
0
LINE
8
BLACK
6
CONTINUOUS
10
6.86153
20
-4.93962
11
6.86053
21
-4.94734
0
LINE
8
BLACK
6
CONTINUOUS
10
6.86053
20
-4.94734
11
6.85804
21
-4.95471
0
LINE
8
BLACK
6
CONTINUOUS
10
6.85804
20
-4.95471
11
6.85804
21
-4.95471
0
LINE
8
BLACK
6
CONTINUOUS
10
6.85804
20
-4.95471
11
6.85417
21
-4.96146
0
LINE
8
BLACK
6
CONTINUOUS
10
6.85417
20
-4.96146
11
6.85161
21
-4.96439
0
LINE
8
BLACK
6
CONTINUOUS
10
6.85161
20
-4.96439
11
6.84905
21
-4.96732
0
LINE
8
BLACK
6
CONTINUOUS
10
6.84905
20
-4.96732
11
6.84288
21
-4.97208
0
LINE
8
BLACK
6
CONTINUOUS
10
6.84288
20
-4.97208
11
6.83948
21
-4.97376
0
LINE
8
BLACK
6
CONTINUOUS
10
6.83948
20
-4.97376
11
6.83591
21
-4.97553
0
LINE
8
BLACK
6
CONTINUOUS
10
6.83591
20
-4.97553
11
6.83591
21
-4.97553
0
LINE
8
BLACK
6
CONTINUOUS
10
6.83591
20
-4.97553
11
6.83591
21
-4.97553
0
LINE
8
BLACK
6
CONTINUOUS
10
6.83591
20
-4.97553
11
6.8284
21
-4.97756
0
LINE
8
BLACK
6
CONTINUOUS
10
6.8284
20
-4.97756
11
6.82063
21
-4.97809
0
LINE
8
BLACK
6
CONTINUOUS
10
6.82063
20
-4.97809
11
6.81485
21
-4.97734
0
LINE
8
BLACK
6
CONTINUOUS
10
6.81485
20
-4.97734
11
6.80742
21
-4.97563
0
LINE
8
BLACK
6
CONTINUOUS
10
6.80742
20
-4.97563
11
6.80742
21
-4.97563
0
LINE
8
BLACK
6
CONTINUOUS
10
6.80742
20
-4.97563
11
6.80742
21
-4.97563
0
LINE
8
BLACK
6
CONTINUOUS
10
6.80742
20
-4.97563
11
6.80554
21
-4.97499
0
LINE
8
BLACK
6
CONTINUOUS
10
6.80554
20
-4.97499
11
6.8019
21
-4.97376
0
LINE
8
BLACK
6
CONTINUOUS
10
6.8019
20
-4.97376
11
6.79515
21
-4.96989
0
LINE
8
BLACK
6
CONTINUOUS
10
6.79515
20
-4.96989
11
6.78929
21
-4.96477
0
LINE
8
BLACK
6
CONTINUOUS
10
6.78929
20
-4.96477
11
6.78865
21
-4.96395
0
LINE
8
BLACK
6
CONTINUOUS
10
6.78865
20
-4.96395
11
6.78454
21
-4.9586
0
LINE
8
BLACK
6
CONTINUOUS
10
6.78454
20
-4.9586
11
6.78108
21
-4.95163
0
LINE
8
BLACK
6
CONTINUOUS
10
6.78108
20
-4.95163
11
6.78108
21
-4.95163
0
LINE
8
BLACK
6
CONTINUOUS
10
6.78108
20
-4.95163
11
6.77905
21
-4.94412
0
LINE
8
BLACK
6
CONTINUOUS
10
6.77905
20
-4.94412
11
6.77852
21
-4.93636
0
LINE
8
BLACK
6
CONTINUOUS
10
6.77852
20
-4.93636
11
6.77952
21
-4.92864
0
LINE
8
BLACK
6
CONTINUOUS
10
6.77952
20
-4.92864
11
6.78201
21
-4.92126
0
LINE
8
BLACK
6
CONTINUOUS
10
6.78201
20
-4.92126
11
6.78588
21
-4.91451
0
LINE
8
BLACK
6
CONTINUOUS
10
6.78588
20
-4.91451
11
6.791
21
-4.90865
0
LINE
8
BLACK
6
CONTINUOUS
10
6.791
20
-4.90865
11
6.791
21
-4.90865
0
LINE
8
BLACK
6
CONTINUOUS
10
6.791
20
-4.90865
11
6.79716
21
-4.9039
0
LINE
8
BLACK
6
CONTINUOUS
10
6.79716
20
-4.9039
11
6.80414
21
-4.90044
0
LINE
8
BLACK
6
CONTINUOUS
10
6.80414
20
-4.90044
11
6.80414
21
-4.90044
0
LINE
8
BLACK
6
CONTINUOUS
10
6.80414
20
-4.90044
11
6.80414
21
-4.90044
0
LINE
8
BLACK
6
CONTINUOUS
10
6.80414
20
-4.90044
11
6.81165
21
-4.89841
0
LINE
8
BLACK
6
CONTINUOUS
10
6.81165
20
-4.89841
11
6.81941
21
-4.89789
0
LINE
8
BLACK
6
CONTINUOUS
10
6.81941
20
-4.89789
11
6.8252
21
-4.89864
0
LINE
8
BLACK
6
CONTINUOUS
10
5.2549
20
-4.94412
11
5.25586
21
-4.94957
0
LINE
8
BLACK
6
CONTINUOUS
10
5.25586
20
-4.94957
11
5.17437
21
-4.96395
0
LINE
8
BLACK
6
CONTINUOUS
10
5.17437
20
-4.96395
11
5.17437
21
-4.96395
0
LINE
8
BLACK
6
CONTINUOUS
10
5.17437
20
-4.96395
11
5.16957
21
-4.93673
0
LINE
8
BLACK
6
CONTINUOUS
10
5.16957
20
-4.93673
11
5.19719
21
-4.93186
0
LINE
8
BLACK
6
CONTINUOUS
10
5.19719
20
-4.93186
11
5.25107
21
-4.92236
0
LINE
8
BLACK
6
CONTINUOUS
10
5.25107
20
-4.92236
11
5.25107
21
-4.92236
0
LINE
8
BLACK
6
CONTINUOUS
10
5.25107
20
-4.92236
11
5.2549
21
-4.94412
0
LINE
8
BLACK
6
CONTINUOUS
10
5.24718
20
-4.90035
11
5.24903
21
-4.9108
0
LINE
8
BLACK
6
CONTINUOUS
10
5.24903
20
-4.9108
11
5.16753
21
-4.92517
0
LINE
8
BLACK
6
CONTINUOUS
10
5.16753
20
-4.92517
11
5.16753
21
-4.92517
0
LINE
8
BLACK
6
CONTINUOUS
10
5.16753
20
-4.92517
11
5.16273
21
-4.89796
0
LINE
8
BLACK
6
CONTINUOUS
10
5.16273
20
-4.89796
11
5.16312
21
-4.89789
0
LINE
8
BLACK
6
CONTINUOUS
10
5.16312
20
-4.89789
11
5.24423
21
-4.88359
0
LINE
8
BLACK
6
CONTINUOUS
10
5.24423
20
-4.88359
11
5.24423
21
-4.88359
0
LINE
8
BLACK
6
CONTINUOUS
10
5.24423
20
-4.88359
11
5.24718
21
-4.90035
0
LINE
8
BLACK
6
CONTINUOUS
10
6.89172
20
-4.81136
11
6.87395
21
-4.88835
0
LINE
8
BLACK
6
CONTINUOUS
10
6.87395
20
-4.88835
11
6.79331
21
-4.86974
0
LINE
8
BLACK
6
CONTINUOUS
10
6.79331
20
-4.86974
11
6.81109
21
-4.79275
0
LINE
8
BLACK
6
CONTINUOUS
10
6.81109
20
-4.79275
11
6.89172
21
-4.81136
0
LINE
8
BLACK
6
CONTINUOUS
10
5.23993
20
-4.85918
11
5.24219
21
-4.87203
0
LINE
8
BLACK
6
CONTINUOUS
10
5.24219
20
-4.87203
11
5.16069
21
-4.8864
0
LINE
8
BLACK
6
CONTINUOUS
10
5.16069
20
-4.8864
11
5.16069
21
-4.8864
0
LINE
8
BLACK
6
CONTINUOUS
10
5.16069
20
-4.8864
11
5.15589
21
-4.85918
0
LINE
8
BLACK
6
CONTINUOUS
10
5.15589
20
-4.85918
11
5.23739
21
-4.84481
0
LINE
8
BLACK
6
CONTINUOUS
10
5.23739
20
-4.84481
11
5.23739
21
-4.84481
0
LINE
8
BLACK
6
CONTINUOUS
10
5.23739
20
-4.84481
11
5.23993
21
-4.85918
0
LINE
8
BLACK
6
CONTINUOUS
10
5.23309
20
-4.82041
11
5.23535
21
-4.83326
0
LINE
8
BLACK
6
CONTINUOUS
10
5.23535
20
-4.83326
11
5.15386
21
-4.84763
0
LINE
8
BLACK
6
CONTINUOUS
10
5.15386
20
-4.84763
11
5.15386
21
-4.84763
0
LINE
8
BLACK
6
CONTINUOUS
10
5.15386
20
-4.84763
11
5.14906
21
-4.82041
0
LINE
8
BLACK
6
CONTINUOUS
10
5.14906
20
-4.82041
11
5.23056
21
-4.80604
0
LINE
8
BLACK
6
CONTINUOUS
10
5.23056
20
-4.80604
11
5.23056
21
-4.80604
0
LINE
8
BLACK
6
CONTINUOUS
10
5.23056
20
-4.80604
11
5.23309
21
-4.82041
0
LINE
8
BLACK
6
CONTINUOUS
10
5.22625
20
-4.78164
11
5.22852
21
-4.79449
0
LINE
8
BLACK
6
CONTINUOUS
10
5.22852
20
-4.79449
11
5.14702
21
-4.80886
0
LINE
8
BLACK
6
CONTINUOUS
10
5.14702
20
-4.80886
11
5.14702
21
-4.80886
0
LINE
8
BLACK
6
CONTINUOUS
10
5.14702
20
-4.80886
11
5.14222
21
-4.78164
0
LINE
8
BLACK
6
CONTINUOUS
10
5.14222
20
-4.78164
11
5.22372
21
-4.76727
0
LINE
8
BLACK
6
CONTINUOUS
10
5.22372
20
-4.76727
11
5.22372
21
-4.76727
0
LINE
8
BLACK
6
CONTINUOUS
10
5.22372
20
-4.76727
11
5.22625
21
-4.78164
0
LINE
8
BLACK
6
CONTINUOUS
10
5.21942
20
-4.74287
11
5.22168
21
-4.75572
0
LINE
8
BLACK
6
CONTINUOUS
10
5.22168
20
-4.75572
11
5.14018
21
-4.77009
0
LINE
8
BLACK
6
CONTINUOUS
10
5.14018
20
-4.77009
11
5.14018
21
-4.77009
0
LINE
8
BLACK
6
CONTINUOUS
10
5.14018
20
-4.77009
11
5.13538
21
-4.74287
0
LINE
8
BLACK
6
CONTINUOUS
10
5.13538
20
-4.74287
11
5.21688
21
-4.7285
0
LINE
8
BLACK
6
CONTINUOUS
10
5.21688
20
-4.7285
11
5.21688
21
-4.7285
0
LINE
8
BLACK
6
CONTINUOUS
10
5.21688
20
-4.7285
11
5.21942
21
-4.74287
0
LINE
8
BLACK
6
CONTINUOUS
10
5.21258
20
-4.7041
11
5.21485
21
-4.71694
0
LINE
8
BLACK
6
CONTINUOUS
10
5.21485
20
-4.71694
11
5.13335
21
-4.73131
0
LINE
8
BLACK
6
CONTINUOUS
10
5.13335
20
-4.73131
11
5.13335
21
-4.73131
0
LINE
8
BLACK
6
CONTINUOUS
10
5.13335
20
-4.73131
11
5.12855
21
-4.7041
0
LINE
8
BLACK
6
CONTINUOUS
10
5.12855
20
-4.7041
11
5.15987
21
-4.69857
0
LINE
8
BLACK
6
CONTINUOUS
10
5.15987
20
-4.69857
11
5.21005
21
-4.68973
0
LINE
8
BLACK
6
CONTINUOUS
10
5.21005
20
-4.68973
11
5.21005
21
-4.68973
0
LINE
8
BLACK
6
CONTINUOUS
10
5.21005
20
-4.68973
11
5.21258
21
-4.7041
0
LINE
8
BLACK
6
CONTINUOUS
10
5.121
20
-4.68352
11
5.03563
21
-4.69857
0
LINE
8
BLACK
6
CONTINUOUS
10
5.03563
20
-4.69857
11
5.01715
21
-4.59381
0
LINE
8
BLACK
6
CONTINUOUS
10
5.01715
20
-4.59381
11
5.10253
21
-4.57876
0
LINE
8
BLACK
6
CONTINUOUS
10
5.10253
20
-4.57876
11
5.121
21
-4.68352
0
LINE
8
BLACK
6
CONTINUOUS
10
6.48655
20
-4.62102
11
6.48956
21
-4.62139
0
LINE
8
BLACK
6
CONTINUOUS
10
6.48956
20
-4.62139
11
6.49315
21
-4.62256
0
LINE
8
BLACK
6
CONTINUOUS
10
6.49315
20
-4.62256
11
6.49435
21
-4.62296
0
LINE
8
BLACK
6
CONTINUOUS
10
6.49435
20
-4.62296
11
6.49875
21
-4.62543
0
LINE
8
BLACK
6
CONTINUOUS
10
6.49875
20
-4.62543
11
6.50241
21
-4.62857
0
LINE
8
BLACK
6
CONTINUOUS
10
6.50241
20
-4.62857
11
6.50258
21
-4.62872
0
LINE
8
BLACK
6
CONTINUOUS
10
6.50258
20
-4.62872
11
6.5057
21
-4.63269
0
LINE
8
BLACK
6
CONTINUOUS
10
6.5057
20
-4.63269
11
6.5057
21
-4.63269
0
LINE
8
BLACK
6
CONTINUOUS
10
6.5057
20
-4.63269
11
6.50798
21
-4.6372
0
LINE
8
BLACK
6
CONTINUOUS
10
6.50798
20
-4.6372
11
6.50934
21
-4.64206
0
LINE
8
BLACK
6
CONTINUOUS
10
6.50934
20
-4.64206
11
6.50973
21
-4.64709
0
LINE
8
BLACK
6
CONTINUOUS
10
6.50973
20
-4.64709
11
6.50912
21
-4.6521
0
LINE
8
BLACK
6
CONTINUOUS
10
6.50912
20
-4.6521
11
6.50755
21
-4.6569
0
LINE
8
BLACK
6
CONTINUOUS
10
6.50755
20
-4.6569
11
6.50508
21
-4.6613
0
LINE
8
BLACK
6
CONTINUOUS
10
6.50508
20
-4.6613
11
6.50179
21
-4.66513
0
LINE
8
BLACK
6
CONTINUOUS
10
6.50179
20
-4.66513
11
6.49782
21
-4.66825
0
LINE
8
BLACK
6
CONTINUOUS
10
6.49782
20
-4.66825
11
6.49782
21
-4.66825
0
LINE
8
BLACK
6
CONTINUOUS
10
6.49782
20
-4.66825
11
6.49332
21
-4.67053
0
LINE
8
BLACK
6
CONTINUOUS
10
6.49332
20
-4.67053
11
6.48967
21
-4.67155
0
LINE
8
BLACK
6
CONTINUOUS
10
6.48967
20
-4.67155
11
6.48967
21
-4.67155
0
LINE
8
BLACK
6
CONTINUOUS
10
6.48967
20
-4.67155
11
6.48967
21
-4.67155
0
LINE
8
BLACK
6
CONTINUOUS
10
6.48967
20
-4.67155
11
6.46587
21
-4.67575
0
LINE
8
BLACK
6
CONTINUOUS
10
6.46587
20
-4.67575
11
6.46461
21
-4.67585
0
LINE
8
BLACK
6
CONTINUOUS
10
6.46461
20
-4.67585
11
6.46209
21
-4.67604
0
LINE
8
BLACK
6
CONTINUOUS
10
6.46209
20
-4.67604
11
6.46209
21
-4.67604
0
LINE
8
BLACK
6
CONTINUOUS
10
6.46209
20
-4.67604
11
6.45708
21
-4.67543
0
LINE
8
BLACK
6
CONTINUOUS
10
6.45708
20
-4.67543
11
6.45228
21
-4.67386
0
LINE
8
BLACK
6
CONTINUOUS
10
6.45228
20
-4.67386
11
6.45228
21
-4.67386
0
LINE
8
BLACK
6
CONTINUOUS
10
6.45228
20
-4.67386
11
6.45228
21
-4.67386
0
LINE
8
BLACK
6
CONTINUOUS
10
6.45228
20
-4.67386
11
6.45085
21
-4.67306
0
LINE
8
BLACK
6
CONTINUOUS
10
6.45085
20
-4.67306
11
6.44788
21
-4.67139
0
LINE
8
BLACK
6
CONTINUOUS
10
6.44788
20
-4.67139
11
6.44405
21
-4.6681
0
LINE
8
BLACK
6
CONTINUOUS
10
6.44405
20
-4.6681
11
6.44094
21
-4.66413
0
LINE
8
BLACK
6
CONTINUOUS
10
6.44094
20
-4.66413
11
6.44094
21
-4.66413
0
LINE
8
BLACK
6
CONTINUOUS
10
6.44094
20
-4.66413
11
6.43865
21
-4.65962
0
LINE
8
BLACK
6
CONTINUOUS
10
6.43865
20
-4.65962
11
6.43729
21
-4.65476
0
LINE
8
BLACK
6
CONTINUOUS
10
6.43729
20
-4.65476
11
6.43691
21
-4.64973
0
LINE
8
BLACK
6
CONTINUOUS
10
6.43691
20
-4.64973
11
6.43751
21
-4.64472
0
LINE
8
BLACK
6
CONTINUOUS
10
6.43751
20
-4.64472
11
6.43751
21
-4.64472
0
LINE
8
BLACK
6
CONTINUOUS
10
6.43751
20
-4.64472
11
6.43908
21
-4.63992
0
LINE
8
BLACK
6
CONTINUOUS
10
6.43908
20
-4.63992
11
6.43908
21
-4.63992
0
LINE
8
BLACK
6
CONTINUOUS
10
6.43908
20
-4.63992
11
6.43908
21
-4.63992
0
LINE
8
BLACK
6
CONTINUOUS
10
6.43908
20
-4.63992
11
6.43989
21
-4.63849
0
LINE
8
BLACK
6
CONTINUOUS
10
6.43989
20
-4.63849
11
6.44156
21
-4.63552
0
LINE
8
BLACK
6
CONTINUOUS
10
6.44156
20
-4.63552
11
6.44485
21
-4.63169
0
LINE
8
BLACK
6
CONTINUOUS
10
6.44485
20
-4.63169
11
6.44882
21
-4.62857
0
LINE
8
BLACK
6
CONTINUOUS
10
6.44882
20
-4.62857
11
6.44882
21
-4.62857
0
LINE
8
BLACK
6
CONTINUOUS
10
6.44882
20
-4.62857
11
6.44882
21
-4.62857
0
LINE
8
BLACK
6
CONTINUOUS
10
6.44882
20
-4.62857
11
6.45332
21
-4.62629
0
LINE
8
BLACK
6
CONTINUOUS
10
6.45332
20
-4.62629
11
6.45697
21
-4.62527
0
LINE
8
BLACK
6
CONTINUOUS
10
6.45697
20
-4.62527
11
6.45697
21
-4.62527
0
LINE
8
BLACK
6
CONTINUOUS
10
6.45697
20
-4.62527
11
6.45697
21
-4.62527
0
LINE
8
BLACK
6
CONTINUOUS
10
6.45697
20
-4.62527
11
6.46324
21
-4.62416
0
LINE
8
BLACK
6
CONTINUOUS
10
6.46324
20
-4.62416
11
6.48077
21
-4.62107
0
LINE
8
BLACK
6
CONTINUOUS
10
6.48077
20
-4.62107
11
6.48454
21
-4.62078
0
LINE
8
BLACK
6
CONTINUOUS
10
6.48454
20
-4.62078
11
6.48454
21
-4.62078
0
LINE
8
BLACK
6
CONTINUOUS
10
6.48454
20
-4.62078
11
6.48655
21
-4.62102
0
LINE
8
BLACK
6
CONTINUOUS
10
6.48645
20
-4.54074
11
6.4879
21
-4.54122
0
LINE
8
BLACK
6
CONTINUOUS
10
6.4879
20
-4.54122
11
6.48923
21
-4.54196
0
LINE
8
BLACK
6
CONTINUOUS
10
6.48923
20
-4.54196
11
6.49039
21
-4.54296
0
LINE
8
BLACK
6
CONTINUOUS
10
6.49039
20
-4.54296
11
6.49133
21
-4.54416
0
LINE
8
BLACK
6
CONTINUOUS
10
6.49133
20
-4.54416
11
6.49202
21
-4.54552
0
LINE
8
BLACK
6
CONTINUOUS
10
6.49202
20
-4.54552
11
6.4925
21
-4.54722
0
LINE
8
BLACK
6
CONTINUOUS
10
6.4925
20
-4.54722
11
6.49295
21
-4.54981
0
LINE
8
BLACK
6
CONTINUOUS
10
6.49295
20
-4.54981
11
6.49482
21
-4.56039
0
LINE
8
BLACK
6
CONTINUOUS
10
6.49482
20
-4.56039
11
6.4986
21
-4.58185
0
LINE
8
BLACK
6
CONTINUOUS
10
6.4986
20
-4.58185
11
6.49874
21
-4.58361
0
LINE
8
BLACK
6
CONTINUOUS
10
6.49874
20
-4.58361
11
6.49855
21
-4.58513
0
LINE
8
BLACK
6
CONTINUOUS
10
6.49855
20
-4.58513
11
6.49808
21
-4.58658
0
LINE
8
BLACK
6
CONTINUOUS
10
6.49808
20
-4.58658
11
6.49733
21
-4.58791
0
LINE
8
BLACK
6
CONTINUOUS
10
6.49733
20
-4.58791
11
6.49634
21
-4.58907
0
LINE
8
BLACK
6
CONTINUOUS
10
6.49634
20
-4.58907
11
6.49514
21
-4.59001
0
LINE
8
BLACK
6
CONTINUOUS
10
6.49514
20
-4.59001
11
6.49377
21
-4.5907
0
LINE
8
BLACK
6
CONTINUOUS
10
6.49377
20
-4.5907
11
6.49207
21
-4.59117
0
LINE
8
BLACK
6
CONTINUOUS
10
6.49207
20
-4.59117
11
6.43612
21
-4.60104
0
LINE
8
BLACK
6
CONTINUOUS
10
6.43612
20
-4.60104
11
6.43436
21
-4.60117
0
LINE
8
BLACK
6
CONTINUOUS
10
6.43436
20
-4.60117
11
6.43284
21
-4.60099
0
LINE
8
BLACK
6
CONTINUOUS
10
6.43284
20
-4.60099
11
6.43139
21
-4.60052
0
LINE
8
BLACK
6
CONTINUOUS
10
6.43139
20
-4.60052
11
6.43006
21
-4.59977
0
LINE
8
BLACK
6
CONTINUOUS
10
6.43006
20
-4.59977
11
6.4289
21
-4.59877
0
LINE
8
BLACK
6
CONTINUOUS
10
6.4289
20
-4.59877
11
6.42796
21
-4.59757
0
LINE
8
BLACK
6
CONTINUOUS
10
6.42796
20
-4.59757
11
6.42727
21
-4.59621
0
LINE
8
BLACK
6
CONTINUOUS
10
6.42727
20
-4.59621
11
6.4268
21
-4.59451
0
LINE
8
BLACK
6
CONTINUOUS
10
6.4268
20
-4.59451
11
6.42456
21
-4.58185
0
LINE
8
BLACK
6
CONTINUOUS
10
6.42456
20
-4.58185
11
6.42115
21
-4.56247
0
LINE
8
BLACK
6
CONTINUOUS
10
6.42115
20
-4.56247
11
6.42115
21
-4.56247
0
LINE
8
BLACK
6
CONTINUOUS
10
6.42115
20
-4.56247
11
6.42069
21
-4.55988
0
LINE
8
BLACK
6
CONTINUOUS
10
6.42069
20
-4.55988
11
6.42056
21
-4.55812
0
LINE
8
BLACK
6
CONTINUOUS
10
6.42056
20
-4.55812
11
6.42074
21
-4.55661
0
LINE
8
BLACK
6
CONTINUOUS
10
6.42074
20
-4.55661
11
6.42121
21
-4.55515
0
LINE
8
BLACK
6
CONTINUOUS
10
6.42121
20
-4.55515
11
6.42196
21
-4.55383
0
LINE
8
BLACK
6
CONTINUOUS
10
6.42196
20
-4.55383
11
6.42295
21
-4.55267
0
LINE
8
BLACK
6
CONTINUOUS
10
6.42295
20
-4.55267
11
6.42416
21
-4.55172
0
LINE
8
BLACK
6
CONTINUOUS
10
6.42416
20
-4.55172
11
6.42552
21
-4.55103
0
LINE
8
BLACK
6
CONTINUOUS
10
6.42552
20
-4.55103
11
6.42722
21
-4.55056
0
LINE
8
BLACK
6
CONTINUOUS
10
6.42722
20
-4.55056
11
6.48317
21
-4.54069
0
LINE
8
BLACK
6
CONTINUOUS
10
6.48317
20
-4.54069
11
6.48493
21
-4.54056
0
LINE
8
BLACK
6
CONTINUOUS
10
6.48493
20
-4.54056
11
6.48645
21
-4.54074
0
LINE
8
BLACK
6
CONTINUOUS
10
5.34093
20
-4.37592
11
5.3424
21
-4.37637
0
LINE
8
BLACK
6
CONTINUOUS
10
5.3424
20
-4.37637
11
5.34376
21
-4.3771
0
LINE
8
BLACK
6
CONTINUOUS
10
5.34376
20
-4.3771
11
5.34495
21
-4.37808
0
LINE
8
BLACK
6
CONTINUOUS
10
5.34495
20
-4.37808
11
5.34593
21
-4.37927
0
LINE
8
BLACK
6
CONTINUOUS
10
5.34593
20
-4.37927
11
5.34666
21
-4.38063
0
LINE
8
BLACK
6
CONTINUOUS
10
5.34666
20
-4.38063
11
5.34711
21
-4.38211
0
LINE
8
BLACK
6
CONTINUOUS
10
5.34711
20
-4.38211
11
5.34728
21
-4.38388
0
LINE
8
BLACK
6
CONTINUOUS
10
5.34728
20
-4.38388
11
5.34728
21
-4.40903
0
LINE
8
BLACK
6
CONTINUOUS
10
5.34728
20
-4.40903
11
5.34711
21
-4.41081
0
LINE
8
BLACK
6
CONTINUOUS
10
5.34711
20
-4.41081
11
5.34666
21
-4.41228
0
LINE
8
BLACK
6
CONTINUOUS
10
5.34666
20
-4.41228
11
5.34593
21
-4.41364
0
LINE
8
BLACK
6
CONTINUOUS
10
5.34593
20
-4.41364
11
5.34495
21
-4.41484
0
LINE
8
BLACK
6
CONTINUOUS
10
5.34495
20
-4.41484
11
5.34376
21
-4.41582
0
LINE
8
BLACK
6
CONTINUOUS
10
5.34376
20
-4.41582
11
5.3424
21
-4.41654
0
LINE
8
BLACK
6
CONTINUOUS
10
5.3424
20
-4.41654
11
5.34093
21
-4.41699
0
LINE
8
BLACK
6
CONTINUOUS
10
5.34093
20
-4.41699
11
5.33915
21
-4.41717
0
LINE
8
BLACK
6
CONTINUOUS
10
5.33915
20
-4.41717
11
5.31006
21
-4.41717
0
LINE
8
BLACK
6
CONTINUOUS
10
5.31006
20
-4.41717
11
5.30829
21
-4.41699
0
LINE
8
BLACK
6
CONTINUOUS
10
5.30829
20
-4.41699
11
5.30681
21
-4.41654
0
LINE
8
BLACK
6
CONTINUOUS
10
5.30681
20
-4.41654
11
5.30545
21
-4.41582
0
LINE
8
BLACK
6
CONTINUOUS
10
5.30545
20
-4.41582
11
5.30426
21
-4.41484
0
LINE
8
BLACK
6
CONTINUOUS
10
5.30426
20
-4.41484
11
5.30328
21
-4.41364
0
LINE
8
BLACK
6
CONTINUOUS
10
5.30328
20
-4.41364
11
5.30255
21
-4.41228
0
LINE
8
BLACK
6
CONTINUOUS
10
5.30255
20
-4.41228
11
5.3021
21
-4.41081
0
LINE
8
BLACK
6
CONTINUOUS
10
5.3021
20
-4.41081
11
5.30193
21
-4.40903
0
LINE
8
BLACK
6
CONTINUOUS
10
5.30193
20
-4.40903
11
5.30193
21
-4.38388
0
LINE
8
BLACK
6
CONTINUOUS
10
5.30193
20
-4.38388
11
5.3021
21
-4.38211
0
LINE
8
BLACK
6
CONTINUOUS
10
5.3021
20
-4.38211
11
5.30255
21
-4.38063
0
LINE
8
BLACK
6
CONTINUOUS
10
5.30255
20
-4.38063
11
5.30328
21
-4.37927
0
LINE
8
BLACK
6
CONTINUOUS
10
5.30328
20
-4.37927
11
5.30426
21
-4.37808
0
LINE
8
BLACK
6
CONTINUOUS
10
5.30426
20
-4.37808
11
5.30545
21
-4.3771
0
LINE
8
BLACK
6
CONTINUOUS
10
5.30545
20
-4.3771
11
5.30681
21
-4.37637
0
LINE
8
BLACK
6
CONTINUOUS
10
5.30681
20
-4.37637
11
5.30829
21
-4.37592
0
LINE
8
BLACK
6
CONTINUOUS
10
5.30829
20
-4.37592
11
5.31006
21
-4.37575
0
LINE
8
BLACK
6
CONTINUOUS
10
5.31006
20
-4.37575
11
5.33915
21
-4.37575
0
LINE
8
BLACK
6
CONTINUOUS
10
5.33915
20
-4.37575
11
5.34093
21
-4.37592
0
LINE
8
BLACK
6
CONTINUOUS
10
5.40982
20
-4.37592
11
5.4113
21
-4.37637
0
LINE
8
BLACK
6
CONTINUOUS
10
5.4113
20
-4.37637
11
5.41266
21
-4.3771
0
LINE
8
BLACK
6
CONTINUOUS
10
5.41266
20
-4.3771
11
5.41385
21
-4.37808
0
LINE
8
BLACK
6
CONTINUOUS
10
5.41385
20
-4.37808
11
5.41483
21
-4.37927
0
LINE
8
BLACK
6
CONTINUOUS
10
5.41483
20
-4.37927
11
5.41556
21
-4.38063
0
LINE
8
BLACK
6
CONTINUOUS
10
5.41556
20
-4.38063
11
5.41601
21
-4.38211
0
LINE
8
BLACK
6
CONTINUOUS
10
5.41601
20
-4.38211
11
5.41618
21
-4.38388
0
LINE
8
BLACK
6
CONTINUOUS
10
5.41618
20
-4.38388
11
5.41618
21
-4.40903
0
LINE
8
BLACK
6
CONTINUOUS
10
5.41618
20
-4.40903
11
5.41601
21
-4.41081
0
LINE
8
BLACK
6
CONTINUOUS
10
5.41601
20
-4.41081
11
5.41556
21
-4.41228
0
LINE
8
BLACK
6
CONTINUOUS
10
5.41556
20
-4.41228
11
5.41483
21
-4.41364
0
LINE
8
BLACK
6
CONTINUOUS
10
5.41483
20
-4.41364
11
5.41385
21
-4.41484
0
LINE
8
BLACK
6
CONTINUOUS
10
5.41385
20
-4.41484
11
5.41266
21
-4.41582
0
LINE
8
BLACK
6
CONTINUOUS
10
5.41266
20
-4.41582
11
5.4113
21
-4.41654
0
LINE
8
BLACK
6
CONTINUOUS
10
5.4113
20
-4.41654
11
5.40982
21
-4.41699
0
LINE
8
BLACK
6
CONTINUOUS
10
5.40982
20
-4.41699
11
5.40805
21
-4.41717
0
LINE
8
BLACK
6
CONTINUOUS
10
5.40805
20
-4.41717
11
5.37896
21
-4.41717
0
LINE
8
BLACK
6
CONTINUOUS
10
5.37896
20
-4.41717
11
5.37719
21
-4.41699
0
LINE
8
BLACK
6
CONTINUOUS
10
5.37719
20
-4.41699
11
5.37571
21
-4.41654
0
LINE
8
BLACK
6
CONTINUOUS
10
5.37571
20
-4.41654
11
5.37435
21
-4.41582
0
LINE
8
BLACK
6
CONTINUOUS
10
5.37435
20
-4.41582
11
5.37316
21
-4.41484
0
LINE
8
BLACK
6
CONTINUOUS
10
5.37316
20
-4.41484
11
5.37218
21
-4.41364
0
LINE
8
BLACK
6
CONTINUOUS
10
5.37218
20
-4.41364
11
5.37145
21
-4.41228
0
LINE
8
BLACK
6
CONTINUOUS
10
5.37145
20
-4.41228
11
5.371
21
-4.41081
0
LINE
8
BLACK
6
CONTINUOUS
10
5.371
20
-4.41081
11
5.37083
21
-4.40903
0
LINE
8
BLACK
6
CONTINUOUS
10
5.37083
20
-4.40903
11
5.37083
21
-4.38388
0
LINE
8
BLACK
6
CONTINUOUS
10
5.37083
20
-4.38388
11
5.371
21
-4.38211
0
LINE
8
BLACK
6
CONTINUOUS
10
5.371
20
-4.38211
11
5.37145
21
-4.38063
0
LINE
8
BLACK
6
CONTINUOUS
10
5.37145
20
-4.38063
11
5.37218
21
-4.37927
0
LINE
8
BLACK
6
CONTINUOUS
10
5.37218
20
-4.37927
11
5.37316
21
-4.37808
0
LINE
8
BLACK
6
CONTINUOUS
10
5.37316
20
-4.37808
11
5.37435
21
-4.3771
0
LINE
8
BLACK
6
CONTINUOUS
10
5.37435
20
-4.3771
11
5.37571
21
-4.37637
0
LINE
8
BLACK
6
CONTINUOUS
10
5.37571
20
-4.37637
11
5.37719
21
-4.37592
0
LINE
8
BLACK
6
CONTINUOUS
10
5.37719
20
-4.37592
11
5.37896
21
-4.37575
0
LINE
8
BLACK
6
CONTINUOUS
10
5.37896
20
-4.37575
11
5.40805
21
-4.37575
0
LINE
8
BLACK
6
CONTINUOUS
10
5.40805
20
-4.37575
11
5.40982
21
-4.37592
0
LINE
8
BLACK
6
CONTINUOUS
10
6.57627
20
-4.33609
11
6.57772
21
-4.33657
0
LINE
8
BLACK
6
CONTINUOUS
10
6.57772
20
-4.33657
11
6.57905
21
-4.33732
0
LINE
8
BLACK
6
CONTINUOUS
10
6.57905
20
-4.33732
11
6.58021
21
-4.33831
0
LINE
8
BLACK
6
CONTINUOUS
10
6.58021
20
-4.33831
11
6.58115
21
-4.33951
0
LINE
8
BLACK
6
CONTINUOUS
10
6.58115
20
-4.33951
11
6.58184
21
-4.34087
0
LINE
8
BLACK
6
CONTINUOUS
10
6.58184
20
-4.34087
11
6.58232
21
-4.34257
0
LINE
8
BLACK
6
CONTINUOUS
10
6.58232
20
-4.34257
11
6.59218
21
-4.39852
0
LINE
8
BLACK
6
CONTINUOUS
10
6.59218
20
-4.39852
11
6.59232
21
-4.40029
0
LINE
8
BLACK
6
CONTINUOUS
10
6.59232
20
-4.40029
11
6.59213
21
-4.4018
0
LINE
8
BLACK
6
CONTINUOUS
10
6.59213
20
-4.4018
11
6.59166
21
-4.40325
0
LINE
8
BLACK
6
CONTINUOUS
10
6.59166
20
-4.40325
11
6.59091
21
-4.40458
0
LINE
8
BLACK
6
CONTINUOUS
10
6.59091
20
-4.40458
11
6.58992
21
-4.40574
0
LINE
8
BLACK
6
CONTINUOUS
10
6.58992
20
-4.40574
11
6.58872
21
-4.40668
0
LINE
8
BLACK
6
CONTINUOUS
10
6.58872
20
-4.40668
11
6.58735
21
-4.40737
0
LINE
8
BLACK
6
CONTINUOUS
10
6.58735
20
-4.40737
11
6.58565
21
-4.40785
0
LINE
8
BLACK
6
CONTINUOUS
10
6.58565
20
-4.40785
11
6.5784
21
-4.40913
0
LINE
8
BLACK
6
CONTINUOUS
10
6.5784
20
-4.40913
11
6.55361
21
-4.4135
0
LINE
8
BLACK
6
CONTINUOUS
10
6.55361
20
-4.4135
11
6.55361
21
-4.4135
0
LINE
8
BLACK
6
CONTINUOUS
10
6.55361
20
-4.4135
11
6.55103
21
-4.41396
0
LINE
8
BLACK
6
CONTINUOUS
10
6.55103
20
-4.41396
11
6.54926
21
-4.41409
0
LINE
8
BLACK
6
CONTINUOUS
10
6.54926
20
-4.41409
11
6.54775
21
-4.41391
0
LINE
8
BLACK
6
CONTINUOUS
10
6.54775
20
-4.41391
11
6.5463
21
-4.41343
0
LINE
8
BLACK
6
CONTINUOUS
10
6.5463
20
-4.41343
11
6.54497
21
-4.41268
0
LINE
8
BLACK
6
CONTINUOUS
10
6.54497
20
-4.41268
11
6.54381
21
-4.41169
0
LINE
8
BLACK
6
CONTINUOUS
10
6.54381
20
-4.41169
11
6.54287
21
-4.41049
0
LINE
8
BLACK
6
CONTINUOUS
10
6.54287
20
-4.41049
11
6.54218
21
-4.40913
0
LINE
8
BLACK
6
CONTINUOUS
10
6.54218
20
-4.40913
11
6.5417
21
-4.40743
0
LINE
8
BLACK
6
CONTINUOUS
10
6.5417
20
-4.40743
11
6.53183
21
-4.35148
0
LINE
8
BLACK
6
CONTINUOUS
10
6.53183
20
-4.35148
11
6.5317
21
-4.34971
0
LINE
8
BLACK
6
CONTINUOUS
10
6.5317
20
-4.34971
11
6.53188
21
-4.3482
0
LINE
8
BLACK
6
CONTINUOUS
10
6.53188
20
-4.3482
11
6.53236
21
-4.34675
0
LINE
8
BLACK
6
CONTINUOUS
10
6.53236
20
-4.34675
11
6.53311
21
-4.34542
0
LINE
8
BLACK
6
CONTINUOUS
10
6.53311
20
-4.34542
11
6.5341
21
-4.34426
0
LINE
8
BLACK
6
CONTINUOUS
10
6.5341
20
-4.34426
11
6.5353
21
-4.34332
0
LINE
8
BLACK
6
CONTINUOUS
10
6.5353
20
-4.34332
11
6.53666
21
-4.34263
0
LINE
8
BLACK
6
CONTINUOUS
10
6.53666
20
-4.34263
11
6.53836
21
-4.34215
0
LINE
8
BLACK
6
CONTINUOUS
10
6.53836
20
-4.34215
11
6.5489
21
-4.34029
0
LINE
8
BLACK
6
CONTINUOUS
10
6.5489
20
-4.34029
11
6.5704
21
-4.3365
0
LINE
8
BLACK
6
CONTINUOUS
10
6.5704
20
-4.3365
11
6.5704
21
-4.3365
0
LINE
8
BLACK
6
CONTINUOUS
10
6.5704
20
-4.3365
11
6.57299
21
-4.33604
0
LINE
8
BLACK
6
CONTINUOUS
10
6.57299
20
-4.33604
11
6.57475
21
-4.33591
0
LINE
8
BLACK
6
CONTINUOUS
10
6.57475
20
-4.33591
11
6.57627
21
-4.33609
0
LINE
8
BLACK
6
CONTINUOUS
10
6.64325
20
-4.32552
11
6.64804
21
-4.32709
0
LINE
8
BLACK
6
CONTINUOUS
10
6.64804
20
-4.32709
11
6.64804
21
-4.32709
0
LINE
8
BLACK
6
CONTINUOUS
10
6.64804
20
-4.32709
11
6.64804
21
-4.32709
0
LINE
8
BLACK
6
CONTINUOUS
10
6.64804
20
-4.32709
11
6.64948
21
-4.3279
0
LINE
8
BLACK
6
CONTINUOUS
10
6.64948
20
-4.3279
11
6.65244
21
-4.32957
0
LINE
8
BLACK
6
CONTINUOUS
10
6.65244
20
-4.32957
11
6.65628
21
-4.33286
0
LINE
8
BLACK
6
CONTINUOUS
10
6.65628
20
-4.33286
11
6.65909
21
-4.33645
0
LINE
8
BLACK
6
CONTINUOUS
10
6.65909
20
-4.33645
11
6.65939
21
-4.33683
0
LINE
8
BLACK
6
CONTINUOUS
10
6.65939
20
-4.33683
11
6.66167
21
-4.34133
0
LINE
8
BLACK
6
CONTINUOUS
10
6.66167
20
-4.34133
11
6.66256
21
-4.3445
0
LINE
8
BLACK
6
CONTINUOUS
10
6.66256
20
-4.3445
11
6.66269
21
-4.34497
0
LINE
8
BLACK
6
CONTINUOUS
10
6.66269
20
-4.34497
11
6.66353
21
-4.34971
0
LINE
8
BLACK
6
CONTINUOUS
10
6.66353
20
-4.34971
11
6.66689
21
-4.36878
0
LINE
8
BLACK
6
CONTINUOUS
10
6.66689
20
-4.36878
11
6.66718
21
-4.37255
0
LINE
8
BLACK
6
CONTINUOUS
10
6.66718
20
-4.37255
11
6.66658
21
-4.37756
0
LINE
8
BLACK
6
CONTINUOUS
10
6.66658
20
-4.37756
11
6.66641
21
-4.37808
0
LINE
8
BLACK
6
CONTINUOUS
10
6.66641
20
-4.37808
11
6.665
21
-4.38236
0
LINE
8
BLACK
6
CONTINUOUS
10
6.665
20
-4.38236
11
6.66253
21
-4.38676
0
LINE
8
BLACK
6
CONTINUOUS
10
6.66253
20
-4.38676
11
6.65924
21
-4.39059
0
LINE
8
BLACK
6
CONTINUOUS
10
6.65924
20
-4.39059
11
6.65924
21
-4.39059
0
LINE
8
BLACK
6
CONTINUOUS
10
6.65924
20
-4.39059
11
6.65527
21
-4.39371
0
LINE
8
BLACK
6
CONTINUOUS
10
6.65527
20
-4.39371
11
6.65527
21
-4.39371
0
LINE
8
BLACK
6
CONTINUOUS
10
6.65527
20
-4.39371
11
6.65077
21
-4.39599
0
LINE
8
BLACK
6
CONTINUOUS
10
6.65077
20
-4.39599
11
6.65077
21
-4.39599
0
LINE
8
BLACK
6
CONTINUOUS
10
6.65077
20
-4.39599
11
6.65077
21
-4.39599
0
LINE
8
BLACK
6
CONTINUOUS
10
6.65077
20
-4.39599
11
6.6459
21
-4.39735
0
LINE
8
BLACK
6
CONTINUOUS
10
6.6459
20
-4.39735
11
6.64087
21
-4.39774
0
LINE
8
BLACK
6
CONTINUOUS
10
6.64087
20
-4.39774
11
6.64087
21
-4.39774
0
LINE
8
BLACK
6
CONTINUOUS
10
6.64087
20
-4.39774
11
6.63586
21
-4.39713
0
LINE
8
BLACK
6
CONTINUOUS
10
6.63586
20
-4.39713
11
6.63106
21
-4.39556
0
LINE
8
BLACK
6
CONTINUOUS
10
6.63106
20
-4.39556
11
6.62666
21
-4.39309
0
LINE
8
BLACK
6
CONTINUOUS
10
6.62666
20
-4.39309
11
6.62283
21
-4.3898
0
LINE
8
BLACK
6
CONTINUOUS
10
6.62283
20
-4.3898
11
6.61971
21
-4.38583
0
LINE
8
BLACK
6
CONTINUOUS
10
6.61971
20
-4.38583
11
6.61873
21
-4.38388
0
LINE
8
BLACK
6
CONTINUOUS
10
6.61873
20
-4.38388
11
6.61743
21
-4.38132
0
LINE
8
BLACK
6
CONTINUOUS
10
6.61743
20
-4.38132
11
6.61641
21
-4.37768
0
LINE
8
BLACK
6
CONTINUOUS
10
6.61641
20
-4.37768
11
6.6161
21
-4.37595
0
LINE
8
BLACK
6
CONTINUOUS
10
6.6161
20
-4.37595
11
6.61221
21
-4.35388
0
LINE
8
BLACK
6
CONTINUOUS
10
6.61221
20
-4.35388
11
6.61192
21
-4.3501
0
LINE
8
BLACK
6
CONTINUOUS
10
6.61192
20
-4.3501
11
6.61253
21
-4.34509
0
LINE
8
BLACK
6
CONTINUOUS
10
6.61253
20
-4.34509
11
6.6141
21
-4.34029
0
LINE
8
BLACK
6
CONTINUOUS
10
6.6141
20
-4.34029
11
6.6141
21
-4.34029
0
LINE
8
BLACK
6
CONTINUOUS
10
6.6141
20
-4.34029
11
6.6141
21
-4.34029
0
LINE
8
BLACK
6
CONTINUOUS
10
6.6141
20
-4.34029
11
6.61524
21
-4.33827
0
LINE
8
BLACK
6
CONTINUOUS
10
6.61524
20
-4.33827
11
6.61658
21
-4.33589
0
LINE
8
BLACK
6
CONTINUOUS
10
6.61658
20
-4.33589
11
6.61986
21
-4.33206
0
LINE
8
BLACK
6
CONTINUOUS
10
6.61986
20
-4.33206
11
6.62383
21
-4.32894
0
LINE
8
BLACK
6
CONTINUOUS
10
6.62383
20
-4.32894
11
6.62383
21
-4.32894
0
LINE
8
BLACK
6
CONTINUOUS
10
6.62383
20
-4.32894
11
6.62383
21
-4.32894
0
LINE
8
BLACK
6
CONTINUOUS
10
6.62383
20
-4.32894
11
6.62834
21
-4.32666
0
LINE
8
BLACK
6
CONTINUOUS
10
6.62834
20
-4.32666
11
6.6332
21
-4.3253
0
LINE
8
BLACK
6
CONTINUOUS
10
6.6332
20
-4.3253
11
6.63823
21
-4.32492
0
LINE
8
BLACK
6
CONTINUOUS
10
6.63823
20
-4.32492
11
6.63823
21
-4.32492
0
LINE
8
BLACK
6
CONTINUOUS
10
6.63823
20
-4.32492
11
6.64325
21
-4.32552
0
LINE
8
BLACK
6
CONTINUOUS
10
6.20809
20
-4.30098
11
6.21419
21
-4.30351
0
LINE
8
BLACK
6
CONTINUOUS
10
6.21419
20
-4.30351
11
6.21968
21
-4.30717
0
LINE
8
BLACK
6
CONTINUOUS
10
6.21968
20
-4.30717
11
6.22434
21
-4.31184
0
LINE
8
BLACK
6
CONTINUOUS
10
6.22434
20
-4.31184
11
6.22801
21
-4.31733
0
LINE
8
BLACK
6
CONTINUOUS
10
6.22801
20
-4.31733
11
6.23053
21
-4.32343
0
LINE
8
BLACK
6
CONTINUOUS
10
6.23053
20
-4.32343
11
6.23182
21
-4.3299
0
LINE
8
BLACK
6
CONTINUOUS
10
6.23182
20
-4.3299
11
6.23182
21
-4.3365
0
LINE
8
BLACK
6
CONTINUOUS
10
6.23182
20
-4.3365
11
6.23053
21
-4.34297
0
LINE
8
BLACK
6
CONTINUOUS
10
6.23053
20
-4.34297
11
6.22801
21
-4.34907
0
LINE
8
BLACK
6
CONTINUOUS
10
6.22801
20
-4.34907
11
6.22434
21
-4.35456
0
LINE
8
BLACK
6
CONTINUOUS
10
6.22434
20
-4.35456
11
6.21968
21
-4.35922
0
LINE
8
BLACK
6
CONTINUOUS
10
6.21968
20
-4.35922
11
6.21419
21
-4.36289
0
LINE
8
BLACK
6
CONTINUOUS
10
6.21419
20
-4.36289
11
6.20809
21
-4.36542
0
LINE
8
BLACK
6
CONTINUOUS
10
6.20809
20
-4.36542
11
6.20162
21
-4.3667
0
LINE
8
BLACK
6
CONTINUOUS
10
6.20162
20
-4.3667
11
6.19502
21
-4.3667
0
LINE
8
BLACK
6
CONTINUOUS
10
6.19502
20
-4.3667
11
6.18855
21
-4.36542
0
LINE
8
BLACK
6
CONTINUOUS
10
6.18855
20
-4.36542
11
6.18245
21
-4.36289
0
LINE
8
BLACK
6
CONTINUOUS
10
6.18245
20
-4.36289
11
6.17696
21
-4.35922
0
LINE
8
BLACK
6
CONTINUOUS
10
6.17696
20
-4.35922
11
6.17229
21
-4.35456
0
LINE
8
BLACK
6
CONTINUOUS
10
6.17229
20
-4.35456
11
6.16863
21
-4.34907
0
LINE
8
BLACK
6
CONTINUOUS
10
6.16863
20
-4.34907
11
6.1661
21
-4.34297
0
LINE
8
BLACK
6
CONTINUOUS
10
6.1661
20
-4.34297
11
6.16481
21
-4.3365
0
LINE
8
BLACK
6
CONTINUOUS
10
6.16481
20
-4.3365
11
6.16481
21
-4.3299
0
LINE
8
BLACK
6
CONTINUOUS
10
6.16481
20
-4.3299
11
6.1661
21
-4.32343
0
LINE
8
BLACK
6
CONTINUOUS
10
6.1661
20
-4.32343
11
6.16863
21
-4.31733
0
LINE
8
BLACK
6
CONTINUOUS
10
6.16863
20
-4.31733
11
6.17229
21
-4.31184
0
LINE
8
BLACK
6
CONTINUOUS
10
6.17229
20
-4.31184
11
6.17696
21
-4.30717
0
LINE
8
BLACK
6
CONTINUOUS
10
6.17696
20
-4.30717
11
6.18245
21
-4.30351
0
LINE
8
BLACK
6
CONTINUOUS
10
6.18245
20
-4.30351
11
6.18855
21
-4.30098
0
LINE
8
BLACK
6
CONTINUOUS
10
6.18855
20
-4.30098
11
6.19502
21
-4.29969
0
LINE
8
BLACK
6
CONTINUOUS
10
6.19502
20
-4.29969
11
6.20162
21
-4.29969
0
LINE
8
BLACK
6
CONTINUOUS
10
6.20162
20
-4.29969
11
6.20809
21
-4.30098
0
LINE
8
BLACK
6
CONTINUOUS
10
6.37283
20
-4.33645
11
6.30684
21
-4.34808
0
LINE
8
BLACK
6
CONTINUOUS
10
6.30684
20
-4.34808
11
6.29521
21
-4.28209
0
LINE
8
BLACK
6
CONTINUOUS
10
6.29521
20
-4.28209
11
6.3612
21
-4.27046
0
LINE
8
BLACK
6
CONTINUOUS
10
6.3612
20
-4.27046
11
6.37283
21
-4.33645
0
LINE
8
BLACK
6
CONTINUOUS
10
5.12012
20
-4.30614
11
5.05705
21
-4.30614
0
LINE
8
BLACK
6
CONTINUOUS
10
5.05705
20
-4.30614
11
5.05705
21
-4.24307
0
LINE
8
BLACK
6
CONTINUOUS
10
5.05705
20
-4.24307
11
5.12012
21
-4.24307
0
LINE
8
BLACK
6
CONTINUOUS
10
5.12012
20
-4.24307
11
5.12012
21
-4.30614
0
LINE
8
BLACK
6
CONTINUOUS
10
5.4272
20
-4.30614
11
5.36413
21
-4.30614
0
LINE
8
BLACK
6
CONTINUOUS
10
5.36413
20
-4.30614
11
5.36413
21
-4.24307
0
LINE
8
BLACK
6
CONTINUOUS
10
5.36413
20
-4.24307
11
5.4272
21
-4.24307
0
LINE
8
BLACK
6
CONTINUOUS
10
5.4272
20
-4.24307
11
5.4272
21
-4.30614
0
LINE
8
BLACK
6
CONTINUOUS
10
5.57871
20
-4.26305
11
5.58019
21
-4.2635
0
LINE
8
BLACK
6
CONTINUOUS
10
5.58019
20
-4.2635
11
5.58155
21
-4.26422
0
LINE
8
BLACK
6
CONTINUOUS
10
5.58155
20
-4.26422
11
5.58274
21
-4.2652
0
LINE
8
BLACK
6
CONTINUOUS
10
5.58274
20
-4.2652
11
5.58372
21
-4.26639
0
LINE
8
BLACK
6
CONTINUOUS
10
5.58372
20
-4.26639
11
5.58445
21
-4.26776
0
LINE
8
BLACK
6
CONTINUOUS
10
5.58445
20
-4.26776
11
5.5849
21
-4.26923
0
LINE
8
BLACK
6
CONTINUOUS
10
5.5849
20
-4.26923
11
5.58507
21
-4.27101
0
LINE
8
BLACK
6
CONTINUOUS
10
5.58507
20
-4.27101
11
5.58507
21
-4.29616
0
LINE
8
BLACK
6
CONTINUOUS
10
5.58507
20
-4.29616
11
5.5849
21
-4.29793
0
LINE
8
BLACK
6
CONTINUOUS
10
5.5849
20
-4.29793
11
5.58445
21
-4.29941
0
LINE
8
BLACK
6
CONTINUOUS
10
5.58445
20
-4.29941
11
5.58372
21
-4.30077
0
LINE
8
BLACK
6
CONTINUOUS
10
5.58372
20
-4.30077
11
5.58274
21
-4.30196
0
LINE
8
BLACK
6
CONTINUOUS
10
5.58274
20
-4.30196
11
5.58155
21
-4.30294
0
LINE
8
BLACK
6
CONTINUOUS
10
5.58155
20
-4.30294
11
5.58019
21
-4.30367
0
LINE
8
BLACK
6
CONTINUOUS
10
5.58019
20
-4.30367
11
5.57871
21
-4.30412
0
LINE
8
BLACK
6
CONTINUOUS
10
5.57871
20
-4.30412
11
5.57694
21
-4.30429
0
LINE
8
BLACK
6
CONTINUOUS
10
5.57694
20
-4.30429
11
5.54785
21
-4.30429
0
LINE
8
BLACK
6
CONTINUOUS
10
5.54785
20
-4.30429
11
5.54607
21
-4.30412
0
LINE
8
BLACK
6
CONTINUOUS
10
5.54607
20
-4.30412
11
5.5446
21
-4.30367
0
LINE
8
BLACK
6
CONTINUOUS
10
5.5446
20
-4.30367
11
5.54324
21
-4.30294
0
LINE
8
BLACK
6
CONTINUOUS
10
5.54324
20
-4.30294
11
5.54205
21
-4.30196
0
LINE
8
BLACK
6
CONTINUOUS
10
5.54205
20
-4.30196
11
5.54107
21
-4.30077
0
LINE
8
BLACK
6
CONTINUOUS
10
5.54107
20
-4.30077
11
5.54034
21
-4.29941
0
LINE
8
BLACK
6
CONTINUOUS
10
5.54034
20
-4.29941
11
5.53989
21
-4.29793
0
LINE
8
BLACK
6
CONTINUOUS
10
5.53989
20
-4.29793
11
5.53972
21
-4.29616
0
LINE
8
BLACK
6
CONTINUOUS
10
5.53972
20
-4.29616
11
5.53972
21
-4.27101
0
LINE
8
BLACK
6
CONTINUOUS
10
5.53972
20
-4.27101
11
5.53989
21
-4.26923
0
LINE
8
BLACK
6
CONTINUOUS
10
5.53989
20
-4.26923
11
5.54034
21
-4.26776
0
LINE
8
BLACK
6
CONTINUOUS
10
5.54034
20
-4.26776
11
5.54107
21
-4.26639
0
LINE
8
BLACK
6
CONTINUOUS
10
5.54107
20
-4.26639
11
5.54205
21
-4.2652
0
LINE
8
BLACK
6
CONTINUOUS
10
5.54205
20
-4.2652
11
5.54324
21
-4.26422
0
LINE
8
BLACK
6
CONTINUOUS
10
5.54324
20
-4.26422
11
5.5446
21
-4.2635
0
LINE
8
BLACK
6
CONTINUOUS
10
5.5446
20
-4.2635
11
5.54607
21
-4.26305
0
LINE
8
BLACK
6
CONTINUOUS
10
5.54607
20
-4.26305
11
5.54785
21
-4.26287
0
LINE
8
BLACK
6
CONTINUOUS
10
5.54785
20
-4.26287
11
5.57694
21
-4.26287
0
LINE
8
BLACK
6
CONTINUOUS
10
5.57694
20
-4.26287
11
5.57871
21
-4.26305
0
LINE
8
BLACK
6
CONTINUOUS
10
5.50981
20
-4.26305
11
5.51129
21
-4.2635
0
LINE
8
BLACK
6
CONTINUOUS
10
5.51129
20
-4.2635
11
5.51265
21
-4.26422
0
LINE
8
BLACK
6
CONTINUOUS
10
5.51265
20
-4.26422
11
5.51384
21
-4.2652
0
LINE
8
BLACK
6
CONTINUOUS
10
5.51384
20
-4.2652
11
5.51482
21
-4.26639
0
LINE
8
BLACK
6
CONTINUOUS
10
5.51482
20
-4.26639
11
5.51555
21
-4.26776
0
LINE
8
BLACK
6
CONTINUOUS
10
5.51555
20
-4.26776
11
5.516
21
-4.26923
0
LINE
8
BLACK
6
CONTINUOUS
10
5.516
20
-4.26923
11
5.51617
21
-4.27101
0
LINE
8
BLACK
6
CONTINUOUS
10
5.51617
20
-4.27101
11
5.51617
21
-4.29616
0
LINE
8
BLACK
6
CONTINUOUS
10
5.51617
20
-4.29616
11
5.516
21
-4.29793
0
LINE
8
BLACK
6
CONTINUOUS
10
5.516
20
-4.29793
11
5.51555
21
-4.29941
0
LINE
8
BLACK
6
CONTINUOUS
10
5.51555
20
-4.29941
11
5.51482
21
-4.30077
0
LINE
8
BLACK
6
CONTINUOUS
10
5.51482
20
-4.30077
11
5.51384
21
-4.30196
0
LINE
8
BLACK
6
CONTINUOUS
10
5.51384
20
-4.30196
11
5.51265
21
-4.30294
0
LINE
8
BLACK
6
CONTINUOUS
10
5.51265
20
-4.30294
11
5.51129
21
-4.30367
0
LINE
8
BLACK
6
CONTINUOUS
10
5.51129
20
-4.30367
11
5.50981
21
-4.30412
0
LINE
8
BLACK
6
CONTINUOUS
10
5.50981
20
-4.30412
11
5.50804
21
-4.30429
0
LINE
8
BLACK
6
CONTINUOUS
10
5.50804
20
-4.30429
11
5.47895
21
-4.30429
0
LINE
8
BLACK
6
CONTINUOUS
10
5.47895
20
-4.30429
11
5.47718
21
-4.30412
0
LINE
8
BLACK
6
CONTINUOUS
10
5.47718
20
-4.30412
11
5.4757
21
-4.30367
0
LINE
8
BLACK
6
CONTINUOUS
10
5.4757
20
-4.30367
11
5.47434
21
-4.30294
0
LINE
8
BLACK
6
CONTINUOUS
10
5.47434
20
-4.30294
11
5.47315
21
-4.30196
0
LINE
8
BLACK
6
CONTINUOUS
10
5.47315
20
-4.30196
11
5.47217
21
-4.30077
0
LINE
8
BLACK
6
CONTINUOUS
10
5.47217
20
-4.30077
11
5.47144
21
-4.29941
0
LINE
8
BLACK
6
CONTINUOUS
10
5.47144
20
-4.29941
11
5.47099
21
-4.29793
0
LINE
8
BLACK
6
CONTINUOUS
10
5.47099
20
-4.29793
11
5.47082
21
-4.29616
0
LINE
8
BLACK
6
CONTINUOUS
10
5.47082
20
-4.29616
11
5.47082
21
-4.27101
0
LINE
8
BLACK
6
CONTINUOUS
10
5.47082
20
-4.27101
11
5.47099
21
-4.26923
0
LINE
8
BLACK
6
CONTINUOUS
10
5.47099
20
-4.26923
11
5.47144
21
-4.26776
0
LINE
8
BLACK
6
CONTINUOUS
10
5.47144
20
-4.26776
11
5.47217
21
-4.26639
0
LINE
8
BLACK
6
CONTINUOUS
10
5.47217
20
-4.26639
11
5.47315
21
-4.2652
0
LINE
8
BLACK
6
CONTINUOUS
10
5.47315
20
-4.2652
11
5.47434
21
-4.26422
0
LINE
8
BLACK
6
CONTINUOUS
10
5.47434
20
-4.26422
11
5.4757
21
-4.2635
0
LINE
8
BLACK
6
CONTINUOUS
10
5.4757
20
-4.2635
11
5.47718
21
-4.26305
0
LINE
8
BLACK
6
CONTINUOUS
10
5.47718
20
-4.26305
11
5.47895
21
-4.26287
0
LINE
8
BLACK
6
CONTINUOUS
10
5.47895
20
-4.26287
11
5.50804
21
-4.26287
0
LINE
8
BLACK
6
CONTINUOUS
10
5.50804
20
-4.26287
11
5.50981
21
-4.26305
0
LINE
8
BLACK
6
CONTINUOUS
10
5.92029
20
-4.01147
11
5.92447
21
-4.0123
0
LINE
8
BLACK
6
CONTINUOUS
10
5.92447
20
-4.0123
11
5.9363
21
-4.0172
0
LINE
8
BLACK
6
CONTINUOUS
10
5.9363
20
-4.0172
11
5.94695
21
-4.02431
0
LINE
8
BLACK
6
CONTINUOUS
10
5.94695
20
-4.02431
11
5.956
21
-4.03337
0
LINE
8
BLACK
6
CONTINUOUS
10
5.956
20
-4.03337
11
5.96311
21
-4.04401
0
LINE
8
BLACK
6
CONTINUOUS
10
5.96311
20
-4.04401
11
5.96801
21
-4.05584
0
LINE
8
BLACK
6
CONTINUOUS
10
5.96801
20
-4.05584
11
5.97051
21
-4.0684
0
LINE
8
BLACK
6
CONTINUOUS
10
5.97051
20
-4.0684
11
5.97051
21
-4.08121
0
LINE
8
BLACK
6
CONTINUOUS
10
5.97051
20
-4.08121
11
5.96801
21
-4.09376
0
LINE
8
BLACK
6
CONTINUOUS
10
5.96801
20
-4.09376
11
5.96311
21
-4.10559
0
LINE
8
BLACK
6
CONTINUOUS
10
5.96311
20
-4.10559
11
5.956
21
-4.11624
0
LINE
8
BLACK
6
CONTINUOUS
10
5.956
20
-4.11624
11
5.94695
21
-4.12529
0
LINE
8
BLACK
6
CONTINUOUS
10
5.94695
20
-4.12529
11
5.9363
21
-4.13241
0
LINE
8
BLACK
6
CONTINUOUS
10
5.9363
20
-4.13241
11
5.92447
21
-4.13731
0
LINE
8
BLACK
6
CONTINUOUS
10
5.92447
20
-4.13731
11
5.92029
21
-4.13814
0
LINE
8
BLACK
6
CONTINUOUS
10
5.92029
20
-4.13814
11
5.91191
21
-4.1398
0
LINE
8
BLACK
6
CONTINUOUS
10
5.91191
20
-4.1398
11
5.89911
21
-4.1398
0
LINE
8
BLACK
6
CONTINUOUS
10
5.89911
20
-4.1398
11
5.89074
21
-4.13814
0
LINE
8
BLACK
6
CONTINUOUS
10
5.89074
20
-4.13814
11
5.88655
21
-4.13731
0
LINE
8
BLACK
6
CONTINUOUS
10
5.88655
20
-4.13731
11
5.87472
21
-4.13241
0
LINE
8
BLACK
6
CONTINUOUS
10
5.87472
20
-4.13241
11
5.86408
21
-4.12529
0
LINE
8
BLACK
6
CONTINUOUS
10
5.86408
20
-4.12529
11
5.85502
21
-4.11624
0
LINE
8
BLACK
6
CONTINUOUS
10
5.85502
20
-4.11624
11
5.84791
21
-4.10559
0
LINE
8
BLACK
6
CONTINUOUS
10
5.84791
20
-4.10559
11
5.84301
21
-4.09376
0
LINE
8
BLACK
6
CONTINUOUS
10
5.84301
20
-4.09376
11
5.84051
21
-4.08121
0
LINE
8
BLACK
6
CONTINUOUS
10
5.84051
20
-4.08121
11
5.84051
21
-4.0684
0
LINE
8
BLACK
6
CONTINUOUS
10
5.84051
20
-4.0684
11
5.84301
21
-4.05584
0
LINE
8
BLACK
6
CONTINUOUS
10
5.84301
20
-4.05584
11
5.84791
21
-4.04401
0
LINE
8
BLACK
6
CONTINUOUS
10
5.84791
20
-4.04401
11
5.85502
21
-4.03337
0
LINE
8
BLACK
6
CONTINUOUS
10
5.85502
20
-4.03337
11
5.86408
21
-4.02431
0
LINE
8
BLACK
6
CONTINUOUS
10
5.86408
20
-4.02431
11
5.87472
21
-4.0172
0
LINE
8
BLACK
6
CONTINUOUS
10
5.87472
20
-4.0172
11
5.88655
21
-4.0123
0
LINE
8
BLACK
6
CONTINUOUS
10
5.88655
20
-4.0123
11
5.89074
21
-4.01147
0
LINE
8
BLACK
6
CONTINUOUS
10
5.89074
20
-4.01147
11
5.89911
21
-4.0098
0
LINE
8
BLACK
6
CONTINUOUS
10
5.89911
20
-4.0098
11
5.91191
21
-4.0098
0
LINE
8
BLACK
6
CONTINUOUS
10
5.91191
20
-4.0098
11
5.92029
21
-4.01147
0
LINE
8
BLACK
6
CONTINUOUS
10
5.72673
20
-3.88416
11
5.72933
21
-3.88441
0
LINE
8
BLACK
6
CONTINUOUS
10
5.72933
20
-3.88441
11
5.73602
21
-3.88644
0
LINE
8
BLACK
6
CONTINUOUS
10
5.73602
20
-3.88644
11
5.74218
21
-3.88973
0
LINE
8
BLACK
6
CONTINUOUS
10
5.74218
20
-3.88973
11
5.74359
21
-3.89089
0
LINE
8
BLACK
6
CONTINUOUS
10
5.74359
20
-3.89089
11
5.74758
21
-3.89417
0
LINE
8
BLACK
6
CONTINUOUS
10
5.74758
20
-3.89417
11
5.75086
21
-3.89816
0
LINE
8
BLACK
6
CONTINUOUS
10
5.75086
20
-3.89816
11
5.75202
21
-3.89957
0
LINE
8
BLACK
6
CONTINUOUS
10
5.75202
20
-3.89957
11
5.75531
21
-3.90573
0
LINE
8
BLACK
6
CONTINUOUS
10
5.75531
20
-3.90573
11
5.75734
21
-3.91242
0
LINE
8
BLACK
6
CONTINUOUS
10
5.75734
20
-3.91242
11
5.75802
21
-3.91937
0
LINE
8
BLACK
6
CONTINUOUS
10
5.75802
20
-3.91937
11
5.75734
21
-3.92632
0
LINE
8
BLACK
6
CONTINUOUS
10
5.75734
20
-3.92632
11
5.75531
21
-3.93301
0
LINE
8
BLACK
6
CONTINUOUS
10
5.75531
20
-3.93301
11
5.75202
21
-3.93917
0
LINE
8
BLACK
6
CONTINUOUS
10
5.75202
20
-3.93917
11
5.75086
21
-3.94058
0
LINE
8
BLACK
6
CONTINUOUS
10
5.75086
20
-3.94058
11
5.74758
21
-3.94458
0
LINE
8
BLACK
6
CONTINUOUS
10
5.74758
20
-3.94458
11
5.74359
21
-3.94785
0
LINE
8
BLACK
6
CONTINUOUS
10
5.74359
20
-3.94785
11
5.74218
21
-3.94901
0
LINE
8
BLACK
6
CONTINUOUS
10
5.74218
20
-3.94901
11
5.73602
21
-3.9523
0
LINE
8
BLACK
6
CONTINUOUS
10
5.73602
20
-3.9523
11
5.72933
21
-3.95433
0
LINE
8
BLACK
6
CONTINUOUS
10
5.72933
20
-3.95433
11
5.72673
21
-3.95459
0
LINE
8
BLACK
6
CONTINUOUS
10
5.72673
20
-3.95459
11
5.72412
21
-3.95484
0
LINE
8
BLACK
6
CONTINUOUS
10
5.72412
20
-3.95484
11
5.72064
21
-3.95484
0
LINE
8
BLACK
6
CONTINUOUS
10
5.72064
20
-3.95484
11
5.71803
21
-3.95459
0
LINE
8
BLACK
6
CONTINUOUS
10
5.71803
20
-3.95459
11
5.71543
21
-3.95433
0
LINE
8
BLACK
6
CONTINUOUS
10
5.71543
20
-3.95433
11
5.70874
21
-3.9523
0
LINE
8
BLACK
6
CONTINUOUS
10
5.70874
20
-3.9523
11
5.70258
21
-3.94901
0
LINE
8
BLACK
6
CONTINUOUS
10
5.70258
20
-3.94901
11
5.70117
21
-3.94785
0
LINE
8
BLACK
6
CONTINUOUS
10
5.70117
20
-3.94785
11
5.69718
21
-3.94458
0
LINE
8
BLACK
6
CONTINUOUS
10
5.69718
20
-3.94458
11
5.6939
21
-3.94058
0
LINE
8
BLACK
6
CONTINUOUS
10
5.6939
20
-3.94058
11
5.69274
21
-3.93917
0
LINE
8
BLACK
6
CONTINUOUS
10
5.69274
20
-3.93917
11
5.68945
21
-3.93301
0
LINE
8
BLACK
6
CONTINUOUS
10
5.68945
20
-3.93301
11
5.68742
21
-3.92632
0
LINE
8
BLACK
6
CONTINUOUS
10
5.68742
20
-3.92632
11
5.68674
21
-3.91937
0
LINE
8
BLACK
6
CONTINUOUS
10
5.68674
20
-3.91937
11
5.68742
21
-3.91242
0
LINE
8
BLACK
6
CONTINUOUS
10
5.68742
20
-3.91242
11
5.68945
21
-3.90573
0
LINE
8
BLACK
6
CONTINUOUS
10
5.68945
20
-3.90573
11
5.69274
21
-3.89957
0
LINE
8
BLACK
6
CONTINUOUS
10
5.69274
20
-3.89957
11
5.6939
21
-3.89816
0
LINE
8
BLACK
6
CONTINUOUS
10
5.6939
20
-3.89816
11
5.69718
21
-3.89417
0
LINE
8
BLACK
6
CONTINUOUS
10
5.69718
20
-3.89417
11
5.70117
21
-3.89089
0
LINE
8
BLACK
6
CONTINUOUS
10
5.70117
20
-3.89089
11
5.70258
21
-3.88973
0
LINE
8
BLACK
6
CONTINUOUS
10
5.70258
20
-3.88973
11
5.70874
21
-3.88644
0
LINE
8
BLACK
6
CONTINUOUS
10
5.70874
20
-3.88644
11
5.71543
21
-3.88441
0
LINE
8
BLACK
6
CONTINUOUS
10
5.71543
20
-3.88441
11
5.71803
21
-3.88416
0
LINE
8
BLACK
6
CONTINUOUS
10
5.71803
20
-3.88416
11
5.72064
21
-3.8839
0
LINE
8
BLACK
6
CONTINUOUS
10
5.72064
20
-3.8839
11
5.72412
21
-3.8839
0
LINE
8
BLACK
6
CONTINUOUS
10
5.72412
20
-3.8839
11
5.72673
21
-3.88416
0
LINE
8
BLACK
6
CONTINUOUS
10
5.72726
20
-3.8459
11
5.66296
21
-3.87588
0
LINE
8
BLACK
6
CONTINUOUS
10
5.66296
20
-3.87588
11
5.63298
21
-3.81158
0
LINE
8
BLACK
6
CONTINUOUS
10
5.63298
20
-3.81158
11
5.69728
21
-3.7816
0
LINE
8
BLACK
6
CONTINUOUS
10
5.69728
20
-3.7816
11
5.72726
21
-3.8459
0
LINE
8
BLACK
6
CONTINUOUS
10
6.03963
20
-3.74171
11
6.04716
21
-3.74483
0
LINE
8
BLACK
6
CONTINUOUS
10
6.04716
20
-3.74483
11
6.04716
21
-3.74483
0
LINE
8
BLACK
6
CONTINUOUS
10
6.04716
20
-3.74483
11
6.05394
21
-3.74936
0
LINE
8
BLACK
6
CONTINUOUS
10
6.05394
20
-3.74936
11
6.0597
21
-3.75512
0
LINE
8
BLACK
6
CONTINUOUS
10
6.0597
20
-3.75512
11
6.06423
21
-3.7619
0
LINE
8
BLACK
6
CONTINUOUS
10
6.06423
20
-3.7619
11
6.06735
21
-3.76943
0
LINE
8
BLACK
6
CONTINUOUS
10
6.06735
20
-3.76943
11
6.06894
21
-3.77742
0
LINE
8
BLACK
6
CONTINUOUS
10
6.06894
20
-3.77742
11
6.06894
21
-3.78557
0
LINE
8
BLACK
6
CONTINUOUS
10
6.06894
20
-3.78557
11
6.06735
21
-3.79357
0
LINE
8
BLACK
6
CONTINUOUS
10
6.06735
20
-3.79357
11
6.06423
21
-3.8011
0
LINE
8
BLACK
6
CONTINUOUS
10
6.06423
20
-3.8011
11
6.06423
21
-3.8011
0
LINE
8
BLACK
6
CONTINUOUS
10
6.06423
20
-3.8011
11
6.0597
21
-3.80787
0
LINE
8
BLACK
6
CONTINUOUS
10
6.0597
20
-3.80787
11
6.05394
21
-3.81364
0
LINE
8
BLACK
6
CONTINUOUS
10
6.05394
20
-3.81364
11
6.04716
21
-3.81816
0
LINE
8
BLACK
6
CONTINUOUS
10
6.04716
20
-3.81816
11
6.04716
21
-3.81816
0
LINE
8
BLACK
6
CONTINUOUS
10
6.04716
20
-3.81816
11
6.04716
21
-3.81816
0
LINE
8
BLACK
6
CONTINUOUS
10
6.04716
20
-3.81816
11
6.03963
21
-3.82128
0
LINE
8
BLACK
6
CONTINUOUS
10
6.03963
20
-3.82128
11
6.03163
21
-3.82287
0
LINE
8
BLACK
6
CONTINUOUS
10
6.03163
20
-3.82287
11
6.02348
21
-3.82287
0
LINE
8
BLACK
6
CONTINUOUS
10
6.02348
20
-3.82287
11
6.01549
21
-3.82128
0
LINE
8
BLACK
6
CONTINUOUS
10
6.01549
20
-3.82128
11
6.00796
21
-3.81816
0
LINE
8
BLACK
6
CONTINUOUS
10
6.00796
20
-3.81816
11
6.00796
21
-3.81816
0
LINE
8
BLACK
6
CONTINUOUS
10
6.00796
20
-3.81816
11
6.00796
21
-3.81816
0
LINE
8
BLACK
6
CONTINUOUS
10
6.00796
20
-3.81816
11
6.00118
21
-3.81364
0
LINE
8
BLACK
6
CONTINUOUS
10
6.00118
20
-3.81364
11
5.99542
21
-3.80787
0
LINE
8
BLACK
6
CONTINUOUS
10
5.99542
20
-3.80787
11
5.99089
21
-3.8011
0
LINE
8
BLACK
6
CONTINUOUS
10
5.99089
20
-3.8011
11
5.99089
21
-3.8011
0
LINE
8
BLACK
6
CONTINUOUS
10
5.99089
20
-3.8011
11
5.98777
21
-3.79357
0
LINE
8
BLACK
6
CONTINUOUS
10
5.98777
20
-3.79357
11
5.98618
21
-3.78557
0
LINE
8
BLACK
6
CONTINUOUS
10
5.98618
20
-3.78557
11
5.98618
21
-3.77742
0
LINE
8
BLACK
6
CONTINUOUS
10
5.98618
20
-3.77742
11
5.98777
21
-3.76943
0
LINE
8
BLACK
6
CONTINUOUS
10
5.98777
20
-3.76943
11
5.99089
21
-3.7619
0
LINE
8
BLACK
6
CONTINUOUS
10
5.99089
20
-3.7619
11
5.99542
21
-3.75512
0
LINE
8
BLACK
6
CONTINUOUS
10
5.99542
20
-3.75512
11
6.00118
21
-3.74936
0
LINE
8
BLACK
6
CONTINUOUS
10
6.00118
20
-3.74936
11
6.00796
21
-3.74483
0
LINE
8
BLACK
6
CONTINUOUS
10
6.00796
20
-3.74483
11
6.00796
21
-3.74483
0
LINE
8
BLACK
6
CONTINUOUS
10
6.00796
20
-3.74483
11
6.01549
21
-3.74171
0
LINE
8
BLACK
6
CONTINUOUS
10
6.01549
20
-3.74171
11
6.02348
21
-3.74012
0
LINE
8
BLACK
6
CONTINUOUS
10
6.02348
20
-3.74012
11
6.03163
21
-3.74012
0
LINE
8
BLACK
6
CONTINUOUS
10
6.03163
20
-3.74012
11
6.03963
21
-3.74171
0
LINE
8
BLACK
6
CONTINUOUS
10
5.84278
20
-3.74171
11
5.85031
21
-3.74483
0
LINE
8
BLACK
6
CONTINUOUS
10
5.85031
20
-3.74483
11
5.85031
21
-3.74483
0
LINE
8
BLACK
6
CONTINUOUS
10
5.85031
20
-3.74483
11
5.85709
21
-3.74936
0
LINE
8
BLACK
6
CONTINUOUS
10
5.85709
20
-3.74936
11
5.86285
21
-3.75512
0
LINE
8
BLACK
6
CONTINUOUS
10
5.86285
20
-3.75512
11
5.86738
21
-3.7619
0
LINE
8
BLACK
6
CONTINUOUS
10
5.86738
20
-3.7619
11
5.8705
21
-3.76943
0
LINE
8
BLACK
6
CONTINUOUS
10
5.8705
20
-3.76943
11
5.87209
21
-3.77742
0
LINE
8
BLACK
6
CONTINUOUS
10
5.87209
20
-3.77742
11
5.87209
21
-3.78557
0
LINE
8
BLACK
6
CONTINUOUS
10
5.87209
20
-3.78557
11
5.8705
21
-3.79357
0
LINE
8
BLACK
6
CONTINUOUS
10
5.8705
20
-3.79357
11
5.86738
21
-3.8011
0
LINE
8
BLACK
6
CONTINUOUS
10
5.86738
20
-3.8011
11
5.86738
21
-3.8011
0
LINE
8
BLACK
6
CONTINUOUS
10
5.86738
20
-3.8011
11
5.86285
21
-3.80787
0
LINE
8
BLACK
6
CONTINUOUS
10
5.86285
20
-3.80787
11
5.85709
21
-3.81364
0
LINE
8
BLACK
6
CONTINUOUS
10
5.85709
20
-3.81364
11
5.85031
21
-3.81816
0
LINE
8
BLACK
6
CONTINUOUS
10
5.85031
20
-3.81816
11
5.85031
21
-3.81816
0
LINE
8
BLACK
6
CONTINUOUS
10
5.85031
20
-3.81816
11
5.85031
21
-3.81816
0
LINE
8
BLACK
6
CONTINUOUS
10
5.85031
20
-3.81816
11
5.84278
21
-3.82128
0
LINE
8
BLACK
6
CONTINUOUS
10
5.84278
20
-3.82128
11
5.83478
21
-3.82287
0
LINE
8
BLACK
6
CONTINUOUS
10
5.83478
20
-3.82287
11
5.82663
21
-3.82287
0
LINE
8
BLACK
6
CONTINUOUS
10
5.82663
20
-3.82287
11
5.81864
21
-3.82128
0
LINE
8
BLACK
6
CONTINUOUS
10
5.81864
20
-3.82128
11
5.81111
21
-3.81816
0
LINE
8
BLACK
6
CONTINUOUS
10
5.81111
20
-3.81816
11
5.81111
21
-3.81816
0
LINE
8
BLACK
6
CONTINUOUS
10
5.81111
20
-3.81816
11
5.81111
21
-3.81816
0
LINE
8
BLACK
6
CONTINUOUS
10
5.81111
20
-3.81816
11
5.80433
21
-3.81364
0
LINE
8
BLACK
6
CONTINUOUS
10
5.80433
20
-3.81364
11
5.79857
21
-3.80787
0
LINE
8
BLACK
6
CONTINUOUS
10
5.79857
20
-3.80787
11
5.79404
21
-3.8011
0
LINE
8
BLACK
6
CONTINUOUS
10
5.79404
20
-3.8011
11
5.79404
21
-3.8011
0
LINE
8
BLACK
6
CONTINUOUS
10
5.79404
20
-3.8011
11
5.79092
21
-3.79357
0
LINE
8
BLACK
6
CONTINUOUS
10
5.79092
20
-3.79357
11
5.78933
21
-3.78557
0
LINE
8
BLACK
6
CONTINUOUS
10
5.78933
20
-3.78557
11
5.78933
21
-3.77742
0
LINE
8
BLACK
6
CONTINUOUS
10
5.78933
20
-3.77742
11
5.79092
21
-3.76943
0
LINE
8
BLACK
6
CONTINUOUS
10
5.79092
20
-3.76943
11
5.79404
21
-3.7619
0
LINE
8
BLACK
6
CONTINUOUS
10
5.79404
20
-3.7619
11
5.79857
21
-3.75512
0
LINE
8
BLACK
6
CONTINUOUS
10
5.79857
20
-3.75512
11
5.80433
21
-3.74936
0
LINE
8
BLACK
6
CONTINUOUS
10
5.80433
20
-3.74936
11
5.81111
21
-3.74483
0
LINE
8
BLACK
6
CONTINUOUS
10
5.81111
20
-3.74483
11
5.81111
21
-3.74483
0
LINE
8
BLACK
6
CONTINUOUS
10
5.81111
20
-3.74483
11
5.81864
21
-3.74171
0
LINE
8
BLACK
6
CONTINUOUS
10
5.81864
20
-3.74171
11
5.82663
21
-3.74012
0
LINE
8
BLACK
6
CONTINUOUS
10
5.82663
20
-3.74012
11
5.83478
21
-3.74012
0
LINE
8
BLACK
6
CONTINUOUS
10
5.83478
20
-3.74012
11
5.84278
21
-3.74171
  0
ENDSEC
  0
EOF
