  0
SECTION
  2
HEADER
  9
$ANGBASE
  50
0.0
  9
$ANGDIR
  70
1
  9
$MEASUREMENT
  70
0
  0
ENDSEC
  0
SECTION
  2
TABLES
  0
TABLE
  2
LTYPE
  70
4
  0
LTYPE
  5
40F
  2
CONTINUOUS
  70
0
  3
Solid line
  72
65
  73
0
  40
0.0
  0
LTYPE
  5
410
  2
DASHDOT
 70
0
  3
Dash Dot ____ _ ____ _
 72
65
 73
4
 40
2.0
 49
1.25
 49
-0.25
 49
0.25
 49
-0.25
  0
LTYPE
  5
411
  2
DASHED
 70
0
  3
Dashed __ __ __ __ __
 72
65
 73
2
 40
0.75
 49
0.5
 49
-0.25
  0
LTYPE
  5
43B
  2
DOTTED
 70
0
  3
Dotted .  .  .  .
 72
65
 73
2
 40
0.2
 49
0.0
 49
-0.2
  0
ENDTAB
  0
TABLE
  2
STYLE
  70
4
  0
STYLE
  2
KICAD
  70
0
  40
0
  41
1
  42
1
  50
0
  71
0
  3
isocp.shx
  0
STYLE
  2
KICADB
  70
0
  40
0
  41
1
  42
1
  50
0
  71
0
  3
isocp.shx
  0
STYLE
  2
KICADI
  70
0
  40
0
  41
1
  42
1
  50
15
  71
0
  3
isocp.shx
  0
STYLE
  2
KICADBI
  70
0
  40
0
  41
1
  42
1
  50
15
  71
0
  3
isocp.shx
  0
ENDTAB
  0
TABLE
  2
LAYER
  70
1
  0
LAYER
  2
BLACK
  70
0
  62
7
  6
CONTINUOUS
  0
ENDTAB
  0
ENDSEC
  0
SECTION
  2
ENTITIES
0
LINE
8
BLACK
6
CONTINUOUS
10
4.88723
20
-4.60389
11
4.89982
21
-4.52437
0
LINE
8
BLACK
6
CONTINUOUS
10
4.89982
20
-4.52437
11
4.91862
21
-4.44608
0
LINE
8
BLACK
6
CONTINUOUS
10
4.91862
20
-4.44608
11
4.9435
21
-4.3695
0
LINE
8
BLACK
6
CONTINUOUS
10
4.9435
20
-4.3695
11
4.97431
21
-4.29512
0
LINE
8
BLACK
6
CONTINUOUS
10
4.97431
20
-4.29512
11
5.01086
21
-4.22338
0
LINE
8
BLACK
6
CONTINUOUS
10
5.01086
20
-4.22338
11
5.05293
21
-4.15473
0
LINE
8
BLACK
6
CONTINUOUS
10
5.05293
20
-4.15473
11
5.10025
21
-4.08959
0
LINE
8
BLACK
6
CONTINUOUS
10
5.10025
20
-4.08959
11
5.15254
21
-4.02837
0
LINE
8
BLACK
6
CONTINUOUS
10
5.15254
20
-4.02837
11
5.20947
21
-3.97144
0
LINE
8
BLACK
6
CONTINUOUS
10
5.20947
20
-3.97144
11
5.2707
21
-3.91915
0
LINE
8
BLACK
6
CONTINUOUS
10
5.2707
20
-3.91915
11
5.33583
21
-3.87183
0
LINE
8
BLACK
6
CONTINUOUS
10
5.33583
20
-3.87183
11
5.40448
21
-3.82976
0
LINE
8
BLACK
6
CONTINUOUS
10
5.40448
20
-3.82976
11
5.47622
21
-3.79321
0
LINE
8
BLACK
6
CONTINUOUS
10
5.47622
20
-3.79321
11
5.55061
21
-3.76239
0
LINE
8
BLACK
6
CONTINUOUS
10
5.55061
20
-3.76239
11
5.62718
21
-3.73751
0
LINE
8
BLACK
6
CONTINUOUS
10
5.62718
20
-3.73751
11
5.70547
21
-3.71872
0
LINE
8
BLACK
6
CONTINUOUS
10
5.70547
20
-3.71872
11
5.78499
21
-3.70612
0
LINE
8
BLACK
6
CONTINUOUS
10
5.78499
20
-3.70612
11
5.86526
21
-3.69981
0
LINE
8
BLACK
6
CONTINUOUS
10
5.86526
20
-3.69981
11
5.94577
21
-3.69981
0
LINE
8
BLACK
6
CONTINUOUS
10
5.94577
20
-3.69981
11
6.02603
21
-3.70612
0
LINE
8
BLACK
6
CONTINUOUS
10
6.02603
20
-3.70612
11
6.10556
21
-3.71872
0
LINE
8
BLACK
6
CONTINUOUS
10
6.10556
20
-3.71872
11
6.18385
21
-3.73751
0
LINE
8
BLACK
6
CONTINUOUS
10
6.18385
20
-3.73751
11
6.26042
21
-3.76239
0
LINE
8
BLACK
6
CONTINUOUS
10
6.26042
20
-3.76239
11
6.3348
21
-3.79321
0
LINE
8
BLACK
6
CONTINUOUS
10
6.3348
20
-3.79321
11
6.40654
21
-3.82976
0
LINE
8
BLACK
6
CONTINUOUS
10
6.40654
20
-3.82976
11
6.47519
21
-3.87183
0
LINE
8
BLACK
6
CONTINUOUS
10
6.47519
20
-3.87183
11
6.54033
21
-3.91915
0
LINE
8
BLACK
6
CONTINUOUS
10
6.54033
20
-3.91915
11
6.60155
21
-3.97144
0
LINE
8
BLACK
6
CONTINUOUS
10
6.60155
20
-3.97144
11
6.65848
21
-4.02837
0
LINE
8
BLACK
6
CONTINUOUS
10
6.65848
20
-4.02837
11
6.71077
21
-4.08959
0
LINE
8
BLACK
6
CONTINUOUS
10
6.71077
20
-4.08959
11
6.7581
21
-4.15473
0
LINE
8
BLACK
6
CONTINUOUS
10
6.7581
20
-4.15473
11
6.80016
21
-4.22338
0
LINE
8
BLACK
6
CONTINUOUS
10
6.80016
20
-4.22338
11
6.83672
21
-4.29512
0
LINE
8
BLACK
6
CONTINUOUS
10
6.83672
20
-4.29512
11
6.86753
21
-4.3695
0
LINE
8
BLACK
6
CONTINUOUS
10
6.86753
20
-4.3695
11
6.89241
21
-4.44608
0
LINE
8
BLACK
6
CONTINUOUS
10
6.89241
20
-4.44608
11
6.9112
21
-4.52437
0
LINE
8
BLACK
6
CONTINUOUS
10
6.9112
20
-4.52437
11
6.9238
21
-4.60389
0
LINE
8
BLACK
6
CONTINUOUS
10
6.9238
20
-4.60389
11
6.93011
21
-4.68415
0
LINE
8
BLACK
6
CONTINUOUS
10
6.93011
20
-4.68415
11
6.93011
21
-4.76467
0
LINE
8
BLACK
6
CONTINUOUS
10
6.93011
20
-4.76467
11
6.9238
21
-4.84493
0
LINE
8
BLACK
6
CONTINUOUS
10
6.9238
20
-4.84493
11
6.9112
21
-4.92445
0
LINE
8
BLACK
6
CONTINUOUS
10
6.9112
20
-4.92445
11
6.89241
21
-5.00274
0
LINE
8
BLACK
6
CONTINUOUS
10
6.89241
20
-5.00274
11
6.86753
21
-5.07932
0
LINE
8
BLACK
6
CONTINUOUS
10
6.86753
20
-5.07932
11
6.83672
21
-5.1537
0
LINE
8
BLACK
6
CONTINUOUS
10
6.83672
20
-5.1537
11
6.80016
21
-5.22544
0
LINE
8
BLACK
6
CONTINUOUS
10
6.80016
20
-5.22544
11
6.7581
21
-5.29409
0
LINE
8
BLACK
6
CONTINUOUS
10
6.7581
20
-5.29409
11
6.71077
21
-5.35922
0
LINE
8
BLACK
6
CONTINUOUS
10
6.71077
20
-5.35922
11
6.65848
21
-5.42045
0
LINE
8
BLACK
6
CONTINUOUS
10
6.65848
20
-5.42045
11
6.60155
21
-5.47738
0
LINE
8
BLACK
6
CONTINUOUS
10
6.60155
20
-5.47738
11
6.54033
21
-5.52967
0
LINE
8
BLACK
6
CONTINUOUS
10
6.54033
20
-5.52967
11
6.47519
21
-5.57699
0
LINE
8
BLACK
6
CONTINUOUS
10
6.47519
20
-5.57699
11
6.40654
21
-5.61906
0
LINE
8
BLACK
6
CONTINUOUS
10
6.40654
20
-5.61906
11
6.3348
21
-5.65561
0
LINE
8
BLACK
6
CONTINUOUS
10
6.3348
20
-5.65561
11
6.26042
21
-5.68642
0
LINE
8
BLACK
6
CONTINUOUS
10
6.26042
20
-5.68642
11
6.18385
21
-5.71131
0
LINE
8
BLACK
6
CONTINUOUS
10
6.18385
20
-5.71131
11
6.10556
21
-5.7301
0
LINE
8
BLACK
6
CONTINUOUS
10
6.10556
20
-5.7301
11
6.02603
21
-5.7427
0
LINE
8
BLACK
6
CONTINUOUS
10
6.02603
20
-5.7427
11
5.94577
21
-5.74901
0
LINE
8
BLACK
6
CONTINUOUS
10
5.94577
20
-5.74901
11
5.86526
21
-5.74901
0
LINE
8
BLACK
6
CONTINUOUS
10
5.86526
20
-5.74901
11
5.78499
21
-5.7427
0
LINE
8
BLACK
6
CONTINUOUS
10
5.78499
20
-5.7427
11
5.70547
21
-5.7301
0
LINE
8
BLACK
6
CONTINUOUS
10
5.70547
20
-5.7301
11
5.62718
21
-5.71131
0
LINE
8
BLACK
6
CONTINUOUS
10
5.62718
20
-5.71131
11
5.55061
21
-5.68642
0
LINE
8
BLACK
6
CONTINUOUS
10
5.55061
20
-5.68642
11
5.47622
21
-5.65561
0
LINE
8
BLACK
6
CONTINUOUS
10
5.47622
20
-5.65561
11
5.40448
21
-5.61906
0
LINE
8
BLACK
6
CONTINUOUS
10
5.40448
20
-5.61906
11
5.33583
21
-5.57699
0
LINE
8
BLACK
6
CONTINUOUS
10
5.33583
20
-5.57699
11
5.2707
21
-5.52967
0
LINE
8
BLACK
6
CONTINUOUS
10
5.2707
20
-5.52967
11
5.20947
21
-5.47738
0
LINE
8
BLACK
6
CONTINUOUS
10
5.20947
20
-5.47738
11
5.15254
21
-5.42045
0
LINE
8
BLACK
6
CONTINUOUS
10
5.15254
20
-5.42045
11
5.10025
21
-5.35922
0
LINE
8
BLACK
6
CONTINUOUS
10
5.10025
20
-5.35922
11
5.05293
21
-5.29409
0
LINE
8
BLACK
6
CONTINUOUS
10
5.05293
20
-5.29409
11
5.01086
21
-5.22544
0
LINE
8
BLACK
6
CONTINUOUS
10
5.01086
20
-5.22544
11
4.97431
21
-5.1537
0
LINE
8
BLACK
6
CONTINUOUS
10
4.97431
20
-5.1537
11
4.9435
21
-5.07932
0
LINE
8
BLACK
6
CONTINUOUS
10
4.9435
20
-5.07932
11
4.91862
21
-5.00274
0
LINE
8
BLACK
6
CONTINUOUS
10
4.91862
20
-5.00274
11
4.89982
21
-4.92445
0
LINE
8
BLACK
6
CONTINUOUS
10
4.89982
20
-4.92445
11
4.88723
21
-4.84493
0
LINE
8
BLACK
6
CONTINUOUS
10
4.88723
20
-4.84493
11
4.88091
21
-4.76467
0
LINE
8
BLACK
6
CONTINUOUS
10
4.88091
20
-4.76467
11
4.88091
21
-4.68415
0
LINE
8
BLACK
6
CONTINUOUS
10
4.88091
20
-4.68415
11
4.88723
21
-4.60389
0
LINE
8
BLACK
6
CONTINUOUS
10
4.88996
20
-4.84461
11
4.90252
21
-4.92392
0
LINE
8
BLACK
6
CONTINUOUS
10
4.90252
20
-4.92392
11
4.92127
21
-5.00199
0
LINE
8
BLACK
6
CONTINUOUS
10
4.92127
20
-5.00199
11
4.94608
21
-5.07836
0
LINE
8
BLACK
6
CONTINUOUS
10
4.94608
20
-5.07836
11
4.97681
21
-5.15255
0
LINE
8
BLACK
6
CONTINUOUS
10
4.97681
20
-5.15255
11
5.01326
21
-5.22409
0
LINE
8
BLACK
6
CONTINUOUS
10
5.01326
20
-5.22409
11
5.05522
21
-5.29256
0
LINE
8
BLACK
6
CONTINUOUS
10
5.05522
20
-5.29256
11
5.10242
21
-5.35752
0
LINE
8
BLACK
6
CONTINUOUS
10
5.10242
20
-5.35752
11
5.15457
21
-5.41858
0
LINE
8
BLACK
6
CONTINUOUS
10
5.15457
20
-5.41858
11
5.21134
21
-5.47536
0
LINE
8
BLACK
6
CONTINUOUS
10
5.21134
20
-5.47536
11
5.2724
21
-5.5275
0
LINE
8
BLACK
6
CONTINUOUS
10
5.2724
20
-5.5275
11
5.33736
21
-5.5747
0
LINE
8
BLACK
6
CONTINUOUS
10
5.33736
20
-5.5747
11
5.40583
21
-5.61666
0
LINE
8
BLACK
6
CONTINUOUS
10
5.40583
20
-5.61666
11
5.47737
21
-5.65311
0
LINE
8
BLACK
6
CONTINUOUS
10
5.47737
20
-5.65311
11
5.55156
21
-5.68384
0
LINE
8
BLACK
6
CONTINUOUS
10
5.55156
20
-5.68384
11
5.62793
21
-5.70865
0
LINE
8
BLACK
6
CONTINUOUS
10
5.62793
20
-5.70865
11
5.70601
21
-5.7274
0
LINE
8
BLACK
6
CONTINUOUS
10
5.70601
20
-5.7274
11
5.78531
21
-5.73996
0
LINE
8
BLACK
6
CONTINUOUS
10
5.78531
20
-5.73996
11
5.86536
21
-5.74626
0
LINE
8
BLACK
6
CONTINUOUS
10
5.86536
20
-5.74626
11
5.94566
21
-5.74626
0
LINE
8
BLACK
6
CONTINUOUS
10
5.94566
20
-5.74626
11
6.02571
21
-5.73996
0
LINE
8
BLACK
6
CONTINUOUS
10
6.02571
20
-5.73996
11
6.10502
21
-5.7274
0
LINE
8
BLACK
6
CONTINUOUS
10
6.10502
20
-5.7274
11
6.1831
21
-5.70865
0
LINE
8
BLACK
6
CONTINUOUS
10
6.1831
20
-5.70865
11
6.25946
21
-5.68384
0
LINE
8
BLACK
6
CONTINUOUS
10
6.25946
20
-5.68384
11
6.33365
21
-5.65311
0
LINE
8
BLACK
6
CONTINUOUS
10
6.33365
20
-5.65311
11
6.40519
21
-5.61666
0
LINE
8
BLACK
6
CONTINUOUS
10
6.40519
20
-5.61666
11
6.47366
21
-5.5747
0
LINE
8
BLACK
6
CONTINUOUS
10
6.47366
20
-5.5747
11
6.53862
21
-5.5275
0
LINE
8
BLACK
6
CONTINUOUS
10
6.53862
20
-5.5275
11
6.59968
21
-5.47536
0
LINE
8
BLACK
6
CONTINUOUS
10
6.59968
20
-5.47536
11
6.65646
21
-5.41858
0
LINE
8
BLACK
6
CONTINUOUS
10
6.65646
20
-5.41858
11
6.70861
21
-5.35752
0
LINE
8
BLACK
6
CONTINUOUS
10
6.70861
20
-5.35752
11
6.7558
21
-5.29256
0
LINE
8
BLACK
6
CONTINUOUS
10
6.7558
20
-5.29256
11
6.79776
21
-5.22409
0
LINE
8
BLACK
6
CONTINUOUS
10
6.79776
20
-5.22409
11
6.83421
21
-5.15255
0
LINE
8
BLACK
6
CONTINUOUS
10
6.83421
20
-5.15255
11
6.86494
21
-5.07836
0
LINE
8
BLACK
6
CONTINUOUS
10
6.86494
20
-5.07836
11
6.88975
21
-5.00199
0
LINE
8
BLACK
6
CONTINUOUS
10
6.88975
20
-5.00199
11
6.9085
21
-4.92392
0
LINE
8
BLACK
6
CONTINUOUS
10
6.9085
20
-4.92392
11
6.92106
21
-4.84461
0
LINE
8
BLACK
6
CONTINUOUS
10
6.92106
20
-4.84461
11
6.92736
21
-4.76456
0
LINE
8
BLACK
6
CONTINUOUS
10
6.92736
20
-4.76456
11
6.92736
21
-4.68426
0
LINE
8
BLACK
6
CONTINUOUS
10
6.92736
20
-4.68426
11
6.92106
21
-4.60421
0
LINE
8
BLACK
6
CONTINUOUS
10
6.92106
20
-4.60421
11
6.9085
21
-4.5249
0
LINE
8
BLACK
6
CONTINUOUS
10
6.9085
20
-4.5249
11
6.88975
21
-4.44682
0
LINE
8
BLACK
6
CONTINUOUS
10
6.88975
20
-4.44682
11
6.86494
21
-4.37046
0
LINE
8
BLACK
6
CONTINUOUS
10
6.86494
20
-4.37046
11
6.83421
21
-4.29627
0
LINE
8
BLACK
6
CONTINUOUS
10
6.83421
20
-4.29627
11
6.79776
21
-4.22473
0
LINE
8
BLACK
6
CONTINUOUS
10
6.79776
20
-4.22473
11
6.7558
21
-4.15626
0
LINE
8
BLACK
6
CONTINUOUS
10
6.7558
20
-4.15626
11
6.70861
21
-4.0913
0
LINE
8
BLACK
6
CONTINUOUS
10
6.70861
20
-4.0913
11
6.65646
21
-4.03024
0
LINE
8
BLACK
6
CONTINUOUS
10
6.65646
20
-4.03024
11
6.59968
21
-3.97346
0
LINE
8
BLACK
6
CONTINUOUS
10
6.59968
20
-3.97346
11
6.53862
21
-3.92131
0
LINE
8
BLACK
6
CONTINUOUS
10
6.53862
20
-3.92131
11
6.47366
21
-3.87412
0
LINE
8
BLACK
6
CONTINUOUS
10
6.47366
20
-3.87412
11
6.40519
21
-3.83216
0
LINE
8
BLACK
6
CONTINUOUS
10
6.40519
20
-3.83216
11
6.33365
21
-3.79571
0
LINE
8
BLACK
6
CONTINUOUS
10
6.33365
20
-3.79571
11
6.25946
21
-3.76498
0
LINE
8
BLACK
6
CONTINUOUS
10
6.25946
20
-3.76498
11
6.1831
21
-3.74017
0
LINE
8
BLACK
6
CONTINUOUS
10
6.1831
20
-3.74017
11
6.10502
21
-3.72142
0
LINE
8
BLACK
6
CONTINUOUS
10
6.10502
20
-3.72142
11
6.02571
21
-3.70886
0
LINE
8
BLACK
6
CONTINUOUS
10
6.02571
20
-3.70886
11
5.94566
21
-3.70256
0
LINE
8
BLACK
6
CONTINUOUS
10
5.94566
20
-3.70256
11
5.86536
21
-3.70256
0
LINE
8
BLACK
6
CONTINUOUS
10
5.86536
20
-3.70256
11
5.78531
21
-3.70886
0
LINE
8
BLACK
6
CONTINUOUS
10
5.78531
20
-3.70886
11
5.70601
21
-3.72142
0
LINE
8
BLACK
6
CONTINUOUS
10
5.70601
20
-3.72142
11
5.62793
21
-3.74017
0
LINE
8
BLACK
6
CONTINUOUS
10
5.62793
20
-3.74017
11
5.55156
21
-3.76498
0
LINE
8
BLACK
6
CONTINUOUS
10
5.55156
20
-3.76498
11
5.47737
21
-3.79571
0
LINE
8
BLACK
6
CONTINUOUS
10
5.47737
20
-3.79571
11
5.40583
21
-3.83216
0
LINE
8
BLACK
6
CONTINUOUS
10
5.40583
20
-3.83216
11
5.33736
21
-3.87412
0
LINE
8
BLACK
6
CONTINUOUS
10
5.33736
20
-3.87412
11
5.2724
21
-3.92131
0
LINE
8
BLACK
6
CONTINUOUS
10
5.2724
20
-3.92131
11
5.21134
21
-3.97346
0
LINE
8
BLACK
6
CONTINUOUS
10
5.21134
20
-3.97346
11
5.15457
21
-4.03024
0
LINE
8
BLACK
6
CONTINUOUS
10
5.15457
20
-4.03024
11
5.10242
21
-4.0913
0
LINE
8
BLACK
6
CONTINUOUS
10
5.10242
20
-4.0913
11
5.05522
21
-4.15626
0
LINE
8
BLACK
6
CONTINUOUS
10
5.05522
20
-4.15626
11
5.01326
21
-4.22473
0
LINE
8
BLACK
6
CONTINUOUS
10
5.01326
20
-4.22473
11
4.97681
21
-4.29627
0
LINE
8
BLACK
6
CONTINUOUS
10
4.97681
20
-4.29627
11
4.94608
21
-4.37046
0
LINE
8
BLACK
6
CONTINUOUS
10
4.94608
20
-4.37046
11
4.92127
21
-4.44682
0
LINE
8
BLACK
6
CONTINUOUS
10
4.92127
20
-4.44682
11
4.90252
21
-4.5249
0
LINE
8
BLACK
6
CONTINUOUS
10
4.90252
20
-4.5249
11
4.88996
21
-4.60421
0
LINE
8
BLACK
6
CONTINUOUS
10
4.88996
20
-4.60421
11
4.88366
21
-4.68426
0
LINE
8
BLACK
6
CONTINUOUS
10
4.88366
20
-4.68426
11
4.88366
21
-4.76456
0
LINE
8
BLACK
6
CONTINUOUS
10
4.88366
20
-4.76456
11
4.88996
21
-4.84461
  0
ENDSEC
  0
EOF
