  0
SECTION
  2
HEADER
  9
$ANGBASE
  50
0.0
  9
$ANGDIR
  70
1
  9
$MEASUREMENT
  70
0
  0
ENDSEC
  0
SECTION
  2
TABLES
  0
TABLE
  2
LTYPE
  70
4
  0
LTYPE
  5
40F
  2
CONTINUOUS
  70
0
  3
Solid line
  72
65
  73
0
  40
0.0
  0
LTYPE
  5
410
  2
DASHDOT
 70
0
  3
Dash Dot ____ _ ____ _
 72
65
 73
4
 40
2.0
 49
1.25
 49
-0.25
 49
0.25
 49
-0.25
  0
LTYPE
  5
411
  2
DASHED
 70
0
  3
Dashed __ __ __ __ __
 72
65
 73
2
 40
0.75
 49
0.5
 49
-0.25
  0
LTYPE
  5
43B
  2
DOTTED
 70
0
  3
Dotted .  .  .  .
 72
65
 73
2
 40
0.2
 49
0.0
 49
-0.2
  0
ENDTAB
  0
TABLE
  2
STYLE
  70
4
  0
STYLE
  2
KICAD
  70
0
  40
0
  41
1
  42
1
  50
0
  71
0
  3
isocp.shx
  0
STYLE
  2
KICADB
  70
0
  40
0
  41
1
  42
1
  50
0
  71
0
  3
isocp.shx
  0
STYLE
  2
KICADI
  70
0
  40
0
  41
1
  42
1
  50
15
  71
0
  3
isocp.shx
  0
STYLE
  2
KICADBI
  70
0
  40
0
  41
1
  42
1
  50
15
  71
0
  3
isocp.shx
  0
ENDTAB
  0
TABLE
  2
LAYER
  70
1
  0
LAYER
  2
BLACK
  70
0
  62
7
  6
CONTINUOUS
  0
ENDTAB
  0
ENDSEC
  0
SECTION
  2
ENTITIES
0
LINE
8
BLACK
6
CONTINUOUS
10
5.67115
20
-5.60021
11
5.67115
21
-5.60021
0
LINE
8
BLACK
6
CONTINUOUS
10
5.67115
20
-5.60021
11
5.66526
21
-5.61638
0
LINE
8
BLACK
6
CONTINUOUS
10
5.66526
20
-5.61638
11
5.64958
21
-5.65947
0
LINE
8
BLACK
6
CONTINUOUS
10
5.64958
20
-5.65947
11
5.60881
21
-5.64463
0
LINE
8
BLACK
6
CONTINUOUS
10
5.60881
20
-5.64463
11
5.63038
21
-5.58537
0
LINE
8
BLACK
6
CONTINUOUS
10
5.63038
20
-5.58537
11
5.67115
21
-5.60021
0
LINE
8
BLACK
6
CONTINUOUS
10
5.55277
20
-5.55712
11
5.55277
21
-5.55712
0
LINE
8
BLACK
6
CONTINUOUS
10
5.55277
20
-5.55712
11
5.54553
21
-5.577
0
LINE
8
BLACK
6
CONTINUOUS
10
5.54553
20
-5.577
11
5.5312
21
-5.61638
0
LINE
8
BLACK
6
CONTINUOUS
10
5.5312
20
-5.61638
11
5.49043
21
-5.60155
0
LINE
8
BLACK
6
CONTINUOUS
10
5.49043
20
-5.60155
11
5.49091
21
-5.60021
0
LINE
8
BLACK
6
CONTINUOUS
10
5.49091
20
-5.60021
11
5.512
21
-5.54228
0
LINE
8
BLACK
6
CONTINUOUS
10
5.512
20
-5.54228
11
5.55277
21
-5.55712
0
LINE
8
BLACK
6
CONTINUOUS
10
6.21257
20
-5.51317
11
6.21407
21
-5.51355
0
LINE
8
BLACK
6
CONTINUOUS
10
6.21407
20
-5.51355
11
6.21547
21
-5.51422
0
LINE
8
BLACK
6
CONTINUOUS
10
6.21547
20
-5.51422
11
6.21671
21
-5.51516
0
LINE
8
BLACK
6
CONTINUOUS
10
6.21671
20
-5.51516
11
6.21774
21
-5.51631
0
LINE
8
BLACK
6
CONTINUOUS
10
6.21774
20
-5.51631
11
6.21866
21
-5.51785
0
LINE
8
BLACK
6
CONTINUOUS
10
6.21866
20
-5.51785
11
6.21973
21
-5.52015
0
LINE
8
BLACK
6
CONTINUOUS
10
6.21973
20
-5.52015
11
6.21973
21
-5.52016
0
LINE
8
BLACK
6
CONTINUOUS
10
6.21973
20
-5.52016
11
6.2315
21
-5.54541
0
LINE
8
BLACK
6
CONTINUOUS
10
6.2315
20
-5.54541
11
6.23258
21
-5.54771
0
LINE
8
BLACK
6
CONTINUOUS
10
6.23258
20
-5.54771
11
6.23317
21
-5.5494
0
LINE
8
BLACK
6
CONTINUOUS
10
6.23317
20
-5.5494
11
6.23339
21
-5.55093
0
LINE
8
BLACK
6
CONTINUOUS
10
6.23339
20
-5.55093
11
6.23331
21
-5.55248
0
LINE
8
BLACK
6
CONTINUOUS
10
6.23331
20
-5.55248
11
6.23292
21
-5.55398
0
LINE
8
BLACK
6
CONTINUOUS
10
6.23292
20
-5.55398
11
6.23225
21
-5.55538
0
LINE
8
BLACK
6
CONTINUOUS
10
6.23225
20
-5.55538
11
6.23132
21
-5.55662
0
LINE
8
BLACK
6
CONTINUOUS
10
6.23132
20
-5.55662
11
6.23016
21
-5.55766
0
LINE
8
BLACK
6
CONTINUOUS
10
6.23016
20
-5.55766
11
6.22862
21
-5.55857
0
LINE
8
BLACK
6
CONTINUOUS
10
6.22862
20
-5.55857
11
6.22632
21
-5.55965
0
LINE
8
BLACK
6
CONTINUOUS
10
6.22632
20
-5.55965
11
6.22632
21
-5.55965
0
LINE
8
BLACK
6
CONTINUOUS
10
6.22632
20
-5.55965
11
6.19215
21
-5.57558
0
LINE
8
BLACK
6
CONTINUOUS
10
6.19215
20
-5.57558
11
6.19215
21
-5.57558
0
LINE
8
BLACK
6
CONTINUOUS
10
6.19215
20
-5.57558
11
6.18985
21
-5.57665
0
LINE
8
BLACK
6
CONTINUOUS
10
6.18985
20
-5.57665
11
6.18816
21
-5.57725
0
LINE
8
BLACK
6
CONTINUOUS
10
6.18816
20
-5.57725
11
6.18662
21
-5.57747
0
LINE
8
BLACK
6
CONTINUOUS
10
6.18662
20
-5.57747
11
6.18507
21
-5.57738
0
LINE
8
BLACK
6
CONTINUOUS
10
6.18507
20
-5.57738
11
6.18357
21
-5.577
0
LINE
8
BLACK
6
CONTINUOUS
10
6.18357
20
-5.577
11
6.18217
21
-5.57633
0
LINE
8
BLACK
6
CONTINUOUS
10
6.18217
20
-5.57633
11
6.18093
21
-5.5754
0
LINE
8
BLACK
6
CONTINUOUS
10
6.18093
20
-5.5754
11
6.1799
21
-5.57424
0
LINE
8
BLACK
6
CONTINUOUS
10
6.1799
20
-5.57424
11
6.17898
21
-5.5727
0
LINE
8
BLACK
6
CONTINUOUS
10
6.17898
20
-5.5727
11
6.17791
21
-5.5704
0
LINE
8
BLACK
6
CONTINUOUS
10
6.17791
20
-5.5704
11
6.17791
21
-5.5704
0
LINE
8
BLACK
6
CONTINUOUS
10
6.17791
20
-5.5704
11
6.16613
21
-5.54515
0
LINE
8
BLACK
6
CONTINUOUS
10
6.16613
20
-5.54515
11
6.16613
21
-5.54515
0
LINE
8
BLACK
6
CONTINUOUS
10
6.16613
20
-5.54515
11
6.16506
21
-5.54284
0
LINE
8
BLACK
6
CONTINUOUS
10
6.16506
20
-5.54284
11
6.16447
21
-5.54115
0
LINE
8
BLACK
6
CONTINUOUS
10
6.16447
20
-5.54115
11
6.16425
21
-5.53962
0
LINE
8
BLACK
6
CONTINUOUS
10
6.16425
20
-5.53962
11
6.16433
21
-5.53807
0
LINE
8
BLACK
6
CONTINUOUS
10
6.16433
20
-5.53807
11
6.16472
21
-5.53657
0
LINE
8
BLACK
6
CONTINUOUS
10
6.16472
20
-5.53657
11
6.16539
21
-5.53517
0
LINE
8
BLACK
6
CONTINUOUS
10
6.16539
20
-5.53517
11
6.16632
21
-5.53393
0
LINE
8
BLACK
6
CONTINUOUS
10
6.16632
20
-5.53393
11
6.16747
21
-5.53289
0
LINE
8
BLACK
6
CONTINUOUS
10
6.16747
20
-5.53289
11
6.16902
21
-5.53198
0
LINE
8
BLACK
6
CONTINUOUS
10
6.16902
20
-5.53198
11
6.17132
21
-5.53091
0
LINE
8
BLACK
6
CONTINUOUS
10
6.17132
20
-5.53091
11
6.17132
21
-5.53091
0
LINE
8
BLACK
6
CONTINUOUS
10
6.17132
20
-5.53091
11
6.20549
21
-5.51497
0
LINE
8
BLACK
6
CONTINUOUS
10
6.20549
20
-5.51497
11
6.20549
21
-5.51497
0
LINE
8
BLACK
6
CONTINUOUS
10
6.20549
20
-5.51497
11
6.20779
21
-5.5139
0
LINE
8
BLACK
6
CONTINUOUS
10
6.20779
20
-5.5139
11
6.20948
21
-5.5133
0
LINE
8
BLACK
6
CONTINUOUS
10
6.20948
20
-5.5133
11
6.21102
21
-5.51308
0
LINE
8
BLACK
6
CONTINUOUS
10
6.21102
20
-5.51308
11
6.21257
21
-5.51317
0
LINE
8
BLACK
6
CONTINUOUS
10
6.46863
20
-5.42565
11
6.47161
21
-5.42656
0
LINE
8
BLACK
6
CONTINUOUS
10
6.47161
20
-5.42656
11
6.47458
21
-5.42746
0
LINE
8
BLACK
6
CONTINUOUS
10
6.47458
20
-5.42746
11
6.47649
21
-5.42848
0
LINE
8
BLACK
6
CONTINUOUS
10
6.47649
20
-5.42848
11
6.48006
21
-5.43039
0
LINE
8
BLACK
6
CONTINUOUS
10
6.48006
20
-5.43039
11
6.48366
21
-5.43334
0
LINE
8
BLACK
6
CONTINUOUS
10
6.48366
20
-5.43334
11
6.51647
21
-5.46615
0
LINE
8
BLACK
6
CONTINUOUS
10
6.51647
20
-5.46615
11
6.51942
21
-5.46975
0
LINE
8
BLACK
6
CONTINUOUS
10
6.51942
20
-5.46975
11
6.52076
21
-5.47226
0
LINE
8
BLACK
6
CONTINUOUS
10
6.52076
20
-5.47226
11
6.52235
21
-5.47523
0
LINE
8
BLACK
6
CONTINUOUS
10
6.52235
20
-5.47523
11
6.52415
21
-5.48117
0
LINE
8
BLACK
6
CONTINUOUS
10
6.52415
20
-5.48117
11
6.52476
21
-5.48736
0
LINE
8
BLACK
6
CONTINUOUS
10
6.52476
20
-5.48736
11
6.52415
21
-5.49354
0
LINE
8
BLACK
6
CONTINUOUS
10
6.52415
20
-5.49354
11
6.52235
21
-5.49948
0
LINE
8
BLACK
6
CONTINUOUS
10
6.52235
20
-5.49948
11
6.52235
21
-5.49948
0
LINE
8
BLACK
6
CONTINUOUS
10
6.52235
20
-5.49948
11
6.51942
21
-5.50496
0
LINE
8
BLACK
6
CONTINUOUS
10
6.51942
20
-5.50496
11
6.51802
21
-5.50666
0
LINE
8
BLACK
6
CONTINUOUS
10
6.51802
20
-5.50666
11
6.51548
21
-5.50976
0
LINE
8
BLACK
6
CONTINUOUS
10
6.51548
20
-5.50976
11
6.51238
21
-5.51231
0
LINE
8
BLACK
6
CONTINUOUS
10
6.51238
20
-5.51231
11
6.51068
21
-5.5137
0
LINE
8
BLACK
6
CONTINUOUS
10
6.51068
20
-5.5137
11
6.50694
21
-5.5157
0
LINE
8
BLACK
6
CONTINUOUS
10
6.50694
20
-5.5157
11
6.5052
21
-5.51663
0
LINE
8
BLACK
6
CONTINUOUS
10
6.5052
20
-5.51663
11
6.50118
21
-5.51785
0
LINE
8
BLACK
6
CONTINUOUS
10
6.50118
20
-5.51785
11
6.49926
21
-5.51844
0
LINE
8
BLACK
6
CONTINUOUS
10
6.49926
20
-5.51844
11
6.49307
21
-5.51904
0
LINE
8
BLACK
6
CONTINUOUS
10
6.49307
20
-5.51904
11
6.48689
21
-5.51844
0
LINE
8
BLACK
6
CONTINUOUS
10
6.48689
20
-5.51844
11
6.48095
21
-5.51663
0
LINE
8
BLACK
6
CONTINUOUS
10
6.48095
20
-5.51663
11
6.47784
21
-5.51497
0
LINE
8
BLACK
6
CONTINUOUS
10
6.47784
20
-5.51497
11
6.47547
21
-5.5137
0
LINE
8
BLACK
6
CONTINUOUS
10
6.47547
20
-5.5137
11
6.47187
21
-5.51075
0
LINE
8
BLACK
6
CONTINUOUS
10
6.47187
20
-5.51075
11
6.43906
21
-5.47794
0
LINE
8
BLACK
6
CONTINUOUS
10
6.43906
20
-5.47794
11
6.4361
21
-5.47434
0
LINE
8
BLACK
6
CONTINUOUS
10
6.4361
20
-5.47434
11
6.43379
21
-5.47002
0
LINE
8
BLACK
6
CONTINUOUS
10
6.43379
20
-5.47002
11
6.43318
21
-5.46886
0
LINE
8
BLACK
6
CONTINUOUS
10
6.43318
20
-5.46886
11
6.43164
21
-5.46381
0
LINE
8
BLACK
6
CONTINUOUS
10
6.43164
20
-5.46381
11
6.43137
21
-5.46292
0
LINE
8
BLACK
6
CONTINUOUS
10
6.43137
20
-5.46292
11
6.43076
21
-5.45673
0
LINE
8
BLACK
6
CONTINUOUS
10
6.43076
20
-5.45673
11
6.43137
21
-5.45055
0
LINE
8
BLACK
6
CONTINUOUS
10
6.43137
20
-5.45055
11
6.43318
21
-5.44461
0
LINE
8
BLACK
6
CONTINUOUS
10
6.43318
20
-5.44461
11
6.43318
21
-5.44461
0
LINE
8
BLACK
6
CONTINUOUS
10
6.43318
20
-5.44461
11
6.43456
21
-5.44201
0
LINE
8
BLACK
6
CONTINUOUS
10
6.43456
20
-5.44201
11
6.4361
21
-5.43913
0
LINE
8
BLACK
6
CONTINUOUS
10
6.4361
20
-5.43913
11
6.4375
21
-5.43743
0
LINE
8
BLACK
6
CONTINUOUS
10
6.4375
20
-5.43743
11
6.44004
21
-5.43433
0
LINE
8
BLACK
6
CONTINUOUS
10
6.44004
20
-5.43433
11
6.44335
21
-5.43162
0
LINE
8
BLACK
6
CONTINUOUS
10
6.44335
20
-5.43162
11
6.44485
21
-5.43039
0
LINE
8
BLACK
6
CONTINUOUS
10
6.44485
20
-5.43039
11
6.44842
21
-5.42848
0
LINE
8
BLACK
6
CONTINUOUS
10
6.44842
20
-5.42848
11
6.45032
21
-5.42746
0
LINE
8
BLACK
6
CONTINUOUS
10
6.45032
20
-5.42746
11
6.4533
21
-5.42656
0
LINE
8
BLACK
6
CONTINUOUS
10
6.4533
20
-5.42656
11
6.45627
21
-5.42565
0
LINE
8
BLACK
6
CONTINUOUS
10
6.45627
20
-5.42565
11
6.46245
21
-5.42505
0
LINE
8
BLACK
6
CONTINUOUS
10
6.46245
20
-5.42505
11
6.46863
21
-5.42565
0
LINE
8
BLACK
6
CONTINUOUS
10
5.35475
20
-5.42565
11
5.3607
21
-5.42746
0
LINE
8
BLACK
6
CONTINUOUS
10
5.3607
20
-5.42746
11
5.36244
21
-5.42839
0
LINE
8
BLACK
6
CONTINUOUS
10
5.36244
20
-5.42839
11
5.36618
21
-5.43039
0
LINE
8
BLACK
6
CONTINUOUS
10
5.36618
20
-5.43039
11
5.36768
21
-5.43162
0
LINE
8
BLACK
6
CONTINUOUS
10
5.36768
20
-5.43162
11
5.37098
21
-5.43433
0
LINE
8
BLACK
6
CONTINUOUS
10
5.37098
20
-5.43433
11
5.37352
21
-5.43743
0
LINE
8
BLACK
6
CONTINUOUS
10
5.37352
20
-5.43743
11
5.37492
21
-5.43913
0
LINE
8
BLACK
6
CONTINUOUS
10
5.37492
20
-5.43913
11
5.37579
21
-5.44075
0
LINE
8
BLACK
6
CONTINUOUS
10
5.37579
20
-5.44075
11
5.37785
21
-5.44461
0
LINE
8
BLACK
6
CONTINUOUS
10
5.37785
20
-5.44461
11
5.37965
21
-5.45055
0
LINE
8
BLACK
6
CONTINUOUS
10
5.37965
20
-5.45055
11
5.38026
21
-5.45673
0
LINE
8
BLACK
6
CONTINUOUS
10
5.38026
20
-5.45673
11
5.37965
21
-5.46292
0
LINE
8
BLACK
6
CONTINUOUS
10
5.37965
20
-5.46292
11
5.37785
21
-5.46886
0
LINE
8
BLACK
6
CONTINUOUS
10
5.37785
20
-5.46886
11
5.3774
21
-5.4697
0
LINE
8
BLACK
6
CONTINUOUS
10
5.3774
20
-5.4697
11
5.37492
21
-5.47434
0
LINE
8
BLACK
6
CONTINUOUS
10
5.37492
20
-5.47434
11
5.37197
21
-5.47794
0
LINE
8
BLACK
6
CONTINUOUS
10
5.37197
20
-5.47794
11
5.33915
21
-5.51075
0
LINE
8
BLACK
6
CONTINUOUS
10
5.33915
20
-5.51075
11
5.33555
21
-5.5137
0
LINE
8
BLACK
6
CONTINUOUS
10
5.33555
20
-5.5137
11
5.33284
21
-5.51516
0
LINE
8
BLACK
6
CONTINUOUS
10
5.33284
20
-5.51516
11
5.33008
21
-5.51663
0
LINE
8
BLACK
6
CONTINUOUS
10
5.33008
20
-5.51663
11
5.3271
21
-5.51753
0
LINE
8
BLACK
6
CONTINUOUS
10
5.3271
20
-5.51753
11
5.32413
21
-5.51844
0
LINE
8
BLACK
6
CONTINUOUS
10
5.32413
20
-5.51844
11
5.31795
21
-5.51904
0
LINE
8
BLACK
6
CONTINUOUS
10
5.31795
20
-5.51904
11
5.31177
21
-5.51844
0
LINE
8
BLACK
6
CONTINUOUS
10
5.31177
20
-5.51844
11
5.3088
21
-5.51753
0
LINE
8
BLACK
6
CONTINUOUS
10
5.3088
20
-5.51753
11
5.30582
21
-5.51663
0
LINE
8
BLACK
6
CONTINUOUS
10
5.30582
20
-5.51663
11
5.30306
21
-5.51516
0
LINE
8
BLACK
6
CONTINUOUS
10
5.30306
20
-5.51516
11
5.30034
21
-5.5137
0
LINE
8
BLACK
6
CONTINUOUS
10
5.30034
20
-5.5137
11
5.29864
21
-5.51231
0
LINE
8
BLACK
6
CONTINUOUS
10
5.29864
20
-5.51231
11
5.29554
21
-5.50976
0
LINE
8
BLACK
6
CONTINUOUS
10
5.29554
20
-5.50976
11
5.293
21
-5.50666
0
LINE
8
BLACK
6
CONTINUOUS
10
5.293
20
-5.50666
11
5.2916
21
-5.50496
0
LINE
8
BLACK
6
CONTINUOUS
10
5.2916
20
-5.50496
11
5.28928
21
-5.50062
0
LINE
8
BLACK
6
CONTINUOUS
10
5.28928
20
-5.50062
11
5.28867
21
-5.49948
0
LINE
8
BLACK
6
CONTINUOUS
10
5.28867
20
-5.49948
11
5.28777
21
-5.49651
0
LINE
8
BLACK
6
CONTINUOUS
10
5.28777
20
-5.49651
11
5.28687
21
-5.49354
0
LINE
8
BLACK
6
CONTINUOUS
10
5.28687
20
-5.49354
11
5.28626
21
-5.48736
0
LINE
8
BLACK
6
CONTINUOUS
10
5.28626
20
-5.48736
11
5.28687
21
-5.48117
0
LINE
8
BLACK
6
CONTINUOUS
10
5.28687
20
-5.48117
11
5.28785
21
-5.47794
0
LINE
8
BLACK
6
CONTINUOUS
10
5.28785
20
-5.47794
11
5.28867
21
-5.47523
0
LINE
8
BLACK
6
CONTINUOUS
10
5.28867
20
-5.47523
11
5.2904
21
-5.472
0
LINE
8
BLACK
6
CONTINUOUS
10
5.2904
20
-5.472
11
5.2916
21
-5.46975
0
LINE
8
BLACK
6
CONTINUOUS
10
5.2916
20
-5.46975
11
5.29456
21
-5.46615
0
LINE
8
BLACK
6
CONTINUOUS
10
5.29456
20
-5.46615
11
5.32737
21
-5.43334
0
LINE
8
BLACK
6
CONTINUOUS
10
5.32737
20
-5.43334
11
5.33097
21
-5.43039
0
LINE
8
BLACK
6
CONTINUOUS
10
5.33097
20
-5.43039
11
5.33371
21
-5.42892
0
LINE
8
BLACK
6
CONTINUOUS
10
5.33371
20
-5.42892
11
5.33645
21
-5.42746
0
LINE
8
BLACK
6
CONTINUOUS
10
5.33645
20
-5.42746
11
5.34239
21
-5.42565
0
LINE
8
BLACK
6
CONTINUOUS
10
5.34239
20
-5.42565
11
5.34857
21
-5.42505
0
LINE
8
BLACK
6
CONTINUOUS
10
5.34857
20
-5.42505
11
5.35475
21
-5.42565
0
LINE
8
BLACK
6
CONTINUOUS
10
6.17846
20
-5.44002
11
6.17996
21
-5.44041
0
LINE
8
BLACK
6
CONTINUOUS
10
6.17996
20
-5.44041
11
6.18136
21
-5.44108
0
LINE
8
BLACK
6
CONTINUOUS
10
6.18136
20
-5.44108
11
6.1826
21
-5.44201
0
LINE
8
BLACK
6
CONTINUOUS
10
6.1826
20
-5.44201
11
6.18363
21
-5.44316
0
LINE
8
BLACK
6
CONTINUOUS
10
6.18363
20
-5.44316
11
6.18455
21
-5.44471
0
LINE
8
BLACK
6
CONTINUOUS
10
6.18455
20
-5.44471
11
6.18562
21
-5.44701
0
LINE
8
BLACK
6
CONTINUOUS
10
6.18562
20
-5.44701
11
6.18562
21
-5.44701
0
LINE
8
BLACK
6
CONTINUOUS
10
6.18562
20
-5.44701
11
6.19739
21
-5.47226
0
LINE
8
BLACK
6
CONTINUOUS
10
6.19739
20
-5.47226
11
6.19847
21
-5.47456
0
LINE
8
BLACK
6
CONTINUOUS
10
6.19847
20
-5.47456
11
6.19906
21
-5.47625
0
LINE
8
BLACK
6
CONTINUOUS
10
6.19906
20
-5.47625
11
6.19928
21
-5.47779
0
LINE
8
BLACK
6
CONTINUOUS
10
6.19928
20
-5.47779
11
6.1992
21
-5.47934
0
LINE
8
BLACK
6
CONTINUOUS
10
6.1992
20
-5.47934
11
6.19881
21
-5.48084
0
LINE
8
BLACK
6
CONTINUOUS
10
6.19881
20
-5.48084
11
6.19814
21
-5.48224
0
LINE
8
BLACK
6
CONTINUOUS
10
6.19814
20
-5.48224
11
6.19721
21
-5.48348
0
LINE
8
BLACK
6
CONTINUOUS
10
6.19721
20
-5.48348
11
6.19606
21
-5.48451
0
LINE
8
BLACK
6
CONTINUOUS
10
6.19606
20
-5.48451
11
6.19451
21
-5.48542
0
LINE
8
BLACK
6
CONTINUOUS
10
6.19451
20
-5.48542
11
6.19221
21
-5.4865
0
LINE
8
BLACK
6
CONTINUOUS
10
6.19221
20
-5.4865
11
6.19221
21
-5.4865
0
LINE
8
BLACK
6
CONTINUOUS
10
6.19221
20
-5.4865
11
6.15804
21
-5.50243
0
LINE
8
BLACK
6
CONTINUOUS
10
6.15804
20
-5.50243
11
6.15804
21
-5.50243
0
LINE
8
BLACK
6
CONTINUOUS
10
6.15804
20
-5.50243
11
6.15574
21
-5.50351
0
LINE
8
BLACK
6
CONTINUOUS
10
6.15574
20
-5.50351
11
6.15405
21
-5.5041
0
LINE
8
BLACK
6
CONTINUOUS
10
6.15405
20
-5.5041
11
6.15251
21
-5.50432
0
LINE
8
BLACK
6
CONTINUOUS
10
6.15251
20
-5.50432
11
6.15096
21
-5.50424
0
LINE
8
BLACK
6
CONTINUOUS
10
6.15096
20
-5.50424
11
6.14946
21
-5.50385
0
LINE
8
BLACK
6
CONTINUOUS
10
6.14946
20
-5.50385
11
6.14806
21
-5.50318
0
LINE
8
BLACK
6
CONTINUOUS
10
6.14806
20
-5.50318
11
6.14682
21
-5.50225
0
LINE
8
BLACK
6
CONTINUOUS
10
6.14682
20
-5.50225
11
6.14579
21
-5.50109
0
LINE
8
BLACK
6
CONTINUOUS
10
6.14579
20
-5.50109
11
6.14487
21
-5.49955
0
LINE
8
BLACK
6
CONTINUOUS
10
6.14487
20
-5.49955
11
6.1438
21
-5.49725
0
LINE
8
BLACK
6
CONTINUOUS
10
6.1438
20
-5.49725
11
6.1438
21
-5.49725
0
LINE
8
BLACK
6
CONTINUOUS
10
6.1438
20
-5.49725
11
6.13203
21
-5.472
0
LINE
8
BLACK
6
CONTINUOUS
10
6.13203
20
-5.472
11
6.13203
21
-5.472
0
LINE
8
BLACK
6
CONTINUOUS
10
6.13203
20
-5.472
11
6.13095
21
-5.4697
0
LINE
8
BLACK
6
CONTINUOUS
10
6.13095
20
-5.4697
11
6.13036
21
-5.46801
0
LINE
8
BLACK
6
CONTINUOUS
10
6.13036
20
-5.46801
11
6.13014
21
-5.46647
0
LINE
8
BLACK
6
CONTINUOUS
10
6.13014
20
-5.46647
11
6.13022
21
-5.46492
0
LINE
8
BLACK
6
CONTINUOUS
10
6.13022
20
-5.46492
11
6.13061
21
-5.46342
0
LINE
8
BLACK
6
CONTINUOUS
10
6.13061
20
-5.46342
11
6.13128
21
-5.46202
0
LINE
8
BLACK
6
CONTINUOUS
10
6.13128
20
-5.46202
11
6.13221
21
-5.46078
0
LINE
8
BLACK
6
CONTINUOUS
10
6.13221
20
-5.46078
11
6.13336
21
-5.45975
0
LINE
8
BLACK
6
CONTINUOUS
10
6.13336
20
-5.45975
11
6.13491
21
-5.45883
0
LINE
8
BLACK
6
CONTINUOUS
10
6.13491
20
-5.45883
11
6.13721
21
-5.45776
0
LINE
8
BLACK
6
CONTINUOUS
10
6.13721
20
-5.45776
11
6.13721
21
-5.45776
0
LINE
8
BLACK
6
CONTINUOUS
10
6.13721
20
-5.45776
11
6.17138
21
-5.44183
0
LINE
8
BLACK
6
CONTINUOUS
10
6.17138
20
-5.44183
11
6.17138
21
-5.44183
0
LINE
8
BLACK
6
CONTINUOUS
10
6.17138
20
-5.44183
11
6.17368
21
-5.44075
0
LINE
8
BLACK
6
CONTINUOUS
10
6.17368
20
-5.44075
11
6.17537
21
-5.44016
0
LINE
8
BLACK
6
CONTINUOUS
10
6.17537
20
-5.44016
11
6.17691
21
-5.43994
0
LINE
8
BLACK
6
CONTINUOUS
10
6.17691
20
-5.43994
11
6.17846
21
-5.44002
0
LINE
8
BLACK
6
CONTINUOUS
10
5.73713
20
-5.41893
11
5.73713
21
-5.41893
0
LINE
8
BLACK
6
CONTINUOUS
10
5.73713
20
-5.41893
11
5.71854
21
-5.47002
0
LINE
8
BLACK
6
CONTINUOUS
10
5.71854
20
-5.47002
11
5.71556
21
-5.47819
0
LINE
8
BLACK
6
CONTINUOUS
10
5.71556
20
-5.47819
11
5.67479
21
-5.46336
0
LINE
8
BLACK
6
CONTINUOUS
10
5.67479
20
-5.46336
11
5.67495
21
-5.46292
0
LINE
8
BLACK
6
CONTINUOUS
10
5.67495
20
-5.46292
11
5.69636
21
-5.40409
0
LINE
8
BLACK
6
CONTINUOUS
10
5.69636
20
-5.40409
11
5.73713
21
-5.41893
0
LINE
8
BLACK
6
CONTINUOUS
10
5.92029
20
-5.31068
11
5.92447
21
-5.31151
0
LINE
8
BLACK
6
CONTINUOUS
10
5.92447
20
-5.31151
11
5.9363
21
-5.31641
0
LINE
8
BLACK
6
CONTINUOUS
10
5.9363
20
-5.31641
11
5.94695
21
-5.32353
0
LINE
8
BLACK
6
CONTINUOUS
10
5.94695
20
-5.32353
11
5.956
21
-5.33258
0
LINE
8
BLACK
6
CONTINUOUS
10
5.956
20
-5.33258
11
5.963
21
-5.34305
0
LINE
8
BLACK
6
CONTINUOUS
10
5.963
20
-5.34305
11
5.96311
21
-5.34323
0
LINE
8
BLACK
6
CONTINUOUS
10
5.96311
20
-5.34323
11
5.96455
21
-5.34669
0
LINE
8
BLACK
6
CONTINUOUS
10
5.96455
20
-5.34669
11
5.96755
21
-5.35394
0
LINE
8
BLACK
6
CONTINUOUS
10
5.96755
20
-5.35394
11
5.96801
21
-5.35506
0
LINE
8
BLACK
6
CONTINUOUS
10
5.96801
20
-5.35506
11
5.97051
21
-5.36761
0
LINE
8
BLACK
6
CONTINUOUS
10
5.97051
20
-5.36761
11
5.97051
21
-5.38042
0
LINE
8
BLACK
6
CONTINUOUS
10
5.97051
20
-5.38042
11
5.97008
21
-5.3826
0
LINE
8
BLACK
6
CONTINUOUS
10
5.97008
20
-5.3826
11
5.96801
21
-5.39298
0
LINE
8
BLACK
6
CONTINUOUS
10
5.96801
20
-5.39298
11
5.96311
21
-5.4048
0
LINE
8
BLACK
6
CONTINUOUS
10
5.96311
20
-5.4048
11
5.956
21
-5.41545
0
LINE
8
BLACK
6
CONTINUOUS
10
5.956
20
-5.41545
11
5.94695
21
-5.4245
0
LINE
8
BLACK
6
CONTINUOUS
10
5.94695
20
-5.4245
11
5.9363
21
-5.43162
0
LINE
8
BLACK
6
CONTINUOUS
10
5.9363
20
-5.43162
11
5.92447
21
-5.43652
0
LINE
8
BLACK
6
CONTINUOUS
10
5.92447
20
-5.43652
11
5.92029
21
-5.43735
0
LINE
8
BLACK
6
CONTINUOUS
10
5.92029
20
-5.43735
11
5.91191
21
-5.43902
0
LINE
8
BLACK
6
CONTINUOUS
10
5.91191
20
-5.43902
11
5.89911
21
-5.43902
0
LINE
8
BLACK
6
CONTINUOUS
10
5.89911
20
-5.43902
11
5.89074
21
-5.43735
0
LINE
8
BLACK
6
CONTINUOUS
10
5.89074
20
-5.43735
11
5.88655
21
-5.43652
0
LINE
8
BLACK
6
CONTINUOUS
10
5.88655
20
-5.43652
11
5.87472
21
-5.43162
0
LINE
8
BLACK
6
CONTINUOUS
10
5.87472
20
-5.43162
11
5.86408
21
-5.4245
0
LINE
8
BLACK
6
CONTINUOUS
10
5.86408
20
-5.4245
11
5.85502
21
-5.41545
0
LINE
8
BLACK
6
CONTINUOUS
10
5.85502
20
-5.41545
11
5.84791
21
-5.4048
0
LINE
8
BLACK
6
CONTINUOUS
10
5.84791
20
-5.4048
11
5.84301
21
-5.39298
0
LINE
8
BLACK
6
CONTINUOUS
10
5.84301
20
-5.39298
11
5.84095
21
-5.3826
0
LINE
8
BLACK
6
CONTINUOUS
10
5.84095
20
-5.3826
11
5.84051
21
-5.38042
0
LINE
8
BLACK
6
CONTINUOUS
10
5.84051
20
-5.38042
11
5.84051
21
-5.36761
0
LINE
8
BLACK
6
CONTINUOUS
10
5.84051
20
-5.36761
11
5.84301
21
-5.35506
0
LINE
8
BLACK
6
CONTINUOUS
10
5.84301
20
-5.35506
11
5.84347
21
-5.35394
0
LINE
8
BLACK
6
CONTINUOUS
10
5.84347
20
-5.35394
11
5.84647
21
-5.34669
0
LINE
8
BLACK
6
CONTINUOUS
10
5.84647
20
-5.34669
11
5.84791
21
-5.34323
0
LINE
8
BLACK
6
CONTINUOUS
10
5.84791
20
-5.34323
11
5.84803
21
-5.34305
0
LINE
8
BLACK
6
CONTINUOUS
10
5.84803
20
-5.34305
11
5.85502
21
-5.33258
0
LINE
8
BLACK
6
CONTINUOUS
10
5.85502
20
-5.33258
11
5.86408
21
-5.32353
0
LINE
8
BLACK
6
CONTINUOUS
10
5.86408
20
-5.32353
11
5.87472
21
-5.31641
0
LINE
8
BLACK
6
CONTINUOUS
10
5.87472
20
-5.31641
11
5.88655
21
-5.31151
0
LINE
8
BLACK
6
CONTINUOUS
10
5.88655
20
-5.31151
11
5.89074
21
-5.31068
0
LINE
8
BLACK
6
CONTINUOUS
10
5.89074
20
-5.31068
11
5.89911
21
-5.30902
0
LINE
8
BLACK
6
CONTINUOUS
10
5.89911
20
-5.30902
11
5.91191
21
-5.30902
0
LINE
8
BLACK
6
CONTINUOUS
10
5.91191
20
-5.30902
11
5.92029
21
-5.31068
0
LINE
8
BLACK
6
CONTINUOUS
10
5.61875
20
-5.37584
11
5.61875
21
-5.37584
0
LINE
8
BLACK
6
CONTINUOUS
10
5.61875
20
-5.37584
11
5.59718
21
-5.43511
0
LINE
8
BLACK
6
CONTINUOUS
10
5.59718
20
-5.43511
11
5.55641
21
-5.42027
0
LINE
8
BLACK
6
CONTINUOUS
10
5.55641
20
-5.42027
11
5.55689
21
-5.41893
0
LINE
8
BLACK
6
CONTINUOUS
10
5.55689
20
-5.41893
11
5.57798
21
-5.361
0
LINE
8
BLACK
6
CONTINUOUS
10
5.57798
20
-5.361
11
5.61875
21
-5.37584
0
LINE
8
BLACK
6
CONTINUOUS
10
6.37955
20
-5.33657
11
6.38252
21
-5.33747
0
LINE
8
BLACK
6
CONTINUOUS
10
6.38252
20
-5.33747
11
6.38549
21
-5.33837
0
LINE
8
BLACK
6
CONTINUOUS
10
6.38549
20
-5.33837
11
6.3874
21
-5.33939
0
LINE
8
BLACK
6
CONTINUOUS
10
6.3874
20
-5.33939
11
6.39097
21
-5.3413
0
LINE
8
BLACK
6
CONTINUOUS
10
6.39097
20
-5.3413
11
6.39457
21
-5.34426
0
LINE
8
BLACK
6
CONTINUOUS
10
6.39457
20
-5.34426
11
6.42738
21
-5.37707
0
LINE
8
BLACK
6
CONTINUOUS
10
6.42738
20
-5.37707
11
6.43034
21
-5.38067
0
LINE
8
BLACK
6
CONTINUOUS
10
6.43034
20
-5.38067
11
6.43137
21
-5.3826
0
LINE
8
BLACK
6
CONTINUOUS
10
6.43137
20
-5.3826
11
6.43327
21
-5.38615
0
LINE
8
BLACK
6
CONTINUOUS
10
6.43327
20
-5.38615
11
6.43507
21
-5.39209
0
LINE
8
BLACK
6
CONTINUOUS
10
6.43507
20
-5.39209
11
6.43568
21
-5.39827
0
LINE
8
BLACK
6
CONTINUOUS
10
6.43568
20
-5.39827
11
6.43507
21
-5.40445
0
LINE
8
BLACK
6
CONTINUOUS
10
6.43507
20
-5.40445
11
6.43327
21
-5.4104
0
LINE
8
BLACK
6
CONTINUOUS
10
6.43327
20
-5.4104
11
6.43327
21
-5.4104
0
LINE
8
BLACK
6
CONTINUOUS
10
6.43327
20
-5.4104
11
6.43034
21
-5.41588
0
LINE
8
BLACK
6
CONTINUOUS
10
6.43034
20
-5.41588
11
6.42894
21
-5.41758
0
LINE
8
BLACK
6
CONTINUOUS
10
6.42894
20
-5.41758
11
6.4264
21
-5.42068
0
LINE
8
BLACK
6
CONTINUOUS
10
6.4264
20
-5.42068
11
6.4233
21
-5.42322
0
LINE
8
BLACK
6
CONTINUOUS
10
6.4233
20
-5.42322
11
6.42159
21
-5.42462
0
LINE
8
BLACK
6
CONTINUOUS
10
6.42159
20
-5.42462
11
6.41786
21
-5.42662
0
LINE
8
BLACK
6
CONTINUOUS
10
6.41786
20
-5.42662
11
6.41612
21
-5.42755
0
LINE
8
BLACK
6
CONTINUOUS
10
6.41612
20
-5.42755
11
6.41017
21
-5.42935
0
LINE
8
BLACK
6
CONTINUOUS
10
6.41017
20
-5.42935
11
6.40399
21
-5.42996
0
LINE
8
BLACK
6
CONTINUOUS
10
6.40399
20
-5.42996
11
6.39781
21
-5.42935
0
LINE
8
BLACK
6
CONTINUOUS
10
6.39781
20
-5.42935
11
6.39186
21
-5.42755
0
LINE
8
BLACK
6
CONTINUOUS
10
6.39186
20
-5.42755
11
6.38912
21
-5.42608
0
LINE
8
BLACK
6
CONTINUOUS
10
6.38912
20
-5.42608
11
6.38638
21
-5.42462
0
LINE
8
BLACK
6
CONTINUOUS
10
6.38638
20
-5.42462
11
6.38279
21
-5.42167
0
LINE
8
BLACK
6
CONTINUOUS
10
6.38279
20
-5.42167
11
6.34997
21
-5.38885
0
LINE
8
BLACK
6
CONTINUOUS
10
6.34997
20
-5.38885
11
6.34702
21
-5.38525
0
LINE
8
BLACK
6
CONTINUOUS
10
6.34702
20
-5.38525
11
6.34511
21
-5.38168
0
LINE
8
BLACK
6
CONTINUOUS
10
6.34511
20
-5.38168
11
6.34409
21
-5.37978
0
LINE
8
BLACK
6
CONTINUOUS
10
6.34409
20
-5.37978
11
6.34319
21
-5.3768
0
LINE
8
BLACK
6
CONTINUOUS
10
6.34319
20
-5.3768
11
6.34229
21
-5.37383
0
LINE
8
BLACK
6
CONTINUOUS
10
6.34229
20
-5.37383
11
6.34168
21
-5.36765
0
LINE
8
BLACK
6
CONTINUOUS
10
6.34168
20
-5.36765
11
6.34229
21
-5.36147
0
LINE
8
BLACK
6
CONTINUOUS
10
6.34229
20
-5.36147
11
6.34409
21
-5.35552
0
LINE
8
BLACK
6
CONTINUOUS
10
6.34409
20
-5.35552
11
6.34409
21
-5.35552
0
LINE
8
BLACK
6
CONTINUOUS
10
6.34409
20
-5.35552
11
6.34511
21
-5.35361
0
LINE
8
BLACK
6
CONTINUOUS
10
6.34511
20
-5.35361
11
6.34702
21
-5.35004
0
LINE
8
BLACK
6
CONTINUOUS
10
6.34702
20
-5.35004
11
6.34842
21
-5.34834
0
LINE
8
BLACK
6
CONTINUOUS
10
6.34842
20
-5.34834
11
6.35096
21
-5.34524
0
LINE
8
BLACK
6
CONTINUOUS
10
6.35096
20
-5.34524
11
6.35406
21
-5.3427
0
LINE
8
BLACK
6
CONTINUOUS
10
6.35406
20
-5.3427
11
6.35576
21
-5.3413
0
LINE
8
BLACK
6
CONTINUOUS
10
6.35576
20
-5.3413
11
6.35933
21
-5.33939
0
LINE
8
BLACK
6
CONTINUOUS
10
6.35933
20
-5.33939
11
6.36124
21
-5.33837
0
LINE
8
BLACK
6
CONTINUOUS
10
6.36124
20
-5.33837
11
6.36421
21
-5.33747
0
LINE
8
BLACK
6
CONTINUOUS
10
6.36421
20
-5.33747
11
6.36719
21
-5.33657
0
LINE
8
BLACK
6
CONTINUOUS
10
6.36719
20
-5.33657
11
6.37337
21
-5.33596
0
LINE
8
BLACK
6
CONTINUOUS
10
6.37337
20
-5.33596
11
6.37955
21
-5.33657
0
LINE
8
BLACK
6
CONTINUOUS
10
5.27598
20
-5.32886
11
5.28279
21
-5.33169
0
LINE
8
BLACK
6
CONTINUOUS
10
5.28279
20
-5.33169
11
5.28413
21
-5.33258
0
LINE
8
BLACK
6
CONTINUOUS
10
5.28413
20
-5.33258
11
5.28892
21
-5.33578
0
LINE
8
BLACK
6
CONTINUOUS
10
5.28892
20
-5.33578
11
5.29414
21
-5.341
0
LINE
8
BLACK
6
CONTINUOUS
10
5.29414
20
-5.341
11
5.29551
21
-5.34305
0
LINE
8
BLACK
6
CONTINUOUS
10
5.29551
20
-5.34305
11
5.29824
21
-5.34713
0
LINE
8
BLACK
6
CONTINUOUS
10
5.29824
20
-5.34713
11
5.30106
21
-5.35394
0
LINE
8
BLACK
6
CONTINUOUS
10
5.30106
20
-5.35394
11
5.3025
21
-5.36118
0
LINE
8
BLACK
6
CONTINUOUS
10
5.3025
20
-5.36118
11
5.3025
21
-5.36855
0
LINE
8
BLACK
6
CONTINUOUS
10
5.3025
20
-5.36855
11
5.30106
21
-5.37579
0
LINE
8
BLACK
6
CONTINUOUS
10
5.30106
20
-5.37579
11
5.29824
21
-5.3826
0
LINE
8
BLACK
6
CONTINUOUS
10
5.29824
20
-5.3826
11
5.29824
21
-5.3826
0
LINE
8
BLACK
6
CONTINUOUS
10
5.29824
20
-5.3826
11
5.29414
21
-5.38873
0
LINE
8
BLACK
6
CONTINUOUS
10
5.29414
20
-5.38873
11
5.28892
21
-5.39395
0
LINE
8
BLACK
6
CONTINUOUS
10
5.28892
20
-5.39395
11
5.28584
21
-5.39601
0
LINE
8
BLACK
6
CONTINUOUS
10
5.28584
20
-5.39601
11
5.28279
21
-5.39805
0
LINE
8
BLACK
6
CONTINUOUS
10
5.28279
20
-5.39805
11
5.27598
21
-5.40087
0
LINE
8
BLACK
6
CONTINUOUS
10
5.27598
20
-5.40087
11
5.26874
21
-5.40231
0
LINE
8
BLACK
6
CONTINUOUS
10
5.26874
20
-5.40231
11
5.26137
21
-5.40231
0
LINE
8
BLACK
6
CONTINUOUS
10
5.26137
20
-5.40231
11
5.25413
21
-5.40087
0
LINE
8
BLACK
6
CONTINUOUS
10
5.25413
20
-5.40087
11
5.24732
21
-5.39805
0
LINE
8
BLACK
6
CONTINUOUS
10
5.24732
20
-5.39805
11
5.24428
21
-5.39601
0
LINE
8
BLACK
6
CONTINUOUS
10
5.24428
20
-5.39601
11
5.24119
21
-5.39395
0
LINE
8
BLACK
6
CONTINUOUS
10
5.24119
20
-5.39395
11
5.23597
21
-5.38873
0
LINE
8
BLACK
6
CONTINUOUS
10
5.23597
20
-5.38873
11
5.23188
21
-5.3826
0
LINE
8
BLACK
6
CONTINUOUS
10
5.23188
20
-5.3826
11
5.23188
21
-5.3826
0
LINE
8
BLACK
6
CONTINUOUS
10
5.23188
20
-5.3826
11
5.22905
21
-5.37579
0
LINE
8
BLACK
6
CONTINUOUS
10
5.22905
20
-5.37579
11
5.22761
21
-5.36855
0
LINE
8
BLACK
6
CONTINUOUS
10
5.22761
20
-5.36855
11
5.22761
21
-5.36118
0
LINE
8
BLACK
6
CONTINUOUS
10
5.22761
20
-5.36118
11
5.22905
21
-5.35394
0
LINE
8
BLACK
6
CONTINUOUS
10
5.22905
20
-5.35394
11
5.23188
21
-5.34713
0
LINE
8
BLACK
6
CONTINUOUS
10
5.23188
20
-5.34713
11
5.2346
21
-5.34305
0
LINE
8
BLACK
6
CONTINUOUS
10
5.2346
20
-5.34305
11
5.23597
21
-5.341
0
LINE
8
BLACK
6
CONTINUOUS
10
5.23597
20
-5.341
11
5.24119
21
-5.33578
0
LINE
8
BLACK
6
CONTINUOUS
10
5.24119
20
-5.33578
11
5.24598
21
-5.33258
0
LINE
8
BLACK
6
CONTINUOUS
10
5.24598
20
-5.33258
11
5.24732
21
-5.33169
0
LINE
8
BLACK
6
CONTINUOUS
10
5.24732
20
-5.33169
11
5.25413
21
-5.32886
0
LINE
8
BLACK
6
CONTINUOUS
10
5.25413
20
-5.32886
11
5.26137
21
-5.32742
0
LINE
8
BLACK
6
CONTINUOUS
10
5.26137
20
-5.32742
11
5.26874
21
-5.32742
0
LINE
8
BLACK
6
CONTINUOUS
10
5.26874
20
-5.32742
11
5.27598
21
-5.32886
0
LINE
8
BLACK
6
CONTINUOUS
10
6.55689
20
-5.32886
11
6.5637
21
-5.33169
0
LINE
8
BLACK
6
CONTINUOUS
10
6.5637
20
-5.33169
11
6.56504
21
-5.33258
0
LINE
8
BLACK
6
CONTINUOUS
10
6.56504
20
-5.33258
11
6.56984
21
-5.33578
0
LINE
8
BLACK
6
CONTINUOUS
10
6.56984
20
-5.33578
11
6.57505
21
-5.341
0
LINE
8
BLACK
6
CONTINUOUS
10
6.57505
20
-5.341
11
6.57642
21
-5.34305
0
LINE
8
BLACK
6
CONTINUOUS
10
6.57642
20
-5.34305
11
6.57915
21
-5.34713
0
LINE
8
BLACK
6
CONTINUOUS
10
6.57915
20
-5.34713
11
6.58197
21
-5.35394
0
LINE
8
BLACK
6
CONTINUOUS
10
6.58197
20
-5.35394
11
6.58341
21
-5.36118
0
LINE
8
BLACK
6
CONTINUOUS
10
6.58341
20
-5.36118
11
6.58341
21
-5.36855
0
LINE
8
BLACK
6
CONTINUOUS
10
6.58341
20
-5.36855
11
6.58197
21
-5.37579
0
LINE
8
BLACK
6
CONTINUOUS
10
6.58197
20
-5.37579
11
6.57915
21
-5.3826
0
LINE
8
BLACK
6
CONTINUOUS
10
6.57915
20
-5.3826
11
6.57915
21
-5.3826
0
LINE
8
BLACK
6
CONTINUOUS
10
6.57915
20
-5.3826
11
6.57505
21
-5.38873
0
LINE
8
BLACK
6
CONTINUOUS
10
6.57505
20
-5.38873
11
6.56984
21
-5.39395
0
LINE
8
BLACK
6
CONTINUOUS
10
6.56984
20
-5.39395
11
6.56675
21
-5.39601
0
LINE
8
BLACK
6
CONTINUOUS
10
6.56675
20
-5.39601
11
6.5637
21
-5.39805
0
LINE
8
BLACK
6
CONTINUOUS
10
6.5637
20
-5.39805
11
6.55689
21
-5.40087
0
LINE
8
BLACK
6
CONTINUOUS
10
6.55689
20
-5.40087
11
6.54966
21
-5.40231
0
LINE
8
BLACK
6
CONTINUOUS
10
6.54966
20
-5.40231
11
6.54228
21
-5.40231
0
LINE
8
BLACK
6
CONTINUOUS
10
6.54228
20
-5.40231
11
6.53505
21
-5.40087
0
LINE
8
BLACK
6
CONTINUOUS
10
6.53505
20
-5.40087
11
6.52823
21
-5.39805
0
LINE
8
BLACK
6
CONTINUOUS
10
6.52823
20
-5.39805
11
6.52519
21
-5.39601
0
LINE
8
BLACK
6
CONTINUOUS
10
6.52519
20
-5.39601
11
6.5221
21
-5.39395
0
LINE
8
BLACK
6
CONTINUOUS
10
6.5221
20
-5.39395
11
6.51689
21
-5.38873
0
LINE
8
BLACK
6
CONTINUOUS
10
6.51689
20
-5.38873
11
6.51279
21
-5.3826
0
LINE
8
BLACK
6
CONTINUOUS
10
6.51279
20
-5.3826
11
6.51279
21
-5.3826
0
LINE
8
BLACK
6
CONTINUOUS
10
6.51279
20
-5.3826
11
6.50997
21
-5.37579
0
LINE
8
BLACK
6
CONTINUOUS
10
6.50997
20
-5.37579
11
6.50853
21
-5.36855
0
LINE
8
BLACK
6
CONTINUOUS
10
6.50853
20
-5.36855
11
6.50853
21
-5.36118
0
LINE
8
BLACK
6
CONTINUOUS
10
6.50853
20
-5.36118
11
6.50997
21
-5.35394
0
LINE
8
BLACK
6
CONTINUOUS
10
6.50997
20
-5.35394
11
6.51279
21
-5.34713
0
LINE
8
BLACK
6
CONTINUOUS
10
6.51279
20
-5.34713
11
6.51551
21
-5.34305
0
LINE
8
BLACK
6
CONTINUOUS
10
6.51551
20
-5.34305
11
6.51689
21
-5.341
0
LINE
8
BLACK
6
CONTINUOUS
10
6.51689
20
-5.341
11
6.5221
21
-5.33578
0
LINE
8
BLACK
6
CONTINUOUS
10
6.5221
20
-5.33578
11
6.52689
21
-5.33258
0
LINE
8
BLACK
6
CONTINUOUS
10
6.52689
20
-5.33258
11
6.52823
21
-5.33169
0
LINE
8
BLACK
6
CONTINUOUS
10
6.52823
20
-5.33169
11
6.53505
21
-5.32886
0
LINE
8
BLACK
6
CONTINUOUS
10
6.53505
20
-5.32886
11
6.54228
21
-5.32742
0
LINE
8
BLACK
6
CONTINUOUS
10
6.54228
20
-5.32742
11
6.54966
21
-5.32742
0
LINE
8
BLACK
6
CONTINUOUS
10
6.54966
20
-5.32742
11
6.55689
21
-5.32886
0
LINE
8
BLACK
6
CONTINUOUS
10
5.17937
20
-5.25027
11
5.18531
21
-5.25207
0
LINE
8
BLACK
6
CONTINUOUS
10
5.18531
20
-5.25207
11
5.18632
21
-5.25261
0
LINE
8
BLACK
6
CONTINUOUS
10
5.18632
20
-5.25261
11
5.19079
21
-5.255
0
LINE
8
BLACK
6
CONTINUOUS
10
5.19079
20
-5.255
11
5.19249
21
-5.2564
0
LINE
8
BLACK
6
CONTINUOUS
10
5.19249
20
-5.2564
11
5.19559
21
-5.25894
0
LINE
8
BLACK
6
CONTINUOUS
10
5.19559
20
-5.25894
11
5.19701
21
-5.26067
0
LINE
8
BLACK
6
CONTINUOUS
10
5.19701
20
-5.26067
11
5.19954
21
-5.26374
0
LINE
8
BLACK
6
CONTINUOUS
10
5.19954
20
-5.26374
11
5.20066
21
-5.26584
0
LINE
8
BLACK
6
CONTINUOUS
10
5.20066
20
-5.26584
11
5.20246
21
-5.26922
0
LINE
8
BLACK
6
CONTINUOUS
10
5.20246
20
-5.26922
11
5.20427
21
-5.27517
0
LINE
8
BLACK
6
CONTINUOUS
10
5.20427
20
-5.27517
11
5.20488
21
-5.28135
0
LINE
8
BLACK
6
CONTINUOUS
10
5.20488
20
-5.28135
11
5.20427
21
-5.28753
0
LINE
8
BLACK
6
CONTINUOUS
10
5.20427
20
-5.28753
11
5.20246
21
-5.29348
0
LINE
8
BLACK
6
CONTINUOUS
10
5.20246
20
-5.29348
11
5.201
21
-5.29621
0
LINE
8
BLACK
6
CONTINUOUS
10
5.201
20
-5.29621
11
5.19954
21
-5.29895
0
LINE
8
BLACK
6
CONTINUOUS
10
5.19954
20
-5.29895
11
5.19658
21
-5.30255
0
LINE
8
BLACK
6
CONTINUOUS
10
5.19658
20
-5.30255
11
5.16377
21
-5.33537
0
LINE
8
BLACK
6
CONTINUOUS
10
5.16377
20
-5.33537
11
5.16017
21
-5.33832
0
LINE
8
BLACK
6
CONTINUOUS
10
5.16017
20
-5.33832
11
5.1566
21
-5.34023
0
LINE
8
BLACK
6
CONTINUOUS
10
5.1566
20
-5.34023
11
5.15469
21
-5.34125
0
LINE
8
BLACK
6
CONTINUOUS
10
5.15469
20
-5.34125
11
5.15172
21
-5.34215
0
LINE
8
BLACK
6
CONTINUOUS
10
5.15172
20
-5.34215
11
5.14875
21
-5.34305
0
LINE
8
BLACK
6
CONTINUOUS
10
5.14875
20
-5.34305
11
5.14256
21
-5.34366
0
LINE
8
BLACK
6
CONTINUOUS
10
5.14256
20
-5.34366
11
5.13638
21
-5.34305
0
LINE
8
BLACK
6
CONTINUOUS
10
5.13638
20
-5.34305
11
5.13341
21
-5.34215
0
LINE
8
BLACK
6
CONTINUOUS
10
5.13341
20
-5.34215
11
5.13044
21
-5.34125
0
LINE
8
BLACK
6
CONTINUOUS
10
5.13044
20
-5.34125
11
5.12853
21
-5.34023
0
LINE
8
BLACK
6
CONTINUOUS
10
5.12853
20
-5.34023
11
5.12496
21
-5.33832
0
LINE
8
BLACK
6
CONTINUOUS
10
5.12496
20
-5.33832
11
5.12326
21
-5.33692
0
LINE
8
BLACK
6
CONTINUOUS
10
5.12326
20
-5.33692
11
5.12016
21
-5.33438
0
LINE
8
BLACK
6
CONTINUOUS
10
5.12016
20
-5.33438
11
5.11761
21
-5.33128
0
LINE
8
BLACK
6
CONTINUOUS
10
5.11761
20
-5.33128
11
5.11622
21
-5.32958
0
LINE
8
BLACK
6
CONTINUOUS
10
5.11622
20
-5.32958
11
5.11336
21
-5.32423
0
LINE
8
BLACK
6
CONTINUOUS
10
5.11336
20
-5.32423
11
5.11329
21
-5.3241
0
LINE
8
BLACK
6
CONTINUOUS
10
5.11329
20
-5.3241
11
5.11239
21
-5.32113
0
LINE
8
BLACK
6
CONTINUOUS
10
5.11239
20
-5.32113
11
5.11149
21
-5.31815
0
LINE
8
BLACK
6
CONTINUOUS
10
5.11149
20
-5.31815
11
5.11088
21
-5.31197
0
LINE
8
BLACK
6
CONTINUOUS
10
5.11088
20
-5.31197
11
5.11149
21
-5.30579
0
LINE
8
BLACK
6
CONTINUOUS
10
5.11149
20
-5.30579
11
5.11247
21
-5.30255
0
LINE
8
BLACK
6
CONTINUOUS
10
5.11247
20
-5.30255
11
5.11329
21
-5.29985
0
LINE
8
BLACK
6
CONTINUOUS
10
5.11329
20
-5.29985
11
5.11606
21
-5.29465
0
LINE
8
BLACK
6
CONTINUOUS
10
5.11606
20
-5.29465
11
5.11622
21
-5.29437
0
LINE
8
BLACK
6
CONTINUOUS
10
5.11622
20
-5.29437
11
5.11917
21
-5.29077
0
LINE
8
BLACK
6
CONTINUOUS
10
5.11917
20
-5.29077
11
5.15198
21
-5.25795
0
LINE
8
BLACK
6
CONTINUOUS
10
5.15198
20
-5.25795
11
5.15558
21
-5.255
0
LINE
8
BLACK
6
CONTINUOUS
10
5.15558
20
-5.255
11
5.15832
21
-5.25354
0
LINE
8
BLACK
6
CONTINUOUS
10
5.15832
20
-5.25354
11
5.16106
21
-5.25207
0
LINE
8
BLACK
6
CONTINUOUS
10
5.16106
20
-5.25207
11
5.16701
21
-5.25027
0
LINE
8
BLACK
6
CONTINUOUS
10
5.16701
20
-5.25027
11
5.17319
21
-5.24966
0
LINE
8
BLACK
6
CONTINUOUS
10
5.17319
20
-5.24966
11
5.17937
21
-5.25027
0
LINE
8
BLACK
6
CONTINUOUS
10
6.64402
20
-5.25027
11
6.64699
21
-5.25117
0
LINE
8
BLACK
6
CONTINUOUS
10
6.64699
20
-5.25117
11
6.64996
21
-5.25207
0
LINE
8
BLACK
6
CONTINUOUS
10
6.64996
20
-5.25207
11
6.65187
21
-5.25309
0
LINE
8
BLACK
6
CONTINUOUS
10
6.65187
20
-5.25309
11
6.65544
21
-5.255
0
LINE
8
BLACK
6
CONTINUOUS
10
6.65544
20
-5.255
11
6.65904
21
-5.25795
0
LINE
8
BLACK
6
CONTINUOUS
10
6.65904
20
-5.25795
11
6.69185
21
-5.29077
0
LINE
8
BLACK
6
CONTINUOUS
10
6.69185
20
-5.29077
11
6.69481
21
-5.29437
0
LINE
8
BLACK
6
CONTINUOUS
10
6.69481
20
-5.29437
11
6.69496
21
-5.29465
0
LINE
8
BLACK
6
CONTINUOUS
10
6.69496
20
-5.29465
11
6.69773
21
-5.29985
0
LINE
8
BLACK
6
CONTINUOUS
10
6.69773
20
-5.29985
11
6.69954
21
-5.30579
0
LINE
8
BLACK
6
CONTINUOUS
10
6.69954
20
-5.30579
11
6.70015
21
-5.31197
0
LINE
8
BLACK
6
CONTINUOUS
10
6.70015
20
-5.31197
11
6.69954
21
-5.31815
0
LINE
8
BLACK
6
CONTINUOUS
10
6.69954
20
-5.31815
11
6.69773
21
-5.3241
0
LINE
8
BLACK
6
CONTINUOUS
10
6.69773
20
-5.3241
11
6.69773
21
-5.3241
0
LINE
8
BLACK
6
CONTINUOUS
10
6.69773
20
-5.3241
11
6.69481
21
-5.32958
0
LINE
8
BLACK
6
CONTINUOUS
10
6.69481
20
-5.32958
11
6.69341
21
-5.33128
0
LINE
8
BLACK
6
CONTINUOUS
10
6.69341
20
-5.33128
11
6.69087
21
-5.33438
0
LINE
8
BLACK
6
CONTINUOUS
10
6.69087
20
-5.33438
11
6.68777
21
-5.33692
0
LINE
8
BLACK
6
CONTINUOUS
10
6.68777
20
-5.33692
11
6.68606
21
-5.33832
0
LINE
8
BLACK
6
CONTINUOUS
10
6.68606
20
-5.33832
11
6.68233
21
-5.34032
0
LINE
8
BLACK
6
CONTINUOUS
10
6.68233
20
-5.34032
11
6.68059
21
-5.34125
0
LINE
8
BLACK
6
CONTINUOUS
10
6.68059
20
-5.34125
11
6.67464
21
-5.34305
0
LINE
8
BLACK
6
CONTINUOUS
10
6.67464
20
-5.34305
11
6.66846
21
-5.34366
0
LINE
8
BLACK
6
CONTINUOUS
10
6.66846
20
-5.34366
11
6.66228
21
-5.34305
0
LINE
8
BLACK
6
CONTINUOUS
10
6.66228
20
-5.34305
11
6.65633
21
-5.34125
0
LINE
8
BLACK
6
CONTINUOUS
10
6.65633
20
-5.34125
11
6.65359
21
-5.33978
0
LINE
8
BLACK
6
CONTINUOUS
10
6.65359
20
-5.33978
11
6.65085
21
-5.33832
0
LINE
8
BLACK
6
CONTINUOUS
10
6.65085
20
-5.33832
11
6.64726
21
-5.33537
0
LINE
8
BLACK
6
CONTINUOUS
10
6.64726
20
-5.33537
11
6.61444
21
-5.30255
0
LINE
8
BLACK
6
CONTINUOUS
10
6.61444
20
-5.30255
11
6.61149
21
-5.29895
0
LINE
8
BLACK
6
CONTINUOUS
10
6.61149
20
-5.29895
11
6.60919
21
-5.29465
0
LINE
8
BLACK
6
CONTINUOUS
10
6.60919
20
-5.29465
11
6.60856
21
-5.29348
0
LINE
8
BLACK
6
CONTINUOUS
10
6.60856
20
-5.29348
11
6.60766
21
-5.2905
0
LINE
8
BLACK
6
CONTINUOUS
10
6.60766
20
-5.2905
11
6.60676
21
-5.28753
0
LINE
8
BLACK
6
CONTINUOUS
10
6.60676
20
-5.28753
11
6.60615
21
-5.28135
0
LINE
8
BLACK
6
CONTINUOUS
10
6.60615
20
-5.28135
11
6.60676
21
-5.27517
0
LINE
8
BLACK
6
CONTINUOUS
10
6.60676
20
-5.27517
11
6.60856
21
-5.26922
0
LINE
8
BLACK
6
CONTINUOUS
10
6.60856
20
-5.26922
11
6.60856
21
-5.26922
0
LINE
8
BLACK
6
CONTINUOUS
10
6.60856
20
-5.26922
11
6.61033
21
-5.26591
0
LINE
8
BLACK
6
CONTINUOUS
10
6.61033
20
-5.26591
11
6.61149
21
-5.26374
0
LINE
8
BLACK
6
CONTINUOUS
10
6.61149
20
-5.26374
11
6.61401
21
-5.26067
0
LINE
8
BLACK
6
CONTINUOUS
10
6.61401
20
-5.26067
11
6.61543
21
-5.25894
0
LINE
8
BLACK
6
CONTINUOUS
10
6.61543
20
-5.25894
11
6.61853
21
-5.2564
0
LINE
8
BLACK
6
CONTINUOUS
10
6.61853
20
-5.2564
11
6.62023
21
-5.255
0
LINE
8
BLACK
6
CONTINUOUS
10
6.62023
20
-5.255
11
6.6238
21
-5.25309
0
LINE
8
BLACK
6
CONTINUOUS
10
6.6238
20
-5.25309
11
6.62571
21
-5.25207
0
LINE
8
BLACK
6
CONTINUOUS
10
6.62571
20
-5.25207
11
6.62868
21
-5.25117
0
LINE
8
BLACK
6
CONTINUOUS
10
6.62868
20
-5.25117
11
6.63165
21
-5.25027
0
LINE
8
BLACK
6
CONTINUOUS
10
6.63165
20
-5.25027
11
6.63784
21
-5.24966
0
LINE
8
BLACK
6
CONTINUOUS
10
6.63784
20
-5.24966
11
6.64402
21
-5.25027
0
LINE
8
BLACK
6
CONTINUOUS
10
6.28211
20
-5.23913
11
6.28331
21
-5.2395
0
LINE
8
BLACK
6
CONTINUOUS
10
6.28331
20
-5.2395
11
6.28806
21
-5.24094
0
LINE
8
BLACK
6
CONTINUOUS
10
6.28806
20
-5.24094
11
6.28984
21
-5.24189
0
LINE
8
BLACK
6
CONTINUOUS
10
6.28984
20
-5.24189
11
6.29354
21
-5.24387
0
LINE
8
BLACK
6
CONTINUOUS
10
6.29354
20
-5.24387
11
6.29713
21
-5.24682
0
LINE
8
BLACK
6
CONTINUOUS
10
6.29713
20
-5.24682
11
6.32995
21
-5.27963
0
LINE
8
BLACK
6
CONTINUOUS
10
6.32995
20
-5.27963
11
6.3329
21
-5.28323
0
LINE
8
BLACK
6
CONTINUOUS
10
6.3329
20
-5.28323
11
6.33437
21
-5.28597
0
LINE
8
BLACK
6
CONTINUOUS
10
6.33437
20
-5.28597
11
6.33583
21
-5.28871
0
LINE
8
BLACK
6
CONTINUOUS
10
6.33583
20
-5.28871
11
6.33763
21
-5.29465
0
LINE
8
BLACK
6
CONTINUOUS
10
6.33763
20
-5.29465
11
6.33824
21
-5.30084
0
LINE
8
BLACK
6
CONTINUOUS
10
6.33824
20
-5.30084
11
6.33763
21
-5.30702
0
LINE
8
BLACK
6
CONTINUOUS
10
6.33763
20
-5.30702
11
6.33583
21
-5.31296
0
LINE
8
BLACK
6
CONTINUOUS
10
6.33583
20
-5.31296
11
6.33583
21
-5.31296
0
LINE
8
BLACK
6
CONTINUOUS
10
6.33583
20
-5.31296
11
6.3329
21
-5.31844
0
LINE
8
BLACK
6
CONTINUOUS
10
6.3329
20
-5.31844
11
6.3315
21
-5.32014
0
LINE
8
BLACK
6
CONTINUOUS
10
6.3315
20
-5.32014
11
6.32896
21
-5.32324
0
LINE
8
BLACK
6
CONTINUOUS
10
6.32896
20
-5.32324
11
6.32586
21
-5.32579
0
LINE
8
BLACK
6
CONTINUOUS
10
6.32586
20
-5.32579
11
6.32416
21
-5.32718
0
LINE
8
BLACK
6
CONTINUOUS
10
6.32416
20
-5.32718
11
6.32102
21
-5.32886
0
LINE
8
BLACK
6
CONTINUOUS
10
6.32102
20
-5.32886
11
6.31868
21
-5.33011
0
LINE
8
BLACK
6
CONTINUOUS
10
6.31868
20
-5.33011
11
6.31349
21
-5.33169
0
LINE
8
BLACK
6
CONTINUOUS
10
6.31349
20
-5.33169
11
6.31274
21
-5.33192
0
LINE
8
BLACK
6
CONTINUOUS
10
6.31274
20
-5.33192
11
6.30655
21
-5.33252
0
LINE
8
BLACK
6
CONTINUOUS
10
6.30655
20
-5.33252
11
6.30037
21
-5.33192
0
LINE
8
BLACK
6
CONTINUOUS
10
6.30037
20
-5.33192
11
6.29443
21
-5.33011
0
LINE
8
BLACK
6
CONTINUOUS
10
6.29443
20
-5.33011
11
6.29169
21
-5.32865
0
LINE
8
BLACK
6
CONTINUOUS
10
6.29169
20
-5.32865
11
6.28895
21
-5.32718
0
LINE
8
BLACK
6
CONTINUOUS
10
6.28895
20
-5.32718
11
6.28535
21
-5.32423
0
LINE
8
BLACK
6
CONTINUOUS
10
6.28535
20
-5.32423
11
6.25254
21
-5.29142
0
LINE
8
BLACK
6
CONTINUOUS
10
6.25254
20
-5.29142
11
6.24958
21
-5.28782
0
LINE
8
BLACK
6
CONTINUOUS
10
6.24958
20
-5.28782
11
6.24768
21
-5.28425
0
LINE
8
BLACK
6
CONTINUOUS
10
6.24768
20
-5.28425
11
6.24666
21
-5.28234
0
LINE
8
BLACK
6
CONTINUOUS
10
6.24666
20
-5.28234
11
6.24485
21
-5.2764
0
LINE
8
BLACK
6
CONTINUOUS
10
6.24485
20
-5.2764
11
6.24485
21
-5.2764
0
LINE
8
BLACK
6
CONTINUOUS
10
6.24485
20
-5.2764
11
6.24424
21
-5.27021
0
LINE
8
BLACK
6
CONTINUOUS
10
6.24424
20
-5.27021
11
6.24485
21
-5.26403
0
LINE
8
BLACK
6
CONTINUOUS
10
6.24485
20
-5.26403
11
6.24666
21
-5.25809
0
LINE
8
BLACK
6
CONTINUOUS
10
6.24666
20
-5.25809
11
6.24666
21
-5.25809
0
LINE
8
BLACK
6
CONTINUOUS
10
6.24666
20
-5.25809
11
6.2483
21
-5.255
0
LINE
8
BLACK
6
CONTINUOUS
10
6.2483
20
-5.255
11
6.24958
21
-5.25261
0
LINE
8
BLACK
6
CONTINUOUS
10
6.24958
20
-5.25261
11
6.25098
21
-5.25091
0
LINE
8
BLACK
6
CONTINUOUS
10
6.25098
20
-5.25091
11
6.25352
21
-5.24781
0
LINE
8
BLACK
6
CONTINUOUS
10
6.25352
20
-5.24781
11
6.25774
21
-5.24435
0
LINE
8
BLACK
6
CONTINUOUS
10
6.25774
20
-5.24435
11
6.25833
21
-5.24387
0
LINE
8
BLACK
6
CONTINUOUS
10
6.25833
20
-5.24387
11
6.26202
21
-5.24189
0
LINE
8
BLACK
6
CONTINUOUS
10
6.26202
20
-5.24189
11
6.2638
21
-5.24094
0
LINE
8
BLACK
6
CONTINUOUS
10
6.2638
20
-5.24094
11
6.26855
21
-5.2395
0
LINE
8
BLACK
6
CONTINUOUS
10
6.26855
20
-5.2395
11
6.26975
21
-5.23913
0
LINE
8
BLACK
6
CONTINUOUS
10
6.26975
20
-5.23913
11
6.27593
21
-5.23853
0
LINE
8
BLACK
6
CONTINUOUS
10
6.27593
20
-5.23853
11
6.28211
21
-5.23913
0
LINE
8
BLACK
6
CONTINUOUS
10
5.54127
20
-5.23913
11
5.54722
21
-5.24094
0
LINE
8
BLACK
6
CONTINUOUS
10
5.54722
20
-5.24094
11
5.54896
21
-5.24187
0
LINE
8
BLACK
6
CONTINUOUS
10
5.54896
20
-5.24187
11
5.5527
21
-5.24387
0
LINE
8
BLACK
6
CONTINUOUS
10
5.5527
20
-5.24387
11
5.55329
21
-5.24435
0
LINE
8
BLACK
6
CONTINUOUS
10
5.55329
20
-5.24435
11
5.5575
21
-5.24781
0
LINE
8
BLACK
6
CONTINUOUS
10
5.5575
20
-5.24781
11
5.56004
21
-5.25091
0
LINE
8
BLACK
6
CONTINUOUS
10
5.56004
20
-5.25091
11
5.56144
21
-5.25261
0
LINE
8
BLACK
6
CONTINUOUS
10
5.56144
20
-5.25261
11
5.56272
21
-5.255
0
LINE
8
BLACK
6
CONTINUOUS
10
5.56272
20
-5.255
11
5.56437
21
-5.25809
0
LINE
8
BLACK
6
CONTINUOUS
10
5.56437
20
-5.25809
11
5.56617
21
-5.26403
0
LINE
8
BLACK
6
CONTINUOUS
10
5.56617
20
-5.26403
11
5.56678
21
-5.27021
0
LINE
8
BLACK
6
CONTINUOUS
10
5.56678
20
-5.27021
11
5.56617
21
-5.2764
0
LINE
8
BLACK
6
CONTINUOUS
10
5.56617
20
-5.2764
11
5.56437
21
-5.28234
0
LINE
8
BLACK
6
CONTINUOUS
10
5.56437
20
-5.28234
11
5.56389
21
-5.28323
0
LINE
8
BLACK
6
CONTINUOUS
10
5.56389
20
-5.28323
11
5.56144
21
-5.28782
0
LINE
8
BLACK
6
CONTINUOUS
10
5.56144
20
-5.28782
11
5.55849
21
-5.29142
0
LINE
8
BLACK
6
CONTINUOUS
10
5.55849
20
-5.29142
11
5.52567
21
-5.32423
0
LINE
8
BLACK
6
CONTINUOUS
10
5.52567
20
-5.32423
11
5.52207
21
-5.32718
0
LINE
8
BLACK
6
CONTINUOUS
10
5.52207
20
-5.32718
11
5.51893
21
-5.32886
0
LINE
8
BLACK
6
CONTINUOUS
10
5.51893
20
-5.32886
11
5.5166
21
-5.33011
0
LINE
8
BLACK
6
CONTINUOUS
10
5.5166
20
-5.33011
11
5.51362
21
-5.33101
0
LINE
8
BLACK
6
CONTINUOUS
10
5.51362
20
-5.33101
11
5.51065
21
-5.33192
0
LINE
8
BLACK
6
CONTINUOUS
10
5.51065
20
-5.33192
11
5.50447
21
-5.33252
0
LINE
8
BLACK
6
CONTINUOUS
10
5.50447
20
-5.33252
11
5.49829
21
-5.33192
0
LINE
8
BLACK
6
CONTINUOUS
10
5.49829
20
-5.33192
11
5.49532
21
-5.33101
0
LINE
8
BLACK
6
CONTINUOUS
10
5.49532
20
-5.33101
11
5.49234
21
-5.33011
0
LINE
8
BLACK
6
CONTINUOUS
10
5.49234
20
-5.33011
11
5.49001
21
-5.32886
0
LINE
8
BLACK
6
CONTINUOUS
10
5.49001
20
-5.32886
11
5.48686
21
-5.32718
0
LINE
8
BLACK
6
CONTINUOUS
10
5.48686
20
-5.32718
11
5.48516
21
-5.32579
0
LINE
8
BLACK
6
CONTINUOUS
10
5.48516
20
-5.32579
11
5.48206
21
-5.32324
0
LINE
8
BLACK
6
CONTINUOUS
10
5.48206
20
-5.32324
11
5.47952
21
-5.32014
0
LINE
8
BLACK
6
CONTINUOUS
10
5.47952
20
-5.32014
11
5.47812
21
-5.31844
0
LINE
8
BLACK
6
CONTINUOUS
10
5.47812
20
-5.31844
11
5.47621
21
-5.31487
0
LINE
8
BLACK
6
CONTINUOUS
10
5.47621
20
-5.31487
11
5.47519
21
-5.31296
0
LINE
8
BLACK
6
CONTINUOUS
10
5.47519
20
-5.31296
11
5.474
21
-5.30902
0
LINE
8
BLACK
6
CONTINUOUS
10
5.474
20
-5.30902
11
5.47339
21
-5.30702
0
LINE
8
BLACK
6
CONTINUOUS
10
5.47339
20
-5.30702
11
5.47278
21
-5.30084
0
LINE
8
BLACK
6
CONTINUOUS
10
5.47278
20
-5.30084
11
5.47339
21
-5.29465
0
LINE
8
BLACK
6
CONTINUOUS
10
5.47339
20
-5.29465
11
5.47437
21
-5.29142
0
LINE
8
BLACK
6
CONTINUOUS
10
5.47437
20
-5.29142
11
5.47519
21
-5.28871
0
LINE
8
BLACK
6
CONTINUOUS
10
5.47519
20
-5.28871
11
5.47621
21
-5.2868
0
LINE
8
BLACK
6
CONTINUOUS
10
5.47621
20
-5.2868
11
5.47812
21
-5.28323
0
LINE
8
BLACK
6
CONTINUOUS
10
5.47812
20
-5.28323
11
5.48108
21
-5.27963
0
LINE
8
BLACK
6
CONTINUOUS
10
5.48108
20
-5.27963
11
5.51389
21
-5.24682
0
LINE
8
BLACK
6
CONTINUOUS
10
5.51389
20
-5.24682
11
5.51749
21
-5.24387
0
LINE
8
BLACK
6
CONTINUOUS
10
5.51749
20
-5.24387
11
5.52024
21
-5.2424
0
LINE
8
BLACK
6
CONTINUOUS
10
5.52024
20
-5.2424
11
5.52297
21
-5.24094
0
LINE
8
BLACK
6
CONTINUOUS
10
5.52297
20
-5.24094
11
5.52891
21
-5.23913
0
LINE
8
BLACK
6
CONTINUOUS
10
5.52891
20
-5.23913
11
5.53509
21
-5.23853
0
LINE
8
BLACK
6
CONTINUOUS
10
5.53509
20
-5.23853
11
5.54127
21
-5.23913
0
LINE
8
BLACK
6
CONTINUOUS
10
6.00977
20
-5.21252
11
6.01124
21
-5.213
0
LINE
8
BLACK
6
CONTINUOUS
10
6.01124
20
-5.213
11
6.01279
21
-5.21388
0
LINE
8
BLACK
6
CONTINUOUS
10
6.01279
20
-5.21388
11
6.03662
21
-5.23056
0
LINE
8
BLACK
6
CONTINUOUS
10
6.03662
20
-5.23056
11
6.03797
21
-5.23172
0
LINE
8
BLACK
6
CONTINUOUS
10
6.03797
20
-5.23172
11
6.03893
21
-5.23294
0
LINE
8
BLACK
6
CONTINUOUS
10
6.03893
20
-5.23294
11
6.03962
21
-5.23431
0
LINE
8
BLACK
6
CONTINUOUS
10
6.03962
20
-5.23431
11
6.04004
21
-5.2358
0
LINE
8
BLACK
6
CONTINUOUS
10
6.04004
20
-5.2358
11
6.04016
21
-5.23734
0
LINE
8
BLACK
6
CONTINUOUS
10
6.04016
20
-5.23734
11
6.03997
21
-5.23887
0
LINE
8
BLACK
6
CONTINUOUS
10
6.03997
20
-5.23887
11
6.03949
21
-5.24034
0
LINE
8
BLACK
6
CONTINUOUS
10
6.03949
20
-5.24034
11
6.03862
21
-5.24189
0
LINE
8
BLACK
6
CONTINUOUS
10
6.03862
20
-5.24189
11
6.03734
21
-5.24371
0
LINE
8
BLACK
6
CONTINUOUS
10
6.03734
20
-5.24371
11
6.02737
21
-5.25795
0
LINE
8
BLACK
6
CONTINUOUS
10
6.02737
20
-5.25795
11
6.02419
21
-5.26249
0
LINE
8
BLACK
6
CONTINUOUS
10
6.02419
20
-5.26249
11
6.02303
21
-5.26385
0
LINE
8
BLACK
6
CONTINUOUS
10
6.02303
20
-5.26385
11
6.02182
21
-5.2648
0
LINE
8
BLACK
6
CONTINUOUS
10
6.02182
20
-5.2648
11
6.02044
21
-5.2655
0
LINE
8
BLACK
6
CONTINUOUS
10
6.02044
20
-5.2655
11
6.01895
21
-5.26591
0
LINE
8
BLACK
6
CONTINUOUS
10
6.01895
20
-5.26591
11
6.01742
21
-5.26603
0
LINE
8
BLACK
6
CONTINUOUS
10
6.01742
20
-5.26603
11
6.01588
21
-5.26584
0
LINE
8
BLACK
6
CONTINUOUS
10
6.01588
20
-5.26584
11
6.01442
21
-5.26536
0
LINE
8
BLACK
6
CONTINUOUS
10
6.01442
20
-5.26536
11
6.01286
21
-5.26449
0
LINE
8
BLACK
6
CONTINUOUS
10
6.01286
20
-5.26449
11
5.98904
21
-5.24781
0
LINE
8
BLACK
6
CONTINUOUS
10
5.98904
20
-5.24781
11
5.98768
21
-5.24664
0
LINE
8
BLACK
6
CONTINUOUS
10
5.98768
20
-5.24664
11
5.98673
21
-5.24543
0
LINE
8
BLACK
6
CONTINUOUS
10
5.98673
20
-5.24543
11
5.98603
21
-5.24405
0
LINE
8
BLACK
6
CONTINUOUS
10
5.98603
20
-5.24405
11
5.98562
21
-5.24257
0
LINE
8
BLACK
6
CONTINUOUS
10
5.98562
20
-5.24257
11
5.9855
21
-5.24103
0
LINE
8
BLACK
6
CONTINUOUS
10
5.9855
20
-5.24103
11
5.98569
21
-5.2395
0
LINE
8
BLACK
6
CONTINUOUS
10
5.98569
20
-5.2395
11
5.98617
21
-5.23803
0
LINE
8
BLACK
6
CONTINUOUS
10
5.98617
20
-5.23803
11
5.98704
21
-5.23648
0
LINE
8
BLACK
6
CONTINUOUS
10
5.98704
20
-5.23648
11
5.99415
21
-5.22633
0
LINE
8
BLACK
6
CONTINUOUS
10
5.99415
20
-5.22633
11
6.00019
21
-5.21769
0
LINE
8
BLACK
6
CONTINUOUS
10
6.00019
20
-5.21769
11
6.00019
21
-5.21769
0
LINE
8
BLACK
6
CONTINUOUS
10
6.00019
20
-5.21769
11
6.00146
21
-5.21588
0
LINE
8
BLACK
6
CONTINUOUS
10
6.00146
20
-5.21588
11
6.00263
21
-5.21452
0
LINE
8
BLACK
6
CONTINUOUS
10
6.00263
20
-5.21452
11
6.00384
21
-5.21357
0
LINE
8
BLACK
6
CONTINUOUS
10
6.00384
20
-5.21357
11
6.00522
21
-5.21287
0
LINE
8
BLACK
6
CONTINUOUS
10
6.00522
20
-5.21287
11
6.0067
21
-5.21246
0
LINE
8
BLACK
6
CONTINUOUS
10
6.0067
20
-5.21246
11
6.00824
21
-5.21234
0
LINE
8
BLACK
6
CONTINUOUS
10
6.00824
20
-5.21234
11
6.00977
21
-5.21252
0
LINE
8
BLACK
6
CONTINUOUS
10
5.26845
20
-5.16119
11
5.2744
21
-5.16299
0
LINE
8
BLACK
6
CONTINUOUS
10
5.2744
20
-5.16299
11
5.27544
21
-5.16355
0
LINE
8
BLACK
6
CONTINUOUS
10
5.27544
20
-5.16355
11
5.27988
21
-5.16592
0
LINE
8
BLACK
6
CONTINUOUS
10
5.27988
20
-5.16592
11
5.28122
21
-5.16702
0
LINE
8
BLACK
6
CONTINUOUS
10
5.28122
20
-5.16702
11
5.28468
21
-5.16986
0
LINE
8
BLACK
6
CONTINUOUS
10
5.28468
20
-5.16986
11
5.28711
21
-5.17282
0
LINE
8
BLACK
6
CONTINUOUS
10
5.28711
20
-5.17282
11
5.28862
21
-5.17466
0
LINE
8
BLACK
6
CONTINUOUS
10
5.28862
20
-5.17466
11
5.29044
21
-5.17807
0
LINE
8
BLACK
6
CONTINUOUS
10
5.29044
20
-5.17807
11
5.29155
21
-5.18014
0
LINE
8
BLACK
6
CONTINUOUS
10
5.29155
20
-5.18014
11
5.29335
21
-5.18608
0
LINE
8
BLACK
6
CONTINUOUS
10
5.29335
20
-5.18608
11
5.29396
21
-5.19226
0
LINE
8
BLACK
6
CONTINUOUS
10
5.29396
20
-5.19226
11
5.29335
21
-5.19845
0
LINE
8
BLACK
6
CONTINUOUS
10
5.29335
20
-5.19845
11
5.29155
21
-5.20439
0
LINE
8
BLACK
6
CONTINUOUS
10
5.29155
20
-5.20439
11
5.29009
21
-5.20713
0
LINE
8
BLACK
6
CONTINUOUS
10
5.29009
20
-5.20713
11
5.28862
21
-5.20987
0
LINE
8
BLACK
6
CONTINUOUS
10
5.28862
20
-5.20987
11
5.28567
21
-5.21347
0
LINE
8
BLACK
6
CONTINUOUS
10
5.28567
20
-5.21347
11
5.25285
21
-5.24628
0
LINE
8
BLACK
6
CONTINUOUS
10
5.25285
20
-5.24628
11
5.24925
21
-5.24924
0
LINE
8
BLACK
6
CONTINUOUS
10
5.24925
20
-5.24924
11
5.24568
21
-5.25114
0
LINE
8
BLACK
6
CONTINUOUS
10
5.24568
20
-5.25114
11
5.24378
21
-5.25216
0
LINE
8
BLACK
6
CONTINUOUS
10
5.24378
20
-5.25216
11
5.24231
21
-5.25261
0
LINE
8
BLACK
6
CONTINUOUS
10
5.24231
20
-5.25261
11
5.23783
21
-5.25397
0
LINE
8
BLACK
6
CONTINUOUS
10
5.23783
20
-5.25397
11
5.23165
21
-5.25458
0
LINE
8
BLACK
6
CONTINUOUS
10
5.23165
20
-5.25458
11
5.22547
21
-5.25397
0
LINE
8
BLACK
6
CONTINUOUS
10
5.22547
20
-5.25397
11
5.22099
21
-5.25261
0
LINE
8
BLACK
6
CONTINUOUS
10
5.22099
20
-5.25261
11
5.21952
21
-5.25216
0
LINE
8
BLACK
6
CONTINUOUS
10
5.21952
20
-5.25216
11
5.21761
21
-5.25114
0
LINE
8
BLACK
6
CONTINUOUS
10
5.21761
20
-5.25114
11
5.21404
21
-5.24924
0
LINE
8
BLACK
6
CONTINUOUS
10
5.21404
20
-5.24924
11
5.21224
21
-5.24776
0
LINE
8
BLACK
6
CONTINUOUS
10
5.21224
20
-5.24776
11
5.20924
21
-5.24529
0
LINE
8
BLACK
6
CONTINUOUS
10
5.20924
20
-5.24529
11
5.2067
21
-5.24219
0
LINE
8
BLACK
6
CONTINUOUS
10
5.2067
20
-5.24219
11
5.2053
21
-5.24049
0
LINE
8
BLACK
6
CONTINUOUS
10
5.2053
20
-5.24049
11
5.20339
21
-5.23692
0
LINE
8
BLACK
6
CONTINUOUS
10
5.20339
20
-5.23692
11
5.20237
21
-5.23501
0
LINE
8
BLACK
6
CONTINUOUS
10
5.20237
20
-5.23501
11
5.20137
21
-5.23172
0
LINE
8
BLACK
6
CONTINUOUS
10
5.20137
20
-5.23172
11
5.20057
21
-5.22907
0
LINE
8
BLACK
6
CONTINUOUS
10
5.20057
20
-5.22907
11
5.19996
21
-5.22289
0
LINE
8
BLACK
6
CONTINUOUS
10
5.19996
20
-5.22289
11
5.20057
21
-5.21671
0
LINE
8
BLACK
6
CONTINUOUS
10
5.20057
20
-5.21671
11
5.20194
21
-5.21218
0
LINE
8
BLACK
6
CONTINUOUS
10
5.20194
20
-5.21218
11
5.20237
21
-5.21076
0
LINE
8
BLACK
6
CONTINUOUS
10
5.20237
20
-5.21076
11
5.20369
21
-5.20829
0
LINE
8
BLACK
6
CONTINUOUS
10
5.20369
20
-5.20829
11
5.2053
21
-5.20528
0
LINE
8
BLACK
6
CONTINUOUS
10
5.2053
20
-5.20528
11
5.20825
21
-5.20168
0
LINE
8
BLACK
6
CONTINUOUS
10
5.20825
20
-5.20168
11
5.24107
21
-5.16887
0
LINE
8
BLACK
6
CONTINUOUS
10
5.24107
20
-5.16887
11
5.24467
21
-5.16592
0
LINE
8
BLACK
6
CONTINUOUS
10
5.24467
20
-5.16592
11
5.24741
21
-5.16445
0
LINE
8
BLACK
6
CONTINUOUS
10
5.24741
20
-5.16445
11
5.25015
21
-5.16299
0
LINE
8
BLACK
6
CONTINUOUS
10
5.25015
20
-5.16299
11
5.25609
21
-5.16119
0
LINE
8
BLACK
6
CONTINUOUS
10
5.25609
20
-5.16119
11
5.26227
21
-5.16058
0
LINE
8
BLACK
6
CONTINUOUS
10
5.26227
20
-5.16058
11
5.26845
21
-5.16119
0
LINE
8
BLACK
6
CONTINUOUS
10
5.44301
20
-5.16183
11
5.44982
21
-5.16465
0
LINE
8
BLACK
6
CONTINUOUS
10
5.44982
20
-5.16465
11
5.45083
21
-5.16532
0
LINE
8
BLACK
6
CONTINUOUS
10
5.45083
20
-5.16532
11
5.45596
21
-5.16875
0
LINE
8
BLACK
6
CONTINUOUS
10
5.45596
20
-5.16875
11
5.46117
21
-5.17397
0
LINE
8
BLACK
6
CONTINUOUS
10
5.46117
20
-5.17397
11
5.46245
21
-5.17588
0
LINE
8
BLACK
6
CONTINUOUS
10
5.46245
20
-5.17588
11
5.46527
21
-5.1801
0
LINE
8
BLACK
6
CONTINUOUS
10
5.46527
20
-5.1801
11
5.46809
21
-5.18691
0
LINE
8
BLACK
6
CONTINUOUS
10
5.46809
20
-5.18691
11
5.46953
21
-5.19414
0
LINE
8
BLACK
6
CONTINUOUS
10
5.46953
20
-5.19414
11
5.46953
21
-5.20152
0
LINE
8
BLACK
6
CONTINUOUS
10
5.46953
20
-5.20152
11
5.46809
21
-5.20875
0
LINE
8
BLACK
6
CONTINUOUS
10
5.46809
20
-5.20875
11
5.46527
21
-5.21557
0
LINE
8
BLACK
6
CONTINUOUS
10
5.46527
20
-5.21557
11
5.464
21
-5.21746
0
LINE
8
BLACK
6
CONTINUOUS
10
5.464
20
-5.21746
11
5.46117
21
-5.2217
0
LINE
8
BLACK
6
CONTINUOUS
10
5.46117
20
-5.2217
11
5.45596
21
-5.22691
0
LINE
8
BLACK
6
CONTINUOUS
10
5.45596
20
-5.22691
11
5.45287
21
-5.22898
0
LINE
8
BLACK
6
CONTINUOUS
10
5.45287
20
-5.22898
11
5.44982
21
-5.23101
0
LINE
8
BLACK
6
CONTINUOUS
10
5.44982
20
-5.23101
11
5.44301
21
-5.23383
0
LINE
8
BLACK
6
CONTINUOUS
10
5.44301
20
-5.23383
11
5.43578
21
-5.23527
0
LINE
8
BLACK
6
CONTINUOUS
10
5.43578
20
-5.23527
11
5.4284
21
-5.23527
0
LINE
8
BLACK
6
CONTINUOUS
10
5.4284
20
-5.23527
11
5.42117
21
-5.23383
0
LINE
8
BLACK
6
CONTINUOUS
10
5.42117
20
-5.23383
11
5.41435
21
-5.23101
0
LINE
8
BLACK
6
CONTINUOUS
10
5.41435
20
-5.23101
11
5.41131
21
-5.22898
0
LINE
8
BLACK
6
CONTINUOUS
10
5.41131
20
-5.22898
11
5.40822
21
-5.22691
0
LINE
8
BLACK
6
CONTINUOUS
10
5.40822
20
-5.22691
11
5.40301
21
-5.2217
0
LINE
8
BLACK
6
CONTINUOUS
10
5.40301
20
-5.2217
11
5.40017
21
-5.21746
0
LINE
8
BLACK
6
CONTINUOUS
10
5.40017
20
-5.21746
11
5.39891
21
-5.21557
0
LINE
8
BLACK
6
CONTINUOUS
10
5.39891
20
-5.21557
11
5.39609
21
-5.20875
0
LINE
8
BLACK
6
CONTINUOUS
10
5.39609
20
-5.20875
11
5.39465
21
-5.20152
0
LINE
8
BLACK
6
CONTINUOUS
10
5.39465
20
-5.20152
11
5.39465
21
-5.19414
0
LINE
8
BLACK
6
CONTINUOUS
10
5.39465
20
-5.19414
11
5.39609
21
-5.18691
0
LINE
8
BLACK
6
CONTINUOUS
10
5.39609
20
-5.18691
11
5.39891
21
-5.1801
0
LINE
8
BLACK
6
CONTINUOUS
10
5.39891
20
-5.1801
11
5.40173
21
-5.17588
0
LINE
8
BLACK
6
CONTINUOUS
10
5.40173
20
-5.17588
11
5.40301
21
-5.17397
0
LINE
8
BLACK
6
CONTINUOUS
10
5.40301
20
-5.17397
11
5.40822
21
-5.16875
0
LINE
8
BLACK
6
CONTINUOUS
10
5.40822
20
-5.16875
11
5.41335
21
-5.16532
0
LINE
8
BLACK
6
CONTINUOUS
10
5.41335
20
-5.16532
11
5.41435
21
-5.16465
0
LINE
8
BLACK
6
CONTINUOUS
10
5.41435
20
-5.16465
11
5.42117
21
-5.16183
0
LINE
8
BLACK
6
CONTINUOUS
10
5.42117
20
-5.16183
11
5.4284
21
-5.16039
0
LINE
8
BLACK
6
CONTINUOUS
10
5.4284
20
-5.16039
11
5.43578
21
-5.16039
0
LINE
8
BLACK
6
CONTINUOUS
10
5.43578
20
-5.16039
11
5.44301
21
-5.16183
0
LINE
8
BLACK
6
CONTINUOUS
10
6.38986
20
-5.16183
11
6.39667
21
-5.16465
0
LINE
8
BLACK
6
CONTINUOUS
10
6.39667
20
-5.16465
11
6.39767
21
-5.16532
0
LINE
8
BLACK
6
CONTINUOUS
10
6.39767
20
-5.16532
11
6.4028
21
-5.16875
0
LINE
8
BLACK
6
CONTINUOUS
10
6.4028
20
-5.16875
11
6.40802
21
-5.17397
0
LINE
8
BLACK
6
CONTINUOUS
10
6.40802
20
-5.17397
11
6.4093
21
-5.17588
0
LINE
8
BLACK
6
CONTINUOUS
10
6.4093
20
-5.17588
11
6.41211
21
-5.1801
0
LINE
8
BLACK
6
CONTINUOUS
10
6.41211
20
-5.1801
11
6.41494
21
-5.18691
0
LINE
8
BLACK
6
CONTINUOUS
10
6.41494
20
-5.18691
11
6.41638
21
-5.19414
0
LINE
8
BLACK
6
CONTINUOUS
10
6.41638
20
-5.19414
11
6.41638
21
-5.20152
0
LINE
8
BLACK
6
CONTINUOUS
10
6.41638
20
-5.20152
11
6.41494
21
-5.20875
0
LINE
8
BLACK
6
CONTINUOUS
10
6.41494
20
-5.20875
11
6.41211
21
-5.21557
0
LINE
8
BLACK
6
CONTINUOUS
10
6.41211
20
-5.21557
11
6.41085
21
-5.21746
0
LINE
8
BLACK
6
CONTINUOUS
10
6.41085
20
-5.21746
11
6.40802
21
-5.2217
0
LINE
8
BLACK
6
CONTINUOUS
10
6.40802
20
-5.2217
11
6.4028
21
-5.22691
0
LINE
8
BLACK
6
CONTINUOUS
10
6.4028
20
-5.22691
11
6.39972
21
-5.22898
0
LINE
8
BLACK
6
CONTINUOUS
10
6.39972
20
-5.22898
11
6.39667
21
-5.23101
0
LINE
8
BLACK
6
CONTINUOUS
10
6.39667
20
-5.23101
11
6.38986
21
-5.23383
0
LINE
8
BLACK
6
CONTINUOUS
10
6.38986
20
-5.23383
11
6.38262
21
-5.23527
0
LINE
8
BLACK
6
CONTINUOUS
10
6.38262
20
-5.23527
11
6.37525
21
-5.23527
0
LINE
8
BLACK
6
CONTINUOUS
10
6.37525
20
-5.23527
11
6.36801
21
-5.23383
0
LINE
8
BLACK
6
CONTINUOUS
10
6.36801
20
-5.23383
11
6.3612
21
-5.23101
0
LINE
8
BLACK
6
CONTINUOUS
10
6.3612
20
-5.23101
11
6.35815
21
-5.22898
0
LINE
8
BLACK
6
CONTINUOUS
10
6.35815
20
-5.22898
11
6.35507
21
-5.22691
0
LINE
8
BLACK
6
CONTINUOUS
10
6.35507
20
-5.22691
11
6.34985
21
-5.2217
0
LINE
8
BLACK
6
CONTINUOUS
10
6.34985
20
-5.2217
11
6.34702
21
-5.21746
0
LINE
8
BLACK
6
CONTINUOUS
10
6.34702
20
-5.21746
11
6.34576
21
-5.21557
0
LINE
8
BLACK
6
CONTINUOUS
10
6.34576
20
-5.21557
11
6.34293
21
-5.20875
0
LINE
8
BLACK
6
CONTINUOUS
10
6.34293
20
-5.20875
11
6.34149
21
-5.20152
0
LINE
8
BLACK
6
CONTINUOUS
10
6.34149
20
-5.20152
11
6.34149
21
-5.19414
0
LINE
8
BLACK
6
CONTINUOUS
10
6.34149
20
-5.19414
11
6.34293
21
-5.18691
0
LINE
8
BLACK
6
CONTINUOUS
10
6.34293
20
-5.18691
11
6.34576
21
-5.1801
0
LINE
8
BLACK
6
CONTINUOUS
10
6.34576
20
-5.1801
11
6.34857
21
-5.17588
0
LINE
8
BLACK
6
CONTINUOUS
10
6.34857
20
-5.17588
11
6.34985
21
-5.17397
0
LINE
8
BLACK
6
CONTINUOUS
10
6.34985
20
-5.17397
11
6.35507
21
-5.16875
0
LINE
8
BLACK
6
CONTINUOUS
10
6.35507
20
-5.16875
11
6.3602
21
-5.16532
0
LINE
8
BLACK
6
CONTINUOUS
10
6.3602
20
-5.16532
11
6.3612
21
-5.16465
0
LINE
8
BLACK
6
CONTINUOUS
10
6.3612
20
-5.16465
11
6.36801
21
-5.16183
0
LINE
8
BLACK
6
CONTINUOUS
10
6.36801
20
-5.16183
11
6.37525
21
-5.16039
0
LINE
8
BLACK
6
CONTINUOUS
10
6.37525
20
-5.16039
11
6.38262
21
-5.16039
0
LINE
8
BLACK
6
CONTINUOUS
10
6.38262
20
-5.16039
11
6.38986
21
-5.16183
0
LINE
8
BLACK
6
CONTINUOUS
10
5.84927
20
-5.174
11
5.85077
21
-5.17435
0
LINE
8
BLACK
6
CONTINUOUS
10
5.85077
20
-5.17435
11
5.8524
21
-5.17509
0
LINE
8
BLACK
6
CONTINUOUS
10
5.8524
20
-5.17509
11
5.85432
21
-5.1762
0
LINE
8
BLACK
6
CONTINUOUS
10
5.85432
20
-5.1762
11
5.85432
21
-5.1762
0
LINE
8
BLACK
6
CONTINUOUS
10
5.85432
20
-5.1762
11
5.86114
21
-5.18014
0
LINE
8
BLACK
6
CONTINUOUS
10
5.86114
20
-5.18014
11
5.87758
21
-5.18963
0
LINE
8
BLACK
6
CONTINUOUS
10
5.87758
20
-5.18963
11
5.87904
21
-5.19067
0
LINE
8
BLACK
6
CONTINUOUS
10
5.87904
20
-5.19067
11
5.88009
21
-5.1918
0
LINE
8
BLACK
6
CONTINUOUS
10
5.88009
20
-5.1918
11
5.88091
21
-5.19311
0
LINE
8
BLACK
6
CONTINUOUS
10
5.88091
20
-5.19311
11
5.88145
21
-5.19455
0
LINE
8
BLACK
6
CONTINUOUS
10
5.88145
20
-5.19455
11
5.8817
21
-5.19607
0
LINE
8
BLACK
6
CONTINUOUS
10
5.8817
20
-5.19607
11
5.88165
21
-5.19762
0
LINE
8
BLACK
6
CONTINUOUS
10
5.88165
20
-5.19762
11
5.8813
21
-5.19912
0
LINE
8
BLACK
6
CONTINUOUS
10
5.8813
20
-5.19912
11
5.88056
21
-5.20075
0
LINE
8
BLACK
6
CONTINUOUS
10
5.88056
20
-5.20075
11
5.86799
21
-5.22252
0
LINE
8
BLACK
6
CONTINUOUS
10
5.86799
20
-5.22252
11
5.86695
21
-5.22397
0
LINE
8
BLACK
6
CONTINUOUS
10
5.86695
20
-5.22397
11
5.86582
21
-5.22503
0
LINE
8
BLACK
6
CONTINUOUS
10
5.86582
20
-5.22503
11
5.86451
21
-5.22584
0
LINE
8
BLACK
6
CONTINUOUS
10
5.86451
20
-5.22584
11
5.86307
21
-5.22639
0
LINE
8
BLACK
6
CONTINUOUS
10
5.86307
20
-5.22639
11
5.86155
21
-5.22664
0
LINE
8
BLACK
6
CONTINUOUS
10
5.86155
20
-5.22664
11
5.86
21
-5.22659
0
LINE
8
BLACK
6
CONTINUOUS
10
5.86
20
-5.22659
11
5.8585
21
-5.22624
0
LINE
8
BLACK
6
CONTINUOUS
10
5.8585
20
-5.22624
11
5.85688
21
-5.2255
0
LINE
8
BLACK
6
CONTINUOUS
10
5.85688
20
-5.2255
11
5.85495
21
-5.22439
0
LINE
8
BLACK
6
CONTINUOUS
10
5.85495
20
-5.22439
11
5.85495
21
-5.22439
0
LINE
8
BLACK
6
CONTINUOUS
10
5.85495
20
-5.22439
11
5.84164
21
-5.21671
0
LINE
8
BLACK
6
CONTINUOUS
10
5.84164
20
-5.21671
11
5.83169
21
-5.21096
0
LINE
8
BLACK
6
CONTINUOUS
10
5.83169
20
-5.21096
11
5.83024
21
-5.20992
0
LINE
8
BLACK
6
CONTINUOUS
10
5.83024
20
-5.20992
11
5.82918
21
-5.20879
0
LINE
8
BLACK
6
CONTINUOUS
10
5.82918
20
-5.20879
11
5.82837
21
-5.20748
0
LINE
8
BLACK
6
CONTINUOUS
10
5.82837
20
-5.20748
11
5.82782
21
-5.20604
0
LINE
8
BLACK
6
CONTINUOUS
10
5.82782
20
-5.20604
11
5.82757
21
-5.20452
0
LINE
8
BLACK
6
CONTINUOUS
10
5.82757
20
-5.20452
11
5.82762
21
-5.20297
0
LINE
8
BLACK
6
CONTINUOUS
10
5.82762
20
-5.20297
11
5.82797
21
-5.20147
0
LINE
8
BLACK
6
CONTINUOUS
10
5.82797
20
-5.20147
11
5.82871
21
-5.19985
0
LINE
8
BLACK
6
CONTINUOUS
10
5.82871
20
-5.19985
11
5.84128
21
-5.17807
0
LINE
8
BLACK
6
CONTINUOUS
10
5.84128
20
-5.17807
11
5.84232
21
-5.17662
0
LINE
8
BLACK
6
CONTINUOUS
10
5.84232
20
-5.17662
11
5.84345
21
-5.17556
0
LINE
8
BLACK
6
CONTINUOUS
10
5.84345
20
-5.17556
11
5.84476
21
-5.17475
0
LINE
8
BLACK
6
CONTINUOUS
10
5.84476
20
-5.17475
11
5.8462
21
-5.1742
0
LINE
8
BLACK
6
CONTINUOUS
10
5.8462
20
-5.1742
11
5.84773
21
-5.17395
0
LINE
8
BLACK
6
CONTINUOUS
10
5.84773
20
-5.17395
11
5.84927
21
-5.174
0
LINE
8
BLACK
6
CONTINUOUS
10
5.95333
20
-5.17301
11
5.9548
21
-5.17349
0
LINE
8
BLACK
6
CONTINUOUS
10
5.9548
20
-5.17349
11
5.95636
21
-5.17436
0
LINE
8
BLACK
6
CONTINUOUS
10
5.95636
20
-5.17436
11
5.98018
21
-5.19104
0
LINE
8
BLACK
6
CONTINUOUS
10
5.98018
20
-5.19104
11
5.98154
21
-5.19221
0
LINE
8
BLACK
6
CONTINUOUS
10
5.98154
20
-5.19221
11
5.98249
21
-5.19342
0
LINE
8
BLACK
6
CONTINUOUS
10
5.98249
20
-5.19342
11
5.98319
21
-5.1948
0
LINE
8
BLACK
6
CONTINUOUS
10
5.98319
20
-5.1948
11
5.9836
21
-5.19628
0
LINE
8
BLACK
6
CONTINUOUS
10
5.9836
20
-5.19628
11
5.98372
21
-5.19782
0
LINE
8
BLACK
6
CONTINUOUS
10
5.98372
20
-5.19782
11
5.98353
21
-5.19935
0
LINE
8
BLACK
6
CONTINUOUS
10
5.98353
20
-5.19935
11
5.98305
21
-5.20082
0
LINE
8
BLACK
6
CONTINUOUS
10
5.98305
20
-5.20082
11
5.98218
21
-5.20237
0
LINE
8
BLACK
6
CONTINUOUS
10
5.98218
20
-5.20237
11
5.98091
21
-5.20419
0
LINE
8
BLACK
6
CONTINUOUS
10
5.98091
20
-5.20419
11
5.96942
21
-5.2206
0
LINE
8
BLACK
6
CONTINUOUS
10
5.96942
20
-5.2206
11
5.96776
21
-5.22297
0
LINE
8
BLACK
6
CONTINUOUS
10
5.96776
20
-5.22297
11
5.96659
21
-5.22433
0
LINE
8
BLACK
6
CONTINUOUS
10
5.96659
20
-5.22433
11
5.96538
21
-5.22528
0
LINE
8
BLACK
6
CONTINUOUS
10
5.96538
20
-5.22528
11
5.964
21
-5.22598
0
LINE
8
BLACK
6
CONTINUOUS
10
5.964
20
-5.22598
11
5.96252
21
-5.22639
0
LINE
8
BLACK
6
CONTINUOUS
10
5.96252
20
-5.22639
11
5.96098
21
-5.22651
0
LINE
8
BLACK
6
CONTINUOUS
10
5.96098
20
-5.22651
11
5.95945
21
-5.22633
0
LINE
8
BLACK
6
CONTINUOUS
10
5.95945
20
-5.22633
11
5.95798
21
-5.22585
0
LINE
8
BLACK
6
CONTINUOUS
10
5.95798
20
-5.22585
11
5.95643
21
-5.22497
0
LINE
8
BLACK
6
CONTINUOUS
10
5.95643
20
-5.22497
11
5.9326
21
-5.20829
0
LINE
8
BLACK
6
CONTINUOUS
10
5.9326
20
-5.20829
11
5.93125
21
-5.20713
0
LINE
8
BLACK
6
CONTINUOUS
10
5.93125
20
-5.20713
11
5.93029
21
-5.20591
0
LINE
8
BLACK
6
CONTINUOUS
10
5.93029
20
-5.20591
11
5.9296
21
-5.20454
0
LINE
8
BLACK
6
CONTINUOUS
10
5.9296
20
-5.20454
11
5.92918
21
-5.20305
0
LINE
8
BLACK
6
CONTINUOUS
10
5.92918
20
-5.20305
11
5.92906
21
-5.20151
0
LINE
8
BLACK
6
CONTINUOUS
10
5.92906
20
-5.20151
11
5.92925
21
-5.19998
0
LINE
8
BLACK
6
CONTINUOUS
10
5.92925
20
-5.19998
11
5.92973
21
-5.19851
0
LINE
8
BLACK
6
CONTINUOUS
10
5.92973
20
-5.19851
11
5.9306
21
-5.19696
0
LINE
8
BLACK
6
CONTINUOUS
10
5.9306
20
-5.19696
11
5.93867
21
-5.18544
0
LINE
8
BLACK
6
CONTINUOUS
10
5.93867
20
-5.18544
11
5.94375
21
-5.17818
0
LINE
8
BLACK
6
CONTINUOUS
10
5.94375
20
-5.17818
11
5.94375
21
-5.17818
0
LINE
8
BLACK
6
CONTINUOUS
10
5.94375
20
-5.17818
11
5.94503
21
-5.17636
0
LINE
8
BLACK
6
CONTINUOUS
10
5.94503
20
-5.17636
11
5.94619
21
-5.175
0
LINE
8
BLACK
6
CONTINUOUS
10
5.94619
20
-5.175
11
5.9474
21
-5.17405
0
LINE
8
BLACK
6
CONTINUOUS
10
5.9474
20
-5.17405
11
5.94878
21
-5.17335
0
LINE
8
BLACK
6
CONTINUOUS
10
5.94878
20
-5.17335
11
5.95026
21
-5.17294
0
LINE
8
BLACK
6
CONTINUOUS
10
5.95026
20
-5.17294
11
5.9518
21
-5.17282
0
LINE
8
BLACK
6
CONTINUOUS
10
5.9518
20
-5.17282
11
5.95333
21
-5.17301
0
LINE
8
BLACK
6
CONTINUOUS
10
6.7106
20
-5.17377
11
6.71205
21
-5.17429
0
LINE
8
BLACK
6
CONTINUOUS
10
6.71205
20
-5.17429
11
6.71338
21
-5.17507
0
LINE
8
BLACK
6
CONTINUOUS
10
6.71338
20
-5.17507
11
6.71453
21
-5.1761
0
LINE
8
BLACK
6
CONTINUOUS
10
6.71453
20
-5.1761
11
6.71546
21
-5.17734
0
LINE
8
BLACK
6
CONTINUOUS
10
6.71546
20
-5.17734
11
6.71623
21
-5.17895
0
LINE
8
BLACK
6
CONTINUOUS
10
6.71623
20
-5.17895
11
6.72618
21
-5.20628
0
LINE
8
BLACK
6
CONTINUOUS
10
6.72618
20
-5.20628
11
6.72662
21
-5.20801
0
LINE
8
BLACK
6
CONTINUOUS
10
6.72662
20
-5.20801
11
6.7267
21
-5.20955
0
LINE
8
BLACK
6
CONTINUOUS
10
6.7267
20
-5.20955
11
6.72649
21
-5.21107
0
LINE
8
BLACK
6
CONTINUOUS
10
6.72649
20
-5.21107
11
6.72597
21
-5.21253
0
LINE
8
BLACK
6
CONTINUOUS
10
6.72597
20
-5.21253
11
6.72519
21
-5.21386
0
LINE
8
BLACK
6
CONTINUOUS
10
6.72519
20
-5.21386
11
6.72416
21
-5.21501
0
LINE
8
BLACK
6
CONTINUOUS
10
6.72416
20
-5.21501
11
6.72292
21
-5.21593
0
LINE
8
BLACK
6
CONTINUOUS
10
6.72292
20
-5.21593
11
6.72131
21
-5.2167
0
LINE
8
BLACK
6
CONTINUOUS
10
6.72131
20
-5.2167
11
6.70323
21
-5.22329
0
LINE
8
BLACK
6
CONTINUOUS
10
6.70323
20
-5.22329
11
6.7004
21
-5.22432
0
LINE
8
BLACK
6
CONTINUOUS
10
6.7004
20
-5.22432
11
6.69768
21
-5.2253
0
LINE
8
BLACK
6
CONTINUOUS
10
6.69768
20
-5.2253
11
6.69595
21
-5.22575
0
LINE
8
BLACK
6
CONTINUOUS
10
6.69595
20
-5.22575
11
6.69441
21
-5.22583
0
LINE
8
BLACK
6
CONTINUOUS
10
6.69441
20
-5.22583
11
6.69289
21
-5.22561
0
LINE
8
BLACK
6
CONTINUOUS
10
6.69289
20
-5.22561
11
6.69143
21
-5.2251
0
LINE
8
BLACK
6
CONTINUOUS
10
6.69143
20
-5.2251
11
6.6901
21
-5.22432
0
LINE
8
BLACK
6
CONTINUOUS
10
6.6901
20
-5.22432
11
6.68895
21
-5.22329
0
LINE
8
BLACK
6
CONTINUOUS
10
6.68895
20
-5.22329
11
6.68803
21
-5.22205
0
LINE
8
BLACK
6
CONTINUOUS
10
6.68803
20
-5.22205
11
6.68726
21
-5.22044
0
LINE
8
BLACK
6
CONTINUOUS
10
6.68726
20
-5.22044
11
6.67731
21
-5.19311
0
LINE
8
BLACK
6
CONTINUOUS
10
6.67731
20
-5.19311
11
6.67687
21
-5.19138
0
LINE
8
BLACK
6
CONTINUOUS
10
6.67687
20
-5.19138
11
6.67678
21
-5.18984
0
LINE
8
BLACK
6
CONTINUOUS
10
6.67678
20
-5.18984
11
6.677
21
-5.18831
0
LINE
8
BLACK
6
CONTINUOUS
10
6.677
20
-5.18831
11
6.67751
21
-5.18686
0
LINE
8
BLACK
6
CONTINUOUS
10
6.67751
20
-5.18686
11
6.6783
21
-5.18553
0
LINE
8
BLACK
6
CONTINUOUS
10
6.6783
20
-5.18553
11
6.67933
21
-5.18438
0
LINE
8
BLACK
6
CONTINUOUS
10
6.67933
20
-5.18438
11
6.68056
21
-5.18346
0
LINE
8
BLACK
6
CONTINUOUS
10
6.68056
20
-5.18346
11
6.68217
21
-5.18268
0
LINE
8
BLACK
6
CONTINUOUS
10
6.68217
20
-5.18268
11
6.70304
21
-5.17509
0
LINE
8
BLACK
6
CONTINUOUS
10
6.70304
20
-5.17509
11
6.70372
21
-5.17484
0
LINE
8
BLACK
6
CONTINUOUS
10
6.70372
20
-5.17484
11
6.7058
21
-5.17408
0
LINE
8
BLACK
6
CONTINUOUS
10
6.7058
20
-5.17408
11
6.70753
21
-5.17364
0
LINE
8
BLACK
6
CONTINUOUS
10
6.70753
20
-5.17364
11
6.70907
21
-5.17356
0
LINE
8
BLACK
6
CONTINUOUS
10
6.70907
20
-5.17356
11
6.7106
21
-5.17377
0
LINE
8
BLACK
6
CONTINUOUS
10
6.04671
20
-5.16149
11
6.04818
21
-5.16197
0
LINE
8
BLACK
6
CONTINUOUS
10
6.04818
20
-5.16197
11
6.04973
21
-5.16284
0
LINE
8
BLACK
6
CONTINUOUS
10
6.04973
20
-5.16284
11
6.07356
21
-5.17953
0
LINE
8
BLACK
6
CONTINUOUS
10
6.07356
20
-5.17953
11
6.07491
21
-5.18069
0
LINE
8
BLACK
6
CONTINUOUS
10
6.07491
20
-5.18069
11
6.07586
21
-5.1819
0
LINE
8
BLACK
6
CONTINUOUS
10
6.07586
20
-5.1819
11
6.07656
21
-5.18328
0
LINE
8
BLACK
6
CONTINUOUS
10
6.07656
20
-5.18328
11
6.07698
21
-5.18476
0
LINE
8
BLACK
6
CONTINUOUS
10
6.07698
20
-5.18476
11
6.07709
21
-5.1863
0
LINE
8
BLACK
6
CONTINUOUS
10
6.07709
20
-5.1863
11
6.07691
21
-5.18783
0
LINE
8
BLACK
6
CONTINUOUS
10
6.07691
20
-5.18783
11
6.07643
21
-5.1893
0
LINE
8
BLACK
6
CONTINUOUS
10
6.07643
20
-5.1893
11
6.07555
21
-5.19086
0
LINE
8
BLACK
6
CONTINUOUS
10
6.07555
20
-5.19086
11
6.07389
21
-5.19323
0
LINE
8
BLACK
6
CONTINUOUS
10
6.07389
20
-5.19323
11
6.06247
21
-5.20955
0
LINE
8
BLACK
6
CONTINUOUS
10
6.06247
20
-5.20955
11
6.06113
21
-5.21145
0
LINE
8
BLACK
6
CONTINUOUS
10
6.06113
20
-5.21145
11
6.05997
21
-5.21281
0
LINE
8
BLACK
6
CONTINUOUS
10
6.05997
20
-5.21281
11
6.05875
21
-5.21376
0
LINE
8
BLACK
6
CONTINUOUS
10
6.05875
20
-5.21376
11
6.05738
21
-5.21446
0
LINE
8
BLACK
6
CONTINUOUS
10
6.05738
20
-5.21446
11
6.05589
21
-5.21488
0
LINE
8
BLACK
6
CONTINUOUS
10
6.05589
20
-5.21488
11
6.05435
21
-5.21499
0
LINE
8
BLACK
6
CONTINUOUS
10
6.05435
20
-5.21499
11
6.05282
21
-5.21481
0
LINE
8
BLACK
6
CONTINUOUS
10
6.05282
20
-5.21481
11
6.05136
21
-5.21433
0
LINE
8
BLACK
6
CONTINUOUS
10
6.05136
20
-5.21433
11
6.0498
21
-5.21345
0
LINE
8
BLACK
6
CONTINUOUS
10
6.0498
20
-5.21345
11
6.02598
21
-5.19677
0
LINE
8
BLACK
6
CONTINUOUS
10
6.02598
20
-5.19677
11
6.02462
21
-5.19561
0
LINE
8
BLACK
6
CONTINUOUS
10
6.02462
20
-5.19561
11
6.02367
21
-5.19439
0
LINE
8
BLACK
6
CONTINUOUS
10
6.02367
20
-5.19439
11
6.02297
21
-5.19302
0
LINE
8
BLACK
6
CONTINUOUS
10
6.02297
20
-5.19302
11
6.02256
21
-5.19153
0
LINE
8
BLACK
6
CONTINUOUS
10
6.02256
20
-5.19153
11
6.02244
21
-5.18999
0
LINE
8
BLACK
6
CONTINUOUS
10
6.02244
20
-5.18999
11
6.02262
21
-5.18846
0
LINE
8
BLACK
6
CONTINUOUS
10
6.02262
20
-5.18846
11
6.0231
21
-5.187
0
LINE
8
BLACK
6
CONTINUOUS
10
6.0231
20
-5.187
11
6.02398
21
-5.18544
0
LINE
8
BLACK
6
CONTINUOUS
10
6.02398
20
-5.18544
11
6.03117
21
-5.17517
0
LINE
8
BLACK
6
CONTINUOUS
10
6.03117
20
-5.17517
11
6.03713
21
-5.16666
0
LINE
8
BLACK
6
CONTINUOUS
10
6.03713
20
-5.16666
11
6.03713
21
-5.16666
0
LINE
8
BLACK
6
CONTINUOUS
10
6.03713
20
-5.16666
11
6.0384
21
-5.16484
0
LINE
8
BLACK
6
CONTINUOUS
10
6.0384
20
-5.16484
11
6.03956
21
-5.16349
0
LINE
8
BLACK
6
CONTINUOUS
10
6.03956
20
-5.16349
11
6.04078
21
-5.16253
0
LINE
8
BLACK
6
CONTINUOUS
10
6.04078
20
-5.16253
11
6.04215
21
-5.16184
0
LINE
8
BLACK
6
CONTINUOUS
10
6.04215
20
-5.16184
11
6.04364
21
-5.16142
0
LINE
8
BLACK
6
CONTINUOUS
10
6.04364
20
-5.16142
11
6.04518
21
-5.1613
0
LINE
8
BLACK
6
CONTINUOUS
10
6.04518
20
-5.1613
11
6.04671
21
-5.16149
0
LINE
8
BLACK
6
CONTINUOUS
10
5.7896
20
-5.13955
11
5.7911
21
-5.1399
0
LINE
8
BLACK
6
CONTINUOUS
10
5.7911
20
-5.1399
11
5.79273
21
-5.14064
0
LINE
8
BLACK
6
CONTINUOUS
10
5.79273
20
-5.14064
11
5.79465
21
-5.14175
0
LINE
8
BLACK
6
CONTINUOUS
10
5.79465
20
-5.14175
11
5.79465
21
-5.14175
0
LINE
8
BLACK
6
CONTINUOUS
10
5.79465
20
-5.14175
11
5.80122
21
-5.14554
0
LINE
8
BLACK
6
CONTINUOUS
10
5.80122
20
-5.14554
11
5.81792
21
-5.15518
0
LINE
8
BLACK
6
CONTINUOUS
10
5.81792
20
-5.15518
11
5.81937
21
-5.15622
0
LINE
8
BLACK
6
CONTINUOUS
10
5.81937
20
-5.15622
11
5.82042
21
-5.15735
0
LINE
8
BLACK
6
CONTINUOUS
10
5.82042
20
-5.15735
11
5.82124
21
-5.15866
0
LINE
8
BLACK
6
CONTINUOUS
10
5.82124
20
-5.15866
11
5.82178
21
-5.1601
0
LINE
8
BLACK
6
CONTINUOUS
10
5.82178
20
-5.1601
11
5.82203
21
-5.16163
0
LINE
8
BLACK
6
CONTINUOUS
10
5.82203
20
-5.16163
11
5.82198
21
-5.16317
0
LINE
8
BLACK
6
CONTINUOUS
10
5.82198
20
-5.16317
11
5.82163
21
-5.16467
0
LINE
8
BLACK
6
CONTINUOUS
10
5.82163
20
-5.16467
11
5.8209
21
-5.1663
0
LINE
8
BLACK
6
CONTINUOUS
10
5.8209
20
-5.1663
11
5.81323
21
-5.17957
0
LINE
8
BLACK
6
CONTINUOUS
10
5.81323
20
-5.17957
11
5.80979
21
-5.18553
0
LINE
8
BLACK
6
CONTINUOUS
10
5.80979
20
-5.18553
11
5.80832
21
-5.18807
0
LINE
8
BLACK
6
CONTINUOUS
10
5.80832
20
-5.18807
11
5.80728
21
-5.18953
0
LINE
8
BLACK
6
CONTINUOUS
10
5.80728
20
-5.18953
11
5.80616
21
-5.19058
0
LINE
8
BLACK
6
CONTINUOUS
10
5.80616
20
-5.19058
11
5.80485
21
-5.19139
0
LINE
8
BLACK
6
CONTINUOUS
10
5.80485
20
-5.19139
11
5.8034
21
-5.19194
0
LINE
8
BLACK
6
CONTINUOUS
10
5.8034
20
-5.19194
11
5.80188
21
-5.19219
0
LINE
8
BLACK
6
CONTINUOUS
10
5.80188
20
-5.19219
11
5.80034
21
-5.19214
0
LINE
8
BLACK
6
CONTINUOUS
10
5.80034
20
-5.19214
11
5.79884
21
-5.19179
0
LINE
8
BLACK
6
CONTINUOUS
10
5.79884
20
-5.19179
11
5.79721
21
-5.19105
0
LINE
8
BLACK
6
CONTINUOUS
10
5.79721
20
-5.19105
11
5.79529
21
-5.18994
0
LINE
8
BLACK
6
CONTINUOUS
10
5.79529
20
-5.18994
11
5.79529
21
-5.18994
0
LINE
8
BLACK
6
CONTINUOUS
10
5.79529
20
-5.18994
11
5.78405
21
-5.18346
0
LINE
8
BLACK
6
CONTINUOUS
10
5.78405
20
-5.18346
11
5.77202
21
-5.17651
0
LINE
8
BLACK
6
CONTINUOUS
10
5.77202
20
-5.17651
11
5.77057
21
-5.17547
0
LINE
8
BLACK
6
CONTINUOUS
10
5.77057
20
-5.17547
11
5.76952
21
-5.17434
0
LINE
8
BLACK
6
CONTINUOUS
10
5.76952
20
-5.17434
11
5.7687
21
-5.17303
0
LINE
8
BLACK
6
CONTINUOUS
10
5.7687
20
-5.17303
11
5.76816
21
-5.17159
0
LINE
8
BLACK
6
CONTINUOUS
10
5.76816
20
-5.17159
11
5.76791
21
-5.17007
0
LINE
8
BLACK
6
CONTINUOUS
10
5.76791
20
-5.17007
11
5.76796
21
-5.16853
0
LINE
8
BLACK
6
CONTINUOUS
10
5.76796
20
-5.16853
11
5.76831
21
-5.16702
0
LINE
8
BLACK
6
CONTINUOUS
10
5.76831
20
-5.16702
11
5.76904
21
-5.1654
0
LINE
8
BLACK
6
CONTINUOUS
10
5.76904
20
-5.1654
11
5.78162
21
-5.14362
0
LINE
8
BLACK
6
CONTINUOUS
10
5.78162
20
-5.14362
11
5.78266
21
-5.14217
0
LINE
8
BLACK
6
CONTINUOUS
10
5.78266
20
-5.14217
11
5.78378
21
-5.14111
0
LINE
8
BLACK
6
CONTINUOUS
10
5.78378
20
-5.14111
11
5.78509
21
-5.1403
0
LINE
8
BLACK
6
CONTINUOUS
10
5.78509
20
-5.1403
11
5.78654
21
-5.13975
0
LINE
8
BLACK
6
CONTINUOUS
10
5.78654
20
-5.13975
11
5.78806
21
-5.1395
0
LINE
8
BLACK
6
CONTINUOUS
10
5.78806
20
-5.1395
11
5.7896
21
-5.13955
0
LINE
8
BLACK
6
CONTINUOUS
10
5.99027
20
-5.12197
11
5.99174
21
-5.12245
0
LINE
8
BLACK
6
CONTINUOUS
10
5.99174
20
-5.12245
11
5.99329
21
-5.12333
0
LINE
8
BLACK
6
CONTINUOUS
10
5.99329
20
-5.12333
11
6.01712
21
-5.14001
0
LINE
8
BLACK
6
CONTINUOUS
10
6.01712
20
-5.14001
11
6.01847
21
-5.14117
0
LINE
8
BLACK
6
CONTINUOUS
10
6.01847
20
-5.14117
11
6.01943
21
-5.14238
0
LINE
8
BLACK
6
CONTINUOUS
10
6.01943
20
-5.14238
11
6.02012
21
-5.14376
0
LINE
8
BLACK
6
CONTINUOUS
10
6.02012
20
-5.14376
11
6.02054
21
-5.14525
0
LINE
8
BLACK
6
CONTINUOUS
10
6.02054
20
-5.14525
11
6.02066
21
-5.14678
0
LINE
8
BLACK
6
CONTINUOUS
10
6.02066
20
-5.14678
11
6.02047
21
-5.14832
0
LINE
8
BLACK
6
CONTINUOUS
10
6.02047
20
-5.14832
11
6.01999
21
-5.14978
0
LINE
8
BLACK
6
CONTINUOUS
10
6.01999
20
-5.14978
11
6.01912
21
-5.15134
0
LINE
8
BLACK
6
CONTINUOUS
10
6.01912
20
-5.15134
11
6.01784
21
-5.15316
0
LINE
8
BLACK
6
CONTINUOUS
10
6.01784
20
-5.15316
11
6.00684
21
-5.16887
0
LINE
8
BLACK
6
CONTINUOUS
10
6.00684
20
-5.16887
11
6.00469
21
-5.17194
0
LINE
8
BLACK
6
CONTINUOUS
10
6.00469
20
-5.17194
11
6.00353
21
-5.17329
0
LINE
8
BLACK
6
CONTINUOUS
10
6.00353
20
-5.17329
11
6.00232
21
-5.17424
0
LINE
8
BLACK
6
CONTINUOUS
10
6.00232
20
-5.17424
11
6.00094
21
-5.17494
0
LINE
8
BLACK
6
CONTINUOUS
10
6.00094
20
-5.17494
11
5.99945
21
-5.17536
0
LINE
8
BLACK
6
CONTINUOUS
10
5.99945
20
-5.17536
11
5.99792
21
-5.17548
0
LINE
8
BLACK
6
CONTINUOUS
10
5.99792
20
-5.17548
11
5.99638
21
-5.17529
0
LINE
8
BLACK
6
CONTINUOUS
10
5.99638
20
-5.17529
11
5.99492
21
-5.17481
0
LINE
8
BLACK
6
CONTINUOUS
10
5.99492
20
-5.17481
11
5.99336
21
-5.17393
0
LINE
8
BLACK
6
CONTINUOUS
10
5.99336
20
-5.17393
11
5.96954
21
-5.15725
0
LINE
8
BLACK
6
CONTINUOUS
10
5.96954
20
-5.15725
11
5.96818
21
-5.15609
0
LINE
8
BLACK
6
CONTINUOUS
10
5.96818
20
-5.15609
11
5.96723
21
-5.15488
0
LINE
8
BLACK
6
CONTINUOUS
10
5.96723
20
-5.15488
11
5.96653
21
-5.1535
0
LINE
8
BLACK
6
CONTINUOUS
10
5.96653
20
-5.1535
11
5.96612
21
-5.15201
0
LINE
8
BLACK
6
CONTINUOUS
10
5.96612
20
-5.15201
11
5.966
21
-5.15048
0
LINE
8
BLACK
6
CONTINUOUS
10
5.966
20
-5.15048
11
5.96618
21
-5.14894
0
LINE
8
BLACK
6
CONTINUOUS
10
5.96618
20
-5.14894
11
5.96666
21
-5.14748
0
LINE
8
BLACK
6
CONTINUOUS
10
5.96666
20
-5.14748
11
5.96754
21
-5.14592
0
LINE
8
BLACK
6
CONTINUOUS
10
5.96754
20
-5.14592
11
5.97586
21
-5.13403
0
LINE
8
BLACK
6
CONTINUOUS
10
5.97586
20
-5.13403
11
5.98069
21
-5.12714
0
LINE
8
BLACK
6
CONTINUOUS
10
5.98069
20
-5.12714
11
5.98069
21
-5.12714
0
LINE
8
BLACK
6
CONTINUOUS
10
5.98069
20
-5.12714
11
5.98196
21
-5.12532
0
LINE
8
BLACK
6
CONTINUOUS
10
5.98196
20
-5.12532
11
5.98313
21
-5.12397
0
LINE
8
BLACK
6
CONTINUOUS
10
5.98313
20
-5.12397
11
5.98434
21
-5.12302
0
LINE
8
BLACK
6
CONTINUOUS
10
5.98434
20
-5.12302
11
5.98572
21
-5.12232
0
LINE
8
BLACK
6
CONTINUOUS
10
5.98572
20
-5.12232
11
5.9872
21
-5.1219
0
LINE
8
BLACK
6
CONTINUOUS
10
5.9872
20
-5.1219
11
5.98874
21
-5.12179
0
LINE
8
BLACK
6
CONTINUOUS
10
5.98874
20
-5.12179
11
5.99027
21
-5.12197
0
LINE
8
BLACK
6
CONTINUOUS
10
6.09111
20
-5.11022
11
6.09257
21
-5.1107
0
LINE
8
BLACK
6
CONTINUOUS
10
6.09257
20
-5.1107
11
6.09413
21
-5.11158
0
LINE
8
BLACK
6
CONTINUOUS
10
6.09413
20
-5.11158
11
6.11795
21
-5.12826
0
LINE
8
BLACK
6
CONTINUOUS
10
6.11795
20
-5.12826
11
6.11931
21
-5.12942
0
LINE
8
BLACK
6
CONTINUOUS
10
6.11931
20
-5.12942
11
6.12026
21
-5.13064
0
LINE
8
BLACK
6
CONTINUOUS
10
6.12026
20
-5.13064
11
6.12096
21
-5.13201
0
LINE
8
BLACK
6
CONTINUOUS
10
6.12096
20
-5.13201
11
6.12137
21
-5.1335
0
LINE
8
BLACK
6
CONTINUOUS
10
6.12137
20
-5.1335
11
6.12149
21
-5.13504
0
LINE
8
BLACK
6
CONTINUOUS
10
6.12149
20
-5.13504
11
6.12131
21
-5.13657
0
LINE
8
BLACK
6
CONTINUOUS
10
6.12131
20
-5.13657
11
6.12083
21
-5.13804
0
LINE
8
BLACK
6
CONTINUOUS
10
6.12083
20
-5.13804
11
6.11995
21
-5.13959
0
LINE
8
BLACK
6
CONTINUOUS
10
6.11995
20
-5.13959
11
6.11868
21
-5.14141
0
LINE
8
BLACK
6
CONTINUOUS
10
6.11868
20
-5.14141
11
6.10809
21
-5.15653
0
LINE
8
BLACK
6
CONTINUOUS
10
6.10809
20
-5.15653
11
6.10553
21
-5.16019
0
LINE
8
BLACK
6
CONTINUOUS
10
6.10553
20
-5.16019
11
6.10437
21
-5.16155
0
LINE
8
BLACK
6
CONTINUOUS
10
6.10437
20
-5.16155
11
6.10315
21
-5.1625
0
LINE
8
BLACK
6
CONTINUOUS
10
6.10315
20
-5.1625
11
6.10178
21
-5.1632
0
LINE
8
BLACK
6
CONTINUOUS
10
6.10178
20
-5.1632
11
6.10029
21
-5.16361
0
LINE
8
BLACK
6
CONTINUOUS
10
6.10029
20
-5.16361
11
6.09875
21
-5.16373
0
LINE
8
BLACK
6
CONTINUOUS
10
6.09875
20
-5.16373
11
6.09722
21
-5.16355
0
LINE
8
BLACK
6
CONTINUOUS
10
6.09722
20
-5.16355
11
6.09575
21
-5.16307
0
LINE
8
BLACK
6
CONTINUOUS
10
6.09575
20
-5.16307
11
6.0942
21
-5.16219
0
LINE
8
BLACK
6
CONTINUOUS
10
6.0942
20
-5.16219
11
6.07037
21
-5.14551
0
LINE
8
BLACK
6
CONTINUOUS
10
6.07037
20
-5.14551
11
6.06902
21
-5.14435
0
LINE
8
BLACK
6
CONTINUOUS
10
6.06902
20
-5.14435
11
6.06807
21
-5.14313
0
LINE
8
BLACK
6
CONTINUOUS
10
6.06807
20
-5.14313
11
6.06737
21
-5.14176
0
LINE
8
BLACK
6
CONTINUOUS
10
6.06737
20
-5.14176
11
6.06695
21
-5.14027
0
LINE
8
BLACK
6
CONTINUOUS
10
6.06695
20
-5.14027
11
6.06684
21
-5.13873
0
LINE
8
BLACK
6
CONTINUOUS
10
6.06684
20
-5.13873
11
6.06702
21
-5.1372
0
LINE
8
BLACK
6
CONTINUOUS
10
6.06702
20
-5.1372
11
6.0675
21
-5.13573
0
LINE
8
BLACK
6
CONTINUOUS
10
6.0675
20
-5.13573
11
6.06838
21
-5.13418
0
LINE
8
BLACK
6
CONTINUOUS
10
6.06838
20
-5.13418
11
6.07881
21
-5.11927
0
LINE
8
BLACK
6
CONTINUOUS
10
6.07881
20
-5.11927
11
6.08153
21
-5.1154
0
LINE
8
BLACK
6
CONTINUOUS
10
6.08153
20
-5.1154
11
6.08153
21
-5.1154
0
LINE
8
BLACK
6
CONTINUOUS
10
6.08153
20
-5.1154
11
6.0828
21
-5.11358
0
LINE
8
BLACK
6
CONTINUOUS
10
6.0828
20
-5.11358
11
6.08396
21
-5.11222
0
LINE
8
BLACK
6
CONTINUOUS
10
6.08396
20
-5.11222
11
6.08518
21
-5.11127
0
LINE
8
BLACK
6
CONTINUOUS
10
6.08518
20
-5.11127
11
6.08655
21
-5.11057
0
LINE
8
BLACK
6
CONTINUOUS
10
6.08655
20
-5.11057
11
6.08804
21
-5.11016
0
LINE
8
BLACK
6
CONTINUOUS
10
6.08804
20
-5.11016
11
6.08958
21
-5.11004
0
LINE
8
BLACK
6
CONTINUOUS
10
6.08958
20
-5.11004
11
6.09111
21
-5.11022
0
LINE
8
BLACK
6
CONTINUOUS
10
6.68703
20
-5.10903
11
6.68849
21
-5.10954
0
LINE
8
BLACK
6
CONTINUOUS
10
6.68849
20
-5.10954
11
6.68982
21
-5.11033
0
LINE
8
BLACK
6
CONTINUOUS
10
6.68982
20
-5.11033
11
6.69097
21
-5.11136
0
LINE
8
BLACK
6
CONTINUOUS
10
6.69097
20
-5.11136
11
6.69189
21
-5.11259
0
LINE
8
BLACK
6
CONTINUOUS
10
6.69189
20
-5.11259
11
6.69266
21
-5.1142
0
LINE
8
BLACK
6
CONTINUOUS
10
6.69266
20
-5.1142
11
6.70261
21
-5.14153
0
LINE
8
BLACK
6
CONTINUOUS
10
6.70261
20
-5.14153
11
6.70306
21
-5.14326
0
LINE
8
BLACK
6
CONTINUOUS
10
6.70306
20
-5.14326
11
6.70314
21
-5.1448
0
LINE
8
BLACK
6
CONTINUOUS
10
6.70314
20
-5.1448
11
6.70292
21
-5.14633
0
LINE
8
BLACK
6
CONTINUOUS
10
6.70292
20
-5.14633
11
6.70241
21
-5.14779
0
LINE
8
BLACK
6
CONTINUOUS
10
6.70241
20
-5.14779
11
6.70162
21
-5.14911
0
LINE
8
BLACK
6
CONTINUOUS
10
6.70162
20
-5.14911
11
6.70059
21
-5.15026
0
LINE
8
BLACK
6
CONTINUOUS
10
6.70059
20
-5.15026
11
6.69936
21
-5.15119
0
LINE
8
BLACK
6
CONTINUOUS
10
6.69936
20
-5.15119
11
6.69775
21
-5.15196
0
LINE
8
BLACK
6
CONTINUOUS
10
6.69775
20
-5.15196
11
6.67971
21
-5.15853
0
LINE
8
BLACK
6
CONTINUOUS
10
6.67971
20
-5.15853
11
6.67683
21
-5.15957
0
LINE
8
BLACK
6
CONTINUOUS
10
6.67683
20
-5.15957
11
6.67412
21
-5.16056
0
LINE
8
BLACK
6
CONTINUOUS
10
6.67412
20
-5.16056
11
6.67239
21
-5.161
0
LINE
8
BLACK
6
CONTINUOUS
10
6.67239
20
-5.161
11
6.67085
21
-5.16109
0
LINE
8
BLACK
6
CONTINUOUS
10
6.67085
20
-5.16109
11
6.66932
21
-5.16087
0
LINE
8
BLACK
6
CONTINUOUS
10
6.66932
20
-5.16087
11
6.66787
21
-5.16036
0
LINE
8
BLACK
6
CONTINUOUS
10
6.66787
20
-5.16036
11
6.66654
21
-5.15957
0
LINE
8
BLACK
6
CONTINUOUS
10
6.66654
20
-5.15957
11
6.66539
21
-5.15854
0
LINE
8
BLACK
6
CONTINUOUS
10
6.66539
20
-5.15854
11
6.66446
21
-5.15731
0
LINE
8
BLACK
6
CONTINUOUS
10
6.66446
20
-5.15731
11
6.66369
21
-5.1557
0
LINE
8
BLACK
6
CONTINUOUS
10
6.66369
20
-5.1557
11
6.65374
21
-5.12837
0
LINE
8
BLACK
6
CONTINUOUS
10
6.65374
20
-5.12837
11
6.6533
21
-5.12664
0
LINE
8
BLACK
6
CONTINUOUS
10
6.6533
20
-5.12664
11
6.65322
21
-5.1251
0
LINE
8
BLACK
6
CONTINUOUS
10
6.65322
20
-5.1251
11
6.65344
21
-5.12357
0
LINE
8
BLACK
6
CONTINUOUS
10
6.65344
20
-5.12357
11
6.65395
21
-5.12212
0
LINE
8
BLACK
6
CONTINUOUS
10
6.65395
20
-5.12212
11
6.65473
21
-5.12079
0
LINE
8
BLACK
6
CONTINUOUS
10
6.65473
20
-5.12079
11
6.65576
21
-5.11964
0
LINE
8
BLACK
6
CONTINUOUS
10
6.65576
20
-5.11964
11
6.657
21
-5.11871
0
LINE
8
BLACK
6
CONTINUOUS
10
6.657
20
-5.11871
11
6.65861
21
-5.11794
0
LINE
8
BLACK
6
CONTINUOUS
10
6.65861
20
-5.11794
11
6.6792
21
-5.11045
0
LINE
8
BLACK
6
CONTINUOUS
10
6.6792
20
-5.11045
11
6.68015
21
-5.1101
0
LINE
8
BLACK
6
CONTINUOUS
10
6.68015
20
-5.1101
11
6.68224
21
-5.10934
0
LINE
8
BLACK
6
CONTINUOUS
10
6.68224
20
-5.10934
11
6.68397
21
-5.1089
0
LINE
8
BLACK
6
CONTINUOUS
10
6.68397
20
-5.1089
11
6.68551
21
-5.10881
0
LINE
8
BLACK
6
CONTINUOUS
10
6.68551
20
-5.10881
11
6.68703
21
-5.10903
0
LINE
8
BLACK
6
CONTINUOUS
10
5.36589
20
-5.06375
11
5.37183
21
-5.06555
0
LINE
8
BLACK
6
CONTINUOUS
10
5.37183
20
-5.06555
11
5.37357
21
-5.06648
0
LINE
8
BLACK
6
CONTINUOUS
10
5.37357
20
-5.06648
11
5.37731
21
-5.06848
0
LINE
8
BLACK
6
CONTINUOUS
10
5.37731
20
-5.06848
11
5.37857
21
-5.06951
0
LINE
8
BLACK
6
CONTINUOUS
10
5.37857
20
-5.06951
11
5.38211
21
-5.07242
0
LINE
8
BLACK
6
CONTINUOUS
10
5.38211
20
-5.07242
11
5.38405
21
-5.07478
0
LINE
8
BLACK
6
CONTINUOUS
10
5.38405
20
-5.07478
11
5.38606
21
-5.07722
0
LINE
8
BLACK
6
CONTINUOUS
10
5.38606
20
-5.07722
11
5.38718
21
-5.07934
0
LINE
8
BLACK
6
CONTINUOUS
10
5.38718
20
-5.07934
11
5.38898
21
-5.0827
0
LINE
8
BLACK
6
CONTINUOUS
10
5.38898
20
-5.0827
11
5.39079
21
-5.08865
0
LINE
8
BLACK
6
CONTINUOUS
10
5.39079
20
-5.08865
11
5.3914
21
-5.09483
0
LINE
8
BLACK
6
CONTINUOUS
10
5.3914
20
-5.09483
11
5.39079
21
-5.10101
0
LINE
8
BLACK
6
CONTINUOUS
10
5.39079
20
-5.10101
11
5.38898
21
-5.10696
0
LINE
8
BLACK
6
CONTINUOUS
10
5.38898
20
-5.10696
11
5.38787
21
-5.10903
0
LINE
8
BLACK
6
CONTINUOUS
10
5.38787
20
-5.10903
11
5.38606
21
-5.11243
0
LINE
8
BLACK
6
CONTINUOUS
10
5.38606
20
-5.11243
11
5.3831
21
-5.11603
0
LINE
8
BLACK
6
CONTINUOUS
10
5.3831
20
-5.11603
11
5.35029
21
-5.14885
0
LINE
8
BLACK
6
CONTINUOUS
10
5.35029
20
-5.14885
11
5.34669
21
-5.1518
0
LINE
8
BLACK
6
CONTINUOUS
10
5.34669
20
-5.1518
11
5.34351
21
-5.1535
0
LINE
8
BLACK
6
CONTINUOUS
10
5.34351
20
-5.1535
11
5.34121
21
-5.15473
0
LINE
8
BLACK
6
CONTINUOUS
10
5.34121
20
-5.15473
11
5.33947
21
-5.15526
0
LINE
8
BLACK
6
CONTINUOUS
10
5.33947
20
-5.15526
11
5.33527
21
-5.15653
0
LINE
8
BLACK
6
CONTINUOUS
10
5.33527
20
-5.15653
11
5.32908
21
-5.15714
0
LINE
8
BLACK
6
CONTINUOUS
10
5.32908
20
-5.15714
11
5.3229
21
-5.15653
0
LINE
8
BLACK
6
CONTINUOUS
10
5.3229
20
-5.15653
11
5.3187
21
-5.15526
0
LINE
8
BLACK
6
CONTINUOUS
10
5.3187
20
-5.15526
11
5.31696
21
-5.15473
0
LINE
8
BLACK
6
CONTINUOUS
10
5.31696
20
-5.15473
11
5.31466
21
-5.1535
0
LINE
8
BLACK
6
CONTINUOUS
10
5.31466
20
-5.1535
11
5.31148
21
-5.1518
0
LINE
8
BLACK
6
CONTINUOUS
10
5.31148
20
-5.1518
11
5.30978
21
-5.1504
0
LINE
8
BLACK
6
CONTINUOUS
10
5.30978
20
-5.1504
11
5.30668
21
-5.14786
0
LINE
8
BLACK
6
CONTINUOUS
10
5.30668
20
-5.14786
11
5.30379
21
-5.14435
0
LINE
8
BLACK
6
CONTINUOUS
10
5.30379
20
-5.14435
11
5.30274
21
-5.14306
0
LINE
8
BLACK
6
CONTINUOUS
10
5.30274
20
-5.14306
11
5.30024
21
-5.13839
0
LINE
8
BLACK
6
CONTINUOUS
10
5.30024
20
-5.13839
11
5.29981
21
-5.13758
0
LINE
8
BLACK
6
CONTINUOUS
10
5.29981
20
-5.13758
11
5.29857
21
-5.1335
0
LINE
8
BLACK
6
CONTINUOUS
10
5.29857
20
-5.1335
11
5.29801
21
-5.13163
0
LINE
8
BLACK
6
CONTINUOUS
10
5.29801
20
-5.13163
11
5.2974
21
-5.12545
0
LINE
8
BLACK
6
CONTINUOUS
10
5.2974
20
-5.12545
11
5.29801
21
-5.11927
0
LINE
8
BLACK
6
CONTINUOUS
10
5.29801
20
-5.11927
11
5.29899
21
-5.11603
0
LINE
8
BLACK
6
CONTINUOUS
10
5.29899
20
-5.11603
11
5.29981
21
-5.11333
0
LINE
8
BLACK
6
CONTINUOUS
10
5.29981
20
-5.11333
11
5.30098
21
-5.11114
0
LINE
8
BLACK
6
CONTINUOUS
10
5.30098
20
-5.11114
11
5.30274
21
-5.10785
0
LINE
8
BLACK
6
CONTINUOUS
10
5.30274
20
-5.10785
11
5.30569
21
-5.10425
0
LINE
8
BLACK
6
CONTINUOUS
10
5.30569
20
-5.10425
11
5.3385
21
-5.07143
0
LINE
8
BLACK
6
CONTINUOUS
10
5.3385
20
-5.07143
11
5.3421
21
-5.06848
0
LINE
8
BLACK
6
CONTINUOUS
10
5.3421
20
-5.06848
11
5.34484
21
-5.06702
0
LINE
8
BLACK
6
CONTINUOUS
10
5.34484
20
-5.06702
11
5.34758
21
-5.06555
0
LINE
8
BLACK
6
CONTINUOUS
10
5.34758
20
-5.06555
11
5.35353
21
-5.06375
0
LINE
8
BLACK
6
CONTINUOUS
10
5.35353
20
-5.06375
11
5.35971
21
-5.06314
0
LINE
8
BLACK
6
CONTINUOUS
10
5.35971
20
-5.06314
11
5.36589
21
-5.06375
0
LINE
8
BLACK
6
CONTINUOUS
10
6.4575
20
-5.06375
11
6.46047
21
-5.06465
0
LINE
8
BLACK
6
CONTINUOUS
10
6.46047
20
-5.06465
11
6.46344
21
-5.06555
0
LINE
8
BLACK
6
CONTINUOUS
10
6.46344
20
-5.06555
11
6.46535
21
-5.06657
0
LINE
8
BLACK
6
CONTINUOUS
10
6.46535
20
-5.06657
11
6.46892
21
-5.06848
0
LINE
8
BLACK
6
CONTINUOUS
10
6.46892
20
-5.06848
11
6.47252
21
-5.07143
0
LINE
8
BLACK
6
CONTINUOUS
10
6.47252
20
-5.07143
11
6.50533
21
-5.10425
0
LINE
8
BLACK
6
CONTINUOUS
10
6.50533
20
-5.10425
11
6.50829
21
-5.10785
0
LINE
8
BLACK
6
CONTINUOUS
10
6.50829
20
-5.10785
11
6.50952
21
-5.11016
0
LINE
8
BLACK
6
CONTINUOUS
10
6.50952
20
-5.11016
11
6.51121
21
-5.11333
0
LINE
8
BLACK
6
CONTINUOUS
10
6.51121
20
-5.11333
11
6.51302
21
-5.11927
0
LINE
8
BLACK
6
CONTINUOUS
10
6.51302
20
-5.11927
11
6.51363
21
-5.12545
0
LINE
8
BLACK
6
CONTINUOUS
10
6.51363
20
-5.12545
11
6.51302
21
-5.13163
0
LINE
8
BLACK
6
CONTINUOUS
10
6.51302
20
-5.13163
11
6.51121
21
-5.13758
0
LINE
8
BLACK
6
CONTINUOUS
10
6.51121
20
-5.13758
11
6.51095
21
-5.13807
0
LINE
8
BLACK
6
CONTINUOUS
10
6.51095
20
-5.13807
11
6.50829
21
-5.14306
0
LINE
8
BLACK
6
CONTINUOUS
10
6.50829
20
-5.14306
11
6.50723
21
-5.14435
0
LINE
8
BLACK
6
CONTINUOUS
10
6.50723
20
-5.14435
11
6.50435
21
-5.14786
0
LINE
8
BLACK
6
CONTINUOUS
10
6.50435
20
-5.14786
11
6.50125
21
-5.1504
0
LINE
8
BLACK
6
CONTINUOUS
10
6.50125
20
-5.1504
11
6.49954
21
-5.1518
0
LINE
8
BLACK
6
CONTINUOUS
10
6.49954
20
-5.1518
11
6.49724
21
-5.15303
0
LINE
8
BLACK
6
CONTINUOUS
10
6.49724
20
-5.15303
11
6.49407
21
-5.15473
0
LINE
8
BLACK
6
CONTINUOUS
10
6.49407
20
-5.15473
11
6.48812
21
-5.15653
0
LINE
8
BLACK
6
CONTINUOUS
10
6.48812
20
-5.15653
11
6.48194
21
-5.15714
0
LINE
8
BLACK
6
CONTINUOUS
10
6.48194
20
-5.15714
11
6.47576
21
-5.15653
0
LINE
8
BLACK
6
CONTINUOUS
10
6.47576
20
-5.15653
11
6.46981
21
-5.15473
0
LINE
8
BLACK
6
CONTINUOUS
10
6.46981
20
-5.15473
11
6.46664
21
-5.15303
0
LINE
8
BLACK
6
CONTINUOUS
10
6.46664
20
-5.15303
11
6.46433
21
-5.1518
0
LINE
8
BLACK
6
CONTINUOUS
10
6.46433
20
-5.1518
11
6.46074
21
-5.14885
0
LINE
8
BLACK
6
CONTINUOUS
10
6.46074
20
-5.14885
11
6.42792
21
-5.11603
0
LINE
8
BLACK
6
CONTINUOUS
10
6.42792
20
-5.11603
11
6.42497
21
-5.11243
0
LINE
8
BLACK
6
CONTINUOUS
10
6.42497
20
-5.11243
11
6.4227
21
-5.10819
0
LINE
8
BLACK
6
CONTINUOUS
10
6.4227
20
-5.10819
11
6.42204
21
-5.10696
0
LINE
8
BLACK
6
CONTINUOUS
10
6.42204
20
-5.10696
11
6.42062
21
-5.10229
0
LINE
8
BLACK
6
CONTINUOUS
10
6.42062
20
-5.10229
11
6.42024
21
-5.10101
0
LINE
8
BLACK
6
CONTINUOUS
10
6.42024
20
-5.10101
11
6.41963
21
-5.09483
0
LINE
8
BLACK
6
CONTINUOUS
10
6.41963
20
-5.09483
11
6.42024
21
-5.08865
0
LINE
8
BLACK
6
CONTINUOUS
10
6.42024
20
-5.08865
11
6.42204
21
-5.0827
0
LINE
8
BLACK
6
CONTINUOUS
10
6.42204
20
-5.0827
11
6.42204
21
-5.0827
0
LINE
8
BLACK
6
CONTINUOUS
10
6.42204
20
-5.0827
11
6.42372
21
-5.07956
0
LINE
8
BLACK
6
CONTINUOUS
10
6.42372
20
-5.07956
11
6.42497
21
-5.07722
0
LINE
8
BLACK
6
CONTINUOUS
10
6.42497
20
-5.07722
11
6.42698
21
-5.07478
0
LINE
8
BLACK
6
CONTINUOUS
10
6.42698
20
-5.07478
11
6.42891
21
-5.07242
0
LINE
8
BLACK
6
CONTINUOUS
10
6.42891
20
-5.07242
11
6.43245
21
-5.06951
0
LINE
8
BLACK
6
CONTINUOUS
10
6.43245
20
-5.06951
11
6.43371
21
-5.06848
0
LINE
8
BLACK
6
CONTINUOUS
10
6.43371
20
-5.06848
11
6.43728
21
-5.06657
0
LINE
8
BLACK
6
CONTINUOUS
10
6.43728
20
-5.06657
11
6.43919
21
-5.06555
0
LINE
8
BLACK
6
CONTINUOUS
10
6.43919
20
-5.06555
11
6.44216
21
-5.06465
0
LINE
8
BLACK
6
CONTINUOUS
10
6.44216
20
-5.06465
11
6.44513
21
-5.06375
0
LINE
8
BLACK
6
CONTINUOUS
10
6.44513
20
-5.06375
11
6.45132
21
-5.06314
0
LINE
8
BLACK
6
CONTINUOUS
10
6.45132
20
-5.06314
11
6.4575
21
-5.06375
0
LINE
8
BLACK
6
CONTINUOUS
10
6.2138
20
-5.10244
11
6.21528
21
-5.10289
0
LINE
8
BLACK
6
CONTINUOUS
10
6.21528
20
-5.10289
11
6.21664
21
-5.10362
0
LINE
8
BLACK
6
CONTINUOUS
10
6.21664
20
-5.10362
11
6.21802
21
-5.10475
0
LINE
8
BLACK
6
CONTINUOUS
10
6.21802
20
-5.10475
11
6.2358
21
-5.12253
0
LINE
8
BLACK
6
CONTINUOUS
10
6.2358
20
-5.12253
11
6.23694
21
-5.12391
0
LINE
8
BLACK
6
CONTINUOUS
10
6.23694
20
-5.12391
11
6.23766
21
-5.12527
0
LINE
8
BLACK
6
CONTINUOUS
10
6.23766
20
-5.12527
11
6.23811
21
-5.12675
0
LINE
8
BLACK
6
CONTINUOUS
10
6.23811
20
-5.12675
11
6.23826
21
-5.12828
0
LINE
8
BLACK
6
CONTINUOUS
10
6.23826
20
-5.12828
11
6.23811
21
-5.12982
0
LINE
8
BLACK
6
CONTINUOUS
10
6.23811
20
-5.12982
11
6.23766
21
-5.13129
0
LINE
8
BLACK
6
CONTINUOUS
10
6.23766
20
-5.13129
11
6.23694
21
-5.13265
0
LINE
8
BLACK
6
CONTINUOUS
10
6.23694
20
-5.13265
11
6.2358
21
-5.13403
0
LINE
8
BLACK
6
CONTINUOUS
10
6.2358
20
-5.13403
11
6.21524
21
-5.1546
0
LINE
8
BLACK
6
CONTINUOUS
10
6.21524
20
-5.1546
11
6.21386
21
-5.15573
0
LINE
8
BLACK
6
CONTINUOUS
10
6.21386
20
-5.15573
11
6.2125
21
-5.15646
0
LINE
8
BLACK
6
CONTINUOUS
10
6.2125
20
-5.15646
11
6.21102
21
-5.15691
0
LINE
8
BLACK
6
CONTINUOUS
10
6.21102
20
-5.15691
11
6.20949
21
-5.15706
0
LINE
8
BLACK
6
CONTINUOUS
10
6.20949
20
-5.15706
11
6.20795
21
-5.15691
0
LINE
8
BLACK
6
CONTINUOUS
10
6.20795
20
-5.15691
11
6.20647
21
-5.15646
0
LINE
8
BLACK
6
CONTINUOUS
10
6.20647
20
-5.15646
11
6.20511
21
-5.15573
0
LINE
8
BLACK
6
CONTINUOUS
10
6.20511
20
-5.15573
11
6.20373
21
-5.1546
0
LINE
8
BLACK
6
CONTINUOUS
10
6.20373
20
-5.1546
11
6.18595
21
-5.13682
0
LINE
8
BLACK
6
CONTINUOUS
10
6.18595
20
-5.13682
11
6.18482
21
-5.13544
0
LINE
8
BLACK
6
CONTINUOUS
10
6.18482
20
-5.13544
11
6.18409
21
-5.13408
0
LINE
8
BLACK
6
CONTINUOUS
10
6.18409
20
-5.13408
11
6.18364
21
-5.1326
0
LINE
8
BLACK
6
CONTINUOUS
10
6.18364
20
-5.1326
11
6.18349
21
-5.13107
0
LINE
8
BLACK
6
CONTINUOUS
10
6.18349
20
-5.13107
11
6.18364
21
-5.12953
0
LINE
8
BLACK
6
CONTINUOUS
10
6.18364
20
-5.12953
11
6.18409
21
-5.12805
0
LINE
8
BLACK
6
CONTINUOUS
10
6.18409
20
-5.12805
11
6.18482
21
-5.12669
0
LINE
8
BLACK
6
CONTINUOUS
10
6.18482
20
-5.12669
11
6.18595
21
-5.12531
0
LINE
8
BLACK
6
CONTINUOUS
10
6.18595
20
-5.12531
11
6.20652
21
-5.10475
0
LINE
8
BLACK
6
CONTINUOUS
10
6.20652
20
-5.10475
11
6.2079
21
-5.10362
0
LINE
8
BLACK
6
CONTINUOUS
10
6.2079
20
-5.10362
11
6.20926
21
-5.10289
0
LINE
8
BLACK
6
CONTINUOUS
10
6.20926
20
-5.10289
11
6.21073
21
-5.10244
0
LINE
8
BLACK
6
CONTINUOUS
10
6.21073
20
-5.10244
11
6.21227
21
-5.10229
0
LINE
8
BLACK
6
CONTINUOUS
10
6.21227
20
-5.10229
11
6.2138
21
-5.10244
0
LINE
8
BLACK
6
CONTINUOUS
10
6.03467
20
-5.07071
11
6.03614
21
-5.07119
0
LINE
8
BLACK
6
CONTINUOUS
10
6.03614
20
-5.07119
11
6.03769
21
-5.07206
0
LINE
8
BLACK
6
CONTINUOUS
10
6.03769
20
-5.07206
11
6.06152
21
-5.08874
0
LINE
8
BLACK
6
CONTINUOUS
10
6.06152
20
-5.08874
11
6.06287
21
-5.08991
0
LINE
8
BLACK
6
CONTINUOUS
10
6.06287
20
-5.08991
11
6.06382
21
-5.09112
0
LINE
8
BLACK
6
CONTINUOUS
10
6.06382
20
-5.09112
11
6.06452
21
-5.0925
0
LINE
8
BLACK
6
CONTINUOUS
10
6.06452
20
-5.0925
11
6.06494
21
-5.09398
0
LINE
8
BLACK
6
CONTINUOUS
10
6.06494
20
-5.09398
11
6.06505
21
-5.09552
0
LINE
8
BLACK
6
CONTINUOUS
10
6.06505
20
-5.09552
11
6.06487
21
-5.09705
0
LINE
8
BLACK
6
CONTINUOUS
10
6.06487
20
-5.09705
11
6.06439
21
-5.09852
0
LINE
8
BLACK
6
CONTINUOUS
10
6.06439
20
-5.09852
11
6.06351
21
-5.10007
0
LINE
8
BLACK
6
CONTINUOUS
10
6.06351
20
-5.10007
11
6.06224
21
-5.10189
0
LINE
8
BLACK
6
CONTINUOUS
10
6.06224
20
-5.10189
11
6.051
21
-5.11794
0
LINE
8
BLACK
6
CONTINUOUS
10
6.051
20
-5.11794
11
6.04909
21
-5.12067
0
LINE
8
BLACK
6
CONTINUOUS
10
6.04909
20
-5.12067
11
6.04793
21
-5.12203
0
LINE
8
BLACK
6
CONTINUOUS
10
6.04793
20
-5.12203
11
6.04671
21
-5.12298
0
LINE
8
BLACK
6
CONTINUOUS
10
6.04671
20
-5.12298
11
6.04534
21
-5.12368
0
LINE
8
BLACK
6
CONTINUOUS
10
6.04534
20
-5.12368
11
6.04385
21
-5.12409
0
LINE
8
BLACK
6
CONTINUOUS
10
6.04385
20
-5.12409
11
6.04231
21
-5.12421
0
LINE
8
BLACK
6
CONTINUOUS
10
6.04231
20
-5.12421
11
6.04078
21
-5.12403
0
LINE
8
BLACK
6
CONTINUOUS
10
6.04078
20
-5.12403
11
6.03932
21
-5.12355
0
LINE
8
BLACK
6
CONTINUOUS
10
6.03932
20
-5.12355
11
6.03776
21
-5.12267
0
LINE
8
BLACK
6
CONTINUOUS
10
6.03776
20
-5.12267
11
6.01394
21
-5.10599
0
LINE
8
BLACK
6
CONTINUOUS
10
6.01394
20
-5.10599
11
6.01258
21
-5.10483
0
LINE
8
BLACK
6
CONTINUOUS
10
6.01258
20
-5.10483
11
6.01163
21
-5.10361
0
LINE
8
BLACK
6
CONTINUOUS
10
6.01163
20
-5.10361
11
6.01093
21
-5.10224
0
LINE
8
BLACK
6
CONTINUOUS
10
6.01093
20
-5.10224
11
6.01052
21
-5.10075
0
LINE
8
BLACK
6
CONTINUOUS
10
6.01052
20
-5.10075
11
6.0104
21
-5.09921
0
LINE
8
BLACK
6
CONTINUOUS
10
6.0104
20
-5.09921
11
6.01058
21
-5.09768
0
LINE
8
BLACK
6
CONTINUOUS
10
6.01058
20
-5.09768
11
6.01106
21
-5.09622
0
LINE
8
BLACK
6
CONTINUOUS
10
6.01106
20
-5.09622
11
6.01194
21
-5.09466
0
LINE
8
BLACK
6
CONTINUOUS
10
6.01194
20
-5.09466
11
6.01948
21
-5.08388
0
LINE
8
BLACK
6
CONTINUOUS
10
6.01948
20
-5.08388
11
6.02509
21
-5.07588
0
LINE
8
BLACK
6
CONTINUOUS
10
6.02509
20
-5.07588
11
6.02509
21
-5.07588
0
LINE
8
BLACK
6
CONTINUOUS
10
6.02509
20
-5.07588
11
6.02636
21
-5.07406
0
LINE
8
BLACK
6
CONTINUOUS
10
6.02636
20
-5.07406
11
6.02752
21
-5.07271
0
LINE
8
BLACK
6
CONTINUOUS
10
6.02752
20
-5.07271
11
6.02874
21
-5.07175
0
LINE
8
BLACK
6
CONTINUOUS
10
6.02874
20
-5.07175
11
6.03011
21
-5.07106
0
LINE
8
BLACK
6
CONTINUOUS
10
6.03011
20
-5.07106
11
6.0316
21
-5.07064
0
LINE
8
BLACK
6
CONTINUOUS
10
6.0316
20
-5.07064
11
6.03314
21
-5.07052
0
LINE
8
BLACK
6
CONTINUOUS
10
6.03314
20
-5.07052
11
6.03467
21
-5.07071
0
LINE
8
BLACK
6
CONTINUOUS
10
5.97786
20
-5.08853
11
5.95749
21
-5.11762
0
LINE
8
BLACK
6
CONTINUOUS
10
5.95749
20
-5.11762
11
5.92518
21
-5.09499
0
LINE
8
BLACK
6
CONTINUOUS
10
5.92518
20
-5.09499
11
5.94554
21
-5.0659
0
LINE
8
BLACK
6
CONTINUOUS
10
5.94554
20
-5.0659
11
5.97786
21
-5.08853
0
LINE
8
BLACK
6
CONTINUOUS
10
6.26252
20
-5.05372
11
6.264
21
-5.05417
0
LINE
8
BLACK
6
CONTINUOUS
10
6.264
20
-5.05417
11
6.26536
21
-5.0549
0
LINE
8
BLACK
6
CONTINUOUS
10
6.26536
20
-5.0549
11
6.26674
21
-5.05603
0
LINE
8
BLACK
6
CONTINUOUS
10
6.26674
20
-5.05603
11
6.28452
21
-5.07381
0
LINE
8
BLACK
6
CONTINUOUS
10
6.28452
20
-5.07381
11
6.28565
21
-5.07519
0
LINE
8
BLACK
6
CONTINUOUS
10
6.28565
20
-5.07519
11
6.28638
21
-5.07655
0
LINE
8
BLACK
6
CONTINUOUS
10
6.28638
20
-5.07655
11
6.28683
21
-5.07803
0
LINE
8
BLACK
6
CONTINUOUS
10
6.28683
20
-5.07803
11
6.28698
21
-5.07956
0
LINE
8
BLACK
6
CONTINUOUS
10
6.28698
20
-5.07956
11
6.28683
21
-5.0811
0
LINE
8
BLACK
6
CONTINUOUS
10
6.28683
20
-5.0811
11
6.28638
21
-5.08258
0
LINE
8
BLACK
6
CONTINUOUS
10
6.28638
20
-5.08258
11
6.28565
21
-5.08394
0
LINE
8
BLACK
6
CONTINUOUS
10
6.28565
20
-5.08394
11
6.28452
21
-5.08532
0
LINE
8
BLACK
6
CONTINUOUS
10
6.28452
20
-5.08532
11
6.26396
21
-5.10588
0
LINE
8
BLACK
6
CONTINUOUS
10
6.26396
20
-5.10588
11
6.26258
21
-5.10701
0
LINE
8
BLACK
6
CONTINUOUS
10
6.26258
20
-5.10701
11
6.26121
21
-5.10774
0
LINE
8
BLACK
6
CONTINUOUS
10
6.26121
20
-5.10774
11
6.25974
21
-5.10819
0
LINE
8
BLACK
6
CONTINUOUS
10
6.25974
20
-5.10819
11
6.2582
21
-5.10834
0
LINE
8
BLACK
6
CONTINUOUS
10
6.2582
20
-5.10834
11
6.25667
21
-5.10819
0
LINE
8
BLACK
6
CONTINUOUS
10
6.25667
20
-5.10819
11
6.25519
21
-5.10774
0
LINE
8
BLACK
6
CONTINUOUS
10
6.25519
20
-5.10774
11
6.25383
21
-5.10701
0
LINE
8
BLACK
6
CONTINUOUS
10
6.25383
20
-5.10701
11
6.25245
21
-5.10588
0
LINE
8
BLACK
6
CONTINUOUS
10
6.25245
20
-5.10588
11
6.23467
21
-5.0881
0
LINE
8
BLACK
6
CONTINUOUS
10
6.23467
20
-5.0881
11
6.23354
21
-5.08672
0
LINE
8
BLACK
6
CONTINUOUS
10
6.23354
20
-5.08672
11
6.23281
21
-5.08536
0
LINE
8
BLACK
6
CONTINUOUS
10
6.23281
20
-5.08536
11
6.23236
21
-5.08388
0
LINE
8
BLACK
6
CONTINUOUS
10
6.23236
20
-5.08388
11
6.23221
21
-5.08235
0
LINE
8
BLACK
6
CONTINUOUS
10
6.23221
20
-5.08235
11
6.23236
21
-5.08081
0
LINE
8
BLACK
6
CONTINUOUS
10
6.23236
20
-5.08081
11
6.23281
21
-5.07934
0
LINE
8
BLACK
6
CONTINUOUS
10
6.23281
20
-5.07934
11
6.23354
21
-5.07798
0
LINE
8
BLACK
6
CONTINUOUS
10
6.23354
20
-5.07798
11
6.23467
21
-5.0766
0
LINE
8
BLACK
6
CONTINUOUS
10
6.23467
20
-5.0766
11
6.25523
21
-5.05603
0
LINE
8
BLACK
6
CONTINUOUS
10
6.25523
20
-5.05603
11
6.25661
21
-5.0549
0
LINE
8
BLACK
6
CONTINUOUS
10
6.25661
20
-5.0549
11
6.25798
21
-5.05417
0
LINE
8
BLACK
6
CONTINUOUS
10
6.25798
20
-5.05417
11
6.25945
21
-5.05372
0
LINE
8
BLACK
6
CONTINUOUS
10
6.25945
20
-5.05372
11
6.26099
21
-5.05357
0
LINE
8
BLACK
6
CONTINUOUS
10
6.26099
20
-5.05357
11
6.26252
21
-5.05372
0
LINE
8
BLACK
6
CONTINUOUS
10
5.89191
20
-5.074
11
5.87154
21
-5.10309
0
LINE
8
BLACK
6
CONTINUOUS
10
5.87154
20
-5.10309
11
5.83922
21
-5.08047
0
LINE
8
BLACK
6
CONTINUOUS
10
5.83922
20
-5.08047
11
5.85959
21
-5.05138
0
LINE
8
BLACK
6
CONTINUOUS
10
5.85959
20
-5.05138
11
5.89191
21
-5.074
0
LINE
8
BLACK
6
CONTINUOUS
10
6.8027
20
-4.99607
11
6.80991
21
-4.99774
0
LINE
8
BLACK
6
CONTINUOUS
10
6.80991
20
-4.99774
11
6.81013
21
-4.99779
0
LINE
8
BLACK
6
CONTINUOUS
10
6.81013
20
-4.99779
11
6.81203
21
-4.99843
0
LINE
8
BLACK
6
CONTINUOUS
10
6.81203
20
-4.99843
11
6.81566
21
-4.99965
0
LINE
8
BLACK
6
CONTINUOUS
10
6.81566
20
-4.99965
11
6.8224
21
-5.00353
0
LINE
8
BLACK
6
CONTINUOUS
10
6.8224
20
-5.00353
11
6.82827
21
-5.00864
0
LINE
8
BLACK
6
CONTINUOUS
10
6.82827
20
-5.00864
11
6.83302
21
-5.01481
0
LINE
8
BLACK
6
CONTINUOUS
10
6.83302
20
-5.01481
11
6.83648
21
-5.02178
0
LINE
8
BLACK
6
CONTINUOUS
10
6.83648
20
-5.02178
11
6.83822
21
-5.02825
0
LINE
8
BLACK
6
CONTINUOUS
10
6.83822
20
-5.02825
11
6.83851
21
-5.02929
0
LINE
8
BLACK
6
CONTINUOUS
10
6.83851
20
-5.02929
11
6.83881
21
-5.03379
0
LINE
8
BLACK
6
CONTINUOUS
10
6.83881
20
-5.03379
11
6.83903
21
-5.03706
0
LINE
8
BLACK
6
CONTINUOUS
10
6.83903
20
-5.03706
11
6.83803
21
-5.04478
0
LINE
8
BLACK
6
CONTINUOUS
10
6.83803
20
-5.04478
11
6.83555
21
-5.05215
0
LINE
8
BLACK
6
CONTINUOUS
10
6.83555
20
-5.05215
11
6.83555
21
-5.05215
0
LINE
8
BLACK
6
CONTINUOUS
10
6.83555
20
-5.05215
11
6.83167
21
-5.0589
0
LINE
8
BLACK
6
CONTINUOUS
10
6.83167
20
-5.0589
11
6.82911
21
-5.06183
0
LINE
8
BLACK
6
CONTINUOUS
10
6.82911
20
-5.06183
11
6.82655
21
-5.06476
0
LINE
8
BLACK
6
CONTINUOUS
10
6.82655
20
-5.06476
11
6.82039
21
-5.06951
0
LINE
8
BLACK
6
CONTINUOUS
10
6.82039
20
-5.06951
11
6.81728
21
-5.07106
0
LINE
8
BLACK
6
CONTINUOUS
10
6.81728
20
-5.07106
11
6.81342
21
-5.07297
0
LINE
8
BLACK
6
CONTINUOUS
10
6.81342
20
-5.07297
11
6.81342
21
-5.07297
0
LINE
8
BLACK
6
CONTINUOUS
10
6.81342
20
-5.07297
11
6.81342
21
-5.07297
0
LINE
8
BLACK
6
CONTINUOUS
10
6.81342
20
-5.07297
11
6.8059
21
-5.075
0
LINE
8
BLACK
6
CONTINUOUS
10
6.8059
20
-5.075
11
6.79814
21
-5.07553
0
LINE
8
BLACK
6
CONTINUOUS
10
6.79814
20
-5.07553
11
6.79236
21
-5.07478
0
LINE
8
BLACK
6
CONTINUOUS
10
6.79236
20
-5.07478
11
6.78493
21
-5.07306
0
LINE
8
BLACK
6
CONTINUOUS
10
6.78493
20
-5.07306
11
6.78493
21
-5.07306
0
LINE
8
BLACK
6
CONTINUOUS
10
6.78493
20
-5.07306
11
6.78493
21
-5.07306
0
LINE
8
BLACK
6
CONTINUOUS
10
6.78493
20
-5.07306
11
6.78227
21
-5.07217
0
LINE
8
BLACK
6
CONTINUOUS
10
6.78227
20
-5.07217
11
6.7794
21
-5.0712
0
LINE
8
BLACK
6
CONTINUOUS
10
6.7794
20
-5.0712
11
6.77265
21
-5.06732
0
LINE
8
BLACK
6
CONTINUOUS
10
6.77265
20
-5.06732
11
6.76679
21
-5.06221
0
LINE
8
BLACK
6
CONTINUOUS
10
6.76679
20
-5.06221
11
6.76679
21
-5.06221
0
LINE
8
BLACK
6
CONTINUOUS
10
6.76679
20
-5.06221
11
6.76204
21
-5.05604
0
LINE
8
BLACK
6
CONTINUOUS
10
6.76204
20
-5.05604
11
6.75858
21
-5.04907
0
LINE
8
BLACK
6
CONTINUOUS
10
6.75858
20
-5.04907
11
6.75858
21
-5.04907
0
LINE
8
BLACK
6
CONTINUOUS
10
6.75858
20
-5.04907
11
6.75655
21
-5.04156
0
LINE
8
BLACK
6
CONTINUOUS
10
6.75655
20
-5.04156
11
6.75603
21
-5.03379
0
LINE
8
BLACK
6
CONTINUOUS
10
6.75603
20
-5.03379
11
6.75703
21
-5.02607
0
LINE
8
BLACK
6
CONTINUOUS
10
6.75703
20
-5.02607
11
6.75951
21
-5.0187
0
LINE
8
BLACK
6
CONTINUOUS
10
6.75951
20
-5.0187
11
6.76339
21
-5.01195
0
LINE
8
BLACK
6
CONTINUOUS
10
6.76339
20
-5.01195
11
6.76851
21
-5.00609
0
LINE
8
BLACK
6
CONTINUOUS
10
6.76851
20
-5.00609
11
6.76851
21
-5.00609
0
LINE
8
BLACK
6
CONTINUOUS
10
6.76851
20
-5.00609
11
6.77467
21
-5.00134
0
LINE
8
BLACK
6
CONTINUOUS
10
6.77467
20
-5.00134
11
6.78164
21
-4.99788
0
LINE
8
BLACK
6
CONTINUOUS
10
6.78164
20
-4.99788
11
6.78164
21
-4.99788
0
LINE
8
BLACK
6
CONTINUOUS
10
6.78164
20
-4.99788
11
6.78164
21
-4.99788
0
LINE
8
BLACK
6
CONTINUOUS
10
6.78164
20
-4.99788
11
6.78915
21
-4.99585
0
LINE
8
BLACK
6
CONTINUOUS
10
6.78915
20
-4.99585
11
6.79692
21
-4.99532
0
LINE
8
BLACK
6
CONTINUOUS
10
6.79692
20
-4.99532
11
6.8027
21
-4.99607
0
LINE
8
BLACK
6
CONTINUOUS
10
6.68069
20
-4.97758
11
6.66631
21
-5.05908
0
LINE
8
BLACK
6
CONTINUOUS
10
6.66631
20
-5.05908
11
6.6042
21
-5.04813
0
LINE
8
BLACK
6
CONTINUOUS
10
6.6042
20
-5.04813
11
6.61857
21
-4.96663
0
LINE
8
BLACK
6
CONTINUOUS
10
6.61857
20
-4.96663
11
6.68069
21
-4.97758
0
LINE
8
BLACK
6
CONTINUOUS
10
6.15808
20
-4.9932
11
6.15954
21
-4.99368
0
LINE
8
BLACK
6
CONTINUOUS
10
6.15954
20
-4.99368
11
6.1611
21
-4.99456
0
LINE
8
BLACK
6
CONTINUOUS
10
6.1611
20
-4.99456
11
6.16292
21
-4.99583
0
LINE
8
BLACK
6
CONTINUOUS
10
6.16292
20
-4.99583
11
6.17594
21
-5.00495
0
LINE
8
BLACK
6
CONTINUOUS
10
6.17594
20
-5.00495
11
6.1817
21
-5.00898
0
LINE
8
BLACK
6
CONTINUOUS
10
6.1817
20
-5.00898
11
6.18305
21
-5.01014
0
LINE
8
BLACK
6
CONTINUOUS
10
6.18305
20
-5.01014
11
6.184
21
-5.01136
0
LINE
8
BLACK
6
CONTINUOUS
10
6.184
20
-5.01136
11
6.1847
21
-5.01273
0
LINE
8
BLACK
6
CONTINUOUS
10
6.1847
20
-5.01273
11
6.18512
21
-5.01422
0
LINE
8
BLACK
6
CONTINUOUS
10
6.18512
20
-5.01422
11
6.18524
21
-5.01576
0
LINE
8
BLACK
6
CONTINUOUS
10
6.18524
20
-5.01576
11
6.18505
21
-5.01729
0
LINE
8
BLACK
6
CONTINUOUS
10
6.18505
20
-5.01729
11
6.18457
21
-5.01875
0
LINE
8
BLACK
6
CONTINUOUS
10
6.18457
20
-5.01875
11
6.1837
21
-5.02031
0
LINE
8
BLACK
6
CONTINUOUS
10
6.1837
20
-5.02031
11
6.16701
21
-5.04413
0
LINE
8
BLACK
6
CONTINUOUS
10
6.16701
20
-5.04413
11
6.16585
21
-5.04549
0
LINE
8
BLACK
6
CONTINUOUS
10
6.16585
20
-5.04549
11
6.16464
21
-5.04644
0
LINE
8
BLACK
6
CONTINUOUS
10
6.16464
20
-5.04644
11
6.16326
21
-5.04714
0
LINE
8
BLACK
6
CONTINUOUS
10
6.16326
20
-5.04714
11
6.16178
21
-5.04756
0
LINE
8
BLACK
6
CONTINUOUS
10
6.16178
20
-5.04756
11
6.16024
21
-5.04767
0
LINE
8
BLACK
6
CONTINUOUS
10
6.16024
20
-5.04767
11
6.15871
21
-5.04749
0
LINE
8
BLACK
6
CONTINUOUS
10
6.15871
20
-5.04749
11
6.15724
21
-5.04701
0
LINE
8
BLACK
6
CONTINUOUS
10
6.15724
20
-5.04701
11
6.15568
21
-5.04613
0
LINE
8
BLACK
6
CONTINUOUS
10
6.15568
20
-5.04613
11
6.13508
21
-5.03171
0
LINE
8
BLACK
6
CONTINUOUS
10
6.13508
20
-5.03171
11
6.13373
21
-5.03055
0
LINE
8
BLACK
6
CONTINUOUS
10
6.13373
20
-5.03055
11
6.13278
21
-5.02933
0
LINE
8
BLACK
6
CONTINUOUS
10
6.13278
20
-5.02933
11
6.13208
21
-5.02796
0
LINE
8
BLACK
6
CONTINUOUS
10
6.13208
20
-5.02796
11
6.13166
21
-5.02647
0
LINE
8
BLACK
6
CONTINUOUS
10
6.13166
20
-5.02647
11
6.13155
21
-5.02493
0
LINE
8
BLACK
6
CONTINUOUS
10
6.13155
20
-5.02493
11
6.13173
21
-5.0234
0
LINE
8
BLACK
6
CONTINUOUS
10
6.13173
20
-5.0234
11
6.13221
21
-5.02193
0
LINE
8
BLACK
6
CONTINUOUS
10
6.13221
20
-5.02193
11
6.13309
21
-5.02038
0
LINE
8
BLACK
6
CONTINUOUS
10
6.13309
20
-5.02038
11
6.14977
21
-4.99655
0
LINE
8
BLACK
6
CONTINUOUS
10
6.14977
20
-4.99655
11
6.15093
21
-4.9952
0
LINE
8
BLACK
6
CONTINUOUS
10
6.15093
20
-4.9952
11
6.15214
21
-4.99425
0
LINE
8
BLACK
6
CONTINUOUS
10
6.15214
20
-4.99425
11
6.15352
21
-4.99355
0
LINE
8
BLACK
6
CONTINUOUS
10
6.15352
20
-4.99355
11
6.15501
21
-4.99313
0
LINE
8
BLACK
6
CONTINUOUS
10
6.15501
20
-4.99313
11
6.15654
21
-4.99302
0
LINE
8
BLACK
6
CONTINUOUS
10
6.15654
20
-4.99302
11
6.15808
21
-4.9932
0
LINE
8
BLACK
6
CONTINUOUS
10
6.59151
20
-4.96186
11
6.57714
21
-5.04336
0
LINE
8
BLACK
6
CONTINUOUS
10
6.57714
20
-5.04336
11
6.51503
21
-5.0324
0
LINE
8
BLACK
6
CONTINUOUS
10
6.51503
20
-5.0324
11
6.5294
21
-4.95091
0
LINE
8
BLACK
6
CONTINUOUS
10
6.5294
20
-4.95091
11
6.59151
21
-4.96186
0
LINE
8
BLACK
6
CONTINUOUS
10
5.93481
20
-5.01273
11
5.91444
21
-5.04182
0
LINE
8
BLACK
6
CONTINUOUS
10
5.91444
20
-5.04182
11
5.88213
21
-5.01919
0
LINE
8
BLACK
6
CONTINUOUS
10
5.88213
20
-5.01919
11
5.9025
21
-4.9901
0
LINE
8
BLACK
6
CONTINUOUS
10
5.9025
20
-4.9901
11
5.93481
21
-5.01273
0
LINE
8
BLACK
6
CONTINUOUS
10
5.75393
20
-4.97339
11
5.70647
21
-5.04118
0
LINE
8
BLACK
6
CONTINUOUS
10
5.70647
20
-5.04118
11
5.67415
21
-5.01855
0
LINE
8
BLACK
6
CONTINUOUS
10
5.67415
20
-5.01855
11
5.72162
21
-4.95076
0
LINE
8
BLACK
6
CONTINUOUS
10
5.72162
20
-4.95076
11
5.75393
21
-4.97339
0
LINE
8
BLACK
6
CONTINUOUS
10
6.50233
20
-4.94613
11
6.48796
21
-5.02763
0
LINE
8
BLACK
6
CONTINUOUS
10
6.48796
20
-5.02763
11
6.42585
21
-5.01668
0
LINE
8
BLACK
6
CONTINUOUS
10
6.42585
20
-5.01668
11
6.44022
21
-4.93518
0
LINE
8
BLACK
6
CONTINUOUS
10
6.44022
20
-4.93518
11
6.50233
21
-4.94613
0
LINE
8
BLACK
6
CONTINUOUS
10
6.00443
20
-4.96972
11
6.0059
21
-4.9702
0
LINE
8
BLACK
6
CONTINUOUS
10
6.0059
20
-4.9702
11
6.00746
21
-4.97107
0
LINE
8
BLACK
6
CONTINUOUS
10
6.00746
20
-4.97107
11
6.03128
21
-4.98776
0
LINE
8
BLACK
6
CONTINUOUS
10
6.03128
20
-4.98776
11
6.03263
21
-4.98892
0
LINE
8
BLACK
6
CONTINUOUS
10
6.03263
20
-4.98892
11
6.03359
21
-4.99013
0
LINE
8
BLACK
6
CONTINUOUS
10
6.03359
20
-4.99013
11
6.03428
21
-4.99151
0
LINE
8
BLACK
6
CONTINUOUS
10
6.03428
20
-4.99151
11
6.0347
21
-4.99299
0
LINE
8
BLACK
6
CONTINUOUS
10
6.0347
20
-4.99299
11
6.03482
21
-4.99453
0
LINE
8
BLACK
6
CONTINUOUS
10
6.03482
20
-4.99453
11
6.03463
21
-4.99606
0
LINE
8
BLACK
6
CONTINUOUS
10
6.03463
20
-4.99606
11
6.03415
21
-4.99753
0
LINE
8
BLACK
6
CONTINUOUS
10
6.03415
20
-4.99753
11
6.03328
21
-4.99909
0
LINE
8
BLACK
6
CONTINUOUS
10
6.03328
20
-4.99909
11
6.032
21
-5.0009
0
LINE
8
BLACK
6
CONTINUOUS
10
6.032
20
-5.0009
11
6.02227
21
-5.01481
0
LINE
8
BLACK
6
CONTINUOUS
10
6.02227
20
-5.01481
11
6.01885
21
-5.01969
0
LINE
8
BLACK
6
CONTINUOUS
10
6.01885
20
-5.01969
11
6.01769
21
-5.02104
0
LINE
8
BLACK
6
CONTINUOUS
10
6.01769
20
-5.02104
11
6.01648
21
-5.02199
0
LINE
8
BLACK
6
CONTINUOUS
10
6.01648
20
-5.02199
11
6.0151
21
-5.02269
0
LINE
8
BLACK
6
CONTINUOUS
10
6.0151
20
-5.02269
11
6.01362
21
-5.02311
0
LINE
8
BLACK
6
CONTINUOUS
10
6.01362
20
-5.02311
11
6.01208
21
-5.02322
0
LINE
8
BLACK
6
CONTINUOUS
10
6.01208
20
-5.02322
11
6.01055
21
-5.02304
0
LINE
8
BLACK
6
CONTINUOUS
10
6.01055
20
-5.02304
11
6.00908
21
-5.02256
0
LINE
8
BLACK
6
CONTINUOUS
10
6.00908
20
-5.02256
11
6.00752
21
-5.02168
0
LINE
8
BLACK
6
CONTINUOUS
10
6.00752
20
-5.02168
11
5.9837
21
-5.005
0
LINE
8
BLACK
6
CONTINUOUS
10
5.9837
20
-5.005
11
5.98234
21
-5.00384
0
LINE
8
BLACK
6
CONTINUOUS
10
5.98234
20
-5.00384
11
5.98139
21
-5.00263
0
LINE
8
BLACK
6
CONTINUOUS
10
5.98139
20
-5.00263
11
5.98069
21
-5.00125
0
LINE
8
BLACK
6
CONTINUOUS
10
5.98069
20
-5.00125
11
5.98028
21
-4.99976
0
LINE
8
BLACK
6
CONTINUOUS
10
5.98028
20
-4.99976
11
5.98016
21
-4.99823
0
LINE
8
BLACK
6
CONTINUOUS
10
5.98016
20
-4.99823
11
5.98035
21
-4.99669
0
LINE
8
BLACK
6
CONTINUOUS
10
5.98035
20
-4.99669
11
5.98083
21
-4.99523
0
LINE
8
BLACK
6
CONTINUOUS
10
5.98083
20
-4.99523
11
5.9817
21
-4.99367
0
LINE
8
BLACK
6
CONTINUOUS
10
5.9817
20
-4.99367
11
5.98894
21
-4.98333
0
LINE
8
BLACK
6
CONTINUOUS
10
5.98894
20
-4.98333
11
5.99485
21
-4.97489
0
LINE
8
BLACK
6
CONTINUOUS
10
5.99485
20
-4.97489
11
5.99485
21
-4.97489
0
LINE
8
BLACK
6
CONTINUOUS
10
5.99485
20
-4.97489
11
5.99613
21
-4.97307
0
LINE
8
BLACK
6
CONTINUOUS
10
5.99613
20
-4.97307
11
5.99729
21
-4.97172
0
LINE
8
BLACK
6
CONTINUOUS
10
5.99729
20
-4.97172
11
5.9985
21
-4.97076
0
LINE
8
BLACK
6
CONTINUOUS
10
5.9985
20
-4.97076
11
5.99988
21
-4.97007
0
LINE
8
BLACK
6
CONTINUOUS
10
5.99988
20
-4.97007
11
6.00136
21
-4.96965
0
LINE
8
BLACK
6
CONTINUOUS
10
6.00136
20
-4.96965
11
6.0029
21
-4.96953
0
LINE
8
BLACK
6
CONTINUOUS
10
6.0029
20
-4.96953
11
6.00443
21
-4.96972
0
LINE
8
BLACK
6
CONTINUOUS
10
6.30812
20
-4.95963
11
6.30963
21
-4.95995
0
LINE
8
BLACK
6
CONTINUOUS
10
6.30963
20
-4.95995
11
6.31105
21
-4.96056
0
LINE
8
BLACK
6
CONTINUOUS
10
6.31105
20
-4.96056
11
6.31253
21
-4.96157
0
LINE
8
BLACK
6
CONTINUOUS
10
6.31253
20
-4.96157
11
6.31423
21
-4.96299
0
LINE
8
BLACK
6
CONTINUOUS
10
6.31423
20
-4.96299
11
6.31423
21
-4.96299
0
LINE
8
BLACK
6
CONTINUOUS
10
6.31423
20
-4.96299
11
6.33009
21
-4.9763
0
LINE
8
BLACK
6
CONTINUOUS
10
6.33009
20
-4.9763
11
6.33009
21
-4.9763
0
LINE
8
BLACK
6
CONTINUOUS
10
6.33009
20
-4.9763
11
6.33179
21
-4.97773
0
LINE
8
BLACK
6
CONTINUOUS
10
6.33179
20
-4.97773
11
6.33304
21
-4.97901
0
LINE
8
BLACK
6
CONTINUOUS
10
6.33304
20
-4.97901
11
6.33388
21
-4.9803
0
LINE
8
BLACK
6
CONTINUOUS
10
6.33388
20
-4.9803
11
6.33446
21
-4.98173
0
LINE
8
BLACK
6
CONTINUOUS
10
6.33446
20
-4.98173
11
6.33474
21
-4.98325
0
LINE
8
BLACK
6
CONTINUOUS
10
6.33474
20
-4.98325
11
6.33472
21
-4.98479
0
LINE
8
BLACK
6
CONTINUOUS
10
6.33472
20
-4.98479
11
6.33441
21
-4.9863
0
LINE
8
BLACK
6
CONTINUOUS
10
6.33441
20
-4.9863
11
6.3338
21
-4.98772
0
LINE
8
BLACK
6
CONTINUOUS
10
6.3338
20
-4.98772
11
6.33279
21
-4.98919
0
LINE
8
BLACK
6
CONTINUOUS
10
6.33279
20
-4.98919
11
6.3141
21
-5.01147
0
LINE
8
BLACK
6
CONTINUOUS
10
6.3141
20
-5.01147
11
6.31282
21
-5.01272
0
LINE
8
BLACK
6
CONTINUOUS
10
6.31282
20
-5.01272
11
6.31153
21
-5.01356
0
LINE
8
BLACK
6
CONTINUOUS
10
6.31153
20
-5.01356
11
6.3101
21
-5.01414
0
LINE
8
BLACK
6
CONTINUOUS
10
6.3101
20
-5.01414
11
6.30858
21
-5.01442
0
LINE
8
BLACK
6
CONTINUOUS
10
6.30858
20
-5.01442
11
6.30704
21
-5.0144
0
LINE
8
BLACK
6
CONTINUOUS
10
6.30704
20
-5.0144
11
6.30553
21
-5.01409
0
LINE
8
BLACK
6
CONTINUOUS
10
6.30553
20
-5.01409
11
6.30411
21
-5.01348
0
LINE
8
BLACK
6
CONTINUOUS
10
6.30411
20
-5.01348
11
6.30264
21
-5.01247
0
LINE
8
BLACK
6
CONTINUOUS
10
6.30264
20
-5.01247
11
6.30094
21
-5.01105
0
LINE
8
BLACK
6
CONTINUOUS
10
6.30094
20
-5.01105
11
6.30094
21
-5.01105
0
LINE
8
BLACK
6
CONTINUOUS
10
6.30094
20
-5.01105
11
6.28507
21
-4.99774
0
LINE
8
BLACK
6
CONTINUOUS
10
6.28507
20
-4.99774
11
6.28507
21
-4.99774
0
LINE
8
BLACK
6
CONTINUOUS
10
6.28507
20
-4.99774
11
6.28337
21
-4.99631
0
LINE
8
BLACK
6
CONTINUOUS
10
6.28337
20
-4.99631
11
6.28212
21
-4.99503
0
LINE
8
BLACK
6
CONTINUOUS
10
6.28212
20
-4.99503
11
6.28128
21
-4.99374
0
LINE
8
BLACK
6
CONTINUOUS
10
6.28128
20
-4.99374
11
6.28071
21
-4.99231
0
LINE
8
BLACK
6
CONTINUOUS
10
6.28071
20
-4.99231
11
6.28042
21
-4.99079
0
LINE
8
BLACK
6
CONTINUOUS
10
6.28042
20
-4.99079
11
6.28044
21
-4.98925
0
LINE
8
BLACK
6
CONTINUOUS
10
6.28044
20
-4.98925
11
6.28076
21
-4.98774
0
LINE
8
BLACK
6
CONTINUOUS
10
6.28076
20
-4.98774
11
6.28136
21
-4.98632
0
LINE
8
BLACK
6
CONTINUOUS
10
6.28136
20
-4.98632
11
6.28237
21
-4.98485
0
LINE
8
BLACK
6
CONTINUOUS
10
6.28237
20
-4.98485
11
6.30106
21
-4.96257
0
LINE
8
BLACK
6
CONTINUOUS
10
6.30106
20
-4.96257
11
6.30234
21
-4.96132
0
LINE
8
BLACK
6
CONTINUOUS
10
6.30234
20
-4.96132
11
6.30363
21
-4.96048
0
LINE
8
BLACK
6
CONTINUOUS
10
6.30363
20
-4.96048
11
6.30506
21
-4.9599
0
LINE
8
BLACK
6
CONTINUOUS
10
6.30506
20
-4.9599
11
6.30658
21
-4.95962
0
LINE
8
BLACK
6
CONTINUOUS
10
6.30658
20
-4.95962
11
6.30812
21
-4.95963
0
LINE
8
BLACK
6
CONTINUOUS
10
5.71298
20
-4.94471
11
5.66551
21
-5.0125
0
LINE
8
BLACK
6
CONTINUOUS
10
5.66551
20
-5.0125
11
5.63319
21
-4.98987
0
LINE
8
BLACK
6
CONTINUOUS
10
5.63319
20
-4.98987
11
5.68066
21
-4.92208
0
LINE
8
BLACK
6
CONTINUOUS
10
5.68066
20
-4.92208
11
5.71298
21
-4.94471
0
LINE
8
BLACK
6
CONTINUOUS
10
6.19759
20
-4.93676
11
6.19906
21
-4.93724
0
LINE
8
BLACK
6
CONTINUOUS
10
6.19906
20
-4.93724
11
6.20062
21
-4.93812
0
LINE
8
BLACK
6
CONTINUOUS
10
6.20062
20
-4.93812
11
6.20243
21
-4.93939
0
LINE
8
BLACK
6
CONTINUOUS
10
6.20243
20
-4.93939
11
6.2156
21
-4.94861
0
LINE
8
BLACK
6
CONTINUOUS
10
6.2156
20
-4.94861
11
6.22122
21
-4.95254
0
LINE
8
BLACK
6
CONTINUOUS
10
6.22122
20
-4.95254
11
6.22257
21
-4.95371
0
LINE
8
BLACK
6
CONTINUOUS
10
6.22257
20
-4.95371
11
6.22352
21
-4.95492
0
LINE
8
BLACK
6
CONTINUOUS
10
6.22352
20
-4.95492
11
6.22422
21
-4.9563
0
LINE
8
BLACK
6
CONTINUOUS
10
6.22422
20
-4.9563
11
6.22464
21
-4.95778
0
LINE
8
BLACK
6
CONTINUOUS
10
6.22464
20
-4.95778
11
6.22475
21
-4.95932
0
LINE
8
BLACK
6
CONTINUOUS
10
6.22475
20
-4.95932
11
6.22457
21
-4.96085
0
LINE
8
BLACK
6
CONTINUOUS
10
6.22457
20
-4.96085
11
6.22409
21
-4.96232
0
LINE
8
BLACK
6
CONTINUOUS
10
6.22409
20
-4.96232
11
6.22321
21
-4.96387
0
LINE
8
BLACK
6
CONTINUOUS
10
6.22321
20
-4.96387
11
6.20653
21
-4.9877
0
LINE
8
BLACK
6
CONTINUOUS
10
6.20653
20
-4.9877
11
6.20537
21
-4.98905
0
LINE
8
BLACK
6
CONTINUOUS
10
6.20537
20
-4.98905
11
6.20416
21
-4.99
0
LINE
8
BLACK
6
CONTINUOUS
10
6.20416
20
-4.99
11
6.20278
21
-4.9907
0
LINE
8
BLACK
6
CONTINUOUS
10
6.20278
20
-4.9907
11
6.20129
21
-4.99112
0
LINE
8
BLACK
6
CONTINUOUS
10
6.20129
20
-4.99112
11
6.19975
21
-4.99124
0
LINE
8
BLACK
6
CONTINUOUS
10
6.19975
20
-4.99124
11
6.19822
21
-4.99105
0
LINE
8
BLACK
6
CONTINUOUS
10
6.19822
20
-4.99105
11
6.19676
21
-4.99057
0
LINE
8
BLACK
6
CONTINUOUS
10
6.19676
20
-4.99057
11
6.1952
21
-4.9897
0
LINE
8
BLACK
6
CONTINUOUS
10
6.1952
20
-4.9897
11
6.19038
21
-4.98632
0
LINE
8
BLACK
6
CONTINUOUS
10
6.19038
20
-4.98632
11
6.17642
21
-4.97654
0
LINE
8
BLACK
6
CONTINUOUS
10
6.17642
20
-4.97654
11
6.17642
21
-4.97654
0
LINE
8
BLACK
6
CONTINUOUS
10
6.17642
20
-4.97654
11
6.1746
21
-4.97527
0
LINE
8
BLACK
6
CONTINUOUS
10
6.1746
20
-4.97527
11
6.17325
21
-4.97411
0
LINE
8
BLACK
6
CONTINUOUS
10
6.17325
20
-4.97411
11
6.17229
21
-4.9729
0
LINE
8
BLACK
6
CONTINUOUS
10
6.17229
20
-4.9729
11
6.1716
21
-4.97152
0
LINE
8
BLACK
6
CONTINUOUS
10
6.1716
20
-4.97152
11
6.17118
21
-4.97003
0
LINE
8
BLACK
6
CONTINUOUS
10
6.17118
20
-4.97003
11
6.17106
21
-4.96849
0
LINE
8
BLACK
6
CONTINUOUS
10
6.17106
20
-4.96849
11
6.17125
21
-4.96696
0
LINE
8
BLACK
6
CONTINUOUS
10
6.17125
20
-4.96696
11
6.17173
21
-4.9655
0
LINE
8
BLACK
6
CONTINUOUS
10
6.17173
20
-4.9655
11
6.1726
21
-4.96394
0
LINE
8
BLACK
6
CONTINUOUS
10
6.1726
20
-4.96394
11
6.18929
21
-4.94012
0
LINE
8
BLACK
6
CONTINUOUS
10
6.18929
20
-4.94012
11
6.19045
21
-4.93876
0
LINE
8
BLACK
6
CONTINUOUS
10
6.19045
20
-4.93876
11
6.19166
21
-4.93781
0
LINE
8
BLACK
6
CONTINUOUS
10
6.19166
20
-4.93781
11
6.19304
21
-4.93711
0
LINE
8
BLACK
6
CONTINUOUS
10
6.19304
20
-4.93711
11
6.19452
21
-4.9367
0
LINE
8
BLACK
6
CONTINUOUS
10
6.19452
20
-4.9367
11
6.19606
21
-4.93658
0
LINE
8
BLACK
6
CONTINUOUS
10
6.19606
20
-4.93658
11
6.19759
21
-4.93676
0
LINE
8
BLACK
6
CONTINUOUS
10
5.67202
20
-4.91603
11
5.62455
21
-4.98382
0
LINE
8
BLACK
6
CONTINUOUS
10
5.62455
20
-4.98382
11
5.59224
21
-4.96119
0
LINE
8
BLACK
6
CONTINUOUS
10
5.59224
20
-4.96119
11
5.6397
21
-4.89341
0
LINE
8
BLACK
6
CONTINUOUS
10
5.6397
20
-4.89341
11
5.67202
21
-4.91603
0
LINE
8
BLACK
6
CONTINUOUS
10
5.948
20
-4.9302
11
5.94946
21
-4.93068
0
LINE
8
BLACK
6
CONTINUOUS
10
5.94946
20
-4.93068
11
5.95102
21
-4.93156
0
LINE
8
BLACK
6
CONTINUOUS
10
5.95102
20
-4.93156
11
5.97484
21
-4.94824
0
LINE
8
BLACK
6
CONTINUOUS
10
5.97484
20
-4.94824
11
5.9762
21
-4.9494
0
LINE
8
BLACK
6
CONTINUOUS
10
5.9762
20
-4.9494
11
5.97715
21
-4.95061
0
LINE
8
BLACK
6
CONTINUOUS
10
5.97715
20
-4.95061
11
5.97785
21
-4.95199
0
LINE
8
BLACK
6
CONTINUOUS
10
5.97785
20
-4.95199
11
5.97826
21
-4.95348
0
LINE
8
BLACK
6
CONTINUOUS
10
5.97826
20
-4.95348
11
5.97838
21
-4.95501
0
LINE
8
BLACK
6
CONTINUOUS
10
5.97838
20
-4.95501
11
5.9782
21
-4.95655
0
LINE
8
BLACK
6
CONTINUOUS
10
5.9782
20
-4.95655
11
5.97772
21
-4.95801
0
LINE
8
BLACK
6
CONTINUOUS
10
5.97772
20
-4.95801
11
5.97684
21
-4.95957
0
LINE
8
BLACK
6
CONTINUOUS
10
5.97684
20
-4.95957
11
5.97557
21
-4.96139
0
LINE
8
BLACK
6
CONTINUOUS
10
5.97557
20
-4.96139
11
5.9644
21
-4.97734
0
LINE
8
BLACK
6
CONTINUOUS
10
5.9644
20
-4.97734
11
5.96242
21
-4.98017
0
LINE
8
BLACK
6
CONTINUOUS
10
5.96242
20
-4.98017
11
5.96125
21
-4.98152
0
LINE
8
BLACK
6
CONTINUOUS
10
5.96125
20
-4.98152
11
5.96004
21
-4.98248
0
LINE
8
BLACK
6
CONTINUOUS
10
5.96004
20
-4.98248
11
5.95866
21
-4.98317
0
LINE
8
BLACK
6
CONTINUOUS
10
5.95866
20
-4.98317
11
5.95718
21
-4.98359
0
LINE
8
BLACK
6
CONTINUOUS
10
5.95718
20
-4.98359
11
5.95564
21
-4.98371
0
LINE
8
BLACK
6
CONTINUOUS
10
5.95564
20
-4.98371
11
5.95411
21
-4.98352
0
LINE
8
BLACK
6
CONTINUOUS
10
5.95411
20
-4.98352
11
5.95264
21
-4.98304
0
LINE
8
BLACK
6
CONTINUOUS
10
5.95264
20
-4.98304
11
5.95109
21
-4.98217
0
LINE
8
BLACK
6
CONTINUOUS
10
5.95109
20
-4.98217
11
5.92726
21
-4.96548
0
LINE
8
BLACK
6
CONTINUOUS
10
5.92726
20
-4.96548
11
5.92591
21
-4.96432
0
LINE
8
BLACK
6
CONTINUOUS
10
5.92591
20
-4.96432
11
5.92495
21
-4.96311
0
LINE
8
BLACK
6
CONTINUOUS
10
5.92495
20
-4.96311
11
5.92426
21
-4.96173
0
LINE
8
BLACK
6
CONTINUOUS
10
5.92426
20
-4.96173
11
5.92384
21
-4.96025
0
LINE
8
BLACK
6
CONTINUOUS
10
5.92384
20
-4.96025
11
5.92372
21
-4.95871
0
LINE
8
BLACK
6
CONTINUOUS
10
5.92372
20
-4.95871
11
5.92391
21
-4.95718
0
LINE
8
BLACK
6
CONTINUOUS
10
5.92391
20
-4.95718
11
5.92439
21
-4.95571
0
LINE
8
BLACK
6
CONTINUOUS
10
5.92439
20
-4.95571
11
5.92526
21
-4.95415
0
LINE
8
BLACK
6
CONTINUOUS
10
5.92526
20
-4.95415
11
5.9336
21
-4.94225
0
LINE
8
BLACK
6
CONTINUOUS
10
5.9336
20
-4.94225
11
5.93842
21
-4.93537
0
LINE
8
BLACK
6
CONTINUOUS
10
5.93842
20
-4.93537
11
5.93842
21
-4.93537
0
LINE
8
BLACK
6
CONTINUOUS
10
5.93842
20
-4.93537
11
5.93969
21
-4.93355
0
LINE
8
BLACK
6
CONTINUOUS
10
5.93969
20
-4.93355
11
5.94085
21
-4.9322
0
LINE
8
BLACK
6
CONTINUOUS
10
5.94085
20
-4.9322
11
5.94206
21
-4.93125
0
LINE
8
BLACK
6
CONTINUOUS
10
5.94206
20
-4.93125
11
5.94344
21
-4.93055
0
LINE
8
BLACK
6
CONTINUOUS
10
5.94344
20
-4.93055
11
5.94493
21
-4.93013
0
LINE
8
BLACK
6
CONTINUOUS
10
5.94493
20
-4.93013
11
5.94646
21
-4.93002
0
LINE
8
BLACK
6
CONTINUOUS
10
5.94646
20
-4.93002
11
5.948
21
-4.9302
0
LINE
8
BLACK
6
CONTINUOUS
10
6.8252
20
-4.89864
11
6.83262
21
-4.90035
0
LINE
8
BLACK
6
CONTINUOUS
10
6.83262
20
-4.90035
11
6.83262
21
-4.90035
0
LINE
8
BLACK
6
CONTINUOUS
10
6.83262
20
-4.90035
11
6.83453
21
-4.90099
0
LINE
8
BLACK
6
CONTINUOUS
10
6.83453
20
-4.90099
11
6.83815
21
-4.90221
0
LINE
8
BLACK
6
CONTINUOUS
10
6.83815
20
-4.90221
11
6.8449
21
-4.90609
0
LINE
8
BLACK
6
CONTINUOUS
10
6.8449
20
-4.90609
11
6.85076
21
-4.91121
0
LINE
8
BLACK
6
CONTINUOUS
10
6.85076
20
-4.91121
11
6.85551
21
-4.91737
0
LINE
8
BLACK
6
CONTINUOUS
10
6.85551
20
-4.91737
11
6.85897
21
-4.92434
0
LINE
8
BLACK
6
CONTINUOUS
10
6.85897
20
-4.92434
11
6.861
21
-4.93186
0
LINE
8
BLACK
6
CONTINUOUS
10
6.861
20
-4.93186
11
6.861
21
-4.93186
0
LINE
8
BLACK
6
CONTINUOUS
10
6.861
20
-4.93186
11
6.8614
21
-4.93768
0
LINE
8
BLACK
6
CONTINUOUS
10
6.8614
20
-4.93768
11
6.86153
21
-4.93962
0
LINE
8
BLACK
6
CONTINUOUS
10
6.86153
20
-4.93962
11
6.86053
21
-4.94734
0
LINE
8
BLACK
6
CONTINUOUS
10
6.86053
20
-4.94734
11
6.85804
21
-4.95471
0
LINE
8
BLACK
6
CONTINUOUS
10
6.85804
20
-4.95471
11
6.85699
21
-4.95655
0
LINE
8
BLACK
6
CONTINUOUS
10
6.85699
20
-4.95655
11
6.85417
21
-4.96146
0
LINE
8
BLACK
6
CONTINUOUS
10
6.85417
20
-4.96146
11
6.85253
21
-4.96334
0
LINE
8
BLACK
6
CONTINUOUS
10
6.85253
20
-4.96334
11
6.84905
21
-4.96732
0
LINE
8
BLACK
6
CONTINUOUS
10
6.84905
20
-4.96732
11
6.84288
21
-4.97208
0
LINE
8
BLACK
6
CONTINUOUS
10
6.84288
20
-4.97208
11
6.83948
21
-4.97376
0
LINE
8
BLACK
6
CONTINUOUS
10
6.83948
20
-4.97376
11
6.83591
21
-4.97553
0
LINE
8
BLACK
6
CONTINUOUS
10
6.83591
20
-4.97553
11
6.83591
21
-4.97553
0
LINE
8
BLACK
6
CONTINUOUS
10
6.83591
20
-4.97553
11
6.83591
21
-4.97553
0
LINE
8
BLACK
6
CONTINUOUS
10
6.83591
20
-4.97553
11
6.8284
21
-4.97756
0
LINE
8
BLACK
6
CONTINUOUS
10
6.8284
20
-4.97756
11
6.82063
21
-4.97809
0
LINE
8
BLACK
6
CONTINUOUS
10
6.82063
20
-4.97809
11
6.81485
21
-4.97734
0
LINE
8
BLACK
6
CONTINUOUS
10
6.81485
20
-4.97734
11
6.80742
21
-4.97563
0
LINE
8
BLACK
6
CONTINUOUS
10
6.80742
20
-4.97563
11
6.80742
21
-4.97563
0
LINE
8
BLACK
6
CONTINUOUS
10
6.80742
20
-4.97563
11
6.80742
21
-4.97563
0
LINE
8
BLACK
6
CONTINUOUS
10
6.80742
20
-4.97563
11
6.80524
21
-4.97489
0
LINE
8
BLACK
6
CONTINUOUS
10
6.80524
20
-4.97489
11
6.8019
21
-4.97376
0
LINE
8
BLACK
6
CONTINUOUS
10
6.8019
20
-4.97376
11
6.79515
21
-4.96989
0
LINE
8
BLACK
6
CONTINUOUS
10
6.79515
20
-4.96989
11
6.78929
21
-4.96477
0
LINE
8
BLACK
6
CONTINUOUS
10
6.78929
20
-4.96477
11
6.78875
21
-4.96407
0
LINE
8
BLACK
6
CONTINUOUS
10
6.78875
20
-4.96407
11
6.78454
21
-4.9586
0
LINE
8
BLACK
6
CONTINUOUS
10
6.78454
20
-4.9586
11
6.78108
21
-4.95163
0
LINE
8
BLACK
6
CONTINUOUS
10
6.78108
20
-4.95163
11
6.78098
21
-4.95127
0
LINE
8
BLACK
6
CONTINUOUS
10
6.78098
20
-4.95127
11
6.77905
21
-4.94412
0
LINE
8
BLACK
6
CONTINUOUS
10
6.77905
20
-4.94412
11
6.77852
21
-4.93636
0
LINE
8
BLACK
6
CONTINUOUS
10
6.77852
20
-4.93636
11
6.77952
21
-4.92864
0
LINE
8
BLACK
6
CONTINUOUS
10
6.77952
20
-4.92864
11
6.78201
21
-4.92126
0
LINE
8
BLACK
6
CONTINUOUS
10
6.78201
20
-4.92126
11
6.78588
21
-4.91451
0
LINE
8
BLACK
6
CONTINUOUS
10
6.78588
20
-4.91451
11
6.791
21
-4.90865
0
LINE
8
BLACK
6
CONTINUOUS
10
6.791
20
-4.90865
11
6.791
21
-4.90865
0
LINE
8
BLACK
6
CONTINUOUS
10
6.791
20
-4.90865
11
6.79716
21
-4.9039
0
LINE
8
BLACK
6
CONTINUOUS
10
6.79716
20
-4.9039
11
6.80414
21
-4.90044
0
LINE
8
BLACK
6
CONTINUOUS
10
6.80414
20
-4.90044
11
6.80414
21
-4.90044
0
LINE
8
BLACK
6
CONTINUOUS
10
6.80414
20
-4.90044
11
6.80414
21
-4.90044
0
LINE
8
BLACK
6
CONTINUOUS
10
6.80414
20
-4.90044
11
6.81165
21
-4.89841
0
LINE
8
BLACK
6
CONTINUOUS
10
6.81165
20
-4.89841
11
6.81941
21
-4.89789
0
LINE
8
BLACK
6
CONTINUOUS
10
6.81941
20
-4.89789
11
6.8252
21
-4.89864
0
LINE
8
BLACK
6
CONTINUOUS
10
5.46689
20
-4.90644
11
5.41942
21
-4.97423
0
LINE
8
BLACK
6
CONTINUOUS
10
5.41942
20
-4.97423
11
5.36776
21
-4.93805
0
LINE
8
BLACK
6
CONTINUOUS
10
5.36776
20
-4.93805
11
5.41522
21
-4.87026
0
LINE
8
BLACK
6
CONTINUOUS
10
5.41522
20
-4.87026
11
5.46689
21
-4.90644
0
LINE
8
BLACK
6
CONTINUOUS
10
5.85439
20
-4.93631
11
5.83176
21
-4.96863
0
LINE
8
BLACK
6
CONTINUOUS
10
5.83176
20
-4.96863
11
5.76398
21
-4.92116
0
LINE
8
BLACK
6
CONTINUOUS
10
5.76398
20
-4.92116
11
5.7866
21
-4.88885
0
LINE
8
BLACK
6
CONTINUOUS
10
5.7866
20
-4.88885
11
5.85439
21
-4.93631
0
LINE
8
BLACK
6
CONTINUOUS
10
6.05075
20
-4.91337
11
6.05222
21
-4.91385
0
LINE
8
BLACK
6
CONTINUOUS
10
6.05222
20
-4.91385
11
6.05378
21
-4.91473
0
LINE
8
BLACK
6
CONTINUOUS
10
6.05378
20
-4.91473
11
6.0776
21
-4.93141
0
LINE
8
BLACK
6
CONTINUOUS
10
6.0776
20
-4.93141
11
6.07895
21
-4.93257
0
LINE
8
BLACK
6
CONTINUOUS
10
6.07895
20
-4.93257
11
6.07991
21
-4.93379
0
LINE
8
BLACK
6
CONTINUOUS
10
6.07991
20
-4.93379
11
6.0806
21
-4.93516
0
LINE
8
BLACK
6
CONTINUOUS
10
6.0806
20
-4.93516
11
6.08102
21
-4.93665
0
LINE
8
BLACK
6
CONTINUOUS
10
6.08102
20
-4.93665
11
6.08114
21
-4.93819
0
LINE
8
BLACK
6
CONTINUOUS
10
6.08114
20
-4.93819
11
6.08095
21
-4.93972
0
LINE
8
BLACK
6
CONTINUOUS
10
6.08095
20
-4.93972
11
6.08047
21
-4.94119
0
LINE
8
BLACK
6
CONTINUOUS
10
6.08047
20
-4.94119
11
6.0796
21
-4.94274
0
LINE
8
BLACK
6
CONTINUOUS
10
6.0796
20
-4.94274
11
6.07832
21
-4.94456
0
LINE
8
BLACK
6
CONTINUOUS
10
6.07832
20
-4.94456
11
6.06709
21
-4.96061
0
LINE
8
BLACK
6
CONTINUOUS
10
6.06709
20
-4.96061
11
6.06517
21
-4.96334
0
LINE
8
BLACK
6
CONTINUOUS
10
6.06517
20
-4.96334
11
6.06401
21
-4.9647
0
LINE
8
BLACK
6
CONTINUOUS
10
6.06401
20
-4.9647
11
6.0628
21
-4.96565
0
LINE
8
BLACK
6
CONTINUOUS
10
6.0628
20
-4.96565
11
6.06142
21
-4.96635
0
LINE
8
BLACK
6
CONTINUOUS
10
6.06142
20
-4.96635
11
6.05994
21
-4.96676
0
LINE
8
BLACK
6
CONTINUOUS
10
6.05994
20
-4.96676
11
6.0584
21
-4.96688
0
LINE
8
BLACK
6
CONTINUOUS
10
6.0584
20
-4.96688
11
6.05687
21
-4.96669
0
LINE
8
BLACK
6
CONTINUOUS
10
6.05687
20
-4.96669
11
6.0554
21
-4.96621
0
LINE
8
BLACK
6
CONTINUOUS
10
6.0554
20
-4.96621
11
6.05384
21
-4.96534
0
LINE
8
BLACK
6
CONTINUOUS
10
6.05384
20
-4.96534
11
6.03002
21
-4.94866
0
LINE
8
BLACK
6
CONTINUOUS
10
6.03002
20
-4.94866
11
6.02866
21
-4.94749
0
LINE
8
BLACK
6
CONTINUOUS
10
6.02866
20
-4.94749
11
6.02771
21
-4.94628
0
LINE
8
BLACK
6
CONTINUOUS
10
6.02771
20
-4.94628
11
6.02701
21
-4.9449
0
LINE
8
BLACK
6
CONTINUOUS
10
6.02701
20
-4.9449
11
6.0266
21
-4.94342
0
LINE
8
BLACK
6
CONTINUOUS
10
6.0266
20
-4.94342
11
6.02648
21
-4.94188
0
LINE
8
BLACK
6
CONTINUOUS
10
6.02648
20
-4.94188
11
6.02667
21
-4.94035
0
LINE
8
BLACK
6
CONTINUOUS
10
6.02667
20
-4.94035
11
6.02715
21
-4.93888
0
LINE
8
BLACK
6
CONTINUOUS
10
6.02715
20
-4.93888
11
6.02802
21
-4.93733
0
LINE
8
BLACK
6
CONTINUOUS
10
6.02802
20
-4.93733
11
6.03548
21
-4.92668
0
LINE
8
BLACK
6
CONTINUOUS
10
6.03548
20
-4.92668
11
6.04117
21
-4.91855
0
LINE
8
BLACK
6
CONTINUOUS
10
6.04117
20
-4.91855
11
6.04117
21
-4.91855
0
LINE
8
BLACK
6
CONTINUOUS
10
6.04117
20
-4.91855
11
6.04245
21
-4.91673
0
LINE
8
BLACK
6
CONTINUOUS
10
6.04245
20
-4.91673
11
6.04361
21
-4.91537
0
LINE
8
BLACK
6
CONTINUOUS
10
6.04361
20
-4.91537
11
6.04482
21
-4.91442
0
LINE
8
BLACK
6
CONTINUOUS
10
6.04482
20
-4.91442
11
6.0462
21
-4.91372
0
LINE
8
BLACK
6
CONTINUOUS
10
6.0462
20
-4.91372
11
6.04768
21
-4.91331
0
LINE
8
BLACK
6
CONTINUOUS
10
6.04768
20
-4.91331
11
6.04922
21
-4.91319
0
LINE
8
BLACK
6
CONTINUOUS
10
6.04922
20
-4.91319
11
6.05075
21
-4.91337
0
LINE
8
BLACK
6
CONTINUOUS
10
6.35241
20
-4.90686
11
6.35392
21
-4.90717
0
LINE
8
BLACK
6
CONTINUOUS
10
6.35392
20
-4.90717
11
6.35534
21
-4.90778
0
LINE
8
BLACK
6
CONTINUOUS
10
6.35534
20
-4.90778
11
6.35681
21
-4.90879
0
LINE
8
BLACK
6
CONTINUOUS
10
6.35681
20
-4.90879
11
6.35851
21
-4.91021
0
LINE
8
BLACK
6
CONTINUOUS
10
6.35851
20
-4.91021
11
6.35851
21
-4.91021
0
LINE
8
BLACK
6
CONTINUOUS
10
6.35851
20
-4.91021
11
6.37438
21
-4.92352
0
LINE
8
BLACK
6
CONTINUOUS
10
6.37438
20
-4.92352
11
6.37438
21
-4.92352
0
LINE
8
BLACK
6
CONTINUOUS
10
6.37438
20
-4.92352
11
6.37608
21
-4.92495
0
LINE
8
BLACK
6
CONTINUOUS
10
6.37608
20
-4.92495
11
6.37732
21
-4.92623
0
LINE
8
BLACK
6
CONTINUOUS
10
6.37732
20
-4.92623
11
6.37817
21
-4.92752
0
LINE
8
BLACK
6
CONTINUOUS
10
6.37817
20
-4.92752
11
6.37874
21
-4.92895
0
LINE
8
BLACK
6
CONTINUOUS
10
6.37874
20
-4.92895
11
6.37903
21
-4.93047
0
LINE
8
BLACK
6
CONTINUOUS
10
6.37903
20
-4.93047
11
6.37901
21
-4.93201
0
LINE
8
BLACK
6
CONTINUOUS
10
6.37901
20
-4.93201
11
6.37869
21
-4.93352
0
LINE
8
BLACK
6
CONTINUOUS
10
6.37869
20
-4.93352
11
6.37809
21
-4.93494
0
LINE
8
BLACK
6
CONTINUOUS
10
6.37809
20
-4.93494
11
6.37708
21
-4.93641
0
LINE
8
BLACK
6
CONTINUOUS
10
6.37708
20
-4.93641
11
6.35838
21
-4.95869
0
LINE
8
BLACK
6
CONTINUOUS
10
6.35838
20
-4.95869
11
6.35711
21
-4.95994
0
LINE
8
BLACK
6
CONTINUOUS
10
6.35711
20
-4.95994
11
6.35582
21
-4.96078
0
LINE
8
BLACK
6
CONTINUOUS
10
6.35582
20
-4.96078
11
6.35438
21
-4.96136
0
LINE
8
BLACK
6
CONTINUOUS
10
6.35438
20
-4.96136
11
6.35287
21
-4.96164
0
LINE
8
BLACK
6
CONTINUOUS
10
6.35287
20
-4.96164
11
6.35133
21
-4.96163
0
LINE
8
BLACK
6
CONTINUOUS
10
6.35133
20
-4.96163
11
6.34982
21
-4.96131
0
LINE
8
BLACK
6
CONTINUOUS
10
6.34982
20
-4.96131
11
6.3484
21
-4.9607
0
LINE
8
BLACK
6
CONTINUOUS
10
6.3484
20
-4.9607
11
6.34692
21
-4.95969
0
LINE
8
BLACK
6
CONTINUOUS
10
6.34692
20
-4.95969
11
6.34522
21
-4.95827
0
LINE
8
BLACK
6
CONTINUOUS
10
6.34522
20
-4.95827
11
6.34522
21
-4.95827
0
LINE
8
BLACK
6
CONTINUOUS
10
6.34522
20
-4.95827
11
6.32936
21
-4.94496
0
LINE
8
BLACK
6
CONTINUOUS
10
6.32936
20
-4.94496
11
6.32936
21
-4.94496
0
LINE
8
BLACK
6
CONTINUOUS
10
6.32936
20
-4.94496
11
6.32766
21
-4.94353
0
LINE
8
BLACK
6
CONTINUOUS
10
6.32766
20
-4.94353
11
6.32641
21
-4.94225
0
LINE
8
BLACK
6
CONTINUOUS
10
6.32641
20
-4.94225
11
6.32557
21
-4.94096
0
LINE
8
BLACK
6
CONTINUOUS
10
6.32557
20
-4.94096
11
6.32499
21
-4.93953
0
LINE
8
BLACK
6
CONTINUOUS
10
6.32499
20
-4.93953
11
6.32471
21
-4.93801
0
LINE
8
BLACK
6
CONTINUOUS
10
6.32471
20
-4.93801
11
6.32473
21
-4.93647
0
LINE
8
BLACK
6
CONTINUOUS
10
6.32473
20
-4.93647
11
6.32504
21
-4.93496
0
LINE
8
BLACK
6
CONTINUOUS
10
6.32504
20
-4.93496
11
6.32565
21
-4.93354
0
LINE
8
BLACK
6
CONTINUOUS
10
6.32565
20
-4.93354
11
6.32666
21
-4.93207
0
LINE
8
BLACK
6
CONTINUOUS
10
6.32666
20
-4.93207
11
6.34535
21
-4.90979
0
LINE
8
BLACK
6
CONTINUOUS
10
6.34535
20
-4.90979
11
6.34663
21
-4.90854
0
LINE
8
BLACK
6
CONTINUOUS
10
6.34663
20
-4.90854
11
6.34792
21
-4.9077
0
LINE
8
BLACK
6
CONTINUOUS
10
6.34792
20
-4.9077
11
6.34935
21
-4.90712
0
LINE
8
BLACK
6
CONTINUOUS
10
6.34935
20
-4.90712
11
6.35087
21
-4.90684
0
LINE
8
BLACK
6
CONTINUOUS
10
6.35087
20
-4.90684
11
6.35241
21
-4.90686
0
LINE
8
BLACK
6
CONTINUOUS
10
5.63106
20
-4.88735
11
5.58359
21
-4.95514
0
LINE
8
BLACK
6
CONTINUOUS
10
5.58359
20
-4.95514
11
5.55128
21
-4.93252
0
LINE
8
BLACK
6
CONTINUOUS
10
5.55128
20
-4.93252
11
5.59875
21
-4.86473
0
LINE
8
BLACK
6
CONTINUOUS
10
5.59875
20
-4.86473
11
5.63106
21
-4.88735
0
LINE
8
BLACK
6
CONTINUOUS
10
5.88307
20
-4.89535
11
5.86044
21
-4.92767
0
LINE
8
BLACK
6
CONTINUOUS
10
5.86044
20
-4.92767
11
5.79265
21
-4.8802
0
LINE
8
BLACK
6
CONTINUOUS
10
5.79265
20
-4.8802
11
5.81528
21
-4.84789
0
LINE
8
BLACK
6
CONTINUOUS
10
5.81528
20
-4.84789
11
5.88307
21
-4.89535
0
LINE
8
BLACK
6
CONTINUOUS
10
5.99432
20
-4.87386
11
5.99578
21
-4.87434
0
LINE
8
BLACK
6
CONTINUOUS
10
5.99578
20
-4.87434
11
5.99734
21
-4.87521
0
LINE
8
BLACK
6
CONTINUOUS
10
5.99734
20
-4.87521
11
6.02116
21
-4.89189
0
LINE
8
BLACK
6
CONTINUOUS
10
6.02116
20
-4.89189
11
6.02252
21
-4.89306
0
LINE
8
BLACK
6
CONTINUOUS
10
6.02252
20
-4.89306
11
6.02347
21
-4.89427
0
LINE
8
BLACK
6
CONTINUOUS
10
6.02347
20
-4.89427
11
6.02417
21
-4.89565
0
LINE
8
BLACK
6
CONTINUOUS
10
6.02417
20
-4.89565
11
6.02458
21
-4.89713
0
LINE
8
BLACK
6
CONTINUOUS
10
6.02458
20
-4.89713
11
6.0247
21
-4.89867
0
LINE
8
BLACK
6
CONTINUOUS
10
6.0247
20
-4.89867
11
6.02452
21
-4.9002
0
LINE
8
BLACK
6
CONTINUOUS
10
6.02452
20
-4.9002
11
6.02404
21
-4.90167
0
LINE
8
BLACK
6
CONTINUOUS
10
6.02404
20
-4.90167
11
6.02316
21
-4.90322
0
LINE
8
BLACK
6
CONTINUOUS
10
6.02316
20
-4.90322
11
6.02091
21
-4.90644
0
LINE
8
BLACK
6
CONTINUOUS
10
6.02091
20
-4.90644
11
6.01053
21
-4.92126
0
LINE
8
BLACK
6
CONTINUOUS
10
6.01053
20
-4.92126
11
6.00874
21
-4.92382
0
LINE
8
BLACK
6
CONTINUOUS
10
6.00874
20
-4.92382
11
6.00757
21
-4.92518
0
LINE
8
BLACK
6
CONTINUOUS
10
6.00757
20
-4.92518
11
6.00636
21
-4.92613
0
LINE
8
BLACK
6
CONTINUOUS
10
6.00636
20
-4.92613
11
6.00498
21
-4.92683
0
LINE
8
BLACK
6
CONTINUOUS
10
6.00498
20
-4.92683
11
6.0035
21
-4.92724
0
LINE
8
BLACK
6
CONTINUOUS
10
6.0035
20
-4.92724
11
6.00196
21
-4.92736
0
LINE
8
BLACK
6
CONTINUOUS
10
6.00196
20
-4.92736
11
6.00043
21
-4.92718
0
LINE
8
BLACK
6
CONTINUOUS
10
6.00043
20
-4.92718
11
5.99896
21
-4.9267
0
LINE
8
BLACK
6
CONTINUOUS
10
5.99896
20
-4.9267
11
5.99741
21
-4.92582
0
LINE
8
BLACK
6
CONTINUOUS
10
5.99741
20
-4.92582
11
5.97358
21
-4.90914
0
LINE
8
BLACK
6
CONTINUOUS
10
5.97358
20
-4.90914
11
5.97223
21
-4.90798
0
LINE
8
BLACK
6
CONTINUOUS
10
5.97223
20
-4.90798
11
5.97127
21
-4.90676
0
LINE
8
BLACK
6
CONTINUOUS
10
5.97127
20
-4.90676
11
5.97058
21
-4.90539
0
LINE
8
BLACK
6
CONTINUOUS
10
5.97058
20
-4.90539
11
5.97016
21
-4.9039
0
LINE
8
BLACK
6
CONTINUOUS
10
5.97016
20
-4.9039
11
5.97004
21
-4.90236
0
LINE
8
BLACK
6
CONTINUOUS
10
5.97004
20
-4.90236
11
5.97023
21
-4.90083
0
LINE
8
BLACK
6
CONTINUOUS
10
5.97023
20
-4.90083
11
5.97071
21
-4.89936
0
LINE
8
BLACK
6
CONTINUOUS
10
5.97071
20
-4.89936
11
5.97158
21
-4.89781
0
LINE
8
BLACK
6
CONTINUOUS
10
5.97158
20
-4.89781
11
5.98383
21
-4.88032
0
LINE
8
BLACK
6
CONTINUOUS
10
5.98383
20
-4.88032
11
5.98473
21
-4.87903
0
LINE
8
BLACK
6
CONTINUOUS
10
5.98473
20
-4.87903
11
5.98473
21
-4.87903
0
LINE
8
BLACK
6
CONTINUOUS
10
5.98473
20
-4.87903
11
5.98601
21
-4.87721
0
LINE
8
BLACK
6
CONTINUOUS
10
5.98601
20
-4.87721
11
5.98717
21
-4.87585
0
LINE
8
BLACK
6
CONTINUOUS
10
5.98717
20
-4.87585
11
5.98838
21
-4.8749
0
LINE
8
BLACK
6
CONTINUOUS
10
5.98838
20
-4.8749
11
5.98976
21
-4.8742
0
LINE
8
BLACK
6
CONTINUOUS
10
5.98976
20
-4.8742
11
5.99125
21
-4.87379
0
LINE
8
BLACK
6
CONTINUOUS
10
5.99125
20
-4.87379
11
5.99278
21
-4.87367
0
LINE
8
BLACK
6
CONTINUOUS
10
5.99278
20
-4.87367
11
5.99432
21
-4.87386
0
LINE
8
BLACK
6
CONTINUOUS
10
5.5901
20
-4.85867
11
5.54264
21
-4.92646
0
LINE
8
BLACK
6
CONTINUOUS
10
5.54264
20
-4.92646
11
5.51032
21
-4.90384
0
LINE
8
BLACK
6
CONTINUOUS
10
5.51032
20
-4.90384
11
5.55779
21
-4.83605
0
LINE
8
BLACK
6
CONTINUOUS
10
5.55779
20
-4.83605
11
5.5901
21
-4.85867
0
LINE
8
BLACK
6
CONTINUOUS
10
6.07363
20
-4.84503
11
6.07509
21
-4.84551
0
LINE
8
BLACK
6
CONTINUOUS
10
6.07509
20
-4.84551
11
6.07665
21
-4.84639
0
LINE
8
BLACK
6
CONTINUOUS
10
6.07665
20
-4.84639
11
6.10047
21
-4.86307
0
LINE
8
BLACK
6
CONTINUOUS
10
6.10047
20
-4.86307
11
6.10183
21
-4.86423
0
LINE
8
BLACK
6
CONTINUOUS
10
6.10183
20
-4.86423
11
6.10278
21
-4.86545
0
LINE
8
BLACK
6
CONTINUOUS
10
6.10278
20
-4.86545
11
6.10348
21
-4.86682
0
LINE
8
BLACK
6
CONTINUOUS
10
6.10348
20
-4.86682
11
6.10389
21
-4.86831
0
LINE
8
BLACK
6
CONTINUOUS
10
6.10389
20
-4.86831
11
6.10401
21
-4.86985
0
LINE
8
BLACK
6
CONTINUOUS
10
6.10401
20
-4.86985
11
6.10383
21
-4.87138
0
LINE
8
BLACK
6
CONTINUOUS
10
6.10383
20
-4.87138
11
6.10335
21
-4.87284
0
LINE
8
BLACK
6
CONTINUOUS
10
6.10335
20
-4.87284
11
6.10247
21
-4.8744
0
LINE
8
BLACK
6
CONTINUOUS
10
6.10247
20
-4.8744
11
6.1012
21
-4.87622
0
LINE
8
BLACK
6
CONTINUOUS
10
6.1012
20
-4.87622
11
6.09019
21
-4.89194
0
LINE
8
BLACK
6
CONTINUOUS
10
6.09019
20
-4.89194
11
6.08805
21
-4.895
0
LINE
8
BLACK
6
CONTINUOUS
10
6.08805
20
-4.895
11
6.08688
21
-4.89635
0
LINE
8
BLACK
6
CONTINUOUS
10
6.08688
20
-4.89635
11
6.08567
21
-4.89731
0
LINE
8
BLACK
6
CONTINUOUS
10
6.08567
20
-4.89731
11
6.0843
21
-4.898
0
LINE
8
BLACK
6
CONTINUOUS
10
6.0843
20
-4.898
11
6.08281
21
-4.89842
0
LINE
8
BLACK
6
CONTINUOUS
10
6.08281
20
-4.89842
11
6.08127
21
-4.89854
0
LINE
8
BLACK
6
CONTINUOUS
10
6.08127
20
-4.89854
11
6.07974
21
-4.89835
0
LINE
8
BLACK
6
CONTINUOUS
10
6.07974
20
-4.89835
11
6.07827
21
-4.89787
0
LINE
8
BLACK
6
CONTINUOUS
10
6.07827
20
-4.89787
11
6.07672
21
-4.897
0
LINE
8
BLACK
6
CONTINUOUS
10
6.07672
20
-4.897
11
6.05289
21
-4.88032
0
LINE
8
BLACK
6
CONTINUOUS
10
6.05289
20
-4.88032
11
6.05154
21
-4.87915
0
LINE
8
BLACK
6
CONTINUOUS
10
6.05154
20
-4.87915
11
6.05059
21
-4.87794
0
LINE
8
BLACK
6
CONTINUOUS
10
6.05059
20
-4.87794
11
6.04989
21
-4.87656
0
LINE
8
BLACK
6
CONTINUOUS
10
6.04989
20
-4.87656
11
6.04947
21
-4.87508
0
LINE
8
BLACK
6
CONTINUOUS
10
6.04947
20
-4.87508
11
6.04935
21
-4.87354
0
LINE
8
BLACK
6
CONTINUOUS
10
6.04935
20
-4.87354
11
6.04954
21
-4.87201
0
LINE
8
BLACK
6
CONTINUOUS
10
6.04954
20
-4.87201
11
6.05002
21
-4.87054
0
LINE
8
BLACK
6
CONTINUOUS
10
6.05002
20
-4.87054
11
6.0509
21
-4.86898
0
LINE
8
BLACK
6
CONTINUOUS
10
6.0509
20
-4.86898
11
6.05805
21
-4.85877
0
LINE
8
BLACK
6
CONTINUOUS
10
6.05805
20
-4.85877
11
6.06405
21
-4.8502
0
LINE
8
BLACK
6
CONTINUOUS
10
6.06405
20
-4.8502
11
6.06405
21
-4.8502
0
LINE
8
BLACK
6
CONTINUOUS
10
6.06405
20
-4.8502
11
6.06532
21
-4.84839
0
LINE
8
BLACK
6
CONTINUOUS
10
6.06532
20
-4.84839
11
6.06648
21
-4.84703
0
LINE
8
BLACK
6
CONTINUOUS
10
6.06648
20
-4.84703
11
6.0677
21
-4.84608
0
LINE
8
BLACK
6
CONTINUOUS
10
6.0677
20
-4.84608
11
6.06907
21
-4.84538
0
LINE
8
BLACK
6
CONTINUOUS
10
6.06907
20
-4.84538
11
6.07056
21
-4.84497
0
LINE
8
BLACK
6
CONTINUOUS
10
6.07056
20
-4.84497
11
6.0721
21
-4.84485
0
LINE
8
BLACK
6
CONTINUOUS
10
6.0721
20
-4.84485
11
6.07363
21
-4.84503
0
LINE
8
BLACK
6
CONTINUOUS
10
5.54915
20
-4.83
11
5.50168
21
-4.89779
0
LINE
8
BLACK
6
CONTINUOUS
10
5.50168
20
-4.89779
11
5.46936
21
-4.87516
0
LINE
8
BLACK
6
CONTINUOUS
10
5.46936
20
-4.87516
11
5.51683
21
-4.80737
0
LINE
8
BLACK
6
CONTINUOUS
10
5.51683
20
-4.80737
11
5.54915
21
-4.83
0
LINE
8
BLACK
6
CONTINUOUS
10
6.89172
20
-4.81136
11
6.87395
21
-4.88835
0
LINE
8
BLACK
6
CONTINUOUS
10
6.87395
20
-4.88835
11
6.79331
21
-4.86974
0
LINE
8
BLACK
6
CONTINUOUS
10
6.79331
20
-4.86974
11
6.81109
21
-4.79275
0
LINE
8
BLACK
6
CONTINUOUS
10
6.81109
20
-4.79275
11
6.89172
21
-4.81136
0
LINE
8
BLACK
6
CONTINUOUS
10
5.91175
20
-4.8544
11
5.88912
21
-4.88671
0
LINE
8
BLACK
6
CONTINUOUS
10
5.88912
20
-4.88671
11
5.82133
21
-4.83925
0
LINE
8
BLACK
6
CONTINUOUS
10
5.82133
20
-4.83925
11
5.84396
21
-4.80693
0
LINE
8
BLACK
6
CONTINUOUS
10
5.84396
20
-4.80693
11
5.91175
21
-4.8544
0
LINE
8
BLACK
6
CONTINUOUS
10
5.16103
20
-4.81899
11
5.1625
21
-4.81947
0
LINE
8
BLACK
6
CONTINUOUS
10
5.1625
20
-4.81947
11
5.16405
21
-4.82034
0
LINE
8
BLACK
6
CONTINUOUS
10
5.16405
20
-4.82034
11
5.16587
21
-4.82162
0
LINE
8
BLACK
6
CONTINUOUS
10
5.16587
20
-4.82162
11
5.18264
21
-4.83336
0
LINE
8
BLACK
6
CONTINUOUS
10
5.18264
20
-4.83336
11
5.18465
21
-4.83477
0
LINE
8
BLACK
6
CONTINUOUS
10
5.18465
20
-4.83477
11
5.18601
21
-4.83593
0
LINE
8
BLACK
6
CONTINUOUS
10
5.18601
20
-4.83593
11
5.18696
21
-4.83714
0
LINE
8
BLACK
6
CONTINUOUS
10
5.18696
20
-4.83714
11
5.18765
21
-4.83852
0
LINE
8
BLACK
6
CONTINUOUS
10
5.18765
20
-4.83852
11
5.18807
21
-4.84001
0
LINE
8
BLACK
6
CONTINUOUS
10
5.18807
20
-4.84001
11
5.18819
21
-4.84154
0
LINE
8
BLACK
6
CONTINUOUS
10
5.18819
20
-4.84154
11
5.188
21
-4.84308
0
LINE
8
BLACK
6
CONTINUOUS
10
5.188
20
-4.84308
11
5.18752
21
-4.84454
0
LINE
8
BLACK
6
CONTINUOUS
10
5.18752
20
-4.84454
11
5.18665
21
-4.8461
0
LINE
8
BLACK
6
CONTINUOUS
10
5.18665
20
-4.8461
11
5.16997
21
-4.86992
0
LINE
8
BLACK
6
CONTINUOUS
10
5.16997
20
-4.86992
11
5.1688
21
-4.87128
0
LINE
8
BLACK
6
CONTINUOUS
10
5.1688
20
-4.87128
11
5.16759
21
-4.87223
0
LINE
8
BLACK
6
CONTINUOUS
10
5.16759
20
-4.87223
11
5.16621
21
-4.87293
0
LINE
8
BLACK
6
CONTINUOUS
10
5.16621
20
-4.87293
11
5.16473
21
-4.87334
0
LINE
8
BLACK
6
CONTINUOUS
10
5.16473
20
-4.87334
11
5.16319
21
-4.87346
0
LINE
8
BLACK
6
CONTINUOUS
10
5.16319
20
-4.87346
11
5.16166
21
-4.87328
0
LINE
8
BLACK
6
CONTINUOUS
10
5.16166
20
-4.87328
11
5.16019
21
-4.8728
0
LINE
8
BLACK
6
CONTINUOUS
10
5.16019
20
-4.8728
11
5.15864
21
-4.87192
0
LINE
8
BLACK
6
CONTINUOUS
10
5.15864
20
-4.87192
11
5.146
21
-4.86307
0
LINE
8
BLACK
6
CONTINUOUS
10
5.146
20
-4.86307
11
5.13985
21
-4.85877
0
LINE
8
BLACK
6
CONTINUOUS
10
5.13985
20
-4.85877
11
5.13985
21
-4.85877
0
LINE
8
BLACK
6
CONTINUOUS
10
5.13985
20
-4.85877
11
5.13804
21
-4.8575
0
LINE
8
BLACK
6
CONTINUOUS
10
5.13804
20
-4.8575
11
5.13668
21
-4.85633
0
LINE
8
BLACK
6
CONTINUOUS
10
5.13668
20
-4.85633
11
5.13573
21
-4.85512
0
LINE
8
BLACK
6
CONTINUOUS
10
5.13573
20
-4.85512
11
5.13503
21
-4.85374
0
LINE
8
BLACK
6
CONTINUOUS
10
5.13503
20
-4.85374
11
5.13462
21
-4.85226
0
LINE
8
BLACK
6
CONTINUOUS
10
5.13462
20
-4.85226
11
5.1345
21
-4.85072
0
LINE
8
BLACK
6
CONTINUOUS
10
5.1345
20
-4.85072
11
5.13468
21
-4.84919
0
LINE
8
BLACK
6
CONTINUOUS
10
5.13468
20
-4.84919
11
5.13516
21
-4.84772
0
LINE
8
BLACK
6
CONTINUOUS
10
5.13516
20
-4.84772
11
5.13604
21
-4.84617
0
LINE
8
BLACK
6
CONTINUOUS
10
5.13604
20
-4.84617
11
5.15272
21
-4.82234
0
LINE
8
BLACK
6
CONTINUOUS
10
5.15272
20
-4.82234
11
5.15388
21
-4.82099
0
LINE
8
BLACK
6
CONTINUOUS
10
5.15388
20
-4.82099
11
5.1551
21
-4.82003
0
LINE
8
BLACK
6
CONTINUOUS
10
5.1551
20
-4.82003
11
5.15647
21
-4.81934
0
LINE
8
BLACK
6
CONTINUOUS
10
5.15647
20
-4.81934
11
5.15796
21
-4.81892
0
LINE
8
BLACK
6
CONTINUOUS
10
5.15796
20
-4.81892
11
5.1595
21
-4.8188
0
LINE
8
BLACK
6
CONTINUOUS
10
5.1595
20
-4.8188
11
5.16103
21
-4.81899
0
LINE
8
BLACK
6
CONTINUOUS
10
5.50819
20
-4.80132
11
5.46072
21
-4.86911
0
LINE
8
BLACK
6
CONTINUOUS
10
5.46072
20
-4.86911
11
5.42841
21
-4.84648
0
LINE
8
BLACK
6
CONTINUOUS
10
5.42841
20
-4.84648
11
5.47587
21
-4.77869
0
LINE
8
BLACK
6
CONTINUOUS
10
5.47587
20
-4.77869
11
5.50819
21
-4.80132
0
LINE
8
BLACK
6
CONTINUOUS
10
6.01719
20
-4.80551
11
6.01866
21
-4.80599
0
LINE
8
BLACK
6
CONTINUOUS
10
6.01866
20
-4.80599
11
6.02021
21
-4.80687
0
LINE
8
BLACK
6
CONTINUOUS
10
6.02021
20
-4.80687
11
6.04404
21
-4.82355
0
LINE
8
BLACK
6
CONTINUOUS
10
6.04404
20
-4.82355
11
6.04539
21
-4.82471
0
LINE
8
BLACK
6
CONTINUOUS
10
6.04539
20
-4.82471
11
6.04634
21
-4.82593
0
LINE
8
BLACK
6
CONTINUOUS
10
6.04634
20
-4.82593
11
6.04704
21
-4.8273
0
LINE
8
BLACK
6
CONTINUOUS
10
6.04704
20
-4.8273
11
6.04746
21
-4.82879
0
LINE
8
BLACK
6
CONTINUOUS
10
6.04746
20
-4.82879
11
6.04757
21
-4.83033
0
LINE
8
BLACK
6
CONTINUOUS
10
6.04757
20
-4.83033
11
6.04739
21
-4.83186
0
LINE
8
BLACK
6
CONTINUOUS
10
6.04739
20
-4.83186
11
6.04691
21
-4.83333
0
LINE
8
BLACK
6
CONTINUOUS
10
6.04691
20
-4.83333
11
6.04603
21
-4.83488
0
LINE
8
BLACK
6
CONTINUOUS
10
6.04603
20
-4.83488
11
6.04476
21
-4.8367
0
LINE
8
BLACK
6
CONTINUOUS
10
6.04476
20
-4.8367
11
6.03387
21
-4.85226
0
LINE
8
BLACK
6
CONTINUOUS
10
6.03387
20
-4.85226
11
6.03161
21
-4.85548
0
LINE
8
BLACK
6
CONTINUOUS
10
6.03161
20
-4.85548
11
6.03045
21
-4.85684
0
LINE
8
BLACK
6
CONTINUOUS
10
6.03045
20
-4.85684
11
6.02923
21
-4.85779
0
LINE
8
BLACK
6
CONTINUOUS
10
6.02923
20
-4.85779
11
6.02786
21
-4.85849
0
LINE
8
BLACK
6
CONTINUOUS
10
6.02786
20
-4.85849
11
6.02637
21
-4.8589
0
LINE
8
BLACK
6
CONTINUOUS
10
6.02637
20
-4.8589
11
6.02483
21
-4.85902
0
LINE
8
BLACK
6
CONTINUOUS
10
6.02483
20
-4.85902
11
6.0233
21
-4.85883
0
LINE
8
BLACK
6
CONTINUOUS
10
6.0233
20
-4.85883
11
6.02184
21
-4.85835
0
LINE
8
BLACK
6
CONTINUOUS
10
6.02184
20
-4.85835
11
6.02028
21
-4.85748
0
LINE
8
BLACK
6
CONTINUOUS
10
6.02028
20
-4.85748
11
5.99646
21
-4.8408
0
LINE
8
BLACK
6
CONTINUOUS
10
5.99646
20
-4.8408
11
5.9951
21
-4.83963
0
LINE
8
BLACK
6
CONTINUOUS
10
5.9951
20
-4.83963
11
5.99415
21
-4.83842
0
LINE
8
BLACK
6
CONTINUOUS
10
5.99415
20
-4.83842
11
5.99345
21
-4.83704
0
LINE
8
BLACK
6
CONTINUOUS
10
5.99345
20
-4.83704
11
5.99304
21
-4.83556
0
LINE
8
BLACK
6
CONTINUOUS
10
5.99304
20
-4.83556
11
5.99292
21
-4.83402
0
LINE
8
BLACK
6
CONTINUOUS
10
5.99292
20
-4.83402
11
5.9931
21
-4.83249
0
LINE
8
BLACK
6
CONTINUOUS
10
5.9931
20
-4.83249
11
5.99358
21
-4.83102
0
LINE
8
BLACK
6
CONTINUOUS
10
5.99358
20
-4.83102
11
5.99446
21
-4.82947
0
LINE
8
BLACK
6
CONTINUOUS
10
5.99446
20
-4.82947
11
6.00179
21
-4.81899
0
LINE
8
BLACK
6
CONTINUOUS
10
6.00179
20
-4.81899
11
6.00761
21
-4.81069
0
LINE
8
BLACK
6
CONTINUOUS
10
6.00761
20
-4.81069
11
6.00761
21
-4.81069
0
LINE
8
BLACK
6
CONTINUOUS
10
6.00761
20
-4.81069
11
6.00888
21
-4.80887
0
LINE
8
BLACK
6
CONTINUOUS
10
6.00888
20
-4.80887
11
6.01004
21
-4.80751
0
LINE
8
BLACK
6
CONTINUOUS
10
6.01004
20
-4.80751
11
6.01126
21
-4.80656
0
LINE
8
BLACK
6
CONTINUOUS
10
6.01126
20
-4.80656
11
6.01263
21
-4.80586
0
LINE
8
BLACK
6
CONTINUOUS
10
6.01263
20
-4.80586
11
6.01412
21
-4.80545
0
LINE
8
BLACK
6
CONTINUOUS
10
6.01412
20
-4.80545
11
6.01566
21
-4.80533
0
LINE
8
BLACK
6
CONTINUOUS
10
6.01566
20
-4.80533
11
6.01719
21
-4.80551
0
LINE
8
BLACK
6
CONTINUOUS
10
5.94043
20
-4.81344
11
5.9178
21
-4.84575
0
LINE
8
BLACK
6
CONTINUOUS
10
5.9178
20
-4.84575
11
5.85001
21
-4.79829
0
LINE
8
BLACK
6
CONTINUOUS
10
5.85001
20
-4.79829
11
5.87264
21
-4.76597
0
LINE
8
BLACK
6
CONTINUOUS
10
5.87264
20
-4.76597
11
5.94043
21
-4.81344
0
LINE
8
BLACK
6
CONTINUOUS
10
5.46723
20
-4.77264
11
5.41976
21
-4.84043
0
LINE
8
BLACK
6
CONTINUOUS
10
5.41976
20
-4.84043
11
5.38745
21
-4.8178
0
LINE
8
BLACK
6
CONTINUOUS
10
5.38745
20
-4.8178
11
5.43492
21
-4.75001
0
LINE
8
BLACK
6
CONTINUOUS
10
5.43492
20
-4.75001
11
5.46723
21
-4.77264
0
LINE
8
BLACK
6
CONTINUOUS
10
5.20055
20
-4.76255
11
5.20201
21
-4.76303
0
LINE
8
BLACK
6
CONTINUOUS
10
5.20201
20
-4.76303
11
5.20357
21
-4.76391
0
LINE
8
BLACK
6
CONTINUOUS
10
5.20357
20
-4.76391
11
5.22417
21
-4.77833
0
LINE
8
BLACK
6
CONTINUOUS
10
5.22417
20
-4.77833
11
5.22552
21
-4.77949
0
LINE
8
BLACK
6
CONTINUOUS
10
5.22552
20
-4.77949
11
5.22648
21
-4.78071
0
LINE
8
BLACK
6
CONTINUOUS
10
5.22648
20
-4.78071
11
5.22717
21
-4.78208
0
LINE
8
BLACK
6
CONTINUOUS
10
5.22717
20
-4.78208
11
5.22759
21
-4.78357
0
LINE
8
BLACK
6
CONTINUOUS
10
5.22759
20
-4.78357
11
5.22771
21
-4.78511
0
LINE
8
BLACK
6
CONTINUOUS
10
5.22771
20
-4.78511
11
5.22752
21
-4.78664
0
LINE
8
BLACK
6
CONTINUOUS
10
5.22752
20
-4.78664
11
5.22704
21
-4.7881
0
LINE
8
BLACK
6
CONTINUOUS
10
5.22704
20
-4.7881
11
5.22617
21
-4.78966
0
LINE
8
BLACK
6
CONTINUOUS
10
5.22617
20
-4.78966
11
5.20948
21
-4.81348
0
LINE
8
BLACK
6
CONTINUOUS
10
5.20948
20
-4.81348
11
5.20832
21
-4.81484
0
LINE
8
BLACK
6
CONTINUOUS
10
5.20832
20
-4.81484
11
5.20711
21
-4.81579
0
LINE
8
BLACK
6
CONTINUOUS
10
5.20711
20
-4.81579
11
5.20573
21
-4.81649
0
LINE
8
BLACK
6
CONTINUOUS
10
5.20573
20
-4.81649
11
5.20425
21
-4.81691
0
LINE
8
BLACK
6
CONTINUOUS
10
5.20425
20
-4.81691
11
5.20271
21
-4.81702
0
LINE
8
BLACK
6
CONTINUOUS
10
5.20271
20
-4.81702
11
5.20118
21
-4.81684
0
LINE
8
BLACK
6
CONTINUOUS
10
5.20118
20
-4.81684
11
5.19971
21
-4.81636
0
LINE
8
BLACK
6
CONTINUOUS
10
5.19971
20
-4.81636
11
5.19815
21
-4.81548
0
LINE
8
BLACK
6
CONTINUOUS
10
5.19815
20
-4.81548
11
5.18594
21
-4.80693
0
LINE
8
BLACK
6
CONTINUOUS
10
5.18594
20
-4.80693
11
5.17937
21
-4.80233
0
LINE
8
BLACK
6
CONTINUOUS
10
5.17937
20
-4.80233
11
5.17937
21
-4.80233
0
LINE
8
BLACK
6
CONTINUOUS
10
5.17937
20
-4.80233
11
5.17755
21
-4.80106
0
LINE
8
BLACK
6
CONTINUOUS
10
5.17755
20
-4.80106
11
5.1762
21
-4.7999
0
LINE
8
BLACK
6
CONTINUOUS
10
5.1762
20
-4.7999
11
5.17525
21
-4.79868
0
LINE
8
BLACK
6
CONTINUOUS
10
5.17525
20
-4.79868
11
5.17455
21
-4.79731
0
LINE
8
BLACK
6
CONTINUOUS
10
5.17455
20
-4.79731
11
5.17413
21
-4.79582
0
LINE
8
BLACK
6
CONTINUOUS
10
5.17413
20
-4.79582
11
5.17402
21
-4.79428
0
LINE
8
BLACK
6
CONTINUOUS
10
5.17402
20
-4.79428
11
5.1742
21
-4.79275
0
LINE
8
BLACK
6
CONTINUOUS
10
5.1742
20
-4.79275
11
5.17468
21
-4.79128
0
LINE
8
BLACK
6
CONTINUOUS
10
5.17468
20
-4.79128
11
5.17556
21
-4.78973
0
LINE
8
BLACK
6
CONTINUOUS
10
5.17556
20
-4.78973
11
5.19224
21
-4.7659
0
LINE
8
BLACK
6
CONTINUOUS
10
5.19224
20
-4.7659
11
5.1934
21
-4.76455
0
LINE
8
BLACK
6
CONTINUOUS
10
5.1934
20
-4.76455
11
5.19461
21
-4.7636
0
LINE
8
BLACK
6
CONTINUOUS
10
5.19461
20
-4.7636
11
5.19599
21
-4.7629
0
LINE
8
BLACK
6
CONTINUOUS
10
5.19599
20
-4.7629
11
5.19748
21
-4.76248
0
LINE
8
BLACK
6
CONTINUOUS
10
5.19748
20
-4.76248
11
5.19902
21
-4.76237
0
LINE
8
BLACK
6
CONTINUOUS
10
5.19902
20
-4.76237
11
5.20055
21
-4.76255
0
LINE
8
BLACK
6
CONTINUOUS
10
6.17125
20
-4.78647
11
6.15088
21
-4.81556
0
LINE
8
BLACK
6
CONTINUOUS
10
6.15088
20
-4.81556
11
6.11857
21
-4.79293
0
LINE
8
BLACK
6
CONTINUOUS
10
6.11857
20
-4.79293
11
6.13894
21
-4.76384
0
LINE
8
BLACK
6
CONTINUOUS
10
6.13894
20
-4.76384
11
6.17125
21
-4.78647
0
LINE
8
BLACK
6
CONTINUOUS
10
5.42627
20
-4.74396
11
5.37881
21
-4.81175
0
LINE
8
BLACK
6
CONTINUOUS
10
5.37881
20
-4.81175
11
5.34649
21
-4.78912
0
LINE
8
BLACK
6
CONTINUOUS
10
5.34649
20
-4.78912
11
5.39396
21
-4.72133
0
LINE
8
BLACK
6
CONTINUOUS
10
5.39396
20
-4.72133
11
5.42627
21
-4.74396
0
LINE
8
BLACK
6
CONTINUOUS
10
6.67917
20
-4.72546
11
6.6648
21
-4.80693
0
LINE
8
BLACK
6
CONTINUOUS
10
6.6648
20
-4.80693
11
6.6648
21
-4.80696
0
LINE
8
BLACK
6
CONTINUOUS
10
6.6648
20
-4.80696
11
6.6648
21
-4.80696
0
LINE
8
BLACK
6
CONTINUOUS
10
6.6648
20
-4.80696
11
6.51351
21
-4.78028
0
LINE
8
BLACK
6
CONTINUOUS
10
6.51351
20
-4.78028
11
6.52788
21
-4.69878
0
LINE
8
BLACK
6
CONTINUOUS
10
6.52788
20
-4.69878
11
6.67917
21
-4.72546
0
LINE
8
BLACK
6
CONTINUOUS
10
5.96911
20
-4.77248
11
5.94648
21
-4.8048
0
LINE
8
BLACK
6
CONTINUOUS
10
5.94648
20
-4.8048
11
5.87869
21
-4.75733
0
LINE
8
BLACK
6
CONTINUOUS
10
5.87869
20
-4.75733
11
5.90132
21
-4.72502
0
LINE
8
BLACK
6
CONTINUOUS
10
5.90132
20
-4.72502
11
5.96911
21
-4.77248
0
LINE
8
BLACK
6
CONTINUOUS
10
6.0853
20
-4.77194
11
6.06493
21
-4.80103
0
LINE
8
BLACK
6
CONTINUOUS
10
6.06493
20
-4.80103
11
6.03262
21
-4.7784
0
LINE
8
BLACK
6
CONTINUOUS
10
6.03262
20
-4.7784
11
6.05298
21
-4.74931
0
LINE
8
BLACK
6
CONTINUOUS
10
6.05298
20
-4.74931
11
6.0853
21
-4.77194
0
LINE
8
BLACK
6
CONTINUOUS
10
5.14372
20
-4.71646
11
5.1452
21
-4.71695
0
LINE
8
BLACK
6
CONTINUOUS
10
5.1452
20
-4.71695
11
5.14676
21
-4.71783
0
LINE
8
BLACK
6
CONTINUOUS
10
5.14676
20
-4.71783
11
5.17374
21
-4.73672
0
LINE
8
BLACK
6
CONTINUOUS
10
5.17374
20
-4.73672
11
5.1751
21
-4.73789
0
LINE
8
BLACK
6
CONTINUOUS
10
5.1751
20
-4.73789
11
5.17606
21
-4.73911
0
LINE
8
BLACK
6
CONTINUOUS
10
5.17606
20
-4.73911
11
5.17676
21
-4.74049
0
LINE
8
BLACK
6
CONTINUOUS
10
5.17676
20
-4.74049
11
5.17718
21
-4.74198
0
LINE
8
BLACK
6
CONTINUOUS
10
5.17718
20
-4.74198
11
5.1773
21
-4.74353
0
LINE
8
BLACK
6
CONTINUOUS
10
5.1773
20
-4.74353
11
5.17711
21
-4.74507
0
LINE
8
BLACK
6
CONTINUOUS
10
5.17711
20
-4.74507
11
5.17663
21
-4.74654
0
LINE
8
BLACK
6
CONTINUOUS
10
5.17663
20
-4.74654
11
5.17575
21
-4.74811
0
LINE
8
BLACK
6
CONTINUOUS
10
5.17575
20
-4.74811
11
5.15121
21
-4.78315
0
LINE
8
BLACK
6
CONTINUOUS
10
5.15121
20
-4.78315
11
5.15004
21
-4.78451
0
LINE
8
BLACK
6
CONTINUOUS
10
5.15004
20
-4.78451
11
5.14882
21
-4.78547
0
LINE
8
BLACK
6
CONTINUOUS
10
5.14882
20
-4.78547
11
5.14744
21
-4.78617
0
LINE
8
BLACK
6
CONTINUOUS
10
5.14744
20
-4.78617
11
5.14595
21
-4.78659
0
LINE
8
BLACK
6
CONTINUOUS
10
5.14595
20
-4.78659
11
5.1444
21
-4.78671
0
LINE
8
BLACK
6
CONTINUOUS
10
5.1444
20
-4.78671
11
5.14286
21
-4.78652
0
LINE
8
BLACK
6
CONTINUOUS
10
5.14286
20
-4.78652
11
5.14139
21
-4.78604
0
LINE
8
BLACK
6
CONTINUOUS
10
5.14139
20
-4.78604
11
5.13983
21
-4.78516
0
LINE
8
BLACK
6
CONTINUOUS
10
5.13983
20
-4.78516
11
5.11284
21
-4.76627
0
LINE
8
BLACK
6
CONTINUOUS
10
5.11284
20
-4.76627
11
5.11148
21
-4.7651
0
LINE
8
BLACK
6
CONTINUOUS
10
5.11148
20
-4.7651
11
5.11052
21
-4.76388
0
LINE
8
BLACK
6
CONTINUOUS
10
5.11052
20
-4.76388
11
5.10982
21
-4.76249
0
LINE
8
BLACK
6
CONTINUOUS
10
5.10982
20
-4.76249
11
5.1094
21
-4.761
0
LINE
8
BLACK
6
CONTINUOUS
10
5.1094
20
-4.761
11
5.10929
21
-4.75946
0
LINE
8
BLACK
6
CONTINUOUS
10
5.10929
20
-4.75946
11
5.10947
21
-4.75792
0
LINE
8
BLACK
6
CONTINUOUS
10
5.10947
20
-4.75792
11
5.10995
21
-4.75644
0
LINE
8
BLACK
6
CONTINUOUS
10
5.10995
20
-4.75644
11
5.11083
21
-4.75488
0
LINE
8
BLACK
6
CONTINUOUS
10
5.11083
20
-4.75488
11
5.13537
21
-4.71983
0
LINE
8
BLACK
6
CONTINUOUS
10
5.13537
20
-4.71983
11
5.13654
21
-4.71847
0
LINE
8
BLACK
6
CONTINUOUS
10
5.13654
20
-4.71847
11
5.13776
21
-4.71752
0
LINE
8
BLACK
6
CONTINUOUS
10
5.13776
20
-4.71752
11
5.13914
21
-4.71681
0
LINE
8
BLACK
6
CONTINUOUS
10
5.13914
20
-4.71681
11
5.14064
21
-4.7164
0
LINE
8
BLACK
6
CONTINUOUS
10
5.14064
20
-4.7164
11
5.14218
21
-4.71628
0
LINE
8
BLACK
6
CONTINUOUS
10
5.14218
20
-4.71628
11
5.14372
21
-4.71646
0
LINE
8
BLACK
6
CONTINUOUS
10
5.38532
20
-4.71528
11
5.33785
21
-4.78307
0
LINE
8
BLACK
6
CONTINUOUS
10
5.33785
20
-4.78307
11
5.30553
21
-4.76044
0
LINE
8
BLACK
6
CONTINUOUS
10
5.30553
20
-4.76044
11
5.353
21
-4.69265
0
LINE
8
BLACK
6
CONTINUOUS
10
5.353
20
-4.69265
11
5.38532
21
-4.71528
0
LINE
8
BLACK
6
CONTINUOUS
10
5.99779
20
-4.73152
11
5.97516
21
-4.76384
0
LINE
8
BLACK
6
CONTINUOUS
10
5.97516
20
-4.76384
11
5.90737
21
-4.71637
0
LINE
8
BLACK
6
CONTINUOUS
10
5.90737
20
-4.71637
11
5.93
21
-4.68406
0
LINE
8
BLACK
6
CONTINUOUS
10
5.93
20
-4.68406
11
5.99779
21
-4.73152
0
LINE
8
BLACK
6
CONTINUOUS
10
5.34436
20
-4.6866
11
5.29689
21
-4.75439
0
LINE
8
BLACK
6
CONTINUOUS
10
5.29689
20
-4.75439
11
5.26458
21
-4.73176
0
LINE
8
BLACK
6
CONTINUOUS
10
5.26458
20
-4.73176
11
5.31204
21
-4.66397
0
LINE
8
BLACK
6
CONTINUOUS
10
5.31204
20
-4.66397
11
5.34436
21
-4.6866
0
LINE
8
BLACK
6
CONTINUOUS
10
5.07761
20
-4.67017
11
5.07908
21
-4.67065
0
LINE
8
BLACK
6
CONTINUOUS
10
5.07908
20
-4.67065
11
5.08065
21
-4.67153
0
LINE
8
BLACK
6
CONTINUOUS
10
5.08065
20
-4.67153
11
5.10763
21
-4.69043
0
LINE
8
BLACK
6
CONTINUOUS
10
5.10763
20
-4.69043
11
5.10899
21
-4.69159
0
LINE
8
BLACK
6
CONTINUOUS
10
5.10899
20
-4.69159
11
5.10995
21
-4.69281
0
LINE
8
BLACK
6
CONTINUOUS
10
5.10995
20
-4.69281
11
5.11065
21
-4.6942
0
LINE
8
BLACK
6
CONTINUOUS
10
5.11065
20
-4.6942
11
5.11107
21
-4.69569
0
LINE
8
BLACK
6
CONTINUOUS
10
5.11107
20
-4.69569
11
5.11119
21
-4.69724
0
LINE
8
BLACK
6
CONTINUOUS
10
5.11119
20
-4.69724
11
5.111
21
-4.69878
0
LINE
8
BLACK
6
CONTINUOUS
10
5.111
20
-4.69878
11
5.11052
21
-4.70025
0
LINE
8
BLACK
6
CONTINUOUS
10
5.11052
20
-4.70025
11
5.10964
21
-4.70181
0
LINE
8
BLACK
6
CONTINUOUS
10
5.10964
20
-4.70181
11
5.0851
21
-4.73686
0
LINE
8
BLACK
6
CONTINUOUS
10
5.0851
20
-4.73686
11
5.08393
21
-4.73822
0
LINE
8
BLACK
6
CONTINUOUS
10
5.08393
20
-4.73822
11
5.08271
21
-4.73918
0
LINE
8
BLACK
6
CONTINUOUS
10
5.08271
20
-4.73918
11
5.08133
21
-4.73988
0
LINE
8
BLACK
6
CONTINUOUS
10
5.08133
20
-4.73988
11
5.07983
21
-4.7403
0
LINE
8
BLACK
6
CONTINUOUS
10
5.07983
20
-4.7403
11
5.07829
21
-4.74041
0
LINE
8
BLACK
6
CONTINUOUS
10
5.07829
20
-4.74041
11
5.07675
21
-4.74023
0
LINE
8
BLACK
6
CONTINUOUS
10
5.07675
20
-4.74023
11
5.07528
21
-4.73975
0
LINE
8
BLACK
6
CONTINUOUS
10
5.07528
20
-4.73975
11
5.07371
21
-4.73887
0
LINE
8
BLACK
6
CONTINUOUS
10
5.07371
20
-4.73887
11
5.04673
21
-4.71997
0
LINE
8
BLACK
6
CONTINUOUS
10
5.04673
20
-4.71997
11
5.04537
21
-4.71881
0
LINE
8
BLACK
6
CONTINUOUS
10
5.04537
20
-4.71881
11
5.04441
21
-4.71759
0
LINE
8
BLACK
6
CONTINUOUS
10
5.04441
20
-4.71759
11
5.04371
21
-4.7162
0
LINE
8
BLACK
6
CONTINUOUS
10
5.04371
20
-4.7162
11
5.04329
21
-4.71471
0
LINE
8
BLACK
6
CONTINUOUS
10
5.04329
20
-4.71471
11
5.04317
21
-4.71316
0
LINE
8
BLACK
6
CONTINUOUS
10
5.04317
20
-4.71316
11
5.04336
21
-4.71162
0
LINE
8
BLACK
6
CONTINUOUS
10
5.04336
20
-4.71162
11
5.04384
21
-4.71015
0
LINE
8
BLACK
6
CONTINUOUS
10
5.04384
20
-4.71015
11
5.04472
21
-4.70859
0
LINE
8
BLACK
6
CONTINUOUS
10
5.04472
20
-4.70859
11
5.06926
21
-4.67354
0
LINE
8
BLACK
6
CONTINUOUS
10
5.06926
20
-4.67354
11
5.07043
21
-4.67218
0
LINE
8
BLACK
6
CONTINUOUS
10
5.07043
20
-4.67218
11
5.07165
21
-4.67122
0
LINE
8
BLACK
6
CONTINUOUS
10
5.07165
20
-4.67122
11
5.07303
21
-4.67052
0
LINE
8
BLACK
6
CONTINUOUS
10
5.07303
20
-4.67052
11
5.07452
21
-4.6701
0
LINE
8
BLACK
6
CONTINUOUS
10
5.07452
20
-4.6701
11
5.07607
21
-4.66999
0
LINE
8
BLACK
6
CONTINUOUS
10
5.07607
20
-4.66999
11
5.07761
21
-4.67017
0
LINE
8
BLACK
6
CONTINUOUS
10
6.1282
20
-4.71067
11
6.10784
21
-4.73976
0
LINE
8
BLACK
6
CONTINUOUS
10
6.10784
20
-4.73976
11
6.07552
21
-4.71713
0
LINE
8
BLACK
6
CONTINUOUS
10
6.07552
20
-4.71713
11
6.09589
21
-4.68804
0
LINE
8
BLACK
6
CONTINUOUS
10
6.09589
20
-4.68804
11
6.1282
21
-4.71067
0
LINE
8
BLACK
6
CONTINUOUS
10
5.3034
20
-4.65792
11
5.25593
21
-4.72571
0
LINE
8
BLACK
6
CONTINUOUS
10
5.25593
20
-4.72571
11
5.22362
21
-4.70309
0
LINE
8
BLACK
6
CONTINUOUS
10
5.22362
20
-4.70309
11
5.27109
21
-4.6353
0
LINE
8
BLACK
6
CONTINUOUS
10
5.27109
20
-4.6353
11
5.3034
21
-4.65792
0
LINE
8
BLACK
6
CONTINUOUS
10
6.19476
20
-4.67032
11
6.19623
21
-4.6708
0
LINE
8
BLACK
6
CONTINUOUS
10
6.19623
20
-4.6708
11
6.19778
21
-4.67167
0
LINE
8
BLACK
6
CONTINUOUS
10
6.19778
20
-4.67167
11
6.22161
21
-4.68835
0
LINE
8
BLACK
6
CONTINUOUS
10
6.22161
20
-4.68835
11
6.22296
21
-4.68952
0
LINE
8
BLACK
6
CONTINUOUS
10
6.22296
20
-4.68952
11
6.22392
21
-4.69073
0
LINE
8
BLACK
6
CONTINUOUS
10
6.22392
20
-4.69073
11
6.22461
21
-4.69211
0
LINE
8
BLACK
6
CONTINUOUS
10
6.22461
20
-4.69211
11
6.22503
21
-4.69359
0
LINE
8
BLACK
6
CONTINUOUS
10
6.22503
20
-4.69359
11
6.22515
21
-4.69513
0
LINE
8
BLACK
6
CONTINUOUS
10
6.22515
20
-4.69513
11
6.22496
21
-4.69666
0
LINE
8
BLACK
6
CONTINUOUS
10
6.22496
20
-4.69666
11
6.22448
21
-4.69813
0
LINE
8
BLACK
6
CONTINUOUS
10
6.22448
20
-4.69813
11
6.22361
21
-4.69969
0
LINE
8
BLACK
6
CONTINUOUS
10
6.22361
20
-4.69969
11
6.22233
21
-4.7015
0
LINE
8
BLACK
6
CONTINUOUS
10
6.22233
20
-4.7015
11
6.2105
21
-4.71841
0
LINE
8
BLACK
6
CONTINUOUS
10
6.2105
20
-4.71841
11
6.20918
21
-4.72028
0
LINE
8
BLACK
6
CONTINUOUS
10
6.20918
20
-4.72028
11
6.20802
21
-4.72164
0
LINE
8
BLACK
6
CONTINUOUS
10
6.20802
20
-4.72164
11
6.20681
21
-4.72259
0
LINE
8
BLACK
6
CONTINUOUS
10
6.20681
20
-4.72259
11
6.20543
21
-4.72329
0
LINE
8
BLACK
6
CONTINUOUS
10
6.20543
20
-4.72329
11
6.20394
21
-4.7237
0
LINE
8
BLACK
6
CONTINUOUS
10
6.20394
20
-4.7237
11
6.20241
21
-4.72382
0
LINE
8
BLACK
6
CONTINUOUS
10
6.20241
20
-4.72382
11
6.20087
21
-4.72364
0
LINE
8
BLACK
6
CONTINUOUS
10
6.20087
20
-4.72364
11
6.19941
21
-4.72316
0
LINE
8
BLACK
6
CONTINUOUS
10
6.19941
20
-4.72316
11
6.19785
21
-4.72228
0
LINE
8
BLACK
6
CONTINUOUS
10
6.19785
20
-4.72228
11
6.17403
21
-4.7056
0
LINE
8
BLACK
6
CONTINUOUS
10
6.17403
20
-4.7056
11
6.17267
21
-4.70444
0
LINE
8
BLACK
6
CONTINUOUS
10
6.17267
20
-4.70444
11
6.17172
21
-4.70322
0
LINE
8
BLACK
6
CONTINUOUS
10
6.17172
20
-4.70322
11
6.17102
21
-4.70185
0
LINE
8
BLACK
6
CONTINUOUS
10
6.17102
20
-4.70185
11
6.17061
21
-4.70036
0
LINE
8
BLACK
6
CONTINUOUS
10
6.17061
20
-4.70036
11
6.17049
21
-4.69882
0
LINE
8
BLACK
6
CONTINUOUS
10
6.17049
20
-4.69882
11
6.17067
21
-4.69729
0
LINE
8
BLACK
6
CONTINUOUS
10
6.17067
20
-4.69729
11
6.17115
21
-4.69583
0
LINE
8
BLACK
6
CONTINUOUS
10
6.17115
20
-4.69583
11
6.17203
21
-4.69427
0
LINE
8
BLACK
6
CONTINUOUS
10
6.17203
20
-4.69427
11
6.18645
21
-4.67367
0
LINE
8
BLACK
6
CONTINUOUS
10
6.18645
20
-4.67367
11
6.18762
21
-4.67232
0
LINE
8
BLACK
6
CONTINUOUS
10
6.18762
20
-4.67232
11
6.18883
21
-4.67136
0
LINE
8
BLACK
6
CONTINUOUS
10
6.18883
20
-4.67136
11
6.19021
21
-4.67067
0
LINE
8
BLACK
6
CONTINUOUS
10
6.19021
20
-4.67067
11
6.19169
21
-4.67025
0
LINE
8
BLACK
6
CONTINUOUS
10
6.19169
20
-4.67025
11
6.19323
21
-4.67013
0
LINE
8
BLACK
6
CONTINUOUS
10
6.19323
20
-4.67013
11
6.19476
21
-4.67032
0
LINE
8
BLACK
6
CONTINUOUS
10
6.02646
20
-4.69057
11
6.00384
21
-4.72288
0
LINE
8
BLACK
6
CONTINUOUS
10
6.00384
20
-4.72288
11
5.93605
21
-4.67541
0
LINE
8
BLACK
6
CONTINUOUS
10
5.93605
20
-4.67541
11
5.95868
21
-4.6431
0
LINE
8
BLACK
6
CONTINUOUS
10
5.95868
20
-4.6431
11
6.02646
21
-4.69057
0
LINE
8
BLACK
6
CONTINUOUS
10
5.26244
20
-4.62924
11
5.21498
21
-4.69703
0
LINE
8
BLACK
6
CONTINUOUS
10
5.21498
20
-4.69703
11
5.18266
21
-4.67441
0
LINE
8
BLACK
6
CONTINUOUS
10
5.18266
20
-4.67441
11
5.23013
21
-4.60662
0
LINE
8
BLACK
6
CONTINUOUS
10
5.23013
20
-4.60662
11
5.26244
21
-4.62924
0
LINE
8
BLACK
6
CONTINUOUS
10
5.73271
20
-4.52597
11
5.6175
21
-4.69051
0
LINE
8
BLACK
6
CONTINUOUS
10
5.6175
20
-4.69051
11
5.45296
21
-4.5753
0
LINE
8
BLACK
6
CONTINUOUS
10
5.45296
20
-4.5753
11
5.56817
21
-4.41076
0
LINE
8
BLACK
6
CONTINUOUS
10
5.56817
20
-4.41076
11
5.73271
21
-4.52597
0
LINE
8
BLACK
6
CONTINUOUS
10
6.13832
20
-4.6308
11
6.13979
21
-4.63128
0
LINE
8
BLACK
6
CONTINUOUS
10
6.13979
20
-4.63128
11
6.14135
21
-4.63216
0
LINE
8
BLACK
6
CONTINUOUS
10
6.14135
20
-4.63216
11
6.16517
21
-4.64884
0
LINE
8
BLACK
6
CONTINUOUS
10
6.16517
20
-4.64884
11
6.16653
21
-4.65
0
LINE
8
BLACK
6
CONTINUOUS
10
6.16653
20
-4.65
11
6.16748
21
-4.65121
0
LINE
8
BLACK
6
CONTINUOUS
10
6.16748
20
-4.65121
11
6.16818
21
-4.65259
0
LINE
8
BLACK
6
CONTINUOUS
10
6.16818
20
-4.65259
11
6.16859
21
-4.65407
0
LINE
8
BLACK
6
CONTINUOUS
10
6.16859
20
-4.65407
11
6.16871
21
-4.65561
0
LINE
8
BLACK
6
CONTINUOUS
10
6.16871
20
-4.65561
11
6.16852
21
-4.65714
0
LINE
8
BLACK
6
CONTINUOUS
10
6.16852
20
-4.65714
11
6.16804
21
-4.65861
0
LINE
8
BLACK
6
CONTINUOUS
10
6.16804
20
-4.65861
11
6.16717
21
-4.66017
0
LINE
8
BLACK
6
CONTINUOUS
10
6.16717
20
-4.66017
11
6.1659
21
-4.66198
0
LINE
8
BLACK
6
CONTINUOUS
10
6.1659
20
-4.66198
11
6.15606
21
-4.67604
0
LINE
8
BLACK
6
CONTINUOUS
10
6.15606
20
-4.67604
11
6.15275
21
-4.68077
0
LINE
8
BLACK
6
CONTINUOUS
10
6.15275
20
-4.68077
11
6.15158
21
-4.68212
0
LINE
8
BLACK
6
CONTINUOUS
10
6.15158
20
-4.68212
11
6.15037
21
-4.68307
0
LINE
8
BLACK
6
CONTINUOUS
10
6.15037
20
-4.68307
11
6.14899
21
-4.68377
0
LINE
8
BLACK
6
CONTINUOUS
10
6.14899
20
-4.68377
11
6.14751
21
-4.68419
0
LINE
8
BLACK
6
CONTINUOUS
10
6.14751
20
-4.68419
11
6.14597
21
-4.6843
0
LINE
8
BLACK
6
CONTINUOUS
10
6.14597
20
-4.6843
11
6.14444
21
-4.68412
0
LINE
8
BLACK
6
CONTINUOUS
10
6.14444
20
-4.68412
11
6.14297
21
-4.68364
0
LINE
8
BLACK
6
CONTINUOUS
10
6.14297
20
-4.68364
11
6.14141
21
-4.68276
0
LINE
8
BLACK
6
CONTINUOUS
10
6.14141
20
-4.68276
11
6.11759
21
-4.66608
0
LINE
8
BLACK
6
CONTINUOUS
10
6.11759
20
-4.66608
11
6.11624
21
-4.66492
0
LINE
8
BLACK
6
CONTINUOUS
10
6.11624
20
-4.66492
11
6.11528
21
-4.66371
0
LINE
8
BLACK
6
CONTINUOUS
10
6.11528
20
-4.66371
11
6.11459
21
-4.66233
0
LINE
8
BLACK
6
CONTINUOUS
10
6.11459
20
-4.66233
11
6.11417
21
-4.66084
0
LINE
8
BLACK
6
CONTINUOUS
10
6.11417
20
-4.66084
11
6.11405
21
-4.65931
0
LINE
8
BLACK
6
CONTINUOUS
10
6.11405
20
-4.65931
11
6.11424
21
-4.65777
0
LINE
8
BLACK
6
CONTINUOUS
10
6.11424
20
-4.65777
11
6.11472
21
-4.65631
0
LINE
8
BLACK
6
CONTINUOUS
10
6.11472
20
-4.65631
11
6.11559
21
-4.65475
0
LINE
8
BLACK
6
CONTINUOUS
10
6.11559
20
-4.65475
11
6.12525
21
-4.64097
0
LINE
8
BLACK
6
CONTINUOUS
10
6.12525
20
-4.64097
11
6.12874
21
-4.63597
0
LINE
8
BLACK
6
CONTINUOUS
10
6.12874
20
-4.63597
11
6.12874
21
-4.63597
0
LINE
8
BLACK
6
CONTINUOUS
10
6.12874
20
-4.63597
11
6.13002
21
-4.63415
0
LINE
8
BLACK
6
CONTINUOUS
10
6.13002
20
-4.63415
11
6.13118
21
-4.6328
0
LINE
8
BLACK
6
CONTINUOUS
10
6.13118
20
-4.6328
11
6.13239
21
-4.63185
0
LINE
8
BLACK
6
CONTINUOUS
10
6.13239
20
-4.63185
11
6.13377
21
-4.63115
0
LINE
8
BLACK
6
CONTINUOUS
10
6.13377
20
-4.63115
11
6.13525
21
-4.63073
0
LINE
8
BLACK
6
CONTINUOUS
10
6.13525
20
-4.63073
11
6.13679
21
-4.63061
0
LINE
8
BLACK
6
CONTINUOUS
10
6.13679
20
-4.63061
11
6.13832
21
-4.6308
0
LINE
8
BLACK
6
CONTINUOUS
10
6.05514
20
-4.64961
11
6.03252
21
-4.68192
0
LINE
8
BLACK
6
CONTINUOUS
10
6.03252
20
-4.68192
11
5.96473
21
-4.63446
0
LINE
8
BLACK
6
CONTINUOUS
10
5.96473
20
-4.63446
11
5.98735
21
-4.60214
0
LINE
8
BLACK
6
CONTINUOUS
10
5.98735
20
-4.60214
11
6.05514
21
-4.64961
0
LINE
8
BLACK
6
CONTINUOUS
10
6.48655
20
-4.62102
11
6.48956
21
-4.62139
0
LINE
8
BLACK
6
CONTINUOUS
10
6.48956
20
-4.62139
11
6.49315
21
-4.62256
0
LINE
8
BLACK
6
CONTINUOUS
10
6.49315
20
-4.62256
11
6.49435
21
-4.62296
0
LINE
8
BLACK
6
CONTINUOUS
10
6.49435
20
-4.62296
11
6.49875
21
-4.62543
0
LINE
8
BLACK
6
CONTINUOUS
10
6.49875
20
-4.62543
11
6.50241
21
-4.62857
0
LINE
8
BLACK
6
CONTINUOUS
10
6.50241
20
-4.62857
11
6.50258
21
-4.62872
0
LINE
8
BLACK
6
CONTINUOUS
10
6.50258
20
-4.62872
11
6.5057
21
-4.63269
0
LINE
8
BLACK
6
CONTINUOUS
10
6.5057
20
-4.63269
11
6.5057
21
-4.63269
0
LINE
8
BLACK
6
CONTINUOUS
10
6.5057
20
-4.63269
11
6.50798
21
-4.6372
0
LINE
8
BLACK
6
CONTINUOUS
10
6.50798
20
-4.6372
11
6.50934
21
-4.64206
0
LINE
8
BLACK
6
CONTINUOUS
10
6.50934
20
-4.64206
11
6.50973
21
-4.64709
0
LINE
8
BLACK
6
CONTINUOUS
10
6.50973
20
-4.64709
11
6.50912
21
-4.6521
0
LINE
8
BLACK
6
CONTINUOUS
10
6.50912
20
-4.6521
11
6.50755
21
-4.6569
0
LINE
8
BLACK
6
CONTINUOUS
10
6.50755
20
-4.6569
11
6.50508
21
-4.6613
0
LINE
8
BLACK
6
CONTINUOUS
10
6.50508
20
-4.6613
11
6.50179
21
-4.66513
0
LINE
8
BLACK
6
CONTINUOUS
10
6.50179
20
-4.66513
11
6.49782
21
-4.66825
0
LINE
8
BLACK
6
CONTINUOUS
10
6.49782
20
-4.66825
11
6.49782
21
-4.66825
0
LINE
8
BLACK
6
CONTINUOUS
10
6.49782
20
-4.66825
11
6.49332
21
-4.67053
0
LINE
8
BLACK
6
CONTINUOUS
10
6.49332
20
-4.67053
11
6.48967
21
-4.67155
0
LINE
8
BLACK
6
CONTINUOUS
10
6.48967
20
-4.67155
11
6.48967
21
-4.67155
0
LINE
8
BLACK
6
CONTINUOUS
10
6.48967
20
-4.67155
11
6.48967
21
-4.67155
0
LINE
8
BLACK
6
CONTINUOUS
10
6.48967
20
-4.67155
11
6.46587
21
-4.67575
0
LINE
8
BLACK
6
CONTINUOUS
10
6.46587
20
-4.67575
11
6.46461
21
-4.67585
0
LINE
8
BLACK
6
CONTINUOUS
10
6.46461
20
-4.67585
11
6.46209
21
-4.67604
0
LINE
8
BLACK
6
CONTINUOUS
10
6.46209
20
-4.67604
11
6.46209
21
-4.67604
0
LINE
8
BLACK
6
CONTINUOUS
10
6.46209
20
-4.67604
11
6.45708
21
-4.67543
0
LINE
8
BLACK
6
CONTINUOUS
10
6.45708
20
-4.67543
11
6.45228
21
-4.67386
0
LINE
8
BLACK
6
CONTINUOUS
10
6.45228
20
-4.67386
11
6.45228
21
-4.67386
0
LINE
8
BLACK
6
CONTINUOUS
10
6.45228
20
-4.67386
11
6.45228
21
-4.67386
0
LINE
8
BLACK
6
CONTINUOUS
10
6.45228
20
-4.67386
11
6.45027
21
-4.67273
0
LINE
8
BLACK
6
CONTINUOUS
10
6.45027
20
-4.67273
11
6.44788
21
-4.67139
0
LINE
8
BLACK
6
CONTINUOUS
10
6.44788
20
-4.67139
11
6.44405
21
-4.6681
0
LINE
8
BLACK
6
CONTINUOUS
10
6.44405
20
-4.6681
11
6.44094
21
-4.66413
0
LINE
8
BLACK
6
CONTINUOUS
10
6.44094
20
-4.66413
11
6.44086
21
-4.66397
0
LINE
8
BLACK
6
CONTINUOUS
10
6.44086
20
-4.66397
11
6.43865
21
-4.65962
0
LINE
8
BLACK
6
CONTINUOUS
10
6.43865
20
-4.65962
11
6.43729
21
-4.65476
0
LINE
8
BLACK
6
CONTINUOUS
10
6.43729
20
-4.65476
11
6.43691
21
-4.64973
0
LINE
8
BLACK
6
CONTINUOUS
10
6.43691
20
-4.64973
11
6.43692
21
-4.64961
0
LINE
8
BLACK
6
CONTINUOUS
10
6.43692
20
-4.64961
11
6.43751
21
-4.64472
0
LINE
8
BLACK
6
CONTINUOUS
10
6.43751
20
-4.64472
11
6.43908
21
-4.63992
0
LINE
8
BLACK
6
CONTINUOUS
10
6.43908
20
-4.63992
11
6.43908
21
-4.63992
0
LINE
8
BLACK
6
CONTINUOUS
10
6.43908
20
-4.63992
11
6.43908
21
-4.63992
0
LINE
8
BLACK
6
CONTINUOUS
10
6.43908
20
-4.63992
11
6.43989
21
-4.63849
0
LINE
8
BLACK
6
CONTINUOUS
10
6.43989
20
-4.63849
11
6.44156
21
-4.63552
0
LINE
8
BLACK
6
CONTINUOUS
10
6.44156
20
-4.63552
11
6.44485
21
-4.63169
0
LINE
8
BLACK
6
CONTINUOUS
10
6.44485
20
-4.63169
11
6.44882
21
-4.62857
0
LINE
8
BLACK
6
CONTINUOUS
10
6.44882
20
-4.62857
11
6.44882
21
-4.62857
0
LINE
8
BLACK
6
CONTINUOUS
10
6.44882
20
-4.62857
11
6.44882
21
-4.62857
0
LINE
8
BLACK
6
CONTINUOUS
10
6.44882
20
-4.62857
11
6.45332
21
-4.62629
0
LINE
8
BLACK
6
CONTINUOUS
10
6.45332
20
-4.62629
11
6.45697
21
-4.62527
0
LINE
8
BLACK
6
CONTINUOUS
10
6.45697
20
-4.62527
11
6.45697
21
-4.62527
0
LINE
8
BLACK
6
CONTINUOUS
10
6.45697
20
-4.62527
11
6.45697
21
-4.62527
0
LINE
8
BLACK
6
CONTINUOUS
10
6.45697
20
-4.62527
11
6.46324
21
-4.62416
0
LINE
8
BLACK
6
CONTINUOUS
10
6.46324
20
-4.62416
11
6.48077
21
-4.62107
0
LINE
8
BLACK
6
CONTINUOUS
10
6.48077
20
-4.62107
11
6.48454
21
-4.62078
0
LINE
8
BLACK
6
CONTINUOUS
10
6.48454
20
-4.62078
11
6.48454
21
-4.62078
0
LINE
8
BLACK
6
CONTINUOUS
10
6.48454
20
-4.62078
11
6.48655
21
-4.62102
0
LINE
8
BLACK
6
CONTINUOUS
10
5.22149
20
-4.60057
11
5.17402
21
-4.66835
0
LINE
8
BLACK
6
CONTINUOUS
10
5.17402
20
-4.66835
11
5.1417
21
-4.64573
0
LINE
8
BLACK
6
CONTINUOUS
10
5.1417
20
-4.64573
11
5.18917
21
-4.57794
0
LINE
8
BLACK
6
CONTINUOUS
10
5.18917
20
-4.57794
11
5.22149
21
-4.60057
0
LINE
8
BLACK
6
CONTINUOUS
10
6.08382
20
-4.60865
11
6.0612
21
-4.64097
0
LINE
8
BLACK
6
CONTINUOUS
10
6.0612
20
-4.64097
11
5.99341
21
-4.5935
0
LINE
8
BLACK
6
CONTINUOUS
10
5.99341
20
-4.5935
11
6.01603
21
-4.56118
0
LINE
8
BLACK
6
CONTINUOUS
10
6.01603
20
-4.56118
11
6.08382
21
-4.60865
0
LINE
8
BLACK
6
CONTINUOUS
10
6.48645
20
-4.54074
11
6.4879
21
-4.54122
0
LINE
8
BLACK
6
CONTINUOUS
10
6.4879
20
-4.54122
11
6.48923
21
-4.54196
0
LINE
8
BLACK
6
CONTINUOUS
10
6.48923
20
-4.54196
11
6.49039
21
-4.54296
0
LINE
8
BLACK
6
CONTINUOUS
10
6.49039
20
-4.54296
11
6.49133
21
-4.54416
0
LINE
8
BLACK
6
CONTINUOUS
10
6.49133
20
-4.54416
11
6.49202
21
-4.54552
0
LINE
8
BLACK
6
CONTINUOUS
10
6.49202
20
-4.54552
11
6.4925
21
-4.54722
0
LINE
8
BLACK
6
CONTINUOUS
10
6.4925
20
-4.54722
11
6.49295
21
-4.54981
0
LINE
8
BLACK
6
CONTINUOUS
10
6.49295
20
-4.54981
11
6.49482
21
-4.56039
0
LINE
8
BLACK
6
CONTINUOUS
10
6.49482
20
-4.56039
11
6.4986
21
-4.58185
0
LINE
8
BLACK
6
CONTINUOUS
10
6.4986
20
-4.58185
11
6.49874
21
-4.58361
0
LINE
8
BLACK
6
CONTINUOUS
10
6.49874
20
-4.58361
11
6.49855
21
-4.58513
0
LINE
8
BLACK
6
CONTINUOUS
10
6.49855
20
-4.58513
11
6.49808
21
-4.58658
0
LINE
8
BLACK
6
CONTINUOUS
10
6.49808
20
-4.58658
11
6.49733
21
-4.58791
0
LINE
8
BLACK
6
CONTINUOUS
10
6.49733
20
-4.58791
11
6.49634
21
-4.58907
0
LINE
8
BLACK
6
CONTINUOUS
10
6.49634
20
-4.58907
11
6.49514
21
-4.59001
0
LINE
8
BLACK
6
CONTINUOUS
10
6.49514
20
-4.59001
11
6.49377
21
-4.5907
0
LINE
8
BLACK
6
CONTINUOUS
10
6.49377
20
-4.5907
11
6.49207
21
-4.59117
0
LINE
8
BLACK
6
CONTINUOUS
10
6.49207
20
-4.59117
11
6.43612
21
-4.60104
0
LINE
8
BLACK
6
CONTINUOUS
10
6.43612
20
-4.60104
11
6.43436
21
-4.60117
0
LINE
8
BLACK
6
CONTINUOUS
10
6.43436
20
-4.60117
11
6.43284
21
-4.60099
0
LINE
8
BLACK
6
CONTINUOUS
10
6.43284
20
-4.60099
11
6.43139
21
-4.60052
0
LINE
8
BLACK
6
CONTINUOUS
10
6.43139
20
-4.60052
11
6.43006
21
-4.59977
0
LINE
8
BLACK
6
CONTINUOUS
10
6.43006
20
-4.59977
11
6.4289
21
-4.59877
0
LINE
8
BLACK
6
CONTINUOUS
10
6.4289
20
-4.59877
11
6.42796
21
-4.59757
0
LINE
8
BLACK
6
CONTINUOUS
10
6.42796
20
-4.59757
11
6.42727
21
-4.59621
0
LINE
8
BLACK
6
CONTINUOUS
10
6.42727
20
-4.59621
11
6.4268
21
-4.59451
0
LINE
8
BLACK
6
CONTINUOUS
10
6.4268
20
-4.59451
11
6.42456
21
-4.58185
0
LINE
8
BLACK
6
CONTINUOUS
10
6.42456
20
-4.58185
11
6.42115
21
-4.56247
0
LINE
8
BLACK
6
CONTINUOUS
10
6.42115
20
-4.56247
11
6.42115
21
-4.56247
0
LINE
8
BLACK
6
CONTINUOUS
10
6.42115
20
-4.56247
11
6.42069
21
-4.55988
0
LINE
8
BLACK
6
CONTINUOUS
10
6.42069
20
-4.55988
11
6.42056
21
-4.55812
0
LINE
8
BLACK
6
CONTINUOUS
10
6.42056
20
-4.55812
11
6.42074
21
-4.55661
0
LINE
8
BLACK
6
CONTINUOUS
10
6.42074
20
-4.55661
11
6.42121
21
-4.55515
0
LINE
8
BLACK
6
CONTINUOUS
10
6.42121
20
-4.55515
11
6.42196
21
-4.55383
0
LINE
8
BLACK
6
CONTINUOUS
10
6.42196
20
-4.55383
11
6.42295
21
-4.55267
0
LINE
8
BLACK
6
CONTINUOUS
10
6.42295
20
-4.55267
11
6.42416
21
-4.55172
0
LINE
8
BLACK
6
CONTINUOUS
10
6.42416
20
-4.55172
11
6.42552
21
-4.55103
0
LINE
8
BLACK
6
CONTINUOUS
10
6.42552
20
-4.55103
11
6.42722
21
-4.55056
0
LINE
8
BLACK
6
CONTINUOUS
10
6.42722
20
-4.55056
11
6.48317
21
-4.54069
0
LINE
8
BLACK
6
CONTINUOUS
10
6.48317
20
-4.54069
11
6.48493
21
-4.54056
0
LINE
8
BLACK
6
CONTINUOUS
10
6.48493
20
-4.54056
11
6.48645
21
-4.54074
0
LINE
8
BLACK
6
CONTINUOUS
10
6.1125
20
-4.56769
11
6.08987
21
-4.60001
0
LINE
8
BLACK
6
CONTINUOUS
10
6.08987
20
-4.60001
11
6.02208
21
-4.55254
0
LINE
8
BLACK
6
CONTINUOUS
10
6.02208
20
-4.55254
11
6.04471
21
-4.52023
0
LINE
8
BLACK
6
CONTINUOUS
10
6.04471
20
-4.52023
11
6.1125
21
-4.56769
0
LINE
8
BLACK
6
CONTINUOUS
10
6.13782
20
-4.42514
11
6.09036
21
-4.49293
0
LINE
8
BLACK
6
CONTINUOUS
10
6.09036
20
-4.49293
11
6.05804
21
-4.4703
0
LINE
8
BLACK
6
CONTINUOUS
10
6.05804
20
-4.4703
11
6.10551
21
-4.40251
0
LINE
8
BLACK
6
CONTINUOUS
10
6.10551
20
-4.40251
11
6.13782
21
-4.42514
0
LINE
8
BLACK
6
CONTINUOUS
10
6.09687
20
-4.39646
11
6.0494
21
-4.46425
0
LINE
8
BLACK
6
CONTINUOUS
10
6.0494
20
-4.46425
11
6.01708
21
-4.44162
0
LINE
8
BLACK
6
CONTINUOUS
10
6.01708
20
-4.44162
11
6.06455
21
-4.37383
0
LINE
8
BLACK
6
CONTINUOUS
10
6.06455
20
-4.37383
11
6.09687
21
-4.39646
0
LINE
8
BLACK
6
CONTINUOUS
10
6.05591
20
-4.36778
11
6.00844
21
-4.43557
0
LINE
8
BLACK
6
CONTINUOUS
10
6.00844
20
-4.43557
11
5.97613
21
-4.41294
0
LINE
8
BLACK
6
CONTINUOUS
10
5.97613
20
-4.41294
11
6.02359
21
-4.34515
0
LINE
8
BLACK
6
CONTINUOUS
10
6.02359
20
-4.34515
11
6.05591
21
-4.36778
0
LINE
8
BLACK
6
CONTINUOUS
10
6.57627
20
-4.33609
11
6.57772
21
-4.33657
0
LINE
8
BLACK
6
CONTINUOUS
10
6.57772
20
-4.33657
11
6.57905
21
-4.33732
0
LINE
8
BLACK
6
CONTINUOUS
10
6.57905
20
-4.33732
11
6.58021
21
-4.33831
0
LINE
8
BLACK
6
CONTINUOUS
10
6.58021
20
-4.33831
11
6.58115
21
-4.33951
0
LINE
8
BLACK
6
CONTINUOUS
10
6.58115
20
-4.33951
11
6.58184
21
-4.34087
0
LINE
8
BLACK
6
CONTINUOUS
10
6.58184
20
-4.34087
11
6.58232
21
-4.34257
0
LINE
8
BLACK
6
CONTINUOUS
10
6.58232
20
-4.34257
11
6.59218
21
-4.39852
0
LINE
8
BLACK
6
CONTINUOUS
10
6.59218
20
-4.39852
11
6.59232
21
-4.40029
0
LINE
8
BLACK
6
CONTINUOUS
10
6.59232
20
-4.40029
11
6.59213
21
-4.4018
0
LINE
8
BLACK
6
CONTINUOUS
10
6.59213
20
-4.4018
11
6.59166
21
-4.40325
0
LINE
8
BLACK
6
CONTINUOUS
10
6.59166
20
-4.40325
11
6.59091
21
-4.40458
0
LINE
8
BLACK
6
CONTINUOUS
10
6.59091
20
-4.40458
11
6.58992
21
-4.40574
0
LINE
8
BLACK
6
CONTINUOUS
10
6.58992
20
-4.40574
11
6.58872
21
-4.40668
0
LINE
8
BLACK
6
CONTINUOUS
10
6.58872
20
-4.40668
11
6.58735
21
-4.40737
0
LINE
8
BLACK
6
CONTINUOUS
10
6.58735
20
-4.40737
11
6.58565
21
-4.40785
0
LINE
8
BLACK
6
CONTINUOUS
10
6.58565
20
-4.40785
11
6.58306
21
-4.40831
0
LINE
8
BLACK
6
CONTINUOUS
10
6.58306
20
-4.40831
11
6.58306
21
-4.40831
0
LINE
8
BLACK
6
CONTINUOUS
10
6.58306
20
-4.40831
11
6.55361
21
-4.4135
0
LINE
8
BLACK
6
CONTINUOUS
10
6.55361
20
-4.4135
11
6.55361
21
-4.4135
0
LINE
8
BLACK
6
CONTINUOUS
10
6.55361
20
-4.4135
11
6.55103
21
-4.41396
0
LINE
8
BLACK
6
CONTINUOUS
10
6.55103
20
-4.41396
11
6.54926
21
-4.41409
0
LINE
8
BLACK
6
CONTINUOUS
10
6.54926
20
-4.41409
11
6.54775
21
-4.41391
0
LINE
8
BLACK
6
CONTINUOUS
10
6.54775
20
-4.41391
11
6.5463
21
-4.41343
0
LINE
8
BLACK
6
CONTINUOUS
10
6.5463
20
-4.41343
11
6.54497
21
-4.41268
0
LINE
8
BLACK
6
CONTINUOUS
10
6.54497
20
-4.41268
11
6.54381
21
-4.41169
0
LINE
8
BLACK
6
CONTINUOUS
10
6.54381
20
-4.41169
11
6.54287
21
-4.41049
0
LINE
8
BLACK
6
CONTINUOUS
10
6.54287
20
-4.41049
11
6.54218
21
-4.40913
0
LINE
8
BLACK
6
CONTINUOUS
10
6.54218
20
-4.40913
11
6.5417
21
-4.40743
0
LINE
8
BLACK
6
CONTINUOUS
10
6.5417
20
-4.40743
11
6.53183
21
-4.35148
0
LINE
8
BLACK
6
CONTINUOUS
10
6.53183
20
-4.35148
11
6.5317
21
-4.34971
0
LINE
8
BLACK
6
CONTINUOUS
10
6.5317
20
-4.34971
11
6.53188
21
-4.3482
0
LINE
8
BLACK
6
CONTINUOUS
10
6.53188
20
-4.3482
11
6.53236
21
-4.34675
0
LINE
8
BLACK
6
CONTINUOUS
10
6.53236
20
-4.34675
11
6.53311
21
-4.34542
0
LINE
8
BLACK
6
CONTINUOUS
10
6.53311
20
-4.34542
11
6.5341
21
-4.34426
0
LINE
8
BLACK
6
CONTINUOUS
10
6.5341
20
-4.34426
11
6.5353
21
-4.34332
0
LINE
8
BLACK
6
CONTINUOUS
10
6.5353
20
-4.34332
11
6.53666
21
-4.34263
0
LINE
8
BLACK
6
CONTINUOUS
10
6.53666
20
-4.34263
11
6.53836
21
-4.34215
0
LINE
8
BLACK
6
CONTINUOUS
10
6.53836
20
-4.34215
11
6.5489
21
-4.34029
0
LINE
8
BLACK
6
CONTINUOUS
10
6.5489
20
-4.34029
11
6.5704
21
-4.3365
0
LINE
8
BLACK
6
CONTINUOUS
10
6.5704
20
-4.3365
11
6.5704
21
-4.3365
0
LINE
8
BLACK
6
CONTINUOUS
10
6.5704
20
-4.3365
11
6.57299
21
-4.33604
0
LINE
8
BLACK
6
CONTINUOUS
10
6.57299
20
-4.33604
11
6.57475
21
-4.33591
0
LINE
8
BLACK
6
CONTINUOUS
10
6.57475
20
-4.33591
11
6.57627
21
-4.33609
0
LINE
8
BLACK
6
CONTINUOUS
10
6.01495
20
-4.3391
11
5.96748
21
-4.40689
0
LINE
8
BLACK
6
CONTINUOUS
10
5.96748
20
-4.40689
11
5.93517
21
-4.38426
0
LINE
8
BLACK
6
CONTINUOUS
10
5.93517
20
-4.38426
11
5.98264
21
-4.31647
0
LINE
8
BLACK
6
CONTINUOUS
10
5.98264
20
-4.31647
11
6.01495
21
-4.3391
0
LINE
8
BLACK
6
CONTINUOUS
10
6.64325
20
-4.32552
11
6.64804
21
-4.32709
0
LINE
8
BLACK
6
CONTINUOUS
10
6.64804
20
-4.32709
11
6.64804
21
-4.32709
0
LINE
8
BLACK
6
CONTINUOUS
10
6.64804
20
-4.32709
11
6.64804
21
-4.32709
0
LINE
8
BLACK
6
CONTINUOUS
10
6.64804
20
-4.32709
11
6.64948
21
-4.3279
0
LINE
8
BLACK
6
CONTINUOUS
10
6.64948
20
-4.3279
11
6.65244
21
-4.32957
0
LINE
8
BLACK
6
CONTINUOUS
10
6.65244
20
-4.32957
11
6.65628
21
-4.33286
0
LINE
8
BLACK
6
CONTINUOUS
10
6.65628
20
-4.33286
11
6.65909
21
-4.33645
0
LINE
8
BLACK
6
CONTINUOUS
10
6.65909
20
-4.33645
11
6.65939
21
-4.33683
0
LINE
8
BLACK
6
CONTINUOUS
10
6.65939
20
-4.33683
11
6.66167
21
-4.34133
0
LINE
8
BLACK
6
CONTINUOUS
10
6.66167
20
-4.34133
11
6.66256
21
-4.3445
0
LINE
8
BLACK
6
CONTINUOUS
10
6.66256
20
-4.3445
11
6.66269
21
-4.34497
0
LINE
8
BLACK
6
CONTINUOUS
10
6.66269
20
-4.34497
11
6.6635
21
-4.34953
0
LINE
8
BLACK
6
CONTINUOUS
10
6.6635
20
-4.34953
11
6.66689
21
-4.36878
0
LINE
8
BLACK
6
CONTINUOUS
10
6.66689
20
-4.36878
11
6.66718
21
-4.37255
0
LINE
8
BLACK
6
CONTINUOUS
10
6.66718
20
-4.37255
11
6.66658
21
-4.37756
0
LINE
8
BLACK
6
CONTINUOUS
10
6.66658
20
-4.37756
11
6.6654
21
-4.38116
0
LINE
8
BLACK
6
CONTINUOUS
10
6.6654
20
-4.38116
11
6.665
21
-4.38236
0
LINE
8
BLACK
6
CONTINUOUS
10
6.665
20
-4.38236
11
6.66253
21
-4.38676
0
LINE
8
BLACK
6
CONTINUOUS
10
6.66253
20
-4.38676
11
6.65924
21
-4.39059
0
LINE
8
BLACK
6
CONTINUOUS
10
6.65924
20
-4.39059
11
6.65924
21
-4.39059
0
LINE
8
BLACK
6
CONTINUOUS
10
6.65924
20
-4.39059
11
6.65527
21
-4.39371
0
LINE
8
BLACK
6
CONTINUOUS
10
6.65527
20
-4.39371
11
6.65527
21
-4.39371
0
LINE
8
BLACK
6
CONTINUOUS
10
6.65527
20
-4.39371
11
6.65077
21
-4.39599
0
LINE
8
BLACK
6
CONTINUOUS
10
6.65077
20
-4.39599
11
6.65077
21
-4.39599
0
LINE
8
BLACK
6
CONTINUOUS
10
6.65077
20
-4.39599
11
6.65077
21
-4.39599
0
LINE
8
BLACK
6
CONTINUOUS
10
6.65077
20
-4.39599
11
6.6459
21
-4.39735
0
LINE
8
BLACK
6
CONTINUOUS
10
6.6459
20
-4.39735
11
6.64087
21
-4.39774
0
LINE
8
BLACK
6
CONTINUOUS
10
6.64087
20
-4.39774
11
6.64087
21
-4.39774
0
LINE
8
BLACK
6
CONTINUOUS
10
6.64087
20
-4.39774
11
6.63586
21
-4.39713
0
LINE
8
BLACK
6
CONTINUOUS
10
6.63586
20
-4.39713
11
6.63106
21
-4.39556
0
LINE
8
BLACK
6
CONTINUOUS
10
6.63106
20
-4.39556
11
6.62666
21
-4.39309
0
LINE
8
BLACK
6
CONTINUOUS
10
6.62666
20
-4.39309
11
6.62283
21
-4.3898
0
LINE
8
BLACK
6
CONTINUOUS
10
6.62283
20
-4.3898
11
6.61971
21
-4.38583
0
LINE
8
BLACK
6
CONTINUOUS
10
6.61971
20
-4.38583
11
6.61892
21
-4.38426
0
LINE
8
BLACK
6
CONTINUOUS
10
6.61892
20
-4.38426
11
6.61743
21
-4.38132
0
LINE
8
BLACK
6
CONTINUOUS
10
6.61743
20
-4.38132
11
6.61641
21
-4.37768
0
LINE
8
BLACK
6
CONTINUOUS
10
6.61641
20
-4.37768
11
6.61251
21
-4.35559
0
LINE
8
BLACK
6
CONTINUOUS
10
6.61251
20
-4.35559
11
6.61221
21
-4.35388
0
LINE
8
BLACK
6
CONTINUOUS
10
6.61221
20
-4.35388
11
6.61192
21
-4.3501
0
LINE
8
BLACK
6
CONTINUOUS
10
6.61192
20
-4.3501
11
6.61253
21
-4.34509
0
LINE
8
BLACK
6
CONTINUOUS
10
6.61253
20
-4.34509
11
6.6141
21
-4.34029
0
LINE
8
BLACK
6
CONTINUOUS
10
6.6141
20
-4.34029
11
6.6141
21
-4.34029
0
LINE
8
BLACK
6
CONTINUOUS
10
6.6141
20
-4.34029
11
6.6141
21
-4.34029
0
LINE
8
BLACK
6
CONTINUOUS
10
6.6141
20
-4.34029
11
6.61524
21
-4.33827
0
LINE
8
BLACK
6
CONTINUOUS
10
6.61524
20
-4.33827
11
6.61658
21
-4.33589
0
LINE
8
BLACK
6
CONTINUOUS
10
6.61658
20
-4.33589
11
6.61986
21
-4.33206
0
LINE
8
BLACK
6
CONTINUOUS
10
6.61986
20
-4.33206
11
6.62383
21
-4.32894
0
LINE
8
BLACK
6
CONTINUOUS
10
6.62383
20
-4.32894
11
6.62383
21
-4.32894
0
LINE
8
BLACK
6
CONTINUOUS
10
6.62383
20
-4.32894
11
6.62383
21
-4.32894
0
LINE
8
BLACK
6
CONTINUOUS
10
6.62383
20
-4.32894
11
6.62834
21
-4.32666
0
LINE
8
BLACK
6
CONTINUOUS
10
6.62834
20
-4.32666
11
6.6332
21
-4.3253
0
LINE
8
BLACK
6
CONTINUOUS
10
6.6332
20
-4.3253
11
6.63823
21
-4.32492
0
LINE
8
BLACK
6
CONTINUOUS
10
6.63823
20
-4.32492
11
6.63823
21
-4.32492
0
LINE
8
BLACK
6
CONTINUOUS
10
6.63823
20
-4.32492
11
6.64325
21
-4.32552
0
LINE
8
BLACK
6
CONTINUOUS
10
5.97399
20
-4.31042
11
5.92653
21
-4.37821
0
LINE
8
BLACK
6
CONTINUOUS
10
5.92653
20
-4.37821
11
5.89421
21
-4.35559
0
LINE
8
BLACK
6
CONTINUOUS
10
5.89421
20
-4.35559
11
5.94168
21
-4.2878
0
LINE
8
BLACK
6
CONTINUOUS
10
5.94168
20
-4.2878
11
5.97399
21
-4.31042
0
LINE
8
BLACK
6
CONTINUOUS
10
6.20809
20
-4.30098
11
6.21419
21
-4.30351
0
LINE
8
BLACK
6
CONTINUOUS
10
6.21419
20
-4.30351
11
6.21968
21
-4.30717
0
LINE
8
BLACK
6
CONTINUOUS
10
6.21968
20
-4.30717
11
6.22434
21
-4.31184
0
LINE
8
BLACK
6
CONTINUOUS
10
6.22434
20
-4.31184
11
6.22801
21
-4.31733
0
LINE
8
BLACK
6
CONTINUOUS
10
6.22801
20
-4.31733
11
6.23053
21
-4.32343
0
LINE
8
BLACK
6
CONTINUOUS
10
6.23053
20
-4.32343
11
6.23182
21
-4.3299
0
LINE
8
BLACK
6
CONTINUOUS
10
6.23182
20
-4.3299
11
6.23182
21
-4.3365
0
LINE
8
BLACK
6
CONTINUOUS
10
6.23182
20
-4.3365
11
6.23053
21
-4.34297
0
LINE
8
BLACK
6
CONTINUOUS
10
6.23053
20
-4.34297
11
6.22801
21
-4.34907
0
LINE
8
BLACK
6
CONTINUOUS
10
6.22801
20
-4.34907
11
6.22434
21
-4.35456
0
LINE
8
BLACK
6
CONTINUOUS
10
6.22434
20
-4.35456
11
6.21968
21
-4.35922
0
LINE
8
BLACK
6
CONTINUOUS
10
6.21968
20
-4.35922
11
6.21419
21
-4.36289
0
LINE
8
BLACK
6
CONTINUOUS
10
6.21419
20
-4.36289
11
6.20809
21
-4.36542
0
LINE
8
BLACK
6
CONTINUOUS
10
6.20809
20
-4.36542
11
6.20162
21
-4.3667
0
LINE
8
BLACK
6
CONTINUOUS
10
6.20162
20
-4.3667
11
6.19502
21
-4.3667
0
LINE
8
BLACK
6
CONTINUOUS
10
6.19502
20
-4.3667
11
6.18855
21
-4.36542
0
LINE
8
BLACK
6
CONTINUOUS
10
6.18855
20
-4.36542
11
6.18245
21
-4.36289
0
LINE
8
BLACK
6
CONTINUOUS
10
6.18245
20
-4.36289
11
6.17696
21
-4.35922
0
LINE
8
BLACK
6
CONTINUOUS
10
6.17696
20
-4.35922
11
6.17229
21
-4.35456
0
LINE
8
BLACK
6
CONTINUOUS
10
6.17229
20
-4.35456
11
6.16863
21
-4.34907
0
LINE
8
BLACK
6
CONTINUOUS
10
6.16863
20
-4.34907
11
6.1661
21
-4.34297
0
LINE
8
BLACK
6
CONTINUOUS
10
6.1661
20
-4.34297
11
6.16481
21
-4.3365
0
LINE
8
BLACK
6
CONTINUOUS
10
6.16481
20
-4.3365
11
6.16481
21
-4.3299
0
LINE
8
BLACK
6
CONTINUOUS
10
6.16481
20
-4.3299
11
6.1661
21
-4.32343
0
LINE
8
BLACK
6
CONTINUOUS
10
6.1661
20
-4.32343
11
6.16863
21
-4.31733
0
LINE
8
BLACK
6
CONTINUOUS
10
6.16863
20
-4.31733
11
6.17229
21
-4.31184
0
LINE
8
BLACK
6
CONTINUOUS
10
6.17229
20
-4.31184
11
6.17696
21
-4.30717
0
LINE
8
BLACK
6
CONTINUOUS
10
6.17696
20
-4.30717
11
6.18245
21
-4.30351
0
LINE
8
BLACK
6
CONTINUOUS
10
6.18245
20
-4.30351
11
6.18855
21
-4.30098
0
LINE
8
BLACK
6
CONTINUOUS
10
6.18855
20
-4.30098
11
6.19502
21
-4.29969
0
LINE
8
BLACK
6
CONTINUOUS
10
6.19502
20
-4.29969
11
6.20162
21
-4.29969
0
LINE
8
BLACK
6
CONTINUOUS
10
6.20162
20
-4.29969
11
6.20809
21
-4.30098
0
LINE
8
BLACK
6
CONTINUOUS
10
5.93304
20
-4.28174
11
5.88557
21
-4.34953
0
LINE
8
BLACK
6
CONTINUOUS
10
5.88557
20
-4.34953
11
5.85325
21
-4.32691
0
LINE
8
BLACK
6
CONTINUOUS
10
5.85325
20
-4.32691
11
5.90072
21
-4.25912
0
LINE
8
BLACK
6
CONTINUOUS
10
5.90072
20
-4.25912
11
5.93304
21
-4.28174
0
LINE
8
BLACK
6
CONTINUOUS
10
6.37283
20
-4.33645
11
6.30684
21
-4.34808
0
LINE
8
BLACK
6
CONTINUOUS
10
6.30684
20
-4.34808
11
6.29521
21
-4.28209
0
LINE
8
BLACK
6
CONTINUOUS
10
6.29521
20
-4.28209
11
6.3612
21
-4.27046
0
LINE
8
BLACK
6
CONTINUOUS
10
6.3612
20
-4.27046
11
6.37283
21
-4.33645
0
LINE
8
BLACK
6
CONTINUOUS
10
5.89208
20
-4.25307
11
5.84461
21
-4.32086
0
LINE
8
BLACK
6
CONTINUOUS
10
5.84461
20
-4.32086
11
5.8123
21
-4.29823
0
LINE
8
BLACK
6
CONTINUOUS
10
5.8123
20
-4.29823
11
5.85976
21
-4.23044
0
LINE
8
BLACK
6
CONTINUOUS
10
5.85976
20
-4.23044
11
5.89208
21
-4.25307
0
LINE
8
BLACK
6
CONTINUOUS
10
5.85112
20
-4.22439
11
5.80365
21
-4.29218
0
LINE
8
BLACK
6
CONTINUOUS
10
5.80365
20
-4.29218
11
5.77134
21
-4.26955
0
LINE
8
BLACK
6
CONTINUOUS
10
5.77134
20
-4.26955
11
5.81881
21
-4.20176
0
LINE
8
BLACK
6
CONTINUOUS
10
5.81881
20
-4.20176
11
5.85112
21
-4.22439
0
LINE
8
BLACK
6
CONTINUOUS
10
5.81016
20
-4.19571
11
5.7627
21
-4.2635
0
LINE
8
BLACK
6
CONTINUOUS
10
5.7627
20
-4.2635
11
5.73038
21
-4.24087
0
LINE
8
BLACK
6
CONTINUOUS
10
5.73038
20
-4.24087
11
5.77785
21
-4.17308
0
LINE
8
BLACK
6
CONTINUOUS
10
5.77785
20
-4.17308
11
5.81016
21
-4.19571
0
LINE
8
BLACK
6
CONTINUOUS
10
5.76921
20
-4.16703
11
5.72174
21
-4.23482
0
LINE
8
BLACK
6
CONTINUOUS
10
5.72174
20
-4.23482
11
5.68942
21
-4.21219
0
LINE
8
BLACK
6
CONTINUOUS
10
5.68942
20
-4.21219
11
5.73689
21
-4.1444
0
LINE
8
BLACK
6
CONTINUOUS
10
5.73689
20
-4.1444
11
5.76921
21
-4.16703
0
LINE
8
BLACK
6
CONTINUOUS
10
5.72825
20
-4.13835
11
5.68078
21
-4.20614
0
LINE
8
BLACK
6
CONTINUOUS
10
5.68078
20
-4.20614
11
5.64847
21
-4.18351
0
LINE
8
BLACK
6
CONTINUOUS
10
5.64847
20
-4.18351
11
5.69593
21
-4.11572
0
LINE
8
BLACK
6
CONTINUOUS
10
5.69593
20
-4.11572
11
5.72825
21
-4.13835
0
LINE
8
BLACK
6
CONTINUOUS
10
5.68729
20
-4.10967
11
5.63982
21
-4.17746
0
LINE
8
BLACK
6
CONTINUOUS
10
5.63982
20
-4.17746
11
5.60751
21
-4.15483
0
LINE
8
BLACK
6
CONTINUOUS
10
5.60751
20
-4.15483
11
5.65498
21
-4.08704
0
LINE
8
BLACK
6
CONTINUOUS
10
5.65498
20
-4.08704
11
5.68729
21
-4.10967
0
LINE
8
BLACK
6
CONTINUOUS
10
5.64633
20
-4.08099
11
5.59887
21
-4.14878
0
LINE
8
BLACK
6
CONTINUOUS
10
5.59887
20
-4.14878
11
5.56655
21
-4.12616
0
LINE
8
BLACK
6
CONTINUOUS
10
5.56655
20
-4.12616
11
5.61402
21
-4.05837
0
LINE
8
BLACK
6
CONTINUOUS
10
5.61402
20
-4.05837
11
5.64633
21
-4.08099
0
LINE
8
BLACK
6
CONTINUOUS
10
5.92029
20
-4.01147
11
5.92447
21
-4.0123
0
LINE
8
BLACK
6
CONTINUOUS
10
5.92447
20
-4.0123
11
5.9363
21
-4.0172
0
LINE
8
BLACK
6
CONTINUOUS
10
5.9363
20
-4.0172
11
5.94695
21
-4.02431
0
LINE
8
BLACK
6
CONTINUOUS
10
5.94695
20
-4.02431
11
5.956
21
-4.03337
0
LINE
8
BLACK
6
CONTINUOUS
10
5.956
20
-4.03337
11
5.96311
21
-4.04401
0
LINE
8
BLACK
6
CONTINUOUS
10
5.96311
20
-4.04401
11
5.96801
21
-4.05584
0
LINE
8
BLACK
6
CONTINUOUS
10
5.96801
20
-4.05584
11
5.97051
21
-4.0684
0
LINE
8
BLACK
6
CONTINUOUS
10
5.97051
20
-4.0684
11
5.97051
21
-4.08121
0
LINE
8
BLACK
6
CONTINUOUS
10
5.97051
20
-4.08121
11
5.96801
21
-4.09376
0
LINE
8
BLACK
6
CONTINUOUS
10
5.96801
20
-4.09376
11
5.96311
21
-4.10559
0
LINE
8
BLACK
6
CONTINUOUS
10
5.96311
20
-4.10559
11
5.956
21
-4.11624
0
LINE
8
BLACK
6
CONTINUOUS
10
5.956
20
-4.11624
11
5.94695
21
-4.12529
0
LINE
8
BLACK
6
CONTINUOUS
10
5.94695
20
-4.12529
11
5.9363
21
-4.13241
0
LINE
8
BLACK
6
CONTINUOUS
10
5.9363
20
-4.13241
11
5.92447
21
-4.13731
0
LINE
8
BLACK
6
CONTINUOUS
10
5.92447
20
-4.13731
11
5.92029
21
-4.13814
0
LINE
8
BLACK
6
CONTINUOUS
10
5.92029
20
-4.13814
11
5.91191
21
-4.1398
0
LINE
8
BLACK
6
CONTINUOUS
10
5.91191
20
-4.1398
11
5.89911
21
-4.1398
0
LINE
8
BLACK
6
CONTINUOUS
10
5.89911
20
-4.1398
11
5.89074
21
-4.13814
0
LINE
8
BLACK
6
CONTINUOUS
10
5.89074
20
-4.13814
11
5.88655
21
-4.13731
0
LINE
8
BLACK
6
CONTINUOUS
10
5.88655
20
-4.13731
11
5.87472
21
-4.13241
0
LINE
8
BLACK
6
CONTINUOUS
10
5.87472
20
-4.13241
11
5.86408
21
-4.12529
0
LINE
8
BLACK
6
CONTINUOUS
10
5.86408
20
-4.12529
11
5.85502
21
-4.11624
0
LINE
8
BLACK
6
CONTINUOUS
10
5.85502
20
-4.11624
11
5.84791
21
-4.10559
0
LINE
8
BLACK
6
CONTINUOUS
10
5.84791
20
-4.10559
11
5.84301
21
-4.09376
0
LINE
8
BLACK
6
CONTINUOUS
10
5.84301
20
-4.09376
11
5.84051
21
-4.08121
0
LINE
8
BLACK
6
CONTINUOUS
10
5.84051
20
-4.08121
11
5.84051
21
-4.0684
0
LINE
8
BLACK
6
CONTINUOUS
10
5.84051
20
-4.0684
11
5.84301
21
-4.05584
0
LINE
8
BLACK
6
CONTINUOUS
10
5.84301
20
-4.05584
11
5.84791
21
-4.04401
0
LINE
8
BLACK
6
CONTINUOUS
10
5.84791
20
-4.04401
11
5.85502
21
-4.03337
0
LINE
8
BLACK
6
CONTINUOUS
10
5.85502
20
-4.03337
11
5.86408
21
-4.02431
0
LINE
8
BLACK
6
CONTINUOUS
10
5.86408
20
-4.02431
11
5.87472
21
-4.0172
0
LINE
8
BLACK
6
CONTINUOUS
10
5.87472
20
-4.0172
11
5.88655
21
-4.0123
0
LINE
8
BLACK
6
CONTINUOUS
10
5.88655
20
-4.0123
11
5.89074
21
-4.01147
0
LINE
8
BLACK
6
CONTINUOUS
10
5.89074
20
-4.01147
11
5.89911
21
-4.0098
0
LINE
8
BLACK
6
CONTINUOUS
10
5.89911
20
-4.0098
11
5.91191
21
-4.0098
0
LINE
8
BLACK
6
CONTINUOUS
10
5.91191
20
-4.0098
11
5.92029
21
-4.01147
0
LINE
8
BLACK
6
CONTINUOUS
10
5.60537
20
-4.05231
11
5.55791
21
-4.1201
0
LINE
8
BLACK
6
CONTINUOUS
10
5.55791
20
-4.1201
11
5.52559
21
-4.09748
0
LINE
8
BLACK
6
CONTINUOUS
10
5.52559
20
-4.09748
11
5.57306
21
-4.02969
0
LINE
8
BLACK
6
CONTINUOUS
10
5.57306
20
-4.02969
11
5.60537
21
-4.05231
0
LINE
8
BLACK
6
CONTINUOUS
10
5.72673
20
-3.88416
11
5.72933
21
-3.88441
0
LINE
8
BLACK
6
CONTINUOUS
10
5.72933
20
-3.88441
11
5.73602
21
-3.88644
0
LINE
8
BLACK
6
CONTINUOUS
10
5.73602
20
-3.88644
11
5.74218
21
-3.88973
0
LINE
8
BLACK
6
CONTINUOUS
10
5.74218
20
-3.88973
11
5.74359
21
-3.89089
0
LINE
8
BLACK
6
CONTINUOUS
10
5.74359
20
-3.89089
11
5.74758
21
-3.89417
0
LINE
8
BLACK
6
CONTINUOUS
10
5.74758
20
-3.89417
11
5.75086
21
-3.89816
0
LINE
8
BLACK
6
CONTINUOUS
10
5.75086
20
-3.89816
11
5.75202
21
-3.89957
0
LINE
8
BLACK
6
CONTINUOUS
10
5.75202
20
-3.89957
11
5.75531
21
-3.90573
0
LINE
8
BLACK
6
CONTINUOUS
10
5.75531
20
-3.90573
11
5.75734
21
-3.91242
0
LINE
8
BLACK
6
CONTINUOUS
10
5.75734
20
-3.91242
11
5.75802
21
-3.91937
0
LINE
8
BLACK
6
CONTINUOUS
10
5.75802
20
-3.91937
11
5.75734
21
-3.92632
0
LINE
8
BLACK
6
CONTINUOUS
10
5.75734
20
-3.92632
11
5.75531
21
-3.93301
0
LINE
8
BLACK
6
CONTINUOUS
10
5.75531
20
-3.93301
11
5.75202
21
-3.93917
0
LINE
8
BLACK
6
CONTINUOUS
10
5.75202
20
-3.93917
11
5.75086
21
-3.94058
0
LINE
8
BLACK
6
CONTINUOUS
10
5.75086
20
-3.94058
11
5.74758
21
-3.94458
0
LINE
8
BLACK
6
CONTINUOUS
10
5.74758
20
-3.94458
11
5.74359
21
-3.94785
0
LINE
8
BLACK
6
CONTINUOUS
10
5.74359
20
-3.94785
11
5.74218
21
-3.94901
0
LINE
8
BLACK
6
CONTINUOUS
10
5.74218
20
-3.94901
11
5.73602
21
-3.9523
0
LINE
8
BLACK
6
CONTINUOUS
10
5.73602
20
-3.9523
11
5.72933
21
-3.95433
0
LINE
8
BLACK
6
CONTINUOUS
10
5.72933
20
-3.95433
11
5.72673
21
-3.95459
0
LINE
8
BLACK
6
CONTINUOUS
10
5.72673
20
-3.95459
11
5.72412
21
-3.95484
0
LINE
8
BLACK
6
CONTINUOUS
10
5.72412
20
-3.95484
11
5.72064
21
-3.95484
0
LINE
8
BLACK
6
CONTINUOUS
10
5.72064
20
-3.95484
11
5.71803
21
-3.95459
0
LINE
8
BLACK
6
CONTINUOUS
10
5.71803
20
-3.95459
11
5.71543
21
-3.95433
0
LINE
8
BLACK
6
CONTINUOUS
10
5.71543
20
-3.95433
11
5.70874
21
-3.9523
0
LINE
8
BLACK
6
CONTINUOUS
10
5.70874
20
-3.9523
11
5.70258
21
-3.94901
0
LINE
8
BLACK
6
CONTINUOUS
10
5.70258
20
-3.94901
11
5.70117
21
-3.94785
0
LINE
8
BLACK
6
CONTINUOUS
10
5.70117
20
-3.94785
11
5.69718
21
-3.94458
0
LINE
8
BLACK
6
CONTINUOUS
10
5.69718
20
-3.94458
11
5.6939
21
-3.94058
0
LINE
8
BLACK
6
CONTINUOUS
10
5.6939
20
-3.94058
11
5.69274
21
-3.93917
0
LINE
8
BLACK
6
CONTINUOUS
10
5.69274
20
-3.93917
11
5.68945
21
-3.93301
0
LINE
8
BLACK
6
CONTINUOUS
10
5.68945
20
-3.93301
11
5.68742
21
-3.92632
0
LINE
8
BLACK
6
CONTINUOUS
10
5.68742
20
-3.92632
11
5.68674
21
-3.91937
0
LINE
8
BLACK
6
CONTINUOUS
10
5.68674
20
-3.91937
11
5.68742
21
-3.91242
0
LINE
8
BLACK
6
CONTINUOUS
10
5.68742
20
-3.91242
11
5.68945
21
-3.90573
0
LINE
8
BLACK
6
CONTINUOUS
10
5.68945
20
-3.90573
11
5.69274
21
-3.89957
0
LINE
8
BLACK
6
CONTINUOUS
10
5.69274
20
-3.89957
11
5.6939
21
-3.89816
0
LINE
8
BLACK
6
CONTINUOUS
10
5.6939
20
-3.89816
11
5.69718
21
-3.89417
0
LINE
8
BLACK
6
CONTINUOUS
10
5.69718
20
-3.89417
11
5.70117
21
-3.89089
0
LINE
8
BLACK
6
CONTINUOUS
10
5.70117
20
-3.89089
11
5.70258
21
-3.88973
0
LINE
8
BLACK
6
CONTINUOUS
10
5.70258
20
-3.88973
11
5.70874
21
-3.88644
0
LINE
8
BLACK
6
CONTINUOUS
10
5.70874
20
-3.88644
11
5.71543
21
-3.88441
0
LINE
8
BLACK
6
CONTINUOUS
10
5.71543
20
-3.88441
11
5.71803
21
-3.88416
0
LINE
8
BLACK
6
CONTINUOUS
10
5.71803
20
-3.88416
11
5.72064
21
-3.8839
0
LINE
8
BLACK
6
CONTINUOUS
10
5.72064
20
-3.8839
11
5.72412
21
-3.8839
0
LINE
8
BLACK
6
CONTINUOUS
10
5.72412
20
-3.8839
11
5.72673
21
-3.88416
0
LINE
8
BLACK
6
CONTINUOUS
10
5.72726
20
-3.8459
11
5.66296
21
-3.87588
0
LINE
8
BLACK
6
CONTINUOUS
10
5.66296
20
-3.87588
11
5.63298
21
-3.81158
0
LINE
8
BLACK
6
CONTINUOUS
10
5.63298
20
-3.81158
11
5.69728
21
-3.7816
0
LINE
8
BLACK
6
CONTINUOUS
10
5.69728
20
-3.7816
11
5.72726
21
-3.8459
0
LINE
8
BLACK
6
CONTINUOUS
10
6.03963
20
-3.74171
11
6.04716
21
-3.74483
0
LINE
8
BLACK
6
CONTINUOUS
10
6.04716
20
-3.74483
11
6.04716
21
-3.74483
0
LINE
8
BLACK
6
CONTINUOUS
10
6.04716
20
-3.74483
11
6.05394
21
-3.74936
0
LINE
8
BLACK
6
CONTINUOUS
10
6.05394
20
-3.74936
11
6.0597
21
-3.75512
0
LINE
8
BLACK
6
CONTINUOUS
10
6.0597
20
-3.75512
11
6.06423
21
-3.7619
0
LINE
8
BLACK
6
CONTINUOUS
10
6.06423
20
-3.7619
11
6.06735
21
-3.76943
0
LINE
8
BLACK
6
CONTINUOUS
10
6.06735
20
-3.76943
11
6.06894
21
-3.77742
0
LINE
8
BLACK
6
CONTINUOUS
10
6.06894
20
-3.77742
11
6.06894
21
-3.78557
0
LINE
8
BLACK
6
CONTINUOUS
10
6.06894
20
-3.78557
11
6.06735
21
-3.79357
0
LINE
8
BLACK
6
CONTINUOUS
10
6.06735
20
-3.79357
11
6.06423
21
-3.8011
0
LINE
8
BLACK
6
CONTINUOUS
10
6.06423
20
-3.8011
11
6.06423
21
-3.8011
0
LINE
8
BLACK
6
CONTINUOUS
10
6.06423
20
-3.8011
11
6.0597
21
-3.80787
0
LINE
8
BLACK
6
CONTINUOUS
10
6.0597
20
-3.80787
11
6.05394
21
-3.81364
0
LINE
8
BLACK
6
CONTINUOUS
10
6.05394
20
-3.81364
11
6.04716
21
-3.81816
0
LINE
8
BLACK
6
CONTINUOUS
10
6.04716
20
-3.81816
11
6.04716
21
-3.81816
0
LINE
8
BLACK
6
CONTINUOUS
10
6.04716
20
-3.81816
11
6.04716
21
-3.81816
0
LINE
8
BLACK
6
CONTINUOUS
10
6.04716
20
-3.81816
11
6.03963
21
-3.82128
0
LINE
8
BLACK
6
CONTINUOUS
10
6.03963
20
-3.82128
11
6.03163
21
-3.82287
0
LINE
8
BLACK
6
CONTINUOUS
10
6.03163
20
-3.82287
11
6.02348
21
-3.82287
0
LINE
8
BLACK
6
CONTINUOUS
10
6.02348
20
-3.82287
11
6.01549
21
-3.82128
0
LINE
8
BLACK
6
CONTINUOUS
10
6.01549
20
-3.82128
11
6.00796
21
-3.81816
0
LINE
8
BLACK
6
CONTINUOUS
10
6.00796
20
-3.81816
11
6.00796
21
-3.81816
0
LINE
8
BLACK
6
CONTINUOUS
10
6.00796
20
-3.81816
11
6.00796
21
-3.81816
0
LINE
8
BLACK
6
CONTINUOUS
10
6.00796
20
-3.81816
11
6.00118
21
-3.81364
0
LINE
8
BLACK
6
CONTINUOUS
10
6.00118
20
-3.81364
11
5.99542
21
-3.80787
0
LINE
8
BLACK
6
CONTINUOUS
10
5.99542
20
-3.80787
11
5.99089
21
-3.8011
0
LINE
8
BLACK
6
CONTINUOUS
10
5.99089
20
-3.8011
11
5.99089
21
-3.8011
0
LINE
8
BLACK
6
CONTINUOUS
10
5.99089
20
-3.8011
11
5.98777
21
-3.79357
0
LINE
8
BLACK
6
CONTINUOUS
10
5.98777
20
-3.79357
11
5.98618
21
-3.78557
0
LINE
8
BLACK
6
CONTINUOUS
10
5.98618
20
-3.78557
11
5.98618
21
-3.77742
0
LINE
8
BLACK
6
CONTINUOUS
10
5.98618
20
-3.77742
11
5.98777
21
-3.76943
0
LINE
8
BLACK
6
CONTINUOUS
10
5.98777
20
-3.76943
11
5.99089
21
-3.7619
0
LINE
8
BLACK
6
CONTINUOUS
10
5.99089
20
-3.7619
11
5.99542
21
-3.75512
0
LINE
8
BLACK
6
CONTINUOUS
10
5.99542
20
-3.75512
11
6.00118
21
-3.74936
0
LINE
8
BLACK
6
CONTINUOUS
10
6.00118
20
-3.74936
11
6.00796
21
-3.74483
0
LINE
8
BLACK
6
CONTINUOUS
10
6.00796
20
-3.74483
11
6.00796
21
-3.74483
0
LINE
8
BLACK
6
CONTINUOUS
10
6.00796
20
-3.74483
11
6.01549
21
-3.74171
0
LINE
8
BLACK
6
CONTINUOUS
10
6.01549
20
-3.74171
11
6.02348
21
-3.74012
0
LINE
8
BLACK
6
CONTINUOUS
10
6.02348
20
-3.74012
11
6.03163
21
-3.74012
0
LINE
8
BLACK
6
CONTINUOUS
10
6.03163
20
-3.74012
11
6.03963
21
-3.74171
0
LINE
8
BLACK
6
CONTINUOUS
10
5.84278
20
-3.74171
11
5.85031
21
-3.74483
0
LINE
8
BLACK
6
CONTINUOUS
10
5.85031
20
-3.74483
11
5.85031
21
-3.74483
0
LINE
8
BLACK
6
CONTINUOUS
10
5.85031
20
-3.74483
11
5.85709
21
-3.74936
0
LINE
8
BLACK
6
CONTINUOUS
10
5.85709
20
-3.74936
11
5.86285
21
-3.75512
0
LINE
8
BLACK
6
CONTINUOUS
10
5.86285
20
-3.75512
11
5.86738
21
-3.7619
0
LINE
8
BLACK
6
CONTINUOUS
10
5.86738
20
-3.7619
11
5.8705
21
-3.76943
0
LINE
8
BLACK
6
CONTINUOUS
10
5.8705
20
-3.76943
11
5.87209
21
-3.77742
0
LINE
8
BLACK
6
CONTINUOUS
10
5.87209
20
-3.77742
11
5.87209
21
-3.78557
0
LINE
8
BLACK
6
CONTINUOUS
10
5.87209
20
-3.78557
11
5.8705
21
-3.79357
0
LINE
8
BLACK
6
CONTINUOUS
10
5.8705
20
-3.79357
11
5.86738
21
-3.8011
0
LINE
8
BLACK
6
CONTINUOUS
10
5.86738
20
-3.8011
11
5.86738
21
-3.8011
0
LINE
8
BLACK
6
CONTINUOUS
10
5.86738
20
-3.8011
11
5.86285
21
-3.80787
0
LINE
8
BLACK
6
CONTINUOUS
10
5.86285
20
-3.80787
11
5.85709
21
-3.81364
0
LINE
8
BLACK
6
CONTINUOUS
10
5.85709
20
-3.81364
11
5.85031
21
-3.81816
0
LINE
8
BLACK
6
CONTINUOUS
10
5.85031
20
-3.81816
11
5.85031
21
-3.81816
0
LINE
8
BLACK
6
CONTINUOUS
10
5.85031
20
-3.81816
11
5.85031
21
-3.81816
0
LINE
8
BLACK
6
CONTINUOUS
10
5.85031
20
-3.81816
11
5.84278
21
-3.82128
0
LINE
8
BLACK
6
CONTINUOUS
10
5.84278
20
-3.82128
11
5.83478
21
-3.82287
0
LINE
8
BLACK
6
CONTINUOUS
10
5.83478
20
-3.82287
11
5.82663
21
-3.82287
0
LINE
8
BLACK
6
CONTINUOUS
10
5.82663
20
-3.82287
11
5.81864
21
-3.82128
0
LINE
8
BLACK
6
CONTINUOUS
10
5.81864
20
-3.82128
11
5.81111
21
-3.81816
0
LINE
8
BLACK
6
CONTINUOUS
10
5.81111
20
-3.81816
11
5.81111
21
-3.81816
0
LINE
8
BLACK
6
CONTINUOUS
10
5.81111
20
-3.81816
11
5.81111
21
-3.81816
0
LINE
8
BLACK
6
CONTINUOUS
10
5.81111
20
-3.81816
11
5.80433
21
-3.81364
0
LINE
8
BLACK
6
CONTINUOUS
10
5.80433
20
-3.81364
11
5.79857
21
-3.80787
0
LINE
8
BLACK
6
CONTINUOUS
10
5.79857
20
-3.80787
11
5.79404
21
-3.8011
0
LINE
8
BLACK
6
CONTINUOUS
10
5.79404
20
-3.8011
11
5.79404
21
-3.8011
0
LINE
8
BLACK
6
CONTINUOUS
10
5.79404
20
-3.8011
11
5.79092
21
-3.79357
0
LINE
8
BLACK
6
CONTINUOUS
10
5.79092
20
-3.79357
11
5.78933
21
-3.78557
0
LINE
8
BLACK
6
CONTINUOUS
10
5.78933
20
-3.78557
11
5.78933
21
-3.77742
0
LINE
8
BLACK
6
CONTINUOUS
10
5.78933
20
-3.77742
11
5.79092
21
-3.76943
0
LINE
8
BLACK
6
CONTINUOUS
10
5.79092
20
-3.76943
11
5.79404
21
-3.7619
0
LINE
8
BLACK
6
CONTINUOUS
10
5.79404
20
-3.7619
11
5.79857
21
-3.75512
0
LINE
8
BLACK
6
CONTINUOUS
10
5.79857
20
-3.75512
11
5.80433
21
-3.74936
0
LINE
8
BLACK
6
CONTINUOUS
10
5.80433
20
-3.74936
11
5.81111
21
-3.74483
0
LINE
8
BLACK
6
CONTINUOUS
10
5.81111
20
-3.74483
11
5.81111
21
-3.74483
0
LINE
8
BLACK
6
CONTINUOUS
10
5.81111
20
-3.74483
11
5.81864
21
-3.74171
0
LINE
8
BLACK
6
CONTINUOUS
10
5.81864
20
-3.74171
11
5.82663
21
-3.74012
0
LINE
8
BLACK
6
CONTINUOUS
10
5.82663
20
-3.74012
11
5.83478
21
-3.74012
0
LINE
8
BLACK
6
CONTINUOUS
10
5.83478
20
-3.74012
11
5.84278
21
-3.74171
  0
ENDSEC
  0
EOF
