G04 #@! TF.GenerationSoftware,KiCad,Pcbnew,(5.1.4-0-10_14)*
G04 #@! TF.CreationDate,2020-01-02T23:01:08+01:00*
G04 #@! TF.ProjectId,ProgrammerController,50726f67-7261-46d6-9d65-72436f6e7472,rev?*
G04 #@! TF.SameCoordinates,Original*
G04 #@! TF.FileFunction,Legend,Top*
G04 #@! TF.FilePolarity,Positive*
%FSLAX46Y46*%
G04 Gerber Fmt 4.6, Leading zero omitted, Abs format (unit mm)*
G04 Created by KiCad (PCBNEW (5.1.4-0-10_14)) date 2020-01-02 23:01:08*
%MOMM*%
%LPD*%
G04 APERTURE LIST*
%ADD10C,0.120000*%
%ADD11C,0.150000*%
%ADD12C,0.100000*%
G04 APERTURE END LIST*
D10*
X143030000Y-50530000D02*
X155370000Y-50530000D01*
X152570000Y-62120000D02*
X155370000Y-62120000D01*
X150071000Y-62120000D02*
X150830000Y-62120000D01*
X147571000Y-62120000D02*
X148330000Y-62120000D01*
X143030000Y-62120000D02*
X145829000Y-62120000D01*
X155370000Y-53545000D02*
X155370000Y-50530000D01*
X155370000Y-62120000D02*
X155370000Y-57454000D01*
X143030000Y-53545000D02*
X143030000Y-50530000D01*
X143030000Y-62120000D02*
X143030000Y-57454000D01*
X219030000Y-80530000D02*
X231370000Y-80530000D01*
X228570000Y-92120000D02*
X231370000Y-92120000D01*
X226071000Y-92120000D02*
X226830000Y-92120000D01*
X223571000Y-92120000D02*
X224330000Y-92120000D01*
X219030000Y-92120000D02*
X221829000Y-92120000D01*
X231370000Y-83545000D02*
X231370000Y-80530000D01*
X231370000Y-92120000D02*
X231370000Y-87454000D01*
X219030000Y-83545000D02*
X219030000Y-80530000D01*
X219030000Y-92120000D02*
X219030000Y-87454000D01*
X179030000Y-80530000D02*
X191370000Y-80530000D01*
X188570000Y-92120000D02*
X191370000Y-92120000D01*
X186071000Y-92120000D02*
X186830000Y-92120000D01*
X183571000Y-92120000D02*
X184330000Y-92120000D01*
X179030000Y-92120000D02*
X181829000Y-92120000D01*
X191370000Y-83545000D02*
X191370000Y-80530000D01*
X191370000Y-92120000D02*
X191370000Y-87454000D01*
X179030000Y-83545000D02*
X179030000Y-80530000D01*
X179030000Y-92120000D02*
X179030000Y-87454000D01*
X219030000Y-50530000D02*
X231370000Y-50530000D01*
X228570000Y-62120000D02*
X231370000Y-62120000D01*
X226071000Y-62120000D02*
X226830000Y-62120000D01*
X223571000Y-62120000D02*
X224330000Y-62120000D01*
X219030000Y-62120000D02*
X221829000Y-62120000D01*
X231370000Y-53545000D02*
X231370000Y-50530000D01*
X231370000Y-62120000D02*
X231370000Y-57454000D01*
X219030000Y-53545000D02*
X219030000Y-50530000D01*
X219030000Y-62120000D02*
X219030000Y-57454000D01*
X179030000Y-50530000D02*
X191370000Y-50530000D01*
X188570000Y-62120000D02*
X191370000Y-62120000D01*
X186071000Y-62120000D02*
X186830000Y-62120000D01*
X183571000Y-62120000D02*
X184330000Y-62120000D01*
X179030000Y-62120000D02*
X181829000Y-62120000D01*
X191370000Y-53545000D02*
X191370000Y-50530000D01*
X191370000Y-62120000D02*
X191370000Y-57454000D01*
X179030000Y-53545000D02*
X179030000Y-50530000D01*
X179030000Y-62120000D02*
X179030000Y-57454000D01*
X109830000Y-62530000D02*
X122170000Y-62530000D01*
X119370000Y-74120000D02*
X122170000Y-74120000D01*
X116871000Y-74120000D02*
X117630000Y-74120000D01*
X114371000Y-74120000D02*
X115130000Y-74120000D01*
X109830000Y-74120000D02*
X112629000Y-74120000D01*
X122170000Y-65545000D02*
X122170000Y-62530000D01*
X122170000Y-74120000D02*
X122170000Y-69454000D01*
X109830000Y-65545000D02*
X109830000Y-62530000D01*
X109830000Y-74120000D02*
X109830000Y-69454000D01*
X82800000Y-142900000D02*
X79900000Y-142900000D01*
X82800000Y-135300000D02*
X82800000Y-142900000D01*
D11*
X49900000Y-143300000D02*
X49900000Y-131800000D01*
X78800000Y-134300000D02*
X73800000Y-134300000D01*
X78800000Y-134300000D02*
X79800000Y-135300000D01*
X79900000Y-131800000D02*
X79900000Y-143300000D01*
X49900000Y-131800000D02*
X79900000Y-131800000D01*
X49900000Y-143300000D02*
X79900000Y-143300000D01*
X78800000Y-143200000D02*
X73800000Y-143200000D01*
X78800000Y-143200000D02*
X79100000Y-142900000D01*
X79100000Y-142900000D02*
X79900000Y-142900000D01*
X82800000Y-135300000D02*
X79900000Y-135300000D01*
D12*
X52000000Y-133900000D02*
X74380000Y-133900000D01*
X52000000Y-133900000D02*
X52000000Y-139480000D01*
X52000000Y-139480000D02*
X74380000Y-139480000D01*
X74380000Y-133900000D02*
X74380000Y-139480000D01*
X75900000Y-131800000D02*
X75900000Y-143300000D01*
D10*
X111860000Y-55900000D02*
X113350000Y-55900000D01*
X113350000Y-55900000D02*
X113350000Y-55300000D01*
X104540000Y-55900000D02*
X103050000Y-55900000D01*
X103050000Y-55900000D02*
X103050000Y-55300000D01*
X113350000Y-52140000D02*
X113350000Y-50400000D01*
X113350000Y-50400000D02*
X103050000Y-50400000D01*
X103050000Y-50400000D02*
X103050000Y-52140000D01*
X111860000Y-55900000D02*
X111860000Y-57100000D01*
X73200000Y-108300000D02*
X73700000Y-108300000D01*
X84800000Y-108300000D02*
X84300000Y-108300000D01*
X73200000Y-92000000D02*
X73500000Y-92000000D01*
X73200000Y-92700000D02*
X73200000Y-92000000D01*
X72700000Y-92700000D02*
X73200000Y-92700000D01*
X72700000Y-104300000D02*
X72700000Y-92700000D01*
X73200000Y-104300000D02*
X72700000Y-104300000D01*
X73200000Y-108300000D02*
X73200000Y-104300000D01*
X84800000Y-104300000D02*
X84800000Y-108300000D01*
X85300000Y-104300000D02*
X84800000Y-104300000D01*
X85300000Y-92700000D02*
X85300000Y-104300000D01*
X84800000Y-92700000D02*
X85300000Y-92700000D01*
X84800000Y-92000000D02*
X84800000Y-92700000D01*
X73500000Y-92000000D02*
X84800000Y-92000000D01*
X120550279Y-60290000D02*
X120224721Y-60290000D01*
X120550279Y-61310000D02*
X120224721Y-61310000D01*
X114515000Y-61535000D02*
X116800000Y-61535000D01*
X114515000Y-60065000D02*
X114515000Y-61535000D01*
X116800000Y-60065000D02*
X114515000Y-60065000D01*
X229824721Y-121910000D02*
X230150279Y-121910000D01*
X229824721Y-120890000D02*
X230150279Y-120890000D01*
X63575279Y-79390000D02*
X63249721Y-79390000D01*
X63575279Y-80410000D02*
X63249721Y-80410000D01*
X96175279Y-118190000D02*
X95849721Y-118190000D01*
X96175279Y-119210000D02*
X95849721Y-119210000D01*
X60450279Y-77790000D02*
X60124721Y-77790000D01*
X60450279Y-78810000D02*
X60124721Y-78810000D01*
X93175279Y-116390000D02*
X92849721Y-116390000D01*
X93175279Y-117410000D02*
X92849721Y-117410000D01*
X53649721Y-103210000D02*
X53975279Y-103210000D01*
X53649721Y-102190000D02*
X53975279Y-102190000D01*
X104550279Y-94090000D02*
X104224721Y-94090000D01*
X104550279Y-95110000D02*
X104224721Y-95110000D01*
X56549721Y-101510000D02*
X56875279Y-101510000D01*
X56549721Y-100490000D02*
X56875279Y-100490000D01*
X101450279Y-95590000D02*
X101124721Y-95590000D01*
X101450279Y-96610000D02*
X101124721Y-96610000D01*
X71710000Y-123250279D02*
X71710000Y-122924721D01*
X70690000Y-123250279D02*
X70690000Y-122924721D01*
X86390000Y-74549721D02*
X86390000Y-74875279D01*
X87410000Y-74549721D02*
X87410000Y-74875279D01*
X148475279Y-48390000D02*
X148149721Y-48390000D01*
X148475279Y-49410000D02*
X148149721Y-49410000D01*
X133624721Y-63910000D02*
X133950279Y-63910000D01*
X133624721Y-62890000D02*
X133950279Y-62890000D01*
X136824721Y-63910000D02*
X137150279Y-63910000D01*
X136824721Y-62890000D02*
X137150279Y-62890000D01*
X229824721Y-125310000D02*
X230150279Y-125310000D01*
X229824721Y-124290000D02*
X230150279Y-124290000D01*
X180950279Y-106090000D02*
X180624721Y-106090000D01*
X180950279Y-107110000D02*
X180624721Y-107110000D01*
X180950279Y-110090000D02*
X180624721Y-110090000D01*
X180950279Y-111110000D02*
X180624721Y-111110000D01*
X180950279Y-114090000D02*
X180624721Y-114090000D01*
X180950279Y-115110000D02*
X180624721Y-115110000D01*
X180950279Y-118090000D02*
X180624721Y-118090000D01*
X180950279Y-119110000D02*
X180624721Y-119110000D01*
X180950279Y-122090000D02*
X180624721Y-122090000D01*
X180950279Y-123110000D02*
X180624721Y-123110000D01*
X180950279Y-126090000D02*
X180624721Y-126090000D01*
X180950279Y-127110000D02*
X180624721Y-127110000D01*
X180950279Y-130090000D02*
X180624721Y-130090000D01*
X180950279Y-131110000D02*
X180624721Y-131110000D01*
X180950279Y-134090000D02*
X180624721Y-134090000D01*
X180950279Y-135110000D02*
X180624721Y-135110000D01*
X180950279Y-138090000D02*
X180624721Y-138090000D01*
X180950279Y-139110000D02*
X180624721Y-139110000D01*
X221710000Y-98362779D02*
X221710000Y-98037221D01*
X220690000Y-98362779D02*
X220690000Y-98037221D01*
X217710000Y-98362779D02*
X217710000Y-98037221D01*
X216690000Y-98362779D02*
X216690000Y-98037221D01*
X213710000Y-98362779D02*
X213710000Y-98037221D01*
X212690000Y-98362779D02*
X212690000Y-98037221D01*
X209710000Y-98362779D02*
X209710000Y-98037221D01*
X208690000Y-98362779D02*
X208690000Y-98037221D01*
X205710000Y-98362779D02*
X205710000Y-98037221D01*
X204690000Y-98362779D02*
X204690000Y-98037221D01*
X201710000Y-98462779D02*
X201710000Y-98137221D01*
X200690000Y-98462779D02*
X200690000Y-98137221D01*
X197710000Y-98362779D02*
X197710000Y-98037221D01*
X196690000Y-98362779D02*
X196690000Y-98037221D01*
X193710000Y-98362779D02*
X193710000Y-98037221D01*
X192690000Y-98362779D02*
X192690000Y-98037221D01*
X189710000Y-98362779D02*
X189710000Y-98037221D01*
X188690000Y-98362779D02*
X188690000Y-98037221D01*
X142190000Y-99349721D02*
X142190000Y-99675279D01*
X143210000Y-99349721D02*
X143210000Y-99675279D01*
X127190000Y-99437221D02*
X127190000Y-99762779D01*
X128210000Y-99437221D02*
X128210000Y-99762779D01*
X260124721Y-142710000D02*
X260450279Y-142710000D01*
X260124721Y-141690000D02*
X260450279Y-141690000D01*
X256924721Y-142710000D02*
X257250279Y-142710000D01*
X256924721Y-141690000D02*
X257250279Y-141690000D01*
X275124721Y-142710000D02*
X275450279Y-142710000D01*
X275124721Y-141690000D02*
X275450279Y-141690000D01*
X271924721Y-142710000D02*
X272250279Y-142710000D01*
X271924721Y-141690000D02*
X272250279Y-141690000D01*
X58524721Y-64010000D02*
X58850279Y-64010000D01*
X58524721Y-62990000D02*
X58850279Y-62990000D01*
X55324721Y-64010000D02*
X55650279Y-64010000D01*
X55324721Y-62990000D02*
X55650279Y-62990000D01*
X70824721Y-64010000D02*
X71150279Y-64010000D01*
X70824721Y-62990000D02*
X71150279Y-62990000D01*
X67624721Y-64010000D02*
X67950279Y-64010000D01*
X67624721Y-62990000D02*
X67950279Y-62990000D01*
X71710000Y-120050279D02*
X71710000Y-119724721D01*
X70690000Y-120050279D02*
X70690000Y-119724721D01*
X86390000Y-77724721D02*
X86390000Y-78050279D01*
X87410000Y-77724721D02*
X87410000Y-78050279D01*
X143515000Y-49635000D02*
X145800000Y-49635000D01*
X143515000Y-48165000D02*
X143515000Y-49635000D01*
X145800000Y-48165000D02*
X143515000Y-48165000D01*
X224315000Y-125535000D02*
X226600000Y-125535000D01*
X224315000Y-124065000D02*
X224315000Y-125535000D01*
X226600000Y-124065000D02*
X224315000Y-124065000D01*
X224295000Y-122135000D02*
X226580000Y-122135000D01*
X224295000Y-120665000D02*
X224295000Y-122135000D01*
X226580000Y-120665000D02*
X224295000Y-120665000D01*
X143435000Y-105085000D02*
X143435000Y-102800000D01*
X141965000Y-105085000D02*
X143435000Y-105085000D01*
X141965000Y-102800000D02*
X141965000Y-105085000D01*
X128435000Y-105085000D02*
X128435000Y-102800000D01*
X126965000Y-105085000D02*
X128435000Y-105085000D01*
X126965000Y-102800000D02*
X126965000Y-105085000D01*
X186685000Y-105865000D02*
X184400000Y-105865000D01*
X186685000Y-107335000D02*
X186685000Y-105865000D01*
X184400000Y-107335000D02*
X186685000Y-107335000D01*
X221935000Y-104085000D02*
X221935000Y-101800000D01*
X220465000Y-104085000D02*
X221935000Y-104085000D01*
X220465000Y-101800000D02*
X220465000Y-104085000D01*
X186685000Y-109865000D02*
X184400000Y-109865000D01*
X186685000Y-111335000D02*
X186685000Y-109865000D01*
X184400000Y-111335000D02*
X186685000Y-111335000D01*
X217935000Y-104085000D02*
X217935000Y-101800000D01*
X216465000Y-104085000D02*
X217935000Y-104085000D01*
X216465000Y-101800000D02*
X216465000Y-104085000D01*
X186685000Y-113865000D02*
X184400000Y-113865000D01*
X186685000Y-115335000D02*
X186685000Y-113865000D01*
X184400000Y-115335000D02*
X186685000Y-115335000D01*
X213935000Y-104085000D02*
X213935000Y-101800000D01*
X212465000Y-104085000D02*
X213935000Y-104085000D01*
X212465000Y-101800000D02*
X212465000Y-104085000D01*
X186685000Y-117865000D02*
X184400000Y-117865000D01*
X186685000Y-119335000D02*
X186685000Y-117865000D01*
X184400000Y-119335000D02*
X186685000Y-119335000D01*
X209935000Y-104085000D02*
X209935000Y-101800000D01*
X208465000Y-104085000D02*
X209935000Y-104085000D01*
X208465000Y-101800000D02*
X208465000Y-104085000D01*
X186685000Y-121865000D02*
X184400000Y-121865000D01*
X186685000Y-123335000D02*
X186685000Y-121865000D01*
X184400000Y-123335000D02*
X186685000Y-123335000D01*
X205935000Y-104085000D02*
X205935000Y-101800000D01*
X204465000Y-104085000D02*
X205935000Y-104085000D01*
X204465000Y-101800000D02*
X204465000Y-104085000D01*
X186685000Y-125865000D02*
X184400000Y-125865000D01*
X186685000Y-127335000D02*
X186685000Y-125865000D01*
X184400000Y-127335000D02*
X186685000Y-127335000D01*
X201935000Y-104085000D02*
X201935000Y-101800000D01*
X200465000Y-104085000D02*
X201935000Y-104085000D01*
X200465000Y-101800000D02*
X200465000Y-104085000D01*
X186685000Y-129865000D02*
X184400000Y-129865000D01*
X186685000Y-131335000D02*
X186685000Y-129865000D01*
X184400000Y-131335000D02*
X186685000Y-131335000D01*
X197935000Y-104085000D02*
X197935000Y-101800000D01*
X196465000Y-104085000D02*
X197935000Y-104085000D01*
X196465000Y-101800000D02*
X196465000Y-104085000D01*
X186685000Y-133865000D02*
X184400000Y-133865000D01*
X186685000Y-135335000D02*
X186685000Y-133865000D01*
X184400000Y-135335000D02*
X186685000Y-135335000D01*
X193935000Y-104085000D02*
X193935000Y-101800000D01*
X192465000Y-104085000D02*
X193935000Y-104085000D01*
X192465000Y-101800000D02*
X192465000Y-104085000D01*
X186685000Y-137865000D02*
X184400000Y-137865000D01*
X186685000Y-139335000D02*
X186685000Y-137865000D01*
X184400000Y-139335000D02*
X186685000Y-139335000D01*
X189935000Y-104085000D02*
X189935000Y-101800000D01*
X188465000Y-104085000D02*
X189935000Y-104085000D01*
X188465000Y-101800000D02*
X188465000Y-104085000D01*
X66224721Y-82310000D02*
X66550279Y-82310000D01*
X66224721Y-81290000D02*
X66550279Y-81290000D01*
X98849721Y-120910000D02*
X99175279Y-120910000D01*
X98849721Y-119890000D02*
X99175279Y-119890000D01*
X52150279Y-103890000D02*
X51824721Y-103890000D01*
X52150279Y-104910000D02*
X51824721Y-104910000D01*
X107049721Y-93510000D02*
X107375279Y-93510000D01*
X107049721Y-92490000D02*
X107375279Y-92490000D01*
X70690000Y-126124721D02*
X70690000Y-126450279D01*
X71710000Y-126124721D02*
X71710000Y-126450279D01*
X87410000Y-71750279D02*
X87410000Y-71424721D01*
X86390000Y-71750279D02*
X86390000Y-71424721D01*
X130775279Y-62890000D02*
X130449721Y-62890000D01*
X130775279Y-63910000D02*
X130449721Y-63910000D01*
X253975279Y-141690000D02*
X253649721Y-141690000D01*
X253975279Y-142710000D02*
X253649721Y-142710000D01*
X268975279Y-141690000D02*
X268649721Y-141690000D01*
X268975279Y-142710000D02*
X268649721Y-142710000D01*
X52450279Y-62990000D02*
X52124721Y-62990000D01*
X52450279Y-64010000D02*
X52124721Y-64010000D01*
X64775279Y-62990000D02*
X64449721Y-62990000D01*
X64775279Y-64010000D02*
X64449721Y-64010000D01*
X60160000Y-141620000D02*
X61950000Y-141620000D01*
X60160000Y-141910000D02*
X60160000Y-141620000D01*
X56300000Y-141910000D02*
X60160000Y-141910000D01*
X52440000Y-141910000D02*
X52440000Y-141620000D01*
X56300000Y-141910000D02*
X52440000Y-141910000D01*
X60160000Y-126290000D02*
X60160000Y-126580000D01*
X56300000Y-126290000D02*
X60160000Y-126290000D01*
X52440000Y-126290000D02*
X52440000Y-126580000D01*
X56300000Y-126290000D02*
X52440000Y-126290000D01*
X55296091Y-77461027D02*
X65428588Y-83311027D01*
X56471570Y-89525038D02*
X59531570Y-84224962D01*
X65428588Y-83311027D02*
X58628588Y-95088973D01*
X59675864Y-91375038D02*
X56471570Y-89525038D01*
X62735864Y-86074962D02*
X59675864Y-91375038D01*
X59531570Y-84224962D02*
X62735864Y-86074962D01*
X51413430Y-87285993D02*
X55063430Y-80964007D01*
X52409359Y-87860993D02*
X51413430Y-87285993D01*
X58628588Y-95088973D02*
X48496091Y-89238973D01*
X48496091Y-89238973D02*
X55296091Y-77461027D01*
X102703909Y-120538973D02*
X92571412Y-114688973D01*
X101528430Y-108474962D02*
X98468430Y-113775038D01*
X92571412Y-114688973D02*
X99371412Y-102911027D01*
X98324136Y-106624962D02*
X101528430Y-108474962D01*
X95264136Y-111925038D02*
X98324136Y-106624962D01*
X98468430Y-113775038D02*
X95264136Y-111925038D01*
X106586570Y-110714007D02*
X102936570Y-117035993D01*
X105590641Y-110139007D02*
X106586570Y-110714007D01*
X99371412Y-102911027D02*
X109503909Y-108761027D01*
X109503909Y-108761027D02*
X102703909Y-120538973D01*
X48496091Y-108761027D02*
X58628588Y-102911027D01*
X59531570Y-113775038D02*
X56471570Y-108474962D01*
X58628588Y-102911027D02*
X65428588Y-114688973D01*
X62735864Y-111925038D02*
X59531570Y-113775038D01*
X59675864Y-106624962D02*
X62735864Y-111925038D01*
X56471570Y-108474962D02*
X59675864Y-106624962D01*
X55063430Y-117035993D02*
X51413430Y-110714007D01*
X56059359Y-116460993D02*
X55063430Y-117035993D01*
X65428588Y-114688973D02*
X55296091Y-120538973D01*
X55296091Y-120538973D02*
X48496091Y-108761027D01*
X109503909Y-89238973D02*
X99371412Y-95088973D01*
X98468430Y-84224962D02*
X101528430Y-89525038D01*
X99371412Y-95088973D02*
X92571412Y-83311027D01*
X95264136Y-86074962D02*
X98468430Y-84224962D01*
X98324136Y-91375038D02*
X95264136Y-86074962D01*
X101528430Y-89525038D02*
X98324136Y-91375038D01*
X102936570Y-80964007D02*
X106586570Y-87285993D01*
X101940641Y-81539007D02*
X102936570Y-80964007D01*
X92571412Y-83311027D02*
X102703909Y-77461027D01*
X102703909Y-77461027D02*
X109503909Y-89238973D01*
X72200000Y-130300000D02*
X72200000Y-118600000D01*
X82060000Y-123250000D02*
X75940000Y-123250000D01*
X72200000Y-118600000D02*
X85800000Y-118600000D01*
X82060000Y-119550000D02*
X82060000Y-123250000D01*
X75940000Y-119550000D02*
X82060000Y-119550000D01*
X75940000Y-123250000D02*
X75940000Y-119550000D01*
X82650000Y-128750000D02*
X75350000Y-128750000D01*
X82650000Y-127600000D02*
X82650000Y-128750000D01*
X85800000Y-118600000D02*
X85800000Y-130300000D01*
X85800000Y-130300000D02*
X72200000Y-130300000D01*
X85800000Y-67700000D02*
X85800000Y-79400000D01*
X75940000Y-74750000D02*
X82060000Y-74750000D01*
X85800000Y-79400000D02*
X72200000Y-79400000D01*
X75940000Y-78450000D02*
X75940000Y-74750000D01*
X82060000Y-78450000D02*
X75940000Y-78450000D01*
X82060000Y-74750000D02*
X82060000Y-78450000D01*
X75350000Y-69250000D02*
X82650000Y-69250000D01*
X75350000Y-70400000D02*
X75350000Y-69250000D01*
X72200000Y-79400000D02*
X72200000Y-67700000D01*
X72200000Y-67700000D02*
X85800000Y-67700000D01*
X111700000Y-141400000D02*
X111700000Y-80800000D01*
X111800000Y-141400000D02*
X111700000Y-141400000D01*
X120300000Y-141400000D02*
X111800000Y-141400000D01*
X120300000Y-80800000D02*
X120300000Y-141400000D01*
X111700000Y-80800000D02*
X120300000Y-80800000D01*
X129200000Y-59500000D02*
X129200000Y-51500000D01*
X139200000Y-51500000D02*
X139200000Y-59500000D01*
X129200000Y-51500000D02*
X139200000Y-51500000D01*
X131140000Y-57150000D02*
X137260000Y-57150000D01*
X137260000Y-57150000D02*
X137260000Y-60850000D01*
X137260000Y-60850000D02*
X131140000Y-60850000D01*
X131140000Y-60850000D02*
X131140000Y-57150000D01*
X130550000Y-52800000D02*
X130550000Y-51650000D01*
X130550000Y-51650000D02*
X137850000Y-51650000D01*
X140600000Y-62400000D02*
X127800000Y-62400000D01*
X127800000Y-62400000D02*
X127800000Y-48600000D01*
X140600000Y-48600000D02*
X140600000Y-62400000D01*
X127800000Y-48600000D02*
X140600000Y-48600000D01*
X252800000Y-134800000D02*
X252800000Y-126800000D01*
X262800000Y-126800000D02*
X262800000Y-134800000D01*
X252800000Y-126800000D02*
X262800000Y-126800000D01*
X254740000Y-132450000D02*
X260860000Y-132450000D01*
X260860000Y-132450000D02*
X260860000Y-136150000D01*
X260860000Y-136150000D02*
X254740000Y-136150000D01*
X254740000Y-136150000D02*
X254740000Y-132450000D01*
X254150000Y-128100000D02*
X254150000Y-126950000D01*
X254150000Y-126950000D02*
X261450000Y-126950000D01*
X264200000Y-137700000D02*
X251400000Y-137700000D01*
X251400000Y-137700000D02*
X251400000Y-123900000D01*
X264200000Y-123900000D02*
X264200000Y-137700000D01*
X251400000Y-123900000D02*
X264200000Y-123900000D01*
X266200000Y-134800000D02*
X266200000Y-126800000D01*
X276200000Y-126800000D02*
X276200000Y-134800000D01*
X266200000Y-126800000D02*
X276200000Y-126800000D01*
X268140000Y-132450000D02*
X274260000Y-132450000D01*
X274260000Y-132450000D02*
X274260000Y-136150000D01*
X274260000Y-136150000D02*
X268140000Y-136150000D01*
X268140000Y-136150000D02*
X268140000Y-132450000D01*
X267550000Y-128100000D02*
X267550000Y-126950000D01*
X267550000Y-126950000D02*
X274850000Y-126950000D01*
X277600000Y-137700000D02*
X264800000Y-137700000D01*
X264800000Y-137700000D02*
X264800000Y-123900000D01*
X277600000Y-123900000D02*
X277600000Y-137700000D01*
X264800000Y-123900000D02*
X277600000Y-123900000D01*
X49900000Y-59500000D02*
X49900000Y-51500000D01*
X59900000Y-51500000D02*
X59900000Y-59500000D01*
X49900000Y-51500000D02*
X59900000Y-51500000D01*
X51840000Y-57150000D02*
X57960000Y-57150000D01*
X57960000Y-57150000D02*
X57960000Y-60850000D01*
X57960000Y-60850000D02*
X51840000Y-60850000D01*
X51840000Y-60850000D02*
X51840000Y-57150000D01*
X51250000Y-52800000D02*
X51250000Y-51650000D01*
X51250000Y-51650000D02*
X58550000Y-51650000D01*
X61300000Y-62400000D02*
X48500000Y-62400000D01*
X48500000Y-62400000D02*
X48500000Y-48600000D01*
X61300000Y-48600000D02*
X61300000Y-62400000D01*
X48500000Y-48600000D02*
X61300000Y-48600000D01*
X63000000Y-59500000D02*
X63000000Y-51500000D01*
X73000000Y-51500000D02*
X73000000Y-59500000D01*
X63000000Y-51500000D02*
X73000000Y-51500000D01*
X64940000Y-57150000D02*
X71060000Y-57150000D01*
X71060000Y-57150000D02*
X71060000Y-60850000D01*
X71060000Y-60850000D02*
X64940000Y-60850000D01*
X64940000Y-60850000D02*
X64940000Y-57150000D01*
X64350000Y-52800000D02*
X64350000Y-51650000D01*
X64350000Y-51650000D02*
X71650000Y-51650000D01*
X74400000Y-62400000D02*
X61600000Y-62400000D01*
X61600000Y-62400000D02*
X61600000Y-48600000D01*
X74400000Y-48600000D02*
X74400000Y-62400000D01*
X61600000Y-48600000D02*
X74400000Y-48600000D01*
X227840000Y-98555000D02*
X226025000Y-98555000D01*
X227840000Y-98290000D02*
X227840000Y-98555000D01*
X231700000Y-98290000D02*
X227840000Y-98290000D01*
X235560000Y-98290000D02*
X235560000Y-98555000D01*
X231700000Y-98290000D02*
X235560000Y-98290000D01*
X227840000Y-113910000D02*
X227840000Y-113645000D01*
X231700000Y-113910000D02*
X227840000Y-113910000D01*
X235560000Y-113910000D02*
X235560000Y-113645000D01*
X231700000Y-113910000D02*
X235560000Y-113910000D01*
X229100000Y-74000000D02*
X229100000Y-69200000D01*
X218300000Y-74000000D02*
X218300000Y-69200000D01*
X218700000Y-74000000D02*
X218700000Y-75400000D01*
X218300000Y-74000000D02*
X218700000Y-74000000D01*
X202100000Y-74000000D02*
X202100000Y-69200000D01*
X191300000Y-74000000D02*
X191300000Y-69200000D01*
X191700000Y-74000000D02*
X191700000Y-75400000D01*
X191300000Y-74000000D02*
X191700000Y-74000000D01*
X185100000Y-73900000D02*
X185100000Y-69100000D01*
X174300000Y-73900000D02*
X174300000Y-69100000D01*
X174700000Y-73900000D02*
X174700000Y-75300000D01*
X174300000Y-73900000D02*
X174700000Y-73900000D01*
X154000000Y-141400000D02*
X144400000Y-141400000D01*
X154000000Y-65900000D02*
X154000000Y-141400000D01*
X144400000Y-65900000D02*
X154000000Y-65900000D01*
X144400000Y-141400000D02*
X144400000Y-65900000D01*
X139000000Y-141400000D02*
X129400000Y-141400000D01*
X139000000Y-65900000D02*
X139000000Y-141400000D01*
X129400000Y-65900000D02*
X139000000Y-65900000D01*
X129400000Y-141400000D02*
X129400000Y-65900000D01*
X254300000Y-123500000D02*
X244700000Y-123500000D01*
X254300000Y-48000000D02*
X254300000Y-123500000D01*
X244700000Y-48000000D02*
X254300000Y-48000000D01*
X244700000Y-123500000D02*
X244700000Y-48000000D01*
X269300000Y-123500000D02*
X259700000Y-123500000D01*
X269300000Y-48000000D02*
X269300000Y-123500000D01*
X259700000Y-48000000D02*
X269300000Y-48000000D01*
X259700000Y-123500000D02*
X259700000Y-48000000D01*
D11*
X139152380Y-50417857D02*
X138676190Y-50751190D01*
X139152380Y-50989285D02*
X138152380Y-50989285D01*
X138152380Y-50608333D01*
X138200000Y-50513095D01*
X138247619Y-50465476D01*
X138342857Y-50417857D01*
X138485714Y-50417857D01*
X138580952Y-50465476D01*
X138628571Y-50513095D01*
X138676190Y-50608333D01*
X138676190Y-50989285D01*
X138485714Y-49560714D02*
X139152380Y-49560714D01*
X138104761Y-49798809D02*
X138819047Y-50036904D01*
X138819047Y-49417857D01*
X138152380Y-49132142D02*
X138152380Y-48513095D01*
X138533333Y-48846428D01*
X138533333Y-48703571D01*
X138580952Y-48608333D01*
X138628571Y-48560714D01*
X138723809Y-48513095D01*
X138961904Y-48513095D01*
X139057142Y-48560714D01*
X139104761Y-48608333D01*
X139152380Y-48703571D01*
X139152380Y-48989285D01*
X139104761Y-49084523D01*
X139057142Y-49132142D01*
X215152380Y-79941666D02*
X214676190Y-80275000D01*
X215152380Y-80513095D02*
X214152380Y-80513095D01*
X214152380Y-80132142D01*
X214200000Y-80036904D01*
X214247619Y-79989285D01*
X214342857Y-79941666D01*
X214485714Y-79941666D01*
X214580952Y-79989285D01*
X214628571Y-80036904D01*
X214676190Y-80132142D01*
X214676190Y-80513095D01*
X214580952Y-79370238D02*
X214533333Y-79465476D01*
X214485714Y-79513095D01*
X214390476Y-79560714D01*
X214342857Y-79560714D01*
X214247619Y-79513095D01*
X214200000Y-79465476D01*
X214152380Y-79370238D01*
X214152380Y-79179761D01*
X214200000Y-79084523D01*
X214247619Y-79036904D01*
X214342857Y-78989285D01*
X214390476Y-78989285D01*
X214485714Y-79036904D01*
X214533333Y-79084523D01*
X214580952Y-79179761D01*
X214580952Y-79370238D01*
X214628571Y-79465476D01*
X214676190Y-79513095D01*
X214771428Y-79560714D01*
X214961904Y-79560714D01*
X215057142Y-79513095D01*
X215104761Y-79465476D01*
X215152380Y-79370238D01*
X215152380Y-79179761D01*
X215104761Y-79084523D01*
X215057142Y-79036904D01*
X214961904Y-78989285D01*
X214771428Y-78989285D01*
X214676190Y-79036904D01*
X214628571Y-79084523D01*
X214580952Y-79179761D01*
X175152380Y-79941666D02*
X174676190Y-80275000D01*
X175152380Y-80513095D02*
X174152380Y-80513095D01*
X174152380Y-80132142D01*
X174200000Y-80036904D01*
X174247619Y-79989285D01*
X174342857Y-79941666D01*
X174485714Y-79941666D01*
X174580952Y-79989285D01*
X174628571Y-80036904D01*
X174676190Y-80132142D01*
X174676190Y-80513095D01*
X174152380Y-79608333D02*
X174152380Y-78941666D01*
X175152380Y-79370238D01*
X215152380Y-49941666D02*
X214676190Y-50275000D01*
X215152380Y-50513095D02*
X214152380Y-50513095D01*
X214152380Y-50132142D01*
X214200000Y-50036904D01*
X214247619Y-49989285D01*
X214342857Y-49941666D01*
X214485714Y-49941666D01*
X214580952Y-49989285D01*
X214628571Y-50036904D01*
X214676190Y-50132142D01*
X214676190Y-50513095D01*
X214152380Y-49084523D02*
X214152380Y-49275000D01*
X214200000Y-49370238D01*
X214247619Y-49417857D01*
X214390476Y-49513095D01*
X214580952Y-49560714D01*
X214961904Y-49560714D01*
X215057142Y-49513095D01*
X215104761Y-49465476D01*
X215152380Y-49370238D01*
X215152380Y-49179761D01*
X215104761Y-49084523D01*
X215057142Y-49036904D01*
X214961904Y-48989285D01*
X214723809Y-48989285D01*
X214628571Y-49036904D01*
X214580952Y-49084523D01*
X214533333Y-49179761D01*
X214533333Y-49370238D01*
X214580952Y-49465476D01*
X214628571Y-49513095D01*
X214723809Y-49560714D01*
X175152380Y-49941666D02*
X174676190Y-50275000D01*
X175152380Y-50513095D02*
X174152380Y-50513095D01*
X174152380Y-50132142D01*
X174200000Y-50036904D01*
X174247619Y-49989285D01*
X174342857Y-49941666D01*
X174485714Y-49941666D01*
X174580952Y-49989285D01*
X174628571Y-50036904D01*
X174676190Y-50132142D01*
X174676190Y-50513095D01*
X174152380Y-49036904D02*
X174152380Y-49513095D01*
X174628571Y-49560714D01*
X174580952Y-49513095D01*
X174533333Y-49417857D01*
X174533333Y-49179761D01*
X174580952Y-49084523D01*
X174628571Y-49036904D01*
X174723809Y-48989285D01*
X174961904Y-48989285D01*
X175057142Y-49036904D01*
X175104761Y-49084523D01*
X175152380Y-49179761D01*
X175152380Y-49417857D01*
X175104761Y-49513095D01*
X175057142Y-49560714D01*
X105952380Y-61941666D02*
X105476190Y-62275000D01*
X105952380Y-62513095D02*
X104952380Y-62513095D01*
X104952380Y-62132142D01*
X105000000Y-62036904D01*
X105047619Y-61989285D01*
X105142857Y-61941666D01*
X105285714Y-61941666D01*
X105380952Y-61989285D01*
X105428571Y-62036904D01*
X105476190Y-62132142D01*
X105476190Y-62513095D01*
X105952380Y-60989285D02*
X105952380Y-61560714D01*
X105952380Y-61275000D02*
X104952380Y-61275000D01*
X105095238Y-61370238D01*
X105190476Y-61465476D01*
X105238095Y-61560714D01*
X50916095Y-130236380D02*
X50916095Y-131045904D01*
X50963714Y-131141142D01*
X51011333Y-131188761D01*
X51106571Y-131236380D01*
X51297047Y-131236380D01*
X51392285Y-131188761D01*
X51439904Y-131141142D01*
X51487523Y-131045904D01*
X51487523Y-130236380D01*
X51868476Y-130236380D02*
X52535142Y-130236380D01*
X52106571Y-131236380D01*
X107866666Y-57752380D02*
X107866666Y-58466666D01*
X107819047Y-58609523D01*
X107723809Y-58704761D01*
X107580952Y-58752380D01*
X107485714Y-58752380D01*
X108866666Y-58752380D02*
X108295238Y-58752380D01*
X108580952Y-58752380D02*
X108580952Y-57752380D01*
X108485714Y-57895238D01*
X108390476Y-57990476D01*
X108295238Y-58038095D01*
X76357142Y-106252380D02*
X76023809Y-105776190D01*
X75785714Y-106252380D02*
X75785714Y-105252380D01*
X76166666Y-105252380D01*
X76261904Y-105300000D01*
X76309523Y-105347619D01*
X76357142Y-105442857D01*
X76357142Y-105585714D01*
X76309523Y-105680952D01*
X76261904Y-105728571D01*
X76166666Y-105776190D01*
X75785714Y-105776190D01*
X77261904Y-105252380D02*
X76785714Y-105252380D01*
X76738095Y-105728571D01*
X76785714Y-105680952D01*
X76880952Y-105633333D01*
X77119047Y-105633333D01*
X77214285Y-105680952D01*
X77261904Y-105728571D01*
X77309523Y-105823809D01*
X77309523Y-106061904D01*
X77261904Y-106157142D01*
X77214285Y-106204761D01*
X77119047Y-106252380D01*
X76880952Y-106252380D01*
X76785714Y-106204761D01*
X76738095Y-106157142D01*
X77642857Y-105252380D02*
X78309523Y-105252380D01*
X77880952Y-106252380D01*
X123333333Y-61552380D02*
X123000000Y-61076190D01*
X122761904Y-61552380D02*
X122761904Y-60552380D01*
X123142857Y-60552380D01*
X123238095Y-60600000D01*
X123285714Y-60647619D01*
X123333333Y-60742857D01*
X123333333Y-60885714D01*
X123285714Y-60980952D01*
X123238095Y-61028571D01*
X123142857Y-61076190D01*
X122761904Y-61076190D01*
X124190476Y-60885714D02*
X124190476Y-61552380D01*
X123952380Y-60504761D02*
X123714285Y-61219047D01*
X124333333Y-61219047D01*
X112561904Y-61152380D02*
X112561904Y-60152380D01*
X112800000Y-60152380D01*
X112942857Y-60200000D01*
X113038095Y-60295238D01*
X113085714Y-60390476D01*
X113133333Y-60580952D01*
X113133333Y-60723809D01*
X113085714Y-60914285D01*
X113038095Y-61009523D01*
X112942857Y-61104761D01*
X112800000Y-61152380D01*
X112561904Y-61152380D01*
X114085714Y-61152380D02*
X113514285Y-61152380D01*
X113800000Y-61152380D02*
X113800000Y-60152380D01*
X113704761Y-60295238D01*
X113609523Y-60390476D01*
X113514285Y-60438095D01*
X229344642Y-120422380D02*
X229011309Y-119946190D01*
X228773214Y-120422380D02*
X228773214Y-119422380D01*
X229154166Y-119422380D01*
X229249404Y-119470000D01*
X229297023Y-119517619D01*
X229344642Y-119612857D01*
X229344642Y-119755714D01*
X229297023Y-119850952D01*
X229249404Y-119898571D01*
X229154166Y-119946190D01*
X228773214Y-119946190D01*
X230201785Y-119755714D02*
X230201785Y-120422380D01*
X229963690Y-119374761D02*
X229725595Y-120089047D01*
X230344642Y-120089047D01*
X231249404Y-120422380D02*
X230677976Y-120422380D01*
X230963690Y-120422380D02*
X230963690Y-119422380D01*
X230868452Y-119565238D01*
X230773214Y-119660476D01*
X230677976Y-119708095D01*
X63157142Y-78752380D02*
X62823809Y-78276190D01*
X62585714Y-78752380D02*
X62585714Y-77752380D01*
X62966666Y-77752380D01*
X63061904Y-77800000D01*
X63109523Y-77847619D01*
X63157142Y-77942857D01*
X63157142Y-78085714D01*
X63109523Y-78180952D01*
X63061904Y-78228571D01*
X62966666Y-78276190D01*
X62585714Y-78276190D01*
X64061904Y-77752380D02*
X63585714Y-77752380D01*
X63538095Y-78228571D01*
X63585714Y-78180952D01*
X63680952Y-78133333D01*
X63919047Y-78133333D01*
X64014285Y-78180952D01*
X64061904Y-78228571D01*
X64109523Y-78323809D01*
X64109523Y-78561904D01*
X64061904Y-78657142D01*
X64014285Y-78704761D01*
X63919047Y-78752380D01*
X63680952Y-78752380D01*
X63585714Y-78704761D01*
X63538095Y-78657142D01*
X64966666Y-77752380D02*
X64776190Y-77752380D01*
X64680952Y-77800000D01*
X64633333Y-77847619D01*
X64538095Y-77990476D01*
X64490476Y-78180952D01*
X64490476Y-78561904D01*
X64538095Y-78657142D01*
X64585714Y-78704761D01*
X64680952Y-78752380D01*
X64871428Y-78752380D01*
X64966666Y-78704761D01*
X65014285Y-78657142D01*
X65061904Y-78561904D01*
X65061904Y-78323809D01*
X65014285Y-78228571D01*
X64966666Y-78180952D01*
X64871428Y-78133333D01*
X64680952Y-78133333D01*
X64585714Y-78180952D01*
X64538095Y-78228571D01*
X64490476Y-78323809D01*
X95157142Y-120752380D02*
X94823809Y-120276190D01*
X94585714Y-120752380D02*
X94585714Y-119752380D01*
X94966666Y-119752380D01*
X95061904Y-119800000D01*
X95109523Y-119847619D01*
X95157142Y-119942857D01*
X95157142Y-120085714D01*
X95109523Y-120180952D01*
X95061904Y-120228571D01*
X94966666Y-120276190D01*
X94585714Y-120276190D01*
X96061904Y-119752380D02*
X95585714Y-119752380D01*
X95538095Y-120228571D01*
X95585714Y-120180952D01*
X95680952Y-120133333D01*
X95919047Y-120133333D01*
X96014285Y-120180952D01*
X96061904Y-120228571D01*
X96109523Y-120323809D01*
X96109523Y-120561904D01*
X96061904Y-120657142D01*
X96014285Y-120704761D01*
X95919047Y-120752380D01*
X95680952Y-120752380D01*
X95585714Y-120704761D01*
X95538095Y-120657142D01*
X97014285Y-119752380D02*
X96538095Y-119752380D01*
X96490476Y-120228571D01*
X96538095Y-120180952D01*
X96633333Y-120133333D01*
X96871428Y-120133333D01*
X96966666Y-120180952D01*
X97014285Y-120228571D01*
X97061904Y-120323809D01*
X97061904Y-120561904D01*
X97014285Y-120657142D01*
X96966666Y-120704761D01*
X96871428Y-120752380D01*
X96633333Y-120752380D01*
X96538095Y-120704761D01*
X96490476Y-120657142D01*
X59757142Y-77052380D02*
X59423809Y-76576190D01*
X59185714Y-77052380D02*
X59185714Y-76052380D01*
X59566666Y-76052380D01*
X59661904Y-76100000D01*
X59709523Y-76147619D01*
X59757142Y-76242857D01*
X59757142Y-76385714D01*
X59709523Y-76480952D01*
X59661904Y-76528571D01*
X59566666Y-76576190D01*
X59185714Y-76576190D01*
X60661904Y-76052380D02*
X60185714Y-76052380D01*
X60138095Y-76528571D01*
X60185714Y-76480952D01*
X60280952Y-76433333D01*
X60519047Y-76433333D01*
X60614285Y-76480952D01*
X60661904Y-76528571D01*
X60709523Y-76623809D01*
X60709523Y-76861904D01*
X60661904Y-76957142D01*
X60614285Y-77004761D01*
X60519047Y-77052380D01*
X60280952Y-77052380D01*
X60185714Y-77004761D01*
X60138095Y-76957142D01*
X61566666Y-76385714D02*
X61566666Y-77052380D01*
X61328571Y-76004761D02*
X61090476Y-76719047D01*
X61709523Y-76719047D01*
X92157142Y-118952380D02*
X91823809Y-118476190D01*
X91585714Y-118952380D02*
X91585714Y-117952380D01*
X91966666Y-117952380D01*
X92061904Y-118000000D01*
X92109523Y-118047619D01*
X92157142Y-118142857D01*
X92157142Y-118285714D01*
X92109523Y-118380952D01*
X92061904Y-118428571D01*
X91966666Y-118476190D01*
X91585714Y-118476190D01*
X93061904Y-117952380D02*
X92585714Y-117952380D01*
X92538095Y-118428571D01*
X92585714Y-118380952D01*
X92680952Y-118333333D01*
X92919047Y-118333333D01*
X93014285Y-118380952D01*
X93061904Y-118428571D01*
X93109523Y-118523809D01*
X93109523Y-118761904D01*
X93061904Y-118857142D01*
X93014285Y-118904761D01*
X92919047Y-118952380D01*
X92680952Y-118952380D01*
X92585714Y-118904761D01*
X92538095Y-118857142D01*
X93442857Y-117952380D02*
X94061904Y-117952380D01*
X93728571Y-118333333D01*
X93871428Y-118333333D01*
X93966666Y-118380952D01*
X94014285Y-118428571D01*
X94061904Y-118523809D01*
X94061904Y-118761904D01*
X94014285Y-118857142D01*
X93966666Y-118904761D01*
X93871428Y-118952380D01*
X93585714Y-118952380D01*
X93490476Y-118904761D01*
X93442857Y-118857142D01*
X52557142Y-101652380D02*
X52223809Y-101176190D01*
X51985714Y-101652380D02*
X51985714Y-100652380D01*
X52366666Y-100652380D01*
X52461904Y-100700000D01*
X52509523Y-100747619D01*
X52557142Y-100842857D01*
X52557142Y-100985714D01*
X52509523Y-101080952D01*
X52461904Y-101128571D01*
X52366666Y-101176190D01*
X51985714Y-101176190D01*
X53461904Y-100652380D02*
X52985714Y-100652380D01*
X52938095Y-101128571D01*
X52985714Y-101080952D01*
X53080952Y-101033333D01*
X53319047Y-101033333D01*
X53414285Y-101080952D01*
X53461904Y-101128571D01*
X53509523Y-101223809D01*
X53509523Y-101461904D01*
X53461904Y-101557142D01*
X53414285Y-101604761D01*
X53319047Y-101652380D01*
X53080952Y-101652380D01*
X52985714Y-101604761D01*
X52938095Y-101557142D01*
X53890476Y-100747619D02*
X53938095Y-100700000D01*
X54033333Y-100652380D01*
X54271428Y-100652380D01*
X54366666Y-100700000D01*
X54414285Y-100747619D01*
X54461904Y-100842857D01*
X54461904Y-100938095D01*
X54414285Y-101080952D01*
X53842857Y-101652380D01*
X54461904Y-101652380D01*
X103857142Y-96652380D02*
X103523809Y-96176190D01*
X103285714Y-96652380D02*
X103285714Y-95652380D01*
X103666666Y-95652380D01*
X103761904Y-95700000D01*
X103809523Y-95747619D01*
X103857142Y-95842857D01*
X103857142Y-95985714D01*
X103809523Y-96080952D01*
X103761904Y-96128571D01*
X103666666Y-96176190D01*
X103285714Y-96176190D01*
X104761904Y-95652380D02*
X104285714Y-95652380D01*
X104238095Y-96128571D01*
X104285714Y-96080952D01*
X104380952Y-96033333D01*
X104619047Y-96033333D01*
X104714285Y-96080952D01*
X104761904Y-96128571D01*
X104809523Y-96223809D01*
X104809523Y-96461904D01*
X104761904Y-96557142D01*
X104714285Y-96604761D01*
X104619047Y-96652380D01*
X104380952Y-96652380D01*
X104285714Y-96604761D01*
X104238095Y-96557142D01*
X105761904Y-96652380D02*
X105190476Y-96652380D01*
X105476190Y-96652380D02*
X105476190Y-95652380D01*
X105380952Y-95795238D01*
X105285714Y-95890476D01*
X105190476Y-95938095D01*
X56069642Y-100022380D02*
X55736309Y-99546190D01*
X55498214Y-100022380D02*
X55498214Y-99022380D01*
X55879166Y-99022380D01*
X55974404Y-99070000D01*
X56022023Y-99117619D01*
X56069642Y-99212857D01*
X56069642Y-99355714D01*
X56022023Y-99450952D01*
X55974404Y-99498571D01*
X55879166Y-99546190D01*
X55498214Y-99546190D01*
X56974404Y-99022380D02*
X56498214Y-99022380D01*
X56450595Y-99498571D01*
X56498214Y-99450952D01*
X56593452Y-99403333D01*
X56831547Y-99403333D01*
X56926785Y-99450952D01*
X56974404Y-99498571D01*
X57022023Y-99593809D01*
X57022023Y-99831904D01*
X56974404Y-99927142D01*
X56926785Y-99974761D01*
X56831547Y-100022380D01*
X56593452Y-100022380D01*
X56498214Y-99974761D01*
X56450595Y-99927142D01*
X57641071Y-99022380D02*
X57736309Y-99022380D01*
X57831547Y-99070000D01*
X57879166Y-99117619D01*
X57926785Y-99212857D01*
X57974404Y-99403333D01*
X57974404Y-99641428D01*
X57926785Y-99831904D01*
X57879166Y-99927142D01*
X57831547Y-99974761D01*
X57736309Y-100022380D01*
X57641071Y-100022380D01*
X57545833Y-99974761D01*
X57498214Y-99927142D01*
X57450595Y-99831904D01*
X57402976Y-99641428D01*
X57402976Y-99403333D01*
X57450595Y-99212857D01*
X57498214Y-99117619D01*
X57545833Y-99070000D01*
X57641071Y-99022380D01*
X100644642Y-98152380D02*
X100311309Y-97676190D01*
X100073214Y-98152380D02*
X100073214Y-97152380D01*
X100454166Y-97152380D01*
X100549404Y-97200000D01*
X100597023Y-97247619D01*
X100644642Y-97342857D01*
X100644642Y-97485714D01*
X100597023Y-97580952D01*
X100549404Y-97628571D01*
X100454166Y-97676190D01*
X100073214Y-97676190D01*
X101501785Y-97485714D02*
X101501785Y-98152380D01*
X101263690Y-97104761D02*
X101025595Y-97819047D01*
X101644642Y-97819047D01*
X102073214Y-98152380D02*
X102263690Y-98152380D01*
X102358928Y-98104761D01*
X102406547Y-98057142D01*
X102501785Y-97914285D01*
X102549404Y-97723809D01*
X102549404Y-97342857D01*
X102501785Y-97247619D01*
X102454166Y-97200000D01*
X102358928Y-97152380D01*
X102168452Y-97152380D01*
X102073214Y-97200000D01*
X102025595Y-97247619D01*
X101977976Y-97342857D01*
X101977976Y-97580952D01*
X102025595Y-97676190D01*
X102073214Y-97723809D01*
X102168452Y-97771428D01*
X102358928Y-97771428D01*
X102454166Y-97723809D01*
X102501785Y-97676190D01*
X102549404Y-97580952D01*
X68057142Y-123752380D02*
X67723809Y-123276190D01*
X67485714Y-123752380D02*
X67485714Y-122752380D01*
X67866666Y-122752380D01*
X67961904Y-122800000D01*
X68009523Y-122847619D01*
X68057142Y-122942857D01*
X68057142Y-123085714D01*
X68009523Y-123180952D01*
X67961904Y-123228571D01*
X67866666Y-123276190D01*
X67485714Y-123276190D01*
X68914285Y-123085714D02*
X68914285Y-123752380D01*
X68676190Y-122704761D02*
X68438095Y-123419047D01*
X69057142Y-123419047D01*
X69580952Y-123180952D02*
X69485714Y-123133333D01*
X69438095Y-123085714D01*
X69390476Y-122990476D01*
X69390476Y-122942857D01*
X69438095Y-122847619D01*
X69485714Y-122800000D01*
X69580952Y-122752380D01*
X69771428Y-122752380D01*
X69866666Y-122800000D01*
X69914285Y-122847619D01*
X69961904Y-122942857D01*
X69961904Y-122990476D01*
X69914285Y-123085714D01*
X69866666Y-123133333D01*
X69771428Y-123180952D01*
X69580952Y-123180952D01*
X69485714Y-123228571D01*
X69438095Y-123276190D01*
X69390476Y-123371428D01*
X69390476Y-123561904D01*
X69438095Y-123657142D01*
X69485714Y-123704761D01*
X69580952Y-123752380D01*
X69771428Y-123752380D01*
X69866666Y-123704761D01*
X69914285Y-123657142D01*
X69961904Y-123561904D01*
X69961904Y-123371428D01*
X69914285Y-123276190D01*
X69866666Y-123228571D01*
X69771428Y-123180952D01*
X88557142Y-75052380D02*
X88223809Y-74576190D01*
X87985714Y-75052380D02*
X87985714Y-74052380D01*
X88366666Y-74052380D01*
X88461904Y-74100000D01*
X88509523Y-74147619D01*
X88557142Y-74242857D01*
X88557142Y-74385714D01*
X88509523Y-74480952D01*
X88461904Y-74528571D01*
X88366666Y-74576190D01*
X87985714Y-74576190D01*
X89414285Y-74385714D02*
X89414285Y-75052380D01*
X89176190Y-74004761D02*
X88938095Y-74719047D01*
X89557142Y-74719047D01*
X89842857Y-74052380D02*
X90509523Y-74052380D01*
X90080952Y-75052380D01*
X150857142Y-49452380D02*
X150523809Y-48976190D01*
X150285714Y-49452380D02*
X150285714Y-48452380D01*
X150666666Y-48452380D01*
X150761904Y-48500000D01*
X150809523Y-48547619D01*
X150857142Y-48642857D01*
X150857142Y-48785714D01*
X150809523Y-48880952D01*
X150761904Y-48928571D01*
X150666666Y-48976190D01*
X150285714Y-48976190D01*
X151714285Y-48785714D02*
X151714285Y-49452380D01*
X151476190Y-48404761D02*
X151238095Y-49119047D01*
X151857142Y-49119047D01*
X152666666Y-48452380D02*
X152476190Y-48452380D01*
X152380952Y-48500000D01*
X152333333Y-48547619D01*
X152238095Y-48690476D01*
X152190476Y-48880952D01*
X152190476Y-49261904D01*
X152238095Y-49357142D01*
X152285714Y-49404761D01*
X152380952Y-49452380D01*
X152571428Y-49452380D01*
X152666666Y-49404761D01*
X152714285Y-49357142D01*
X152761904Y-49261904D01*
X152761904Y-49023809D01*
X152714285Y-48928571D01*
X152666666Y-48880952D01*
X152571428Y-48833333D01*
X152380952Y-48833333D01*
X152285714Y-48880952D01*
X152238095Y-48928571D01*
X152190476Y-49023809D01*
X133157142Y-65352380D02*
X132823809Y-64876190D01*
X132585714Y-65352380D02*
X132585714Y-64352380D01*
X132966666Y-64352380D01*
X133061904Y-64400000D01*
X133109523Y-64447619D01*
X133157142Y-64542857D01*
X133157142Y-64685714D01*
X133109523Y-64780952D01*
X133061904Y-64828571D01*
X132966666Y-64876190D01*
X132585714Y-64876190D01*
X134014285Y-64685714D02*
X134014285Y-65352380D01*
X133776190Y-64304761D02*
X133538095Y-65019047D01*
X134157142Y-65019047D01*
X135014285Y-64352380D02*
X134538095Y-64352380D01*
X134490476Y-64828571D01*
X134538095Y-64780952D01*
X134633333Y-64733333D01*
X134871428Y-64733333D01*
X134966666Y-64780952D01*
X135014285Y-64828571D01*
X135061904Y-64923809D01*
X135061904Y-65161904D01*
X135014285Y-65257142D01*
X134966666Y-65304761D01*
X134871428Y-65352380D01*
X134633333Y-65352380D01*
X134538095Y-65304761D01*
X134490476Y-65257142D01*
X136357142Y-65352380D02*
X136023809Y-64876190D01*
X135785714Y-65352380D02*
X135785714Y-64352380D01*
X136166666Y-64352380D01*
X136261904Y-64400000D01*
X136309523Y-64447619D01*
X136357142Y-64542857D01*
X136357142Y-64685714D01*
X136309523Y-64780952D01*
X136261904Y-64828571D01*
X136166666Y-64876190D01*
X135785714Y-64876190D01*
X137214285Y-64685714D02*
X137214285Y-65352380D01*
X136976190Y-64304761D02*
X136738095Y-65019047D01*
X137357142Y-65019047D01*
X138166666Y-64685714D02*
X138166666Y-65352380D01*
X137928571Y-64304761D02*
X137690476Y-65019047D01*
X138309523Y-65019047D01*
X229344642Y-123822380D02*
X229011309Y-123346190D01*
X228773214Y-123822380D02*
X228773214Y-122822380D01*
X229154166Y-122822380D01*
X229249404Y-122870000D01*
X229297023Y-122917619D01*
X229344642Y-123012857D01*
X229344642Y-123155714D01*
X229297023Y-123250952D01*
X229249404Y-123298571D01*
X229154166Y-123346190D01*
X228773214Y-123346190D01*
X230201785Y-123155714D02*
X230201785Y-123822380D01*
X229963690Y-122774761D02*
X229725595Y-123489047D01*
X230344642Y-123489047D01*
X230677976Y-122917619D02*
X230725595Y-122870000D01*
X230820833Y-122822380D01*
X231058928Y-122822380D01*
X231154166Y-122870000D01*
X231201785Y-122917619D01*
X231249404Y-123012857D01*
X231249404Y-123108095D01*
X231201785Y-123250952D01*
X230630357Y-123822380D01*
X231249404Y-123822380D01*
X180144642Y-108482380D02*
X179811309Y-108006190D01*
X179573214Y-108482380D02*
X179573214Y-107482380D01*
X179954166Y-107482380D01*
X180049404Y-107530000D01*
X180097023Y-107577619D01*
X180144642Y-107672857D01*
X180144642Y-107815714D01*
X180097023Y-107910952D01*
X180049404Y-107958571D01*
X179954166Y-108006190D01*
X179573214Y-108006190D01*
X181001785Y-107815714D02*
X181001785Y-108482380D01*
X180763690Y-107434761D02*
X180525595Y-108149047D01*
X181144642Y-108149047D01*
X181716071Y-107482380D02*
X181811309Y-107482380D01*
X181906547Y-107530000D01*
X181954166Y-107577619D01*
X182001785Y-107672857D01*
X182049404Y-107863333D01*
X182049404Y-108101428D01*
X182001785Y-108291904D01*
X181954166Y-108387142D01*
X181906547Y-108434761D01*
X181811309Y-108482380D01*
X181716071Y-108482380D01*
X181620833Y-108434761D01*
X181573214Y-108387142D01*
X181525595Y-108291904D01*
X181477976Y-108101428D01*
X181477976Y-107863333D01*
X181525595Y-107672857D01*
X181573214Y-107577619D01*
X181620833Y-107530000D01*
X181716071Y-107482380D01*
X180144642Y-112482380D02*
X179811309Y-112006190D01*
X179573214Y-112482380D02*
X179573214Y-111482380D01*
X179954166Y-111482380D01*
X180049404Y-111530000D01*
X180097023Y-111577619D01*
X180144642Y-111672857D01*
X180144642Y-111815714D01*
X180097023Y-111910952D01*
X180049404Y-111958571D01*
X179954166Y-112006190D01*
X179573214Y-112006190D01*
X180477976Y-111482380D02*
X181097023Y-111482380D01*
X180763690Y-111863333D01*
X180906547Y-111863333D01*
X181001785Y-111910952D01*
X181049404Y-111958571D01*
X181097023Y-112053809D01*
X181097023Y-112291904D01*
X181049404Y-112387142D01*
X181001785Y-112434761D01*
X180906547Y-112482380D01*
X180620833Y-112482380D01*
X180525595Y-112434761D01*
X180477976Y-112387142D01*
X181573214Y-112482380D02*
X181763690Y-112482380D01*
X181858928Y-112434761D01*
X181906547Y-112387142D01*
X182001785Y-112244285D01*
X182049404Y-112053809D01*
X182049404Y-111672857D01*
X182001785Y-111577619D01*
X181954166Y-111530000D01*
X181858928Y-111482380D01*
X181668452Y-111482380D01*
X181573214Y-111530000D01*
X181525595Y-111577619D01*
X181477976Y-111672857D01*
X181477976Y-111910952D01*
X181525595Y-112006190D01*
X181573214Y-112053809D01*
X181668452Y-112101428D01*
X181858928Y-112101428D01*
X181954166Y-112053809D01*
X182001785Y-112006190D01*
X182049404Y-111910952D01*
X180144642Y-116482380D02*
X179811309Y-116006190D01*
X179573214Y-116482380D02*
X179573214Y-115482380D01*
X179954166Y-115482380D01*
X180049404Y-115530000D01*
X180097023Y-115577619D01*
X180144642Y-115672857D01*
X180144642Y-115815714D01*
X180097023Y-115910952D01*
X180049404Y-115958571D01*
X179954166Y-116006190D01*
X179573214Y-116006190D01*
X180477976Y-115482380D02*
X181097023Y-115482380D01*
X180763690Y-115863333D01*
X180906547Y-115863333D01*
X181001785Y-115910952D01*
X181049404Y-115958571D01*
X181097023Y-116053809D01*
X181097023Y-116291904D01*
X181049404Y-116387142D01*
X181001785Y-116434761D01*
X180906547Y-116482380D01*
X180620833Y-116482380D01*
X180525595Y-116434761D01*
X180477976Y-116387142D01*
X181668452Y-115910952D02*
X181573214Y-115863333D01*
X181525595Y-115815714D01*
X181477976Y-115720476D01*
X181477976Y-115672857D01*
X181525595Y-115577619D01*
X181573214Y-115530000D01*
X181668452Y-115482380D01*
X181858928Y-115482380D01*
X181954166Y-115530000D01*
X182001785Y-115577619D01*
X182049404Y-115672857D01*
X182049404Y-115720476D01*
X182001785Y-115815714D01*
X181954166Y-115863333D01*
X181858928Y-115910952D01*
X181668452Y-115910952D01*
X181573214Y-115958571D01*
X181525595Y-116006190D01*
X181477976Y-116101428D01*
X181477976Y-116291904D01*
X181525595Y-116387142D01*
X181573214Y-116434761D01*
X181668452Y-116482380D01*
X181858928Y-116482380D01*
X181954166Y-116434761D01*
X182001785Y-116387142D01*
X182049404Y-116291904D01*
X182049404Y-116101428D01*
X182001785Y-116006190D01*
X181954166Y-115958571D01*
X181858928Y-115910952D01*
X180144642Y-120482380D02*
X179811309Y-120006190D01*
X179573214Y-120482380D02*
X179573214Y-119482380D01*
X179954166Y-119482380D01*
X180049404Y-119530000D01*
X180097023Y-119577619D01*
X180144642Y-119672857D01*
X180144642Y-119815714D01*
X180097023Y-119910952D01*
X180049404Y-119958571D01*
X179954166Y-120006190D01*
X179573214Y-120006190D01*
X180477976Y-119482380D02*
X181097023Y-119482380D01*
X180763690Y-119863333D01*
X180906547Y-119863333D01*
X181001785Y-119910952D01*
X181049404Y-119958571D01*
X181097023Y-120053809D01*
X181097023Y-120291904D01*
X181049404Y-120387142D01*
X181001785Y-120434761D01*
X180906547Y-120482380D01*
X180620833Y-120482380D01*
X180525595Y-120434761D01*
X180477976Y-120387142D01*
X181430357Y-119482380D02*
X182097023Y-119482380D01*
X181668452Y-120482380D01*
X180144642Y-124482380D02*
X179811309Y-124006190D01*
X179573214Y-124482380D02*
X179573214Y-123482380D01*
X179954166Y-123482380D01*
X180049404Y-123530000D01*
X180097023Y-123577619D01*
X180144642Y-123672857D01*
X180144642Y-123815714D01*
X180097023Y-123910952D01*
X180049404Y-123958571D01*
X179954166Y-124006190D01*
X179573214Y-124006190D01*
X180477976Y-123482380D02*
X181097023Y-123482380D01*
X180763690Y-123863333D01*
X180906547Y-123863333D01*
X181001785Y-123910952D01*
X181049404Y-123958571D01*
X181097023Y-124053809D01*
X181097023Y-124291904D01*
X181049404Y-124387142D01*
X181001785Y-124434761D01*
X180906547Y-124482380D01*
X180620833Y-124482380D01*
X180525595Y-124434761D01*
X180477976Y-124387142D01*
X181954166Y-123482380D02*
X181763690Y-123482380D01*
X181668452Y-123530000D01*
X181620833Y-123577619D01*
X181525595Y-123720476D01*
X181477976Y-123910952D01*
X181477976Y-124291904D01*
X181525595Y-124387142D01*
X181573214Y-124434761D01*
X181668452Y-124482380D01*
X181858928Y-124482380D01*
X181954166Y-124434761D01*
X182001785Y-124387142D01*
X182049404Y-124291904D01*
X182049404Y-124053809D01*
X182001785Y-123958571D01*
X181954166Y-123910952D01*
X181858928Y-123863333D01*
X181668452Y-123863333D01*
X181573214Y-123910952D01*
X181525595Y-123958571D01*
X181477976Y-124053809D01*
X180144642Y-128482380D02*
X179811309Y-128006190D01*
X179573214Y-128482380D02*
X179573214Y-127482380D01*
X179954166Y-127482380D01*
X180049404Y-127530000D01*
X180097023Y-127577619D01*
X180144642Y-127672857D01*
X180144642Y-127815714D01*
X180097023Y-127910952D01*
X180049404Y-127958571D01*
X179954166Y-128006190D01*
X179573214Y-128006190D01*
X180477976Y-127482380D02*
X181097023Y-127482380D01*
X180763690Y-127863333D01*
X180906547Y-127863333D01*
X181001785Y-127910952D01*
X181049404Y-127958571D01*
X181097023Y-128053809D01*
X181097023Y-128291904D01*
X181049404Y-128387142D01*
X181001785Y-128434761D01*
X180906547Y-128482380D01*
X180620833Y-128482380D01*
X180525595Y-128434761D01*
X180477976Y-128387142D01*
X182001785Y-127482380D02*
X181525595Y-127482380D01*
X181477976Y-127958571D01*
X181525595Y-127910952D01*
X181620833Y-127863333D01*
X181858928Y-127863333D01*
X181954166Y-127910952D01*
X182001785Y-127958571D01*
X182049404Y-128053809D01*
X182049404Y-128291904D01*
X182001785Y-128387142D01*
X181954166Y-128434761D01*
X181858928Y-128482380D01*
X181620833Y-128482380D01*
X181525595Y-128434761D01*
X181477976Y-128387142D01*
X180144642Y-132482380D02*
X179811309Y-132006190D01*
X179573214Y-132482380D02*
X179573214Y-131482380D01*
X179954166Y-131482380D01*
X180049404Y-131530000D01*
X180097023Y-131577619D01*
X180144642Y-131672857D01*
X180144642Y-131815714D01*
X180097023Y-131910952D01*
X180049404Y-131958571D01*
X179954166Y-132006190D01*
X179573214Y-132006190D01*
X180477976Y-131482380D02*
X181097023Y-131482380D01*
X180763690Y-131863333D01*
X180906547Y-131863333D01*
X181001785Y-131910952D01*
X181049404Y-131958571D01*
X181097023Y-132053809D01*
X181097023Y-132291904D01*
X181049404Y-132387142D01*
X181001785Y-132434761D01*
X180906547Y-132482380D01*
X180620833Y-132482380D01*
X180525595Y-132434761D01*
X180477976Y-132387142D01*
X181954166Y-131815714D02*
X181954166Y-132482380D01*
X181716071Y-131434761D02*
X181477976Y-132149047D01*
X182097023Y-132149047D01*
X180144642Y-136482380D02*
X179811309Y-136006190D01*
X179573214Y-136482380D02*
X179573214Y-135482380D01*
X179954166Y-135482380D01*
X180049404Y-135530000D01*
X180097023Y-135577619D01*
X180144642Y-135672857D01*
X180144642Y-135815714D01*
X180097023Y-135910952D01*
X180049404Y-135958571D01*
X179954166Y-136006190D01*
X179573214Y-136006190D01*
X180477976Y-135482380D02*
X181097023Y-135482380D01*
X180763690Y-135863333D01*
X180906547Y-135863333D01*
X181001785Y-135910952D01*
X181049404Y-135958571D01*
X181097023Y-136053809D01*
X181097023Y-136291904D01*
X181049404Y-136387142D01*
X181001785Y-136434761D01*
X180906547Y-136482380D01*
X180620833Y-136482380D01*
X180525595Y-136434761D01*
X180477976Y-136387142D01*
X181430357Y-135482380D02*
X182049404Y-135482380D01*
X181716071Y-135863333D01*
X181858928Y-135863333D01*
X181954166Y-135910952D01*
X182001785Y-135958571D01*
X182049404Y-136053809D01*
X182049404Y-136291904D01*
X182001785Y-136387142D01*
X181954166Y-136434761D01*
X181858928Y-136482380D01*
X181573214Y-136482380D01*
X181477976Y-136434761D01*
X181430357Y-136387142D01*
X180144642Y-140482380D02*
X179811309Y-140006190D01*
X179573214Y-140482380D02*
X179573214Y-139482380D01*
X179954166Y-139482380D01*
X180049404Y-139530000D01*
X180097023Y-139577619D01*
X180144642Y-139672857D01*
X180144642Y-139815714D01*
X180097023Y-139910952D01*
X180049404Y-139958571D01*
X179954166Y-140006190D01*
X179573214Y-140006190D01*
X180477976Y-139482380D02*
X181097023Y-139482380D01*
X180763690Y-139863333D01*
X180906547Y-139863333D01*
X181001785Y-139910952D01*
X181049404Y-139958571D01*
X181097023Y-140053809D01*
X181097023Y-140291904D01*
X181049404Y-140387142D01*
X181001785Y-140434761D01*
X180906547Y-140482380D01*
X180620833Y-140482380D01*
X180525595Y-140434761D01*
X180477976Y-140387142D01*
X181477976Y-139577619D02*
X181525595Y-139530000D01*
X181620833Y-139482380D01*
X181858928Y-139482380D01*
X181954166Y-139530000D01*
X182001785Y-139577619D01*
X182049404Y-139672857D01*
X182049404Y-139768095D01*
X182001785Y-139910952D01*
X181430357Y-140482380D01*
X182049404Y-140482380D01*
X220222380Y-98842857D02*
X219746190Y-99176190D01*
X220222380Y-99414285D02*
X219222380Y-99414285D01*
X219222380Y-99033333D01*
X219270000Y-98938095D01*
X219317619Y-98890476D01*
X219412857Y-98842857D01*
X219555714Y-98842857D01*
X219650952Y-98890476D01*
X219698571Y-98938095D01*
X219746190Y-99033333D01*
X219746190Y-99414285D01*
X219222380Y-98509523D02*
X219222380Y-97890476D01*
X219603333Y-98223809D01*
X219603333Y-98080952D01*
X219650952Y-97985714D01*
X219698571Y-97938095D01*
X219793809Y-97890476D01*
X220031904Y-97890476D01*
X220127142Y-97938095D01*
X220174761Y-97985714D01*
X220222380Y-98080952D01*
X220222380Y-98366666D01*
X220174761Y-98461904D01*
X220127142Y-98509523D01*
X220222380Y-96938095D02*
X220222380Y-97509523D01*
X220222380Y-97223809D02*
X219222380Y-97223809D01*
X219365238Y-97319047D01*
X219460476Y-97414285D01*
X219508095Y-97509523D01*
X216222380Y-98842857D02*
X215746190Y-99176190D01*
X216222380Y-99414285D02*
X215222380Y-99414285D01*
X215222380Y-99033333D01*
X215270000Y-98938095D01*
X215317619Y-98890476D01*
X215412857Y-98842857D01*
X215555714Y-98842857D01*
X215650952Y-98890476D01*
X215698571Y-98938095D01*
X215746190Y-99033333D01*
X215746190Y-99414285D01*
X215222380Y-98509523D02*
X215222380Y-97890476D01*
X215603333Y-98223809D01*
X215603333Y-98080952D01*
X215650952Y-97985714D01*
X215698571Y-97938095D01*
X215793809Y-97890476D01*
X216031904Y-97890476D01*
X216127142Y-97938095D01*
X216174761Y-97985714D01*
X216222380Y-98080952D01*
X216222380Y-98366666D01*
X216174761Y-98461904D01*
X216127142Y-98509523D01*
X215222380Y-97271428D02*
X215222380Y-97176190D01*
X215270000Y-97080952D01*
X215317619Y-97033333D01*
X215412857Y-96985714D01*
X215603333Y-96938095D01*
X215841428Y-96938095D01*
X216031904Y-96985714D01*
X216127142Y-97033333D01*
X216174761Y-97080952D01*
X216222380Y-97176190D01*
X216222380Y-97271428D01*
X216174761Y-97366666D01*
X216127142Y-97414285D01*
X216031904Y-97461904D01*
X215841428Y-97509523D01*
X215603333Y-97509523D01*
X215412857Y-97461904D01*
X215317619Y-97414285D01*
X215270000Y-97366666D01*
X215222380Y-97271428D01*
X212222380Y-98842857D02*
X211746190Y-99176190D01*
X212222380Y-99414285D02*
X211222380Y-99414285D01*
X211222380Y-99033333D01*
X211270000Y-98938095D01*
X211317619Y-98890476D01*
X211412857Y-98842857D01*
X211555714Y-98842857D01*
X211650952Y-98890476D01*
X211698571Y-98938095D01*
X211746190Y-99033333D01*
X211746190Y-99414285D01*
X211317619Y-98461904D02*
X211270000Y-98414285D01*
X211222380Y-98319047D01*
X211222380Y-98080952D01*
X211270000Y-97985714D01*
X211317619Y-97938095D01*
X211412857Y-97890476D01*
X211508095Y-97890476D01*
X211650952Y-97938095D01*
X212222380Y-98509523D01*
X212222380Y-97890476D01*
X212222380Y-97414285D02*
X212222380Y-97223809D01*
X212174761Y-97128571D01*
X212127142Y-97080952D01*
X211984285Y-96985714D01*
X211793809Y-96938095D01*
X211412857Y-96938095D01*
X211317619Y-96985714D01*
X211270000Y-97033333D01*
X211222380Y-97128571D01*
X211222380Y-97319047D01*
X211270000Y-97414285D01*
X211317619Y-97461904D01*
X211412857Y-97509523D01*
X211650952Y-97509523D01*
X211746190Y-97461904D01*
X211793809Y-97414285D01*
X211841428Y-97319047D01*
X211841428Y-97128571D01*
X211793809Y-97033333D01*
X211746190Y-96985714D01*
X211650952Y-96938095D01*
X208222380Y-98842857D02*
X207746190Y-99176190D01*
X208222380Y-99414285D02*
X207222380Y-99414285D01*
X207222380Y-99033333D01*
X207270000Y-98938095D01*
X207317619Y-98890476D01*
X207412857Y-98842857D01*
X207555714Y-98842857D01*
X207650952Y-98890476D01*
X207698571Y-98938095D01*
X207746190Y-99033333D01*
X207746190Y-99414285D01*
X207317619Y-98461904D02*
X207270000Y-98414285D01*
X207222380Y-98319047D01*
X207222380Y-98080952D01*
X207270000Y-97985714D01*
X207317619Y-97938095D01*
X207412857Y-97890476D01*
X207508095Y-97890476D01*
X207650952Y-97938095D01*
X208222380Y-98509523D01*
X208222380Y-97890476D01*
X207650952Y-97319047D02*
X207603333Y-97414285D01*
X207555714Y-97461904D01*
X207460476Y-97509523D01*
X207412857Y-97509523D01*
X207317619Y-97461904D01*
X207270000Y-97414285D01*
X207222380Y-97319047D01*
X207222380Y-97128571D01*
X207270000Y-97033333D01*
X207317619Y-96985714D01*
X207412857Y-96938095D01*
X207460476Y-96938095D01*
X207555714Y-96985714D01*
X207603333Y-97033333D01*
X207650952Y-97128571D01*
X207650952Y-97319047D01*
X207698571Y-97414285D01*
X207746190Y-97461904D01*
X207841428Y-97509523D01*
X208031904Y-97509523D01*
X208127142Y-97461904D01*
X208174761Y-97414285D01*
X208222380Y-97319047D01*
X208222380Y-97128571D01*
X208174761Y-97033333D01*
X208127142Y-96985714D01*
X208031904Y-96938095D01*
X207841428Y-96938095D01*
X207746190Y-96985714D01*
X207698571Y-97033333D01*
X207650952Y-97128571D01*
X204222380Y-98842857D02*
X203746190Y-99176190D01*
X204222380Y-99414285D02*
X203222380Y-99414285D01*
X203222380Y-99033333D01*
X203270000Y-98938095D01*
X203317619Y-98890476D01*
X203412857Y-98842857D01*
X203555714Y-98842857D01*
X203650952Y-98890476D01*
X203698571Y-98938095D01*
X203746190Y-99033333D01*
X203746190Y-99414285D01*
X203317619Y-98461904D02*
X203270000Y-98414285D01*
X203222380Y-98319047D01*
X203222380Y-98080952D01*
X203270000Y-97985714D01*
X203317619Y-97938095D01*
X203412857Y-97890476D01*
X203508095Y-97890476D01*
X203650952Y-97938095D01*
X204222380Y-98509523D01*
X204222380Y-97890476D01*
X203222380Y-97557142D02*
X203222380Y-96890476D01*
X204222380Y-97319047D01*
X200222380Y-98942857D02*
X199746190Y-99276190D01*
X200222380Y-99514285D02*
X199222380Y-99514285D01*
X199222380Y-99133333D01*
X199270000Y-99038095D01*
X199317619Y-98990476D01*
X199412857Y-98942857D01*
X199555714Y-98942857D01*
X199650952Y-98990476D01*
X199698571Y-99038095D01*
X199746190Y-99133333D01*
X199746190Y-99514285D01*
X199317619Y-98561904D02*
X199270000Y-98514285D01*
X199222380Y-98419047D01*
X199222380Y-98180952D01*
X199270000Y-98085714D01*
X199317619Y-98038095D01*
X199412857Y-97990476D01*
X199508095Y-97990476D01*
X199650952Y-98038095D01*
X200222380Y-98609523D01*
X200222380Y-97990476D01*
X199222380Y-97133333D02*
X199222380Y-97323809D01*
X199270000Y-97419047D01*
X199317619Y-97466666D01*
X199460476Y-97561904D01*
X199650952Y-97609523D01*
X200031904Y-97609523D01*
X200127142Y-97561904D01*
X200174761Y-97514285D01*
X200222380Y-97419047D01*
X200222380Y-97228571D01*
X200174761Y-97133333D01*
X200127142Y-97085714D01*
X200031904Y-97038095D01*
X199793809Y-97038095D01*
X199698571Y-97085714D01*
X199650952Y-97133333D01*
X199603333Y-97228571D01*
X199603333Y-97419047D01*
X199650952Y-97514285D01*
X199698571Y-97561904D01*
X199793809Y-97609523D01*
X196222380Y-98842857D02*
X195746190Y-99176190D01*
X196222380Y-99414285D02*
X195222380Y-99414285D01*
X195222380Y-99033333D01*
X195270000Y-98938095D01*
X195317619Y-98890476D01*
X195412857Y-98842857D01*
X195555714Y-98842857D01*
X195650952Y-98890476D01*
X195698571Y-98938095D01*
X195746190Y-99033333D01*
X195746190Y-99414285D01*
X195317619Y-98461904D02*
X195270000Y-98414285D01*
X195222380Y-98319047D01*
X195222380Y-98080952D01*
X195270000Y-97985714D01*
X195317619Y-97938095D01*
X195412857Y-97890476D01*
X195508095Y-97890476D01*
X195650952Y-97938095D01*
X196222380Y-98509523D01*
X196222380Y-97890476D01*
X195222380Y-96985714D02*
X195222380Y-97461904D01*
X195698571Y-97509523D01*
X195650952Y-97461904D01*
X195603333Y-97366666D01*
X195603333Y-97128571D01*
X195650952Y-97033333D01*
X195698571Y-96985714D01*
X195793809Y-96938095D01*
X196031904Y-96938095D01*
X196127142Y-96985714D01*
X196174761Y-97033333D01*
X196222380Y-97128571D01*
X196222380Y-97366666D01*
X196174761Y-97461904D01*
X196127142Y-97509523D01*
X192222380Y-98842857D02*
X191746190Y-99176190D01*
X192222380Y-99414285D02*
X191222380Y-99414285D01*
X191222380Y-99033333D01*
X191270000Y-98938095D01*
X191317619Y-98890476D01*
X191412857Y-98842857D01*
X191555714Y-98842857D01*
X191650952Y-98890476D01*
X191698571Y-98938095D01*
X191746190Y-99033333D01*
X191746190Y-99414285D01*
X191317619Y-98461904D02*
X191270000Y-98414285D01*
X191222380Y-98319047D01*
X191222380Y-98080952D01*
X191270000Y-97985714D01*
X191317619Y-97938095D01*
X191412857Y-97890476D01*
X191508095Y-97890476D01*
X191650952Y-97938095D01*
X192222380Y-98509523D01*
X192222380Y-97890476D01*
X191555714Y-97033333D02*
X192222380Y-97033333D01*
X191174761Y-97271428D02*
X191889047Y-97509523D01*
X191889047Y-96890476D01*
X188222380Y-98842857D02*
X187746190Y-99176190D01*
X188222380Y-99414285D02*
X187222380Y-99414285D01*
X187222380Y-99033333D01*
X187270000Y-98938095D01*
X187317619Y-98890476D01*
X187412857Y-98842857D01*
X187555714Y-98842857D01*
X187650952Y-98890476D01*
X187698571Y-98938095D01*
X187746190Y-99033333D01*
X187746190Y-99414285D01*
X187317619Y-98461904D02*
X187270000Y-98414285D01*
X187222380Y-98319047D01*
X187222380Y-98080952D01*
X187270000Y-97985714D01*
X187317619Y-97938095D01*
X187412857Y-97890476D01*
X187508095Y-97890476D01*
X187650952Y-97938095D01*
X188222380Y-98509523D01*
X188222380Y-97890476D01*
X187222380Y-97557142D02*
X187222380Y-96938095D01*
X187603333Y-97271428D01*
X187603333Y-97128571D01*
X187650952Y-97033333D01*
X187698571Y-96985714D01*
X187793809Y-96938095D01*
X188031904Y-96938095D01*
X188127142Y-96985714D01*
X188174761Y-97033333D01*
X188222380Y-97128571D01*
X188222380Y-97414285D01*
X188174761Y-97509523D01*
X188127142Y-97557142D01*
X141957142Y-97452380D02*
X141623809Y-96976190D01*
X141385714Y-97452380D02*
X141385714Y-96452380D01*
X141766666Y-96452380D01*
X141861904Y-96500000D01*
X141909523Y-96547619D01*
X141957142Y-96642857D01*
X141957142Y-96785714D01*
X141909523Y-96880952D01*
X141861904Y-96928571D01*
X141766666Y-96976190D01*
X141385714Y-96976190D01*
X142338095Y-96547619D02*
X142385714Y-96500000D01*
X142480952Y-96452380D01*
X142719047Y-96452380D01*
X142814285Y-96500000D01*
X142861904Y-96547619D01*
X142909523Y-96642857D01*
X142909523Y-96738095D01*
X142861904Y-96880952D01*
X142290476Y-97452380D01*
X142909523Y-97452380D01*
X143290476Y-96547619D02*
X143338095Y-96500000D01*
X143433333Y-96452380D01*
X143671428Y-96452380D01*
X143766666Y-96500000D01*
X143814285Y-96547619D01*
X143861904Y-96642857D01*
X143861904Y-96738095D01*
X143814285Y-96880952D01*
X143242857Y-97452380D01*
X143861904Y-97452380D01*
X126257142Y-97452380D02*
X125923809Y-96976190D01*
X125685714Y-97452380D02*
X125685714Y-96452380D01*
X126066666Y-96452380D01*
X126161904Y-96500000D01*
X126209523Y-96547619D01*
X126257142Y-96642857D01*
X126257142Y-96785714D01*
X126209523Y-96880952D01*
X126161904Y-96928571D01*
X126066666Y-96976190D01*
X125685714Y-96976190D01*
X126638095Y-96547619D02*
X126685714Y-96500000D01*
X126780952Y-96452380D01*
X127019047Y-96452380D01*
X127114285Y-96500000D01*
X127161904Y-96547619D01*
X127209523Y-96642857D01*
X127209523Y-96738095D01*
X127161904Y-96880952D01*
X126590476Y-97452380D01*
X127209523Y-97452380D01*
X128161904Y-97452380D02*
X127590476Y-97452380D01*
X127876190Y-97452380D02*
X127876190Y-96452380D01*
X127780952Y-96595238D01*
X127685714Y-96690476D01*
X127590476Y-96738095D01*
X259657142Y-144252380D02*
X259323809Y-143776190D01*
X259085714Y-144252380D02*
X259085714Y-143252380D01*
X259466666Y-143252380D01*
X259561904Y-143300000D01*
X259609523Y-143347619D01*
X259657142Y-143442857D01*
X259657142Y-143585714D01*
X259609523Y-143680952D01*
X259561904Y-143728571D01*
X259466666Y-143776190D01*
X259085714Y-143776190D01*
X260609523Y-144252380D02*
X260038095Y-144252380D01*
X260323809Y-144252380D02*
X260323809Y-143252380D01*
X260228571Y-143395238D01*
X260133333Y-143490476D01*
X260038095Y-143538095D01*
X261180952Y-143680952D02*
X261085714Y-143633333D01*
X261038095Y-143585714D01*
X260990476Y-143490476D01*
X260990476Y-143442857D01*
X261038095Y-143347619D01*
X261085714Y-143300000D01*
X261180952Y-143252380D01*
X261371428Y-143252380D01*
X261466666Y-143300000D01*
X261514285Y-143347619D01*
X261561904Y-143442857D01*
X261561904Y-143490476D01*
X261514285Y-143585714D01*
X261466666Y-143633333D01*
X261371428Y-143680952D01*
X261180952Y-143680952D01*
X261085714Y-143728571D01*
X261038095Y-143776190D01*
X260990476Y-143871428D01*
X260990476Y-144061904D01*
X261038095Y-144157142D01*
X261085714Y-144204761D01*
X261180952Y-144252380D01*
X261371428Y-144252380D01*
X261466666Y-144204761D01*
X261514285Y-144157142D01*
X261561904Y-144061904D01*
X261561904Y-143871428D01*
X261514285Y-143776190D01*
X261466666Y-143728571D01*
X261371428Y-143680952D01*
X256457142Y-144252380D02*
X256123809Y-143776190D01*
X255885714Y-144252380D02*
X255885714Y-143252380D01*
X256266666Y-143252380D01*
X256361904Y-143300000D01*
X256409523Y-143347619D01*
X256457142Y-143442857D01*
X256457142Y-143585714D01*
X256409523Y-143680952D01*
X256361904Y-143728571D01*
X256266666Y-143776190D01*
X255885714Y-143776190D01*
X257409523Y-144252380D02*
X256838095Y-144252380D01*
X257123809Y-144252380D02*
X257123809Y-143252380D01*
X257028571Y-143395238D01*
X256933333Y-143490476D01*
X256838095Y-143538095D01*
X257742857Y-143252380D02*
X258409523Y-143252380D01*
X257980952Y-144252380D01*
X274757142Y-144152380D02*
X274423809Y-143676190D01*
X274185714Y-144152380D02*
X274185714Y-143152380D01*
X274566666Y-143152380D01*
X274661904Y-143200000D01*
X274709523Y-143247619D01*
X274757142Y-143342857D01*
X274757142Y-143485714D01*
X274709523Y-143580952D01*
X274661904Y-143628571D01*
X274566666Y-143676190D01*
X274185714Y-143676190D01*
X275709523Y-144152380D02*
X275138095Y-144152380D01*
X275423809Y-144152380D02*
X275423809Y-143152380D01*
X275328571Y-143295238D01*
X275233333Y-143390476D01*
X275138095Y-143438095D01*
X276566666Y-143152380D02*
X276376190Y-143152380D01*
X276280952Y-143200000D01*
X276233333Y-143247619D01*
X276138095Y-143390476D01*
X276090476Y-143580952D01*
X276090476Y-143961904D01*
X276138095Y-144057142D01*
X276185714Y-144104761D01*
X276280952Y-144152380D01*
X276471428Y-144152380D01*
X276566666Y-144104761D01*
X276614285Y-144057142D01*
X276661904Y-143961904D01*
X276661904Y-143723809D01*
X276614285Y-143628571D01*
X276566666Y-143580952D01*
X276471428Y-143533333D01*
X276280952Y-143533333D01*
X276185714Y-143580952D01*
X276138095Y-143628571D01*
X276090476Y-143723809D01*
X271457142Y-144152380D02*
X271123809Y-143676190D01*
X270885714Y-144152380D02*
X270885714Y-143152380D01*
X271266666Y-143152380D01*
X271361904Y-143200000D01*
X271409523Y-143247619D01*
X271457142Y-143342857D01*
X271457142Y-143485714D01*
X271409523Y-143580952D01*
X271361904Y-143628571D01*
X271266666Y-143676190D01*
X270885714Y-143676190D01*
X272409523Y-144152380D02*
X271838095Y-144152380D01*
X272123809Y-144152380D02*
X272123809Y-143152380D01*
X272028571Y-143295238D01*
X271933333Y-143390476D01*
X271838095Y-143438095D01*
X273314285Y-143152380D02*
X272838095Y-143152380D01*
X272790476Y-143628571D01*
X272838095Y-143580952D01*
X272933333Y-143533333D01*
X273171428Y-143533333D01*
X273266666Y-143580952D01*
X273314285Y-143628571D01*
X273361904Y-143723809D01*
X273361904Y-143961904D01*
X273314285Y-144057142D01*
X273266666Y-144104761D01*
X273171428Y-144152380D01*
X272933333Y-144152380D01*
X272838095Y-144104761D01*
X272790476Y-144057142D01*
X57957142Y-65552380D02*
X57623809Y-65076190D01*
X57385714Y-65552380D02*
X57385714Y-64552380D01*
X57766666Y-64552380D01*
X57861904Y-64600000D01*
X57909523Y-64647619D01*
X57957142Y-64742857D01*
X57957142Y-64885714D01*
X57909523Y-64980952D01*
X57861904Y-65028571D01*
X57766666Y-65076190D01*
X57385714Y-65076190D01*
X58909523Y-65552380D02*
X58338095Y-65552380D01*
X58623809Y-65552380D02*
X58623809Y-64552380D01*
X58528571Y-64695238D01*
X58433333Y-64790476D01*
X58338095Y-64838095D01*
X59290476Y-64647619D02*
X59338095Y-64600000D01*
X59433333Y-64552380D01*
X59671428Y-64552380D01*
X59766666Y-64600000D01*
X59814285Y-64647619D01*
X59861904Y-64742857D01*
X59861904Y-64838095D01*
X59814285Y-64980952D01*
X59242857Y-65552380D01*
X59861904Y-65552380D01*
X54844642Y-65452380D02*
X54511309Y-64976190D01*
X54273214Y-65452380D02*
X54273214Y-64452380D01*
X54654166Y-64452380D01*
X54749404Y-64500000D01*
X54797023Y-64547619D01*
X54844642Y-64642857D01*
X54844642Y-64785714D01*
X54797023Y-64880952D01*
X54749404Y-64928571D01*
X54654166Y-64976190D01*
X54273214Y-64976190D01*
X55797023Y-65452380D02*
X55225595Y-65452380D01*
X55511309Y-65452380D02*
X55511309Y-64452380D01*
X55416071Y-64595238D01*
X55320833Y-64690476D01*
X55225595Y-64738095D01*
X56749404Y-65452380D02*
X56177976Y-65452380D01*
X56463690Y-65452380D02*
X56463690Y-64452380D01*
X56368452Y-64595238D01*
X56273214Y-64690476D01*
X56177976Y-64738095D01*
X70344642Y-65552380D02*
X70011309Y-65076190D01*
X69773214Y-65552380D02*
X69773214Y-64552380D01*
X70154166Y-64552380D01*
X70249404Y-64600000D01*
X70297023Y-64647619D01*
X70344642Y-64742857D01*
X70344642Y-64885714D01*
X70297023Y-64980952D01*
X70249404Y-65028571D01*
X70154166Y-65076190D01*
X69773214Y-65076190D01*
X71297023Y-65552380D02*
X70725595Y-65552380D01*
X71011309Y-65552380D02*
X71011309Y-64552380D01*
X70916071Y-64695238D01*
X70820833Y-64790476D01*
X70725595Y-64838095D01*
X71916071Y-64552380D02*
X72011309Y-64552380D01*
X72106547Y-64600000D01*
X72154166Y-64647619D01*
X72201785Y-64742857D01*
X72249404Y-64933333D01*
X72249404Y-65171428D01*
X72201785Y-65361904D01*
X72154166Y-65457142D01*
X72106547Y-65504761D01*
X72011309Y-65552380D01*
X71916071Y-65552380D01*
X71820833Y-65504761D01*
X71773214Y-65457142D01*
X71725595Y-65361904D01*
X71677976Y-65171428D01*
X71677976Y-64933333D01*
X71725595Y-64742857D01*
X71773214Y-64647619D01*
X71820833Y-64600000D01*
X71916071Y-64552380D01*
X67533333Y-65452380D02*
X67200000Y-64976190D01*
X66961904Y-65452380D02*
X66961904Y-64452380D01*
X67342857Y-64452380D01*
X67438095Y-64500000D01*
X67485714Y-64547619D01*
X67533333Y-64642857D01*
X67533333Y-64785714D01*
X67485714Y-64880952D01*
X67438095Y-64928571D01*
X67342857Y-64976190D01*
X66961904Y-64976190D01*
X68009523Y-65452380D02*
X68200000Y-65452380D01*
X68295238Y-65404761D01*
X68342857Y-65357142D01*
X68438095Y-65214285D01*
X68485714Y-65023809D01*
X68485714Y-64642857D01*
X68438095Y-64547619D01*
X68390476Y-64500000D01*
X68295238Y-64452380D01*
X68104761Y-64452380D01*
X68009523Y-64500000D01*
X67961904Y-64547619D01*
X67914285Y-64642857D01*
X67914285Y-64880952D01*
X67961904Y-64976190D01*
X68009523Y-65023809D01*
X68104761Y-65071428D01*
X68295238Y-65071428D01*
X68390476Y-65023809D01*
X68438095Y-64976190D01*
X68485714Y-64880952D01*
X68633333Y-120552380D02*
X68300000Y-120076190D01*
X68061904Y-120552380D02*
X68061904Y-119552380D01*
X68442857Y-119552380D01*
X68538095Y-119600000D01*
X68585714Y-119647619D01*
X68633333Y-119742857D01*
X68633333Y-119885714D01*
X68585714Y-119980952D01*
X68538095Y-120028571D01*
X68442857Y-120076190D01*
X68061904Y-120076190D01*
X68966666Y-119552380D02*
X69585714Y-119552380D01*
X69252380Y-119933333D01*
X69395238Y-119933333D01*
X69490476Y-119980952D01*
X69538095Y-120028571D01*
X69585714Y-120123809D01*
X69585714Y-120361904D01*
X69538095Y-120457142D01*
X69490476Y-120504761D01*
X69395238Y-120552380D01*
X69109523Y-120552380D01*
X69014285Y-120504761D01*
X68966666Y-120457142D01*
X88533333Y-78339880D02*
X88200000Y-77863690D01*
X87961904Y-78339880D02*
X87961904Y-77339880D01*
X88342857Y-77339880D01*
X88438095Y-77387500D01*
X88485714Y-77435119D01*
X88533333Y-77530357D01*
X88533333Y-77673214D01*
X88485714Y-77768452D01*
X88438095Y-77816071D01*
X88342857Y-77863690D01*
X87961904Y-77863690D01*
X88914285Y-77435119D02*
X88961904Y-77387500D01*
X89057142Y-77339880D01*
X89295238Y-77339880D01*
X89390476Y-77387500D01*
X89438095Y-77435119D01*
X89485714Y-77530357D01*
X89485714Y-77625595D01*
X89438095Y-77768452D01*
X88866666Y-78339880D01*
X89485714Y-78339880D01*
X140785714Y-48452380D02*
X140785714Y-47452380D01*
X141023809Y-47452380D01*
X141166666Y-47500000D01*
X141261904Y-47595238D01*
X141309523Y-47690476D01*
X141357142Y-47880952D01*
X141357142Y-48023809D01*
X141309523Y-48214285D01*
X141261904Y-48309523D01*
X141166666Y-48404761D01*
X141023809Y-48452380D01*
X140785714Y-48452380D01*
X141738095Y-47547619D02*
X141785714Y-47500000D01*
X141880952Y-47452380D01*
X142119047Y-47452380D01*
X142214285Y-47500000D01*
X142261904Y-47547619D01*
X142309523Y-47642857D01*
X142309523Y-47738095D01*
X142261904Y-47880952D01*
X141690476Y-48452380D01*
X142309523Y-48452380D01*
X143166666Y-47785714D02*
X143166666Y-48452380D01*
X142928571Y-47404761D02*
X142690476Y-48119047D01*
X143309523Y-48119047D01*
X224585714Y-123822380D02*
X224585714Y-122822380D01*
X224823809Y-122822380D01*
X224966666Y-122870000D01*
X225061904Y-122965238D01*
X225109523Y-123060476D01*
X225157142Y-123250952D01*
X225157142Y-123393809D01*
X225109523Y-123584285D01*
X225061904Y-123679523D01*
X224966666Y-123774761D01*
X224823809Y-123822380D01*
X224585714Y-123822380D01*
X225538095Y-122917619D02*
X225585714Y-122870000D01*
X225680952Y-122822380D01*
X225919047Y-122822380D01*
X226014285Y-122870000D01*
X226061904Y-122917619D01*
X226109523Y-123012857D01*
X226109523Y-123108095D01*
X226061904Y-123250952D01*
X225490476Y-123822380D01*
X226109523Y-123822380D01*
X226442857Y-122822380D02*
X227061904Y-122822380D01*
X226728571Y-123203333D01*
X226871428Y-123203333D01*
X226966666Y-123250952D01*
X227014285Y-123298571D01*
X227061904Y-123393809D01*
X227061904Y-123631904D01*
X227014285Y-123727142D01*
X226966666Y-123774761D01*
X226871428Y-123822380D01*
X226585714Y-123822380D01*
X226490476Y-123774761D01*
X226442857Y-123727142D01*
X224565714Y-120422380D02*
X224565714Y-119422380D01*
X224803809Y-119422380D01*
X224946666Y-119470000D01*
X225041904Y-119565238D01*
X225089523Y-119660476D01*
X225137142Y-119850952D01*
X225137142Y-119993809D01*
X225089523Y-120184285D01*
X225041904Y-120279523D01*
X224946666Y-120374761D01*
X224803809Y-120422380D01*
X224565714Y-120422380D01*
X225518095Y-119517619D02*
X225565714Y-119470000D01*
X225660952Y-119422380D01*
X225899047Y-119422380D01*
X225994285Y-119470000D01*
X226041904Y-119517619D01*
X226089523Y-119612857D01*
X226089523Y-119708095D01*
X226041904Y-119850952D01*
X225470476Y-120422380D01*
X226089523Y-120422380D01*
X226470476Y-119517619D02*
X226518095Y-119470000D01*
X226613333Y-119422380D01*
X226851428Y-119422380D01*
X226946666Y-119470000D01*
X226994285Y-119517619D01*
X227041904Y-119612857D01*
X227041904Y-119708095D01*
X226994285Y-119850952D01*
X226422857Y-120422380D01*
X227041904Y-120422380D01*
X141385714Y-106752380D02*
X141385714Y-105752380D01*
X141623809Y-105752380D01*
X141766666Y-105800000D01*
X141861904Y-105895238D01*
X141909523Y-105990476D01*
X141957142Y-106180952D01*
X141957142Y-106323809D01*
X141909523Y-106514285D01*
X141861904Y-106609523D01*
X141766666Y-106704761D01*
X141623809Y-106752380D01*
X141385714Y-106752380D01*
X142338095Y-105847619D02*
X142385714Y-105800000D01*
X142480952Y-105752380D01*
X142719047Y-105752380D01*
X142814285Y-105800000D01*
X142861904Y-105847619D01*
X142909523Y-105942857D01*
X142909523Y-106038095D01*
X142861904Y-106180952D01*
X142290476Y-106752380D01*
X142909523Y-106752380D01*
X143861904Y-106752380D02*
X143290476Y-106752380D01*
X143576190Y-106752380D02*
X143576190Y-105752380D01*
X143480952Y-105895238D01*
X143385714Y-105990476D01*
X143290476Y-106038095D01*
X126085714Y-106652380D02*
X126085714Y-105652380D01*
X126323809Y-105652380D01*
X126466666Y-105700000D01*
X126561904Y-105795238D01*
X126609523Y-105890476D01*
X126657142Y-106080952D01*
X126657142Y-106223809D01*
X126609523Y-106414285D01*
X126561904Y-106509523D01*
X126466666Y-106604761D01*
X126323809Y-106652380D01*
X126085714Y-106652380D01*
X127038095Y-105747619D02*
X127085714Y-105700000D01*
X127180952Y-105652380D01*
X127419047Y-105652380D01*
X127514285Y-105700000D01*
X127561904Y-105747619D01*
X127609523Y-105842857D01*
X127609523Y-105938095D01*
X127561904Y-106080952D01*
X126990476Y-106652380D01*
X127609523Y-106652380D01*
X128228571Y-105652380D02*
X128323809Y-105652380D01*
X128419047Y-105700000D01*
X128466666Y-105747619D01*
X128514285Y-105842857D01*
X128561904Y-106033333D01*
X128561904Y-106271428D01*
X128514285Y-106461904D01*
X128466666Y-106557142D01*
X128419047Y-106604761D01*
X128323809Y-106652380D01*
X128228571Y-106652380D01*
X128133333Y-106604761D01*
X128085714Y-106557142D01*
X128038095Y-106461904D01*
X127990476Y-106271428D01*
X127990476Y-106033333D01*
X128038095Y-105842857D01*
X128085714Y-105747619D01*
X128133333Y-105700000D01*
X128228571Y-105652380D01*
X183985714Y-108482380D02*
X183985714Y-107482380D01*
X184223809Y-107482380D01*
X184366666Y-107530000D01*
X184461904Y-107625238D01*
X184509523Y-107720476D01*
X184557142Y-107910952D01*
X184557142Y-108053809D01*
X184509523Y-108244285D01*
X184461904Y-108339523D01*
X184366666Y-108434761D01*
X184223809Y-108482380D01*
X183985714Y-108482380D01*
X185509523Y-108482380D02*
X184938095Y-108482380D01*
X185223809Y-108482380D02*
X185223809Y-107482380D01*
X185128571Y-107625238D01*
X185033333Y-107720476D01*
X184938095Y-107768095D01*
X185985714Y-108482380D02*
X186176190Y-108482380D01*
X186271428Y-108434761D01*
X186319047Y-108387142D01*
X186414285Y-108244285D01*
X186461904Y-108053809D01*
X186461904Y-107672857D01*
X186414285Y-107577619D01*
X186366666Y-107530000D01*
X186271428Y-107482380D01*
X186080952Y-107482380D01*
X185985714Y-107530000D01*
X185938095Y-107577619D01*
X185890476Y-107672857D01*
X185890476Y-107910952D01*
X185938095Y-108006190D01*
X185985714Y-108053809D01*
X186080952Y-108101428D01*
X186271428Y-108101428D01*
X186366666Y-108053809D01*
X186414285Y-108006190D01*
X186461904Y-107910952D01*
X220222380Y-103814285D02*
X219222380Y-103814285D01*
X219222380Y-103576190D01*
X219270000Y-103433333D01*
X219365238Y-103338095D01*
X219460476Y-103290476D01*
X219650952Y-103242857D01*
X219793809Y-103242857D01*
X219984285Y-103290476D01*
X220079523Y-103338095D01*
X220174761Y-103433333D01*
X220222380Y-103576190D01*
X220222380Y-103814285D01*
X220222380Y-102290476D02*
X220222380Y-102861904D01*
X220222380Y-102576190D02*
X219222380Y-102576190D01*
X219365238Y-102671428D01*
X219460476Y-102766666D01*
X219508095Y-102861904D01*
X219650952Y-101719047D02*
X219603333Y-101814285D01*
X219555714Y-101861904D01*
X219460476Y-101909523D01*
X219412857Y-101909523D01*
X219317619Y-101861904D01*
X219270000Y-101814285D01*
X219222380Y-101719047D01*
X219222380Y-101528571D01*
X219270000Y-101433333D01*
X219317619Y-101385714D01*
X219412857Y-101338095D01*
X219460476Y-101338095D01*
X219555714Y-101385714D01*
X219603333Y-101433333D01*
X219650952Y-101528571D01*
X219650952Y-101719047D01*
X219698571Y-101814285D01*
X219746190Y-101861904D01*
X219841428Y-101909523D01*
X220031904Y-101909523D01*
X220127142Y-101861904D01*
X220174761Y-101814285D01*
X220222380Y-101719047D01*
X220222380Y-101528571D01*
X220174761Y-101433333D01*
X220127142Y-101385714D01*
X220031904Y-101338095D01*
X219841428Y-101338095D01*
X219746190Y-101385714D01*
X219698571Y-101433333D01*
X219650952Y-101528571D01*
X183985714Y-112482380D02*
X183985714Y-111482380D01*
X184223809Y-111482380D01*
X184366666Y-111530000D01*
X184461904Y-111625238D01*
X184509523Y-111720476D01*
X184557142Y-111910952D01*
X184557142Y-112053809D01*
X184509523Y-112244285D01*
X184461904Y-112339523D01*
X184366666Y-112434761D01*
X184223809Y-112482380D01*
X183985714Y-112482380D01*
X185509523Y-112482380D02*
X184938095Y-112482380D01*
X185223809Y-112482380D02*
X185223809Y-111482380D01*
X185128571Y-111625238D01*
X185033333Y-111720476D01*
X184938095Y-111768095D01*
X185842857Y-111482380D02*
X186509523Y-111482380D01*
X186080952Y-112482380D01*
X216222380Y-103814285D02*
X215222380Y-103814285D01*
X215222380Y-103576190D01*
X215270000Y-103433333D01*
X215365238Y-103338095D01*
X215460476Y-103290476D01*
X215650952Y-103242857D01*
X215793809Y-103242857D01*
X215984285Y-103290476D01*
X216079523Y-103338095D01*
X216174761Y-103433333D01*
X216222380Y-103576190D01*
X216222380Y-103814285D01*
X216222380Y-102290476D02*
X216222380Y-102861904D01*
X216222380Y-102576190D02*
X215222380Y-102576190D01*
X215365238Y-102671428D01*
X215460476Y-102766666D01*
X215508095Y-102861904D01*
X215222380Y-101433333D02*
X215222380Y-101623809D01*
X215270000Y-101719047D01*
X215317619Y-101766666D01*
X215460476Y-101861904D01*
X215650952Y-101909523D01*
X216031904Y-101909523D01*
X216127142Y-101861904D01*
X216174761Y-101814285D01*
X216222380Y-101719047D01*
X216222380Y-101528571D01*
X216174761Y-101433333D01*
X216127142Y-101385714D01*
X216031904Y-101338095D01*
X215793809Y-101338095D01*
X215698571Y-101385714D01*
X215650952Y-101433333D01*
X215603333Y-101528571D01*
X215603333Y-101719047D01*
X215650952Y-101814285D01*
X215698571Y-101861904D01*
X215793809Y-101909523D01*
X183985714Y-116482380D02*
X183985714Y-115482380D01*
X184223809Y-115482380D01*
X184366666Y-115530000D01*
X184461904Y-115625238D01*
X184509523Y-115720476D01*
X184557142Y-115910952D01*
X184557142Y-116053809D01*
X184509523Y-116244285D01*
X184461904Y-116339523D01*
X184366666Y-116434761D01*
X184223809Y-116482380D01*
X183985714Y-116482380D01*
X185509523Y-116482380D02*
X184938095Y-116482380D01*
X185223809Y-116482380D02*
X185223809Y-115482380D01*
X185128571Y-115625238D01*
X185033333Y-115720476D01*
X184938095Y-115768095D01*
X186414285Y-115482380D02*
X185938095Y-115482380D01*
X185890476Y-115958571D01*
X185938095Y-115910952D01*
X186033333Y-115863333D01*
X186271428Y-115863333D01*
X186366666Y-115910952D01*
X186414285Y-115958571D01*
X186461904Y-116053809D01*
X186461904Y-116291904D01*
X186414285Y-116387142D01*
X186366666Y-116434761D01*
X186271428Y-116482380D01*
X186033333Y-116482380D01*
X185938095Y-116434761D01*
X185890476Y-116387142D01*
X212222380Y-103814285D02*
X211222380Y-103814285D01*
X211222380Y-103576190D01*
X211270000Y-103433333D01*
X211365238Y-103338095D01*
X211460476Y-103290476D01*
X211650952Y-103242857D01*
X211793809Y-103242857D01*
X211984285Y-103290476D01*
X212079523Y-103338095D01*
X212174761Y-103433333D01*
X212222380Y-103576190D01*
X212222380Y-103814285D01*
X212222380Y-102290476D02*
X212222380Y-102861904D01*
X212222380Y-102576190D02*
X211222380Y-102576190D01*
X211365238Y-102671428D01*
X211460476Y-102766666D01*
X211508095Y-102861904D01*
X211555714Y-101433333D02*
X212222380Y-101433333D01*
X211174761Y-101671428D02*
X211889047Y-101909523D01*
X211889047Y-101290476D01*
X183985714Y-120482380D02*
X183985714Y-119482380D01*
X184223809Y-119482380D01*
X184366666Y-119530000D01*
X184461904Y-119625238D01*
X184509523Y-119720476D01*
X184557142Y-119910952D01*
X184557142Y-120053809D01*
X184509523Y-120244285D01*
X184461904Y-120339523D01*
X184366666Y-120434761D01*
X184223809Y-120482380D01*
X183985714Y-120482380D01*
X185509523Y-120482380D02*
X184938095Y-120482380D01*
X185223809Y-120482380D02*
X185223809Y-119482380D01*
X185128571Y-119625238D01*
X185033333Y-119720476D01*
X184938095Y-119768095D01*
X185842857Y-119482380D02*
X186461904Y-119482380D01*
X186128571Y-119863333D01*
X186271428Y-119863333D01*
X186366666Y-119910952D01*
X186414285Y-119958571D01*
X186461904Y-120053809D01*
X186461904Y-120291904D01*
X186414285Y-120387142D01*
X186366666Y-120434761D01*
X186271428Y-120482380D01*
X185985714Y-120482380D01*
X185890476Y-120434761D01*
X185842857Y-120387142D01*
X208222380Y-103814285D02*
X207222380Y-103814285D01*
X207222380Y-103576190D01*
X207270000Y-103433333D01*
X207365238Y-103338095D01*
X207460476Y-103290476D01*
X207650952Y-103242857D01*
X207793809Y-103242857D01*
X207984285Y-103290476D01*
X208079523Y-103338095D01*
X208174761Y-103433333D01*
X208222380Y-103576190D01*
X208222380Y-103814285D01*
X208222380Y-102290476D02*
X208222380Y-102861904D01*
X208222380Y-102576190D02*
X207222380Y-102576190D01*
X207365238Y-102671428D01*
X207460476Y-102766666D01*
X207508095Y-102861904D01*
X207317619Y-101909523D02*
X207270000Y-101861904D01*
X207222380Y-101766666D01*
X207222380Y-101528571D01*
X207270000Y-101433333D01*
X207317619Y-101385714D01*
X207412857Y-101338095D01*
X207508095Y-101338095D01*
X207650952Y-101385714D01*
X208222380Y-101957142D01*
X208222380Y-101338095D01*
X183985714Y-124482380D02*
X183985714Y-123482380D01*
X184223809Y-123482380D01*
X184366666Y-123530000D01*
X184461904Y-123625238D01*
X184509523Y-123720476D01*
X184557142Y-123910952D01*
X184557142Y-124053809D01*
X184509523Y-124244285D01*
X184461904Y-124339523D01*
X184366666Y-124434761D01*
X184223809Y-124482380D01*
X183985714Y-124482380D01*
X185509523Y-124482380D02*
X184938095Y-124482380D01*
X185223809Y-124482380D02*
X185223809Y-123482380D01*
X185128571Y-123625238D01*
X185033333Y-123720476D01*
X184938095Y-123768095D01*
X186461904Y-124482380D02*
X185890476Y-124482380D01*
X186176190Y-124482380D02*
X186176190Y-123482380D01*
X186080952Y-123625238D01*
X185985714Y-123720476D01*
X185890476Y-123768095D01*
X204222380Y-103814285D02*
X203222380Y-103814285D01*
X203222380Y-103576190D01*
X203270000Y-103433333D01*
X203365238Y-103338095D01*
X203460476Y-103290476D01*
X203650952Y-103242857D01*
X203793809Y-103242857D01*
X203984285Y-103290476D01*
X204079523Y-103338095D01*
X204174761Y-103433333D01*
X204222380Y-103576190D01*
X204222380Y-103814285D01*
X204222380Y-102290476D02*
X204222380Y-102861904D01*
X204222380Y-102576190D02*
X203222380Y-102576190D01*
X203365238Y-102671428D01*
X203460476Y-102766666D01*
X203508095Y-102861904D01*
X203222380Y-101671428D02*
X203222380Y-101576190D01*
X203270000Y-101480952D01*
X203317619Y-101433333D01*
X203412857Y-101385714D01*
X203603333Y-101338095D01*
X203841428Y-101338095D01*
X204031904Y-101385714D01*
X204127142Y-101433333D01*
X204174761Y-101480952D01*
X204222380Y-101576190D01*
X204222380Y-101671428D01*
X204174761Y-101766666D01*
X204127142Y-101814285D01*
X204031904Y-101861904D01*
X203841428Y-101909523D01*
X203603333Y-101909523D01*
X203412857Y-101861904D01*
X203317619Y-101814285D01*
X203270000Y-101766666D01*
X203222380Y-101671428D01*
X184461904Y-128482380D02*
X184461904Y-127482380D01*
X184700000Y-127482380D01*
X184842857Y-127530000D01*
X184938095Y-127625238D01*
X184985714Y-127720476D01*
X185033333Y-127910952D01*
X185033333Y-128053809D01*
X184985714Y-128244285D01*
X184938095Y-128339523D01*
X184842857Y-128434761D01*
X184700000Y-128482380D01*
X184461904Y-128482380D01*
X185509523Y-128482380D02*
X185700000Y-128482380D01*
X185795238Y-128434761D01*
X185842857Y-128387142D01*
X185938095Y-128244285D01*
X185985714Y-128053809D01*
X185985714Y-127672857D01*
X185938095Y-127577619D01*
X185890476Y-127530000D01*
X185795238Y-127482380D01*
X185604761Y-127482380D01*
X185509523Y-127530000D01*
X185461904Y-127577619D01*
X185414285Y-127672857D01*
X185414285Y-127910952D01*
X185461904Y-128006190D01*
X185509523Y-128053809D01*
X185604761Y-128101428D01*
X185795238Y-128101428D01*
X185890476Y-128053809D01*
X185938095Y-128006190D01*
X185985714Y-127910952D01*
X200222380Y-103338095D02*
X199222380Y-103338095D01*
X199222380Y-103100000D01*
X199270000Y-102957142D01*
X199365238Y-102861904D01*
X199460476Y-102814285D01*
X199650952Y-102766666D01*
X199793809Y-102766666D01*
X199984285Y-102814285D01*
X200079523Y-102861904D01*
X200174761Y-102957142D01*
X200222380Y-103100000D01*
X200222380Y-103338095D01*
X199650952Y-102195238D02*
X199603333Y-102290476D01*
X199555714Y-102338095D01*
X199460476Y-102385714D01*
X199412857Y-102385714D01*
X199317619Y-102338095D01*
X199270000Y-102290476D01*
X199222380Y-102195238D01*
X199222380Y-102004761D01*
X199270000Y-101909523D01*
X199317619Y-101861904D01*
X199412857Y-101814285D01*
X199460476Y-101814285D01*
X199555714Y-101861904D01*
X199603333Y-101909523D01*
X199650952Y-102004761D01*
X199650952Y-102195238D01*
X199698571Y-102290476D01*
X199746190Y-102338095D01*
X199841428Y-102385714D01*
X200031904Y-102385714D01*
X200127142Y-102338095D01*
X200174761Y-102290476D01*
X200222380Y-102195238D01*
X200222380Y-102004761D01*
X200174761Y-101909523D01*
X200127142Y-101861904D01*
X200031904Y-101814285D01*
X199841428Y-101814285D01*
X199746190Y-101861904D01*
X199698571Y-101909523D01*
X199650952Y-102004761D01*
X184461904Y-132482380D02*
X184461904Y-131482380D01*
X184700000Y-131482380D01*
X184842857Y-131530000D01*
X184938095Y-131625238D01*
X184985714Y-131720476D01*
X185033333Y-131910952D01*
X185033333Y-132053809D01*
X184985714Y-132244285D01*
X184938095Y-132339523D01*
X184842857Y-132434761D01*
X184700000Y-132482380D01*
X184461904Y-132482380D01*
X185366666Y-131482380D02*
X186033333Y-131482380D01*
X185604761Y-132482380D01*
X196222380Y-103338095D02*
X195222380Y-103338095D01*
X195222380Y-103100000D01*
X195270000Y-102957142D01*
X195365238Y-102861904D01*
X195460476Y-102814285D01*
X195650952Y-102766666D01*
X195793809Y-102766666D01*
X195984285Y-102814285D01*
X196079523Y-102861904D01*
X196174761Y-102957142D01*
X196222380Y-103100000D01*
X196222380Y-103338095D01*
X195222380Y-101909523D02*
X195222380Y-102100000D01*
X195270000Y-102195238D01*
X195317619Y-102242857D01*
X195460476Y-102338095D01*
X195650952Y-102385714D01*
X196031904Y-102385714D01*
X196127142Y-102338095D01*
X196174761Y-102290476D01*
X196222380Y-102195238D01*
X196222380Y-102004761D01*
X196174761Y-101909523D01*
X196127142Y-101861904D01*
X196031904Y-101814285D01*
X195793809Y-101814285D01*
X195698571Y-101861904D01*
X195650952Y-101909523D01*
X195603333Y-102004761D01*
X195603333Y-102195238D01*
X195650952Y-102290476D01*
X195698571Y-102338095D01*
X195793809Y-102385714D01*
X184461904Y-136482380D02*
X184461904Y-135482380D01*
X184700000Y-135482380D01*
X184842857Y-135530000D01*
X184938095Y-135625238D01*
X184985714Y-135720476D01*
X185033333Y-135910952D01*
X185033333Y-136053809D01*
X184985714Y-136244285D01*
X184938095Y-136339523D01*
X184842857Y-136434761D01*
X184700000Y-136482380D01*
X184461904Y-136482380D01*
X185938095Y-135482380D02*
X185461904Y-135482380D01*
X185414285Y-135958571D01*
X185461904Y-135910952D01*
X185557142Y-135863333D01*
X185795238Y-135863333D01*
X185890476Y-135910952D01*
X185938095Y-135958571D01*
X185985714Y-136053809D01*
X185985714Y-136291904D01*
X185938095Y-136387142D01*
X185890476Y-136434761D01*
X185795238Y-136482380D01*
X185557142Y-136482380D01*
X185461904Y-136434761D01*
X185414285Y-136387142D01*
X192222380Y-103338095D02*
X191222380Y-103338095D01*
X191222380Y-103100000D01*
X191270000Y-102957142D01*
X191365238Y-102861904D01*
X191460476Y-102814285D01*
X191650952Y-102766666D01*
X191793809Y-102766666D01*
X191984285Y-102814285D01*
X192079523Y-102861904D01*
X192174761Y-102957142D01*
X192222380Y-103100000D01*
X192222380Y-103338095D01*
X191555714Y-101909523D02*
X192222380Y-101909523D01*
X191174761Y-102147619D02*
X191889047Y-102385714D01*
X191889047Y-101766666D01*
X184461904Y-140482380D02*
X184461904Y-139482380D01*
X184700000Y-139482380D01*
X184842857Y-139530000D01*
X184938095Y-139625238D01*
X184985714Y-139720476D01*
X185033333Y-139910952D01*
X185033333Y-140053809D01*
X184985714Y-140244285D01*
X184938095Y-140339523D01*
X184842857Y-140434761D01*
X184700000Y-140482380D01*
X184461904Y-140482380D01*
X185366666Y-139482380D02*
X185985714Y-139482380D01*
X185652380Y-139863333D01*
X185795238Y-139863333D01*
X185890476Y-139910952D01*
X185938095Y-139958571D01*
X185985714Y-140053809D01*
X185985714Y-140291904D01*
X185938095Y-140387142D01*
X185890476Y-140434761D01*
X185795238Y-140482380D01*
X185509523Y-140482380D01*
X185414285Y-140434761D01*
X185366666Y-140387142D01*
X188222380Y-103338095D02*
X187222380Y-103338095D01*
X187222380Y-103100000D01*
X187270000Y-102957142D01*
X187365238Y-102861904D01*
X187460476Y-102814285D01*
X187650952Y-102766666D01*
X187793809Y-102766666D01*
X187984285Y-102814285D01*
X188079523Y-102861904D01*
X188174761Y-102957142D01*
X188222380Y-103100000D01*
X188222380Y-103338095D01*
X187317619Y-102385714D02*
X187270000Y-102338095D01*
X187222380Y-102242857D01*
X187222380Y-102004761D01*
X187270000Y-101909523D01*
X187317619Y-101861904D01*
X187412857Y-101814285D01*
X187508095Y-101814285D01*
X187650952Y-101861904D01*
X188222380Y-102433333D01*
X188222380Y-101814285D01*
X66557142Y-80727142D02*
X66509523Y-80774761D01*
X66366666Y-80822380D01*
X66271428Y-80822380D01*
X66128571Y-80774761D01*
X66033333Y-80679523D01*
X65985714Y-80584285D01*
X65938095Y-80393809D01*
X65938095Y-80250952D01*
X65985714Y-80060476D01*
X66033333Y-79965238D01*
X66128571Y-79870000D01*
X66271428Y-79822380D01*
X66366666Y-79822380D01*
X66509523Y-79870000D01*
X66557142Y-79917619D01*
X67509523Y-80822380D02*
X66938095Y-80822380D01*
X67223809Y-80822380D02*
X67223809Y-79822380D01*
X67128571Y-79965238D01*
X67033333Y-80060476D01*
X66938095Y-80108095D01*
X68461904Y-80822380D02*
X67890476Y-80822380D01*
X68176190Y-80822380D02*
X68176190Y-79822380D01*
X68080952Y-79965238D01*
X67985714Y-80060476D01*
X67890476Y-80108095D01*
X98457142Y-122357142D02*
X98409523Y-122404761D01*
X98266666Y-122452380D01*
X98171428Y-122452380D01*
X98028571Y-122404761D01*
X97933333Y-122309523D01*
X97885714Y-122214285D01*
X97838095Y-122023809D01*
X97838095Y-121880952D01*
X97885714Y-121690476D01*
X97933333Y-121595238D01*
X98028571Y-121500000D01*
X98171428Y-121452380D01*
X98266666Y-121452380D01*
X98409523Y-121500000D01*
X98457142Y-121547619D01*
X99409523Y-122452380D02*
X98838095Y-122452380D01*
X99123809Y-122452380D02*
X99123809Y-121452380D01*
X99028571Y-121595238D01*
X98933333Y-121690476D01*
X98838095Y-121738095D01*
X100028571Y-121452380D02*
X100123809Y-121452380D01*
X100219047Y-121500000D01*
X100266666Y-121547619D01*
X100314285Y-121642857D01*
X100361904Y-121833333D01*
X100361904Y-122071428D01*
X100314285Y-122261904D01*
X100266666Y-122357142D01*
X100219047Y-122404761D01*
X100123809Y-122452380D01*
X100028571Y-122452380D01*
X99933333Y-122404761D01*
X99885714Y-122357142D01*
X99838095Y-122261904D01*
X99790476Y-122071428D01*
X99790476Y-121833333D01*
X99838095Y-121642857D01*
X99885714Y-121547619D01*
X99933333Y-121500000D01*
X100028571Y-121452380D01*
X51433333Y-103157142D02*
X51385714Y-103204761D01*
X51242857Y-103252380D01*
X51147619Y-103252380D01*
X51004761Y-103204761D01*
X50909523Y-103109523D01*
X50861904Y-103014285D01*
X50814285Y-102823809D01*
X50814285Y-102680952D01*
X50861904Y-102490476D01*
X50909523Y-102395238D01*
X51004761Y-102300000D01*
X51147619Y-102252380D01*
X51242857Y-102252380D01*
X51385714Y-102300000D01*
X51433333Y-102347619D01*
X51909523Y-103252380D02*
X52100000Y-103252380D01*
X52195238Y-103204761D01*
X52242857Y-103157142D01*
X52338095Y-103014285D01*
X52385714Y-102823809D01*
X52385714Y-102442857D01*
X52338095Y-102347619D01*
X52290476Y-102300000D01*
X52195238Y-102252380D01*
X52004761Y-102252380D01*
X51909523Y-102300000D01*
X51861904Y-102347619D01*
X51814285Y-102442857D01*
X51814285Y-102680952D01*
X51861904Y-102776190D01*
X51909523Y-102823809D01*
X52004761Y-102871428D01*
X52195238Y-102871428D01*
X52290476Y-102823809D01*
X52338095Y-102776190D01*
X52385714Y-102680952D01*
X107633333Y-95057142D02*
X107585714Y-95104761D01*
X107442857Y-95152380D01*
X107347619Y-95152380D01*
X107204761Y-95104761D01*
X107109523Y-95009523D01*
X107061904Y-94914285D01*
X107014285Y-94723809D01*
X107014285Y-94580952D01*
X107061904Y-94390476D01*
X107109523Y-94295238D01*
X107204761Y-94200000D01*
X107347619Y-94152380D01*
X107442857Y-94152380D01*
X107585714Y-94200000D01*
X107633333Y-94247619D01*
X108204761Y-94580952D02*
X108109523Y-94533333D01*
X108061904Y-94485714D01*
X108014285Y-94390476D01*
X108014285Y-94342857D01*
X108061904Y-94247619D01*
X108109523Y-94200000D01*
X108204761Y-94152380D01*
X108395238Y-94152380D01*
X108490476Y-94200000D01*
X108538095Y-94247619D01*
X108585714Y-94342857D01*
X108585714Y-94390476D01*
X108538095Y-94485714D01*
X108490476Y-94533333D01*
X108395238Y-94580952D01*
X108204761Y-94580952D01*
X108109523Y-94628571D01*
X108061904Y-94676190D01*
X108014285Y-94771428D01*
X108014285Y-94961904D01*
X108061904Y-95057142D01*
X108109523Y-95104761D01*
X108204761Y-95152380D01*
X108395238Y-95152380D01*
X108490476Y-95104761D01*
X108538095Y-95057142D01*
X108585714Y-94961904D01*
X108585714Y-94771428D01*
X108538095Y-94676190D01*
X108490476Y-94628571D01*
X108395238Y-94580952D01*
X69033333Y-126644642D02*
X68985714Y-126692261D01*
X68842857Y-126739880D01*
X68747619Y-126739880D01*
X68604761Y-126692261D01*
X68509523Y-126597023D01*
X68461904Y-126501785D01*
X68414285Y-126311309D01*
X68414285Y-126168452D01*
X68461904Y-125977976D01*
X68509523Y-125882738D01*
X68604761Y-125787500D01*
X68747619Y-125739880D01*
X68842857Y-125739880D01*
X68985714Y-125787500D01*
X69033333Y-125835119D01*
X69366666Y-125739880D02*
X70033333Y-125739880D01*
X69604761Y-126739880D01*
X88633333Y-71857142D02*
X88585714Y-71904761D01*
X88442857Y-71952380D01*
X88347619Y-71952380D01*
X88204761Y-71904761D01*
X88109523Y-71809523D01*
X88061904Y-71714285D01*
X88014285Y-71523809D01*
X88014285Y-71380952D01*
X88061904Y-71190476D01*
X88109523Y-71095238D01*
X88204761Y-71000000D01*
X88347619Y-70952380D01*
X88442857Y-70952380D01*
X88585714Y-71000000D01*
X88633333Y-71047619D01*
X89490476Y-70952380D02*
X89300000Y-70952380D01*
X89204761Y-71000000D01*
X89157142Y-71047619D01*
X89061904Y-71190476D01*
X89014285Y-71380952D01*
X89014285Y-71761904D01*
X89061904Y-71857142D01*
X89109523Y-71904761D01*
X89204761Y-71952380D01*
X89395238Y-71952380D01*
X89490476Y-71904761D01*
X89538095Y-71857142D01*
X89585714Y-71761904D01*
X89585714Y-71523809D01*
X89538095Y-71428571D01*
X89490476Y-71380952D01*
X89395238Y-71333333D01*
X89204761Y-71333333D01*
X89109523Y-71380952D01*
X89061904Y-71428571D01*
X89014285Y-71523809D01*
X130445833Y-65187142D02*
X130398214Y-65234761D01*
X130255357Y-65282380D01*
X130160119Y-65282380D01*
X130017261Y-65234761D01*
X129922023Y-65139523D01*
X129874404Y-65044285D01*
X129826785Y-64853809D01*
X129826785Y-64710952D01*
X129874404Y-64520476D01*
X129922023Y-64425238D01*
X130017261Y-64330000D01*
X130160119Y-64282380D01*
X130255357Y-64282380D01*
X130398214Y-64330000D01*
X130445833Y-64377619D01*
X131350595Y-64282380D02*
X130874404Y-64282380D01*
X130826785Y-64758571D01*
X130874404Y-64710952D01*
X130969642Y-64663333D01*
X131207738Y-64663333D01*
X131302976Y-64710952D01*
X131350595Y-64758571D01*
X131398214Y-64853809D01*
X131398214Y-65091904D01*
X131350595Y-65187142D01*
X131302976Y-65234761D01*
X131207738Y-65282380D01*
X130969642Y-65282380D01*
X130874404Y-65234761D01*
X130826785Y-65187142D01*
X253645833Y-144157142D02*
X253598214Y-144204761D01*
X253455357Y-144252380D01*
X253360119Y-144252380D01*
X253217261Y-144204761D01*
X253122023Y-144109523D01*
X253074404Y-144014285D01*
X253026785Y-143823809D01*
X253026785Y-143680952D01*
X253074404Y-143490476D01*
X253122023Y-143395238D01*
X253217261Y-143300000D01*
X253360119Y-143252380D01*
X253455357Y-143252380D01*
X253598214Y-143300000D01*
X253645833Y-143347619D01*
X254502976Y-143585714D02*
X254502976Y-144252380D01*
X254264880Y-143204761D02*
X254026785Y-143919047D01*
X254645833Y-143919047D01*
X268633333Y-144057142D02*
X268585714Y-144104761D01*
X268442857Y-144152380D01*
X268347619Y-144152380D01*
X268204761Y-144104761D01*
X268109523Y-144009523D01*
X268061904Y-143914285D01*
X268014285Y-143723809D01*
X268014285Y-143580952D01*
X268061904Y-143390476D01*
X268109523Y-143295238D01*
X268204761Y-143200000D01*
X268347619Y-143152380D01*
X268442857Y-143152380D01*
X268585714Y-143200000D01*
X268633333Y-143247619D01*
X268966666Y-143152380D02*
X269585714Y-143152380D01*
X269252380Y-143533333D01*
X269395238Y-143533333D01*
X269490476Y-143580952D01*
X269538095Y-143628571D01*
X269585714Y-143723809D01*
X269585714Y-143961904D01*
X269538095Y-144057142D01*
X269490476Y-144104761D01*
X269395238Y-144152380D01*
X269109523Y-144152380D01*
X269014285Y-144104761D01*
X268966666Y-144057142D01*
X52133333Y-65357142D02*
X52085714Y-65404761D01*
X51942857Y-65452380D01*
X51847619Y-65452380D01*
X51704761Y-65404761D01*
X51609523Y-65309523D01*
X51561904Y-65214285D01*
X51514285Y-65023809D01*
X51514285Y-64880952D01*
X51561904Y-64690476D01*
X51609523Y-64595238D01*
X51704761Y-64500000D01*
X51847619Y-64452380D01*
X51942857Y-64452380D01*
X52085714Y-64500000D01*
X52133333Y-64547619D01*
X52514285Y-64547619D02*
X52561904Y-64500000D01*
X52657142Y-64452380D01*
X52895238Y-64452380D01*
X52990476Y-64500000D01*
X53038095Y-64547619D01*
X53085714Y-64642857D01*
X53085714Y-64738095D01*
X53038095Y-64880952D01*
X52466666Y-65452380D01*
X53085714Y-65452380D01*
X64445833Y-65287142D02*
X64398214Y-65334761D01*
X64255357Y-65382380D01*
X64160119Y-65382380D01*
X64017261Y-65334761D01*
X63922023Y-65239523D01*
X63874404Y-65144285D01*
X63826785Y-64953809D01*
X63826785Y-64810952D01*
X63874404Y-64620476D01*
X63922023Y-64525238D01*
X64017261Y-64430000D01*
X64160119Y-64382380D01*
X64255357Y-64382380D01*
X64398214Y-64430000D01*
X64445833Y-64477619D01*
X65398214Y-65382380D02*
X64826785Y-65382380D01*
X65112500Y-65382380D02*
X65112500Y-64382380D01*
X65017261Y-64525238D01*
X64922023Y-64620476D01*
X64826785Y-64668095D01*
X55538095Y-142202380D02*
X55538095Y-143011904D01*
X55585714Y-143107142D01*
X55633333Y-143154761D01*
X55728571Y-143202380D01*
X55919047Y-143202380D01*
X56014285Y-143154761D01*
X56061904Y-143107142D01*
X56109523Y-143011904D01*
X56109523Y-142202380D01*
X57014285Y-142202380D02*
X56823809Y-142202380D01*
X56728571Y-142250000D01*
X56680952Y-142297619D01*
X56585714Y-142440476D01*
X56538095Y-142630952D01*
X56538095Y-143011904D01*
X56585714Y-143107142D01*
X56633333Y-143154761D01*
X56728571Y-143202380D01*
X56919047Y-143202380D01*
X57014285Y-143154761D01*
X57061904Y-143107142D01*
X57109523Y-143011904D01*
X57109523Y-142773809D01*
X57061904Y-142678571D01*
X57014285Y-142630952D01*
X56919047Y-142583333D01*
X56728571Y-142583333D01*
X56633333Y-142630952D01*
X56585714Y-142678571D01*
X56538095Y-142773809D01*
X49400003Y-83882871D02*
X49512671Y-83782963D01*
X49631718Y-83576766D01*
X49638098Y-83470478D01*
X49620668Y-83405429D01*
X49561999Y-83316571D01*
X49479520Y-83268952D01*
X49373232Y-83262572D01*
X49308183Y-83280002D01*
X49219325Y-83338671D01*
X49082848Y-83479819D01*
X48993989Y-83538488D01*
X48928941Y-83555917D01*
X48822652Y-83549538D01*
X48740174Y-83501919D01*
X48681505Y-83413060D01*
X48664075Y-83348011D01*
X48670455Y-83241723D01*
X48789502Y-83035527D01*
X48902170Y-82935618D01*
X49027598Y-82623134D02*
X50012671Y-82916937D01*
X49489319Y-82394837D01*
X50203147Y-82587023D01*
X49456169Y-81880826D01*
X50774575Y-81597279D02*
X50488861Y-82092151D01*
X50631718Y-81844715D02*
X49765693Y-81344715D01*
X49841792Y-81498622D01*
X49876651Y-81628720D01*
X49870271Y-81735008D01*
X51250766Y-80772493D02*
X50965052Y-81267365D01*
X51107909Y-81019929D02*
X50241883Y-80519929D01*
X50317982Y-80673836D01*
X50352842Y-80803934D01*
X50346462Y-80910222D01*
X107491541Y-117656077D02*
X107604209Y-117556169D01*
X107723256Y-117349972D01*
X107729636Y-117243684D01*
X107712206Y-117178635D01*
X107653537Y-117089777D01*
X107571058Y-117042158D01*
X107464770Y-117035778D01*
X107399721Y-117053208D01*
X107310863Y-117111877D01*
X107174386Y-117253025D01*
X107085527Y-117311694D01*
X107020479Y-117329123D01*
X106914190Y-117322744D01*
X106831712Y-117275125D01*
X106773043Y-117186266D01*
X106755613Y-117121217D01*
X106761993Y-117014929D01*
X106881040Y-116808733D01*
X106993708Y-116708824D01*
X107119136Y-116396340D02*
X108104209Y-116690143D01*
X107580857Y-116168043D01*
X108294685Y-116360229D01*
X107547707Y-115654032D01*
X108866113Y-115370485D02*
X108580399Y-115865357D01*
X108723256Y-115617921D02*
X107857231Y-115117921D01*
X107933330Y-115271828D01*
X107968189Y-115401926D01*
X107961809Y-115508214D01*
X108309612Y-114334375D02*
X108357231Y-114251896D01*
X108446089Y-114193227D01*
X108511138Y-114175797D01*
X108617426Y-114182177D01*
X108806193Y-114236176D01*
X109012389Y-114355223D01*
X109153537Y-114491701D01*
X109212206Y-114580559D01*
X109229636Y-114645608D01*
X109223256Y-114751896D01*
X109175637Y-114834375D01*
X109086779Y-114893044D01*
X109021730Y-114910473D01*
X108915442Y-114904094D01*
X108726675Y-114850095D01*
X108520479Y-114731047D01*
X108379331Y-114594570D01*
X108320662Y-114505711D01*
X108303232Y-114440663D01*
X108309612Y-114334375D01*
X48837031Y-114761077D02*
X48867220Y-114908604D01*
X48986268Y-115114801D01*
X49075126Y-115173470D01*
X49140175Y-115190900D01*
X49246463Y-115184520D01*
X49328942Y-115136901D01*
X49387611Y-115048043D01*
X49405040Y-114982994D01*
X49398661Y-114876706D01*
X49344662Y-114687939D01*
X49338282Y-114581651D01*
X49355712Y-114516602D01*
X49414381Y-114427744D01*
X49496860Y-114380125D01*
X49603148Y-114373745D01*
X49668197Y-114391175D01*
X49757055Y-114449844D01*
X49876103Y-114656040D01*
X49906292Y-114803568D01*
X50114198Y-115068433D02*
X49367220Y-115774630D01*
X50081048Y-115582444D01*
X49557696Y-116104544D01*
X50542769Y-115810741D01*
X49891030Y-116681894D02*
X49986268Y-116846852D01*
X50075126Y-116905521D01*
X50140175Y-116922951D01*
X50311512Y-116934001D01*
X50500279Y-116880002D01*
X50830193Y-116689526D01*
X50888862Y-116600667D01*
X50906292Y-116535618D01*
X50899912Y-116429330D01*
X50804674Y-116264373D01*
X50715816Y-116205704D01*
X50650767Y-116188274D01*
X50544479Y-116194654D01*
X50338282Y-116313702D01*
X50279613Y-116402560D01*
X50262183Y-116467609D01*
X50268563Y-116573897D01*
X50363801Y-116738854D01*
X50452659Y-116797523D01*
X50517708Y-116814953D01*
X50623996Y-116808573D01*
X107128567Y-81334283D02*
X107158756Y-81481810D01*
X107277804Y-81688007D01*
X107366662Y-81746676D01*
X107431711Y-81764106D01*
X107537999Y-81757726D01*
X107620478Y-81710107D01*
X107679147Y-81621249D01*
X107696576Y-81556200D01*
X107690197Y-81449912D01*
X107636198Y-81261145D01*
X107629818Y-81154857D01*
X107647248Y-81089808D01*
X107705917Y-81000950D01*
X107788396Y-80953331D01*
X107894684Y-80946951D01*
X107959733Y-80964381D01*
X108048591Y-81023050D01*
X108167639Y-81229246D01*
X108197828Y-81376774D01*
X108405734Y-81641639D02*
X107658756Y-82347836D01*
X108372584Y-82155650D01*
X107849232Y-82677750D01*
X108834305Y-82383947D01*
X108725056Y-83051865D02*
X108718676Y-82945577D01*
X108736106Y-82880528D01*
X108794775Y-82791669D01*
X108836015Y-82767860D01*
X108942303Y-82761480D01*
X109007352Y-82778910D01*
X109096210Y-82837579D01*
X109191448Y-83002536D01*
X109197828Y-83108824D01*
X109180398Y-83173873D01*
X109121729Y-83262732D01*
X109080490Y-83286541D01*
X108974202Y-83292921D01*
X108909153Y-83275491D01*
X108820294Y-83216822D01*
X108725056Y-83051865D01*
X108636198Y-82993196D01*
X108571149Y-82975766D01*
X108464861Y-82982146D01*
X108299904Y-83077384D01*
X108241235Y-83166242D01*
X108223805Y-83231291D01*
X108230185Y-83337579D01*
X108325423Y-83502536D01*
X108414281Y-83561205D01*
X108479330Y-83578635D01*
X108585618Y-83572255D01*
X108750575Y-83477017D01*
X108809244Y-83388159D01*
X108826674Y-83323110D01*
X108820294Y-83216822D01*
X77566666Y-133004761D02*
X77709523Y-133052380D01*
X77947619Y-133052380D01*
X78042857Y-133004761D01*
X78090476Y-132957142D01*
X78138095Y-132861904D01*
X78138095Y-132766666D01*
X78090476Y-132671428D01*
X78042857Y-132623809D01*
X77947619Y-132576190D01*
X77757142Y-132528571D01*
X77661904Y-132480952D01*
X77614285Y-132433333D01*
X77566666Y-132338095D01*
X77566666Y-132242857D01*
X77614285Y-132147619D01*
X77661904Y-132100000D01*
X77757142Y-132052380D01*
X77995238Y-132052380D01*
X78138095Y-132100000D01*
X78471428Y-132052380D02*
X78709523Y-133052380D01*
X78900000Y-132338095D01*
X79090476Y-133052380D01*
X79328571Y-132052380D01*
X79614285Y-132052380D02*
X80280952Y-132052380D01*
X79852380Y-133052380D01*
X75366666Y-67104761D02*
X75509523Y-67152380D01*
X75747619Y-67152380D01*
X75842857Y-67104761D01*
X75890476Y-67057142D01*
X75938095Y-66961904D01*
X75938095Y-66866666D01*
X75890476Y-66771428D01*
X75842857Y-66723809D01*
X75747619Y-66676190D01*
X75557142Y-66628571D01*
X75461904Y-66580952D01*
X75414285Y-66533333D01*
X75366666Y-66438095D01*
X75366666Y-66342857D01*
X75414285Y-66247619D01*
X75461904Y-66200000D01*
X75557142Y-66152380D01*
X75795238Y-66152380D01*
X75938095Y-66200000D01*
X76271428Y-66152380D02*
X76509523Y-67152380D01*
X76700000Y-66438095D01*
X76890476Y-67152380D01*
X77128571Y-66152380D01*
X77938095Y-66152380D02*
X77747619Y-66152380D01*
X77652380Y-66200000D01*
X77604761Y-66247619D01*
X77509523Y-66390476D01*
X77461904Y-66580952D01*
X77461904Y-66961904D01*
X77509523Y-67057142D01*
X77557142Y-67104761D01*
X77652380Y-67152380D01*
X77842857Y-67152380D01*
X77938095Y-67104761D01*
X77985714Y-67057142D01*
X78033333Y-66961904D01*
X78033333Y-66723809D01*
X77985714Y-66628571D01*
X77938095Y-66580952D01*
X77842857Y-66533333D01*
X77652380Y-66533333D01*
X77557142Y-66580952D01*
X77509523Y-66628571D01*
X77461904Y-66723809D01*
X114957142Y-143152380D02*
X114623809Y-142676190D01*
X114385714Y-143152380D02*
X114385714Y-142152380D01*
X114766666Y-142152380D01*
X114861904Y-142200000D01*
X114909523Y-142247619D01*
X114957142Y-142342857D01*
X114957142Y-142485714D01*
X114909523Y-142580952D01*
X114861904Y-142628571D01*
X114766666Y-142676190D01*
X114385714Y-142676190D01*
X115861904Y-142152380D02*
X115385714Y-142152380D01*
X115338095Y-142628571D01*
X115385714Y-142580952D01*
X115480952Y-142533333D01*
X115719047Y-142533333D01*
X115814285Y-142580952D01*
X115861904Y-142628571D01*
X115909523Y-142723809D01*
X115909523Y-142961904D01*
X115861904Y-143057142D01*
X115814285Y-143104761D01*
X115719047Y-143152380D01*
X115480952Y-143152380D01*
X115385714Y-143104761D01*
X115338095Y-143057142D01*
X116480952Y-142580952D02*
X116385714Y-142533333D01*
X116338095Y-142485714D01*
X116290476Y-142390476D01*
X116290476Y-142342857D01*
X116338095Y-142247619D01*
X116385714Y-142200000D01*
X116480952Y-142152380D01*
X116671428Y-142152380D01*
X116766666Y-142200000D01*
X116814285Y-142247619D01*
X116861904Y-142342857D01*
X116861904Y-142390476D01*
X116814285Y-142485714D01*
X116766666Y-142533333D01*
X116671428Y-142580952D01*
X116480952Y-142580952D01*
X116385714Y-142628571D01*
X116338095Y-142676190D01*
X116290476Y-142771428D01*
X116290476Y-142961904D01*
X116338095Y-143057142D01*
X116385714Y-143104761D01*
X116480952Y-143152380D01*
X116671428Y-143152380D01*
X116766666Y-143104761D01*
X116814285Y-143057142D01*
X116861904Y-142961904D01*
X116861904Y-142771428D01*
X116814285Y-142676190D01*
X116766666Y-142628571D01*
X116671428Y-142580952D01*
X124366666Y-53104761D02*
X124509523Y-53152380D01*
X124747619Y-53152380D01*
X124842857Y-53104761D01*
X124890476Y-53057142D01*
X124938095Y-52961904D01*
X124938095Y-52866666D01*
X124890476Y-52771428D01*
X124842857Y-52723809D01*
X124747619Y-52676190D01*
X124557142Y-52628571D01*
X124461904Y-52580952D01*
X124414285Y-52533333D01*
X124366666Y-52438095D01*
X124366666Y-52342857D01*
X124414285Y-52247619D01*
X124461904Y-52200000D01*
X124557142Y-52152380D01*
X124795238Y-52152380D01*
X124938095Y-52200000D01*
X125271428Y-52152380D02*
X125509523Y-53152380D01*
X125700000Y-52438095D01*
X125890476Y-53152380D01*
X126128571Y-52152380D01*
X126985714Y-52152380D02*
X126509523Y-52152380D01*
X126461904Y-52628571D01*
X126509523Y-52580952D01*
X126604761Y-52533333D01*
X126842857Y-52533333D01*
X126938095Y-52580952D01*
X126985714Y-52628571D01*
X127033333Y-52723809D01*
X127033333Y-52961904D01*
X126985714Y-53057142D01*
X126938095Y-53104761D01*
X126842857Y-53152380D01*
X126604761Y-53152380D01*
X126509523Y-53104761D01*
X126461904Y-53057142D01*
X250704761Y-132533333D02*
X250752380Y-132390476D01*
X250752380Y-132152380D01*
X250704761Y-132057142D01*
X250657142Y-132009523D01*
X250561904Y-131961904D01*
X250466666Y-131961904D01*
X250371428Y-132009523D01*
X250323809Y-132057142D01*
X250276190Y-132152380D01*
X250228571Y-132342857D01*
X250180952Y-132438095D01*
X250133333Y-132485714D01*
X250038095Y-132533333D01*
X249942857Y-132533333D01*
X249847619Y-132485714D01*
X249800000Y-132438095D01*
X249752380Y-132342857D01*
X249752380Y-132104761D01*
X249800000Y-131961904D01*
X249752380Y-131628571D02*
X250752380Y-131390476D01*
X250038095Y-131200000D01*
X250752380Y-131009523D01*
X249752380Y-130771428D01*
X250085714Y-129961904D02*
X250752380Y-129961904D01*
X249704761Y-130200000D02*
X250419047Y-130438095D01*
X250419047Y-129819047D01*
X279584761Y-133333333D02*
X279632380Y-133190476D01*
X279632380Y-132952380D01*
X279584761Y-132857142D01*
X279537142Y-132809523D01*
X279441904Y-132761904D01*
X279346666Y-132761904D01*
X279251428Y-132809523D01*
X279203809Y-132857142D01*
X279156190Y-132952380D01*
X279108571Y-133142857D01*
X279060952Y-133238095D01*
X279013333Y-133285714D01*
X278918095Y-133333333D01*
X278822857Y-133333333D01*
X278727619Y-133285714D01*
X278680000Y-133238095D01*
X278632380Y-133142857D01*
X278632380Y-132904761D01*
X278680000Y-132761904D01*
X278632380Y-132428571D02*
X279632380Y-132190476D01*
X278918095Y-132000000D01*
X279632380Y-131809523D01*
X278632380Y-131571428D01*
X278632380Y-131285714D02*
X278632380Y-130666666D01*
X279013333Y-131000000D01*
X279013333Y-130857142D01*
X279060952Y-130761904D01*
X279108571Y-130714285D01*
X279203809Y-130666666D01*
X279441904Y-130666666D01*
X279537142Y-130714285D01*
X279584761Y-130761904D01*
X279632380Y-130857142D01*
X279632380Y-131142857D01*
X279584761Y-131238095D01*
X279537142Y-131285714D01*
X47666666Y-64004761D02*
X47809523Y-64052380D01*
X48047619Y-64052380D01*
X48142857Y-64004761D01*
X48190476Y-63957142D01*
X48238095Y-63861904D01*
X48238095Y-63766666D01*
X48190476Y-63671428D01*
X48142857Y-63623809D01*
X48047619Y-63576190D01*
X47857142Y-63528571D01*
X47761904Y-63480952D01*
X47714285Y-63433333D01*
X47666666Y-63338095D01*
X47666666Y-63242857D01*
X47714285Y-63147619D01*
X47761904Y-63100000D01*
X47857142Y-63052380D01*
X48095238Y-63052380D01*
X48238095Y-63100000D01*
X48571428Y-63052380D02*
X48809523Y-64052380D01*
X49000000Y-63338095D01*
X49190476Y-64052380D01*
X49428571Y-63052380D01*
X49761904Y-63147619D02*
X49809523Y-63100000D01*
X49904761Y-63052380D01*
X50142857Y-63052380D01*
X50238095Y-63100000D01*
X50285714Y-63147619D01*
X50333333Y-63242857D01*
X50333333Y-63338095D01*
X50285714Y-63480952D01*
X49714285Y-64052380D01*
X50333333Y-64052380D01*
X72866666Y-63904761D02*
X73009523Y-63952380D01*
X73247619Y-63952380D01*
X73342857Y-63904761D01*
X73390476Y-63857142D01*
X73438095Y-63761904D01*
X73438095Y-63666666D01*
X73390476Y-63571428D01*
X73342857Y-63523809D01*
X73247619Y-63476190D01*
X73057142Y-63428571D01*
X72961904Y-63380952D01*
X72914285Y-63333333D01*
X72866666Y-63238095D01*
X72866666Y-63142857D01*
X72914285Y-63047619D01*
X72961904Y-63000000D01*
X73057142Y-62952380D01*
X73295238Y-62952380D01*
X73438095Y-63000000D01*
X73771428Y-62952380D02*
X74009523Y-63952380D01*
X74200000Y-63238095D01*
X74390476Y-63952380D01*
X74628571Y-62952380D01*
X75533333Y-63952380D02*
X74961904Y-63952380D01*
X75247619Y-63952380D02*
X75247619Y-62952380D01*
X75152380Y-63095238D01*
X75057142Y-63190476D01*
X74961904Y-63238095D01*
X230938095Y-96902380D02*
X230938095Y-97711904D01*
X230985714Y-97807142D01*
X231033333Y-97854761D01*
X231128571Y-97902380D01*
X231319047Y-97902380D01*
X231414285Y-97854761D01*
X231461904Y-97807142D01*
X231509523Y-97711904D01*
X231509523Y-96902380D01*
X232461904Y-96902380D02*
X231985714Y-96902380D01*
X231938095Y-97378571D01*
X231985714Y-97330952D01*
X232080952Y-97283333D01*
X232319047Y-97283333D01*
X232414285Y-97330952D01*
X232461904Y-97378571D01*
X232509523Y-97473809D01*
X232509523Y-97711904D01*
X232461904Y-97807142D01*
X232414285Y-97854761D01*
X232319047Y-97902380D01*
X232080952Y-97902380D01*
X231985714Y-97854761D01*
X231938095Y-97807142D01*
X216952380Y-72361904D02*
X217761904Y-72361904D01*
X217857142Y-72314285D01*
X217904761Y-72266666D01*
X217952380Y-72171428D01*
X217952380Y-71980952D01*
X217904761Y-71885714D01*
X217857142Y-71838095D01*
X217761904Y-71790476D01*
X216952380Y-71790476D01*
X217285714Y-70885714D02*
X217952380Y-70885714D01*
X216904761Y-71123809D02*
X217619047Y-71361904D01*
X217619047Y-70742857D01*
X189952380Y-72361904D02*
X190761904Y-72361904D01*
X190857142Y-72314285D01*
X190904761Y-72266666D01*
X190952380Y-72171428D01*
X190952380Y-71980952D01*
X190904761Y-71885714D01*
X190857142Y-71838095D01*
X190761904Y-71790476D01*
X189952380Y-71790476D01*
X189952380Y-71409523D02*
X189952380Y-70790476D01*
X190333333Y-71123809D01*
X190333333Y-70980952D01*
X190380952Y-70885714D01*
X190428571Y-70838095D01*
X190523809Y-70790476D01*
X190761904Y-70790476D01*
X190857142Y-70838095D01*
X190904761Y-70885714D01*
X190952380Y-70980952D01*
X190952380Y-71266666D01*
X190904761Y-71361904D01*
X190857142Y-71409523D01*
X172952380Y-72261904D02*
X173761904Y-72261904D01*
X173857142Y-72214285D01*
X173904761Y-72166666D01*
X173952380Y-72071428D01*
X173952380Y-71880952D01*
X173904761Y-71785714D01*
X173857142Y-71738095D01*
X173761904Y-71690476D01*
X172952380Y-71690476D01*
X173047619Y-71261904D02*
X173000000Y-71214285D01*
X172952380Y-71119047D01*
X172952380Y-70880952D01*
X173000000Y-70785714D01*
X173047619Y-70738095D01*
X173142857Y-70690476D01*
X173238095Y-70690476D01*
X173380952Y-70738095D01*
X173952380Y-71309523D01*
X173952380Y-70690476D01*
X148557142Y-143052380D02*
X148223809Y-142576190D01*
X147985714Y-143052380D02*
X147985714Y-142052380D01*
X148366666Y-142052380D01*
X148461904Y-142100000D01*
X148509523Y-142147619D01*
X148557142Y-142242857D01*
X148557142Y-142385714D01*
X148509523Y-142480952D01*
X148461904Y-142528571D01*
X148366666Y-142576190D01*
X147985714Y-142576190D01*
X148938095Y-142147619D02*
X148985714Y-142100000D01*
X149080952Y-142052380D01*
X149319047Y-142052380D01*
X149414285Y-142100000D01*
X149461904Y-142147619D01*
X149509523Y-142242857D01*
X149509523Y-142338095D01*
X149461904Y-142480952D01*
X148890476Y-143052380D01*
X149509523Y-143052380D01*
X150128571Y-142052380D02*
X150223809Y-142052380D01*
X150319047Y-142100000D01*
X150366666Y-142147619D01*
X150414285Y-142242857D01*
X150461904Y-142433333D01*
X150461904Y-142671428D01*
X150414285Y-142861904D01*
X150366666Y-142957142D01*
X150319047Y-143004761D01*
X150223809Y-143052380D01*
X150128571Y-143052380D01*
X150033333Y-143004761D01*
X149985714Y-142957142D01*
X149938095Y-142861904D01*
X149890476Y-142671428D01*
X149890476Y-142433333D01*
X149938095Y-142242857D01*
X149985714Y-142147619D01*
X150033333Y-142100000D01*
X150128571Y-142052380D01*
X133457142Y-143252380D02*
X133123809Y-142776190D01*
X132885714Y-143252380D02*
X132885714Y-142252380D01*
X133266666Y-142252380D01*
X133361904Y-142300000D01*
X133409523Y-142347619D01*
X133457142Y-142442857D01*
X133457142Y-142585714D01*
X133409523Y-142680952D01*
X133361904Y-142728571D01*
X133266666Y-142776190D01*
X132885714Y-142776190D01*
X134409523Y-143252380D02*
X133838095Y-143252380D01*
X134123809Y-143252380D02*
X134123809Y-142252380D01*
X134028571Y-142395238D01*
X133933333Y-142490476D01*
X133838095Y-142538095D01*
X134885714Y-143252380D02*
X135076190Y-143252380D01*
X135171428Y-143204761D01*
X135219047Y-143157142D01*
X135314285Y-143014285D01*
X135361904Y-142823809D01*
X135361904Y-142442857D01*
X135314285Y-142347619D01*
X135266666Y-142300000D01*
X135171428Y-142252380D01*
X134980952Y-142252380D01*
X134885714Y-142300000D01*
X134838095Y-142347619D01*
X134790476Y-142442857D01*
X134790476Y-142680952D01*
X134838095Y-142776190D01*
X134885714Y-142823809D01*
X134980952Y-142871428D01*
X135171428Y-142871428D01*
X135266666Y-142823809D01*
X135314285Y-142776190D01*
X135361904Y-142680952D01*
X251952380Y-94442857D02*
X251476190Y-94776190D01*
X251952380Y-95014285D02*
X250952380Y-95014285D01*
X250952380Y-94633333D01*
X251000000Y-94538095D01*
X251047619Y-94490476D01*
X251142857Y-94442857D01*
X251285714Y-94442857D01*
X251380952Y-94490476D01*
X251428571Y-94538095D01*
X251476190Y-94633333D01*
X251476190Y-95014285D01*
X251952380Y-93490476D02*
X251952380Y-94061904D01*
X251952380Y-93776190D02*
X250952380Y-93776190D01*
X251095238Y-93871428D01*
X251190476Y-93966666D01*
X251238095Y-94061904D01*
X251285714Y-92633333D02*
X251952380Y-92633333D01*
X250904761Y-92871428D02*
X251619047Y-93109523D01*
X251619047Y-92490476D01*
X266952380Y-94442857D02*
X266476190Y-94776190D01*
X266952380Y-95014285D02*
X265952380Y-95014285D01*
X265952380Y-94633333D01*
X266000000Y-94538095D01*
X266047619Y-94490476D01*
X266142857Y-94442857D01*
X266285714Y-94442857D01*
X266380952Y-94490476D01*
X266428571Y-94538095D01*
X266476190Y-94633333D01*
X266476190Y-95014285D01*
X266952380Y-93490476D02*
X266952380Y-94061904D01*
X266952380Y-93776190D02*
X265952380Y-93776190D01*
X266095238Y-93871428D01*
X266190476Y-93966666D01*
X266238095Y-94061904D01*
X265952380Y-93157142D02*
X265952380Y-92538095D01*
X266333333Y-92871428D01*
X266333333Y-92728571D01*
X266380952Y-92633333D01*
X266428571Y-92585714D01*
X266523809Y-92538095D01*
X266761904Y-92538095D01*
X266857142Y-92585714D01*
X266904761Y-92633333D01*
X266952380Y-92728571D01*
X266952380Y-93014285D01*
X266904761Y-93109523D01*
X266857142Y-93157142D01*
X223838095Y-135652380D02*
X223838095Y-136461904D01*
X223885714Y-136557142D01*
X223933333Y-136604761D01*
X224028571Y-136652380D01*
X224219047Y-136652380D01*
X224314285Y-136604761D01*
X224361904Y-136557142D01*
X224409523Y-136461904D01*
X224409523Y-135652380D01*
X225409523Y-136652380D02*
X224838095Y-136652380D01*
X225123809Y-136652380D02*
X225123809Y-135652380D01*
X225028571Y-135795238D01*
X224933333Y-135890476D01*
X224838095Y-135938095D01*
M02*
