M48
; DRILL file {KiCad (5.1.4-0-10_14)} date 2020 March 14, Saturday 09:24:20
; FORMAT={-:-/ absolute / inch / decimal}
; #@! TF.CreationDate,2020-03-14T09:24:20+01:00
; #@! TF.GenerationSoftware,Kicad,Pcbnew,(5.1.4-0-10_14)
; #@! TF.FileFunction,Plated,1,2,PTH
FMAT,2
INCH
T1C0.0157
T2C0.0236
T3C0.0315
T4C0.0335
T5C0.0354
T6C0.0394
T7C0.0984
%
G90
G05
T1
X6.0984Y-4.622
X6.4134Y-3.2913
X6.5433Y-3.5945
X6.6063Y-3.6772
X6.7874Y-4.5433
X6.8031Y-3.2283
X6.8071Y-3.7402
X6.9528Y-4.0866
X6.9724Y-3.5906
X7.0236Y-4.2559
X7.1929Y-4.1299
X7.2047Y-4.2953
X7.3071Y-4.0039
X7.3622Y-4.3307
X7.4528Y-4.1142
X7.5433Y-4.6535
X7.5906Y-4.5118
X7.6181Y-4.4213
X7.6299Y-3.9331
X7.6929Y-3.2638
X7.6997Y-4.2334
X7.7402Y-4.1024
X7.7717Y-4.5906
X7.7913Y-3.3583
X7.8189Y-3.6339
X7.8228Y-4.815
X7.8504Y-3.3465
X7.9528Y-4.7756
X7.9724Y-3.2874
X7.9921Y-4.7717
X8.0Y-4.5079
X8.0512Y-4.5039
X8.0787Y-3.8346
X8.1102Y-3.4567
X8.1337Y-3.2362
X8.1535Y-3.5039
X8.1654Y-3.2717
X8.185Y-3.7205
X8.1969Y-4.437
X8.2618Y-3.9114
X8.2835Y-3.7205
X8.3622Y-4.7874
X8.437Y-4.3031
X8.4488Y-3.7677
X8.4567Y-4.126
X8.4764Y-3.5984
X8.622Y-3.4016
X8.6535Y-3.7835
X8.6732Y-3.6614
X8.7067Y-3.5691
X8.7441Y-3.4055
X8.8701Y-3.5512
X8.9803Y-3.6969
T2
X5.7598Y-4.0709
X6.4764Y-3.2992
X6.5354Y-4.3976
X6.5984Y-4.2323
X6.7047Y-4.7323
X6.9528Y-4.3543
X7.0433Y-4.1496
X7.0551Y-4.7205
X7.4055Y-4.7244
X7.607Y-3.9744
X7.6718Y-4.7173
X7.6772Y-3.3307
X7.8583Y-4.8533
X7.9094Y-3.7087
X8.0551Y-4.6142
X8.2559Y-4.5472
X8.3031Y-4.2835
X8.5236Y-3.2874
X8.9291Y-3.4449
X9.0394Y-3.437
T3
X8.2362Y-3.2717
X8.2362Y-3.3504
X8.2362Y-3.4291
X8.3071Y-4.0551
X8.3858Y-4.0551
X8.4646Y-4.0551
X8.7874Y-3.8346
X8.5906Y-3.8346
X8.7874Y-4.0197
X8.7874Y-4.0984
X8.4331Y-3.8346
X8.5118Y-3.8346
X8.8661Y-3.8346
X8.9764Y-4.0197
X8.9764Y-4.0984
X6.3386Y-4.5433
X6.437Y-4.5433
T4
X5.9567Y-4.6811
X6.1535Y-4.6811
T5
X5.8543Y-3.2299
X5.8543Y-4.0299
X5.9543Y-3.2299
X5.9543Y-4.0299
X6.0543Y-3.2299
X6.0543Y-4.0299
X6.1543Y-3.2299
X6.1543Y-4.0299
X6.2543Y-3.2299
X6.2543Y-4.0299
X6.3543Y-3.2299
X6.3543Y-4.0299
T6
X8.0315Y-4.1866
X8.0315Y-4.0866
X8.0315Y-4.2866
X8.0315Y-4.3866
X8.1315Y-4.0866
X8.1315Y-4.1866
X8.1315Y-4.2866
X8.1315Y-4.3866
X7.2398Y-4.1969
X7.3398Y-4.1969
X7.4398Y-4.1969
X7.5398Y-4.1969
X6.7047Y-3.8031
X6.7047Y-3.9031
X6.7047Y-4.0031
X8.5063Y-4.2953
X8.5063Y-4.3953
X8.5063Y-4.4953
X8.5063Y-4.5953
X8.5063Y-4.6953
X8.5063Y-4.7953
X8.6063Y-4.2953
X8.6063Y-4.3953
X8.6063Y-4.4953
X8.6063Y-4.5953
X8.6063Y-4.6953
X8.6063Y-4.7953
T7
X6.9224Y-3.248
X6.9224Y-4.185
X7.8572Y-3.248
X7.8572Y-4.185
T2
G00X5.9173Y-4.8012
M15
G01X5.9173Y-4.7736
M16
G05
G00X6.1929Y-4.7736
M15
G01X6.1929Y-4.8012
M16
G05
T6
G00X5.7106Y-4.1693
M15
G01X5.6516Y-4.1693
M16
G05
G00X5.7106Y-4.5236
M15
G01X5.6516Y-4.5236
M16
G05
G00X5.7205Y-4.3209
M15
G01X5.7205Y-4.372
M16
G05
G00X5.9567Y-4.3071
M15
G01X5.9567Y-4.3858
M16
G05
T0
M30
