G04 #@! TF.GenerationSoftware,KiCad,Pcbnew,(5.1.4-0-10_14)*
G04 #@! TF.CreationDate,2020-03-14T09:23:35+01:00*
G04 #@! TF.ProjectId,ArtnetNode,4172746e-6574-44e6-9f64-652e6b696361,rev?*
G04 #@! TF.SameCoordinates,Original*
G04 #@! TF.FileFunction,Copper,L2,Bot*
G04 #@! TF.FilePolarity,Positive*
%FSLAX46Y46*%
G04 Gerber Fmt 4.6, Leading zero omitted, Abs format (unit mm)*
G04 Created by KiCad (PCBNEW (5.1.4-0-10_14)) date 2020-03-14 09:23:35*
%MOMM*%
%LPD*%
G04 APERTURE LIST*
%ADD10O,1.800000X1.200000*%
%ADD11C,0.100000*%
%ADD12C,1.200000*%
%ADD13O,1.200000X1.800000*%
%ADD14C,1.600000*%
%ADD15R,1.600000X1.600000*%
%ADD16O,1.700000X1.700000*%
%ADD17R,1.700000X1.700000*%
%ADD18C,1.800000*%
%ADD19C,3.500000*%
%ADD20O,3.500000X2.000000*%
%ADD21O,2.000000X3.300000*%
%ADD22R,2.000000X4.000000*%
%ADD23O,1.200000X1.900000*%
%ADD24C,1.450000*%
%ADD25C,0.800000*%
%ADD26C,1.000000*%
%ADD27C,0.200000*%
%ADD28C,0.400000*%
%ADD29C,0.250000*%
%ADD30C,0.254000*%
G04 APERTURE END LIST*
D10*
X228000000Y-104100000D03*
D11*
G36*
X228674505Y-101501204D02*
G01*
X228698773Y-101504804D01*
X228722572Y-101510765D01*
X228745671Y-101519030D01*
X228767850Y-101529520D01*
X228788893Y-101542132D01*
X228808599Y-101556747D01*
X228826777Y-101573223D01*
X228843253Y-101591401D01*
X228857868Y-101611107D01*
X228870480Y-101632150D01*
X228880970Y-101654329D01*
X228889235Y-101677428D01*
X228895196Y-101701227D01*
X228898796Y-101725495D01*
X228900000Y-101749999D01*
X228900000Y-102450001D01*
X228898796Y-102474505D01*
X228895196Y-102498773D01*
X228889235Y-102522572D01*
X228880970Y-102545671D01*
X228870480Y-102567850D01*
X228857868Y-102588893D01*
X228843253Y-102608599D01*
X228826777Y-102626777D01*
X228808599Y-102643253D01*
X228788893Y-102657868D01*
X228767850Y-102670480D01*
X228745671Y-102680970D01*
X228722572Y-102689235D01*
X228698773Y-102695196D01*
X228674505Y-102698796D01*
X228650001Y-102700000D01*
X227349999Y-102700000D01*
X227325495Y-102698796D01*
X227301227Y-102695196D01*
X227277428Y-102689235D01*
X227254329Y-102680970D01*
X227232150Y-102670480D01*
X227211107Y-102657868D01*
X227191401Y-102643253D01*
X227173223Y-102626777D01*
X227156747Y-102608599D01*
X227142132Y-102588893D01*
X227129520Y-102567850D01*
X227119030Y-102545671D01*
X227110765Y-102522572D01*
X227104804Y-102498773D01*
X227101204Y-102474505D01*
X227100000Y-102450001D01*
X227100000Y-101749999D01*
X227101204Y-101725495D01*
X227104804Y-101701227D01*
X227110765Y-101677428D01*
X227119030Y-101654329D01*
X227129520Y-101632150D01*
X227142132Y-101611107D01*
X227156747Y-101591401D01*
X227173223Y-101573223D01*
X227191401Y-101556747D01*
X227211107Y-101542132D01*
X227232150Y-101529520D01*
X227254329Y-101519030D01*
X227277428Y-101510765D01*
X227301227Y-101504804D01*
X227325495Y-101501204D01*
X227349999Y-101500000D01*
X228650001Y-101500000D01*
X228674505Y-101501204D01*
X228674505Y-101501204D01*
G37*
D12*
X228000000Y-102100000D03*
D13*
X223200000Y-97400000D03*
D11*
G36*
X225574505Y-96501204D02*
G01*
X225598773Y-96504804D01*
X225622572Y-96510765D01*
X225645671Y-96519030D01*
X225667850Y-96529520D01*
X225688893Y-96542132D01*
X225708599Y-96556747D01*
X225726777Y-96573223D01*
X225743253Y-96591401D01*
X225757868Y-96611107D01*
X225770480Y-96632150D01*
X225780970Y-96654329D01*
X225789235Y-96677428D01*
X225795196Y-96701227D01*
X225798796Y-96725495D01*
X225800000Y-96749999D01*
X225800000Y-98050001D01*
X225798796Y-98074505D01*
X225795196Y-98098773D01*
X225789235Y-98122572D01*
X225780970Y-98145671D01*
X225770480Y-98167850D01*
X225757868Y-98188893D01*
X225743253Y-98208599D01*
X225726777Y-98226777D01*
X225708599Y-98243253D01*
X225688893Y-98257868D01*
X225667850Y-98270480D01*
X225645671Y-98280970D01*
X225622572Y-98289235D01*
X225598773Y-98295196D01*
X225574505Y-98298796D01*
X225550001Y-98300000D01*
X224849999Y-98300000D01*
X224825495Y-98298796D01*
X224801227Y-98295196D01*
X224777428Y-98289235D01*
X224754329Y-98280970D01*
X224732150Y-98270480D01*
X224711107Y-98257868D01*
X224691401Y-98243253D01*
X224673223Y-98226777D01*
X224656747Y-98208599D01*
X224642132Y-98188893D01*
X224629520Y-98167850D01*
X224619030Y-98145671D01*
X224610765Y-98122572D01*
X224604804Y-98098773D01*
X224601204Y-98074505D01*
X224600000Y-98050001D01*
X224600000Y-96749999D01*
X224601204Y-96725495D01*
X224604804Y-96701227D01*
X224610765Y-96677428D01*
X224619030Y-96654329D01*
X224629520Y-96632150D01*
X224642132Y-96611107D01*
X224656747Y-96591401D01*
X224673223Y-96573223D01*
X224691401Y-96556747D01*
X224711107Y-96542132D01*
X224732150Y-96529520D01*
X224754329Y-96519030D01*
X224777428Y-96510765D01*
X224801227Y-96504804D01*
X224825495Y-96501204D01*
X224849999Y-96500000D01*
X225550001Y-96500000D01*
X225574505Y-96501204D01*
X225574505Y-96501204D01*
G37*
D12*
X225200000Y-97400000D03*
D10*
X223200000Y-104100000D03*
D11*
G36*
X223874505Y-101501204D02*
G01*
X223898773Y-101504804D01*
X223922572Y-101510765D01*
X223945671Y-101519030D01*
X223967850Y-101529520D01*
X223988893Y-101542132D01*
X224008599Y-101556747D01*
X224026777Y-101573223D01*
X224043253Y-101591401D01*
X224057868Y-101611107D01*
X224070480Y-101632150D01*
X224080970Y-101654329D01*
X224089235Y-101677428D01*
X224095196Y-101701227D01*
X224098796Y-101725495D01*
X224100000Y-101749999D01*
X224100000Y-102450001D01*
X224098796Y-102474505D01*
X224095196Y-102498773D01*
X224089235Y-102522572D01*
X224080970Y-102545671D01*
X224070480Y-102567850D01*
X224057868Y-102588893D01*
X224043253Y-102608599D01*
X224026777Y-102626777D01*
X224008599Y-102643253D01*
X223988893Y-102657868D01*
X223967850Y-102670480D01*
X223945671Y-102680970D01*
X223922572Y-102689235D01*
X223898773Y-102695196D01*
X223874505Y-102698796D01*
X223850001Y-102700000D01*
X222549999Y-102700000D01*
X222525495Y-102698796D01*
X222501227Y-102695196D01*
X222477428Y-102689235D01*
X222454329Y-102680970D01*
X222432150Y-102670480D01*
X222411107Y-102657868D01*
X222391401Y-102643253D01*
X222373223Y-102626777D01*
X222356747Y-102608599D01*
X222342132Y-102588893D01*
X222329520Y-102567850D01*
X222319030Y-102545671D01*
X222310765Y-102522572D01*
X222304804Y-102498773D01*
X222301204Y-102474505D01*
X222300000Y-102450001D01*
X222300000Y-101749999D01*
X222301204Y-101725495D01*
X222304804Y-101701227D01*
X222310765Y-101677428D01*
X222319030Y-101654329D01*
X222329520Y-101632150D01*
X222342132Y-101611107D01*
X222356747Y-101591401D01*
X222373223Y-101573223D01*
X222391401Y-101556747D01*
X222411107Y-101542132D01*
X222432150Y-101529520D01*
X222454329Y-101519030D01*
X222477428Y-101510765D01*
X222501227Y-101504804D01*
X222525495Y-101501204D01*
X222549999Y-101500000D01*
X223850001Y-101500000D01*
X223874505Y-101501204D01*
X223874505Y-101501204D01*
G37*
D12*
X223200000Y-102100000D03*
D13*
X211000000Y-103000000D03*
X213000000Y-103000000D03*
D11*
G36*
X215374505Y-102101204D02*
G01*
X215398773Y-102104804D01*
X215422572Y-102110765D01*
X215445671Y-102119030D01*
X215467850Y-102129520D01*
X215488893Y-102142132D01*
X215508599Y-102156747D01*
X215526777Y-102173223D01*
X215543253Y-102191401D01*
X215557868Y-102211107D01*
X215570480Y-102232150D01*
X215580970Y-102254329D01*
X215589235Y-102277428D01*
X215595196Y-102301227D01*
X215598796Y-102325495D01*
X215600000Y-102349999D01*
X215600000Y-103650001D01*
X215598796Y-103674505D01*
X215595196Y-103698773D01*
X215589235Y-103722572D01*
X215580970Y-103745671D01*
X215570480Y-103767850D01*
X215557868Y-103788893D01*
X215543253Y-103808599D01*
X215526777Y-103826777D01*
X215508599Y-103843253D01*
X215488893Y-103857868D01*
X215467850Y-103870480D01*
X215445671Y-103880970D01*
X215422572Y-103889235D01*
X215398773Y-103895196D01*
X215374505Y-103898796D01*
X215350001Y-103900000D01*
X214649999Y-103900000D01*
X214625495Y-103898796D01*
X214601227Y-103895196D01*
X214577428Y-103889235D01*
X214554329Y-103880970D01*
X214532150Y-103870480D01*
X214511107Y-103857868D01*
X214491401Y-103843253D01*
X214473223Y-103826777D01*
X214456747Y-103808599D01*
X214442132Y-103788893D01*
X214429520Y-103767850D01*
X214419030Y-103745671D01*
X214410765Y-103722572D01*
X214404804Y-103698773D01*
X214401204Y-103674505D01*
X214400000Y-103650001D01*
X214400000Y-102349999D01*
X214401204Y-102325495D01*
X214404804Y-102301227D01*
X214410765Y-102277428D01*
X214419030Y-102254329D01*
X214429520Y-102232150D01*
X214442132Y-102211107D01*
X214456747Y-102191401D01*
X214473223Y-102173223D01*
X214491401Y-102156747D01*
X214511107Y-102142132D01*
X214532150Y-102129520D01*
X214554329Y-102119030D01*
X214577428Y-102110765D01*
X214601227Y-102104804D01*
X214625495Y-102101204D01*
X214649999Y-102100000D01*
X215350001Y-102100000D01*
X215374505Y-102101204D01*
X215374505Y-102101204D01*
G37*
D12*
X215000000Y-103000000D03*
D13*
X218200000Y-97400000D03*
X216200000Y-97400000D03*
D11*
G36*
X214574505Y-96501204D02*
G01*
X214598773Y-96504804D01*
X214622572Y-96510765D01*
X214645671Y-96519030D01*
X214667850Y-96529520D01*
X214688893Y-96542132D01*
X214708599Y-96556747D01*
X214726777Y-96573223D01*
X214743253Y-96591401D01*
X214757868Y-96611107D01*
X214770480Y-96632150D01*
X214780970Y-96654329D01*
X214789235Y-96677428D01*
X214795196Y-96701227D01*
X214798796Y-96725495D01*
X214800000Y-96749999D01*
X214800000Y-98050001D01*
X214798796Y-98074505D01*
X214795196Y-98098773D01*
X214789235Y-98122572D01*
X214780970Y-98145671D01*
X214770480Y-98167850D01*
X214757868Y-98188893D01*
X214743253Y-98208599D01*
X214726777Y-98226777D01*
X214708599Y-98243253D01*
X214688893Y-98257868D01*
X214667850Y-98270480D01*
X214645671Y-98280970D01*
X214622572Y-98289235D01*
X214598773Y-98295196D01*
X214574505Y-98298796D01*
X214550001Y-98300000D01*
X213849999Y-98300000D01*
X213825495Y-98298796D01*
X213801227Y-98295196D01*
X213777428Y-98289235D01*
X213754329Y-98280970D01*
X213732150Y-98270480D01*
X213711107Y-98257868D01*
X213691401Y-98243253D01*
X213673223Y-98226777D01*
X213656747Y-98208599D01*
X213642132Y-98188893D01*
X213629520Y-98167850D01*
X213619030Y-98145671D01*
X213610765Y-98122572D01*
X213604804Y-98098773D01*
X213601204Y-98074505D01*
X213600000Y-98050001D01*
X213600000Y-96749999D01*
X213601204Y-96725495D01*
X213604804Y-96701227D01*
X213610765Y-96677428D01*
X213619030Y-96654329D01*
X213629520Y-96632150D01*
X213642132Y-96611107D01*
X213656747Y-96591401D01*
X213673223Y-96573223D01*
X213691401Y-96556747D01*
X213711107Y-96542132D01*
X213732150Y-96529520D01*
X213754329Y-96519030D01*
X213777428Y-96510765D01*
X213801227Y-96504804D01*
X213825495Y-96501204D01*
X213849999Y-96500000D01*
X214550001Y-96500000D01*
X214574505Y-96501204D01*
X214574505Y-96501204D01*
G37*
D12*
X214200000Y-97400000D03*
D10*
X209200000Y-87100000D03*
X209200000Y-85100000D03*
D11*
G36*
X209874505Y-82501204D02*
G01*
X209898773Y-82504804D01*
X209922572Y-82510765D01*
X209945671Y-82519030D01*
X209967850Y-82529520D01*
X209988893Y-82542132D01*
X210008599Y-82556747D01*
X210026777Y-82573223D01*
X210043253Y-82591401D01*
X210057868Y-82611107D01*
X210070480Y-82632150D01*
X210080970Y-82654329D01*
X210089235Y-82677428D01*
X210095196Y-82701227D01*
X210098796Y-82725495D01*
X210100000Y-82749999D01*
X210100000Y-83450001D01*
X210098796Y-83474505D01*
X210095196Y-83498773D01*
X210089235Y-83522572D01*
X210080970Y-83545671D01*
X210070480Y-83567850D01*
X210057868Y-83588893D01*
X210043253Y-83608599D01*
X210026777Y-83626777D01*
X210008599Y-83643253D01*
X209988893Y-83657868D01*
X209967850Y-83670480D01*
X209945671Y-83680970D01*
X209922572Y-83689235D01*
X209898773Y-83695196D01*
X209874505Y-83698796D01*
X209850001Y-83700000D01*
X208549999Y-83700000D01*
X208525495Y-83698796D01*
X208501227Y-83695196D01*
X208477428Y-83689235D01*
X208454329Y-83680970D01*
X208432150Y-83670480D01*
X208411107Y-83657868D01*
X208391401Y-83643253D01*
X208373223Y-83626777D01*
X208356747Y-83608599D01*
X208342132Y-83588893D01*
X208329520Y-83567850D01*
X208319030Y-83545671D01*
X208310765Y-83522572D01*
X208304804Y-83498773D01*
X208301204Y-83474505D01*
X208300000Y-83450001D01*
X208300000Y-82749999D01*
X208301204Y-82725495D01*
X208304804Y-82701227D01*
X208310765Y-82677428D01*
X208319030Y-82654329D01*
X208329520Y-82632150D01*
X208342132Y-82611107D01*
X208356747Y-82591401D01*
X208373223Y-82573223D01*
X208391401Y-82556747D01*
X208411107Y-82542132D01*
X208432150Y-82529520D01*
X208454329Y-82519030D01*
X208477428Y-82510765D01*
X208501227Y-82504804D01*
X208525495Y-82501204D01*
X208549999Y-82500000D01*
X209850001Y-82500000D01*
X209874505Y-82501204D01*
X209874505Y-82501204D01*
G37*
D12*
X209200000Y-83100000D03*
D14*
X148700000Y-82040000D03*
X151240000Y-82040000D03*
X153780000Y-82040000D03*
X156320000Y-82040000D03*
X158860000Y-82040000D03*
X161400000Y-82040000D03*
X161400000Y-102360000D03*
X158860000Y-102360000D03*
X156320000Y-102360000D03*
X153780000Y-102360000D03*
X151240000Y-102360000D03*
D15*
X148700000Y-102360000D03*
D14*
X163500000Y-115400000D03*
D15*
X161000000Y-115400000D03*
D16*
X216060000Y-121800000D03*
X218600000Y-121800000D03*
X216060000Y-119260000D03*
X218600000Y-119260000D03*
X216060000Y-116720000D03*
X218600000Y-116720000D03*
X216060000Y-114180000D03*
X218600000Y-114180000D03*
X216060000Y-111640000D03*
X218600000Y-111640000D03*
X216060000Y-109100000D03*
D17*
X218600000Y-109100000D03*
D16*
X206540000Y-103800000D03*
X204000000Y-103800000D03*
X206540000Y-106340000D03*
X204000000Y-106340000D03*
X206540000Y-108880000D03*
X204000000Y-108880000D03*
X206540000Y-111420000D03*
D17*
X204000000Y-111420000D03*
D16*
X170300000Y-101680000D03*
X170300000Y-99140000D03*
D17*
X170300000Y-96600000D03*
D18*
X183890000Y-106600000D03*
X186430000Y-106600000D03*
X188970000Y-106600000D03*
D17*
X191510000Y-106600000D03*
D19*
X175828000Y-82500000D03*
X199572000Y-82500000D03*
X175828000Y-106298000D03*
X199572000Y-106300000D03*
D20*
X144300000Y-114900000D03*
X144300000Y-105900000D03*
D21*
X145300000Y-110400000D03*
D22*
X151300000Y-110400000D03*
D23*
X157300000Y-121600000D03*
X150300000Y-121600000D03*
D24*
X156300000Y-118900000D03*
X151300000Y-118900000D03*
D25*
X202000000Y-121300000D03*
X193500000Y-112300000D03*
X172800000Y-82000000D03*
X154900000Y-117400000D03*
X172400000Y-115400000D03*
X191600000Y-118200000D03*
X192800000Y-114600000D03*
X176600000Y-103800000D03*
X202500000Y-83500000D03*
X219000000Y-86400000D03*
X219800000Y-96100000D03*
X220300000Y-93000000D03*
X215300000Y-91400000D03*
X214600000Y-95700000D03*
X210400000Y-94500000D03*
X205200000Y-97400000D03*
X228100000Y-93900000D03*
D26*
X226800000Y-87500000D03*
D25*
X206000000Y-87800000D03*
X214300000Y-109300000D03*
X214800000Y-104800000D03*
D26*
X204600000Y-117200000D03*
X195000000Y-84600000D03*
D25*
X196600000Y-104200000D03*
X197400000Y-116600000D03*
D26*
X229600000Y-87300000D03*
X216500000Y-83500000D03*
X176600000Y-110600000D03*
X167600000Y-107500000D03*
X209700000Y-115500000D03*
X210900000Y-108800000D03*
D25*
X185600000Y-101700000D03*
X183000000Y-109100000D03*
X204500000Y-114400000D03*
X203200000Y-114500000D03*
X187000000Y-110000000D03*
X182700000Y-104900000D03*
X178400000Y-108100000D03*
X207100000Y-88999990D03*
X207900000Y-94500000D03*
X198600000Y-92300000D03*
X193800000Y-99900000D03*
D26*
X146300000Y-103400000D03*
X166000000Y-111700000D03*
X164500000Y-83800000D03*
X193217228Y-100948990D03*
X200900000Y-94200000D03*
X199600000Y-123275000D03*
X194863187Y-119820000D03*
X188100000Y-120000000D03*
X179200000Y-119900000D03*
X170300000Y-120200000D03*
X178900000Y-105400000D03*
D25*
X197900000Y-85300000D03*
X209850000Y-99350000D03*
X189300000Y-104500000D03*
X195572154Y-107527846D03*
X212400000Y-121600000D03*
X206594975Y-82200000D03*
X208200000Y-112700000D03*
X221149942Y-90656061D03*
X222100000Y-86500000D03*
X166200000Y-91300000D03*
X167800000Y-93400000D03*
X172900000Y-95000000D03*
X177100000Y-91200000D03*
X162900000Y-83600000D03*
X195400000Y-82900000D03*
X199400000Y-85000000D03*
X207400000Y-83100000D03*
X225300000Y-90200000D03*
X198700000Y-122300000D03*
X203000000Y-121200000D03*
D27*
X222939998Y-83500000D02*
X216500000Y-83500000D01*
D28*
X161000000Y-114200000D02*
X162000000Y-113200000D01*
X161000000Y-115400000D02*
X161000000Y-114200000D01*
X167600000Y-111580002D02*
X167600000Y-108207106D01*
X167600000Y-108207106D02*
X167600000Y-107500000D01*
X165980002Y-113200000D02*
X167600000Y-111580002D01*
X162000000Y-113200000D02*
X165980002Y-113200000D01*
D27*
X176600000Y-110600000D02*
X170700000Y-110600000D01*
X170700000Y-110600000D02*
X167600000Y-107500000D01*
X181500000Y-115500000D02*
X176600000Y-110600000D01*
X209700000Y-115500000D02*
X181500000Y-115500000D01*
X209700000Y-110000000D02*
X210900000Y-108800000D01*
X209700000Y-115500000D02*
X209700000Y-110000000D01*
X229200000Y-87400000D02*
X227900000Y-87400000D01*
X227900000Y-87400000D02*
X226900000Y-86400000D01*
X225839998Y-86400000D02*
X222939998Y-83500000D01*
X226900000Y-86400000D02*
X225839998Y-86400000D01*
X173777999Y-105313999D02*
X173777999Y-107877999D01*
X177391998Y-101700000D02*
X173777999Y-105313999D01*
X185600000Y-101700000D02*
X177391998Y-101700000D01*
X175000000Y-109100000D02*
X183000000Y-109100000D01*
X173777999Y-107877999D02*
X175000000Y-109100000D01*
X200400000Y-110300000D02*
X204500000Y-114400000D01*
X185017209Y-109000001D02*
X199100000Y-109000000D01*
X183890000Y-107872792D02*
X185017209Y-109000001D01*
X199100000Y-109000000D02*
X200400000Y-110300000D01*
X183890000Y-106600000D02*
X183890000Y-107872792D01*
X203200000Y-114500000D02*
X199400010Y-110700010D01*
X199300010Y-110700010D02*
X198000010Y-109400009D01*
X199400010Y-110700010D02*
X199300010Y-110700010D01*
X187034306Y-109400009D02*
X187799991Y-109400009D01*
X187000000Y-110000000D02*
X187000000Y-109434315D01*
X187000000Y-109434315D02*
X187034306Y-109400009D01*
X198000010Y-109400009D02*
X187799991Y-109400009D01*
X186430000Y-105327208D02*
X185902792Y-104800000D01*
X186430000Y-106600000D02*
X186430000Y-105327208D01*
X182800000Y-104800000D02*
X182700000Y-104900000D01*
X185902792Y-104800000D02*
X182800000Y-104800000D01*
X181600000Y-104900000D02*
X182700000Y-104900000D01*
X178400000Y-108100000D02*
X181600000Y-104900000D01*
D29*
X207100000Y-93700000D02*
X207900000Y-94500000D01*
X207100000Y-88999990D02*
X207100000Y-93700000D01*
D27*
X198600000Y-95100000D02*
X193800000Y-99900000D01*
X198600000Y-92300000D02*
X198600000Y-95100000D01*
D28*
X158199999Y-103899999D02*
X166000000Y-111700000D01*
X146799999Y-103899999D02*
X158199999Y-103899999D01*
X146300000Y-103400000D02*
X146799999Y-103899999D01*
D29*
X153780000Y-82040000D02*
X156440000Y-84700000D01*
X163600000Y-84700000D02*
X164500000Y-83800000D01*
X156440000Y-84700000D02*
X163600000Y-84700000D01*
D27*
X196651010Y-100948990D02*
X200900000Y-96700000D01*
X200900000Y-96700000D02*
X200900000Y-94200000D01*
X193217228Y-100948990D02*
X196651010Y-100948990D01*
X195035998Y-119820000D02*
X194863187Y-119820000D01*
X198490998Y-123275000D02*
X195035998Y-119820000D01*
X199600000Y-123275000D02*
X198490998Y-123275000D01*
X191375000Y-123275000D02*
X188100000Y-120000000D01*
X198490998Y-123275000D02*
X191375000Y-123275000D01*
X179300000Y-120000000D02*
X179200000Y-119900000D01*
X188100000Y-120000000D02*
X179300000Y-120000000D01*
X170600000Y-119900000D02*
X170300000Y-120200000D01*
X179200000Y-119900000D02*
X170600000Y-119900000D01*
X180200001Y-104099999D02*
X178900000Y-105400000D01*
X186469999Y-104099999D02*
X180200001Y-104099999D01*
X188970000Y-106600000D02*
X186469999Y-104099999D01*
X209850000Y-99350000D02*
X199800000Y-89300000D01*
X199800000Y-87200000D02*
X197900000Y-85300000D01*
X199800000Y-89300000D02*
X199800000Y-87200000D01*
X191830002Y-104500000D02*
X189300000Y-104500000D01*
X191830002Y-104500000D02*
X192900000Y-104500000D01*
X195572154Y-107172154D02*
X195572154Y-107527846D01*
X192900000Y-104500000D02*
X195572154Y-107172154D01*
X217449999Y-115569999D02*
X217750001Y-115870001D01*
X215507999Y-115569999D02*
X217449999Y-115569999D01*
X212400000Y-118677998D02*
X215507999Y-115569999D01*
X217750001Y-115870001D02*
X218600000Y-116720000D01*
X212400000Y-121600000D02*
X212400000Y-118677998D01*
X206594975Y-82200000D02*
X206594975Y-86894975D01*
X206594975Y-86894975D02*
X208600000Y-88900000D01*
X208600000Y-88900000D02*
X208600000Y-94000000D01*
X208600000Y-94000000D02*
X211200000Y-96600000D01*
X211200000Y-96600000D02*
X211200000Y-99900000D01*
X211200000Y-99900000D02*
X208900000Y-102200000D01*
X208900000Y-111500000D02*
X208900000Y-112000000D01*
X208900000Y-112000000D02*
X208200000Y-112700000D01*
X208900000Y-102200000D02*
X208900000Y-111500000D01*
X222100000Y-89706003D02*
X222100000Y-86500000D01*
X221149942Y-90656061D02*
X222100000Y-89706003D01*
D29*
X166200000Y-91800000D02*
X166200000Y-91300000D01*
X167800000Y-93400000D02*
X166200000Y-91800000D01*
X172900000Y-95000000D02*
X172900000Y-92900000D01*
X174600000Y-91200000D02*
X177100000Y-91200000D01*
X172900000Y-92900000D02*
X174600000Y-91200000D01*
X162900000Y-83600000D02*
X160420000Y-83600000D01*
X160420000Y-83600000D02*
X158860000Y-82040000D01*
D27*
X197615686Y-84550001D02*
X195965685Y-82900000D01*
X198450001Y-84550001D02*
X197615686Y-84550001D01*
X198900000Y-85000000D02*
X198450001Y-84550001D01*
X195965685Y-82900000D02*
X195400000Y-82900000D01*
X199400000Y-85000000D02*
X198900000Y-85000000D01*
X207400000Y-83100000D02*
X207400000Y-81900000D01*
X207400000Y-81900000D02*
X207900000Y-81400000D01*
X207900000Y-81400000D02*
X211800000Y-81400000D01*
X211800000Y-81400000D02*
X215500000Y-85100000D01*
X215500000Y-85100000D02*
X221736002Y-85100000D01*
X221736002Y-85100000D02*
X222800000Y-85100000D01*
X225300000Y-87600000D02*
X225300000Y-90200000D01*
X222800000Y-85100000D02*
X225300000Y-87600000D01*
X217750001Y-113330001D02*
X218600000Y-114180000D01*
X215507999Y-113029999D02*
X217449999Y-113029999D01*
X217449999Y-113029999D02*
X217750001Y-113330001D01*
X214909999Y-113627999D02*
X215507999Y-113029999D01*
X212012289Y-118500010D02*
X214909999Y-115602300D01*
X211999990Y-118500010D02*
X212012289Y-118500010D01*
X211999990Y-120964008D02*
X211999990Y-118500010D01*
X214909999Y-115602300D02*
X214909999Y-113627999D01*
X210663998Y-122300000D02*
X211999990Y-120964008D01*
X198700000Y-122300000D02*
X210663998Y-122300000D01*
X208900000Y-121900000D02*
X210498300Y-121900000D01*
X208899990Y-121899990D02*
X208900000Y-121900000D01*
X210498300Y-121900000D02*
X211599980Y-120798320D01*
X211834301Y-118100000D02*
X211846601Y-118100000D01*
X211599980Y-118334321D02*
X211834301Y-118100000D01*
X211599980Y-120798320D02*
X211599980Y-118334321D01*
X217750001Y-110790001D02*
X218600000Y-111640000D01*
X217449999Y-110489999D02*
X217750001Y-110790001D01*
X215507999Y-110489999D02*
X217449999Y-110489999D01*
X214509989Y-115436612D02*
X214509989Y-111488009D01*
X214509989Y-111488009D02*
X215507999Y-110489999D01*
X211846601Y-118100000D02*
X214509989Y-115436612D01*
X203700000Y-121900000D02*
X203000000Y-121200000D01*
X208900000Y-121900000D02*
X203700000Y-121900000D01*
D30*
G36*
X150125363Y-81125241D02*
G01*
X149968320Y-81360273D01*
X149860147Y-81621426D01*
X149805000Y-81898665D01*
X149805000Y-82181335D01*
X149860147Y-82458574D01*
X149968320Y-82719727D01*
X150125363Y-82954759D01*
X150325241Y-83154637D01*
X150560273Y-83311680D01*
X150821426Y-83419853D01*
X151098665Y-83475000D01*
X151381335Y-83475000D01*
X151658574Y-83419853D01*
X151919727Y-83311680D01*
X152154759Y-83154637D01*
X152354637Y-82954759D01*
X152510000Y-82722241D01*
X152665363Y-82954759D01*
X152865241Y-83154637D01*
X153100273Y-83311680D01*
X153361426Y-83419853D01*
X153638665Y-83475000D01*
X153921335Y-83475000D01*
X154103886Y-83438688D01*
X155876201Y-85211003D01*
X155899999Y-85240001D01*
X155928997Y-85263799D01*
X156015723Y-85334974D01*
X156104886Y-85382633D01*
X156147753Y-85405546D01*
X156291014Y-85449003D01*
X156402667Y-85460000D01*
X156402676Y-85460000D01*
X156439999Y-85463676D01*
X156477322Y-85460000D01*
X163562678Y-85460000D01*
X163600000Y-85463676D01*
X163637322Y-85460000D01*
X163637333Y-85460000D01*
X163748986Y-85449003D01*
X163892247Y-85405546D01*
X164024276Y-85334974D01*
X164140001Y-85240001D01*
X164163803Y-85210998D01*
X164439801Y-84935000D01*
X164611788Y-84935000D01*
X164831067Y-84891383D01*
X165037624Y-84805824D01*
X165223520Y-84681612D01*
X165381612Y-84523520D01*
X165505824Y-84337624D01*
X165591383Y-84131067D01*
X165635000Y-83911788D01*
X165635000Y-83688212D01*
X165591383Y-83468933D01*
X165505824Y-83262376D01*
X165381612Y-83076480D01*
X165223520Y-82918388D01*
X165037624Y-82794176D01*
X164831067Y-82708617D01*
X164611788Y-82665000D01*
X164388212Y-82665000D01*
X164168933Y-82708617D01*
X163962376Y-82794176D01*
X163776480Y-82918388D01*
X163724247Y-82970621D01*
X163703937Y-82940226D01*
X163559774Y-82796063D01*
X163390256Y-82682795D01*
X163201898Y-82604774D01*
X163001939Y-82565000D01*
X162798061Y-82565000D01*
X162730177Y-82578503D01*
X162779853Y-82458574D01*
X162835000Y-82181335D01*
X162835000Y-81898665D01*
X162779853Y-81621426D01*
X162671680Y-81360273D01*
X162514637Y-81125241D01*
X162349396Y-80960000D01*
X173995101Y-80960000D01*
X173975450Y-80979651D01*
X173714440Y-81370279D01*
X173534654Y-81804321D01*
X173443000Y-82265098D01*
X173443000Y-82734902D01*
X173534654Y-83195679D01*
X173714440Y-83629721D01*
X173975450Y-84020349D01*
X174307651Y-84352550D01*
X174698279Y-84613560D01*
X175132321Y-84793346D01*
X175593098Y-84885000D01*
X176062902Y-84885000D01*
X176523679Y-84793346D01*
X176957721Y-84613560D01*
X177348349Y-84352550D01*
X177680550Y-84020349D01*
X177941560Y-83629721D01*
X178121346Y-83195679D01*
X178213000Y-82734902D01*
X178213000Y-82265098D01*
X178121346Y-81804321D01*
X177941560Y-81370279D01*
X177680550Y-80979651D01*
X177660899Y-80960000D01*
X197739101Y-80960000D01*
X197719450Y-80979651D01*
X197458440Y-81370279D01*
X197278654Y-81804321D01*
X197187000Y-82265098D01*
X197187000Y-82734902D01*
X197273153Y-83168021D01*
X196510943Y-82405812D01*
X196487923Y-82377762D01*
X196376005Y-82285913D01*
X196248318Y-82217663D01*
X196152224Y-82188513D01*
X196059774Y-82096063D01*
X195890256Y-81982795D01*
X195701898Y-81904774D01*
X195501939Y-81865000D01*
X195298061Y-81865000D01*
X195098102Y-81904774D01*
X194909744Y-81982795D01*
X194740226Y-82096063D01*
X194596063Y-82240226D01*
X194482795Y-82409744D01*
X194404774Y-82598102D01*
X194365000Y-82798061D01*
X194365000Y-83001939D01*
X194404774Y-83201898D01*
X194482795Y-83390256D01*
X194596063Y-83559774D01*
X194740226Y-83703937D01*
X194909744Y-83817205D01*
X195098102Y-83895226D01*
X195298061Y-83935000D01*
X195501939Y-83935000D01*
X195701898Y-83895226D01*
X195857155Y-83830916D01*
X196939794Y-84913556D01*
X196904774Y-84998102D01*
X196865000Y-85198061D01*
X196865000Y-85401939D01*
X196904774Y-85601898D01*
X196982795Y-85790256D01*
X197096063Y-85959774D01*
X197240226Y-86103937D01*
X197409744Y-86217205D01*
X197598102Y-86295226D01*
X197798061Y-86335000D01*
X197895554Y-86335000D01*
X199065001Y-87504448D01*
X199065000Y-89263895D01*
X199061444Y-89300000D01*
X199075635Y-89444085D01*
X199088384Y-89486113D01*
X199117663Y-89582632D01*
X199185913Y-89710319D01*
X199277762Y-89822237D01*
X199305808Y-89845254D01*
X208815000Y-99354447D01*
X208815000Y-99451939D01*
X208854774Y-99651898D01*
X208932795Y-99840256D01*
X209046063Y-100009774D01*
X209190226Y-100153937D01*
X209359744Y-100267205D01*
X209548102Y-100345226D01*
X209687583Y-100372970D01*
X208405808Y-101654746D01*
X208377762Y-101677763D01*
X208285913Y-101789681D01*
X208217663Y-101917368D01*
X208197865Y-101982633D01*
X208175635Y-102055915D01*
X208161444Y-102200000D01*
X208165000Y-102236105D01*
X208165001Y-111463886D01*
X208165000Y-111463896D01*
X208165000Y-111665000D01*
X208098061Y-111665000D01*
X208006256Y-111683261D01*
X208032185Y-111420000D01*
X208003513Y-111128889D01*
X207918599Y-110848966D01*
X207780706Y-110590986D01*
X207595134Y-110364866D01*
X207369014Y-110179294D01*
X207111034Y-110041401D01*
X206831111Y-109956487D01*
X206612950Y-109935000D01*
X206467050Y-109935000D01*
X206248889Y-109956487D01*
X205968966Y-110041401D01*
X205710986Y-110179294D01*
X205484866Y-110364866D01*
X205460393Y-110394687D01*
X205439502Y-110325820D01*
X205380537Y-110215506D01*
X205301185Y-110118815D01*
X205204494Y-110039463D01*
X205094180Y-109980498D01*
X205025313Y-109959607D01*
X205055134Y-109935134D01*
X205240706Y-109709014D01*
X205378599Y-109451034D01*
X205463513Y-109171111D01*
X205492185Y-108880000D01*
X205463513Y-108588889D01*
X205378599Y-108308966D01*
X205240706Y-108050986D01*
X205055134Y-107824866D01*
X204829014Y-107639294D01*
X204774209Y-107610000D01*
X204829014Y-107580706D01*
X205055134Y-107395134D01*
X205240706Y-107169014D01*
X205270000Y-107114209D01*
X205299294Y-107169014D01*
X205484866Y-107395134D01*
X205710986Y-107580706D01*
X205968966Y-107718599D01*
X206248889Y-107803513D01*
X206467050Y-107825000D01*
X206612950Y-107825000D01*
X206831111Y-107803513D01*
X207111034Y-107718599D01*
X207369014Y-107580706D01*
X207595134Y-107395134D01*
X207780706Y-107169014D01*
X207918599Y-106911034D01*
X208003513Y-106631111D01*
X208032185Y-106340000D01*
X208003513Y-106048889D01*
X207918599Y-105768966D01*
X207780706Y-105510986D01*
X207595134Y-105284866D01*
X207369014Y-105099294D01*
X207314209Y-105070000D01*
X207369014Y-105040706D01*
X207595134Y-104855134D01*
X207780706Y-104629014D01*
X207918599Y-104371034D01*
X208003513Y-104091111D01*
X208032185Y-103800000D01*
X208003513Y-103508889D01*
X207918599Y-103228966D01*
X207780706Y-102970986D01*
X207595134Y-102744866D01*
X207369014Y-102559294D01*
X207111034Y-102421401D01*
X206831111Y-102336487D01*
X206612950Y-102315000D01*
X206467050Y-102315000D01*
X206248889Y-102336487D01*
X205968966Y-102421401D01*
X205710986Y-102559294D01*
X205484866Y-102744866D01*
X205299294Y-102970986D01*
X205270000Y-103025791D01*
X205240706Y-102970986D01*
X205055134Y-102744866D01*
X204829014Y-102559294D01*
X204571034Y-102421401D01*
X204291111Y-102336487D01*
X204072950Y-102315000D01*
X203927050Y-102315000D01*
X203708889Y-102336487D01*
X203428966Y-102421401D01*
X203170986Y-102559294D01*
X202944866Y-102744866D01*
X202759294Y-102970986D01*
X202621401Y-103228966D01*
X202536487Y-103508889D01*
X202507815Y-103800000D01*
X202536487Y-104091111D01*
X202621401Y-104371034D01*
X202759294Y-104629014D01*
X202944866Y-104855134D01*
X203170986Y-105040706D01*
X203225791Y-105070000D01*
X203170986Y-105099294D01*
X202944866Y-105284866D01*
X202759294Y-105510986D01*
X202621401Y-105768966D01*
X202536487Y-106048889D01*
X202507815Y-106340000D01*
X202536487Y-106631111D01*
X202621401Y-106911034D01*
X202759294Y-107169014D01*
X202944866Y-107395134D01*
X203170986Y-107580706D01*
X203225791Y-107610000D01*
X203170986Y-107639294D01*
X202944866Y-107824866D01*
X202759294Y-108050986D01*
X202621401Y-108308966D01*
X202536487Y-108588889D01*
X202507815Y-108880000D01*
X202536487Y-109171111D01*
X202621401Y-109451034D01*
X202759294Y-109709014D01*
X202944866Y-109935134D01*
X202974687Y-109959607D01*
X202905820Y-109980498D01*
X202795506Y-110039463D01*
X202698815Y-110118815D01*
X202619463Y-110215506D01*
X202560498Y-110325820D01*
X202524188Y-110445518D01*
X202511928Y-110570000D01*
X202511928Y-111372482D01*
X200945258Y-109805812D01*
X200945253Y-109805806D01*
X199821535Y-108682089D01*
X200267679Y-108593346D01*
X200701721Y-108413560D01*
X201092349Y-108152550D01*
X201424550Y-107820349D01*
X201685560Y-107429721D01*
X201865346Y-106995679D01*
X201957000Y-106534902D01*
X201957000Y-106065098D01*
X201865346Y-105604321D01*
X201685560Y-105170279D01*
X201424550Y-104779651D01*
X201092349Y-104447450D01*
X200701721Y-104186440D01*
X200267679Y-104006654D01*
X199806902Y-103915000D01*
X199337098Y-103915000D01*
X198876321Y-104006654D01*
X198442279Y-104186440D01*
X198051651Y-104447450D01*
X197719450Y-104779651D01*
X197458440Y-105170279D01*
X197278654Y-105604321D01*
X197187000Y-106065098D01*
X197187000Y-106534902D01*
X197278654Y-106995679D01*
X197458440Y-107429721D01*
X197719450Y-107820349D01*
X198051651Y-108152550D01*
X198219944Y-108265000D01*
X196298711Y-108265000D01*
X196376091Y-108187620D01*
X196489359Y-108018102D01*
X196567380Y-107829744D01*
X196607154Y-107629785D01*
X196607154Y-107425907D01*
X196567380Y-107225948D01*
X196489359Y-107037590D01*
X196376091Y-106868072D01*
X196231928Y-106723909D01*
X196062410Y-106610641D01*
X196041375Y-106601928D01*
X193445259Y-104005812D01*
X193422238Y-103977762D01*
X193310320Y-103885913D01*
X193182633Y-103817663D01*
X193044085Y-103775635D01*
X192936105Y-103765000D01*
X192900000Y-103761444D01*
X192863895Y-103765000D01*
X190028711Y-103765000D01*
X189959774Y-103696063D01*
X189790256Y-103582795D01*
X189601898Y-103504774D01*
X189401939Y-103465000D01*
X189198061Y-103465000D01*
X188998102Y-103504774D01*
X188809744Y-103582795D01*
X188640226Y-103696063D01*
X188496063Y-103840226D01*
X188382795Y-104009744D01*
X188304774Y-104198102D01*
X188265000Y-104398061D01*
X188265000Y-104601939D01*
X188304774Y-104801898D01*
X188370839Y-104961393D01*
X187015258Y-103605811D01*
X186992237Y-103577761D01*
X186880319Y-103485912D01*
X186752632Y-103417662D01*
X186614084Y-103375634D01*
X186506104Y-103364999D01*
X186469999Y-103361443D01*
X186433894Y-103364999D01*
X180236105Y-103364999D01*
X180200000Y-103361443D01*
X180055915Y-103375634D01*
X180013887Y-103388383D01*
X179917368Y-103417662D01*
X179789681Y-103485912D01*
X179677763Y-103577761D01*
X179654747Y-103605806D01*
X178995554Y-104265000D01*
X178788212Y-104265000D01*
X178568933Y-104308617D01*
X178362376Y-104394176D01*
X178176480Y-104518388D01*
X178018388Y-104676480D01*
X177894176Y-104862376D01*
X177834089Y-105007438D01*
X177680550Y-104777651D01*
X177348349Y-104445450D01*
X176957721Y-104184440D01*
X176523679Y-104004654D01*
X176192638Y-103938806D01*
X177696445Y-102435000D01*
X184871289Y-102435000D01*
X184940226Y-102503937D01*
X185109744Y-102617205D01*
X185298102Y-102695226D01*
X185498061Y-102735000D01*
X185701939Y-102735000D01*
X185901898Y-102695226D01*
X186090256Y-102617205D01*
X186259774Y-102503937D01*
X186403937Y-102359774D01*
X186517205Y-102190256D01*
X186595226Y-102001898D01*
X186635000Y-101801939D01*
X186635000Y-101598061D01*
X186595226Y-101398102D01*
X186517205Y-101209744D01*
X186403937Y-101040226D01*
X186259774Y-100896063D01*
X186171683Y-100837202D01*
X192082228Y-100837202D01*
X192082228Y-101060778D01*
X192125845Y-101280057D01*
X192211404Y-101486614D01*
X192335616Y-101672510D01*
X192493708Y-101830602D01*
X192679604Y-101954814D01*
X192886161Y-102040373D01*
X193105440Y-102083990D01*
X193329016Y-102083990D01*
X193548295Y-102040373D01*
X193754852Y-101954814D01*
X193940748Y-101830602D01*
X194087360Y-101683990D01*
X196614905Y-101683990D01*
X196651010Y-101687546D01*
X196687115Y-101683990D01*
X196795095Y-101673355D01*
X196933643Y-101631327D01*
X197061330Y-101563077D01*
X197173248Y-101471228D01*
X197196269Y-101443177D01*
X201394197Y-97245250D01*
X201422237Y-97222238D01*
X201445250Y-97194197D01*
X201445253Y-97194194D01*
X201514086Y-97110321D01*
X201514087Y-97110320D01*
X201582337Y-96982633D01*
X201624365Y-96844085D01*
X201635000Y-96736105D01*
X201635000Y-96736096D01*
X201638555Y-96700001D01*
X201635000Y-96663906D01*
X201635000Y-95070132D01*
X201781612Y-94923520D01*
X201905824Y-94737624D01*
X201991383Y-94531067D01*
X202035000Y-94311788D01*
X202035000Y-94088212D01*
X201991383Y-93868933D01*
X201905824Y-93662376D01*
X201781612Y-93476480D01*
X201623520Y-93318388D01*
X201437624Y-93194176D01*
X201231067Y-93108617D01*
X201011788Y-93065000D01*
X200788212Y-93065000D01*
X200568933Y-93108617D01*
X200362376Y-93194176D01*
X200176480Y-93318388D01*
X200018388Y-93476480D01*
X199894176Y-93662376D01*
X199808617Y-93868933D01*
X199765000Y-94088212D01*
X199765000Y-94311788D01*
X199808617Y-94531067D01*
X199894176Y-94737624D01*
X200018388Y-94923520D01*
X200165001Y-95070133D01*
X200165000Y-96395553D01*
X196346564Y-100213990D01*
X194790217Y-100213990D01*
X194795226Y-100201898D01*
X194835000Y-100001939D01*
X194835000Y-99904446D01*
X199094193Y-95645254D01*
X199122238Y-95622238D01*
X199214087Y-95510320D01*
X199282337Y-95382633D01*
X199318422Y-95263676D01*
X199324365Y-95244086D01*
X199328161Y-95205546D01*
X199335000Y-95136105D01*
X199335000Y-95136098D01*
X199338555Y-95100001D01*
X199335000Y-95063904D01*
X199335000Y-93028711D01*
X199403937Y-92959774D01*
X199517205Y-92790256D01*
X199595226Y-92601898D01*
X199635000Y-92401939D01*
X199635000Y-92198061D01*
X199595226Y-91998102D01*
X199517205Y-91809744D01*
X199403937Y-91640226D01*
X199259774Y-91496063D01*
X199090256Y-91382795D01*
X198901898Y-91304774D01*
X198701939Y-91265000D01*
X198498061Y-91265000D01*
X198298102Y-91304774D01*
X198109744Y-91382795D01*
X197940226Y-91496063D01*
X197796063Y-91640226D01*
X197682795Y-91809744D01*
X197604774Y-91998102D01*
X197565000Y-92198061D01*
X197565000Y-92401939D01*
X197604774Y-92601898D01*
X197682795Y-92790256D01*
X197796063Y-92959774D01*
X197865000Y-93028711D01*
X197865001Y-94795552D01*
X193795554Y-98865000D01*
X193698061Y-98865000D01*
X193498102Y-98904774D01*
X193309744Y-98982795D01*
X193140226Y-99096063D01*
X192996063Y-99240226D01*
X192882795Y-99409744D01*
X192804774Y-99598102D01*
X192765000Y-99798061D01*
X192765000Y-99907794D01*
X192679604Y-99943166D01*
X192493708Y-100067378D01*
X192335616Y-100225470D01*
X192211404Y-100411366D01*
X192125845Y-100617923D01*
X192082228Y-100837202D01*
X186171683Y-100837202D01*
X186090256Y-100782795D01*
X185901898Y-100704774D01*
X185701939Y-100665000D01*
X185498061Y-100665000D01*
X185298102Y-100704774D01*
X185109744Y-100782795D01*
X184940226Y-100896063D01*
X184871289Y-100965000D01*
X177428092Y-100965000D01*
X177391997Y-100961445D01*
X177355902Y-100965000D01*
X177355893Y-100965000D01*
X177247913Y-100975635D01*
X177109365Y-101017663D01*
X176981678Y-101085913D01*
X176869760Y-101177762D01*
X176846744Y-101205807D01*
X173283807Y-104768745D01*
X173255761Y-104791762D01*
X173163912Y-104903680D01*
X173095662Y-105031367D01*
X173066383Y-105127886D01*
X173053634Y-105169914D01*
X173039443Y-105313999D01*
X173042999Y-105350104D01*
X173043000Y-107841884D01*
X173039443Y-107877999D01*
X173053634Y-108022084D01*
X173089991Y-108141933D01*
X173095663Y-108160632D01*
X173163913Y-108288319D01*
X173255762Y-108400237D01*
X173283807Y-108423253D01*
X174454746Y-109594193D01*
X174477762Y-109622238D01*
X174589680Y-109714087D01*
X174717367Y-109782337D01*
X174855915Y-109824365D01*
X174963895Y-109835000D01*
X174963904Y-109835000D01*
X174999999Y-109838555D01*
X175036094Y-109835000D01*
X175759868Y-109835000D01*
X175729868Y-109865000D01*
X171004447Y-109865000D01*
X168735000Y-107595554D01*
X168735000Y-107388212D01*
X168691383Y-107168933D01*
X168605824Y-106962376D01*
X168481612Y-106776480D01*
X168323520Y-106618388D01*
X168137624Y-106494176D01*
X167931067Y-106408617D01*
X167711788Y-106365000D01*
X167488212Y-106365000D01*
X167268933Y-106408617D01*
X167062376Y-106494176D01*
X166876480Y-106618388D01*
X166718388Y-106776480D01*
X166594176Y-106962376D01*
X166508617Y-107168933D01*
X166465000Y-107388212D01*
X166465000Y-107611788D01*
X166508617Y-107831067D01*
X166594176Y-108037624D01*
X166718388Y-108223520D01*
X166765001Y-108270133D01*
X166765000Y-110859868D01*
X166723520Y-110818388D01*
X166537624Y-110694176D01*
X166331067Y-110608617D01*
X166111788Y-110565000D01*
X166045868Y-110565000D01*
X159230319Y-103749452D01*
X159278574Y-103739853D01*
X159539727Y-103631680D01*
X159774759Y-103474637D01*
X159974637Y-103274759D01*
X160130000Y-103042241D01*
X160285363Y-103274759D01*
X160485241Y-103474637D01*
X160720273Y-103631680D01*
X160981426Y-103739853D01*
X161258665Y-103795000D01*
X161541335Y-103795000D01*
X161818574Y-103739853D01*
X162079727Y-103631680D01*
X162314759Y-103474637D01*
X162514637Y-103274759D01*
X162671680Y-103039727D01*
X162779853Y-102778574D01*
X162835000Y-102501335D01*
X162835000Y-102218665D01*
X162779853Y-101941426D01*
X162671680Y-101680273D01*
X162514637Y-101445241D01*
X162314759Y-101245363D01*
X162079727Y-101088320D01*
X161818574Y-100980147D01*
X161541335Y-100925000D01*
X161258665Y-100925000D01*
X160981426Y-100980147D01*
X160720273Y-101088320D01*
X160485241Y-101245363D01*
X160285363Y-101445241D01*
X160130000Y-101677759D01*
X159974637Y-101445241D01*
X159774759Y-101245363D01*
X159539727Y-101088320D01*
X159278574Y-100980147D01*
X159001335Y-100925000D01*
X158718665Y-100925000D01*
X158441426Y-100980147D01*
X158180273Y-101088320D01*
X157945241Y-101245363D01*
X157745363Y-101445241D01*
X157590000Y-101677759D01*
X157434637Y-101445241D01*
X157234759Y-101245363D01*
X156999727Y-101088320D01*
X156738574Y-100980147D01*
X156461335Y-100925000D01*
X156178665Y-100925000D01*
X155901426Y-100980147D01*
X155640273Y-101088320D01*
X155405241Y-101245363D01*
X155205363Y-101445241D01*
X155050000Y-101677759D01*
X154894637Y-101445241D01*
X154694759Y-101245363D01*
X154459727Y-101088320D01*
X154198574Y-100980147D01*
X153921335Y-100925000D01*
X153638665Y-100925000D01*
X153361426Y-100980147D01*
X153100273Y-101088320D01*
X152865241Y-101245363D01*
X152665363Y-101445241D01*
X152508320Y-101680273D01*
X152400147Y-101941426D01*
X152345000Y-102218665D01*
X152345000Y-102501335D01*
X152400147Y-102778574D01*
X152508320Y-103039727D01*
X152525206Y-103064999D01*
X147389753Y-103064999D01*
X147305824Y-102862376D01*
X147181612Y-102676480D01*
X147023520Y-102518388D01*
X146837624Y-102394176D01*
X146631067Y-102308617D01*
X146411788Y-102265000D01*
X146188212Y-102265000D01*
X145968933Y-102308617D01*
X145762376Y-102394176D01*
X145576480Y-102518388D01*
X145418388Y-102676480D01*
X145294176Y-102862376D01*
X145208617Y-103068933D01*
X145165000Y-103288212D01*
X145165000Y-103511788D01*
X145208617Y-103731067D01*
X145294176Y-103937624D01*
X145418388Y-104123520D01*
X145576480Y-104281612D01*
X145762376Y-104405824D01*
X145968933Y-104491383D01*
X146188212Y-104535000D01*
X146257532Y-104535000D01*
X146333853Y-104597635D01*
X146478912Y-104675171D01*
X146636310Y-104722917D01*
X146758980Y-104734999D01*
X146758990Y-104734999D01*
X146799998Y-104739038D01*
X146841006Y-104734999D01*
X157854132Y-104734999D01*
X164865000Y-111745868D01*
X164865000Y-111811788D01*
X164908617Y-112031067D01*
X164994176Y-112237624D01*
X165079286Y-112365000D01*
X162041018Y-112365000D01*
X162000000Y-112360960D01*
X161958982Y-112365000D01*
X161958981Y-112365000D01*
X161836311Y-112377082D01*
X161678913Y-112424828D01*
X161533854Y-112502364D01*
X161406709Y-112606709D01*
X161380563Y-112638568D01*
X160438574Y-113580559D01*
X160406710Y-113606709D01*
X160341797Y-113685806D01*
X160302364Y-113733855D01*
X160224828Y-113878914D01*
X160199635Y-113961964D01*
X160075518Y-113974188D01*
X159955820Y-114010498D01*
X159845506Y-114069463D01*
X159748815Y-114148815D01*
X159669463Y-114245506D01*
X159610498Y-114355820D01*
X159574188Y-114475518D01*
X159561928Y-114600000D01*
X159561928Y-116200000D01*
X159574188Y-116324482D01*
X159610498Y-116444180D01*
X159669463Y-116554494D01*
X159748815Y-116651185D01*
X159845506Y-116730537D01*
X159955820Y-116789502D01*
X160075518Y-116825812D01*
X160200000Y-116838072D01*
X161800000Y-116838072D01*
X161924482Y-116825812D01*
X162044180Y-116789502D01*
X162154494Y-116730537D01*
X162251185Y-116651185D01*
X162330537Y-116554494D01*
X162389502Y-116444180D01*
X162425812Y-116324482D01*
X162438072Y-116200000D01*
X162438072Y-114600000D01*
X162425812Y-114475518D01*
X162389502Y-114355820D01*
X162330537Y-114245506D01*
X162251185Y-114148815D01*
X162240677Y-114140191D01*
X162345868Y-114035000D01*
X165938984Y-114035000D01*
X165980002Y-114039040D01*
X166021020Y-114035000D01*
X166021021Y-114035000D01*
X166143691Y-114022918D01*
X166301089Y-113975172D01*
X166446148Y-113897636D01*
X166573293Y-113793291D01*
X166599448Y-113761421D01*
X168161428Y-112199442D01*
X168193291Y-112173293D01*
X168297636Y-112046148D01*
X168375172Y-111901089D01*
X168422918Y-111743691D01*
X168428070Y-111691383D01*
X168439040Y-111580003D01*
X168435000Y-111538984D01*
X168435000Y-109374446D01*
X170154746Y-111094193D01*
X170177762Y-111122238D01*
X170289680Y-111214087D01*
X170417367Y-111282337D01*
X170513886Y-111311616D01*
X170555914Y-111324365D01*
X170699999Y-111338556D01*
X170736104Y-111335000D01*
X175729868Y-111335000D01*
X175876480Y-111481612D01*
X176062376Y-111605824D01*
X176268933Y-111691383D01*
X176488212Y-111735000D01*
X176695554Y-111735000D01*
X180954746Y-115994193D01*
X180977762Y-116022238D01*
X181089680Y-116114087D01*
X181217367Y-116182337D01*
X181355915Y-116224365D01*
X181463895Y-116235000D01*
X181463904Y-116235000D01*
X181499999Y-116238555D01*
X181536094Y-116235000D01*
X208829868Y-116235000D01*
X208976480Y-116381612D01*
X209162376Y-116505824D01*
X209368933Y-116591383D01*
X209588212Y-116635000D01*
X209811788Y-116635000D01*
X210031067Y-116591383D01*
X210237624Y-116505824D01*
X210423520Y-116381612D01*
X210581612Y-116223520D01*
X210705824Y-116037624D01*
X210791383Y-115831067D01*
X210835000Y-115611788D01*
X210835000Y-115388212D01*
X210791383Y-115168933D01*
X210705824Y-114962376D01*
X210581612Y-114776480D01*
X210435000Y-114629868D01*
X210435000Y-110304446D01*
X210804446Y-109935000D01*
X211011788Y-109935000D01*
X211231067Y-109891383D01*
X211437624Y-109805824D01*
X211623520Y-109681612D01*
X211781612Y-109523520D01*
X211905824Y-109337624D01*
X211991383Y-109131067D01*
X212035000Y-108911788D01*
X212035000Y-108688212D01*
X211991383Y-108468933D01*
X211905824Y-108262376D01*
X211781612Y-108076480D01*
X211623520Y-107918388D01*
X211437624Y-107794176D01*
X211231067Y-107708617D01*
X211011788Y-107665000D01*
X210788212Y-107665000D01*
X210568933Y-107708617D01*
X210362376Y-107794176D01*
X210176480Y-107918388D01*
X210018388Y-108076480D01*
X209894176Y-108262376D01*
X209808617Y-108468933D01*
X209765000Y-108688212D01*
X209765000Y-108895554D01*
X209635000Y-109025554D01*
X209635000Y-102639335D01*
X211765000Y-102639335D01*
X211765000Y-103360664D01*
X211782870Y-103542101D01*
X211853489Y-103774900D01*
X211968167Y-103989448D01*
X212122498Y-104177502D01*
X212310551Y-104331833D01*
X212525099Y-104446511D01*
X212757898Y-104517130D01*
X213000000Y-104540975D01*
X213242101Y-104517130D01*
X213474900Y-104446511D01*
X213689448Y-104331833D01*
X213877502Y-104177502D01*
X213909191Y-104138889D01*
X213911595Y-104143387D01*
X214022038Y-104277962D01*
X214156613Y-104388405D01*
X214310149Y-104470472D01*
X214476745Y-104521008D01*
X214649999Y-104538072D01*
X215350001Y-104538072D01*
X215523255Y-104521008D01*
X215689851Y-104470472D01*
X215843387Y-104388405D01*
X215977962Y-104277962D01*
X216088405Y-104143387D01*
X216111595Y-104100000D01*
X221659025Y-104100000D01*
X221682870Y-104342102D01*
X221753489Y-104574901D01*
X221868167Y-104789449D01*
X222022498Y-104977502D01*
X222210551Y-105131833D01*
X222425099Y-105246511D01*
X222657898Y-105317130D01*
X222839335Y-105335000D01*
X223560665Y-105335000D01*
X223742102Y-105317130D01*
X223974901Y-105246511D01*
X224189449Y-105131833D01*
X224377502Y-104977502D01*
X224531833Y-104789449D01*
X224646511Y-104574901D01*
X224717130Y-104342102D01*
X224740975Y-104100000D01*
X226459025Y-104100000D01*
X226482870Y-104342102D01*
X226553489Y-104574901D01*
X226668167Y-104789449D01*
X226822498Y-104977502D01*
X227010551Y-105131833D01*
X227225099Y-105246511D01*
X227457898Y-105317130D01*
X227639335Y-105335000D01*
X228360665Y-105335000D01*
X228542102Y-105317130D01*
X228774901Y-105246511D01*
X228989449Y-105131833D01*
X229177502Y-104977502D01*
X229331833Y-104789449D01*
X229446511Y-104574901D01*
X229517130Y-104342102D01*
X229540975Y-104100000D01*
X229517130Y-103857898D01*
X229446511Y-103625099D01*
X229331833Y-103410551D01*
X229177502Y-103222498D01*
X229138889Y-103190809D01*
X229143387Y-103188405D01*
X229277962Y-103077962D01*
X229388405Y-102943387D01*
X229470472Y-102789851D01*
X229521008Y-102623255D01*
X229538072Y-102450001D01*
X229538072Y-101749999D01*
X229521008Y-101576745D01*
X229470472Y-101410149D01*
X229388405Y-101256613D01*
X229277962Y-101122038D01*
X229143387Y-101011595D01*
X228989851Y-100929528D01*
X228823255Y-100878992D01*
X228650001Y-100861928D01*
X227349999Y-100861928D01*
X227176745Y-100878992D01*
X227010149Y-100929528D01*
X226856613Y-101011595D01*
X226722038Y-101122038D01*
X226611595Y-101256613D01*
X226529528Y-101410149D01*
X226478992Y-101576745D01*
X226461928Y-101749999D01*
X226461928Y-102450001D01*
X226478992Y-102623255D01*
X226529528Y-102789851D01*
X226611595Y-102943387D01*
X226722038Y-103077962D01*
X226856613Y-103188405D01*
X226861111Y-103190809D01*
X226822498Y-103222498D01*
X226668167Y-103410551D01*
X226553489Y-103625099D01*
X226482870Y-103857898D01*
X226459025Y-104100000D01*
X224740975Y-104100000D01*
X224717130Y-103857898D01*
X224646511Y-103625099D01*
X224531833Y-103410551D01*
X224377502Y-103222498D01*
X224338889Y-103190809D01*
X224343387Y-103188405D01*
X224477962Y-103077962D01*
X224588405Y-102943387D01*
X224670472Y-102789851D01*
X224721008Y-102623255D01*
X224738072Y-102450001D01*
X224738072Y-101749999D01*
X224721008Y-101576745D01*
X224670472Y-101410149D01*
X224588405Y-101256613D01*
X224477962Y-101122038D01*
X224343387Y-101011595D01*
X224189851Y-100929528D01*
X224023255Y-100878992D01*
X223850001Y-100861928D01*
X222549999Y-100861928D01*
X222376745Y-100878992D01*
X222210149Y-100929528D01*
X222056613Y-101011595D01*
X221922038Y-101122038D01*
X221811595Y-101256613D01*
X221729528Y-101410149D01*
X221678992Y-101576745D01*
X221661928Y-101749999D01*
X221661928Y-102450001D01*
X221678992Y-102623255D01*
X221729528Y-102789851D01*
X221811595Y-102943387D01*
X221922038Y-103077962D01*
X222056613Y-103188405D01*
X222061111Y-103190809D01*
X222022498Y-103222498D01*
X221868167Y-103410551D01*
X221753489Y-103625099D01*
X221682870Y-103857898D01*
X221659025Y-104100000D01*
X216111595Y-104100000D01*
X216170472Y-103989851D01*
X216221008Y-103823255D01*
X216238072Y-103650001D01*
X216238072Y-102349999D01*
X216221008Y-102176745D01*
X216170472Y-102010149D01*
X216088405Y-101856613D01*
X215977962Y-101722038D01*
X215843387Y-101611595D01*
X215689851Y-101529528D01*
X215523255Y-101478992D01*
X215350001Y-101461928D01*
X214649999Y-101461928D01*
X214476745Y-101478992D01*
X214310149Y-101529528D01*
X214156613Y-101611595D01*
X214022038Y-101722038D01*
X213911595Y-101856613D01*
X213909191Y-101861111D01*
X213877502Y-101822498D01*
X213689449Y-101668167D01*
X213474901Y-101553489D01*
X213242102Y-101482870D01*
X213000000Y-101459025D01*
X212757899Y-101482870D01*
X212525100Y-101553489D01*
X212310552Y-101668167D01*
X212122499Y-101822498D01*
X211968168Y-102010551D01*
X211853489Y-102225099D01*
X211782870Y-102457898D01*
X211765000Y-102639335D01*
X209635000Y-102639335D01*
X209635000Y-102504446D01*
X211694194Y-100445253D01*
X211722238Y-100422238D01*
X211814087Y-100310320D01*
X211882337Y-100182633D01*
X211924365Y-100044085D01*
X211935000Y-99936105D01*
X211935000Y-99936096D01*
X211938555Y-99900001D01*
X211935000Y-99863906D01*
X211935000Y-96749999D01*
X212961928Y-96749999D01*
X212961928Y-98050001D01*
X212978992Y-98223255D01*
X213029528Y-98389851D01*
X213111595Y-98543387D01*
X213222038Y-98677962D01*
X213356613Y-98788405D01*
X213510149Y-98870472D01*
X213676745Y-98921008D01*
X213849999Y-98938072D01*
X214550001Y-98938072D01*
X214723255Y-98921008D01*
X214889851Y-98870472D01*
X215043387Y-98788405D01*
X215177962Y-98677962D01*
X215288405Y-98543387D01*
X215290810Y-98538888D01*
X215322499Y-98577502D01*
X215510552Y-98731833D01*
X215725100Y-98846511D01*
X215957899Y-98917130D01*
X216200000Y-98940975D01*
X216442102Y-98917130D01*
X216674901Y-98846511D01*
X216889449Y-98731833D01*
X217077502Y-98577502D01*
X217231833Y-98389449D01*
X217346511Y-98174901D01*
X217417130Y-97942101D01*
X217435000Y-97760664D01*
X217435000Y-97039335D01*
X221965000Y-97039335D01*
X221965000Y-97760664D01*
X221982870Y-97942101D01*
X222053489Y-98174900D01*
X222168167Y-98389448D01*
X222322498Y-98577502D01*
X222510551Y-98731833D01*
X222725099Y-98846511D01*
X222957898Y-98917130D01*
X223200000Y-98940975D01*
X223442101Y-98917130D01*
X223674900Y-98846511D01*
X223889448Y-98731833D01*
X224077502Y-98577502D01*
X224109191Y-98538889D01*
X224111595Y-98543387D01*
X224222038Y-98677962D01*
X224356613Y-98788405D01*
X224510149Y-98870472D01*
X224676745Y-98921008D01*
X224849999Y-98938072D01*
X225550001Y-98938072D01*
X225723255Y-98921008D01*
X225889851Y-98870472D01*
X226043387Y-98788405D01*
X226177962Y-98677962D01*
X226288405Y-98543387D01*
X226370472Y-98389851D01*
X226421008Y-98223255D01*
X226438072Y-98050001D01*
X226438072Y-96749999D01*
X226421008Y-96576745D01*
X226370472Y-96410149D01*
X226288405Y-96256613D01*
X226177962Y-96122038D01*
X226043387Y-96011595D01*
X225889851Y-95929528D01*
X225723255Y-95878992D01*
X225550001Y-95861928D01*
X224849999Y-95861928D01*
X224676745Y-95878992D01*
X224510149Y-95929528D01*
X224356613Y-96011595D01*
X224222038Y-96122038D01*
X224111595Y-96256613D01*
X224109191Y-96261111D01*
X224077502Y-96222498D01*
X223889449Y-96068167D01*
X223674901Y-95953489D01*
X223442102Y-95882870D01*
X223200000Y-95859025D01*
X222957899Y-95882870D01*
X222725100Y-95953489D01*
X222510552Y-96068167D01*
X222322499Y-96222498D01*
X222168168Y-96410551D01*
X222053489Y-96625099D01*
X221982870Y-96857898D01*
X221965000Y-97039335D01*
X217435000Y-97039335D01*
X217417130Y-96857898D01*
X217346511Y-96625099D01*
X217231833Y-96410551D01*
X217077502Y-96222498D01*
X216889448Y-96068167D01*
X216674900Y-95953489D01*
X216442101Y-95882870D01*
X216200000Y-95859025D01*
X215957898Y-95882870D01*
X215725099Y-95953489D01*
X215510551Y-96068167D01*
X215322498Y-96222498D01*
X215290809Y-96261111D01*
X215288405Y-96256613D01*
X215177962Y-96122038D01*
X215043387Y-96011595D01*
X214889851Y-95929528D01*
X214723255Y-95878992D01*
X214550001Y-95861928D01*
X213849999Y-95861928D01*
X213676745Y-95878992D01*
X213510149Y-95929528D01*
X213356613Y-96011595D01*
X213222038Y-96122038D01*
X213111595Y-96256613D01*
X213029528Y-96410149D01*
X212978992Y-96576745D01*
X212961928Y-96749999D01*
X211935000Y-96749999D01*
X211935000Y-96636094D01*
X211938555Y-96599999D01*
X211935000Y-96563904D01*
X211935000Y-96563895D01*
X211924365Y-96455915D01*
X211882337Y-96317367D01*
X211814087Y-96189680D01*
X211758574Y-96122038D01*
X211745253Y-96105806D01*
X211745250Y-96105803D01*
X211722237Y-96077762D01*
X211694197Y-96054750D01*
X209335000Y-93695554D01*
X209335000Y-88936105D01*
X209338556Y-88900000D01*
X209324365Y-88755915D01*
X209282337Y-88617366D01*
X209214087Y-88489680D01*
X209145253Y-88405806D01*
X209145250Y-88405803D01*
X209122237Y-88377762D01*
X209094197Y-88354750D01*
X207329975Y-86590529D01*
X207329975Y-84135000D01*
X207501939Y-84135000D01*
X207701898Y-84095226D01*
X207876763Y-84022794D01*
X207922038Y-84077962D01*
X208056613Y-84188405D01*
X208061111Y-84190809D01*
X208022498Y-84222498D01*
X207868167Y-84410551D01*
X207753489Y-84625099D01*
X207682870Y-84857898D01*
X207659025Y-85100000D01*
X207682870Y-85342102D01*
X207753489Y-85574901D01*
X207868167Y-85789449D01*
X208022498Y-85977502D01*
X208210551Y-86131833D01*
X208425099Y-86246511D01*
X208657898Y-86317130D01*
X208839335Y-86335000D01*
X209560665Y-86335000D01*
X209742102Y-86317130D01*
X209974901Y-86246511D01*
X210189449Y-86131833D01*
X210377502Y-85977502D01*
X210531833Y-85789449D01*
X210646511Y-85574901D01*
X210717130Y-85342102D01*
X210740975Y-85100000D01*
X210717130Y-84857898D01*
X210646511Y-84625099D01*
X210531833Y-84410551D01*
X210377502Y-84222498D01*
X210338889Y-84190809D01*
X210343387Y-84188405D01*
X210477962Y-84077962D01*
X210588405Y-83943387D01*
X210670472Y-83789851D01*
X210721008Y-83623255D01*
X210738072Y-83450001D01*
X210738072Y-82749999D01*
X210721008Y-82576745D01*
X210670472Y-82410149D01*
X210588405Y-82256613D01*
X210488600Y-82135000D01*
X211495554Y-82135000D01*
X214954746Y-85594193D01*
X214977762Y-85622238D01*
X215089680Y-85714087D01*
X215217367Y-85782337D01*
X215288573Y-85803937D01*
X215355914Y-85824365D01*
X215370132Y-85825765D01*
X215463895Y-85835000D01*
X215463902Y-85835000D01*
X215499999Y-85838555D01*
X215536096Y-85835000D01*
X221301289Y-85835000D01*
X221296063Y-85840226D01*
X221182795Y-86009744D01*
X221104774Y-86198102D01*
X221065000Y-86398061D01*
X221065000Y-86601939D01*
X221104774Y-86801898D01*
X221182795Y-86990256D01*
X221296063Y-87159774D01*
X221365001Y-87228712D01*
X221365000Y-89401556D01*
X221145495Y-89621061D01*
X221048003Y-89621061D01*
X220848044Y-89660835D01*
X220659686Y-89738856D01*
X220490168Y-89852124D01*
X220346005Y-89996287D01*
X220232737Y-90165805D01*
X220154716Y-90354163D01*
X220114942Y-90554122D01*
X220114942Y-90758000D01*
X220154716Y-90957959D01*
X220232737Y-91146317D01*
X220346005Y-91315835D01*
X220490168Y-91459998D01*
X220659686Y-91573266D01*
X220848044Y-91651287D01*
X221048003Y-91691061D01*
X221251881Y-91691061D01*
X221451840Y-91651287D01*
X221640198Y-91573266D01*
X221809716Y-91459998D01*
X221953879Y-91315835D01*
X222067147Y-91146317D01*
X222145168Y-90957959D01*
X222184942Y-90758000D01*
X222184942Y-90660508D01*
X222594197Y-90251253D01*
X222622237Y-90228241D01*
X222645250Y-90200200D01*
X222645253Y-90200197D01*
X222676709Y-90161868D01*
X222714087Y-90116323D01*
X222782337Y-89988636D01*
X222824365Y-89850088D01*
X222835000Y-89742108D01*
X222835000Y-89742107D01*
X222838556Y-89706003D01*
X222835000Y-89669898D01*
X222835000Y-87228711D01*
X222903937Y-87159774D01*
X223017205Y-86990256D01*
X223095226Y-86801898D01*
X223135000Y-86601939D01*
X223135000Y-86474446D01*
X224565000Y-87904447D01*
X224565001Y-89471288D01*
X224496063Y-89540226D01*
X224382795Y-89709744D01*
X224304774Y-89898102D01*
X224265000Y-90098061D01*
X224265000Y-90301939D01*
X224304774Y-90501898D01*
X224382795Y-90690256D01*
X224496063Y-90859774D01*
X224640226Y-91003937D01*
X224809744Y-91117205D01*
X224998102Y-91195226D01*
X225198061Y-91235000D01*
X225401939Y-91235000D01*
X225601898Y-91195226D01*
X225790256Y-91117205D01*
X225959774Y-91003937D01*
X226103937Y-90859774D01*
X226217205Y-90690256D01*
X226295226Y-90501898D01*
X226335000Y-90301939D01*
X226335000Y-90098061D01*
X226295226Y-89898102D01*
X226217205Y-89709744D01*
X226103937Y-89540226D01*
X226035000Y-89471289D01*
X226035000Y-87636105D01*
X226038556Y-87600000D01*
X226024365Y-87455915D01*
X226007403Y-87400000D01*
X225982337Y-87317367D01*
X225914087Y-87189680D01*
X225869726Y-87135627D01*
X225876092Y-87135000D01*
X226595554Y-87135000D01*
X227354746Y-87894193D01*
X227377762Y-87922238D01*
X227405806Y-87945253D01*
X227489680Y-88014087D01*
X227617366Y-88082337D01*
X227755915Y-88124365D01*
X227900000Y-88138556D01*
X227936105Y-88135000D01*
X228829868Y-88135000D01*
X228876480Y-88181612D01*
X229062376Y-88305824D01*
X229268933Y-88391383D01*
X229488212Y-88435000D01*
X229711788Y-88435000D01*
X229931067Y-88391383D01*
X230040000Y-88346261D01*
X230040001Y-123440000D01*
X200724416Y-123440000D01*
X200735000Y-123386788D01*
X200735000Y-123163212D01*
X200709497Y-123035000D01*
X210627893Y-123035000D01*
X210663998Y-123038556D01*
X210700103Y-123035000D01*
X210808083Y-123024365D01*
X210946631Y-122982337D01*
X211074318Y-122914087D01*
X211186236Y-122822238D01*
X211209256Y-122794188D01*
X211669867Y-122333578D01*
X211740226Y-122403937D01*
X211909744Y-122517205D01*
X212098102Y-122595226D01*
X212298061Y-122635000D01*
X212501939Y-122635000D01*
X212701898Y-122595226D01*
X212890256Y-122517205D01*
X213059774Y-122403937D01*
X213203937Y-122259774D01*
X213317205Y-122090256D01*
X213395226Y-121901898D01*
X213435000Y-121701939D01*
X213435000Y-121498061D01*
X213395226Y-121298102D01*
X213317205Y-121109744D01*
X213203937Y-120940226D01*
X213135000Y-120871289D01*
X213135000Y-118982444D01*
X214731912Y-117385533D01*
X214819294Y-117549014D01*
X215004866Y-117775134D01*
X215230986Y-117960706D01*
X215285791Y-117990000D01*
X215230986Y-118019294D01*
X215004866Y-118204866D01*
X214819294Y-118430986D01*
X214681401Y-118688966D01*
X214596487Y-118968889D01*
X214567815Y-119260000D01*
X214596487Y-119551111D01*
X214681401Y-119831034D01*
X214819294Y-120089014D01*
X215004866Y-120315134D01*
X215230986Y-120500706D01*
X215285791Y-120530000D01*
X215230986Y-120559294D01*
X215004866Y-120744866D01*
X214819294Y-120970986D01*
X214681401Y-121228966D01*
X214596487Y-121508889D01*
X214567815Y-121800000D01*
X214596487Y-122091111D01*
X214681401Y-122371034D01*
X214819294Y-122629014D01*
X215004866Y-122855134D01*
X215230986Y-123040706D01*
X215488966Y-123178599D01*
X215768889Y-123263513D01*
X215987050Y-123285000D01*
X216132950Y-123285000D01*
X216351111Y-123263513D01*
X216631034Y-123178599D01*
X216889014Y-123040706D01*
X217115134Y-122855134D01*
X217300706Y-122629014D01*
X217330000Y-122574209D01*
X217359294Y-122629014D01*
X217544866Y-122855134D01*
X217770986Y-123040706D01*
X218028966Y-123178599D01*
X218308889Y-123263513D01*
X218527050Y-123285000D01*
X218672950Y-123285000D01*
X218891111Y-123263513D01*
X219171034Y-123178599D01*
X219429014Y-123040706D01*
X219655134Y-122855134D01*
X219840706Y-122629014D01*
X219978599Y-122371034D01*
X220063513Y-122091111D01*
X220092185Y-121800000D01*
X220063513Y-121508889D01*
X219978599Y-121228966D01*
X219840706Y-120970986D01*
X219655134Y-120744866D01*
X219429014Y-120559294D01*
X219374209Y-120530000D01*
X219429014Y-120500706D01*
X219655134Y-120315134D01*
X219840706Y-120089014D01*
X219978599Y-119831034D01*
X219994118Y-119779872D01*
X224165000Y-119779872D01*
X224165000Y-120220128D01*
X224250890Y-120651925D01*
X224419369Y-121058669D01*
X224663962Y-121424729D01*
X224975271Y-121736038D01*
X225341331Y-121980631D01*
X225748075Y-122149110D01*
X226179872Y-122235000D01*
X226620128Y-122235000D01*
X227051925Y-122149110D01*
X227458669Y-121980631D01*
X227824729Y-121736038D01*
X228136038Y-121424729D01*
X228380631Y-121058669D01*
X228549110Y-120651925D01*
X228635000Y-120220128D01*
X228635000Y-119779872D01*
X228549110Y-119348075D01*
X228380631Y-118941331D01*
X228136038Y-118575271D01*
X227824729Y-118263962D01*
X227458669Y-118019369D01*
X227051925Y-117850890D01*
X226620128Y-117765000D01*
X226179872Y-117765000D01*
X225748075Y-117850890D01*
X225341331Y-118019369D01*
X224975271Y-118263962D01*
X224663962Y-118575271D01*
X224419369Y-118941331D01*
X224250890Y-119348075D01*
X224165000Y-119779872D01*
X219994118Y-119779872D01*
X220063513Y-119551111D01*
X220092185Y-119260000D01*
X220063513Y-118968889D01*
X219978599Y-118688966D01*
X219840706Y-118430986D01*
X219655134Y-118204866D01*
X219429014Y-118019294D01*
X219374209Y-117990000D01*
X219429014Y-117960706D01*
X219655134Y-117775134D01*
X219840706Y-117549014D01*
X219978599Y-117291034D01*
X220063513Y-117011111D01*
X220092185Y-116720000D01*
X220063513Y-116428889D01*
X219978599Y-116148966D01*
X219840706Y-115890986D01*
X219655134Y-115664866D01*
X219429014Y-115479294D01*
X219374209Y-115450000D01*
X219429014Y-115420706D01*
X219655134Y-115235134D01*
X219840706Y-115009014D01*
X219978599Y-114751034D01*
X220063513Y-114471111D01*
X220092185Y-114180000D01*
X220063513Y-113888889D01*
X219978599Y-113608966D01*
X219840706Y-113350986D01*
X219655134Y-113124866D01*
X219429014Y-112939294D01*
X219374209Y-112910000D01*
X219429014Y-112880706D01*
X219655134Y-112695134D01*
X219840706Y-112469014D01*
X219978599Y-112211034D01*
X220063513Y-111931111D01*
X220092185Y-111640000D01*
X220063513Y-111348889D01*
X219978599Y-111068966D01*
X219840706Y-110810986D01*
X219655134Y-110584866D01*
X219429014Y-110399294D01*
X219171034Y-110261401D01*
X218891111Y-110176487D01*
X218672950Y-110155000D01*
X218527050Y-110155000D01*
X218308889Y-110176487D01*
X218206878Y-110207432D01*
X217995258Y-109995812D01*
X217972237Y-109967761D01*
X217860319Y-109875912D01*
X217732632Y-109807662D01*
X217594084Y-109765634D01*
X217486104Y-109754999D01*
X217449999Y-109751443D01*
X217413894Y-109754999D01*
X215544093Y-109754999D01*
X215507998Y-109751444D01*
X215471903Y-109754999D01*
X215471894Y-109754999D01*
X215363914Y-109765634D01*
X215225366Y-109807662D01*
X215097679Y-109875912D01*
X214985761Y-109967761D01*
X214962745Y-109995806D01*
X214015797Y-110942755D01*
X213987752Y-110965771D01*
X213895903Y-111077689D01*
X213827653Y-111205376D01*
X213785624Y-111343924D01*
X213771433Y-111488009D01*
X213774990Y-111524124D01*
X213774989Y-115132165D01*
X211408706Y-117498449D01*
X211312063Y-117577762D01*
X211289042Y-117605813D01*
X211105788Y-117789067D01*
X211077743Y-117812083D01*
X210985894Y-117924001D01*
X210968836Y-117955915D01*
X210917644Y-118051688D01*
X210875615Y-118190236D01*
X210861424Y-118334321D01*
X210864981Y-118370436D01*
X210864980Y-120493873D01*
X210193854Y-121165000D01*
X208936197Y-121165000D01*
X208899990Y-121161434D01*
X208863783Y-121165000D01*
X204035000Y-121165000D01*
X204035000Y-121098061D01*
X203995226Y-120898102D01*
X203917205Y-120709744D01*
X203803937Y-120540226D01*
X203659774Y-120396063D01*
X203490256Y-120282795D01*
X203301898Y-120204774D01*
X203101939Y-120165000D01*
X202898061Y-120165000D01*
X202698102Y-120204774D01*
X202509744Y-120282795D01*
X202409898Y-120349510D01*
X202301898Y-120304774D01*
X202101939Y-120265000D01*
X201898061Y-120265000D01*
X201698102Y-120304774D01*
X201509744Y-120382795D01*
X201340226Y-120496063D01*
X201196063Y-120640226D01*
X201082795Y-120809744D01*
X201004774Y-120998102D01*
X200965000Y-121198061D01*
X200965000Y-121401939D01*
X200997435Y-121565000D01*
X199428711Y-121565000D01*
X199359774Y-121496063D01*
X199190256Y-121382795D01*
X199001898Y-121304774D01*
X198801939Y-121265000D01*
X198598061Y-121265000D01*
X198398102Y-121304774D01*
X198209744Y-121382795D01*
X198040226Y-121496063D01*
X197896063Y-121640226D01*
X197895906Y-121640461D01*
X195998187Y-119742743D01*
X195998187Y-119708212D01*
X195954570Y-119488933D01*
X195869011Y-119282376D01*
X195744799Y-119096480D01*
X195586707Y-118938388D01*
X195400811Y-118814176D01*
X195194254Y-118728617D01*
X194974975Y-118685000D01*
X194751399Y-118685000D01*
X194532120Y-118728617D01*
X194325563Y-118814176D01*
X194139667Y-118938388D01*
X193981575Y-119096480D01*
X193857363Y-119282376D01*
X193771804Y-119488933D01*
X193728187Y-119708212D01*
X193728187Y-119931788D01*
X193771804Y-120151067D01*
X193857363Y-120357624D01*
X193981575Y-120543520D01*
X194139667Y-120701612D01*
X194325563Y-120825824D01*
X194532120Y-120911383D01*
X194751399Y-120955000D01*
X194974975Y-120955000D01*
X195105574Y-120929022D01*
X196716551Y-122540000D01*
X191679447Y-122540000D01*
X189235000Y-120095554D01*
X189235000Y-119888212D01*
X189191383Y-119668933D01*
X189105824Y-119462376D01*
X188981612Y-119276480D01*
X188823520Y-119118388D01*
X188637624Y-118994176D01*
X188431067Y-118908617D01*
X188211788Y-118865000D01*
X187988212Y-118865000D01*
X187768933Y-118908617D01*
X187562376Y-118994176D01*
X187376480Y-119118388D01*
X187229868Y-119265000D01*
X180140759Y-119265000D01*
X180081612Y-119176480D01*
X179923520Y-119018388D01*
X179737624Y-118894176D01*
X179531067Y-118808617D01*
X179311788Y-118765000D01*
X179088212Y-118765000D01*
X178868933Y-118808617D01*
X178662376Y-118894176D01*
X178476480Y-119018388D01*
X178329868Y-119165000D01*
X170767187Y-119165000D01*
X170631067Y-119108617D01*
X170411788Y-119065000D01*
X170188212Y-119065000D01*
X169968933Y-119108617D01*
X169762376Y-119194176D01*
X169576480Y-119318388D01*
X169418388Y-119476480D01*
X169294176Y-119662376D01*
X169208617Y-119868933D01*
X169165000Y-120088212D01*
X169165000Y-120311788D01*
X169208617Y-120531067D01*
X169294176Y-120737624D01*
X169418388Y-120923520D01*
X169576480Y-121081612D01*
X169762376Y-121205824D01*
X169968933Y-121291383D01*
X170188212Y-121335000D01*
X170411788Y-121335000D01*
X170631067Y-121291383D01*
X170837624Y-121205824D01*
X171023520Y-121081612D01*
X171181612Y-120923520D01*
X171305824Y-120737624D01*
X171348332Y-120635000D01*
X178329868Y-120635000D01*
X178476480Y-120781612D01*
X178662376Y-120905824D01*
X178868933Y-120991383D01*
X179088212Y-121035000D01*
X179311788Y-121035000D01*
X179531067Y-120991383D01*
X179737624Y-120905824D01*
X179923520Y-120781612D01*
X179970132Y-120735000D01*
X187229868Y-120735000D01*
X187376480Y-120881612D01*
X187562376Y-121005824D01*
X187768933Y-121091383D01*
X187988212Y-121135000D01*
X188195554Y-121135000D01*
X190500553Y-123440000D01*
X142460000Y-123440000D01*
X142460000Y-119779872D01*
X143365000Y-119779872D01*
X143365000Y-120220128D01*
X143450890Y-120651925D01*
X143619369Y-121058669D01*
X143863962Y-121424729D01*
X144175271Y-121736038D01*
X144541331Y-121980631D01*
X144948075Y-122149110D01*
X145379872Y-122235000D01*
X145820128Y-122235000D01*
X146251925Y-122149110D01*
X146658669Y-121980631D01*
X147024729Y-121736038D01*
X147336038Y-121424729D01*
X147493322Y-121189335D01*
X149065000Y-121189335D01*
X149065000Y-122010664D01*
X149082870Y-122192101D01*
X149153489Y-122424900D01*
X149268167Y-122639448D01*
X149422498Y-122827502D01*
X149610551Y-122981833D01*
X149825099Y-123096511D01*
X150057898Y-123167130D01*
X150300000Y-123190975D01*
X150542101Y-123167130D01*
X150774900Y-123096511D01*
X150989448Y-122981833D01*
X151177502Y-122827502D01*
X151331833Y-122639449D01*
X151446511Y-122424901D01*
X151517130Y-122192102D01*
X151535000Y-122010665D01*
X151535000Y-121189336D01*
X151517130Y-121007899D01*
X151446511Y-120775099D01*
X151331833Y-120560551D01*
X151177502Y-120372498D01*
X151000232Y-120227016D01*
X151166052Y-120260000D01*
X151433948Y-120260000D01*
X151696697Y-120207736D01*
X151944201Y-120105216D01*
X152166949Y-119956381D01*
X152356381Y-119766949D01*
X152505216Y-119544201D01*
X152607736Y-119296697D01*
X152660000Y-119033948D01*
X152660000Y-118766052D01*
X154940000Y-118766052D01*
X154940000Y-119033948D01*
X154992264Y-119296697D01*
X155094784Y-119544201D01*
X155243619Y-119766949D01*
X155433051Y-119956381D01*
X155655799Y-120105216D01*
X155903303Y-120207736D01*
X156166052Y-120260000D01*
X156433948Y-120260000D01*
X156599768Y-120227016D01*
X156422498Y-120372498D01*
X156268167Y-120560552D01*
X156153489Y-120775100D01*
X156082870Y-121007899D01*
X156065000Y-121189336D01*
X156065000Y-122010665D01*
X156082870Y-122192102D01*
X156153489Y-122424901D01*
X156268168Y-122639449D01*
X156422499Y-122827502D01*
X156610552Y-122981833D01*
X156825100Y-123096511D01*
X157057899Y-123167130D01*
X157300000Y-123190975D01*
X157542102Y-123167130D01*
X157774901Y-123096511D01*
X157989449Y-122981833D01*
X158177502Y-122827502D01*
X158331833Y-122639449D01*
X158446511Y-122424901D01*
X158517130Y-122192101D01*
X158535000Y-122010664D01*
X158535000Y-121189335D01*
X158517130Y-121007898D01*
X158446511Y-120775099D01*
X158331833Y-120560551D01*
X158177502Y-120372498D01*
X157989448Y-120218167D01*
X157774900Y-120103489D01*
X157542101Y-120032870D01*
X157300000Y-120009025D01*
X157057898Y-120032870D01*
X157047965Y-120035883D01*
X157166949Y-119956381D01*
X157356381Y-119766949D01*
X157505216Y-119544201D01*
X157607736Y-119296697D01*
X157660000Y-119033948D01*
X157660000Y-118766052D01*
X157607736Y-118503303D01*
X157505216Y-118255799D01*
X157356381Y-118033051D01*
X157166949Y-117843619D01*
X156944201Y-117694784D01*
X156696697Y-117592264D01*
X156433948Y-117540000D01*
X156166052Y-117540000D01*
X155903303Y-117592264D01*
X155655799Y-117694784D01*
X155433051Y-117843619D01*
X155243619Y-118033051D01*
X155094784Y-118255799D01*
X154992264Y-118503303D01*
X154940000Y-118766052D01*
X152660000Y-118766052D01*
X152607736Y-118503303D01*
X152505216Y-118255799D01*
X152356381Y-118033051D01*
X152166949Y-117843619D01*
X151944201Y-117694784D01*
X151696697Y-117592264D01*
X151433948Y-117540000D01*
X151166052Y-117540000D01*
X150903303Y-117592264D01*
X150655799Y-117694784D01*
X150433051Y-117843619D01*
X150243619Y-118033051D01*
X150094784Y-118255799D01*
X149992264Y-118503303D01*
X149940000Y-118766052D01*
X149940000Y-119033948D01*
X149992264Y-119296697D01*
X150094784Y-119544201D01*
X150243619Y-119766949D01*
X150433051Y-119956381D01*
X150552035Y-120035883D01*
X150542102Y-120032870D01*
X150300000Y-120009025D01*
X150057899Y-120032870D01*
X149825100Y-120103489D01*
X149610552Y-120218167D01*
X149422499Y-120372498D01*
X149268168Y-120560551D01*
X149153489Y-120775099D01*
X149082870Y-121007898D01*
X149065000Y-121189335D01*
X147493322Y-121189335D01*
X147580631Y-121058669D01*
X147749110Y-120651925D01*
X147835000Y-120220128D01*
X147835000Y-119779872D01*
X147749110Y-119348075D01*
X147580631Y-118941331D01*
X147336038Y-118575271D01*
X147024729Y-118263962D01*
X146658669Y-118019369D01*
X146251925Y-117850890D01*
X145820128Y-117765000D01*
X145379872Y-117765000D01*
X144948075Y-117850890D01*
X144541331Y-118019369D01*
X144175271Y-118263962D01*
X143863962Y-118575271D01*
X143619369Y-118941331D01*
X143450890Y-119348075D01*
X143365000Y-119779872D01*
X142460000Y-119779872D01*
X142460000Y-116120568D01*
X142637248Y-116266031D01*
X142921285Y-116417852D01*
X143229484Y-116511343D01*
X143469678Y-116535000D01*
X145130322Y-116535000D01*
X145370516Y-116511343D01*
X145678715Y-116417852D01*
X145962752Y-116266031D01*
X146211714Y-116061714D01*
X146416031Y-115812752D01*
X146567852Y-115528715D01*
X146661343Y-115220516D01*
X146692911Y-114900000D01*
X146661343Y-114579484D01*
X146567852Y-114271285D01*
X146416031Y-113987248D01*
X146211714Y-113738286D01*
X145962752Y-113533969D01*
X145678715Y-113382148D01*
X145370516Y-113288657D01*
X145130322Y-113265000D01*
X143469678Y-113265000D01*
X143229484Y-113288657D01*
X142921285Y-113382148D01*
X142637248Y-113533969D01*
X142460000Y-113679432D01*
X142460000Y-111831287D01*
X142718574Y-111779853D01*
X142979727Y-111671680D01*
X143214759Y-111514637D01*
X143414637Y-111314759D01*
X143571680Y-111079727D01*
X143679853Y-110818574D01*
X143735000Y-110541335D01*
X143735000Y-110258665D01*
X143679853Y-109981426D01*
X143571680Y-109720273D01*
X143414637Y-109485241D01*
X143214759Y-109285363D01*
X142979727Y-109128320D01*
X142718574Y-109020147D01*
X142460000Y-108968713D01*
X142460000Y-108400000D01*
X149661928Y-108400000D01*
X149661928Y-112400000D01*
X149674188Y-112524482D01*
X149710498Y-112644180D01*
X149769463Y-112754494D01*
X149848815Y-112851185D01*
X149945506Y-112930537D01*
X150055820Y-112989502D01*
X150175518Y-113025812D01*
X150300000Y-113038072D01*
X152300000Y-113038072D01*
X152424482Y-113025812D01*
X152544180Y-112989502D01*
X152654494Y-112930537D01*
X152751185Y-112851185D01*
X152830537Y-112754494D01*
X152889502Y-112644180D01*
X152925812Y-112524482D01*
X152938072Y-112400000D01*
X152938072Y-108400000D01*
X152925812Y-108275518D01*
X152889502Y-108155820D01*
X152830537Y-108045506D01*
X152751185Y-107948815D01*
X152654494Y-107869463D01*
X152544180Y-107810498D01*
X152424482Y-107774188D01*
X152300000Y-107761928D01*
X150300000Y-107761928D01*
X150175518Y-107774188D01*
X150055820Y-107810498D01*
X149945506Y-107869463D01*
X149848815Y-107948815D01*
X149769463Y-108045506D01*
X149710498Y-108155820D01*
X149674188Y-108275518D01*
X149661928Y-108400000D01*
X142460000Y-108400000D01*
X142460000Y-107120568D01*
X142637248Y-107266031D01*
X142921285Y-107417852D01*
X143229484Y-107511343D01*
X143469678Y-107535000D01*
X145130322Y-107535000D01*
X145370516Y-107511343D01*
X145678715Y-107417852D01*
X145962752Y-107266031D01*
X146211714Y-107061714D01*
X146416031Y-106812752D01*
X146567852Y-106528715D01*
X146661343Y-106220516D01*
X146692911Y-105900000D01*
X146661343Y-105579484D01*
X146567852Y-105271285D01*
X146416031Y-104987248D01*
X146211714Y-104738286D01*
X145962752Y-104533969D01*
X145678715Y-104382148D01*
X145370516Y-104288657D01*
X145130322Y-104265000D01*
X143469678Y-104265000D01*
X143229484Y-104288657D01*
X142921285Y-104382148D01*
X142637248Y-104533969D01*
X142460000Y-104679432D01*
X142460000Y-99140000D01*
X168807815Y-99140000D01*
X168836487Y-99431111D01*
X168921401Y-99711034D01*
X169059294Y-99969014D01*
X169244866Y-100195134D01*
X169470986Y-100380706D01*
X169525791Y-100410000D01*
X169470986Y-100439294D01*
X169244866Y-100624866D01*
X169059294Y-100850986D01*
X168921401Y-101108966D01*
X168836487Y-101388889D01*
X168807815Y-101680000D01*
X168836487Y-101971111D01*
X168921401Y-102251034D01*
X169059294Y-102509014D01*
X169244866Y-102735134D01*
X169470986Y-102920706D01*
X169728966Y-103058599D01*
X170008889Y-103143513D01*
X170227050Y-103165000D01*
X170372950Y-103165000D01*
X170591111Y-103143513D01*
X170871034Y-103058599D01*
X171129014Y-102920706D01*
X171355134Y-102735134D01*
X171540706Y-102509014D01*
X171678599Y-102251034D01*
X171763513Y-101971111D01*
X171792185Y-101680000D01*
X171763513Y-101388889D01*
X171678599Y-101108966D01*
X171540706Y-100850986D01*
X171355134Y-100624866D01*
X171129014Y-100439294D01*
X171074209Y-100410000D01*
X171129014Y-100380706D01*
X171355134Y-100195134D01*
X171540706Y-99969014D01*
X171678599Y-99711034D01*
X171763513Y-99431111D01*
X171792185Y-99140000D01*
X171763513Y-98848889D01*
X171678599Y-98568966D01*
X171540706Y-98310986D01*
X171355134Y-98084866D01*
X171129014Y-97899294D01*
X170871034Y-97761401D01*
X170591111Y-97676487D01*
X170372950Y-97655000D01*
X170227050Y-97655000D01*
X170008889Y-97676487D01*
X169728966Y-97761401D01*
X169470986Y-97899294D01*
X169244866Y-98084866D01*
X169059294Y-98310986D01*
X168921401Y-98568966D01*
X168836487Y-98848889D01*
X168807815Y-99140000D01*
X142460000Y-99140000D01*
X142460000Y-94898061D01*
X171865000Y-94898061D01*
X171865000Y-95101939D01*
X171904774Y-95301898D01*
X171982795Y-95490256D01*
X172096063Y-95659774D01*
X172240226Y-95803937D01*
X172409744Y-95917205D01*
X172598102Y-95995226D01*
X172798061Y-96035000D01*
X173001939Y-96035000D01*
X173201898Y-95995226D01*
X173390256Y-95917205D01*
X173559774Y-95803937D01*
X173703937Y-95659774D01*
X173817205Y-95490256D01*
X173895226Y-95301898D01*
X173935000Y-95101939D01*
X173935000Y-94898061D01*
X173895226Y-94698102D01*
X173817205Y-94509744D01*
X173703937Y-94340226D01*
X173660000Y-94296289D01*
X173660000Y-93214801D01*
X174914802Y-91960000D01*
X176396289Y-91960000D01*
X176440226Y-92003937D01*
X176609744Y-92117205D01*
X176798102Y-92195226D01*
X176998061Y-92235000D01*
X177201939Y-92235000D01*
X177401898Y-92195226D01*
X177590256Y-92117205D01*
X177759774Y-92003937D01*
X177903937Y-91859774D01*
X178017205Y-91690256D01*
X178095226Y-91501898D01*
X178135000Y-91301939D01*
X178135000Y-91098061D01*
X178095226Y-90898102D01*
X178017205Y-90709744D01*
X177903937Y-90540226D01*
X177759774Y-90396063D01*
X177590256Y-90282795D01*
X177401898Y-90204774D01*
X177201939Y-90165000D01*
X176998061Y-90165000D01*
X176798102Y-90204774D01*
X176609744Y-90282795D01*
X176440226Y-90396063D01*
X176396289Y-90440000D01*
X174637322Y-90440000D01*
X174599999Y-90436324D01*
X174562676Y-90440000D01*
X174562667Y-90440000D01*
X174451014Y-90450997D01*
X174307753Y-90494454D01*
X174175723Y-90565026D01*
X174120533Y-90610320D01*
X174059999Y-90659999D01*
X174036201Y-90688997D01*
X172388998Y-92336201D01*
X172360000Y-92359999D01*
X172336202Y-92388997D01*
X172336201Y-92388998D01*
X172265026Y-92475724D01*
X172194454Y-92607754D01*
X172164180Y-92707558D01*
X172154271Y-92740226D01*
X172150998Y-92751015D01*
X172136324Y-92900000D01*
X172140001Y-92937332D01*
X172140000Y-94296289D01*
X172096063Y-94340226D01*
X171982795Y-94509744D01*
X171904774Y-94698102D01*
X171865000Y-94898061D01*
X142460000Y-94898061D01*
X142460000Y-91198061D01*
X165165000Y-91198061D01*
X165165000Y-91401939D01*
X165204774Y-91601898D01*
X165282795Y-91790256D01*
X165396063Y-91959774D01*
X165479614Y-92043325D01*
X165494454Y-92092246D01*
X165565026Y-92224276D01*
X165597541Y-92263895D01*
X165659999Y-92340001D01*
X165689003Y-92363804D01*
X166765000Y-93439802D01*
X166765000Y-93501939D01*
X166804774Y-93701898D01*
X166882795Y-93890256D01*
X166996063Y-94059774D01*
X167140226Y-94203937D01*
X167309744Y-94317205D01*
X167498102Y-94395226D01*
X167698061Y-94435000D01*
X167901939Y-94435000D01*
X168101898Y-94395226D01*
X168290256Y-94317205D01*
X168459774Y-94203937D01*
X168603937Y-94059774D01*
X168717205Y-93890256D01*
X168795226Y-93701898D01*
X168835000Y-93501939D01*
X168835000Y-93298061D01*
X168795226Y-93098102D01*
X168717205Y-92909744D01*
X168603937Y-92740226D01*
X168459774Y-92596063D01*
X168290256Y-92482795D01*
X168101898Y-92404774D01*
X167901939Y-92365000D01*
X167839802Y-92365000D01*
X167160510Y-91685709D01*
X167195226Y-91601898D01*
X167235000Y-91401939D01*
X167235000Y-91198061D01*
X167195226Y-90998102D01*
X167117205Y-90809744D01*
X167003937Y-90640226D01*
X166859774Y-90496063D01*
X166690256Y-90382795D01*
X166501898Y-90304774D01*
X166301939Y-90265000D01*
X166098061Y-90265000D01*
X165898102Y-90304774D01*
X165709744Y-90382795D01*
X165540226Y-90496063D01*
X165396063Y-90640226D01*
X165282795Y-90809744D01*
X165204774Y-90998102D01*
X165165000Y-91198061D01*
X142460000Y-91198061D01*
X142460000Y-80960000D01*
X150290604Y-80960000D01*
X150125363Y-81125241D01*
X150125363Y-81125241D01*
G37*
X150125363Y-81125241D02*
X149968320Y-81360273D01*
X149860147Y-81621426D01*
X149805000Y-81898665D01*
X149805000Y-82181335D01*
X149860147Y-82458574D01*
X149968320Y-82719727D01*
X150125363Y-82954759D01*
X150325241Y-83154637D01*
X150560273Y-83311680D01*
X150821426Y-83419853D01*
X151098665Y-83475000D01*
X151381335Y-83475000D01*
X151658574Y-83419853D01*
X151919727Y-83311680D01*
X152154759Y-83154637D01*
X152354637Y-82954759D01*
X152510000Y-82722241D01*
X152665363Y-82954759D01*
X152865241Y-83154637D01*
X153100273Y-83311680D01*
X153361426Y-83419853D01*
X153638665Y-83475000D01*
X153921335Y-83475000D01*
X154103886Y-83438688D01*
X155876201Y-85211003D01*
X155899999Y-85240001D01*
X155928997Y-85263799D01*
X156015723Y-85334974D01*
X156104886Y-85382633D01*
X156147753Y-85405546D01*
X156291014Y-85449003D01*
X156402667Y-85460000D01*
X156402676Y-85460000D01*
X156439999Y-85463676D01*
X156477322Y-85460000D01*
X163562678Y-85460000D01*
X163600000Y-85463676D01*
X163637322Y-85460000D01*
X163637333Y-85460000D01*
X163748986Y-85449003D01*
X163892247Y-85405546D01*
X164024276Y-85334974D01*
X164140001Y-85240001D01*
X164163803Y-85210998D01*
X164439801Y-84935000D01*
X164611788Y-84935000D01*
X164831067Y-84891383D01*
X165037624Y-84805824D01*
X165223520Y-84681612D01*
X165381612Y-84523520D01*
X165505824Y-84337624D01*
X165591383Y-84131067D01*
X165635000Y-83911788D01*
X165635000Y-83688212D01*
X165591383Y-83468933D01*
X165505824Y-83262376D01*
X165381612Y-83076480D01*
X165223520Y-82918388D01*
X165037624Y-82794176D01*
X164831067Y-82708617D01*
X164611788Y-82665000D01*
X164388212Y-82665000D01*
X164168933Y-82708617D01*
X163962376Y-82794176D01*
X163776480Y-82918388D01*
X163724247Y-82970621D01*
X163703937Y-82940226D01*
X163559774Y-82796063D01*
X163390256Y-82682795D01*
X163201898Y-82604774D01*
X163001939Y-82565000D01*
X162798061Y-82565000D01*
X162730177Y-82578503D01*
X162779853Y-82458574D01*
X162835000Y-82181335D01*
X162835000Y-81898665D01*
X162779853Y-81621426D01*
X162671680Y-81360273D01*
X162514637Y-81125241D01*
X162349396Y-80960000D01*
X173995101Y-80960000D01*
X173975450Y-80979651D01*
X173714440Y-81370279D01*
X173534654Y-81804321D01*
X173443000Y-82265098D01*
X173443000Y-82734902D01*
X173534654Y-83195679D01*
X173714440Y-83629721D01*
X173975450Y-84020349D01*
X174307651Y-84352550D01*
X174698279Y-84613560D01*
X175132321Y-84793346D01*
X175593098Y-84885000D01*
X176062902Y-84885000D01*
X176523679Y-84793346D01*
X176957721Y-84613560D01*
X177348349Y-84352550D01*
X177680550Y-84020349D01*
X177941560Y-83629721D01*
X178121346Y-83195679D01*
X178213000Y-82734902D01*
X178213000Y-82265098D01*
X178121346Y-81804321D01*
X177941560Y-81370279D01*
X177680550Y-80979651D01*
X177660899Y-80960000D01*
X197739101Y-80960000D01*
X197719450Y-80979651D01*
X197458440Y-81370279D01*
X197278654Y-81804321D01*
X197187000Y-82265098D01*
X197187000Y-82734902D01*
X197273153Y-83168021D01*
X196510943Y-82405812D01*
X196487923Y-82377762D01*
X196376005Y-82285913D01*
X196248318Y-82217663D01*
X196152224Y-82188513D01*
X196059774Y-82096063D01*
X195890256Y-81982795D01*
X195701898Y-81904774D01*
X195501939Y-81865000D01*
X195298061Y-81865000D01*
X195098102Y-81904774D01*
X194909744Y-81982795D01*
X194740226Y-82096063D01*
X194596063Y-82240226D01*
X194482795Y-82409744D01*
X194404774Y-82598102D01*
X194365000Y-82798061D01*
X194365000Y-83001939D01*
X194404774Y-83201898D01*
X194482795Y-83390256D01*
X194596063Y-83559774D01*
X194740226Y-83703937D01*
X194909744Y-83817205D01*
X195098102Y-83895226D01*
X195298061Y-83935000D01*
X195501939Y-83935000D01*
X195701898Y-83895226D01*
X195857155Y-83830916D01*
X196939794Y-84913556D01*
X196904774Y-84998102D01*
X196865000Y-85198061D01*
X196865000Y-85401939D01*
X196904774Y-85601898D01*
X196982795Y-85790256D01*
X197096063Y-85959774D01*
X197240226Y-86103937D01*
X197409744Y-86217205D01*
X197598102Y-86295226D01*
X197798061Y-86335000D01*
X197895554Y-86335000D01*
X199065001Y-87504448D01*
X199065000Y-89263895D01*
X199061444Y-89300000D01*
X199075635Y-89444085D01*
X199088384Y-89486113D01*
X199117663Y-89582632D01*
X199185913Y-89710319D01*
X199277762Y-89822237D01*
X199305808Y-89845254D01*
X208815000Y-99354447D01*
X208815000Y-99451939D01*
X208854774Y-99651898D01*
X208932795Y-99840256D01*
X209046063Y-100009774D01*
X209190226Y-100153937D01*
X209359744Y-100267205D01*
X209548102Y-100345226D01*
X209687583Y-100372970D01*
X208405808Y-101654746D01*
X208377762Y-101677763D01*
X208285913Y-101789681D01*
X208217663Y-101917368D01*
X208197865Y-101982633D01*
X208175635Y-102055915D01*
X208161444Y-102200000D01*
X208165000Y-102236105D01*
X208165001Y-111463886D01*
X208165000Y-111463896D01*
X208165000Y-111665000D01*
X208098061Y-111665000D01*
X208006256Y-111683261D01*
X208032185Y-111420000D01*
X208003513Y-111128889D01*
X207918599Y-110848966D01*
X207780706Y-110590986D01*
X207595134Y-110364866D01*
X207369014Y-110179294D01*
X207111034Y-110041401D01*
X206831111Y-109956487D01*
X206612950Y-109935000D01*
X206467050Y-109935000D01*
X206248889Y-109956487D01*
X205968966Y-110041401D01*
X205710986Y-110179294D01*
X205484866Y-110364866D01*
X205460393Y-110394687D01*
X205439502Y-110325820D01*
X205380537Y-110215506D01*
X205301185Y-110118815D01*
X205204494Y-110039463D01*
X205094180Y-109980498D01*
X205025313Y-109959607D01*
X205055134Y-109935134D01*
X205240706Y-109709014D01*
X205378599Y-109451034D01*
X205463513Y-109171111D01*
X205492185Y-108880000D01*
X205463513Y-108588889D01*
X205378599Y-108308966D01*
X205240706Y-108050986D01*
X205055134Y-107824866D01*
X204829014Y-107639294D01*
X204774209Y-107610000D01*
X204829014Y-107580706D01*
X205055134Y-107395134D01*
X205240706Y-107169014D01*
X205270000Y-107114209D01*
X205299294Y-107169014D01*
X205484866Y-107395134D01*
X205710986Y-107580706D01*
X205968966Y-107718599D01*
X206248889Y-107803513D01*
X206467050Y-107825000D01*
X206612950Y-107825000D01*
X206831111Y-107803513D01*
X207111034Y-107718599D01*
X207369014Y-107580706D01*
X207595134Y-107395134D01*
X207780706Y-107169014D01*
X207918599Y-106911034D01*
X208003513Y-106631111D01*
X208032185Y-106340000D01*
X208003513Y-106048889D01*
X207918599Y-105768966D01*
X207780706Y-105510986D01*
X207595134Y-105284866D01*
X207369014Y-105099294D01*
X207314209Y-105070000D01*
X207369014Y-105040706D01*
X207595134Y-104855134D01*
X207780706Y-104629014D01*
X207918599Y-104371034D01*
X208003513Y-104091111D01*
X208032185Y-103800000D01*
X208003513Y-103508889D01*
X207918599Y-103228966D01*
X207780706Y-102970986D01*
X207595134Y-102744866D01*
X207369014Y-102559294D01*
X207111034Y-102421401D01*
X206831111Y-102336487D01*
X206612950Y-102315000D01*
X206467050Y-102315000D01*
X206248889Y-102336487D01*
X205968966Y-102421401D01*
X205710986Y-102559294D01*
X205484866Y-102744866D01*
X205299294Y-102970986D01*
X205270000Y-103025791D01*
X205240706Y-102970986D01*
X205055134Y-102744866D01*
X204829014Y-102559294D01*
X204571034Y-102421401D01*
X204291111Y-102336487D01*
X204072950Y-102315000D01*
X203927050Y-102315000D01*
X203708889Y-102336487D01*
X203428966Y-102421401D01*
X203170986Y-102559294D01*
X202944866Y-102744866D01*
X202759294Y-102970986D01*
X202621401Y-103228966D01*
X202536487Y-103508889D01*
X202507815Y-103800000D01*
X202536487Y-104091111D01*
X202621401Y-104371034D01*
X202759294Y-104629014D01*
X202944866Y-104855134D01*
X203170986Y-105040706D01*
X203225791Y-105070000D01*
X203170986Y-105099294D01*
X202944866Y-105284866D01*
X202759294Y-105510986D01*
X202621401Y-105768966D01*
X202536487Y-106048889D01*
X202507815Y-106340000D01*
X202536487Y-106631111D01*
X202621401Y-106911034D01*
X202759294Y-107169014D01*
X202944866Y-107395134D01*
X203170986Y-107580706D01*
X203225791Y-107610000D01*
X203170986Y-107639294D01*
X202944866Y-107824866D01*
X202759294Y-108050986D01*
X202621401Y-108308966D01*
X202536487Y-108588889D01*
X202507815Y-108880000D01*
X202536487Y-109171111D01*
X202621401Y-109451034D01*
X202759294Y-109709014D01*
X202944866Y-109935134D01*
X202974687Y-109959607D01*
X202905820Y-109980498D01*
X202795506Y-110039463D01*
X202698815Y-110118815D01*
X202619463Y-110215506D01*
X202560498Y-110325820D01*
X202524188Y-110445518D01*
X202511928Y-110570000D01*
X202511928Y-111372482D01*
X200945258Y-109805812D01*
X200945253Y-109805806D01*
X199821535Y-108682089D01*
X200267679Y-108593346D01*
X200701721Y-108413560D01*
X201092349Y-108152550D01*
X201424550Y-107820349D01*
X201685560Y-107429721D01*
X201865346Y-106995679D01*
X201957000Y-106534902D01*
X201957000Y-106065098D01*
X201865346Y-105604321D01*
X201685560Y-105170279D01*
X201424550Y-104779651D01*
X201092349Y-104447450D01*
X200701721Y-104186440D01*
X200267679Y-104006654D01*
X199806902Y-103915000D01*
X199337098Y-103915000D01*
X198876321Y-104006654D01*
X198442279Y-104186440D01*
X198051651Y-104447450D01*
X197719450Y-104779651D01*
X197458440Y-105170279D01*
X197278654Y-105604321D01*
X197187000Y-106065098D01*
X197187000Y-106534902D01*
X197278654Y-106995679D01*
X197458440Y-107429721D01*
X197719450Y-107820349D01*
X198051651Y-108152550D01*
X198219944Y-108265000D01*
X196298711Y-108265000D01*
X196376091Y-108187620D01*
X196489359Y-108018102D01*
X196567380Y-107829744D01*
X196607154Y-107629785D01*
X196607154Y-107425907D01*
X196567380Y-107225948D01*
X196489359Y-107037590D01*
X196376091Y-106868072D01*
X196231928Y-106723909D01*
X196062410Y-106610641D01*
X196041375Y-106601928D01*
X193445259Y-104005812D01*
X193422238Y-103977762D01*
X193310320Y-103885913D01*
X193182633Y-103817663D01*
X193044085Y-103775635D01*
X192936105Y-103765000D01*
X192900000Y-103761444D01*
X192863895Y-103765000D01*
X190028711Y-103765000D01*
X189959774Y-103696063D01*
X189790256Y-103582795D01*
X189601898Y-103504774D01*
X189401939Y-103465000D01*
X189198061Y-103465000D01*
X188998102Y-103504774D01*
X188809744Y-103582795D01*
X188640226Y-103696063D01*
X188496063Y-103840226D01*
X188382795Y-104009744D01*
X188304774Y-104198102D01*
X188265000Y-104398061D01*
X188265000Y-104601939D01*
X188304774Y-104801898D01*
X188370839Y-104961393D01*
X187015258Y-103605811D01*
X186992237Y-103577761D01*
X186880319Y-103485912D01*
X186752632Y-103417662D01*
X186614084Y-103375634D01*
X186506104Y-103364999D01*
X186469999Y-103361443D01*
X186433894Y-103364999D01*
X180236105Y-103364999D01*
X180200000Y-103361443D01*
X180055915Y-103375634D01*
X180013887Y-103388383D01*
X179917368Y-103417662D01*
X179789681Y-103485912D01*
X179677763Y-103577761D01*
X179654747Y-103605806D01*
X178995554Y-104265000D01*
X178788212Y-104265000D01*
X178568933Y-104308617D01*
X178362376Y-104394176D01*
X178176480Y-104518388D01*
X178018388Y-104676480D01*
X177894176Y-104862376D01*
X177834089Y-105007438D01*
X177680550Y-104777651D01*
X177348349Y-104445450D01*
X176957721Y-104184440D01*
X176523679Y-104004654D01*
X176192638Y-103938806D01*
X177696445Y-102435000D01*
X184871289Y-102435000D01*
X184940226Y-102503937D01*
X185109744Y-102617205D01*
X185298102Y-102695226D01*
X185498061Y-102735000D01*
X185701939Y-102735000D01*
X185901898Y-102695226D01*
X186090256Y-102617205D01*
X186259774Y-102503937D01*
X186403937Y-102359774D01*
X186517205Y-102190256D01*
X186595226Y-102001898D01*
X186635000Y-101801939D01*
X186635000Y-101598061D01*
X186595226Y-101398102D01*
X186517205Y-101209744D01*
X186403937Y-101040226D01*
X186259774Y-100896063D01*
X186171683Y-100837202D01*
X192082228Y-100837202D01*
X192082228Y-101060778D01*
X192125845Y-101280057D01*
X192211404Y-101486614D01*
X192335616Y-101672510D01*
X192493708Y-101830602D01*
X192679604Y-101954814D01*
X192886161Y-102040373D01*
X193105440Y-102083990D01*
X193329016Y-102083990D01*
X193548295Y-102040373D01*
X193754852Y-101954814D01*
X193940748Y-101830602D01*
X194087360Y-101683990D01*
X196614905Y-101683990D01*
X196651010Y-101687546D01*
X196687115Y-101683990D01*
X196795095Y-101673355D01*
X196933643Y-101631327D01*
X197061330Y-101563077D01*
X197173248Y-101471228D01*
X197196269Y-101443177D01*
X201394197Y-97245250D01*
X201422237Y-97222238D01*
X201445250Y-97194197D01*
X201445253Y-97194194D01*
X201514086Y-97110321D01*
X201514087Y-97110320D01*
X201582337Y-96982633D01*
X201624365Y-96844085D01*
X201635000Y-96736105D01*
X201635000Y-96736096D01*
X201638555Y-96700001D01*
X201635000Y-96663906D01*
X201635000Y-95070132D01*
X201781612Y-94923520D01*
X201905824Y-94737624D01*
X201991383Y-94531067D01*
X202035000Y-94311788D01*
X202035000Y-94088212D01*
X201991383Y-93868933D01*
X201905824Y-93662376D01*
X201781612Y-93476480D01*
X201623520Y-93318388D01*
X201437624Y-93194176D01*
X201231067Y-93108617D01*
X201011788Y-93065000D01*
X200788212Y-93065000D01*
X200568933Y-93108617D01*
X200362376Y-93194176D01*
X200176480Y-93318388D01*
X200018388Y-93476480D01*
X199894176Y-93662376D01*
X199808617Y-93868933D01*
X199765000Y-94088212D01*
X199765000Y-94311788D01*
X199808617Y-94531067D01*
X199894176Y-94737624D01*
X200018388Y-94923520D01*
X200165001Y-95070133D01*
X200165000Y-96395553D01*
X196346564Y-100213990D01*
X194790217Y-100213990D01*
X194795226Y-100201898D01*
X194835000Y-100001939D01*
X194835000Y-99904446D01*
X199094193Y-95645254D01*
X199122238Y-95622238D01*
X199214087Y-95510320D01*
X199282337Y-95382633D01*
X199318422Y-95263676D01*
X199324365Y-95244086D01*
X199328161Y-95205546D01*
X199335000Y-95136105D01*
X199335000Y-95136098D01*
X199338555Y-95100001D01*
X199335000Y-95063904D01*
X199335000Y-93028711D01*
X199403937Y-92959774D01*
X199517205Y-92790256D01*
X199595226Y-92601898D01*
X199635000Y-92401939D01*
X199635000Y-92198061D01*
X199595226Y-91998102D01*
X199517205Y-91809744D01*
X199403937Y-91640226D01*
X199259774Y-91496063D01*
X199090256Y-91382795D01*
X198901898Y-91304774D01*
X198701939Y-91265000D01*
X198498061Y-91265000D01*
X198298102Y-91304774D01*
X198109744Y-91382795D01*
X197940226Y-91496063D01*
X197796063Y-91640226D01*
X197682795Y-91809744D01*
X197604774Y-91998102D01*
X197565000Y-92198061D01*
X197565000Y-92401939D01*
X197604774Y-92601898D01*
X197682795Y-92790256D01*
X197796063Y-92959774D01*
X197865000Y-93028711D01*
X197865001Y-94795552D01*
X193795554Y-98865000D01*
X193698061Y-98865000D01*
X193498102Y-98904774D01*
X193309744Y-98982795D01*
X193140226Y-99096063D01*
X192996063Y-99240226D01*
X192882795Y-99409744D01*
X192804774Y-99598102D01*
X192765000Y-99798061D01*
X192765000Y-99907794D01*
X192679604Y-99943166D01*
X192493708Y-100067378D01*
X192335616Y-100225470D01*
X192211404Y-100411366D01*
X192125845Y-100617923D01*
X192082228Y-100837202D01*
X186171683Y-100837202D01*
X186090256Y-100782795D01*
X185901898Y-100704774D01*
X185701939Y-100665000D01*
X185498061Y-100665000D01*
X185298102Y-100704774D01*
X185109744Y-100782795D01*
X184940226Y-100896063D01*
X184871289Y-100965000D01*
X177428092Y-100965000D01*
X177391997Y-100961445D01*
X177355902Y-100965000D01*
X177355893Y-100965000D01*
X177247913Y-100975635D01*
X177109365Y-101017663D01*
X176981678Y-101085913D01*
X176869760Y-101177762D01*
X176846744Y-101205807D01*
X173283807Y-104768745D01*
X173255761Y-104791762D01*
X173163912Y-104903680D01*
X173095662Y-105031367D01*
X173066383Y-105127886D01*
X173053634Y-105169914D01*
X173039443Y-105313999D01*
X173042999Y-105350104D01*
X173043000Y-107841884D01*
X173039443Y-107877999D01*
X173053634Y-108022084D01*
X173089991Y-108141933D01*
X173095663Y-108160632D01*
X173163913Y-108288319D01*
X173255762Y-108400237D01*
X173283807Y-108423253D01*
X174454746Y-109594193D01*
X174477762Y-109622238D01*
X174589680Y-109714087D01*
X174717367Y-109782337D01*
X174855915Y-109824365D01*
X174963895Y-109835000D01*
X174963904Y-109835000D01*
X174999999Y-109838555D01*
X175036094Y-109835000D01*
X175759868Y-109835000D01*
X175729868Y-109865000D01*
X171004447Y-109865000D01*
X168735000Y-107595554D01*
X168735000Y-107388212D01*
X168691383Y-107168933D01*
X168605824Y-106962376D01*
X168481612Y-106776480D01*
X168323520Y-106618388D01*
X168137624Y-106494176D01*
X167931067Y-106408617D01*
X167711788Y-106365000D01*
X167488212Y-106365000D01*
X167268933Y-106408617D01*
X167062376Y-106494176D01*
X166876480Y-106618388D01*
X166718388Y-106776480D01*
X166594176Y-106962376D01*
X166508617Y-107168933D01*
X166465000Y-107388212D01*
X166465000Y-107611788D01*
X166508617Y-107831067D01*
X166594176Y-108037624D01*
X166718388Y-108223520D01*
X166765001Y-108270133D01*
X166765000Y-110859868D01*
X166723520Y-110818388D01*
X166537624Y-110694176D01*
X166331067Y-110608617D01*
X166111788Y-110565000D01*
X166045868Y-110565000D01*
X159230319Y-103749452D01*
X159278574Y-103739853D01*
X159539727Y-103631680D01*
X159774759Y-103474637D01*
X159974637Y-103274759D01*
X160130000Y-103042241D01*
X160285363Y-103274759D01*
X160485241Y-103474637D01*
X160720273Y-103631680D01*
X160981426Y-103739853D01*
X161258665Y-103795000D01*
X161541335Y-103795000D01*
X161818574Y-103739853D01*
X162079727Y-103631680D01*
X162314759Y-103474637D01*
X162514637Y-103274759D01*
X162671680Y-103039727D01*
X162779853Y-102778574D01*
X162835000Y-102501335D01*
X162835000Y-102218665D01*
X162779853Y-101941426D01*
X162671680Y-101680273D01*
X162514637Y-101445241D01*
X162314759Y-101245363D01*
X162079727Y-101088320D01*
X161818574Y-100980147D01*
X161541335Y-100925000D01*
X161258665Y-100925000D01*
X160981426Y-100980147D01*
X160720273Y-101088320D01*
X160485241Y-101245363D01*
X160285363Y-101445241D01*
X160130000Y-101677759D01*
X159974637Y-101445241D01*
X159774759Y-101245363D01*
X159539727Y-101088320D01*
X159278574Y-100980147D01*
X159001335Y-100925000D01*
X158718665Y-100925000D01*
X158441426Y-100980147D01*
X158180273Y-101088320D01*
X157945241Y-101245363D01*
X157745363Y-101445241D01*
X157590000Y-101677759D01*
X157434637Y-101445241D01*
X157234759Y-101245363D01*
X156999727Y-101088320D01*
X156738574Y-100980147D01*
X156461335Y-100925000D01*
X156178665Y-100925000D01*
X155901426Y-100980147D01*
X155640273Y-101088320D01*
X155405241Y-101245363D01*
X155205363Y-101445241D01*
X155050000Y-101677759D01*
X154894637Y-101445241D01*
X154694759Y-101245363D01*
X154459727Y-101088320D01*
X154198574Y-100980147D01*
X153921335Y-100925000D01*
X153638665Y-100925000D01*
X153361426Y-100980147D01*
X153100273Y-101088320D01*
X152865241Y-101245363D01*
X152665363Y-101445241D01*
X152508320Y-101680273D01*
X152400147Y-101941426D01*
X152345000Y-102218665D01*
X152345000Y-102501335D01*
X152400147Y-102778574D01*
X152508320Y-103039727D01*
X152525206Y-103064999D01*
X147389753Y-103064999D01*
X147305824Y-102862376D01*
X147181612Y-102676480D01*
X147023520Y-102518388D01*
X146837624Y-102394176D01*
X146631067Y-102308617D01*
X146411788Y-102265000D01*
X146188212Y-102265000D01*
X145968933Y-102308617D01*
X145762376Y-102394176D01*
X145576480Y-102518388D01*
X145418388Y-102676480D01*
X145294176Y-102862376D01*
X145208617Y-103068933D01*
X145165000Y-103288212D01*
X145165000Y-103511788D01*
X145208617Y-103731067D01*
X145294176Y-103937624D01*
X145418388Y-104123520D01*
X145576480Y-104281612D01*
X145762376Y-104405824D01*
X145968933Y-104491383D01*
X146188212Y-104535000D01*
X146257532Y-104535000D01*
X146333853Y-104597635D01*
X146478912Y-104675171D01*
X146636310Y-104722917D01*
X146758980Y-104734999D01*
X146758990Y-104734999D01*
X146799998Y-104739038D01*
X146841006Y-104734999D01*
X157854132Y-104734999D01*
X164865000Y-111745868D01*
X164865000Y-111811788D01*
X164908617Y-112031067D01*
X164994176Y-112237624D01*
X165079286Y-112365000D01*
X162041018Y-112365000D01*
X162000000Y-112360960D01*
X161958982Y-112365000D01*
X161958981Y-112365000D01*
X161836311Y-112377082D01*
X161678913Y-112424828D01*
X161533854Y-112502364D01*
X161406709Y-112606709D01*
X161380563Y-112638568D01*
X160438574Y-113580559D01*
X160406710Y-113606709D01*
X160341797Y-113685806D01*
X160302364Y-113733855D01*
X160224828Y-113878914D01*
X160199635Y-113961964D01*
X160075518Y-113974188D01*
X159955820Y-114010498D01*
X159845506Y-114069463D01*
X159748815Y-114148815D01*
X159669463Y-114245506D01*
X159610498Y-114355820D01*
X159574188Y-114475518D01*
X159561928Y-114600000D01*
X159561928Y-116200000D01*
X159574188Y-116324482D01*
X159610498Y-116444180D01*
X159669463Y-116554494D01*
X159748815Y-116651185D01*
X159845506Y-116730537D01*
X159955820Y-116789502D01*
X160075518Y-116825812D01*
X160200000Y-116838072D01*
X161800000Y-116838072D01*
X161924482Y-116825812D01*
X162044180Y-116789502D01*
X162154494Y-116730537D01*
X162251185Y-116651185D01*
X162330537Y-116554494D01*
X162389502Y-116444180D01*
X162425812Y-116324482D01*
X162438072Y-116200000D01*
X162438072Y-114600000D01*
X162425812Y-114475518D01*
X162389502Y-114355820D01*
X162330537Y-114245506D01*
X162251185Y-114148815D01*
X162240677Y-114140191D01*
X162345868Y-114035000D01*
X165938984Y-114035000D01*
X165980002Y-114039040D01*
X166021020Y-114035000D01*
X166021021Y-114035000D01*
X166143691Y-114022918D01*
X166301089Y-113975172D01*
X166446148Y-113897636D01*
X166573293Y-113793291D01*
X166599448Y-113761421D01*
X168161428Y-112199442D01*
X168193291Y-112173293D01*
X168297636Y-112046148D01*
X168375172Y-111901089D01*
X168422918Y-111743691D01*
X168428070Y-111691383D01*
X168439040Y-111580003D01*
X168435000Y-111538984D01*
X168435000Y-109374446D01*
X170154746Y-111094193D01*
X170177762Y-111122238D01*
X170289680Y-111214087D01*
X170417367Y-111282337D01*
X170513886Y-111311616D01*
X170555914Y-111324365D01*
X170699999Y-111338556D01*
X170736104Y-111335000D01*
X175729868Y-111335000D01*
X175876480Y-111481612D01*
X176062376Y-111605824D01*
X176268933Y-111691383D01*
X176488212Y-111735000D01*
X176695554Y-111735000D01*
X180954746Y-115994193D01*
X180977762Y-116022238D01*
X181089680Y-116114087D01*
X181217367Y-116182337D01*
X181355915Y-116224365D01*
X181463895Y-116235000D01*
X181463904Y-116235000D01*
X181499999Y-116238555D01*
X181536094Y-116235000D01*
X208829868Y-116235000D01*
X208976480Y-116381612D01*
X209162376Y-116505824D01*
X209368933Y-116591383D01*
X209588212Y-116635000D01*
X209811788Y-116635000D01*
X210031067Y-116591383D01*
X210237624Y-116505824D01*
X210423520Y-116381612D01*
X210581612Y-116223520D01*
X210705824Y-116037624D01*
X210791383Y-115831067D01*
X210835000Y-115611788D01*
X210835000Y-115388212D01*
X210791383Y-115168933D01*
X210705824Y-114962376D01*
X210581612Y-114776480D01*
X210435000Y-114629868D01*
X210435000Y-110304446D01*
X210804446Y-109935000D01*
X211011788Y-109935000D01*
X211231067Y-109891383D01*
X211437624Y-109805824D01*
X211623520Y-109681612D01*
X211781612Y-109523520D01*
X211905824Y-109337624D01*
X211991383Y-109131067D01*
X212035000Y-108911788D01*
X212035000Y-108688212D01*
X211991383Y-108468933D01*
X211905824Y-108262376D01*
X211781612Y-108076480D01*
X211623520Y-107918388D01*
X211437624Y-107794176D01*
X211231067Y-107708617D01*
X211011788Y-107665000D01*
X210788212Y-107665000D01*
X210568933Y-107708617D01*
X210362376Y-107794176D01*
X210176480Y-107918388D01*
X210018388Y-108076480D01*
X209894176Y-108262376D01*
X209808617Y-108468933D01*
X209765000Y-108688212D01*
X209765000Y-108895554D01*
X209635000Y-109025554D01*
X209635000Y-102639335D01*
X211765000Y-102639335D01*
X211765000Y-103360664D01*
X211782870Y-103542101D01*
X211853489Y-103774900D01*
X211968167Y-103989448D01*
X212122498Y-104177502D01*
X212310551Y-104331833D01*
X212525099Y-104446511D01*
X212757898Y-104517130D01*
X213000000Y-104540975D01*
X213242101Y-104517130D01*
X213474900Y-104446511D01*
X213689448Y-104331833D01*
X213877502Y-104177502D01*
X213909191Y-104138889D01*
X213911595Y-104143387D01*
X214022038Y-104277962D01*
X214156613Y-104388405D01*
X214310149Y-104470472D01*
X214476745Y-104521008D01*
X214649999Y-104538072D01*
X215350001Y-104538072D01*
X215523255Y-104521008D01*
X215689851Y-104470472D01*
X215843387Y-104388405D01*
X215977962Y-104277962D01*
X216088405Y-104143387D01*
X216111595Y-104100000D01*
X221659025Y-104100000D01*
X221682870Y-104342102D01*
X221753489Y-104574901D01*
X221868167Y-104789449D01*
X222022498Y-104977502D01*
X222210551Y-105131833D01*
X222425099Y-105246511D01*
X222657898Y-105317130D01*
X222839335Y-105335000D01*
X223560665Y-105335000D01*
X223742102Y-105317130D01*
X223974901Y-105246511D01*
X224189449Y-105131833D01*
X224377502Y-104977502D01*
X224531833Y-104789449D01*
X224646511Y-104574901D01*
X224717130Y-104342102D01*
X224740975Y-104100000D01*
X226459025Y-104100000D01*
X226482870Y-104342102D01*
X226553489Y-104574901D01*
X226668167Y-104789449D01*
X226822498Y-104977502D01*
X227010551Y-105131833D01*
X227225099Y-105246511D01*
X227457898Y-105317130D01*
X227639335Y-105335000D01*
X228360665Y-105335000D01*
X228542102Y-105317130D01*
X228774901Y-105246511D01*
X228989449Y-105131833D01*
X229177502Y-104977502D01*
X229331833Y-104789449D01*
X229446511Y-104574901D01*
X229517130Y-104342102D01*
X229540975Y-104100000D01*
X229517130Y-103857898D01*
X229446511Y-103625099D01*
X229331833Y-103410551D01*
X229177502Y-103222498D01*
X229138889Y-103190809D01*
X229143387Y-103188405D01*
X229277962Y-103077962D01*
X229388405Y-102943387D01*
X229470472Y-102789851D01*
X229521008Y-102623255D01*
X229538072Y-102450001D01*
X229538072Y-101749999D01*
X229521008Y-101576745D01*
X229470472Y-101410149D01*
X229388405Y-101256613D01*
X229277962Y-101122038D01*
X229143387Y-101011595D01*
X228989851Y-100929528D01*
X228823255Y-100878992D01*
X228650001Y-100861928D01*
X227349999Y-100861928D01*
X227176745Y-100878992D01*
X227010149Y-100929528D01*
X226856613Y-101011595D01*
X226722038Y-101122038D01*
X226611595Y-101256613D01*
X226529528Y-101410149D01*
X226478992Y-101576745D01*
X226461928Y-101749999D01*
X226461928Y-102450001D01*
X226478992Y-102623255D01*
X226529528Y-102789851D01*
X226611595Y-102943387D01*
X226722038Y-103077962D01*
X226856613Y-103188405D01*
X226861111Y-103190809D01*
X226822498Y-103222498D01*
X226668167Y-103410551D01*
X226553489Y-103625099D01*
X226482870Y-103857898D01*
X226459025Y-104100000D01*
X224740975Y-104100000D01*
X224717130Y-103857898D01*
X224646511Y-103625099D01*
X224531833Y-103410551D01*
X224377502Y-103222498D01*
X224338889Y-103190809D01*
X224343387Y-103188405D01*
X224477962Y-103077962D01*
X224588405Y-102943387D01*
X224670472Y-102789851D01*
X224721008Y-102623255D01*
X224738072Y-102450001D01*
X224738072Y-101749999D01*
X224721008Y-101576745D01*
X224670472Y-101410149D01*
X224588405Y-101256613D01*
X224477962Y-101122038D01*
X224343387Y-101011595D01*
X224189851Y-100929528D01*
X224023255Y-100878992D01*
X223850001Y-100861928D01*
X222549999Y-100861928D01*
X222376745Y-100878992D01*
X222210149Y-100929528D01*
X222056613Y-101011595D01*
X221922038Y-101122038D01*
X221811595Y-101256613D01*
X221729528Y-101410149D01*
X221678992Y-101576745D01*
X221661928Y-101749999D01*
X221661928Y-102450001D01*
X221678992Y-102623255D01*
X221729528Y-102789851D01*
X221811595Y-102943387D01*
X221922038Y-103077962D01*
X222056613Y-103188405D01*
X222061111Y-103190809D01*
X222022498Y-103222498D01*
X221868167Y-103410551D01*
X221753489Y-103625099D01*
X221682870Y-103857898D01*
X221659025Y-104100000D01*
X216111595Y-104100000D01*
X216170472Y-103989851D01*
X216221008Y-103823255D01*
X216238072Y-103650001D01*
X216238072Y-102349999D01*
X216221008Y-102176745D01*
X216170472Y-102010149D01*
X216088405Y-101856613D01*
X215977962Y-101722038D01*
X215843387Y-101611595D01*
X215689851Y-101529528D01*
X215523255Y-101478992D01*
X215350001Y-101461928D01*
X214649999Y-101461928D01*
X214476745Y-101478992D01*
X214310149Y-101529528D01*
X214156613Y-101611595D01*
X214022038Y-101722038D01*
X213911595Y-101856613D01*
X213909191Y-101861111D01*
X213877502Y-101822498D01*
X213689449Y-101668167D01*
X213474901Y-101553489D01*
X213242102Y-101482870D01*
X213000000Y-101459025D01*
X212757899Y-101482870D01*
X212525100Y-101553489D01*
X212310552Y-101668167D01*
X212122499Y-101822498D01*
X211968168Y-102010551D01*
X211853489Y-102225099D01*
X211782870Y-102457898D01*
X211765000Y-102639335D01*
X209635000Y-102639335D01*
X209635000Y-102504446D01*
X211694194Y-100445253D01*
X211722238Y-100422238D01*
X211814087Y-100310320D01*
X211882337Y-100182633D01*
X211924365Y-100044085D01*
X211935000Y-99936105D01*
X211935000Y-99936096D01*
X211938555Y-99900001D01*
X211935000Y-99863906D01*
X211935000Y-96749999D01*
X212961928Y-96749999D01*
X212961928Y-98050001D01*
X212978992Y-98223255D01*
X213029528Y-98389851D01*
X213111595Y-98543387D01*
X213222038Y-98677962D01*
X213356613Y-98788405D01*
X213510149Y-98870472D01*
X213676745Y-98921008D01*
X213849999Y-98938072D01*
X214550001Y-98938072D01*
X214723255Y-98921008D01*
X214889851Y-98870472D01*
X215043387Y-98788405D01*
X215177962Y-98677962D01*
X215288405Y-98543387D01*
X215290810Y-98538888D01*
X215322499Y-98577502D01*
X215510552Y-98731833D01*
X215725100Y-98846511D01*
X215957899Y-98917130D01*
X216200000Y-98940975D01*
X216442102Y-98917130D01*
X216674901Y-98846511D01*
X216889449Y-98731833D01*
X217077502Y-98577502D01*
X217231833Y-98389449D01*
X217346511Y-98174901D01*
X217417130Y-97942101D01*
X217435000Y-97760664D01*
X217435000Y-97039335D01*
X221965000Y-97039335D01*
X221965000Y-97760664D01*
X221982870Y-97942101D01*
X222053489Y-98174900D01*
X222168167Y-98389448D01*
X222322498Y-98577502D01*
X222510551Y-98731833D01*
X222725099Y-98846511D01*
X222957898Y-98917130D01*
X223200000Y-98940975D01*
X223442101Y-98917130D01*
X223674900Y-98846511D01*
X223889448Y-98731833D01*
X224077502Y-98577502D01*
X224109191Y-98538889D01*
X224111595Y-98543387D01*
X224222038Y-98677962D01*
X224356613Y-98788405D01*
X224510149Y-98870472D01*
X224676745Y-98921008D01*
X224849999Y-98938072D01*
X225550001Y-98938072D01*
X225723255Y-98921008D01*
X225889851Y-98870472D01*
X226043387Y-98788405D01*
X226177962Y-98677962D01*
X226288405Y-98543387D01*
X226370472Y-98389851D01*
X226421008Y-98223255D01*
X226438072Y-98050001D01*
X226438072Y-96749999D01*
X226421008Y-96576745D01*
X226370472Y-96410149D01*
X226288405Y-96256613D01*
X226177962Y-96122038D01*
X226043387Y-96011595D01*
X225889851Y-95929528D01*
X225723255Y-95878992D01*
X225550001Y-95861928D01*
X224849999Y-95861928D01*
X224676745Y-95878992D01*
X224510149Y-95929528D01*
X224356613Y-96011595D01*
X224222038Y-96122038D01*
X224111595Y-96256613D01*
X224109191Y-96261111D01*
X224077502Y-96222498D01*
X223889449Y-96068167D01*
X223674901Y-95953489D01*
X223442102Y-95882870D01*
X223200000Y-95859025D01*
X222957899Y-95882870D01*
X222725100Y-95953489D01*
X222510552Y-96068167D01*
X222322499Y-96222498D01*
X222168168Y-96410551D01*
X222053489Y-96625099D01*
X221982870Y-96857898D01*
X221965000Y-97039335D01*
X217435000Y-97039335D01*
X217417130Y-96857898D01*
X217346511Y-96625099D01*
X217231833Y-96410551D01*
X217077502Y-96222498D01*
X216889448Y-96068167D01*
X216674900Y-95953489D01*
X216442101Y-95882870D01*
X216200000Y-95859025D01*
X215957898Y-95882870D01*
X215725099Y-95953489D01*
X215510551Y-96068167D01*
X215322498Y-96222498D01*
X215290809Y-96261111D01*
X215288405Y-96256613D01*
X215177962Y-96122038D01*
X215043387Y-96011595D01*
X214889851Y-95929528D01*
X214723255Y-95878992D01*
X214550001Y-95861928D01*
X213849999Y-95861928D01*
X213676745Y-95878992D01*
X213510149Y-95929528D01*
X213356613Y-96011595D01*
X213222038Y-96122038D01*
X213111595Y-96256613D01*
X213029528Y-96410149D01*
X212978992Y-96576745D01*
X212961928Y-96749999D01*
X211935000Y-96749999D01*
X211935000Y-96636094D01*
X211938555Y-96599999D01*
X211935000Y-96563904D01*
X211935000Y-96563895D01*
X211924365Y-96455915D01*
X211882337Y-96317367D01*
X211814087Y-96189680D01*
X211758574Y-96122038D01*
X211745253Y-96105806D01*
X211745250Y-96105803D01*
X211722237Y-96077762D01*
X211694197Y-96054750D01*
X209335000Y-93695554D01*
X209335000Y-88936105D01*
X209338556Y-88900000D01*
X209324365Y-88755915D01*
X209282337Y-88617366D01*
X209214087Y-88489680D01*
X209145253Y-88405806D01*
X209145250Y-88405803D01*
X209122237Y-88377762D01*
X209094197Y-88354750D01*
X207329975Y-86590529D01*
X207329975Y-84135000D01*
X207501939Y-84135000D01*
X207701898Y-84095226D01*
X207876763Y-84022794D01*
X207922038Y-84077962D01*
X208056613Y-84188405D01*
X208061111Y-84190809D01*
X208022498Y-84222498D01*
X207868167Y-84410551D01*
X207753489Y-84625099D01*
X207682870Y-84857898D01*
X207659025Y-85100000D01*
X207682870Y-85342102D01*
X207753489Y-85574901D01*
X207868167Y-85789449D01*
X208022498Y-85977502D01*
X208210551Y-86131833D01*
X208425099Y-86246511D01*
X208657898Y-86317130D01*
X208839335Y-86335000D01*
X209560665Y-86335000D01*
X209742102Y-86317130D01*
X209974901Y-86246511D01*
X210189449Y-86131833D01*
X210377502Y-85977502D01*
X210531833Y-85789449D01*
X210646511Y-85574901D01*
X210717130Y-85342102D01*
X210740975Y-85100000D01*
X210717130Y-84857898D01*
X210646511Y-84625099D01*
X210531833Y-84410551D01*
X210377502Y-84222498D01*
X210338889Y-84190809D01*
X210343387Y-84188405D01*
X210477962Y-84077962D01*
X210588405Y-83943387D01*
X210670472Y-83789851D01*
X210721008Y-83623255D01*
X210738072Y-83450001D01*
X210738072Y-82749999D01*
X210721008Y-82576745D01*
X210670472Y-82410149D01*
X210588405Y-82256613D01*
X210488600Y-82135000D01*
X211495554Y-82135000D01*
X214954746Y-85594193D01*
X214977762Y-85622238D01*
X215089680Y-85714087D01*
X215217367Y-85782337D01*
X215288573Y-85803937D01*
X215355914Y-85824365D01*
X215370132Y-85825765D01*
X215463895Y-85835000D01*
X215463902Y-85835000D01*
X215499999Y-85838555D01*
X215536096Y-85835000D01*
X221301289Y-85835000D01*
X221296063Y-85840226D01*
X221182795Y-86009744D01*
X221104774Y-86198102D01*
X221065000Y-86398061D01*
X221065000Y-86601939D01*
X221104774Y-86801898D01*
X221182795Y-86990256D01*
X221296063Y-87159774D01*
X221365001Y-87228712D01*
X221365000Y-89401556D01*
X221145495Y-89621061D01*
X221048003Y-89621061D01*
X220848044Y-89660835D01*
X220659686Y-89738856D01*
X220490168Y-89852124D01*
X220346005Y-89996287D01*
X220232737Y-90165805D01*
X220154716Y-90354163D01*
X220114942Y-90554122D01*
X220114942Y-90758000D01*
X220154716Y-90957959D01*
X220232737Y-91146317D01*
X220346005Y-91315835D01*
X220490168Y-91459998D01*
X220659686Y-91573266D01*
X220848044Y-91651287D01*
X221048003Y-91691061D01*
X221251881Y-91691061D01*
X221451840Y-91651287D01*
X221640198Y-91573266D01*
X221809716Y-91459998D01*
X221953879Y-91315835D01*
X222067147Y-91146317D01*
X222145168Y-90957959D01*
X222184942Y-90758000D01*
X222184942Y-90660508D01*
X222594197Y-90251253D01*
X222622237Y-90228241D01*
X222645250Y-90200200D01*
X222645253Y-90200197D01*
X222676709Y-90161868D01*
X222714087Y-90116323D01*
X222782337Y-89988636D01*
X222824365Y-89850088D01*
X222835000Y-89742108D01*
X222835000Y-89742107D01*
X222838556Y-89706003D01*
X222835000Y-89669898D01*
X222835000Y-87228711D01*
X222903937Y-87159774D01*
X223017205Y-86990256D01*
X223095226Y-86801898D01*
X223135000Y-86601939D01*
X223135000Y-86474446D01*
X224565000Y-87904447D01*
X224565001Y-89471288D01*
X224496063Y-89540226D01*
X224382795Y-89709744D01*
X224304774Y-89898102D01*
X224265000Y-90098061D01*
X224265000Y-90301939D01*
X224304774Y-90501898D01*
X224382795Y-90690256D01*
X224496063Y-90859774D01*
X224640226Y-91003937D01*
X224809744Y-91117205D01*
X224998102Y-91195226D01*
X225198061Y-91235000D01*
X225401939Y-91235000D01*
X225601898Y-91195226D01*
X225790256Y-91117205D01*
X225959774Y-91003937D01*
X226103937Y-90859774D01*
X226217205Y-90690256D01*
X226295226Y-90501898D01*
X226335000Y-90301939D01*
X226335000Y-90098061D01*
X226295226Y-89898102D01*
X226217205Y-89709744D01*
X226103937Y-89540226D01*
X226035000Y-89471289D01*
X226035000Y-87636105D01*
X226038556Y-87600000D01*
X226024365Y-87455915D01*
X226007403Y-87400000D01*
X225982337Y-87317367D01*
X225914087Y-87189680D01*
X225869726Y-87135627D01*
X225876092Y-87135000D01*
X226595554Y-87135000D01*
X227354746Y-87894193D01*
X227377762Y-87922238D01*
X227405806Y-87945253D01*
X227489680Y-88014087D01*
X227617366Y-88082337D01*
X227755915Y-88124365D01*
X227900000Y-88138556D01*
X227936105Y-88135000D01*
X228829868Y-88135000D01*
X228876480Y-88181612D01*
X229062376Y-88305824D01*
X229268933Y-88391383D01*
X229488212Y-88435000D01*
X229711788Y-88435000D01*
X229931067Y-88391383D01*
X230040000Y-88346261D01*
X230040001Y-123440000D01*
X200724416Y-123440000D01*
X200735000Y-123386788D01*
X200735000Y-123163212D01*
X200709497Y-123035000D01*
X210627893Y-123035000D01*
X210663998Y-123038556D01*
X210700103Y-123035000D01*
X210808083Y-123024365D01*
X210946631Y-122982337D01*
X211074318Y-122914087D01*
X211186236Y-122822238D01*
X211209256Y-122794188D01*
X211669867Y-122333578D01*
X211740226Y-122403937D01*
X211909744Y-122517205D01*
X212098102Y-122595226D01*
X212298061Y-122635000D01*
X212501939Y-122635000D01*
X212701898Y-122595226D01*
X212890256Y-122517205D01*
X213059774Y-122403937D01*
X213203937Y-122259774D01*
X213317205Y-122090256D01*
X213395226Y-121901898D01*
X213435000Y-121701939D01*
X213435000Y-121498061D01*
X213395226Y-121298102D01*
X213317205Y-121109744D01*
X213203937Y-120940226D01*
X213135000Y-120871289D01*
X213135000Y-118982444D01*
X214731912Y-117385533D01*
X214819294Y-117549014D01*
X215004866Y-117775134D01*
X215230986Y-117960706D01*
X215285791Y-117990000D01*
X215230986Y-118019294D01*
X215004866Y-118204866D01*
X214819294Y-118430986D01*
X214681401Y-118688966D01*
X214596487Y-118968889D01*
X214567815Y-119260000D01*
X214596487Y-119551111D01*
X214681401Y-119831034D01*
X214819294Y-120089014D01*
X215004866Y-120315134D01*
X215230986Y-120500706D01*
X215285791Y-120530000D01*
X215230986Y-120559294D01*
X215004866Y-120744866D01*
X214819294Y-120970986D01*
X214681401Y-121228966D01*
X214596487Y-121508889D01*
X214567815Y-121800000D01*
X214596487Y-122091111D01*
X214681401Y-122371034D01*
X214819294Y-122629014D01*
X215004866Y-122855134D01*
X215230986Y-123040706D01*
X215488966Y-123178599D01*
X215768889Y-123263513D01*
X215987050Y-123285000D01*
X216132950Y-123285000D01*
X216351111Y-123263513D01*
X216631034Y-123178599D01*
X216889014Y-123040706D01*
X217115134Y-122855134D01*
X217300706Y-122629014D01*
X217330000Y-122574209D01*
X217359294Y-122629014D01*
X217544866Y-122855134D01*
X217770986Y-123040706D01*
X218028966Y-123178599D01*
X218308889Y-123263513D01*
X218527050Y-123285000D01*
X218672950Y-123285000D01*
X218891111Y-123263513D01*
X219171034Y-123178599D01*
X219429014Y-123040706D01*
X219655134Y-122855134D01*
X219840706Y-122629014D01*
X219978599Y-122371034D01*
X220063513Y-122091111D01*
X220092185Y-121800000D01*
X220063513Y-121508889D01*
X219978599Y-121228966D01*
X219840706Y-120970986D01*
X219655134Y-120744866D01*
X219429014Y-120559294D01*
X219374209Y-120530000D01*
X219429014Y-120500706D01*
X219655134Y-120315134D01*
X219840706Y-120089014D01*
X219978599Y-119831034D01*
X219994118Y-119779872D01*
X224165000Y-119779872D01*
X224165000Y-120220128D01*
X224250890Y-120651925D01*
X224419369Y-121058669D01*
X224663962Y-121424729D01*
X224975271Y-121736038D01*
X225341331Y-121980631D01*
X225748075Y-122149110D01*
X226179872Y-122235000D01*
X226620128Y-122235000D01*
X227051925Y-122149110D01*
X227458669Y-121980631D01*
X227824729Y-121736038D01*
X228136038Y-121424729D01*
X228380631Y-121058669D01*
X228549110Y-120651925D01*
X228635000Y-120220128D01*
X228635000Y-119779872D01*
X228549110Y-119348075D01*
X228380631Y-118941331D01*
X228136038Y-118575271D01*
X227824729Y-118263962D01*
X227458669Y-118019369D01*
X227051925Y-117850890D01*
X226620128Y-117765000D01*
X226179872Y-117765000D01*
X225748075Y-117850890D01*
X225341331Y-118019369D01*
X224975271Y-118263962D01*
X224663962Y-118575271D01*
X224419369Y-118941331D01*
X224250890Y-119348075D01*
X224165000Y-119779872D01*
X219994118Y-119779872D01*
X220063513Y-119551111D01*
X220092185Y-119260000D01*
X220063513Y-118968889D01*
X219978599Y-118688966D01*
X219840706Y-118430986D01*
X219655134Y-118204866D01*
X219429014Y-118019294D01*
X219374209Y-117990000D01*
X219429014Y-117960706D01*
X219655134Y-117775134D01*
X219840706Y-117549014D01*
X219978599Y-117291034D01*
X220063513Y-117011111D01*
X220092185Y-116720000D01*
X220063513Y-116428889D01*
X219978599Y-116148966D01*
X219840706Y-115890986D01*
X219655134Y-115664866D01*
X219429014Y-115479294D01*
X219374209Y-115450000D01*
X219429014Y-115420706D01*
X219655134Y-115235134D01*
X219840706Y-115009014D01*
X219978599Y-114751034D01*
X220063513Y-114471111D01*
X220092185Y-114180000D01*
X220063513Y-113888889D01*
X219978599Y-113608966D01*
X219840706Y-113350986D01*
X219655134Y-113124866D01*
X219429014Y-112939294D01*
X219374209Y-112910000D01*
X219429014Y-112880706D01*
X219655134Y-112695134D01*
X219840706Y-112469014D01*
X219978599Y-112211034D01*
X220063513Y-111931111D01*
X220092185Y-111640000D01*
X220063513Y-111348889D01*
X219978599Y-111068966D01*
X219840706Y-110810986D01*
X219655134Y-110584866D01*
X219429014Y-110399294D01*
X219171034Y-110261401D01*
X218891111Y-110176487D01*
X218672950Y-110155000D01*
X218527050Y-110155000D01*
X218308889Y-110176487D01*
X218206878Y-110207432D01*
X217995258Y-109995812D01*
X217972237Y-109967761D01*
X217860319Y-109875912D01*
X217732632Y-109807662D01*
X217594084Y-109765634D01*
X217486104Y-109754999D01*
X217449999Y-109751443D01*
X217413894Y-109754999D01*
X215544093Y-109754999D01*
X215507998Y-109751444D01*
X215471903Y-109754999D01*
X215471894Y-109754999D01*
X215363914Y-109765634D01*
X215225366Y-109807662D01*
X215097679Y-109875912D01*
X214985761Y-109967761D01*
X214962745Y-109995806D01*
X214015797Y-110942755D01*
X213987752Y-110965771D01*
X213895903Y-111077689D01*
X213827653Y-111205376D01*
X213785624Y-111343924D01*
X213771433Y-111488009D01*
X213774990Y-111524124D01*
X213774989Y-115132165D01*
X211408706Y-117498449D01*
X211312063Y-117577762D01*
X211289042Y-117605813D01*
X211105788Y-117789067D01*
X211077743Y-117812083D01*
X210985894Y-117924001D01*
X210968836Y-117955915D01*
X210917644Y-118051688D01*
X210875615Y-118190236D01*
X210861424Y-118334321D01*
X210864981Y-118370436D01*
X210864980Y-120493873D01*
X210193854Y-121165000D01*
X208936197Y-121165000D01*
X208899990Y-121161434D01*
X208863783Y-121165000D01*
X204035000Y-121165000D01*
X204035000Y-121098061D01*
X203995226Y-120898102D01*
X203917205Y-120709744D01*
X203803937Y-120540226D01*
X203659774Y-120396063D01*
X203490256Y-120282795D01*
X203301898Y-120204774D01*
X203101939Y-120165000D01*
X202898061Y-120165000D01*
X202698102Y-120204774D01*
X202509744Y-120282795D01*
X202409898Y-120349510D01*
X202301898Y-120304774D01*
X202101939Y-120265000D01*
X201898061Y-120265000D01*
X201698102Y-120304774D01*
X201509744Y-120382795D01*
X201340226Y-120496063D01*
X201196063Y-120640226D01*
X201082795Y-120809744D01*
X201004774Y-120998102D01*
X200965000Y-121198061D01*
X200965000Y-121401939D01*
X200997435Y-121565000D01*
X199428711Y-121565000D01*
X199359774Y-121496063D01*
X199190256Y-121382795D01*
X199001898Y-121304774D01*
X198801939Y-121265000D01*
X198598061Y-121265000D01*
X198398102Y-121304774D01*
X198209744Y-121382795D01*
X198040226Y-121496063D01*
X197896063Y-121640226D01*
X197895906Y-121640461D01*
X195998187Y-119742743D01*
X195998187Y-119708212D01*
X195954570Y-119488933D01*
X195869011Y-119282376D01*
X195744799Y-119096480D01*
X195586707Y-118938388D01*
X195400811Y-118814176D01*
X195194254Y-118728617D01*
X194974975Y-118685000D01*
X194751399Y-118685000D01*
X194532120Y-118728617D01*
X194325563Y-118814176D01*
X194139667Y-118938388D01*
X193981575Y-119096480D01*
X193857363Y-119282376D01*
X193771804Y-119488933D01*
X193728187Y-119708212D01*
X193728187Y-119931788D01*
X193771804Y-120151067D01*
X193857363Y-120357624D01*
X193981575Y-120543520D01*
X194139667Y-120701612D01*
X194325563Y-120825824D01*
X194532120Y-120911383D01*
X194751399Y-120955000D01*
X194974975Y-120955000D01*
X195105574Y-120929022D01*
X196716551Y-122540000D01*
X191679447Y-122540000D01*
X189235000Y-120095554D01*
X189235000Y-119888212D01*
X189191383Y-119668933D01*
X189105824Y-119462376D01*
X188981612Y-119276480D01*
X188823520Y-119118388D01*
X188637624Y-118994176D01*
X188431067Y-118908617D01*
X188211788Y-118865000D01*
X187988212Y-118865000D01*
X187768933Y-118908617D01*
X187562376Y-118994176D01*
X187376480Y-119118388D01*
X187229868Y-119265000D01*
X180140759Y-119265000D01*
X180081612Y-119176480D01*
X179923520Y-119018388D01*
X179737624Y-118894176D01*
X179531067Y-118808617D01*
X179311788Y-118765000D01*
X179088212Y-118765000D01*
X178868933Y-118808617D01*
X178662376Y-118894176D01*
X178476480Y-119018388D01*
X178329868Y-119165000D01*
X170767187Y-119165000D01*
X170631067Y-119108617D01*
X170411788Y-119065000D01*
X170188212Y-119065000D01*
X169968933Y-119108617D01*
X169762376Y-119194176D01*
X169576480Y-119318388D01*
X169418388Y-119476480D01*
X169294176Y-119662376D01*
X169208617Y-119868933D01*
X169165000Y-120088212D01*
X169165000Y-120311788D01*
X169208617Y-120531067D01*
X169294176Y-120737624D01*
X169418388Y-120923520D01*
X169576480Y-121081612D01*
X169762376Y-121205824D01*
X169968933Y-121291383D01*
X170188212Y-121335000D01*
X170411788Y-121335000D01*
X170631067Y-121291383D01*
X170837624Y-121205824D01*
X171023520Y-121081612D01*
X171181612Y-120923520D01*
X171305824Y-120737624D01*
X171348332Y-120635000D01*
X178329868Y-120635000D01*
X178476480Y-120781612D01*
X178662376Y-120905824D01*
X178868933Y-120991383D01*
X179088212Y-121035000D01*
X179311788Y-121035000D01*
X179531067Y-120991383D01*
X179737624Y-120905824D01*
X179923520Y-120781612D01*
X179970132Y-120735000D01*
X187229868Y-120735000D01*
X187376480Y-120881612D01*
X187562376Y-121005824D01*
X187768933Y-121091383D01*
X187988212Y-121135000D01*
X188195554Y-121135000D01*
X190500553Y-123440000D01*
X142460000Y-123440000D01*
X142460000Y-119779872D01*
X143365000Y-119779872D01*
X143365000Y-120220128D01*
X143450890Y-120651925D01*
X143619369Y-121058669D01*
X143863962Y-121424729D01*
X144175271Y-121736038D01*
X144541331Y-121980631D01*
X144948075Y-122149110D01*
X145379872Y-122235000D01*
X145820128Y-122235000D01*
X146251925Y-122149110D01*
X146658669Y-121980631D01*
X147024729Y-121736038D01*
X147336038Y-121424729D01*
X147493322Y-121189335D01*
X149065000Y-121189335D01*
X149065000Y-122010664D01*
X149082870Y-122192101D01*
X149153489Y-122424900D01*
X149268167Y-122639448D01*
X149422498Y-122827502D01*
X149610551Y-122981833D01*
X149825099Y-123096511D01*
X150057898Y-123167130D01*
X150300000Y-123190975D01*
X150542101Y-123167130D01*
X150774900Y-123096511D01*
X150989448Y-122981833D01*
X151177502Y-122827502D01*
X151331833Y-122639449D01*
X151446511Y-122424901D01*
X151517130Y-122192102D01*
X151535000Y-122010665D01*
X151535000Y-121189336D01*
X151517130Y-121007899D01*
X151446511Y-120775099D01*
X151331833Y-120560551D01*
X151177502Y-120372498D01*
X151000232Y-120227016D01*
X151166052Y-120260000D01*
X151433948Y-120260000D01*
X151696697Y-120207736D01*
X151944201Y-120105216D01*
X152166949Y-119956381D01*
X152356381Y-119766949D01*
X152505216Y-119544201D01*
X152607736Y-119296697D01*
X152660000Y-119033948D01*
X152660000Y-118766052D01*
X154940000Y-118766052D01*
X154940000Y-119033948D01*
X154992264Y-119296697D01*
X155094784Y-119544201D01*
X155243619Y-119766949D01*
X155433051Y-119956381D01*
X155655799Y-120105216D01*
X155903303Y-120207736D01*
X156166052Y-120260000D01*
X156433948Y-120260000D01*
X156599768Y-120227016D01*
X156422498Y-120372498D01*
X156268167Y-120560552D01*
X156153489Y-120775100D01*
X156082870Y-121007899D01*
X156065000Y-121189336D01*
X156065000Y-122010665D01*
X156082870Y-122192102D01*
X156153489Y-122424901D01*
X156268168Y-122639449D01*
X156422499Y-122827502D01*
X156610552Y-122981833D01*
X156825100Y-123096511D01*
X157057899Y-123167130D01*
X157300000Y-123190975D01*
X157542102Y-123167130D01*
X157774901Y-123096511D01*
X157989449Y-122981833D01*
X158177502Y-122827502D01*
X158331833Y-122639449D01*
X158446511Y-122424901D01*
X158517130Y-122192101D01*
X158535000Y-122010664D01*
X158535000Y-121189335D01*
X158517130Y-121007898D01*
X158446511Y-120775099D01*
X158331833Y-120560551D01*
X158177502Y-120372498D01*
X157989448Y-120218167D01*
X157774900Y-120103489D01*
X157542101Y-120032870D01*
X157300000Y-120009025D01*
X157057898Y-120032870D01*
X157047965Y-120035883D01*
X157166949Y-119956381D01*
X157356381Y-119766949D01*
X157505216Y-119544201D01*
X157607736Y-119296697D01*
X157660000Y-119033948D01*
X157660000Y-118766052D01*
X157607736Y-118503303D01*
X157505216Y-118255799D01*
X157356381Y-118033051D01*
X157166949Y-117843619D01*
X156944201Y-117694784D01*
X156696697Y-117592264D01*
X156433948Y-117540000D01*
X156166052Y-117540000D01*
X155903303Y-117592264D01*
X155655799Y-117694784D01*
X155433051Y-117843619D01*
X155243619Y-118033051D01*
X155094784Y-118255799D01*
X154992264Y-118503303D01*
X154940000Y-118766052D01*
X152660000Y-118766052D01*
X152607736Y-118503303D01*
X152505216Y-118255799D01*
X152356381Y-118033051D01*
X152166949Y-117843619D01*
X151944201Y-117694784D01*
X151696697Y-117592264D01*
X151433948Y-117540000D01*
X151166052Y-117540000D01*
X150903303Y-117592264D01*
X150655799Y-117694784D01*
X150433051Y-117843619D01*
X150243619Y-118033051D01*
X150094784Y-118255799D01*
X149992264Y-118503303D01*
X149940000Y-118766052D01*
X149940000Y-119033948D01*
X149992264Y-119296697D01*
X150094784Y-119544201D01*
X150243619Y-119766949D01*
X150433051Y-119956381D01*
X150552035Y-120035883D01*
X150542102Y-120032870D01*
X150300000Y-120009025D01*
X150057899Y-120032870D01*
X149825100Y-120103489D01*
X149610552Y-120218167D01*
X149422499Y-120372498D01*
X149268168Y-120560551D01*
X149153489Y-120775099D01*
X149082870Y-121007898D01*
X149065000Y-121189335D01*
X147493322Y-121189335D01*
X147580631Y-121058669D01*
X147749110Y-120651925D01*
X147835000Y-120220128D01*
X147835000Y-119779872D01*
X147749110Y-119348075D01*
X147580631Y-118941331D01*
X147336038Y-118575271D01*
X147024729Y-118263962D01*
X146658669Y-118019369D01*
X146251925Y-117850890D01*
X145820128Y-117765000D01*
X145379872Y-117765000D01*
X144948075Y-117850890D01*
X144541331Y-118019369D01*
X144175271Y-118263962D01*
X143863962Y-118575271D01*
X143619369Y-118941331D01*
X143450890Y-119348075D01*
X143365000Y-119779872D01*
X142460000Y-119779872D01*
X142460000Y-116120568D01*
X142637248Y-116266031D01*
X142921285Y-116417852D01*
X143229484Y-116511343D01*
X143469678Y-116535000D01*
X145130322Y-116535000D01*
X145370516Y-116511343D01*
X145678715Y-116417852D01*
X145962752Y-116266031D01*
X146211714Y-116061714D01*
X146416031Y-115812752D01*
X146567852Y-115528715D01*
X146661343Y-115220516D01*
X146692911Y-114900000D01*
X146661343Y-114579484D01*
X146567852Y-114271285D01*
X146416031Y-113987248D01*
X146211714Y-113738286D01*
X145962752Y-113533969D01*
X145678715Y-113382148D01*
X145370516Y-113288657D01*
X145130322Y-113265000D01*
X143469678Y-113265000D01*
X143229484Y-113288657D01*
X142921285Y-113382148D01*
X142637248Y-113533969D01*
X142460000Y-113679432D01*
X142460000Y-111831287D01*
X142718574Y-111779853D01*
X142979727Y-111671680D01*
X143214759Y-111514637D01*
X143414637Y-111314759D01*
X143571680Y-111079727D01*
X143679853Y-110818574D01*
X143735000Y-110541335D01*
X143735000Y-110258665D01*
X143679853Y-109981426D01*
X143571680Y-109720273D01*
X143414637Y-109485241D01*
X143214759Y-109285363D01*
X142979727Y-109128320D01*
X142718574Y-109020147D01*
X142460000Y-108968713D01*
X142460000Y-108400000D01*
X149661928Y-108400000D01*
X149661928Y-112400000D01*
X149674188Y-112524482D01*
X149710498Y-112644180D01*
X149769463Y-112754494D01*
X149848815Y-112851185D01*
X149945506Y-112930537D01*
X150055820Y-112989502D01*
X150175518Y-113025812D01*
X150300000Y-113038072D01*
X152300000Y-113038072D01*
X152424482Y-113025812D01*
X152544180Y-112989502D01*
X152654494Y-112930537D01*
X152751185Y-112851185D01*
X152830537Y-112754494D01*
X152889502Y-112644180D01*
X152925812Y-112524482D01*
X152938072Y-112400000D01*
X152938072Y-108400000D01*
X152925812Y-108275518D01*
X152889502Y-108155820D01*
X152830537Y-108045506D01*
X152751185Y-107948815D01*
X152654494Y-107869463D01*
X152544180Y-107810498D01*
X152424482Y-107774188D01*
X152300000Y-107761928D01*
X150300000Y-107761928D01*
X150175518Y-107774188D01*
X150055820Y-107810498D01*
X149945506Y-107869463D01*
X149848815Y-107948815D01*
X149769463Y-108045506D01*
X149710498Y-108155820D01*
X149674188Y-108275518D01*
X149661928Y-108400000D01*
X142460000Y-108400000D01*
X142460000Y-107120568D01*
X142637248Y-107266031D01*
X142921285Y-107417852D01*
X143229484Y-107511343D01*
X143469678Y-107535000D01*
X145130322Y-107535000D01*
X145370516Y-107511343D01*
X145678715Y-107417852D01*
X145962752Y-107266031D01*
X146211714Y-107061714D01*
X146416031Y-106812752D01*
X146567852Y-106528715D01*
X146661343Y-106220516D01*
X146692911Y-105900000D01*
X146661343Y-105579484D01*
X146567852Y-105271285D01*
X146416031Y-104987248D01*
X146211714Y-104738286D01*
X145962752Y-104533969D01*
X145678715Y-104382148D01*
X145370516Y-104288657D01*
X145130322Y-104265000D01*
X143469678Y-104265000D01*
X143229484Y-104288657D01*
X142921285Y-104382148D01*
X142637248Y-104533969D01*
X142460000Y-104679432D01*
X142460000Y-99140000D01*
X168807815Y-99140000D01*
X168836487Y-99431111D01*
X168921401Y-99711034D01*
X169059294Y-99969014D01*
X169244866Y-100195134D01*
X169470986Y-100380706D01*
X169525791Y-100410000D01*
X169470986Y-100439294D01*
X169244866Y-100624866D01*
X169059294Y-100850986D01*
X168921401Y-101108966D01*
X168836487Y-101388889D01*
X168807815Y-101680000D01*
X168836487Y-101971111D01*
X168921401Y-102251034D01*
X169059294Y-102509014D01*
X169244866Y-102735134D01*
X169470986Y-102920706D01*
X169728966Y-103058599D01*
X170008889Y-103143513D01*
X170227050Y-103165000D01*
X170372950Y-103165000D01*
X170591111Y-103143513D01*
X170871034Y-103058599D01*
X171129014Y-102920706D01*
X171355134Y-102735134D01*
X171540706Y-102509014D01*
X171678599Y-102251034D01*
X171763513Y-101971111D01*
X171792185Y-101680000D01*
X171763513Y-101388889D01*
X171678599Y-101108966D01*
X171540706Y-100850986D01*
X171355134Y-100624866D01*
X171129014Y-100439294D01*
X171074209Y-100410000D01*
X171129014Y-100380706D01*
X171355134Y-100195134D01*
X171540706Y-99969014D01*
X171678599Y-99711034D01*
X171763513Y-99431111D01*
X171792185Y-99140000D01*
X171763513Y-98848889D01*
X171678599Y-98568966D01*
X171540706Y-98310986D01*
X171355134Y-98084866D01*
X171129014Y-97899294D01*
X170871034Y-97761401D01*
X170591111Y-97676487D01*
X170372950Y-97655000D01*
X170227050Y-97655000D01*
X170008889Y-97676487D01*
X169728966Y-97761401D01*
X169470986Y-97899294D01*
X169244866Y-98084866D01*
X169059294Y-98310986D01*
X168921401Y-98568966D01*
X168836487Y-98848889D01*
X168807815Y-99140000D01*
X142460000Y-99140000D01*
X142460000Y-94898061D01*
X171865000Y-94898061D01*
X171865000Y-95101939D01*
X171904774Y-95301898D01*
X171982795Y-95490256D01*
X172096063Y-95659774D01*
X172240226Y-95803937D01*
X172409744Y-95917205D01*
X172598102Y-95995226D01*
X172798061Y-96035000D01*
X173001939Y-96035000D01*
X173201898Y-95995226D01*
X173390256Y-95917205D01*
X173559774Y-95803937D01*
X173703937Y-95659774D01*
X173817205Y-95490256D01*
X173895226Y-95301898D01*
X173935000Y-95101939D01*
X173935000Y-94898061D01*
X173895226Y-94698102D01*
X173817205Y-94509744D01*
X173703937Y-94340226D01*
X173660000Y-94296289D01*
X173660000Y-93214801D01*
X174914802Y-91960000D01*
X176396289Y-91960000D01*
X176440226Y-92003937D01*
X176609744Y-92117205D01*
X176798102Y-92195226D01*
X176998061Y-92235000D01*
X177201939Y-92235000D01*
X177401898Y-92195226D01*
X177590256Y-92117205D01*
X177759774Y-92003937D01*
X177903937Y-91859774D01*
X178017205Y-91690256D01*
X178095226Y-91501898D01*
X178135000Y-91301939D01*
X178135000Y-91098061D01*
X178095226Y-90898102D01*
X178017205Y-90709744D01*
X177903937Y-90540226D01*
X177759774Y-90396063D01*
X177590256Y-90282795D01*
X177401898Y-90204774D01*
X177201939Y-90165000D01*
X176998061Y-90165000D01*
X176798102Y-90204774D01*
X176609744Y-90282795D01*
X176440226Y-90396063D01*
X176396289Y-90440000D01*
X174637322Y-90440000D01*
X174599999Y-90436324D01*
X174562676Y-90440000D01*
X174562667Y-90440000D01*
X174451014Y-90450997D01*
X174307753Y-90494454D01*
X174175723Y-90565026D01*
X174120533Y-90610320D01*
X174059999Y-90659999D01*
X174036201Y-90688997D01*
X172388998Y-92336201D01*
X172360000Y-92359999D01*
X172336202Y-92388997D01*
X172336201Y-92388998D01*
X172265026Y-92475724D01*
X172194454Y-92607754D01*
X172164180Y-92707558D01*
X172154271Y-92740226D01*
X172150998Y-92751015D01*
X172136324Y-92900000D01*
X172140001Y-92937332D01*
X172140000Y-94296289D01*
X172096063Y-94340226D01*
X171982795Y-94509744D01*
X171904774Y-94698102D01*
X171865000Y-94898061D01*
X142460000Y-94898061D01*
X142460000Y-91198061D01*
X165165000Y-91198061D01*
X165165000Y-91401939D01*
X165204774Y-91601898D01*
X165282795Y-91790256D01*
X165396063Y-91959774D01*
X165479614Y-92043325D01*
X165494454Y-92092246D01*
X165565026Y-92224276D01*
X165597541Y-92263895D01*
X165659999Y-92340001D01*
X165689003Y-92363804D01*
X166765000Y-93439802D01*
X166765000Y-93501939D01*
X166804774Y-93701898D01*
X166882795Y-93890256D01*
X166996063Y-94059774D01*
X167140226Y-94203937D01*
X167309744Y-94317205D01*
X167498102Y-94395226D01*
X167698061Y-94435000D01*
X167901939Y-94435000D01*
X168101898Y-94395226D01*
X168290256Y-94317205D01*
X168459774Y-94203937D01*
X168603937Y-94059774D01*
X168717205Y-93890256D01*
X168795226Y-93701898D01*
X168835000Y-93501939D01*
X168835000Y-93298061D01*
X168795226Y-93098102D01*
X168717205Y-92909744D01*
X168603937Y-92740226D01*
X168459774Y-92596063D01*
X168290256Y-92482795D01*
X168101898Y-92404774D01*
X167901939Y-92365000D01*
X167839802Y-92365000D01*
X167160510Y-91685709D01*
X167195226Y-91601898D01*
X167235000Y-91401939D01*
X167235000Y-91198061D01*
X167195226Y-90998102D01*
X167117205Y-90809744D01*
X167003937Y-90640226D01*
X166859774Y-90496063D01*
X166690256Y-90382795D01*
X166501898Y-90304774D01*
X166301939Y-90265000D01*
X166098061Y-90265000D01*
X165898102Y-90304774D01*
X165709744Y-90382795D01*
X165540226Y-90496063D01*
X165396063Y-90640226D01*
X165282795Y-90809744D01*
X165204774Y-90998102D01*
X165165000Y-91198061D01*
X142460000Y-91198061D01*
X142460000Y-80960000D01*
X150290604Y-80960000D01*
X150125363Y-81125241D01*
G36*
X184471960Y-109494199D02*
G01*
X184494972Y-109522239D01*
X184523011Y-109545250D01*
X184523015Y-109545254D01*
X184606888Y-109614087D01*
X184665196Y-109645253D01*
X184734577Y-109682338D01*
X184873125Y-109724366D01*
X184981105Y-109735001D01*
X184981113Y-109735001D01*
X185017208Y-109738556D01*
X185053303Y-109735001D01*
X185997434Y-109735001D01*
X185965000Y-109898061D01*
X185965000Y-110101939D01*
X186004774Y-110301898D01*
X186082795Y-110490256D01*
X186196063Y-110659774D01*
X186340226Y-110803937D01*
X186509744Y-110917205D01*
X186698102Y-110995226D01*
X186898061Y-111035000D01*
X187101939Y-111035000D01*
X187301898Y-110995226D01*
X187490256Y-110917205D01*
X187659774Y-110803937D01*
X187803937Y-110659774D01*
X187917205Y-110490256D01*
X187995226Y-110301898D01*
X188028422Y-110135009D01*
X197695564Y-110135009D01*
X198754756Y-111194203D01*
X198777772Y-111222248D01*
X198889690Y-111314097D01*
X199017377Y-111382347D01*
X199054015Y-111393461D01*
X202165000Y-114504447D01*
X202165000Y-114601939D01*
X202197435Y-114765000D01*
X181804447Y-114765000D01*
X177735000Y-110695554D01*
X177735000Y-110488212D01*
X177691383Y-110268933D01*
X177605824Y-110062376D01*
X177481612Y-109876480D01*
X177440132Y-109835000D01*
X182271289Y-109835000D01*
X182340226Y-109903937D01*
X182509744Y-110017205D01*
X182698102Y-110095226D01*
X182898061Y-110135000D01*
X183101939Y-110135000D01*
X183301898Y-110095226D01*
X183490256Y-110017205D01*
X183659774Y-109903937D01*
X183803937Y-109759774D01*
X183917205Y-109590256D01*
X183995226Y-109401898D01*
X184035000Y-109201939D01*
X184035000Y-109057239D01*
X184471960Y-109494199D01*
X184471960Y-109494199D01*
G37*
X184471960Y-109494199D02*
X184494972Y-109522239D01*
X184523011Y-109545250D01*
X184523015Y-109545254D01*
X184606888Y-109614087D01*
X184665196Y-109645253D01*
X184734577Y-109682338D01*
X184873125Y-109724366D01*
X184981105Y-109735001D01*
X184981113Y-109735001D01*
X185017208Y-109738556D01*
X185053303Y-109735001D01*
X185997434Y-109735001D01*
X185965000Y-109898061D01*
X185965000Y-110101939D01*
X186004774Y-110301898D01*
X186082795Y-110490256D01*
X186196063Y-110659774D01*
X186340226Y-110803937D01*
X186509744Y-110917205D01*
X186698102Y-110995226D01*
X186898061Y-111035000D01*
X187101939Y-111035000D01*
X187301898Y-110995226D01*
X187490256Y-110917205D01*
X187659774Y-110803937D01*
X187803937Y-110659774D01*
X187917205Y-110490256D01*
X187995226Y-110301898D01*
X188028422Y-110135009D01*
X197695564Y-110135009D01*
X198754756Y-111194203D01*
X198777772Y-111222248D01*
X198889690Y-111314097D01*
X199017377Y-111382347D01*
X199054015Y-111393461D01*
X202165000Y-114504447D01*
X202165000Y-114601939D01*
X202197435Y-114765000D01*
X181804447Y-114765000D01*
X177735000Y-110695554D01*
X177735000Y-110488212D01*
X177691383Y-110268933D01*
X177605824Y-110062376D01*
X177481612Y-109876480D01*
X177440132Y-109835000D01*
X182271289Y-109835000D01*
X182340226Y-109903937D01*
X182509744Y-110017205D01*
X182698102Y-110095226D01*
X182898061Y-110135000D01*
X183101939Y-110135000D01*
X183301898Y-110095226D01*
X183490256Y-110017205D01*
X183659774Y-109903937D01*
X183803937Y-109759774D01*
X183917205Y-109590256D01*
X183995226Y-109401898D01*
X184035000Y-109201939D01*
X184035000Y-109057239D01*
X184471960Y-109494199D01*
G36*
X194579732Y-107219179D02*
G01*
X194576928Y-107225948D01*
X194537154Y-107425907D01*
X194537154Y-107629785D01*
X194576928Y-107829744D01*
X194654949Y-108018102D01*
X194768217Y-108187620D01*
X194845598Y-108265001D01*
X185321657Y-108265002D01*
X184856792Y-107800138D01*
X184868505Y-107792312D01*
X185082312Y-107578505D01*
X185160000Y-107462237D01*
X185237688Y-107578505D01*
X185451495Y-107792312D01*
X185702905Y-107960299D01*
X185982257Y-108076011D01*
X186278816Y-108135000D01*
X186581184Y-108135000D01*
X186877743Y-108076011D01*
X187157095Y-107960299D01*
X187408505Y-107792312D01*
X187622312Y-107578505D01*
X187700000Y-107462237D01*
X187777688Y-107578505D01*
X187991495Y-107792312D01*
X188242905Y-107960299D01*
X188522257Y-108076011D01*
X188818816Y-108135000D01*
X189121184Y-108135000D01*
X189417743Y-108076011D01*
X189697095Y-107960299D01*
X189948505Y-107792312D01*
X190162312Y-107578505D01*
X190330299Y-107327095D01*
X190446011Y-107047743D01*
X190505000Y-106751184D01*
X190505000Y-106448816D01*
X190446011Y-106152257D01*
X190330299Y-105872905D01*
X190162312Y-105621495D01*
X189948505Y-105407688D01*
X189876502Y-105359577D01*
X189959774Y-105303937D01*
X190028711Y-105235000D01*
X192595554Y-105235000D01*
X194579732Y-107219179D01*
X194579732Y-107219179D01*
G37*
X194579732Y-107219179D02*
X194576928Y-107225948D01*
X194537154Y-107425907D01*
X194537154Y-107629785D01*
X194576928Y-107829744D01*
X194654949Y-108018102D01*
X194768217Y-108187620D01*
X194845598Y-108265001D01*
X185321657Y-108265002D01*
X184856792Y-107800138D01*
X184868505Y-107792312D01*
X185082312Y-107578505D01*
X185160000Y-107462237D01*
X185237688Y-107578505D01*
X185451495Y-107792312D01*
X185702905Y-107960299D01*
X185982257Y-108076011D01*
X186278816Y-108135000D01*
X186581184Y-108135000D01*
X186877743Y-108076011D01*
X187157095Y-107960299D01*
X187408505Y-107792312D01*
X187622312Y-107578505D01*
X187700000Y-107462237D01*
X187777688Y-107578505D01*
X187991495Y-107792312D01*
X188242905Y-107960299D01*
X188522257Y-108076011D01*
X188818816Y-108135000D01*
X189121184Y-108135000D01*
X189417743Y-108076011D01*
X189697095Y-107960299D01*
X189948505Y-107792312D01*
X190162312Y-107578505D01*
X190330299Y-107327095D01*
X190446011Y-107047743D01*
X190505000Y-106751184D01*
X190505000Y-106448816D01*
X190446011Y-106152257D01*
X190330299Y-105872905D01*
X190162312Y-105621495D01*
X189948505Y-105407688D01*
X189876502Y-105359577D01*
X189959774Y-105303937D01*
X190028711Y-105235000D01*
X192595554Y-105235000D01*
X194579732Y-107219179D01*
G36*
X207009237Y-81251317D02*
G01*
X206896873Y-81204774D01*
X206696914Y-81165000D01*
X206493036Y-81165000D01*
X206293077Y-81204774D01*
X206104719Y-81282795D01*
X205935201Y-81396063D01*
X205791038Y-81540226D01*
X205677770Y-81709744D01*
X205599749Y-81898102D01*
X205559975Y-82098061D01*
X205559975Y-82301939D01*
X205599749Y-82501898D01*
X205677770Y-82690256D01*
X205791038Y-82859774D01*
X205859975Y-82928711D01*
X205859976Y-86858860D01*
X205856419Y-86894975D01*
X205870610Y-87039060D01*
X205896488Y-87124365D01*
X205912639Y-87177608D01*
X205980889Y-87305295D01*
X206072738Y-87417213D01*
X206100783Y-87440229D01*
X206704210Y-88043656D01*
X206609744Y-88082785D01*
X206440226Y-88196053D01*
X206296063Y-88340216D01*
X206182795Y-88509734D01*
X206104774Y-88698092D01*
X206065000Y-88898051D01*
X206065000Y-89101929D01*
X206104774Y-89301888D01*
X206182795Y-89490246D01*
X206296063Y-89659764D01*
X206340000Y-89703701D01*
X206340001Y-93662668D01*
X206336324Y-93700000D01*
X206350998Y-93848985D01*
X206394454Y-93992246D01*
X206465026Y-94124276D01*
X206497541Y-94163895D01*
X206560000Y-94240001D01*
X206588998Y-94263799D01*
X206865000Y-94539801D01*
X206865000Y-94601939D01*
X206904774Y-94801898D01*
X206982795Y-94990256D01*
X207096063Y-95159774D01*
X207240226Y-95303937D01*
X207409744Y-95417205D01*
X207598102Y-95495226D01*
X207798061Y-95535000D01*
X208001939Y-95535000D01*
X208201898Y-95495226D01*
X208390256Y-95417205D01*
X208559774Y-95303937D01*
X208703937Y-95159774D01*
X208710502Y-95149948D01*
X210465000Y-96904447D01*
X210465001Y-98516146D01*
X210340256Y-98432795D01*
X210151898Y-98354774D01*
X209951939Y-98315000D01*
X209854447Y-98315000D01*
X200535000Y-88995554D01*
X200535000Y-87236105D01*
X200538556Y-87200000D01*
X200524365Y-87055915D01*
X200519252Y-87039060D01*
X200482337Y-86917367D01*
X200414087Y-86789680D01*
X200322238Y-86677762D01*
X200294193Y-86654746D01*
X199645826Y-86006379D01*
X199701898Y-85995226D01*
X199890256Y-85917205D01*
X200059774Y-85803937D01*
X200203937Y-85659774D01*
X200317205Y-85490256D01*
X200395226Y-85301898D01*
X200435000Y-85101939D01*
X200435000Y-84898061D01*
X200403020Y-84737286D01*
X200701721Y-84613560D01*
X201092349Y-84352550D01*
X201424550Y-84020349D01*
X201685560Y-83629721D01*
X201865346Y-83195679D01*
X201957000Y-82734902D01*
X201957000Y-82265098D01*
X201865346Y-81804321D01*
X201685560Y-81370279D01*
X201424550Y-80979651D01*
X201404899Y-80960000D01*
X207300553Y-80960000D01*
X207009237Y-81251317D01*
X207009237Y-81251317D01*
G37*
X207009237Y-81251317D02*
X206896873Y-81204774D01*
X206696914Y-81165000D01*
X206493036Y-81165000D01*
X206293077Y-81204774D01*
X206104719Y-81282795D01*
X205935201Y-81396063D01*
X205791038Y-81540226D01*
X205677770Y-81709744D01*
X205599749Y-81898102D01*
X205559975Y-82098061D01*
X205559975Y-82301939D01*
X205599749Y-82501898D01*
X205677770Y-82690256D01*
X205791038Y-82859774D01*
X205859975Y-82928711D01*
X205859976Y-86858860D01*
X205856419Y-86894975D01*
X205870610Y-87039060D01*
X205896488Y-87124365D01*
X205912639Y-87177608D01*
X205980889Y-87305295D01*
X206072738Y-87417213D01*
X206100783Y-87440229D01*
X206704210Y-88043656D01*
X206609744Y-88082785D01*
X206440226Y-88196053D01*
X206296063Y-88340216D01*
X206182795Y-88509734D01*
X206104774Y-88698092D01*
X206065000Y-88898051D01*
X206065000Y-89101929D01*
X206104774Y-89301888D01*
X206182795Y-89490246D01*
X206296063Y-89659764D01*
X206340000Y-89703701D01*
X206340001Y-93662668D01*
X206336324Y-93700000D01*
X206350998Y-93848985D01*
X206394454Y-93992246D01*
X206465026Y-94124276D01*
X206497541Y-94163895D01*
X206560000Y-94240001D01*
X206588998Y-94263799D01*
X206865000Y-94539801D01*
X206865000Y-94601939D01*
X206904774Y-94801898D01*
X206982795Y-94990256D01*
X207096063Y-95159774D01*
X207240226Y-95303937D01*
X207409744Y-95417205D01*
X207598102Y-95495226D01*
X207798061Y-95535000D01*
X208001939Y-95535000D01*
X208201898Y-95495226D01*
X208390256Y-95417205D01*
X208559774Y-95303937D01*
X208703937Y-95159774D01*
X208710502Y-95149948D01*
X210465000Y-96904447D01*
X210465001Y-98516146D01*
X210340256Y-98432795D01*
X210151898Y-98354774D01*
X209951939Y-98315000D01*
X209854447Y-98315000D01*
X200535000Y-88995554D01*
X200535000Y-87236105D01*
X200538556Y-87200000D01*
X200524365Y-87055915D01*
X200519252Y-87039060D01*
X200482337Y-86917367D01*
X200414087Y-86789680D01*
X200322238Y-86677762D01*
X200294193Y-86654746D01*
X199645826Y-86006379D01*
X199701898Y-85995226D01*
X199890256Y-85917205D01*
X200059774Y-85803937D01*
X200203937Y-85659774D01*
X200317205Y-85490256D01*
X200395226Y-85301898D01*
X200435000Y-85101939D01*
X200435000Y-84898061D01*
X200403020Y-84737286D01*
X200701721Y-84613560D01*
X201092349Y-84352550D01*
X201424550Y-84020349D01*
X201685560Y-83629721D01*
X201865346Y-83195679D01*
X201957000Y-82734902D01*
X201957000Y-82265098D01*
X201865346Y-81804321D01*
X201685560Y-81370279D01*
X201424550Y-80979651D01*
X201404899Y-80960000D01*
X207300553Y-80960000D01*
X207009237Y-81251317D01*
M02*
