G04 #@! TF.GenerationSoftware,KiCad,Pcbnew,(5.1.4-0-10_14)*
G04 #@! TF.CreationDate,2020-03-14T09:23:35+01:00*
G04 #@! TF.ProjectId,ArtnetNode,4172746e-6574-44e6-9f64-652e6b696361,rev?*
G04 #@! TF.SameCoordinates,Original*
G04 #@! TF.FileFunction,Legend,Top*
G04 #@! TF.FilePolarity,Positive*
%FSLAX46Y46*%
G04 Gerber Fmt 4.6, Leading zero omitted, Abs format (unit mm)*
G04 Created by KiCad (PCBNEW (5.1.4-0-10_14)) date 2020-03-14 09:23:35*
%MOMM*%
%LPD*%
G04 APERTURE LIST*
%ADD10C,0.120000*%
%ADD11C,0.150000*%
%ADD12C,0.100000*%
G04 APERTURE END LIST*
D10*
X227600000Y-105810000D02*
X225740000Y-105810000D01*
X227600000Y-105410000D02*
X227600000Y-105810000D01*
X228000000Y-105410000D02*
X227600000Y-105410000D01*
X228000000Y-105810000D02*
X228000000Y-105410000D01*
X229210000Y-105810000D02*
X228000000Y-105810000D01*
X229210000Y-103100000D02*
X229210000Y-105810000D01*
X227600000Y-100390000D02*
X225740000Y-100390000D01*
X227600000Y-100790000D02*
X227600000Y-100390000D01*
X228000000Y-100790000D02*
X227600000Y-100790000D01*
X228000000Y-100390000D02*
X228000000Y-100790000D01*
X229210000Y-100390000D02*
X228000000Y-100390000D01*
X229210000Y-103100000D02*
X229210000Y-100390000D01*
X227200000Y-106210000D02*
X227200000Y-105810000D01*
X227200000Y-99990000D02*
X227200000Y-100390000D01*
X229910000Y-99690000D02*
X227610000Y-99690000D01*
X229910000Y-101990000D02*
X229910000Y-99690000D01*
X229610000Y-106210000D02*
X229610000Y-99990000D01*
X225740000Y-106210000D02*
X229610000Y-106210000D01*
X225740000Y-99990000D02*
X225740000Y-106210000D01*
X229610000Y-99990000D02*
X225740000Y-99990000D01*
X221490000Y-97000000D02*
X221490000Y-95140000D01*
X221890000Y-97000000D02*
X221490000Y-97000000D01*
X221890000Y-97400000D02*
X221890000Y-97000000D01*
X221490000Y-97400000D02*
X221890000Y-97400000D01*
X221490000Y-98610000D02*
X221490000Y-97400000D01*
X224200000Y-98610000D02*
X221490000Y-98610000D01*
X226910000Y-97000000D02*
X226910000Y-95140000D01*
X226510000Y-97000000D02*
X226910000Y-97000000D01*
X226510000Y-97400000D02*
X226510000Y-97000000D01*
X226910000Y-97400000D02*
X226510000Y-97400000D01*
X226910000Y-98610000D02*
X226910000Y-97400000D01*
X224200000Y-98610000D02*
X226910000Y-98610000D01*
X221090000Y-96600000D02*
X221490000Y-96600000D01*
X227310000Y-96600000D02*
X226910000Y-96600000D01*
X227610000Y-99310000D02*
X227610000Y-97010000D01*
X225310000Y-99310000D02*
X227610000Y-99310000D01*
X221090000Y-99010000D02*
X227310000Y-99010000D01*
X221090000Y-95140000D02*
X221090000Y-99010000D01*
X227310000Y-95140000D02*
X221090000Y-95140000D01*
X227310000Y-99010000D02*
X227310000Y-95140000D01*
X222800000Y-105810000D02*
X220940000Y-105810000D01*
X222800000Y-105410000D02*
X222800000Y-105810000D01*
X223200000Y-105410000D02*
X222800000Y-105410000D01*
X223200000Y-105810000D02*
X223200000Y-105410000D01*
X224410000Y-105810000D02*
X223200000Y-105810000D01*
X224410000Y-103100000D02*
X224410000Y-105810000D01*
X222800000Y-100390000D02*
X220940000Y-100390000D01*
X222800000Y-100790000D02*
X222800000Y-100390000D01*
X223200000Y-100790000D02*
X222800000Y-100790000D01*
X223200000Y-100390000D02*
X223200000Y-100790000D01*
X224410000Y-100390000D02*
X223200000Y-100390000D01*
X224410000Y-103100000D02*
X224410000Y-100390000D01*
X222400000Y-106210000D02*
X222400000Y-105810000D01*
X222400000Y-99990000D02*
X222400000Y-100390000D01*
X225110000Y-99690000D02*
X222810000Y-99690000D01*
X225110000Y-101990000D02*
X225110000Y-99690000D01*
X224810000Y-106210000D02*
X224810000Y-99990000D01*
X220940000Y-106210000D02*
X224810000Y-106210000D01*
X220940000Y-99990000D02*
X220940000Y-106210000D01*
X224810000Y-99990000D02*
X220940000Y-99990000D01*
X209290000Y-102600000D02*
X209290000Y-100740000D01*
X209690000Y-102600000D02*
X209290000Y-102600000D01*
X209690000Y-103000000D02*
X209690000Y-102600000D01*
X209290000Y-103000000D02*
X209690000Y-103000000D01*
X209290000Y-104210000D02*
X209290000Y-103000000D01*
X213000000Y-104210000D02*
X209290000Y-104210000D01*
X216710000Y-102600000D02*
X216710000Y-100740000D01*
X216310000Y-102600000D02*
X216710000Y-102600000D01*
X216310000Y-103000000D02*
X216310000Y-102600000D01*
X216710000Y-103000000D02*
X216310000Y-103000000D01*
X216710000Y-104210000D02*
X216710000Y-103000000D01*
X213000000Y-104210000D02*
X216710000Y-104210000D01*
X208890000Y-102200000D02*
X209290000Y-102200000D01*
X217110000Y-102200000D02*
X216710000Y-102200000D01*
X217410000Y-104910000D02*
X217410000Y-102610000D01*
X215110000Y-104910000D02*
X217410000Y-104910000D01*
X208890000Y-104610000D02*
X217110000Y-104610000D01*
X208890000Y-100740000D02*
X208890000Y-104610000D01*
X217110000Y-100740000D02*
X208890000Y-100740000D01*
X217110000Y-104610000D02*
X217110000Y-100740000D01*
X219910000Y-97800000D02*
X219910000Y-99660000D01*
X219510000Y-97800000D02*
X219910000Y-97800000D01*
X219510000Y-97400000D02*
X219510000Y-97800000D01*
X219910000Y-97400000D02*
X219510000Y-97400000D01*
X219910000Y-96190000D02*
X219910000Y-97400000D01*
X216200000Y-96190000D02*
X219910000Y-96190000D01*
X212490000Y-97800000D02*
X212490000Y-99660000D01*
X212890000Y-97800000D02*
X212490000Y-97800000D01*
X212890000Y-97400000D02*
X212890000Y-97800000D01*
X212490000Y-97400000D02*
X212890000Y-97400000D01*
X212490000Y-96190000D02*
X212490000Y-97400000D01*
X216200000Y-96190000D02*
X212490000Y-96190000D01*
X220310000Y-98200000D02*
X219910000Y-98200000D01*
X212090000Y-98200000D02*
X212490000Y-98200000D01*
X211790000Y-95490000D02*
X211790000Y-97790000D01*
X214090000Y-95490000D02*
X211790000Y-95490000D01*
X220310000Y-95790000D02*
X212090000Y-95790000D01*
X220310000Y-99660000D02*
X220310000Y-95790000D01*
X212090000Y-99660000D02*
X220310000Y-99660000D01*
X212090000Y-95790000D02*
X212090000Y-99660000D01*
X208800000Y-88810000D02*
X206940000Y-88810000D01*
X208800000Y-88410000D02*
X208800000Y-88810000D01*
X209200000Y-88410000D02*
X208800000Y-88410000D01*
X209200000Y-88810000D02*
X209200000Y-88410000D01*
X210410000Y-88810000D02*
X209200000Y-88810000D01*
X210410000Y-85100000D02*
X210410000Y-88810000D01*
X208800000Y-81390000D02*
X206940000Y-81390000D01*
X208800000Y-81790000D02*
X208800000Y-81390000D01*
X209200000Y-81790000D02*
X208800000Y-81790000D01*
X209200000Y-81390000D02*
X209200000Y-81790000D01*
X210410000Y-81390000D02*
X209200000Y-81390000D01*
X210410000Y-85100000D02*
X210410000Y-81390000D01*
X208400000Y-89210000D02*
X208400000Y-88810000D01*
X208400000Y-80990000D02*
X208400000Y-81390000D01*
X211110000Y-80690000D02*
X208810000Y-80690000D01*
X211110000Y-82990000D02*
X211110000Y-80690000D01*
X210810000Y-89210000D02*
X210810000Y-80990000D01*
X206940000Y-89210000D02*
X210810000Y-89210000D01*
X206940000Y-80990000D02*
X206940000Y-89210000D01*
X210810000Y-80990000D02*
X206940000Y-80990000D01*
X142400000Y-80500000D02*
X143400000Y-80500000D01*
X167500000Y-80400000D02*
X166100000Y-80400000D01*
X167500000Y-80400000D02*
X167500000Y-81800000D01*
X167500000Y-104000000D02*
X167500000Y-102600000D01*
X166200000Y-104000000D02*
X167500000Y-104000000D01*
X142400000Y-104000000D02*
X143500000Y-104000000D01*
X195070000Y-113450000D02*
X195070000Y-112300000D01*
X187770000Y-113450000D02*
X195070000Y-113450000D01*
X187770000Y-107950000D02*
X195070000Y-107950000D01*
X186100000Y-113450000D02*
X186100000Y-112300000D01*
X178800000Y-113450000D02*
X186100000Y-113450000D01*
X178800000Y-107950000D02*
X186100000Y-107950000D01*
X194150000Y-115640000D02*
X197850000Y-115640000D01*
X194150000Y-121760000D02*
X194150000Y-115640000D01*
X197850000Y-121760000D02*
X194150000Y-121760000D01*
X197850000Y-115640000D02*
X197850000Y-121760000D01*
X159064759Y-113246000D02*
X159064759Y-113876000D01*
X158749759Y-113561000D02*
X159379759Y-113561000D01*
X165491000Y-114998000D02*
X165491000Y-115802000D01*
X165451000Y-114767000D02*
X165451000Y-116033000D01*
X165411000Y-114598000D02*
X165411000Y-116202000D01*
X165371000Y-114460000D02*
X165371000Y-116340000D01*
X165331000Y-114341000D02*
X165331000Y-116459000D01*
X165291000Y-114235000D02*
X165291000Y-116565000D01*
X165251000Y-114138000D02*
X165251000Y-116662000D01*
X165211000Y-114050000D02*
X165211000Y-116750000D01*
X165171000Y-113968000D02*
X165171000Y-116832000D01*
X165131000Y-113891000D02*
X165131000Y-116909000D01*
X165091000Y-113819000D02*
X165091000Y-116981000D01*
X165051000Y-113750000D02*
X165051000Y-117050000D01*
X165011000Y-113686000D02*
X165011000Y-117114000D01*
X164971000Y-113624000D02*
X164971000Y-117176000D01*
X164931000Y-113566000D02*
X164931000Y-117234000D01*
X164891000Y-113510000D02*
X164891000Y-117290000D01*
X164851000Y-113456000D02*
X164851000Y-117344000D01*
X164811000Y-113405000D02*
X164811000Y-117395000D01*
X164771000Y-113356000D02*
X164771000Y-117444000D01*
X164731000Y-113308000D02*
X164731000Y-117492000D01*
X164691000Y-113263000D02*
X164691000Y-117537000D01*
X164651000Y-113218000D02*
X164651000Y-117582000D01*
X164611000Y-113176000D02*
X164611000Y-117624000D01*
X164571000Y-113135000D02*
X164571000Y-117665000D01*
X164531000Y-116440000D02*
X164531000Y-117705000D01*
X164531000Y-113095000D02*
X164531000Y-114360000D01*
X164491000Y-116440000D02*
X164491000Y-117743000D01*
X164491000Y-113057000D02*
X164491000Y-114360000D01*
X164451000Y-116440000D02*
X164451000Y-117780000D01*
X164451000Y-113020000D02*
X164451000Y-114360000D01*
X164411000Y-116440000D02*
X164411000Y-117816000D01*
X164411000Y-112984000D02*
X164411000Y-114360000D01*
X164371000Y-116440000D02*
X164371000Y-117850000D01*
X164371000Y-112950000D02*
X164371000Y-114360000D01*
X164331000Y-116440000D02*
X164331000Y-117884000D01*
X164331000Y-112916000D02*
X164331000Y-114360000D01*
X164291000Y-116440000D02*
X164291000Y-117916000D01*
X164291000Y-112884000D02*
X164291000Y-114360000D01*
X164251000Y-116440000D02*
X164251000Y-117948000D01*
X164251000Y-112852000D02*
X164251000Y-114360000D01*
X164211000Y-116440000D02*
X164211000Y-117978000D01*
X164211000Y-112822000D02*
X164211000Y-114360000D01*
X164171000Y-116440000D02*
X164171000Y-118007000D01*
X164171000Y-112793000D02*
X164171000Y-114360000D01*
X164131000Y-116440000D02*
X164131000Y-118036000D01*
X164131000Y-112764000D02*
X164131000Y-114360000D01*
X164091000Y-116440000D02*
X164091000Y-118064000D01*
X164091000Y-112736000D02*
X164091000Y-114360000D01*
X164051000Y-116440000D02*
X164051000Y-118090000D01*
X164051000Y-112710000D02*
X164051000Y-114360000D01*
X164011000Y-116440000D02*
X164011000Y-118116000D01*
X164011000Y-112684000D02*
X164011000Y-114360000D01*
X163971000Y-116440000D02*
X163971000Y-118142000D01*
X163971000Y-112658000D02*
X163971000Y-114360000D01*
X163931000Y-116440000D02*
X163931000Y-118166000D01*
X163931000Y-112634000D02*
X163931000Y-114360000D01*
X163891000Y-116440000D02*
X163891000Y-118190000D01*
X163891000Y-112610000D02*
X163891000Y-114360000D01*
X163851000Y-116440000D02*
X163851000Y-118212000D01*
X163851000Y-112588000D02*
X163851000Y-114360000D01*
X163811000Y-116440000D02*
X163811000Y-118234000D01*
X163811000Y-112566000D02*
X163811000Y-114360000D01*
X163771000Y-116440000D02*
X163771000Y-118256000D01*
X163771000Y-112544000D02*
X163771000Y-114360000D01*
X163731000Y-116440000D02*
X163731000Y-118276000D01*
X163731000Y-112524000D02*
X163731000Y-114360000D01*
X163691000Y-116440000D02*
X163691000Y-118296000D01*
X163691000Y-112504000D02*
X163691000Y-114360000D01*
X163651000Y-116440000D02*
X163651000Y-118316000D01*
X163651000Y-112484000D02*
X163651000Y-114360000D01*
X163611000Y-116440000D02*
X163611000Y-118334000D01*
X163611000Y-112466000D02*
X163611000Y-114360000D01*
X163571000Y-116440000D02*
X163571000Y-118352000D01*
X163571000Y-112448000D02*
X163571000Y-114360000D01*
X163531000Y-116440000D02*
X163531000Y-118370000D01*
X163531000Y-112430000D02*
X163531000Y-114360000D01*
X163491000Y-116440000D02*
X163491000Y-118386000D01*
X163491000Y-112414000D02*
X163491000Y-114360000D01*
X163451000Y-116440000D02*
X163451000Y-118402000D01*
X163451000Y-112398000D02*
X163451000Y-114360000D01*
X163411000Y-116440000D02*
X163411000Y-118418000D01*
X163411000Y-112382000D02*
X163411000Y-114360000D01*
X163371000Y-116440000D02*
X163371000Y-118433000D01*
X163371000Y-112367000D02*
X163371000Y-114360000D01*
X163331000Y-116440000D02*
X163331000Y-118447000D01*
X163331000Y-112353000D02*
X163331000Y-114360000D01*
X163291000Y-116440000D02*
X163291000Y-118461000D01*
X163291000Y-112339000D02*
X163291000Y-114360000D01*
X163251000Y-116440000D02*
X163251000Y-118474000D01*
X163251000Y-112326000D02*
X163251000Y-114360000D01*
X163211000Y-116440000D02*
X163211000Y-118486000D01*
X163211000Y-112314000D02*
X163211000Y-114360000D01*
X163171000Y-116440000D02*
X163171000Y-118498000D01*
X163171000Y-112302000D02*
X163171000Y-114360000D01*
X163131000Y-116440000D02*
X163131000Y-118510000D01*
X163131000Y-112290000D02*
X163131000Y-114360000D01*
X163091000Y-116440000D02*
X163091000Y-118521000D01*
X163091000Y-112279000D02*
X163091000Y-114360000D01*
X163051000Y-116440000D02*
X163051000Y-118531000D01*
X163051000Y-112269000D02*
X163051000Y-114360000D01*
X163011000Y-116440000D02*
X163011000Y-118541000D01*
X163011000Y-112259000D02*
X163011000Y-114360000D01*
X162971000Y-116440000D02*
X162971000Y-118550000D01*
X162971000Y-112250000D02*
X162971000Y-114360000D01*
X162930000Y-116440000D02*
X162930000Y-118559000D01*
X162930000Y-112241000D02*
X162930000Y-114360000D01*
X162890000Y-116440000D02*
X162890000Y-118567000D01*
X162890000Y-112233000D02*
X162890000Y-114360000D01*
X162850000Y-116440000D02*
X162850000Y-118575000D01*
X162850000Y-112225000D02*
X162850000Y-114360000D01*
X162810000Y-116440000D02*
X162810000Y-118582000D01*
X162810000Y-112218000D02*
X162810000Y-114360000D01*
X162770000Y-116440000D02*
X162770000Y-118589000D01*
X162770000Y-112211000D02*
X162770000Y-114360000D01*
X162730000Y-116440000D02*
X162730000Y-118595000D01*
X162730000Y-112205000D02*
X162730000Y-114360000D01*
X162690000Y-116440000D02*
X162690000Y-118601000D01*
X162690000Y-112199000D02*
X162690000Y-114360000D01*
X162650000Y-116440000D02*
X162650000Y-118606000D01*
X162650000Y-112194000D02*
X162650000Y-114360000D01*
X162610000Y-116440000D02*
X162610000Y-118611000D01*
X162610000Y-112189000D02*
X162610000Y-114360000D01*
X162570000Y-116440000D02*
X162570000Y-118615000D01*
X162570000Y-112185000D02*
X162570000Y-114360000D01*
X162530000Y-116440000D02*
X162530000Y-118618000D01*
X162530000Y-112182000D02*
X162530000Y-114360000D01*
X162490000Y-116440000D02*
X162490000Y-118622000D01*
X162490000Y-112178000D02*
X162490000Y-114360000D01*
X162450000Y-112176000D02*
X162450000Y-118624000D01*
X162410000Y-112173000D02*
X162410000Y-118627000D01*
X162370000Y-112172000D02*
X162370000Y-118628000D01*
X162330000Y-112170000D02*
X162330000Y-118630000D01*
X162290000Y-112170000D02*
X162290000Y-118630000D01*
X162250000Y-112170000D02*
X162250000Y-118630000D01*
X165520000Y-115400000D02*
G75*
G03X165520000Y-115400000I-3270000J0D01*
G01*
X218600000Y-107770000D02*
X219930000Y-107770000D01*
X219930000Y-107770000D02*
X219930000Y-109100000D01*
X217330000Y-107770000D02*
X217330000Y-110370000D01*
X217330000Y-110370000D02*
X219930000Y-110370000D01*
X219930000Y-110370000D02*
X219930000Y-123130000D01*
X214730000Y-123130000D02*
X219930000Y-123130000D01*
X214730000Y-107770000D02*
X214730000Y-123130000D01*
X214730000Y-107770000D02*
X217330000Y-107770000D01*
X204000000Y-112750000D02*
X202670000Y-112750000D01*
X202670000Y-112750000D02*
X202670000Y-111420000D01*
X205270000Y-112750000D02*
X205270000Y-110150000D01*
X205270000Y-110150000D02*
X202670000Y-110150000D01*
X202670000Y-110150000D02*
X202670000Y-102470000D01*
X207870000Y-102470000D02*
X202670000Y-102470000D01*
X207870000Y-112750000D02*
X207870000Y-102470000D01*
X207870000Y-112750000D02*
X205270000Y-112750000D01*
X158200000Y-113350000D02*
X158200000Y-117450000D01*
X158200000Y-117450000D02*
X156200000Y-117450000D01*
X156200000Y-117450000D02*
X156200000Y-113350000D01*
X156200000Y-113350000D02*
X158200000Y-113350000D01*
X170300000Y-95270000D02*
X171630000Y-95270000D01*
X171630000Y-95270000D02*
X171630000Y-96600000D01*
X171630000Y-97870000D02*
X171630000Y-103010000D01*
X168970000Y-103010000D02*
X171630000Y-103010000D01*
X168970000Y-97870000D02*
X168970000Y-103010000D01*
X168970000Y-97870000D02*
X171630000Y-97870000D01*
X225700000Y-88340000D02*
X222250000Y-88340000D01*
X225700000Y-88340000D02*
X227650000Y-88340000D01*
X225700000Y-93460000D02*
X223750000Y-93460000D01*
X225700000Y-93460000D02*
X227650000Y-93460000D01*
X208940000Y-108800000D02*
X208940000Y-112250000D01*
X208940000Y-108800000D02*
X208940000Y-106850000D01*
X214060000Y-108800000D02*
X214060000Y-110750000D01*
X214060000Y-108800000D02*
X214060000Y-106850000D01*
X216500000Y-80840000D02*
X213050000Y-80840000D01*
X216500000Y-80840000D02*
X218450000Y-80840000D01*
X216500000Y-85960000D02*
X214550000Y-85960000D01*
X216500000Y-85960000D02*
X218450000Y-85960000D01*
X221340000Y-112200000D02*
X221340000Y-115650000D01*
X221340000Y-112200000D02*
X221340000Y-110250000D01*
X226460000Y-112200000D02*
X226460000Y-114150000D01*
X226460000Y-112200000D02*
X226460000Y-110250000D01*
X206140000Y-95020000D02*
X206140000Y-98470000D01*
X206140000Y-95020000D02*
X206140000Y-93070000D01*
X211260000Y-95020000D02*
X211260000Y-96970000D01*
X211260000Y-95020000D02*
X211260000Y-93070000D01*
X218860000Y-91400000D02*
X218860000Y-87950000D01*
X218860000Y-91400000D02*
X218860000Y-93350000D01*
X213740000Y-91400000D02*
X213740000Y-89450000D01*
X213740000Y-91400000D02*
X213740000Y-93350000D01*
D11*
X201125000Y-113800000D02*
X199525000Y-113800000D01*
X201125000Y-122225000D02*
X206875000Y-122225000D01*
X201125000Y-113575000D02*
X206875000Y-113575000D01*
X201125000Y-122225000D02*
X201125000Y-121925000D01*
X206875000Y-122225000D02*
X206875000Y-121925000D01*
X206875000Y-113575000D02*
X206875000Y-113875000D01*
X201125000Y-113575000D02*
X201125000Y-113800000D01*
D10*
X173950000Y-80500000D02*
X173950000Y-108300000D01*
X201450000Y-108300000D02*
X201450000Y-80500000D01*
X201450000Y-80500000D02*
X173950000Y-80500000D01*
X201450000Y-108300000D02*
X173950000Y-108300000D01*
X175950000Y-90066000D02*
X175950000Y-102930000D01*
X199450000Y-90066000D02*
X175950000Y-90066000D01*
X199450000Y-102930000D02*
X199450000Y-90066000D01*
X199450000Y-102930000D02*
X175950000Y-102930000D01*
X196620000Y-103600000D02*
X197000000Y-103600000D01*
X196620000Y-104020000D02*
X196620000Y-103600000D01*
X178380000Y-104020000D02*
X178380000Y-103600000D01*
X196620000Y-104020000D02*
X178380000Y-104020000D01*
X178380000Y-84580000D02*
X179380000Y-84580000D01*
X178380000Y-85200000D02*
X178380000Y-84580000D01*
X196620000Y-84580000D02*
X195620000Y-84580000D01*
X196620000Y-85200000D02*
X196620000Y-84580000D01*
X173010000Y-104350000D02*
X173010000Y-110360000D01*
X166190000Y-106600000D02*
X166190000Y-110360000D01*
X173010000Y-110360000D02*
X171750000Y-110360000D01*
X166190000Y-110360000D02*
X167450000Y-110360000D01*
X156850000Y-104690000D02*
X162860000Y-104690000D01*
X159100000Y-111510000D02*
X162860000Y-111510000D01*
X162860000Y-104690000D02*
X162860000Y-105950000D01*
X162860000Y-111510000D02*
X162860000Y-110250000D01*
X176150000Y-115640000D02*
X179850000Y-115640000D01*
X176150000Y-121760000D02*
X176150000Y-115640000D01*
X179850000Y-121760000D02*
X176150000Y-121760000D01*
X179850000Y-115640000D02*
X179850000Y-121760000D01*
X185150000Y-115640000D02*
X188850000Y-115640000D01*
X185150000Y-121760000D02*
X185150000Y-115640000D01*
X188850000Y-121760000D02*
X185150000Y-121760000D01*
X188850000Y-115640000D02*
X188850000Y-121760000D01*
X167150000Y-115640000D02*
X170850000Y-115640000D01*
X167150000Y-121760000D02*
X167150000Y-115640000D01*
X170850000Y-121760000D02*
X167150000Y-121760000D01*
X170850000Y-115640000D02*
X170850000Y-121760000D01*
X168950000Y-86540000D02*
X172650000Y-86540000D01*
X168950000Y-92660000D02*
X168950000Y-86540000D01*
X172650000Y-92660000D02*
X168950000Y-92660000D01*
X172650000Y-86540000D02*
X172650000Y-92660000D01*
X201850000Y-82740000D02*
X205550000Y-82740000D01*
X201850000Y-88860000D02*
X201850000Y-82740000D01*
X205550000Y-88860000D02*
X201850000Y-88860000D01*
X205550000Y-82740000D02*
X205550000Y-88860000D01*
X152600000Y-109400000D02*
X152600000Y-111400000D01*
X139190000Y-105290000D02*
X142250000Y-105290000D01*
X139190000Y-115510000D02*
X139190000Y-105290000D01*
X142250000Y-115510000D02*
X139190000Y-115510000D01*
X152410000Y-115510000D02*
X146350000Y-115510000D01*
X152410000Y-112700000D02*
X152410000Y-115510000D01*
X152410000Y-105290000D02*
X152410000Y-108100000D01*
X146350000Y-105290000D02*
X152410000Y-105290000D01*
X152100000Y-118050000D02*
X152100000Y-118500000D01*
X152100000Y-118050000D02*
X152550000Y-118050000D01*
X157700000Y-118600000D02*
X157250000Y-118600000D01*
X157700000Y-120450000D02*
X157700000Y-118600000D01*
X149900000Y-123000000D02*
X149900000Y-122750000D01*
X157700000Y-123000000D02*
X157700000Y-122750000D01*
X149900000Y-120450000D02*
X149900000Y-118600000D01*
X149900000Y-118600000D02*
X150350000Y-118600000D01*
D12*
X171910000Y-81400000D02*
G75*
G03X171910000Y-81400000I-50000J0D01*
G01*
D10*
X221210000Y-88321078D02*
X221210000Y-87803922D01*
X219790000Y-88321078D02*
X219790000Y-87803922D01*
X221190000Y-81841422D02*
X221190000Y-82358578D01*
X222610000Y-81841422D02*
X222610000Y-82358578D01*
X228310000Y-109958578D02*
X228310000Y-109441422D01*
X226890000Y-109958578D02*
X226890000Y-109441422D01*
X218441422Y-106910000D02*
X218958578Y-106910000D01*
X218441422Y-105490000D02*
X218958578Y-105490000D01*
X204290000Y-94778922D02*
X204290000Y-95296078D01*
X205710000Y-94778922D02*
X205710000Y-95296078D01*
X213210000Y-91158578D02*
X213210000Y-90641422D01*
X211790000Y-91158578D02*
X211790000Y-90641422D01*
X159190000Y-121441422D02*
X159190000Y-121958578D01*
X160610000Y-121441422D02*
X160610000Y-121958578D01*
D11*
X229752380Y-111952380D02*
X228752380Y-111952380D01*
X228752380Y-111571428D01*
X228800000Y-111476190D01*
X228847619Y-111428571D01*
X228942857Y-111380952D01*
X229085714Y-111380952D01*
X229180952Y-111428571D01*
X229228571Y-111476190D01*
X229276190Y-111571428D01*
X229276190Y-111952380D01*
X228752380Y-111047619D02*
X229752380Y-110380952D01*
X228752380Y-110380952D02*
X229752380Y-111047619D01*
X228847619Y-110047619D02*
X228800000Y-110000000D01*
X228752380Y-109904761D01*
X228752380Y-109666666D01*
X228800000Y-109571428D01*
X228847619Y-109523809D01*
X228942857Y-109476190D01*
X229038095Y-109476190D01*
X229180952Y-109523809D01*
X229752380Y-110095238D01*
X229752380Y-109476190D01*
X229371428Y-109047619D02*
X229371428Y-108285714D01*
X229752380Y-108666666D02*
X228990476Y-108666666D01*
X229371428Y-107809523D02*
X229371428Y-107047619D01*
X225871428Y-94657142D02*
X225823809Y-94704761D01*
X225680952Y-94752380D01*
X225585714Y-94752380D01*
X225442857Y-94704761D01*
X225347619Y-94609523D01*
X225300000Y-94514285D01*
X225252380Y-94323809D01*
X225252380Y-94180952D01*
X225300000Y-93990476D01*
X225347619Y-93895238D01*
X225442857Y-93800000D01*
X225585714Y-93752380D01*
X225680952Y-93752380D01*
X225823809Y-93800000D01*
X225871428Y-93847619D01*
X226300000Y-94371428D02*
X227061904Y-94371428D01*
X226680952Y-94752380D02*
X226680952Y-93990476D01*
X227538095Y-94371428D02*
X228300000Y-94371428D01*
X228252380Y-116652380D02*
X227252380Y-116652380D01*
X227252380Y-116271428D01*
X227300000Y-116176190D01*
X227347619Y-116128571D01*
X227442857Y-116080952D01*
X227585714Y-116080952D01*
X227680952Y-116128571D01*
X227728571Y-116176190D01*
X227776190Y-116271428D01*
X227776190Y-116652380D01*
X227252380Y-115747619D02*
X228252380Y-115080952D01*
X227252380Y-115080952D02*
X228252380Y-115747619D01*
X228252380Y-114176190D02*
X228252380Y-114747619D01*
X228252380Y-114461904D02*
X227252380Y-114461904D01*
X227395238Y-114557142D01*
X227490476Y-114652380D01*
X227538095Y-114747619D01*
X227871428Y-113747619D02*
X227871428Y-112985714D01*
X228252380Y-113366666D02*
X227490476Y-113366666D01*
X227871428Y-112509523D02*
X227871428Y-111747619D01*
X203928571Y-101452380D02*
X203928571Y-100452380D01*
X204166666Y-100452380D01*
X204309523Y-100500000D01*
X204404761Y-100595238D01*
X204452380Y-100690476D01*
X204500000Y-100880952D01*
X204500000Y-101023809D01*
X204452380Y-101214285D01*
X204404761Y-101309523D01*
X204309523Y-101404761D01*
X204166666Y-101452380D01*
X203928571Y-101452380D01*
X204928571Y-101452380D02*
X204928571Y-100452380D01*
X205261904Y-101166666D01*
X205595238Y-100452380D01*
X205595238Y-101452380D01*
X205976190Y-100452380D02*
X206642857Y-101452380D01*
X206642857Y-100452380D02*
X205976190Y-101452380D01*
X207023809Y-101452380D02*
X207023809Y-100452380D01*
X207500000Y-101452380D02*
X207500000Y-100452380D01*
X208071428Y-101452380D01*
X208071428Y-100452380D01*
X202164285Y-99152380D02*
X202164285Y-98152380D01*
X202402380Y-98152380D01*
X202545238Y-98200000D01*
X202640476Y-98295238D01*
X202688095Y-98390476D01*
X202735714Y-98580952D01*
X202735714Y-98723809D01*
X202688095Y-98914285D01*
X202640476Y-99009523D01*
X202545238Y-99104761D01*
X202402380Y-99152380D01*
X202164285Y-99152380D01*
X203164285Y-99152380D02*
X203164285Y-98152380D01*
X203497619Y-98866666D01*
X203830952Y-98152380D01*
X203830952Y-99152380D01*
X204211904Y-98152380D02*
X204878571Y-99152380D01*
X204878571Y-98152380D02*
X204211904Y-99152380D01*
X205783333Y-99152380D02*
X205211904Y-99152380D01*
X205497619Y-99152380D02*
X205497619Y-98152380D01*
X205402380Y-98295238D01*
X205307142Y-98390476D01*
X205211904Y-98438095D01*
X212352380Y-86685714D02*
X211352380Y-86685714D01*
X211352380Y-86447619D01*
X211400000Y-86304761D01*
X211495238Y-86209523D01*
X211590476Y-86161904D01*
X211780952Y-86114285D01*
X211923809Y-86114285D01*
X212114285Y-86161904D01*
X212209523Y-86209523D01*
X212304761Y-86304761D01*
X212352380Y-86447619D01*
X212352380Y-86685714D01*
X212352380Y-85685714D02*
X211352380Y-85685714D01*
X212066666Y-85352380D01*
X211352380Y-85019047D01*
X212352380Y-85019047D01*
X211352380Y-84638095D02*
X212352380Y-83971428D01*
X211352380Y-83971428D02*
X212352380Y-84638095D01*
X211447619Y-83638095D02*
X211400000Y-83590476D01*
X211352380Y-83495238D01*
X211352380Y-83257142D01*
X211400000Y-83161904D01*
X211447619Y-83114285D01*
X211542857Y-83066666D01*
X211638095Y-83066666D01*
X211780952Y-83114285D01*
X212352380Y-83685714D01*
X212352380Y-83066666D01*
X167852380Y-83038095D02*
X168661904Y-83038095D01*
X168757142Y-82990476D01*
X168804761Y-82942857D01*
X168852380Y-82847619D01*
X168852380Y-82657142D01*
X168804761Y-82561904D01*
X168757142Y-82514285D01*
X168661904Y-82466666D01*
X167852380Y-82466666D01*
X168852380Y-81466666D02*
X168852380Y-82038095D01*
X168852380Y-81752380D02*
X167852380Y-81752380D01*
X167995238Y-81847619D01*
X168090476Y-81942857D01*
X168138095Y-82038095D01*
X167947619Y-81085714D02*
X167900000Y-81038095D01*
X167852380Y-80942857D01*
X167852380Y-80704761D01*
X167900000Y-80609523D01*
X167947619Y-80561904D01*
X168042857Y-80514285D01*
X168138095Y-80514285D01*
X168280952Y-80561904D01*
X168852380Y-81133333D01*
X168852380Y-80514285D01*
X195561904Y-111852380D02*
X195561904Y-110852380D01*
X195800000Y-110852380D01*
X195942857Y-110900000D01*
X196038095Y-110995238D01*
X196085714Y-111090476D01*
X196133333Y-111280952D01*
X196133333Y-111423809D01*
X196085714Y-111614285D01*
X196038095Y-111709523D01*
X195942857Y-111804761D01*
X195800000Y-111852380D01*
X195561904Y-111852380D01*
X196466666Y-110852380D02*
X197085714Y-110852380D01*
X196752380Y-111233333D01*
X196895238Y-111233333D01*
X196990476Y-111280952D01*
X197038095Y-111328571D01*
X197085714Y-111423809D01*
X197085714Y-111661904D01*
X197038095Y-111757142D01*
X196990476Y-111804761D01*
X196895238Y-111852380D01*
X196609523Y-111852380D01*
X196514285Y-111804761D01*
X196466666Y-111757142D01*
X176711904Y-112702380D02*
X176711904Y-111702380D01*
X176950000Y-111702380D01*
X177092857Y-111750000D01*
X177188095Y-111845238D01*
X177235714Y-111940476D01*
X177283333Y-112130952D01*
X177283333Y-112273809D01*
X177235714Y-112464285D01*
X177188095Y-112559523D01*
X177092857Y-112654761D01*
X176950000Y-112702380D01*
X176711904Y-112702380D01*
X177664285Y-111797619D02*
X177711904Y-111750000D01*
X177807142Y-111702380D01*
X178045238Y-111702380D01*
X178140476Y-111750000D01*
X178188095Y-111797619D01*
X178235714Y-111892857D01*
X178235714Y-111988095D01*
X178188095Y-112130952D01*
X177616666Y-112702380D01*
X178235714Y-112702380D01*
X193209523Y-123352380D02*
X192876190Y-122876190D01*
X192638095Y-123352380D02*
X192638095Y-122352380D01*
X193019047Y-122352380D01*
X193114285Y-122400000D01*
X193161904Y-122447619D01*
X193209523Y-122542857D01*
X193209523Y-122685714D01*
X193161904Y-122780952D01*
X193114285Y-122828571D01*
X193019047Y-122876190D01*
X192638095Y-122876190D01*
X161833333Y-120057142D02*
X161785714Y-120104761D01*
X161642857Y-120152380D01*
X161547619Y-120152380D01*
X161404761Y-120104761D01*
X161309523Y-120009523D01*
X161261904Y-119914285D01*
X161214285Y-119723809D01*
X161214285Y-119580952D01*
X161261904Y-119390476D01*
X161309523Y-119295238D01*
X161404761Y-119200000D01*
X161547619Y-119152380D01*
X161642857Y-119152380D01*
X161785714Y-119200000D01*
X161833333Y-119247619D01*
X162214285Y-119247619D02*
X162261904Y-119200000D01*
X162357142Y-119152380D01*
X162595238Y-119152380D01*
X162690476Y-119200000D01*
X162738095Y-119247619D01*
X162785714Y-119342857D01*
X162785714Y-119438095D01*
X162738095Y-119580952D01*
X162166666Y-120152380D01*
X162785714Y-120152380D01*
X214676190Y-106652380D02*
X214676190Y-105652380D01*
X214914285Y-105652380D01*
X215057142Y-105700000D01*
X215152380Y-105795238D01*
X215200000Y-105890476D01*
X215247619Y-106080952D01*
X215247619Y-106223809D01*
X215200000Y-106414285D01*
X215152380Y-106509523D01*
X215057142Y-106604761D01*
X214914285Y-106652380D01*
X214676190Y-106652380D01*
X215676190Y-106652380D02*
X215676190Y-105652380D01*
X216342857Y-105652380D02*
X216533333Y-105652380D01*
X216628571Y-105700000D01*
X216723809Y-105795238D01*
X216771428Y-105985714D01*
X216771428Y-106319047D01*
X216723809Y-106509523D01*
X216628571Y-106604761D01*
X216533333Y-106652380D01*
X216342857Y-106652380D01*
X216247619Y-106604761D01*
X216152380Y-106509523D01*
X216104761Y-106319047D01*
X216104761Y-105985714D01*
X216152380Y-105795238D01*
X216247619Y-105700000D01*
X216342857Y-105652380D01*
X201666666Y-111338095D02*
X201666666Y-110861904D01*
X201952380Y-111433333D02*
X200952380Y-111100000D01*
X201952380Y-110766666D01*
X201952380Y-110433333D02*
X200952380Y-110433333D01*
X200952380Y-110195238D01*
X201000000Y-110052380D01*
X201095238Y-109957142D01*
X201190476Y-109909523D01*
X201380952Y-109861904D01*
X201523809Y-109861904D01*
X201714285Y-109909523D01*
X201809523Y-109957142D01*
X201904761Y-110052380D01*
X201952380Y-110195238D01*
X201952380Y-110433333D01*
X201857142Y-108861904D02*
X201904761Y-108909523D01*
X201952380Y-109052380D01*
X201952380Y-109147619D01*
X201904761Y-109290476D01*
X201809523Y-109385714D01*
X201714285Y-109433333D01*
X201523809Y-109480952D01*
X201380952Y-109480952D01*
X201190476Y-109433333D01*
X201095238Y-109385714D01*
X201000000Y-109290476D01*
X200952380Y-109147619D01*
X200952380Y-109052380D01*
X201000000Y-108909523D01*
X201047619Y-108861904D01*
X156642857Y-111652380D02*
X156642857Y-112366666D01*
X156595238Y-112509523D01*
X156500000Y-112604761D01*
X156357142Y-112652380D01*
X156261904Y-112652380D01*
X157690476Y-112557142D02*
X157642857Y-112604761D01*
X157500000Y-112652380D01*
X157404761Y-112652380D01*
X157261904Y-112604761D01*
X157166666Y-112509523D01*
X157119047Y-112414285D01*
X157071428Y-112223809D01*
X157071428Y-112080952D01*
X157119047Y-111890476D01*
X157166666Y-111795238D01*
X157261904Y-111700000D01*
X157404761Y-111652380D01*
X157500000Y-111652380D01*
X157642857Y-111700000D01*
X157690476Y-111747619D01*
X158119047Y-112652380D02*
X158119047Y-111652380D01*
X158690476Y-112652380D02*
X158261904Y-112080952D01*
X158690476Y-111652380D02*
X158119047Y-112223809D01*
X149638095Y-116252380D02*
X149638095Y-117061904D01*
X149685714Y-117157142D01*
X149733333Y-117204761D01*
X149828571Y-117252380D01*
X150019047Y-117252380D01*
X150114285Y-117204761D01*
X150161904Y-117157142D01*
X150209523Y-117061904D01*
X150209523Y-116252380D01*
X150638095Y-117204761D02*
X150780952Y-117252380D01*
X151019047Y-117252380D01*
X151114285Y-117204761D01*
X151161904Y-117157142D01*
X151209523Y-117061904D01*
X151209523Y-116966666D01*
X151161904Y-116871428D01*
X151114285Y-116823809D01*
X151019047Y-116776190D01*
X150828571Y-116728571D01*
X150733333Y-116680952D01*
X150685714Y-116633333D01*
X150638095Y-116538095D01*
X150638095Y-116442857D01*
X150685714Y-116347619D01*
X150733333Y-116300000D01*
X150828571Y-116252380D01*
X151066666Y-116252380D01*
X151209523Y-116300000D01*
X151971428Y-116728571D02*
X152114285Y-116776190D01*
X152161904Y-116823809D01*
X152209523Y-116919047D01*
X152209523Y-117061904D01*
X152161904Y-117157142D01*
X152114285Y-117204761D01*
X152019047Y-117252380D01*
X151638095Y-117252380D01*
X151638095Y-116252380D01*
X151971428Y-116252380D01*
X152066666Y-116300000D01*
X152114285Y-116347619D01*
X152161904Y-116442857D01*
X152161904Y-116538095D01*
X152114285Y-116633333D01*
X152066666Y-116680952D01*
X151971428Y-116728571D01*
X151638095Y-116728571D01*
X173352380Y-102423809D02*
X172352380Y-102423809D01*
X172352380Y-102042857D01*
X172400000Y-101947619D01*
X172447619Y-101900000D01*
X172542857Y-101852380D01*
X172685714Y-101852380D01*
X172780952Y-101900000D01*
X172828571Y-101947619D01*
X172876190Y-102042857D01*
X172876190Y-102423809D01*
X173352380Y-100852380D02*
X172876190Y-101185714D01*
X173352380Y-101423809D02*
X172352380Y-101423809D01*
X172352380Y-101042857D01*
X172400000Y-100947619D01*
X172447619Y-100900000D01*
X172542857Y-100852380D01*
X172685714Y-100852380D01*
X172780952Y-100900000D01*
X172828571Y-100947619D01*
X172876190Y-101042857D01*
X172876190Y-101423809D01*
X172352380Y-100233333D02*
X172352380Y-100042857D01*
X172400000Y-99947619D01*
X172495238Y-99852380D01*
X172685714Y-99804761D01*
X173019047Y-99804761D01*
X173209523Y-99852380D01*
X173304761Y-99947619D01*
X173352380Y-100042857D01*
X173352380Y-100233333D01*
X173304761Y-100328571D01*
X173209523Y-100423809D01*
X173019047Y-100471428D01*
X172685714Y-100471428D01*
X172495238Y-100423809D01*
X172400000Y-100328571D01*
X172352380Y-100233333D01*
X172400000Y-98852380D02*
X172352380Y-98947619D01*
X172352380Y-99090476D01*
X172400000Y-99233333D01*
X172495238Y-99328571D01*
X172590476Y-99376190D01*
X172780952Y-99423809D01*
X172923809Y-99423809D01*
X173114285Y-99376190D01*
X173209523Y-99328571D01*
X173304761Y-99233333D01*
X173352380Y-99090476D01*
X173352380Y-98995238D01*
X173304761Y-98852380D01*
X173257142Y-98804761D01*
X172923809Y-98804761D01*
X172923809Y-98995238D01*
X172352380Y-96661904D02*
X172352380Y-96566666D01*
X172400000Y-96471428D01*
X172447619Y-96423809D01*
X172542857Y-96376190D01*
X172733333Y-96328571D01*
X172971428Y-96328571D01*
X173161904Y-96376190D01*
X173257142Y-96423809D01*
X173304761Y-96471428D01*
X173352380Y-96566666D01*
X173352380Y-96661904D01*
X173304761Y-96757142D01*
X173257142Y-96804761D01*
X173161904Y-96852380D01*
X172971428Y-96900000D01*
X172733333Y-96900000D01*
X172542857Y-96852380D01*
X172447619Y-96804761D01*
X172400000Y-96757142D01*
X172352380Y-96661904D01*
X229502380Y-92238095D02*
X230311904Y-92238095D01*
X230407142Y-92190476D01*
X230454761Y-92142857D01*
X230502380Y-92047619D01*
X230502380Y-91857142D01*
X230454761Y-91761904D01*
X230407142Y-91714285D01*
X230311904Y-91666666D01*
X229502380Y-91666666D01*
X230502380Y-90666666D02*
X230502380Y-91238095D01*
X230502380Y-90952380D02*
X229502380Y-90952380D01*
X229645238Y-91047619D01*
X229740476Y-91142857D01*
X229788095Y-91238095D01*
X230502380Y-89714285D02*
X230502380Y-90285714D01*
X230502380Y-90000000D02*
X229502380Y-90000000D01*
X229645238Y-90095238D01*
X229740476Y-90190476D01*
X229788095Y-90285714D01*
X209661904Y-114552380D02*
X209661904Y-115361904D01*
X209709523Y-115457142D01*
X209757142Y-115504761D01*
X209852380Y-115552380D01*
X210042857Y-115552380D01*
X210138095Y-115504761D01*
X210185714Y-115457142D01*
X210233333Y-115361904D01*
X210233333Y-114552380D01*
X211233333Y-115552380D02*
X210661904Y-115552380D01*
X210947619Y-115552380D02*
X210947619Y-114552380D01*
X210852380Y-114695238D01*
X210757142Y-114790476D01*
X210661904Y-114838095D01*
X211852380Y-114552380D02*
X211947619Y-114552380D01*
X212042857Y-114600000D01*
X212090476Y-114647619D01*
X212138095Y-114742857D01*
X212185714Y-114933333D01*
X212185714Y-115171428D01*
X212138095Y-115361904D01*
X212090476Y-115457142D01*
X212042857Y-115504761D01*
X211947619Y-115552380D01*
X211852380Y-115552380D01*
X211757142Y-115504761D01*
X211709523Y-115457142D01*
X211661904Y-115361904D01*
X211614285Y-115171428D01*
X211614285Y-114933333D01*
X211661904Y-114742857D01*
X211709523Y-114647619D01*
X211757142Y-114600000D01*
X211852380Y-114552380D01*
X216238095Y-86452380D02*
X216238095Y-87261904D01*
X216285714Y-87357142D01*
X216333333Y-87404761D01*
X216428571Y-87452380D01*
X216619047Y-87452380D01*
X216714285Y-87404761D01*
X216761904Y-87357142D01*
X216809523Y-87261904D01*
X216809523Y-86452380D01*
X217333333Y-87452380D02*
X217523809Y-87452380D01*
X217619047Y-87404761D01*
X217666666Y-87357142D01*
X217761904Y-87214285D01*
X217809523Y-87023809D01*
X217809523Y-86642857D01*
X217761904Y-86547619D01*
X217714285Y-86500000D01*
X217619047Y-86452380D01*
X217428571Y-86452380D01*
X217333333Y-86500000D01*
X217285714Y-86547619D01*
X217238095Y-86642857D01*
X217238095Y-86880952D01*
X217285714Y-86976190D01*
X217333333Y-87023809D01*
X217428571Y-87071428D01*
X217619047Y-87071428D01*
X217714285Y-87023809D01*
X217761904Y-86976190D01*
X217809523Y-86880952D01*
X221338095Y-116652380D02*
X221338095Y-117461904D01*
X221385714Y-117557142D01*
X221433333Y-117604761D01*
X221528571Y-117652380D01*
X221719047Y-117652380D01*
X221814285Y-117604761D01*
X221861904Y-117557142D01*
X221909523Y-117461904D01*
X221909523Y-116652380D01*
X222528571Y-117080952D02*
X222433333Y-117033333D01*
X222385714Y-116985714D01*
X222338095Y-116890476D01*
X222338095Y-116842857D01*
X222385714Y-116747619D01*
X222433333Y-116700000D01*
X222528571Y-116652380D01*
X222719047Y-116652380D01*
X222814285Y-116700000D01*
X222861904Y-116747619D01*
X222909523Y-116842857D01*
X222909523Y-116890476D01*
X222861904Y-116985714D01*
X222814285Y-117033333D01*
X222719047Y-117080952D01*
X222528571Y-117080952D01*
X222433333Y-117128571D01*
X222385714Y-117176190D01*
X222338095Y-117271428D01*
X222338095Y-117461904D01*
X222385714Y-117557142D01*
X222433333Y-117604761D01*
X222528571Y-117652380D01*
X222719047Y-117652380D01*
X222814285Y-117604761D01*
X222861904Y-117557142D01*
X222909523Y-117461904D01*
X222909523Y-117271428D01*
X222861904Y-117176190D01*
X222814285Y-117128571D01*
X222719047Y-117080952D01*
X204138095Y-91952380D02*
X204138095Y-92761904D01*
X204185714Y-92857142D01*
X204233333Y-92904761D01*
X204328571Y-92952380D01*
X204519047Y-92952380D01*
X204614285Y-92904761D01*
X204661904Y-92857142D01*
X204709523Y-92761904D01*
X204709523Y-91952380D01*
X205090476Y-91952380D02*
X205757142Y-91952380D01*
X205328571Y-92952380D01*
X220852380Y-93061904D02*
X221661904Y-93061904D01*
X221757142Y-93014285D01*
X221804761Y-92966666D01*
X221852380Y-92871428D01*
X221852380Y-92680952D01*
X221804761Y-92585714D01*
X221757142Y-92538095D01*
X221661904Y-92490476D01*
X220852380Y-92490476D01*
X220852380Y-91585714D02*
X220852380Y-91776190D01*
X220900000Y-91871428D01*
X220947619Y-91919047D01*
X221090476Y-92014285D01*
X221280952Y-92061904D01*
X221661904Y-92061904D01*
X221757142Y-92014285D01*
X221804761Y-91966666D01*
X221852380Y-91871428D01*
X221852380Y-91680952D01*
X221804761Y-91585714D01*
X221757142Y-91538095D01*
X221661904Y-91490476D01*
X221423809Y-91490476D01*
X221328571Y-91538095D01*
X221280952Y-91585714D01*
X221233333Y-91680952D01*
X221233333Y-91871428D01*
X221280952Y-91966666D01*
X221328571Y-92014285D01*
X221423809Y-92061904D01*
X203238095Y-112102380D02*
X203238095Y-112911904D01*
X203285714Y-113007142D01*
X203333333Y-113054761D01*
X203428571Y-113102380D01*
X203619047Y-113102380D01*
X203714285Y-113054761D01*
X203761904Y-113007142D01*
X203809523Y-112911904D01*
X203809523Y-112102380D01*
X204761904Y-112102380D02*
X204285714Y-112102380D01*
X204238095Y-112578571D01*
X204285714Y-112530952D01*
X204380952Y-112483333D01*
X204619047Y-112483333D01*
X204714285Y-112530952D01*
X204761904Y-112578571D01*
X204809523Y-112673809D01*
X204809523Y-112911904D01*
X204761904Y-113007142D01*
X204714285Y-113054761D01*
X204619047Y-113102380D01*
X204380952Y-113102380D01*
X204285714Y-113054761D01*
X204238095Y-113007142D01*
X197752380Y-101761904D02*
X198561904Y-101761904D01*
X198657142Y-101714285D01*
X198704761Y-101666666D01*
X198752380Y-101571428D01*
X198752380Y-101380952D01*
X198704761Y-101285714D01*
X198657142Y-101238095D01*
X198561904Y-101190476D01*
X197752380Y-101190476D01*
X198085714Y-100285714D02*
X198752380Y-100285714D01*
X197704761Y-100523809D02*
X198419047Y-100761904D01*
X198419047Y-100142857D01*
X194318095Y-104252380D02*
X194318095Y-105061904D01*
X194365714Y-105157142D01*
X194413333Y-105204761D01*
X194508571Y-105252380D01*
X194699047Y-105252380D01*
X194794285Y-105204761D01*
X194841904Y-105157142D01*
X194889523Y-105061904D01*
X194889523Y-104252380D01*
X195270476Y-104252380D02*
X195889523Y-104252380D01*
X195556190Y-104633333D01*
X195699047Y-104633333D01*
X195794285Y-104680952D01*
X195841904Y-104728571D01*
X195889523Y-104823809D01*
X195889523Y-105061904D01*
X195841904Y-105157142D01*
X195794285Y-105204761D01*
X195699047Y-105252380D01*
X195413333Y-105252380D01*
X195318095Y-105204761D01*
X195270476Y-105157142D01*
X172238095Y-111052380D02*
X172238095Y-111861904D01*
X172285714Y-111957142D01*
X172333333Y-112004761D01*
X172428571Y-112052380D01*
X172619047Y-112052380D01*
X172714285Y-112004761D01*
X172761904Y-111957142D01*
X172809523Y-111861904D01*
X172809523Y-111052380D01*
X173238095Y-111147619D02*
X173285714Y-111100000D01*
X173380952Y-111052380D01*
X173619047Y-111052380D01*
X173714285Y-111100000D01*
X173761904Y-111147619D01*
X173809523Y-111242857D01*
X173809523Y-111338095D01*
X173761904Y-111480952D01*
X173190476Y-112052380D01*
X173809523Y-112052380D01*
X163438095Y-104152380D02*
X163438095Y-104961904D01*
X163485714Y-105057142D01*
X163533333Y-105104761D01*
X163628571Y-105152380D01*
X163819047Y-105152380D01*
X163914285Y-105104761D01*
X163961904Y-105057142D01*
X164009523Y-104961904D01*
X164009523Y-104152380D01*
X165009523Y-105152380D02*
X164438095Y-105152380D01*
X164723809Y-105152380D02*
X164723809Y-104152380D01*
X164628571Y-104295238D01*
X164533333Y-104390476D01*
X164438095Y-104438095D01*
X173380952Y-123028571D02*
X173714285Y-123028571D01*
X173857142Y-123552380D02*
X173380952Y-123552380D01*
X173380952Y-122552380D01*
X173857142Y-122552380D01*
X174285714Y-123552380D02*
X174285714Y-122552380D01*
X174857142Y-123552380D01*
X174857142Y-122552380D01*
X175190476Y-122552380D02*
X175761904Y-122552380D01*
X175476190Y-123552380D02*
X175476190Y-122552380D01*
X184309523Y-123452380D02*
X183833333Y-123452380D01*
X183833333Y-122452380D01*
X164909523Y-122928571D02*
X165242857Y-122928571D01*
X165385714Y-123452380D02*
X164909523Y-123452380D01*
X164909523Y-122452380D01*
X165385714Y-122452380D01*
X165719047Y-122452380D02*
X166385714Y-123452380D01*
X166385714Y-122452380D02*
X165719047Y-123452380D01*
X173852380Y-86561904D02*
X172852380Y-86561904D01*
X172852380Y-86180952D01*
X172900000Y-86085714D01*
X172947619Y-86038095D01*
X173042857Y-85990476D01*
X173185714Y-85990476D01*
X173280952Y-86038095D01*
X173328571Y-86085714D01*
X173376190Y-86180952D01*
X173376190Y-86561904D01*
X173852380Y-84990476D02*
X173376190Y-85323809D01*
X173852380Y-85561904D02*
X172852380Y-85561904D01*
X172852380Y-85180952D01*
X172900000Y-85085714D01*
X172947619Y-85038095D01*
X173042857Y-84990476D01*
X173185714Y-84990476D01*
X173280952Y-85038095D01*
X173328571Y-85085714D01*
X173376190Y-85180952D01*
X173376190Y-85561904D01*
X172900000Y-84038095D02*
X172852380Y-84133333D01*
X172852380Y-84276190D01*
X172900000Y-84419047D01*
X172995238Y-84514285D01*
X173090476Y-84561904D01*
X173280952Y-84609523D01*
X173423809Y-84609523D01*
X173614285Y-84561904D01*
X173709523Y-84514285D01*
X173804761Y-84419047D01*
X173852380Y-84276190D01*
X173852380Y-84180952D01*
X173804761Y-84038095D01*
X173757142Y-83990476D01*
X173423809Y-83990476D01*
X173423809Y-84180952D01*
X202252380Y-91902380D02*
X201919047Y-91426190D01*
X201680952Y-91902380D02*
X201680952Y-90902380D01*
X202061904Y-90902380D01*
X202157142Y-90950000D01*
X202204761Y-90997619D01*
X202252380Y-91092857D01*
X202252380Y-91235714D01*
X202204761Y-91330952D01*
X202157142Y-91378571D01*
X202061904Y-91426190D01*
X201680952Y-91426190D01*
X202633333Y-91854761D02*
X202776190Y-91902380D01*
X203014285Y-91902380D01*
X203109523Y-91854761D01*
X203157142Y-91807142D01*
X203204761Y-91711904D01*
X203204761Y-91616666D01*
X203157142Y-91521428D01*
X203109523Y-91473809D01*
X203014285Y-91426190D01*
X202823809Y-91378571D01*
X202728571Y-91330952D01*
X202680952Y-91283333D01*
X202633333Y-91188095D01*
X202633333Y-91092857D01*
X202680952Y-90997619D01*
X202728571Y-90950000D01*
X202823809Y-90902380D01*
X203061904Y-90902380D01*
X203204761Y-90950000D01*
X203490476Y-90902380D02*
X204061904Y-90902380D01*
X203776190Y-91902380D02*
X203776190Y-90902380D01*
X141366666Y-103952380D02*
X141366666Y-104666666D01*
X141319047Y-104809523D01*
X141223809Y-104904761D01*
X141080952Y-104952380D01*
X140985714Y-104952380D01*
X141795238Y-104047619D02*
X141842857Y-104000000D01*
X141938095Y-103952380D01*
X142176190Y-103952380D01*
X142271428Y-104000000D01*
X142319047Y-104047619D01*
X142366666Y-104142857D01*
X142366666Y-104238095D01*
X142319047Y-104380952D01*
X141747619Y-104952380D01*
X142366666Y-104952380D01*
X159733333Y-124719642D02*
X159685714Y-124767261D01*
X159542857Y-124814880D01*
X159447619Y-124814880D01*
X159304761Y-124767261D01*
X159209523Y-124672023D01*
X159161904Y-124576785D01*
X159114285Y-124386309D01*
X159114285Y-124243452D01*
X159161904Y-124052976D01*
X159209523Y-123957738D01*
X159304761Y-123862500D01*
X159447619Y-123814880D01*
X159542857Y-123814880D01*
X159685714Y-123862500D01*
X159733333Y-123910119D01*
X160685714Y-124814880D02*
X160114285Y-124814880D01*
X160400000Y-124814880D02*
X160400000Y-123814880D01*
X160304761Y-123957738D01*
X160209523Y-124052976D01*
X160114285Y-124100595D01*
M02*
