  0
SECTION
  2
HEADER
  9
$ANGBASE
  50
0.0
  9
$ANGDIR
  70
1
  9
$MEASUREMENT
  70
0
  0
ENDSEC
  0
SECTION
  2
TABLES
  0
TABLE
  2
LTYPE
  70
4
  0
LTYPE
  5
40F
  2
CONTINUOUS
  70
0
  3
Solid line
  72
65
  73
0
  40
0.0
  0
LTYPE
  5
410
  2
DASHDOT
 70
0
  3
Dash Dot ____ _ ____ _
 72
65
 73
4
 40
2.0
 49
1.25
 49
-0.25
 49
0.25
 49
-0.25
  0
LTYPE
  5
411
  2
DASHED
 70
0
  3
Dashed __ __ __ __ __
 72
65
 73
2
 40
0.75
 49
0.5
 49
-0.25
  0
LTYPE
  5
43B
  2
DOTTED
 70
0
  3
Dotted .  .  .  .
 72
65
 73
2
 40
0.2
 49
0.0
 49
-0.2
  0
ENDTAB
  0
TABLE
  2
STYLE
  70
4
  0
STYLE
  2
KICAD
  70
0
  40
0
  41
1
  42
1
  50
0
  71
0
  3
isocp.shx
  0
STYLE
  2
KICADB
  70
0
  40
0
  41
1
  42
1
  50
0
  71
0
  3
isocp.shx
  0
STYLE
  2
KICADI
  70
0
  40
0
  41
1
  42
1
  50
15
  71
0
  3
isocp.shx
  0
STYLE
  2
KICADBI
  70
0
  40
0
  41
1
  42
1
  50
15
  71
0
  3
isocp.shx
  0
ENDTAB
  0
TABLE
  2
LAYER
  70
1
  0
LAYER
  2
BLACK
  70
0
  62
7
  6
CONTINUOUS
  0
ENDTAB
  0
ENDSEC
  0
SECTION
  2
ENTITIES
0
LINE
8
BLACK
6
CONTINUOUS
10
5.90551
20
-3.84941
11
6.34284
21
-3.84887
0
LINE
8
BLACK
6
CONTINUOUS
10
6.34284
20
-3.84887
11
6.34289
21
-3.84888
0
LINE
8
BLACK
6
CONTINUOUS
10
6.34289
20
-3.84888
11
6.34289
21
-3.84888
0
LINE
8
BLACK
6
CONTINUOUS
10
6.34289
20
-3.84888
11
6.34289
21
-3.84888
0
LINE
8
BLACK
6
CONTINUOUS
10
6.34289
20
-3.84888
11
6.34298
21
-3.84888
0
LINE
8
BLACK
6
CONTINUOUS
10
6.34298
20
-3.84888
11
6.34317
21
-3.84894
0
LINE
8
BLACK
6
CONTINUOUS
10
6.34317
20
-3.84894
11
6.34334
21
-3.84903
0
LINE
8
BLACK
6
CONTINUOUS
10
6.34334
20
-3.84903
11
6.34334
21
-3.84904
0
LINE
8
BLACK
6
CONTINUOUS
10
6.34334
20
-3.84904
11
6.41199
21
-3.88688
0
LINE
8
BLACK
6
CONTINUOUS
10
6.41199
20
-3.88688
11
6.412
21
-3.88688
0
LINE
8
BLACK
6
CONTINUOUS
10
6.412
20
-3.88688
11
6.41203
21
-3.8869
0
LINE
8
BLACK
6
CONTINUOUS
10
6.41203
20
-3.8869
11
6.41206
21
-3.88692
0
LINE
8
BLACK
6
CONTINUOUS
10
6.41206
20
-3.88692
11
6.47753
21
-3.9302
0
LINE
8
BLACK
6
CONTINUOUS
10
6.47753
20
-3.9302
11
6.47754
21
-3.9302
0
LINE
8
BLACK
6
CONTINUOUS
10
6.47754
20
-3.9302
11
6.47757
21
-3.93022
0
LINE
8
BLACK
6
CONTINUOUS
10
6.47757
20
-3.93022
11
6.4776
21
-3.93024
0
LINE
8
BLACK
6
CONTINUOUS
10
6.4776
20
-3.93024
11
6.53938
21
-3.97863
0
LINE
8
BLACK
6
CONTINUOUS
10
6.53938
20
-3.97863
11
6.53939
21
-3.97864
0
LINE
8
BLACK
6
CONTINUOUS
10
6.53939
20
-3.97864
11
6.53942
21
-3.97866
0
LINE
8
BLACK
6
CONTINUOUS
10
6.53942
20
-3.97866
11
6.53944
21
-3.97868
0
LINE
8
BLACK
6
CONTINUOUS
10
6.53944
20
-3.97868
11
6.59715
21
-4.03187
0
LINE
8
BLACK
6
CONTINUOUS
10
6.59715
20
-4.03187
11
6.59716
21
-4.03187
0
LINE
8
BLACK
6
CONTINUOUS
10
6.59716
20
-4.03187
11
6.59719
21
-4.0319
0
LINE
8
BLACK
6
CONTINUOUS
10
6.59719
20
-4.0319
11
6.59721
21
-4.03192
0
LINE
8
BLACK
6
CONTINUOUS
10
6.59721
20
-4.03192
11
6.65047
21
-4.08957
0
LINE
8
BLACK
6
CONTINUOUS
10
6.65047
20
-4.08957
11
6.65047
21
-4.08958
0
LINE
8
BLACK
6
CONTINUOUS
10
6.65047
20
-4.08958
11
6.6505
21
-4.0896
0
LINE
8
BLACK
6
CONTINUOUS
10
6.6505
20
-4.0896
11
6.65052
21
-4.08963
0
LINE
8
BLACK
6
CONTINUOUS
10
6.65052
20
-4.08963
11
6.69898
21
-4.15136
0
LINE
8
BLACK
6
CONTINUOUS
10
6.69898
20
-4.15136
11
6.69899
21
-4.15137
0
LINE
8
BLACK
6
CONTINUOUS
10
6.69899
20
-4.15137
11
6.69901
21
-4.15139
0
LINE
8
BLACK
6
CONTINUOUS
10
6.69901
20
-4.15139
11
6.69903
21
-4.15142
0
LINE
8
BLACK
6
CONTINUOUS
10
6.69903
20
-4.15142
11
6.74238
21
-4.21684
0
LINE
8
BLACK
6
CONTINUOUS
10
6.74238
20
-4.21684
11
6.74239
21
-4.21685
0
LINE
8
BLACK
6
CONTINUOUS
10
6.74239
20
-4.21685
11
6.74241
21
-4.21688
0
LINE
8
BLACK
6
CONTINUOUS
10
6.74241
20
-4.21688
11
6.74242
21
-4.21691
0
LINE
8
BLACK
6
CONTINUOUS
10
6.74242
20
-4.21691
11
6.78039
21
-4.28559
0
LINE
8
BLACK
6
CONTINUOUS
10
6.78039
20
-4.28559
11
6.7804
21
-4.2856
0
LINE
8
BLACK
6
CONTINUOUS
10
6.7804
20
-4.2856
11
6.78041
21
-4.28563
0
LINE
8
BLACK
6
CONTINUOUS
10
6.78041
20
-4.28563
11
6.78043
21
-4.28566
0
LINE
8
BLACK
6
CONTINUOUS
10
6.78043
20
-4.28566
11
6.81277
21
-4.35717
0
LINE
8
BLACK
6
CONTINUOUS
10
6.81277
20
-4.35717
11
6.81277
21
-4.35718
0
LINE
8
BLACK
6
CONTINUOUS
10
6.81277
20
-4.35718
11
6.81279
21
-4.35721
0
LINE
8
BLACK
6
CONTINUOUS
10
6.81279
20
-4.35721
11
6.8128
21
-4.35724
0
LINE
8
BLACK
6
CONTINUOUS
10
6.8128
20
-4.35724
11
6.8393
21
-4.43111
0
LINE
8
BLACK
6
CONTINUOUS
10
6.8393
20
-4.43111
11
6.8393
21
-4.43112
0
LINE
8
BLACK
6
CONTINUOUS
10
6.8393
20
-4.43112
11
6.83931
21
-4.43115
0
LINE
8
BLACK
6
CONTINUOUS
10
6.83931
20
-4.43115
11
6.83932
21
-4.43118
0
LINE
8
BLACK
6
CONTINUOUS
10
6.83932
20
-4.43118
11
6.85528
21
-4.48791
0
LINE
8
BLACK
6
CONTINUOUS
10
6.85528
20
-4.48791
11
6.8553
21
-4.488
0
LINE
8
BLACK
6
CONTINUOUS
10
6.8553
20
-4.488
11
6.85531
21
-4.48809
0
LINE
8
BLACK
6
CONTINUOUS
10
6.85531
20
-4.48809
11
6.85531
21
-4.48809
0
LINE
8
BLACK
6
CONTINUOUS
10
6.85531
20
-4.48809
11
6.85531
21
-4.48809
0
LINE
8
BLACK
6
CONTINUOUS
10
6.85531
20
-4.48809
11
6.85531
21
-4.48814
0
LINE
8
BLACK
6
CONTINUOUS
10
6.85531
20
-4.48814
11
6.85531
21
-4.99998
0
LINE
8
BLACK
6
CONTINUOUS
10
6.85531
20
-4.99998
11
6.85532
21
-5.00005
0
LINE
8
BLACK
6
CONTINUOUS
10
6.85532
20
-5.00005
11
6.85531
21
-5.00012
0
LINE
8
BLACK
6
CONTINUOUS
10
6.85531
20
-5.00012
11
6.8553
21
-5.00019
0
LINE
8
BLACK
6
CONTINUOUS
10
6.8553
20
-5.00019
11
6.85528
21
-5.00026
0
LINE
8
BLACK
6
CONTINUOUS
10
6.85528
20
-5.00026
11
6.75688
21
-5.39781
0
LINE
8
BLACK
6
CONTINUOUS
10
6.75688
20
-5.39781
11
6.75688
21
-5.39783
0
LINE
8
BLACK
6
CONTINUOUS
10
6.75688
20
-5.39783
11
6.75685
21
-5.3979
0
LINE
8
BLACK
6
CONTINUOUS
10
6.75685
20
-5.3979
11
6.75685
21
-5.39792
0
LINE
8
BLACK
6
CONTINUOUS
10
6.75685
20
-5.39792
11
6.75684
21
-5.39794
0
LINE
8
BLACK
6
CONTINUOUS
10
6.75684
20
-5.39794
11
6.75682
21
-5.39802
0
LINE
8
BLACK
6
CONTINUOUS
10
6.75682
20
-5.39802
11
6.75681
21
-5.39804
0
LINE
8
BLACK
6
CONTINUOUS
10
6.75681
20
-5.39804
11
6.7568
21
-5.39806
0
LINE
8
BLACK
6
CONTINUOUS
10
6.7568
20
-5.39806
11
6.75676
21
-5.39812
0
LINE
8
BLACK
6
CONTINUOUS
10
6.75676
20
-5.39812
11
6.75673
21
-5.39819
0
LINE
8
BLACK
6
CONTINUOUS
10
6.75673
20
-5.39819
11
6.75671
21
-5.39821
0
LINE
8
BLACK
6
CONTINUOUS
10
6.75671
20
-5.39821
11
6.7567
21
-5.39822
0
LINE
8
BLACK
6
CONTINUOUS
10
6.7567
20
-5.39822
11
6.75665
21
-5.39828
0
LINE
8
BLACK
6
CONTINUOUS
10
6.75665
20
-5.39828
11
6.75664
21
-5.3983
0
LINE
8
BLACK
6
CONTINUOUS
10
6.75664
20
-5.3983
11
6.75662
21
-5.39832
0
LINE
8
BLACK
6
CONTINUOUS
10
6.75662
20
-5.39832
11
6.75657
21
-5.39837
0
LINE
8
BLACK
6
CONTINUOUS
10
6.75657
20
-5.39837
11
6.75655
21
-5.39838
0
LINE
8
BLACK
6
CONTINUOUS
10
6.75655
20
-5.39838
11
6.55976
21
-5.59517
0
LINE
8
BLACK
6
CONTINUOUS
10
6.55976
20
-5.59517
11
6.5597
21
-5.59524
0
LINE
8
BLACK
6
CONTINUOUS
10
6.5597
20
-5.59524
11
6.55965
21
-5.59527
0
LINE
8
BLACK
6
CONTINUOUS
10
6.55965
20
-5.59527
11
6.5596
21
-5.59531
0
LINE
8
BLACK
6
CONTINUOUS
10
6.5596
20
-5.59531
11
6.55957
21
-5.59533
0
LINE
8
BLACK
6
CONTINUOUS
10
6.55957
20
-5.59533
11
6.55954
21
-5.59535
0
LINE
8
BLACK
6
CONTINUOUS
10
6.55954
20
-5.59535
11
6.55949
21
-5.59537
0
LINE
8
BLACK
6
CONTINUOUS
10
6.55949
20
-5.59537
11
6.55943
21
-5.5954
0
LINE
8
BLACK
6
CONTINUOUS
10
6.55943
20
-5.5954
11
6.5594
21
-5.59541
0
LINE
8
BLACK
6
CONTINUOUS
10
6.5594
20
-5.59541
11
6.55937
21
-5.59543
0
LINE
8
BLACK
6
CONTINUOUS
10
6.55937
20
-5.59543
11
6.55931
21
-5.59544
0
LINE
8
BLACK
6
CONTINUOUS
10
6.55931
20
-5.59544
11
6.55925
21
-5.59546
0
LINE
8
BLACK
6
CONTINUOUS
10
6.55925
20
-5.59546
11
6.55921
21
-5.59546
0
LINE
8
BLACK
6
CONTINUOUS
10
6.55921
20
-5.59546
11
6.55918
21
-5.59547
0
LINE
8
BLACK
6
CONTINUOUS
10
6.55918
20
-5.59547
11
6.55912
21
-5.59547
0
LINE
8
BLACK
6
CONTINUOUS
10
6.55912
20
-5.59547
11
6.55906
21
-5.59548
0
LINE
8
BLACK
6
CONTINUOUS
10
6.55906
20
-5.59548
11
6.55897
21
-5.59547
0
LINE
8
BLACK
6
CONTINUOUS
10
6.55897
20
-5.59547
11
6.17333
21
-5.56792
0
LINE
8
BLACK
6
CONTINUOUS
10
6.17333
20
-5.56792
11
6.10205
21
-5.58733
0
LINE
8
BLACK
6
CONTINUOUS
10
6.10205
20
-5.58733
11
6.10201
21
-5.58734
0
LINE
8
BLACK
6
CONTINUOUS
10
6.10201
20
-5.58734
11
6.10199
21
-5.58734
0
LINE
8
BLACK
6
CONTINUOUS
10
6.10199
20
-5.58734
11
6.10197
21
-5.58734
0
LINE
8
BLACK
6
CONTINUOUS
10
6.10197
20
-5.58734
11
6.02915
21
-5.60075
0
LINE
8
BLACK
6
CONTINUOUS
10
6.02915
20
-5.60075
11
6.02911
21
-5.60075
0
LINE
8
BLACK
6
CONTINUOUS
10
6.02911
20
-5.60075
11
6.02909
21
-5.60075
0
LINE
8
BLACK
6
CONTINUOUS
10
6.02909
20
-5.60075
11
6.02907
21
-5.60076
0
LINE
8
BLACK
6
CONTINUOUS
10
6.02907
20
-5.60076
11
5.95539
21
-5.60802
0
LINE
8
BLACK
6
CONTINUOUS
10
5.95539
20
-5.60802
11
5.95535
21
-5.60802
0
LINE
8
BLACK
6
CONTINUOUS
10
5.95535
20
-5.60802
11
5.95533
21
-5.60802
0
LINE
8
BLACK
6
CONTINUOUS
10
5.95533
20
-5.60802
11
5.95531
21
-5.60802
0
LINE
8
BLACK
6
CONTINUOUS
10
5.95531
20
-5.60802
11
5.88127
21
-5.60909
0
LINE
8
BLACK
6
CONTINUOUS
10
5.88127
20
-5.60909
11
5.88123
21
-5.60909
0
LINE
8
BLACK
6
CONTINUOUS
10
5.88123
20
-5.60909
11
5.88121
21
-5.60909
0
LINE
8
BLACK
6
CONTINUOUS
10
5.88121
20
-5.60909
11
5.88119
21
-5.60909
0
LINE
8
BLACK
6
CONTINUOUS
10
5.88119
20
-5.60909
11
5.80733
21
-5.60396
0
LINE
8
BLACK
6
CONTINUOUS
10
5.80733
20
-5.60396
11
5.80729
21
-5.60396
0
LINE
8
BLACK
6
CONTINUOUS
10
5.80729
20
-5.60396
11
5.80727
21
-5.60395
0
LINE
8
BLACK
6
CONTINUOUS
10
5.80727
20
-5.60395
11
5.80725
21
-5.60395
0
LINE
8
BLACK
6
CONTINUOUS
10
5.80725
20
-5.60395
11
5.73408
21
-5.59266
0
LINE
8
BLACK
6
CONTINUOUS
10
5.73408
20
-5.59266
11
5.73404
21
-5.59265
0
LINE
8
BLACK
6
CONTINUOUS
10
5.73404
20
-5.59265
11
5.73402
21
-5.59265
0
LINE
8
BLACK
6
CONTINUOUS
10
5.73402
20
-5.59265
11
5.734
21
-5.59265
0
LINE
8
BLACK
6
CONTINUOUS
10
5.734
20
-5.59265
11
5.66202
21
-5.57527
0
LINE
8
BLACK
6
CONTINUOUS
10
5.66202
20
-5.57527
11
5.66198
21
-5.57526
0
LINE
8
BLACK
6
CONTINUOUS
10
5.66198
20
-5.57526
11
5.66198
21
-5.57526
0
LINE
8
BLACK
6
CONTINUOUS
10
5.66198
20
-5.57526
11
5.66197
21
-5.57526
0
LINE
8
BLACK
6
CONTINUOUS
10
5.66197
20
-5.57526
11
5.63768
21
-5.56792
0
LINE
8
BLACK
6
CONTINUOUS
10
5.63768
20
-5.56792
11
5.25205
21
-5.59547
0
LINE
8
BLACK
6
CONTINUOUS
10
5.25205
20
-5.59547
11
5.25197
21
-5.59548
0
LINE
8
BLACK
6
CONTINUOUS
10
5.25197
20
-5.59548
11
5.25191
21
-5.59547
0
LINE
8
BLACK
6
CONTINUOUS
10
5.25191
20
-5.59547
11
5.25185
21
-5.59547
0
LINE
8
BLACK
6
CONTINUOUS
10
5.25185
20
-5.59547
11
5.25181
21
-5.59546
0
LINE
8
BLACK
6
CONTINUOUS
10
5.25181
20
-5.59546
11
5.25178
21
-5.59546
0
LINE
8
BLACK
6
CONTINUOUS
10
5.25178
20
-5.59546
11
5.25172
21
-5.59544
0
LINE
8
BLACK
6
CONTINUOUS
10
5.25172
20
-5.59544
11
5.25166
21
-5.59543
0
LINE
8
BLACK
6
CONTINUOUS
10
5.25166
20
-5.59543
11
5.25162
21
-5.59541
0
LINE
8
BLACK
6
CONTINUOUS
10
5.25162
20
-5.59541
11
5.25159
21
-5.5954
0
LINE
8
BLACK
6
CONTINUOUS
10
5.25159
20
-5.5954
11
5.25154
21
-5.59537
0
LINE
8
BLACK
6
CONTINUOUS
10
5.25154
20
-5.59537
11
5.25148
21
-5.59535
0
LINE
8
BLACK
6
CONTINUOUS
10
5.25148
20
-5.59535
11
5.25145
21
-5.59533
0
LINE
8
BLACK
6
CONTINUOUS
10
5.25145
20
-5.59533
11
5.25142
21
-5.59531
0
LINE
8
BLACK
6
CONTINUOUS
10
5.25142
20
-5.59531
11
5.25137
21
-5.59527
0
LINE
8
BLACK
6
CONTINUOUS
10
5.25137
20
-5.59527
11
5.25132
21
-5.59524
0
LINE
8
BLACK
6
CONTINUOUS
10
5.25132
20
-5.59524
11
5.25126
21
-5.59518
0
LINE
8
BLACK
6
CONTINUOUS
10
5.25126
20
-5.59518
11
5.05447
21
-5.39838
0
LINE
8
BLACK
6
CONTINUOUS
10
5.05447
20
-5.39838
11
5.05445
21
-5.39837
0
LINE
8
BLACK
6
CONTINUOUS
10
5.05445
20
-5.39837
11
5.0544
21
-5.39832
0
LINE
8
BLACK
6
CONTINUOUS
10
5.0544
20
-5.39832
11
5.05439
21
-5.3983
0
LINE
8
BLACK
6
CONTINUOUS
10
5.05439
20
-5.3983
11
5.05437
21
-5.39828
0
LINE
8
BLACK
6
CONTINUOUS
10
5.05437
20
-5.39828
11
5.05432
21
-5.39822
0
LINE
8
BLACK
6
CONTINUOUS
10
5.05432
20
-5.39822
11
5.05431
21
-5.3982
0
LINE
8
BLACK
6
CONTINUOUS
10
5.05431
20
-5.3982
11
5.0543
21
-5.39819
0
LINE
8
BLACK
6
CONTINUOUS
10
5.0543
20
-5.39819
11
5.05426
21
-5.39812
0
LINE
8
BLACK
6
CONTINUOUS
10
5.05426
20
-5.39812
11
5.05422
21
-5.39806
0
LINE
8
BLACK
6
CONTINUOUS
10
5.05422
20
-5.39806
11
5.05422
21
-5.39804
0
LINE
8
BLACK
6
CONTINUOUS
10
5.05422
20
-5.39804
11
5.0542
21
-5.39802
0
LINE
8
BLACK
6
CONTINUOUS
10
5.0542
20
-5.39802
11
5.05418
21
-5.39795
0
LINE
8
BLACK
6
CONTINUOUS
10
5.05418
20
-5.39795
11
5.05417
21
-5.39792
0
LINE
8
BLACK
6
CONTINUOUS
10
5.05417
20
-5.39792
11
5.05417
21
-5.3979
0
LINE
8
BLACK
6
CONTINUOUS
10
5.05417
20
-5.3979
11
5.05415
21
-5.39783
0
LINE
8
BLACK
6
CONTINUOUS
10
5.05415
20
-5.39783
11
5.05415
21
-5.39781
0
LINE
8
BLACK
6
CONTINUOUS
10
5.05415
20
-5.39781
11
4.95574
21
-5.00026
0
LINE
8
BLACK
6
CONTINUOUS
10
4.95574
20
-5.00026
11
4.95572
21
-5.00019
0
LINE
8
BLACK
6
CONTINUOUS
10
4.95572
20
-5.00019
11
4.95572
21
-5.00012
0
LINE
8
BLACK
6
CONTINUOUS
10
4.95572
20
-5.00012
11
4.95571
21
-5.00005
0
LINE
8
BLACK
6
CONTINUOUS
10
4.95571
20
-5.00005
11
4.95571
21
-4.99998
0
LINE
8
BLACK
6
CONTINUOUS
10
4.95571
20
-4.99998
11
4.95571
21
-4.48814
0
LINE
8
BLACK
6
CONTINUOUS
10
4.95571
20
-4.48814
11
4.95572
21
-4.488
0
LINE
8
BLACK
6
CONTINUOUS
10
4.95572
20
-4.488
11
4.95575
21
-4.48791
0
LINE
8
BLACK
6
CONTINUOUS
10
4.95575
20
-4.48791
11
4.97775
21
-4.41258
0
LINE
8
BLACK
6
CONTINUOUS
10
4.97775
20
-4.41258
11
4.97775
21
-4.41257
0
LINE
8
BLACK
6
CONTINUOUS
10
4.97775
20
-4.41257
11
4.97776
21
-4.41254
0
LINE
8
BLACK
6
CONTINUOUS
10
4.97776
20
-4.41254
11
4.97777
21
-4.4125
0
LINE
8
BLACK
6
CONTINUOUS
10
4.97777
20
-4.4125
11
5.00575
21
-4.33918
0
LINE
8
BLACK
6
CONTINUOUS
10
5.00575
20
-4.33918
11
5.00575
21
-4.33917
0
LINE
8
BLACK
6
CONTINUOUS
10
5.00575
20
-4.33917
11
5.00576
21
-4.33914
0
LINE
8
BLACK
6
CONTINUOUS
10
5.00576
20
-4.33914
11
5.00578
21
-4.33911
0
LINE
8
BLACK
6
CONTINUOUS
10
5.00578
20
-4.33911
11
5.03954
21
-4.26826
0
LINE
8
BLACK
6
CONTINUOUS
10
5.03954
20
-4.26826
11
5.03954
21
-4.26825
0
LINE
8
BLACK
6
CONTINUOUS
10
5.03954
20
-4.26825
11
5.03956
21
-4.26822
0
LINE
8
BLACK
6
CONTINUOUS
10
5.03956
20
-4.26822
11
5.03958
21
-4.26819
0
LINE
8
BLACK
6
CONTINUOUS
10
5.03958
20
-4.26819
11
5.07891
21
-4.20028
0
LINE
8
BLACK
6
CONTINUOUS
10
5.07891
20
-4.20028
11
5.07892
21
-4.20027
0
LINE
8
BLACK
6
CONTINUOUS
10
5.07892
20
-4.20027
11
5.07894
21
-4.20024
0
LINE
8
BLACK
6
CONTINUOUS
10
5.07894
20
-4.20024
11
5.07895
21
-4.20021
0
LINE
8
BLACK
6
CONTINUOUS
10
5.07895
20
-4.20021
11
5.12361
21
-4.13567
0
LINE
8
BLACK
6
CONTINUOUS
10
5.12361
20
-4.13567
11
5.12361
21
-4.13567
0
LINE
8
BLACK
6
CONTINUOUS
10
5.12361
20
-4.13567
11
5.12364
21
-4.13564
0
LINE
8
BLACK
6
CONTINUOUS
10
5.12364
20
-4.13564
11
5.12366
21
-4.13561
0
LINE
8
BLACK
6
CONTINUOUS
10
5.12366
20
-4.13561
11
5.17334
21
-4.07486
0
LINE
8
BLACK
6
CONTINUOUS
10
5.17334
20
-4.07486
11
5.17335
21
-4.07485
0
LINE
8
BLACK
6
CONTINUOUS
10
5.17335
20
-4.07485
11
5.17337
21
-4.07483
0
LINE
8
BLACK
6
CONTINUOUS
10
5.17337
20
-4.07483
11
5.1734
21
-4.0748
0
LINE
8
BLACK
6
CONTINUOUS
10
5.1734
20
-4.0748
11
5.22779
21
-4.01824
0
LINE
8
BLACK
6
CONTINUOUS
10
5.22779
20
-4.01824
11
5.2278
21
-4.01823
0
LINE
8
BLACK
6
CONTINUOUS
10
5.2278
20
-4.01823
11
5.22783
21
-4.0182
0
LINE
8
BLACK
6
CONTINUOUS
10
5.22783
20
-4.0182
11
5.22785
21
-4.01818
0
LINE
8
BLACK
6
CONTINUOUS
10
5.22785
20
-4.01818
11
5.28661
21
-3.96616
0
LINE
8
BLACK
6
CONTINUOUS
10
5.28661
20
-3.96616
11
5.28662
21
-3.96615
0
LINE
8
BLACK
6
CONTINUOUS
10
5.28662
20
-3.96615
11
5.28665
21
-3.96613
0
LINE
8
BLACK
6
CONTINUOUS
10
5.28665
20
-3.96613
11
5.28667
21
-3.96611
0
LINE
8
BLACK
6
CONTINUOUS
10
5.28667
20
-3.96611
11
5.34942
21
-3.91897
0
LINE
8
BLACK
6
CONTINUOUS
10
5.34942
20
-3.91897
11
5.34942
21
-3.91896
0
LINE
8
BLACK
6
CONTINUOUS
10
5.34942
20
-3.91896
11
5.34945
21
-3.91894
0
LINE
8
BLACK
6
CONTINUOUS
10
5.34945
20
-3.91894
11
5.34948
21
-3.91892
0
LINE
8
BLACK
6
CONTINUOUS
10
5.34948
20
-3.91892
11
5.4158
21
-3.87696
0
LINE
8
BLACK
6
CONTINUOUS
10
5.4158
20
-3.87696
11
5.41581
21
-3.87696
0
LINE
8
BLACK
6
CONTINUOUS
10
5.41581
20
-3.87696
11
5.41584
21
-3.87694
0
LINE
8
BLACK
6
CONTINUOUS
10
5.41584
20
-3.87694
11
5.41586
21
-3.87693
0
LINE
8
BLACK
6
CONTINUOUS
10
5.41586
20
-3.87693
11
5.46768
21
-3.84903
0
LINE
8
BLACK
6
CONTINUOUS
10
5.46768
20
-3.84903
11
5.46769
21
-3.84903
0
LINE
8
BLACK
6
CONTINUOUS
10
5.46769
20
-3.84903
11
5.46776
21
-3.84899
0
LINE
8
BLACK
6
CONTINUOUS
10
5.46776
20
-3.84899
11
5.46777
21
-3.84899
0
LINE
8
BLACK
6
CONTINUOUS
10
5.46777
20
-3.84899
11
5.46778
21
-3.84898
0
LINE
8
BLACK
6
CONTINUOUS
10
5.46778
20
-3.84898
11
5.46778
21
-3.84898
0
LINE
8
BLACK
6
CONTINUOUS
10
5.46778
20
-3.84898
11
5.46786
21
-3.84894
0
LINE
8
BLACK
6
CONTINUOUS
10
5.46786
20
-3.84894
11
5.46804
21
-3.84888
0
LINE
8
BLACK
6
CONTINUOUS
10
5.46804
20
-3.84888
11
5.46819
21
-3.84887
0
LINE
8
BLACK
6
CONTINUOUS
10
5.46819
20
-3.84887
11
5.46823
21
-3.84887
0
LINE
8
BLACK
6
CONTINUOUS
10
5.46823
20
-3.84887
11
5.46823
21
-3.84887
0
LINE
8
BLACK
6
CONTINUOUS
10
5.46823
20
-3.84887
11
5.90551
21
-3.84941
0
LINE
8
BLACK
6
CONTINUOUS
10
5.90556
20
-3.85138
11
5.90556
21
-3.85138
0
LINE
8
BLACK
6
CONTINUOUS
10
5.90556
20
-3.85138
11
5.90551
21
-3.85138
0
LINE
8
BLACK
6
CONTINUOUS
10
5.90551
20
-3.85138
11
5.90547
21
-3.85138
0
LINE
8
BLACK
6
CONTINUOUS
10
5.90547
20
-3.85138
11
5.90546
21
-3.85138
0
LINE
8
BLACK
6
CONTINUOUS
10
5.90546
20
-3.85138
11
5.46848
21
-3.85084
0
LINE
8
BLACK
6
CONTINUOUS
10
5.46848
20
-3.85084
11
5.41683
21
-3.87864
0
LINE
8
BLACK
6
CONTINUOUS
10
5.41683
20
-3.87864
11
5.35057
21
-3.92056
0
LINE
8
BLACK
6
CONTINUOUS
10
5.35057
20
-3.92056
11
5.28789
21
-3.96766
0
LINE
8
BLACK
6
CONTINUOUS
10
5.28789
20
-3.96766
11
5.22919
21
-4.01963
0
LINE
8
BLACK
6
CONTINUOUS
10
5.22919
20
-4.01963
11
5.17484
21
-4.07614
0
LINE
8
BLACK
6
CONTINUOUS
10
5.17484
20
-4.07614
11
5.1252
21
-4.13683
0
LINE
8
BLACK
6
CONTINUOUS
10
5.1252
20
-4.13683
11
5.08059
21
-4.2013
0
LINE
8
BLACK
6
CONTINUOUS
10
5.08059
20
-4.2013
11
5.0413
21
-4.26914
0
LINE
8
BLACK
6
CONTINUOUS
10
5.0413
20
-4.26914
11
5.00757
21
-4.33992
0
LINE
8
BLACK
6
CONTINUOUS
10
5.00757
20
-4.33992
11
4.97963
21
-4.41317
0
LINE
8
BLACK
6
CONTINUOUS
10
4.97963
20
-4.41317
11
4.95768
21
-4.48833
0
LINE
8
BLACK
6
CONTINUOUS
10
4.95768
20
-4.48833
11
4.95768
21
-4.99988
0
LINE
8
BLACK
6
CONTINUOUS
10
4.95768
20
-4.99988
11
5.05601
21
-5.39714
0
LINE
8
BLACK
6
CONTINUOUS
10
5.05601
20
-5.39714
11
5.25235
21
-5.59347
0
LINE
8
BLACK
6
CONTINUOUS
10
5.25235
20
-5.59347
11
5.63777
21
-5.56594
0
LINE
8
BLACK
6
CONTINUOUS
10
5.63777
20
-5.56594
11
5.63792
21
-5.56595
0
LINE
8
BLACK
6
CONTINUOUS
10
5.63792
20
-5.56595
11
5.63811
21
-5.56599
0
LINE
8
BLACK
6
CONTINUOUS
10
5.63811
20
-5.56599
11
5.63814
21
-5.566
0
LINE
8
BLACK
6
CONTINUOUS
10
5.63814
20
-5.566
11
5.66251
21
-5.57336
0
LINE
8
BLACK
6
CONTINUOUS
10
5.66251
20
-5.57336
11
5.73442
21
-5.59072
0
LINE
8
BLACK
6
CONTINUOUS
10
5.73442
20
-5.59072
11
5.80751
21
-5.602
0
LINE
8
BLACK
6
CONTINUOUS
10
5.80751
20
-5.602
11
5.88129
21
-5.60712
0
LINE
8
BLACK
6
CONTINUOUS
10
5.88129
20
-5.60712
11
5.95524
21
-5.60605
0
LINE
8
BLACK
6
CONTINUOUS
10
5.95524
20
-5.60605
11
6.02884
21
-5.5988
0
LINE
8
BLACK
6
CONTINUOUS
10
6.02884
20
-5.5988
11
6.10157
21
-5.58542
0
LINE
8
BLACK
6
CONTINUOUS
10
6.10157
20
-5.58542
11
6.1729
21
-5.566
0
LINE
8
BLACK
6
CONTINUOUS
10
6.1729
20
-5.566
11
6.17292
21
-5.56599
0
LINE
8
BLACK
6
CONTINUOUS
10
6.17292
20
-5.56599
11
6.17301
21
-5.56597
0
LINE
8
BLACK
6
CONTINUOUS
10
6.17301
20
-5.56597
11
6.17301
21
-5.56597
0
LINE
8
BLACK
6
CONTINUOUS
10
6.17301
20
-5.56597
11
6.17301
21
-5.56597
0
LINE
8
BLACK
6
CONTINUOUS
10
6.17301
20
-5.56597
11
6.1731
21
-5.56595
0
LINE
8
BLACK
6
CONTINUOUS
10
6.1731
20
-5.56595
11
6.17325
21
-5.56594
0
LINE
8
BLACK
6
CONTINUOUS
10
6.17325
20
-5.56594
11
6.55868
21
-5.59347
0
LINE
8
BLACK
6
CONTINUOUS
10
6.55868
20
-5.59347
11
6.75502
21
-5.39714
0
LINE
8
BLACK
6
CONTINUOUS
10
6.75502
20
-5.39714
11
6.85335
21
-4.99988
0
LINE
8
BLACK
6
CONTINUOUS
10
6.85335
20
-4.99988
11
6.85335
21
-4.48832
0
LINE
8
BLACK
6
CONTINUOUS
10
6.85335
20
-4.48832
11
6.83743
21
-4.43174
0
LINE
8
BLACK
6
CONTINUOUS
10
6.83743
20
-4.43174
11
6.81096
21
-4.35794
0
LINE
8
BLACK
6
CONTINUOUS
10
6.81096
20
-4.35794
11
6.77865
21
-4.28651
0
LINE
8
BLACK
6
CONTINUOUS
10
6.77865
20
-4.28651
11
6.74072
21
-4.21789
0
LINE
8
BLACK
6
CONTINUOUS
10
6.74072
20
-4.21789
11
6.69741
21
-4.15254
0
LINE
8
BLACK
6
CONTINUOUS
10
6.69741
20
-4.15254
11
6.64899
21
-4.09087
0
LINE
8
BLACK
6
CONTINUOUS
10
6.64899
20
-4.09087
11
6.59579
21
-4.03329
0
LINE
8
BLACK
6
CONTINUOUS
10
6.59579
20
-4.03329
11
6.53814
21
-3.98016
0
LINE
8
BLACK
6
CONTINUOUS
10
6.53814
20
-3.98016
11
6.47641
21
-3.93182
0
LINE
8
BLACK
6
CONTINUOUS
10
6.47641
20
-3.93182
11
6.41101
21
-3.88858
0
LINE
8
BLACK
6
CONTINUOUS
10
6.41101
20
-3.88858
11
6.34254
21
-3.85084
0
LINE
8
BLACK
6
CONTINUOUS
10
6.34254
20
-3.85084
11
5.90556
21
-3.85138
  0
ENDSEC
  0
EOF
