  0
SECTION
  2
HEADER
  9
$ANGBASE
  50
0.0
  9
$ANGDIR
  70
1
  9
$MEASUREMENT
  70
0
  0
ENDSEC
  0
SECTION
  2
TABLES
  0
TABLE
  2
LTYPE
  70
4
  0
LTYPE
  5
40F
  2
CONTINUOUS
  70
0
  3
Solid line
  72
65
  73
0
  40
0.0
  0
LTYPE
  5
410
  2
DASHDOT
 70
0
  3
Dash Dot ____ _ ____ _
 72
65
 73
4
 40
2.0
 49
1.25
 49
-0.25
 49
0.25
 49
-0.25
  0
LTYPE
  5
411
  2
DASHED
 70
0
  3
Dashed __ __ __ __ __
 72
65
 73
2
 40
0.75
 49
0.5
 49
-0.25
  0
LTYPE
  5
43B
  2
DOTTED
 70
0
  3
Dotted .  .  .  .
 72
65
 73
2
 40
0.2
 49
0.0
 49
-0.2
  0
ENDTAB
  0
TABLE
  2
STYLE
  70
4
  0
STYLE
  2
KICAD
  70
0
  40
0
  41
1
  42
1
  50
0
  71
0
  3
isocp.shx
  0
STYLE
  2
KICADB
  70
0
  40
0
  41
1
  42
1
  50
0
  71
0
  3
isocp.shx
  0
STYLE
  2
KICADI
  70
0
  40
0
  41
1
  42
1
  50
15
  71
0
  3
isocp.shx
  0
STYLE
  2
KICADBI
  70
0
  40
0
  41
1
  42
1
  50
15
  71
0
  3
isocp.shx
  0
ENDTAB
  0
TABLE
  2
LAYER
  70
1
  0
LAYER
  2
BLACK
  70
0
  62
7
  6
CONTINUOUS
  0
ENDTAB
  0
ENDSEC
  0
SECTION
  2
ENTITIES
0
LINE
8
BLACK
6
CONTINUOUS
10
5.63322
20
-5.45195
11
5.63498
21
-5.45248
0
LINE
8
BLACK
6
CONTINUOUS
10
5.63498
20
-5.45248
11
5.63659
21
-5.45335
0
LINE
8
BLACK
6
CONTINUOUS
10
5.63659
20
-5.45335
11
5.63801
21
-5.45451
0
LINE
8
BLACK
6
CONTINUOUS
10
5.63801
20
-5.45451
11
5.63917
21
-5.45593
0
LINE
8
BLACK
6
CONTINUOUS
10
5.63917
20
-5.45593
11
5.64004
21
-5.45754
0
LINE
8
BLACK
6
CONTINUOUS
10
5.64004
20
-5.45754
11
5.64057
21
-5.4593
0
LINE
8
BLACK
6
CONTINUOUS
10
5.64057
20
-5.4593
11
5.64075
21
-5.46112
0
LINE
8
BLACK
6
CONTINUOUS
10
5.64075
20
-5.46112
11
5.64075
21
-5.48376
0
LINE
8
BLACK
6
CONTINUOUS
10
5.64075
20
-5.48376
11
5.64057
21
-5.48558
0
LINE
8
BLACK
6
CONTINUOUS
10
5.64057
20
-5.48558
11
5.64004
21
-5.48734
0
LINE
8
BLACK
6
CONTINUOUS
10
5.64004
20
-5.48734
11
5.63917
21
-5.48895
0
LINE
8
BLACK
6
CONTINUOUS
10
5.63917
20
-5.48895
11
5.63801
21
-5.49037
0
LINE
8
BLACK
6
CONTINUOUS
10
5.63801
20
-5.49037
11
5.63659
21
-5.49153
0
LINE
8
BLACK
6
CONTINUOUS
10
5.63659
20
-5.49153
11
5.63498
21
-5.4924
0
LINE
8
BLACK
6
CONTINUOUS
10
5.63498
20
-5.4924
11
5.63322
21
-5.49293
0
LINE
8
BLACK
6
CONTINUOUS
10
5.63322
20
-5.49293
11
5.6314
21
-5.49311
0
LINE
8
BLACK
6
CONTINUOUS
10
5.6314
20
-5.49311
11
5.6127
21
-5.49311
0
LINE
8
BLACK
6
CONTINUOUS
10
5.6127
20
-5.49311
11
5.61087
21
-5.49293
0
LINE
8
BLACK
6
CONTINUOUS
10
5.61087
20
-5.49293
11
5.60912
21
-5.4924
0
LINE
8
BLACK
6
CONTINUOUS
10
5.60912
20
-5.4924
11
5.6075
21
-5.49153
0
LINE
8
BLACK
6
CONTINUOUS
10
5.6075
20
-5.49153
11
5.60609
21
-5.49037
0
LINE
8
BLACK
6
CONTINUOUS
10
5.60609
20
-5.49037
11
5.60492
21
-5.48895
0
LINE
8
BLACK
6
CONTINUOUS
10
5.60492
20
-5.48895
11
5.60406
21
-5.48734
0
LINE
8
BLACK
6
CONTINUOUS
10
5.60406
20
-5.48734
11
5.60353
21
-5.48558
0
LINE
8
BLACK
6
CONTINUOUS
10
5.60353
20
-5.48558
11
5.60335
21
-5.48376
0
LINE
8
BLACK
6
CONTINUOUS
10
5.60335
20
-5.48376
11
5.60335
21
-5.46112
0
LINE
8
BLACK
6
CONTINUOUS
10
5.60335
20
-5.46112
11
5.60353
21
-5.4593
0
LINE
8
BLACK
6
CONTINUOUS
10
5.60353
20
-5.4593
11
5.60406
21
-5.45754
0
LINE
8
BLACK
6
CONTINUOUS
10
5.60406
20
-5.45754
11
5.60492
21
-5.45593
0
LINE
8
BLACK
6
CONTINUOUS
10
5.60492
20
-5.45593
11
5.60609
21
-5.45451
0
LINE
8
BLACK
6
CONTINUOUS
10
5.60609
20
-5.45451
11
5.6075
21
-5.45335
0
LINE
8
BLACK
6
CONTINUOUS
10
5.6075
20
-5.45335
11
5.60912
21
-5.45248
0
LINE
8
BLACK
6
CONTINUOUS
10
5.60912
20
-5.45248
11
5.61087
21
-5.45195
0
LINE
8
BLACK
6
CONTINUOUS
10
5.61087
20
-5.45195
11
5.6127
21
-5.45177
0
LINE
8
BLACK
6
CONTINUOUS
10
5.6127
20
-5.45177
11
5.6314
21
-5.45177
0
LINE
8
BLACK
6
CONTINUOUS
10
5.6314
20
-5.45177
11
5.63322
21
-5.45195
0
LINE
8
BLACK
6
CONTINUOUS
10
6.16924
20
-5.44606
11
6.17109
21
-5.44662
0
LINE
8
BLACK
6
CONTINUOUS
10
6.17109
20
-5.44662
11
6.17279
21
-5.44752
0
LINE
8
BLACK
6
CONTINUOUS
10
6.17279
20
-5.44752
11
6.17428
21
-5.44875
0
LINE
8
BLACK
6
CONTINUOUS
10
6.17428
20
-5.44875
11
6.17551
21
-5.45024
0
LINE
8
BLACK
6
CONTINUOUS
10
6.17551
20
-5.45024
11
6.17642
21
-5.45194
0
LINE
8
BLACK
6
CONTINUOUS
10
6.17642
20
-5.45194
11
6.17698
21
-5.45379
0
LINE
8
BLACK
6
CONTINUOUS
10
6.17698
20
-5.45379
11
6.17717
21
-5.45571
0
LINE
8
BLACK
6
CONTINUOUS
10
6.17717
20
-5.45571
11
6.17717
21
-5.4813
0
LINE
8
BLACK
6
CONTINUOUS
10
6.17717
20
-5.4813
11
6.17698
21
-5.48322
0
LINE
8
BLACK
6
CONTINUOUS
10
6.17698
20
-5.48322
11
6.17642
21
-5.48507
0
LINE
8
BLACK
6
CONTINUOUS
10
6.17642
20
-5.48507
11
6.17551
21
-5.48677
0
LINE
8
BLACK
6
CONTINUOUS
10
6.17551
20
-5.48677
11
6.17428
21
-5.48826
0
LINE
8
BLACK
6
CONTINUOUS
10
6.17428
20
-5.48826
11
6.17279
21
-5.48948
0
LINE
8
BLACK
6
CONTINUOUS
10
6.17279
20
-5.48948
11
6.17109
21
-5.49039
0
LINE
8
BLACK
6
CONTINUOUS
10
6.17109
20
-5.49039
11
6.16924
21
-5.49095
0
LINE
8
BLACK
6
CONTINUOUS
10
6.16924
20
-5.49095
11
6.16732
21
-5.49114
0
LINE
8
BLACK
6
CONTINUOUS
10
6.16732
20
-5.49114
11
6.13189
21
-5.49114
0
LINE
8
BLACK
6
CONTINUOUS
10
6.13189
20
-5.49114
11
6.12997
21
-5.49095
0
LINE
8
BLACK
6
CONTINUOUS
10
6.12997
20
-5.49095
11
6.12812
21
-5.49039
0
LINE
8
BLACK
6
CONTINUOUS
10
6.12812
20
-5.49039
11
6.12642
21
-5.48948
0
LINE
8
BLACK
6
CONTINUOUS
10
6.12642
20
-5.48948
11
6.12493
21
-5.48826
0
LINE
8
BLACK
6
CONTINUOUS
10
6.12493
20
-5.48826
11
6.12371
21
-5.48677
0
LINE
8
BLACK
6
CONTINUOUS
10
6.12371
20
-5.48677
11
6.1228
21
-5.48507
0
LINE
8
BLACK
6
CONTINUOUS
10
6.1228
20
-5.48507
11
6.12224
21
-5.48322
0
LINE
8
BLACK
6
CONTINUOUS
10
6.12224
20
-5.48322
11
6.12205
21
-5.4813
0
LINE
8
BLACK
6
CONTINUOUS
10
6.12205
20
-5.4813
11
6.12205
21
-5.45571
0
LINE
8
BLACK
6
CONTINUOUS
10
6.12205
20
-5.45571
11
6.12224
21
-5.45379
0
LINE
8
BLACK
6
CONTINUOUS
10
6.12224
20
-5.45379
11
6.1228
21
-5.45194
0
LINE
8
BLACK
6
CONTINUOUS
10
6.1228
20
-5.45194
11
6.12371
21
-5.45024
0
LINE
8
BLACK
6
CONTINUOUS
10
6.12371
20
-5.45024
11
6.12493
21
-5.44875
0
LINE
8
BLACK
6
CONTINUOUS
10
6.12493
20
-5.44875
11
6.12642
21
-5.44752
0
LINE
8
BLACK
6
CONTINUOUS
10
6.12642
20
-5.44752
11
6.12812
21
-5.44662
0
LINE
8
BLACK
6
CONTINUOUS
10
6.12812
20
-5.44662
11
6.12997
21
-5.44606
0
LINE
8
BLACK
6
CONTINUOUS
10
6.12997
20
-5.44606
11
6.13189
21
-5.44587
0
LINE
8
BLACK
6
CONTINUOUS
10
6.13189
20
-5.44587
11
6.16732
21
-5.44587
0
LINE
8
BLACK
6
CONTINUOUS
10
6.16732
20
-5.44587
11
6.16924
21
-5.44606
0
LINE
8
BLACK
6
CONTINUOUS
10
5.63322
20
-5.38305
11
5.63498
21
-5.38359
0
LINE
8
BLACK
6
CONTINUOUS
10
5.63498
20
-5.38359
11
5.63659
21
-5.38445
0
LINE
8
BLACK
6
CONTINUOUS
10
5.63659
20
-5.38445
11
5.63801
21
-5.38561
0
LINE
8
BLACK
6
CONTINUOUS
10
5.63801
20
-5.38561
11
5.63917
21
-5.38703
0
LINE
8
BLACK
6
CONTINUOUS
10
5.63917
20
-5.38703
11
5.64004
21
-5.38865
0
LINE
8
BLACK
6
CONTINUOUS
10
5.64004
20
-5.38865
11
5.64057
21
-5.3904
0
LINE
8
BLACK
6
CONTINUOUS
10
5.64057
20
-5.3904
11
5.64075
21
-5.39222
0
LINE
8
BLACK
6
CONTINUOUS
10
5.64075
20
-5.39222
11
5.64075
21
-5.41486
0
LINE
8
BLACK
6
CONTINUOUS
10
5.64075
20
-5.41486
11
5.64057
21
-5.41669
0
LINE
8
BLACK
6
CONTINUOUS
10
5.64057
20
-5.41669
11
5.64004
21
-5.41844
0
LINE
8
BLACK
6
CONTINUOUS
10
5.64004
20
-5.41844
11
5.63917
21
-5.42006
0
LINE
8
BLACK
6
CONTINUOUS
10
5.63917
20
-5.42006
11
5.63801
21
-5.42147
0
LINE
8
BLACK
6
CONTINUOUS
10
5.63801
20
-5.42147
11
5.63659
21
-5.42264
0
LINE
8
BLACK
6
CONTINUOUS
10
5.63659
20
-5.42264
11
5.63498
21
-5.4235
0
LINE
8
BLACK
6
CONTINUOUS
10
5.63498
20
-5.4235
11
5.63322
21
-5.42403
0
LINE
8
BLACK
6
CONTINUOUS
10
5.63322
20
-5.42403
11
5.6314
21
-5.42421
0
LINE
8
BLACK
6
CONTINUOUS
10
5.6314
20
-5.42421
11
5.6127
21
-5.42421
0
LINE
8
BLACK
6
CONTINUOUS
10
5.6127
20
-5.42421
11
5.61087
21
-5.42403
0
LINE
8
BLACK
6
CONTINUOUS
10
5.61087
20
-5.42403
11
5.60912
21
-5.4235
0
LINE
8
BLACK
6
CONTINUOUS
10
5.60912
20
-5.4235
11
5.6075
21
-5.42264
0
LINE
8
BLACK
6
CONTINUOUS
10
5.6075
20
-5.42264
11
5.60609
21
-5.42147
0
LINE
8
BLACK
6
CONTINUOUS
10
5.60609
20
-5.42147
11
5.60492
21
-5.42006
0
LINE
8
BLACK
6
CONTINUOUS
10
5.60492
20
-5.42006
11
5.60406
21
-5.41844
0
LINE
8
BLACK
6
CONTINUOUS
10
5.60406
20
-5.41844
11
5.60353
21
-5.41669
0
LINE
8
BLACK
6
CONTINUOUS
10
5.60353
20
-5.41669
11
5.60335
21
-5.41486
0
LINE
8
BLACK
6
CONTINUOUS
10
5.60335
20
-5.41486
11
5.60335
21
-5.39222
0
LINE
8
BLACK
6
CONTINUOUS
10
5.60335
20
-5.39222
11
5.60353
21
-5.3904
0
LINE
8
BLACK
6
CONTINUOUS
10
5.60353
20
-5.3904
11
5.60406
21
-5.38865
0
LINE
8
BLACK
6
CONTINUOUS
10
5.60406
20
-5.38865
11
5.60492
21
-5.38703
0
LINE
8
BLACK
6
CONTINUOUS
10
5.60492
20
-5.38703
11
5.60609
21
-5.38561
0
LINE
8
BLACK
6
CONTINUOUS
10
5.60609
20
-5.38561
11
5.6075
21
-5.38445
0
LINE
8
BLACK
6
CONTINUOUS
10
5.6075
20
-5.38445
11
5.60912
21
-5.38359
0
LINE
8
BLACK
6
CONTINUOUS
10
5.60912
20
-5.38359
11
5.61087
21
-5.38305
0
LINE
8
BLACK
6
CONTINUOUS
10
5.61087
20
-5.38305
11
5.6127
21
-5.38287
0
LINE
8
BLACK
6
CONTINUOUS
10
5.6127
20
-5.38287
11
5.6314
21
-5.38287
0
LINE
8
BLACK
6
CONTINUOUS
10
5.6314
20
-5.38287
11
5.63322
21
-5.38305
0
LINE
8
BLACK
6
CONTINUOUS
10
6.16924
20
-5.36535
11
6.17109
21
-5.36591
0
LINE
8
BLACK
6
CONTINUOUS
10
6.17109
20
-5.36591
11
6.17279
21
-5.36682
0
LINE
8
BLACK
6
CONTINUOUS
10
6.17279
20
-5.36682
11
6.17428
21
-5.36804
0
LINE
8
BLACK
6
CONTINUOUS
10
6.17428
20
-5.36804
11
6.17551
21
-5.36953
0
LINE
8
BLACK
6
CONTINUOUS
10
6.17551
20
-5.36953
11
6.17642
21
-5.37123
0
LINE
8
BLACK
6
CONTINUOUS
10
6.17642
20
-5.37123
11
6.17698
21
-5.37308
0
LINE
8
BLACK
6
CONTINUOUS
10
6.17698
20
-5.37308
11
6.17717
21
-5.375
0
LINE
8
BLACK
6
CONTINUOUS
10
6.17717
20
-5.375
11
6.17717
21
-5.40059
0
LINE
8
BLACK
6
CONTINUOUS
10
6.17717
20
-5.40059
11
6.17698
21
-5.40251
0
LINE
8
BLACK
6
CONTINUOUS
10
6.17698
20
-5.40251
11
6.17642
21
-5.40436
0
LINE
8
BLACK
6
CONTINUOUS
10
6.17642
20
-5.40436
11
6.17551
21
-5.40606
0
LINE
8
BLACK
6
CONTINUOUS
10
6.17551
20
-5.40606
11
6.17428
21
-5.40755
0
LINE
8
BLACK
6
CONTINUOUS
10
6.17428
20
-5.40755
11
6.17279
21
-5.40877
0
LINE
8
BLACK
6
CONTINUOUS
10
6.17279
20
-5.40877
11
6.17109
21
-5.40968
0
LINE
8
BLACK
6
CONTINUOUS
10
6.17109
20
-5.40968
11
6.16924
21
-5.41024
0
LINE
8
BLACK
6
CONTINUOUS
10
6.16924
20
-5.41024
11
6.16732
21
-5.41043
0
LINE
8
BLACK
6
CONTINUOUS
10
6.16732
20
-5.41043
11
6.13189
21
-5.41043
0
LINE
8
BLACK
6
CONTINUOUS
10
6.13189
20
-5.41043
11
6.12997
21
-5.41024
0
LINE
8
BLACK
6
CONTINUOUS
10
6.12997
20
-5.41024
11
6.12812
21
-5.40968
0
LINE
8
BLACK
6
CONTINUOUS
10
6.12812
20
-5.40968
11
6.12642
21
-5.40877
0
LINE
8
BLACK
6
CONTINUOUS
10
6.12642
20
-5.40877
11
6.12493
21
-5.40755
0
LINE
8
BLACK
6
CONTINUOUS
10
6.12493
20
-5.40755
11
6.12371
21
-5.40606
0
LINE
8
BLACK
6
CONTINUOUS
10
6.12371
20
-5.40606
11
6.1228
21
-5.40436
0
LINE
8
BLACK
6
CONTINUOUS
10
6.1228
20
-5.40436
11
6.12224
21
-5.40251
0
LINE
8
BLACK
6
CONTINUOUS
10
6.12224
20
-5.40251
11
6.12205
21
-5.40059
0
LINE
8
BLACK
6
CONTINUOUS
10
6.12205
20
-5.40059
11
6.12205
21
-5.375
0
LINE
8
BLACK
6
CONTINUOUS
10
6.12205
20
-5.375
11
6.12224
21
-5.37308
0
LINE
8
BLACK
6
CONTINUOUS
10
6.12224
20
-5.37308
11
6.1228
21
-5.37123
0
LINE
8
BLACK
6
CONTINUOUS
10
6.1228
20
-5.37123
11
6.12371
21
-5.36953
0
LINE
8
BLACK
6
CONTINUOUS
10
6.12371
20
-5.36953
11
6.12493
21
-5.36804
0
LINE
8
BLACK
6
CONTINUOUS
10
6.12493
20
-5.36804
11
6.12642
21
-5.36682
0
LINE
8
BLACK
6
CONTINUOUS
10
6.12642
20
-5.36682
11
6.12812
21
-5.36591
0
LINE
8
BLACK
6
CONTINUOUS
10
6.12812
20
-5.36591
11
6.12997
21
-5.36535
0
LINE
8
BLACK
6
CONTINUOUS
10
6.12997
20
-5.36535
11
6.13189
21
-5.36516
0
LINE
8
BLACK
6
CONTINUOUS
10
6.13189
20
-5.36516
11
6.16732
21
-5.36516
0
LINE
8
BLACK
6
CONTINUOUS
10
6.16732
20
-5.36516
11
6.16924
21
-5.36535
0
LINE
8
BLACK
6
CONTINUOUS
10
5.91669
20
-5.28266
11
5.91844
21
-5.28319
0
LINE
8
BLACK
6
CONTINUOUS
10
5.91844
20
-5.28319
11
5.92006
21
-5.28406
0
LINE
8
BLACK
6
CONTINUOUS
10
5.92006
20
-5.28406
11
5.92147
21
-5.28522
0
LINE
8
BLACK
6
CONTINUOUS
10
5.92147
20
-5.28522
11
5.92264
21
-5.28664
0
LINE
8
BLACK
6
CONTINUOUS
10
5.92264
20
-5.28664
11
5.9235
21
-5.28825
0
LINE
8
BLACK
6
CONTINUOUS
10
5.9235
20
-5.28825
11
5.92403
21
-5.29001
0
LINE
8
BLACK
6
CONTINUOUS
10
5.92403
20
-5.29001
11
5.92421
21
-5.29183
0
LINE
8
BLACK
6
CONTINUOUS
10
5.92421
20
-5.29183
11
5.92421
21
-5.31447
0
LINE
8
BLACK
6
CONTINUOUS
10
5.92421
20
-5.31447
11
5.92403
21
-5.31629
0
LINE
8
BLACK
6
CONTINUOUS
10
5.92403
20
-5.31629
11
5.9235
21
-5.31805
0
LINE
8
BLACK
6
CONTINUOUS
10
5.9235
20
-5.31805
11
5.92264
21
-5.31966
0
LINE
8
BLACK
6
CONTINUOUS
10
5.92264
20
-5.31966
11
5.92147
21
-5.32108
0
LINE
8
BLACK
6
CONTINUOUS
10
5.92147
20
-5.32108
11
5.92006
21
-5.32224
0
LINE
8
BLACK
6
CONTINUOUS
10
5.92006
20
-5.32224
11
5.91844
21
-5.32311
0
LINE
8
BLACK
6
CONTINUOUS
10
5.91844
20
-5.32311
11
5.91669
21
-5.32364
0
LINE
8
BLACK
6
CONTINUOUS
10
5.91669
20
-5.32364
11
5.91486
21
-5.32382
0
LINE
8
BLACK
6
CONTINUOUS
10
5.91486
20
-5.32382
11
5.89616
21
-5.32382
0
LINE
8
BLACK
6
CONTINUOUS
10
5.89616
20
-5.32382
11
5.89434
21
-5.32364
0
LINE
8
BLACK
6
CONTINUOUS
10
5.89434
20
-5.32364
11
5.89258
21
-5.32311
0
LINE
8
BLACK
6
CONTINUOUS
10
5.89258
20
-5.32311
11
5.89097
21
-5.32224
0
LINE
8
BLACK
6
CONTINUOUS
10
5.89097
20
-5.32224
11
5.88955
21
-5.32108
0
LINE
8
BLACK
6
CONTINUOUS
10
5.88955
20
-5.32108
11
5.88839
21
-5.31966
0
LINE
8
BLACK
6
CONTINUOUS
10
5.88839
20
-5.31966
11
5.88752
21
-5.31805
0
LINE
8
BLACK
6
CONTINUOUS
10
5.88752
20
-5.31805
11
5.88699
21
-5.31629
0
LINE
8
BLACK
6
CONTINUOUS
10
5.88699
20
-5.31629
11
5.88681
21
-5.31447
0
LINE
8
BLACK
6
CONTINUOUS
10
5.88681
20
-5.31447
11
5.88681
21
-5.29183
0
LINE
8
BLACK
6
CONTINUOUS
10
5.88681
20
-5.29183
11
5.88699
21
-5.29001
0
LINE
8
BLACK
6
CONTINUOUS
10
5.88699
20
-5.29001
11
5.88752
21
-5.28825
0
LINE
8
BLACK
6
CONTINUOUS
10
5.88752
20
-5.28825
11
5.88839
21
-5.28664
0
LINE
8
BLACK
6
CONTINUOUS
10
5.88839
20
-5.28664
11
5.88955
21
-5.28522
0
LINE
8
BLACK
6
CONTINUOUS
10
5.88955
20
-5.28522
11
5.89097
21
-5.28406
0
LINE
8
BLACK
6
CONTINUOUS
10
5.89097
20
-5.28406
11
5.89258
21
-5.28319
0
LINE
8
BLACK
6
CONTINUOUS
10
5.89258
20
-5.28319
11
5.89434
21
-5.28266
0
LINE
8
BLACK
6
CONTINUOUS
10
5.89434
20
-5.28266
11
5.89616
21
-5.28248
0
LINE
8
BLACK
6
CONTINUOUS
10
5.89616
20
-5.28248
11
5.91486
21
-5.28248
0
LINE
8
BLACK
6
CONTINUOUS
10
5.91486
20
-5.28248
11
5.91669
21
-5.28266
0
LINE
8
BLACK
6
CONTINUOUS
10
5.91669
20
-5.21376
11
5.91844
21
-5.21429
0
LINE
8
BLACK
6
CONTINUOUS
10
5.91844
20
-5.21429
11
5.92006
21
-5.21516
0
LINE
8
BLACK
6
CONTINUOUS
10
5.92006
20
-5.21516
11
5.92147
21
-5.21632
0
LINE
8
BLACK
6
CONTINUOUS
10
5.92147
20
-5.21632
11
5.92264
21
-5.21774
0
LINE
8
BLACK
6
CONTINUOUS
10
5.92264
20
-5.21774
11
5.9235
21
-5.21935
0
LINE
8
BLACK
6
CONTINUOUS
10
5.9235
20
-5.21935
11
5.92403
21
-5.22111
0
LINE
8
BLACK
6
CONTINUOUS
10
5.92403
20
-5.22111
11
5.92421
21
-5.22293
0
LINE
8
BLACK
6
CONTINUOUS
10
5.92421
20
-5.22293
11
5.92421
21
-5.24557
0
LINE
8
BLACK
6
CONTINUOUS
10
5.92421
20
-5.24557
11
5.92403
21
-5.2474
0
LINE
8
BLACK
6
CONTINUOUS
10
5.92403
20
-5.2474
11
5.9235
21
-5.24915
0
LINE
8
BLACK
6
CONTINUOUS
10
5.9235
20
-5.24915
11
5.92264
21
-5.25077
0
LINE
8
BLACK
6
CONTINUOUS
10
5.92264
20
-5.25077
11
5.92147
21
-5.25218
0
LINE
8
BLACK
6
CONTINUOUS
10
5.92147
20
-5.25218
11
5.92006
21
-5.25335
0
LINE
8
BLACK
6
CONTINUOUS
10
5.92006
20
-5.25335
11
5.91844
21
-5.25421
0
LINE
8
BLACK
6
CONTINUOUS
10
5.91844
20
-5.25421
11
5.91669
21
-5.25474
0
LINE
8
BLACK
6
CONTINUOUS
10
5.91669
20
-5.25474
11
5.91486
21
-5.25492
0
LINE
8
BLACK
6
CONTINUOUS
10
5.91486
20
-5.25492
11
5.89616
21
-5.25492
0
LINE
8
BLACK
6
CONTINUOUS
10
5.89616
20
-5.25492
11
5.89434
21
-5.25474
0
LINE
8
BLACK
6
CONTINUOUS
10
5.89434
20
-5.25474
11
5.89258
21
-5.25421
0
LINE
8
BLACK
6
CONTINUOUS
10
5.89258
20
-5.25421
11
5.89097
21
-5.25335
0
LINE
8
BLACK
6
CONTINUOUS
10
5.89097
20
-5.25335
11
5.88955
21
-5.25218
0
LINE
8
BLACK
6
CONTINUOUS
10
5.88955
20
-5.25218
11
5.88839
21
-5.25077
0
LINE
8
BLACK
6
CONTINUOUS
10
5.88839
20
-5.25077
11
5.88752
21
-5.24915
0
LINE
8
BLACK
6
CONTINUOUS
10
5.88752
20
-5.24915
11
5.88699
21
-5.2474
0
LINE
8
BLACK
6
CONTINUOUS
10
5.88699
20
-5.2474
11
5.88681
21
-5.24557
0
LINE
8
BLACK
6
CONTINUOUS
10
5.88681
20
-5.24557
11
5.88681
21
-5.22293
0
LINE
8
BLACK
6
CONTINUOUS
10
5.88681
20
-5.22293
11
5.88699
21
-5.22111
0
LINE
8
BLACK
6
CONTINUOUS
10
5.88699
20
-5.22111
11
5.88752
21
-5.21935
0
LINE
8
BLACK
6
CONTINUOUS
10
5.88752
20
-5.21935
11
5.88839
21
-5.21774
0
LINE
8
BLACK
6
CONTINUOUS
10
5.88839
20
-5.21774
11
5.88955
21
-5.21632
0
LINE
8
BLACK
6
CONTINUOUS
10
5.88955
20
-5.21632
11
5.89097
21
-5.21516
0
LINE
8
BLACK
6
CONTINUOUS
10
5.89097
20
-5.21516
11
5.89258
21
-5.21429
0
LINE
8
BLACK
6
CONTINUOUS
10
5.89258
20
-5.21429
11
5.89434
21
-5.21376
0
LINE
8
BLACK
6
CONTINUOUS
10
5.89434
20
-5.21376
11
5.89616
21
-5.21358
0
LINE
8
BLACK
6
CONTINUOUS
10
5.89616
20
-5.21358
11
5.91486
21
-5.21358
0
LINE
8
BLACK
6
CONTINUOUS
10
5.91486
20
-5.21358
11
5.91669
21
-5.21376
0
LINE
8
BLACK
6
CONTINUOUS
10
5.57475
20
-5.12322
11
5.5766
21
-5.12378
0
LINE
8
BLACK
6
CONTINUOUS
10
5.5766
20
-5.12378
11
5.5783
21
-5.12469
0
LINE
8
BLACK
6
CONTINUOUS
10
5.5783
20
-5.12469
11
5.57979
21
-5.12591
0
LINE
8
BLACK
6
CONTINUOUS
10
5.57979
20
-5.12591
11
5.58102
21
-5.12741
0
LINE
8
BLACK
6
CONTINUOUS
10
5.58102
20
-5.12741
11
5.58193
21
-5.12911
0
LINE
8
BLACK
6
CONTINUOUS
10
5.58193
20
-5.12911
11
5.58249
21
-5.13095
0
LINE
8
BLACK
6
CONTINUOUS
10
5.58249
20
-5.13095
11
5.58268
21
-5.13287
0
LINE
8
BLACK
6
CONTINUOUS
10
5.58268
20
-5.13287
11
5.58268
21
-5.15846
0
LINE
8
BLACK
6
CONTINUOUS
10
5.58268
20
-5.15846
11
5.58249
21
-5.16038
0
LINE
8
BLACK
6
CONTINUOUS
10
5.58249
20
-5.16038
11
5.58193
21
-5.16223
0
LINE
8
BLACK
6
CONTINUOUS
10
5.58193
20
-5.16223
11
5.58102
21
-5.16393
0
LINE
8
BLACK
6
CONTINUOUS
10
5.58102
20
-5.16393
11
5.57979
21
-5.16542
0
LINE
8
BLACK
6
CONTINUOUS
10
5.57979
20
-5.16542
11
5.5783
21
-5.16665
0
LINE
8
BLACK
6
CONTINUOUS
10
5.5783
20
-5.16665
11
5.5766
21
-5.16756
0
LINE
8
BLACK
6
CONTINUOUS
10
5.5766
20
-5.16756
11
5.57475
21
-5.16812
0
LINE
8
BLACK
6
CONTINUOUS
10
5.57475
20
-5.16812
11
5.57283
21
-5.16831
0
LINE
8
BLACK
6
CONTINUOUS
10
5.57283
20
-5.16831
11
5.5374
21
-5.16831
0
LINE
8
BLACK
6
CONTINUOUS
10
5.5374
20
-5.16831
11
5.53548
21
-5.16812
0
LINE
8
BLACK
6
CONTINUOUS
10
5.53548
20
-5.16812
11
5.53364
21
-5.16756
0
LINE
8
BLACK
6
CONTINUOUS
10
5.53364
20
-5.16756
11
5.53193
21
-5.16665
0
LINE
8
BLACK
6
CONTINUOUS
10
5.53193
20
-5.16665
11
5.53044
21
-5.16542
0
LINE
8
BLACK
6
CONTINUOUS
10
5.53044
20
-5.16542
11
5.52922
21
-5.16393
0
LINE
8
BLACK
6
CONTINUOUS
10
5.52922
20
-5.16393
11
5.52831
21
-5.16223
0
LINE
8
BLACK
6
CONTINUOUS
10
5.52831
20
-5.16223
11
5.52775
21
-5.16038
0
LINE
8
BLACK
6
CONTINUOUS
10
5.52775
20
-5.16038
11
5.52756
21
-5.15846
0
LINE
8
BLACK
6
CONTINUOUS
10
5.52756
20
-5.15846
11
5.52756
21
-5.13287
0
LINE
8
BLACK
6
CONTINUOUS
10
5.52756
20
-5.13287
11
5.52775
21
-5.13095
0
LINE
8
BLACK
6
CONTINUOUS
10
5.52775
20
-5.13095
11
5.52831
21
-5.12911
0
LINE
8
BLACK
6
CONTINUOUS
10
5.52831
20
-5.12911
11
5.52922
21
-5.12741
0
LINE
8
BLACK
6
CONTINUOUS
10
5.52922
20
-5.12741
11
5.53044
21
-5.12591
0
LINE
8
BLACK
6
CONTINUOUS
10
5.53044
20
-5.12591
11
5.53193
21
-5.12469
0
LINE
8
BLACK
6
CONTINUOUS
10
5.53193
20
-5.12469
11
5.53364
21
-5.12378
0
LINE
8
BLACK
6
CONTINUOUS
10
5.53364
20
-5.12378
11
5.53548
21
-5.12322
0
LINE
8
BLACK
6
CONTINUOUS
10
5.53548
20
-5.12322
11
5.5374
21
-5.12303
0
LINE
8
BLACK
6
CONTINUOUS
10
5.5374
20
-5.12303
11
5.57283
21
-5.12303
0
LINE
8
BLACK
6
CONTINUOUS
10
5.57283
20
-5.12303
11
5.57475
21
-5.12322
0
LINE
8
BLACK
6
CONTINUOUS
10
5.91669
20
-5.10353
11
5.91844
21
-5.10406
0
LINE
8
BLACK
6
CONTINUOUS
10
5.91844
20
-5.10406
11
5.92006
21
-5.10492
0
LINE
8
BLACK
6
CONTINUOUS
10
5.92006
20
-5.10492
11
5.92147
21
-5.10609
0
LINE
8
BLACK
6
CONTINUOUS
10
5.92147
20
-5.10609
11
5.92264
21
-5.1075
0
LINE
8
BLACK
6
CONTINUOUS
10
5.92264
20
-5.1075
11
5.9235
21
-5.10912
0
LINE
8
BLACK
6
CONTINUOUS
10
5.9235
20
-5.10912
11
5.92403
21
-5.11087
0
LINE
8
BLACK
6
CONTINUOUS
10
5.92403
20
-5.11087
11
5.92421
21
-5.1127
0
LINE
8
BLACK
6
CONTINUOUS
10
5.92421
20
-5.1127
11
5.92421
21
-5.13533
0
LINE
8
BLACK
6
CONTINUOUS
10
5.92421
20
-5.13533
11
5.92403
21
-5.13716
0
LINE
8
BLACK
6
CONTINUOUS
10
5.92403
20
-5.13716
11
5.9235
21
-5.13891
0
LINE
8
BLACK
6
CONTINUOUS
10
5.9235
20
-5.13891
11
5.92264
21
-5.14053
0
LINE
8
BLACK
6
CONTINUOUS
10
5.92264
20
-5.14053
11
5.92147
21
-5.14195
0
LINE
8
BLACK
6
CONTINUOUS
10
5.92147
20
-5.14195
11
5.92006
21
-5.14311
0
LINE
8
BLACK
6
CONTINUOUS
10
5.92006
20
-5.14311
11
5.91844
21
-5.14397
0
LINE
8
BLACK
6
CONTINUOUS
10
5.91844
20
-5.14397
11
5.91669
21
-5.14451
0
LINE
8
BLACK
6
CONTINUOUS
10
5.91669
20
-5.14451
11
5.91486
21
-5.14469
0
LINE
8
BLACK
6
CONTINUOUS
10
5.91486
20
-5.14469
11
5.89616
21
-5.14469
0
LINE
8
BLACK
6
CONTINUOUS
10
5.89616
20
-5.14469
11
5.89434
21
-5.14451
0
LINE
8
BLACK
6
CONTINUOUS
10
5.89434
20
-5.14451
11
5.89258
21
-5.14397
0
LINE
8
BLACK
6
CONTINUOUS
10
5.89258
20
-5.14397
11
5.89097
21
-5.14311
0
LINE
8
BLACK
6
CONTINUOUS
10
5.89097
20
-5.14311
11
5.88955
21
-5.14195
0
LINE
8
BLACK
6
CONTINUOUS
10
5.88955
20
-5.14195
11
5.88839
21
-5.14053
0
LINE
8
BLACK
6
CONTINUOUS
10
5.88839
20
-5.14053
11
5.88752
21
-5.13891
0
LINE
8
BLACK
6
CONTINUOUS
10
5.88752
20
-5.13891
11
5.88699
21
-5.13716
0
LINE
8
BLACK
6
CONTINUOUS
10
5.88699
20
-5.13716
11
5.88681
21
-5.13533
0
LINE
8
BLACK
6
CONTINUOUS
10
5.88681
20
-5.13533
11
5.88681
21
-5.1127
0
LINE
8
BLACK
6
CONTINUOUS
10
5.88681
20
-5.1127
11
5.88699
21
-5.11087
0
LINE
8
BLACK
6
CONTINUOUS
10
5.88699
20
-5.11087
11
5.88752
21
-5.10912
0
LINE
8
BLACK
6
CONTINUOUS
10
5.88752
20
-5.10912
11
5.88839
21
-5.1075
0
LINE
8
BLACK
6
CONTINUOUS
10
5.88839
20
-5.1075
11
5.88955
21
-5.10609
0
LINE
8
BLACK
6
CONTINUOUS
10
5.88955
20
-5.10609
11
5.89097
21
-5.10492
0
LINE
8
BLACK
6
CONTINUOUS
10
5.89097
20
-5.10492
11
5.89258
21
-5.10406
0
LINE
8
BLACK
6
CONTINUOUS
10
5.89258
20
-5.10406
11
5.89434
21
-5.10353
0
LINE
8
BLACK
6
CONTINUOUS
10
5.89434
20
-5.10353
11
5.89616
21
-5.10335
0
LINE
8
BLACK
6
CONTINUOUS
10
5.89616
20
-5.10335
11
5.91486
21
-5.10335
0
LINE
8
BLACK
6
CONTINUOUS
10
5.91486
20
-5.10335
11
5.91669
21
-5.10353
0
LINE
8
BLACK
6
CONTINUOUS
10
5.57475
20
-5.04251
11
5.5766
21
-5.04307
0
LINE
8
BLACK
6
CONTINUOUS
10
5.5766
20
-5.04307
11
5.5783
21
-5.04398
0
LINE
8
BLACK
6
CONTINUOUS
10
5.5783
20
-5.04398
11
5.57979
21
-5.04521
0
LINE
8
BLACK
6
CONTINUOUS
10
5.57979
20
-5.04521
11
5.58102
21
-5.0467
0
LINE
8
BLACK
6
CONTINUOUS
10
5.58102
20
-5.0467
11
5.58193
21
-5.0484
0
LINE
8
BLACK
6
CONTINUOUS
10
5.58193
20
-5.0484
11
5.58249
21
-5.05025
0
LINE
8
BLACK
6
CONTINUOUS
10
5.58249
20
-5.05025
11
5.58268
21
-5.05217
0
LINE
8
BLACK
6
CONTINUOUS
10
5.58268
20
-5.05217
11
5.58268
21
-5.07776
0
LINE
8
BLACK
6
CONTINUOUS
10
5.58268
20
-5.07776
11
5.58249
21
-5.07968
0
LINE
8
BLACK
6
CONTINUOUS
10
5.58249
20
-5.07968
11
5.58193
21
-5.08152
0
LINE
8
BLACK
6
CONTINUOUS
10
5.58193
20
-5.08152
11
5.58102
21
-5.08322
0
LINE
8
BLACK
6
CONTINUOUS
10
5.58102
20
-5.08322
11
5.57979
21
-5.08472
0
LINE
8
BLACK
6
CONTINUOUS
10
5.57979
20
-5.08472
11
5.5783
21
-5.08594
0
LINE
8
BLACK
6
CONTINUOUS
10
5.5783
20
-5.08594
11
5.5766
21
-5.08685
0
LINE
8
BLACK
6
CONTINUOUS
10
5.5766
20
-5.08685
11
5.57475
21
-5.08741
0
LINE
8
BLACK
6
CONTINUOUS
10
5.57475
20
-5.08741
11
5.57283
21
-5.0876
0
LINE
8
BLACK
6
CONTINUOUS
10
5.57283
20
-5.0876
11
5.5374
21
-5.0876
0
LINE
8
BLACK
6
CONTINUOUS
10
5.5374
20
-5.0876
11
5.53548
21
-5.08741
0
LINE
8
BLACK
6
CONTINUOUS
10
5.53548
20
-5.08741
11
5.53364
21
-5.08685
0
LINE
8
BLACK
6
CONTINUOUS
10
5.53364
20
-5.08685
11
5.53193
21
-5.08594
0
LINE
8
BLACK
6
CONTINUOUS
10
5.53193
20
-5.08594
11
5.53044
21
-5.08472
0
LINE
8
BLACK
6
CONTINUOUS
10
5.53044
20
-5.08472
11
5.52922
21
-5.08322
0
LINE
8
BLACK
6
CONTINUOUS
10
5.52922
20
-5.08322
11
5.52831
21
-5.08152
0
LINE
8
BLACK
6
CONTINUOUS
10
5.52831
20
-5.08152
11
5.52775
21
-5.07968
0
LINE
8
BLACK
6
CONTINUOUS
10
5.52775
20
-5.07968
11
5.52756
21
-5.07776
0
LINE
8
BLACK
6
CONTINUOUS
10
5.52756
20
-5.07776
11
5.52756
21
-5.05217
0
LINE
8
BLACK
6
CONTINUOUS
10
5.52756
20
-5.05217
11
5.52775
21
-5.05025
0
LINE
8
BLACK
6
CONTINUOUS
10
5.52775
20
-5.05025
11
5.52831
21
-5.0484
0
LINE
8
BLACK
6
CONTINUOUS
10
5.52831
20
-5.0484
11
5.52922
21
-5.0467
0
LINE
8
BLACK
6
CONTINUOUS
10
5.52922
20
-5.0467
11
5.53044
21
-5.04521
0
LINE
8
BLACK
6
CONTINUOUS
10
5.53044
20
-5.04521
11
5.53193
21
-5.04398
0
LINE
8
BLACK
6
CONTINUOUS
10
5.53193
20
-5.04398
11
5.53364
21
-5.04307
0
LINE
8
BLACK
6
CONTINUOUS
10
5.53364
20
-5.04307
11
5.53548
21
-5.04251
0
LINE
8
BLACK
6
CONTINUOUS
10
5.53548
20
-5.04251
11
5.5374
21
-5.04232
0
LINE
8
BLACK
6
CONTINUOUS
10
5.5374
20
-5.04232
11
5.57283
21
-5.04232
0
LINE
8
BLACK
6
CONTINUOUS
10
5.57283
20
-5.04232
11
5.57475
21
-5.04251
0
LINE
8
BLACK
6
CONTINUOUS
10
5.91669
20
-5.03463
11
5.91844
21
-5.03516
0
LINE
8
BLACK
6
CONTINUOUS
10
5.91844
20
-5.03516
11
5.92006
21
-5.03602
0
LINE
8
BLACK
6
CONTINUOUS
10
5.92006
20
-5.03602
11
5.92147
21
-5.03719
0
LINE
8
BLACK
6
CONTINUOUS
10
5.92147
20
-5.03719
11
5.92264
21
-5.0386
0
LINE
8
BLACK
6
CONTINUOUS
10
5.92264
20
-5.0386
11
5.9235
21
-5.04022
0
LINE
8
BLACK
6
CONTINUOUS
10
5.9235
20
-5.04022
11
5.92403
21
-5.04198
0
LINE
8
BLACK
6
CONTINUOUS
10
5.92403
20
-5.04198
11
5.92421
21
-5.0438
0
LINE
8
BLACK
6
CONTINUOUS
10
5.92421
20
-5.0438
11
5.92421
21
-5.06644
0
LINE
8
BLACK
6
CONTINUOUS
10
5.92421
20
-5.06644
11
5.92403
21
-5.06826
0
LINE
8
BLACK
6
CONTINUOUS
10
5.92403
20
-5.06826
11
5.9235
21
-5.07002
0
LINE
8
BLACK
6
CONTINUOUS
10
5.9235
20
-5.07002
11
5.92264
21
-5.07163
0
LINE
8
BLACK
6
CONTINUOUS
10
5.92264
20
-5.07163
11
5.92147
21
-5.07305
0
LINE
8
BLACK
6
CONTINUOUS
10
5.92147
20
-5.07305
11
5.92006
21
-5.07421
0
LINE
8
BLACK
6
CONTINUOUS
10
5.92006
20
-5.07421
11
5.91844
21
-5.07508
0
LINE
8
BLACK
6
CONTINUOUS
10
5.91844
20
-5.07508
11
5.91669
21
-5.07561
0
LINE
8
BLACK
6
CONTINUOUS
10
5.91669
20
-5.07561
11
5.91486
21
-5.07579
0
LINE
8
BLACK
6
CONTINUOUS
10
5.91486
20
-5.07579
11
5.89616
21
-5.07579
0
LINE
8
BLACK
6
CONTINUOUS
10
5.89616
20
-5.07579
11
5.89434
21
-5.07561
0
LINE
8
BLACK
6
CONTINUOUS
10
5.89434
20
-5.07561
11
5.89258
21
-5.07508
0
LINE
8
BLACK
6
CONTINUOUS
10
5.89258
20
-5.07508
11
5.89097
21
-5.07421
0
LINE
8
BLACK
6
CONTINUOUS
10
5.89097
20
-5.07421
11
5.88955
21
-5.07305
0
LINE
8
BLACK
6
CONTINUOUS
10
5.88955
20
-5.07305
11
5.88839
21
-5.07163
0
LINE
8
BLACK
6
CONTINUOUS
10
5.88839
20
-5.07163
11
5.88752
21
-5.07002
0
LINE
8
BLACK
6
CONTINUOUS
10
5.88752
20
-5.07002
11
5.88699
21
-5.06826
0
LINE
8
BLACK
6
CONTINUOUS
10
5.88699
20
-5.06826
11
5.88681
21
-5.06644
0
LINE
8
BLACK
6
CONTINUOUS
10
5.88681
20
-5.06644
11
5.88681
21
-5.0438
0
LINE
8
BLACK
6
CONTINUOUS
10
5.88681
20
-5.0438
11
5.88699
21
-5.04198
0
LINE
8
BLACK
6
CONTINUOUS
10
5.88699
20
-5.04198
11
5.88752
21
-5.04022
0
LINE
8
BLACK
6
CONTINUOUS
10
5.88752
20
-5.04022
11
5.88839
21
-5.0386
0
LINE
8
BLACK
6
CONTINUOUS
10
5.88839
20
-5.0386
11
5.88955
21
-5.03719
0
LINE
8
BLACK
6
CONTINUOUS
10
5.88955
20
-5.03719
11
5.89097
21
-5.03602
0
LINE
8
BLACK
6
CONTINUOUS
10
5.89097
20
-5.03602
11
5.89258
21
-5.03516
0
LINE
8
BLACK
6
CONTINUOUS
10
5.89258
20
-5.03516
11
5.89434
21
-5.03463
0
LINE
8
BLACK
6
CONTINUOUS
10
5.89434
20
-5.03463
11
5.89616
21
-5.03445
0
LINE
8
BLACK
6
CONTINUOUS
10
5.89616
20
-5.03445
11
5.91486
21
-5.03445
0
LINE
8
BLACK
6
CONTINUOUS
10
5.91486
20
-5.03445
11
5.91669
21
-5.03463
0
LINE
8
BLACK
6
CONTINUOUS
10
6.38519
20
-5.01691
11
6.38694
21
-5.01744
0
LINE
8
BLACK
6
CONTINUOUS
10
6.38694
20
-5.01744
11
6.38856
21
-5.01831
0
LINE
8
BLACK
6
CONTINUOUS
10
6.38856
20
-5.01831
11
6.38998
21
-5.01947
0
LINE
8
BLACK
6
CONTINUOUS
10
6.38998
20
-5.01947
11
6.39114
21
-5.02089
0
LINE
8
BLACK
6
CONTINUOUS
10
6.39114
20
-5.02089
11
6.392
21
-5.0225
0
LINE
8
BLACK
6
CONTINUOUS
10
6.392
20
-5.0225
11
6.39254
21
-5.02426
0
LINE
8
BLACK
6
CONTINUOUS
10
6.39254
20
-5.02426
11
6.39272
21
-5.02608
0
LINE
8
BLACK
6
CONTINUOUS
10
6.39272
20
-5.02608
11
6.39272
21
-5.04478
0
LINE
8
BLACK
6
CONTINUOUS
10
6.39272
20
-5.04478
11
6.39254
21
-5.04661
0
LINE
8
BLACK
6
CONTINUOUS
10
6.39254
20
-5.04661
11
6.392
21
-5.04836
0
LINE
8
BLACK
6
CONTINUOUS
10
6.392
20
-5.04836
11
6.39114
21
-5.04998
0
LINE
8
BLACK
6
CONTINUOUS
10
6.39114
20
-5.04998
11
6.38998
21
-5.0514
0
LINE
8
BLACK
6
CONTINUOUS
10
6.38998
20
-5.0514
11
6.38856
21
-5.05256
0
LINE
8
BLACK
6
CONTINUOUS
10
6.38856
20
-5.05256
11
6.38694
21
-5.05342
0
LINE
8
BLACK
6
CONTINUOUS
10
6.38694
20
-5.05342
11
6.38519
21
-5.05395
0
LINE
8
BLACK
6
CONTINUOUS
10
6.38519
20
-5.05395
11
6.38337
21
-5.05413
0
LINE
8
BLACK
6
CONTINUOUS
10
6.38337
20
-5.05413
11
6.36073
21
-5.05413
0
LINE
8
BLACK
6
CONTINUOUS
10
6.36073
20
-5.05413
11
6.3589
21
-5.05395
0
LINE
8
BLACK
6
CONTINUOUS
10
6.3589
20
-5.05395
11
6.35715
21
-5.05342
0
LINE
8
BLACK
6
CONTINUOUS
10
6.35715
20
-5.05342
11
6.35553
21
-5.05256
0
LINE
8
BLACK
6
CONTINUOUS
10
6.35553
20
-5.05256
11
6.35412
21
-5.0514
0
LINE
8
BLACK
6
CONTINUOUS
10
6.35412
20
-5.0514
11
6.35295
21
-5.04998
0
LINE
8
BLACK
6
CONTINUOUS
10
6.35295
20
-5.04998
11
6.35209
21
-5.04836
0
LINE
8
BLACK
6
CONTINUOUS
10
6.35209
20
-5.04836
11
6.35156
21
-5.04661
0
LINE
8
BLACK
6
CONTINUOUS
10
6.35156
20
-5.04661
11
6.35138
21
-5.04478
0
LINE
8
BLACK
6
CONTINUOUS
10
6.35138
20
-5.04478
11
6.35138
21
-5.02608
0
LINE
8
BLACK
6
CONTINUOUS
10
6.35138
20
-5.02608
11
6.35156
21
-5.02426
0
LINE
8
BLACK
6
CONTINUOUS
10
6.35156
20
-5.02426
11
6.35209
21
-5.0225
0
LINE
8
BLACK
6
CONTINUOUS
10
6.35209
20
-5.0225
11
6.35295
21
-5.02089
0
LINE
8
BLACK
6
CONTINUOUS
10
6.35295
20
-5.02089
11
6.35412
21
-5.01947
0
LINE
8
BLACK
6
CONTINUOUS
10
6.35412
20
-5.01947
11
6.35553
21
-5.01831
0
LINE
8
BLACK
6
CONTINUOUS
10
6.35553
20
-5.01831
11
6.35715
21
-5.01744
0
LINE
8
BLACK
6
CONTINUOUS
10
6.35715
20
-5.01744
11
6.3589
21
-5.01691
0
LINE
8
BLACK
6
CONTINUOUS
10
6.3589
20
-5.01691
11
6.36073
21
-5.01673
0
LINE
8
BLACK
6
CONTINUOUS
10
6.36073
20
-5.01673
11
6.38337
21
-5.01673
0
LINE
8
BLACK
6
CONTINUOUS
10
6.38337
20
-5.01673
11
6.38519
21
-5.01691
0
LINE
8
BLACK
6
CONTINUOUS
10
6.31629
20
-5.01691
11
6.31805
21
-5.01744
0
LINE
8
BLACK
6
CONTINUOUS
10
6.31805
20
-5.01744
11
6.31966
21
-5.01831
0
LINE
8
BLACK
6
CONTINUOUS
10
6.31966
20
-5.01831
11
6.32108
21
-5.01947
0
LINE
8
BLACK
6
CONTINUOUS
10
6.32108
20
-5.01947
11
6.32224
21
-5.02089
0
LINE
8
BLACK
6
CONTINUOUS
10
6.32224
20
-5.02089
11
6.32311
21
-5.0225
0
LINE
8
BLACK
6
CONTINUOUS
10
6.32311
20
-5.0225
11
6.32364
21
-5.02426
0
LINE
8
BLACK
6
CONTINUOUS
10
6.32364
20
-5.02426
11
6.32382
21
-5.02608
0
LINE
8
BLACK
6
CONTINUOUS
10
6.32382
20
-5.02608
11
6.32382
21
-5.04478
0
LINE
8
BLACK
6
CONTINUOUS
10
6.32382
20
-5.04478
11
6.32364
21
-5.04661
0
LINE
8
BLACK
6
CONTINUOUS
10
6.32364
20
-5.04661
11
6.32311
21
-5.04836
0
LINE
8
BLACK
6
CONTINUOUS
10
6.32311
20
-5.04836
11
6.32224
21
-5.04998
0
LINE
8
BLACK
6
CONTINUOUS
10
6.32224
20
-5.04998
11
6.32108
21
-5.0514
0
LINE
8
BLACK
6
CONTINUOUS
10
6.32108
20
-5.0514
11
6.31966
21
-5.05256
0
LINE
8
BLACK
6
CONTINUOUS
10
6.31966
20
-5.05256
11
6.31805
21
-5.05342
0
LINE
8
BLACK
6
CONTINUOUS
10
6.31805
20
-5.05342
11
6.31629
21
-5.05395
0
LINE
8
BLACK
6
CONTINUOUS
10
6.31629
20
-5.05395
11
6.31447
21
-5.05413
0
LINE
8
BLACK
6
CONTINUOUS
10
6.31447
20
-5.05413
11
6.29183
21
-5.05413
0
LINE
8
BLACK
6
CONTINUOUS
10
6.29183
20
-5.05413
11
6.29001
21
-5.05395
0
LINE
8
BLACK
6
CONTINUOUS
10
6.29001
20
-5.05395
11
6.28825
21
-5.05342
0
LINE
8
BLACK
6
CONTINUOUS
10
6.28825
20
-5.05342
11
6.28664
21
-5.05256
0
LINE
8
BLACK
6
CONTINUOUS
10
6.28664
20
-5.05256
11
6.28522
21
-5.0514
0
LINE
8
BLACK
6
CONTINUOUS
10
6.28522
20
-5.0514
11
6.28406
21
-5.04998
0
LINE
8
BLACK
6
CONTINUOUS
10
6.28406
20
-5.04998
11
6.28319
21
-5.04836
0
LINE
8
BLACK
6
CONTINUOUS
10
6.28319
20
-5.04836
11
6.28266
21
-5.04661
0
LINE
8
BLACK
6
CONTINUOUS
10
6.28266
20
-5.04661
11
6.28248
21
-5.04478
0
LINE
8
BLACK
6
CONTINUOUS
10
6.28248
20
-5.04478
11
6.28248
21
-5.02608
0
LINE
8
BLACK
6
CONTINUOUS
10
6.28248
20
-5.02608
11
6.28266
21
-5.02426
0
LINE
8
BLACK
6
CONTINUOUS
10
6.28266
20
-5.02426
11
6.28319
21
-5.0225
0
LINE
8
BLACK
6
CONTINUOUS
10
6.28319
20
-5.0225
11
6.28406
21
-5.02089
0
LINE
8
BLACK
6
CONTINUOUS
10
6.28406
20
-5.02089
11
6.28522
21
-5.01947
0
LINE
8
BLACK
6
CONTINUOUS
10
6.28522
20
-5.01947
11
6.28664
21
-5.01831
0
LINE
8
BLACK
6
CONTINUOUS
10
6.28664
20
-5.01831
11
6.28825
21
-5.01744
0
LINE
8
BLACK
6
CONTINUOUS
10
6.28825
20
-5.01744
11
6.29001
21
-5.01691
0
LINE
8
BLACK
6
CONTINUOUS
10
6.29001
20
-5.01691
11
6.29183
21
-5.01673
0
LINE
8
BLACK
6
CONTINUOUS
10
6.29183
20
-5.01673
11
6.31447
21
-5.01673
0
LINE
8
BLACK
6
CONTINUOUS
10
6.31447
20
-5.01673
11
6.31629
21
-5.01691
0
LINE
8
BLACK
6
CONTINUOUS
10
6.68836
20
-4.95681
11
6.68946
21
-4.95714
0
LINE
8
BLACK
6
CONTINUOUS
10
6.68946
20
-4.95714
11
6.69049
21
-4.95769
0
LINE
8
BLACK
6
CONTINUOUS
10
6.69049
20
-4.95769
11
6.69138
21
-4.95842
0
LINE
8
BLACK
6
CONTINUOUS
10
6.69138
20
-4.95842
11
6.69211
21
-4.95932
0
LINE
8
BLACK
6
CONTINUOUS
10
6.69211
20
-4.95932
11
6.69266
21
-4.96034
0
LINE
8
BLACK
6
CONTINUOUS
10
6.69266
20
-4.96034
11
6.693
21
-4.96145
0
LINE
8
BLACK
6
CONTINUOUS
10
6.693
20
-4.96145
11
6.69311
21
-4.9626
0
LINE
8
BLACK
6
CONTINUOUS
10
6.69311
20
-4.9626
11
6.69311
21
-5.02756
0
LINE
8
BLACK
6
CONTINUOUS
10
6.69311
20
-5.02756
11
6.693
21
-5.02871
0
LINE
8
BLACK
6
CONTINUOUS
10
6.693
20
-5.02871
11
6.69266
21
-5.02982
0
LINE
8
BLACK
6
CONTINUOUS
10
6.69266
20
-5.02982
11
6.69211
21
-5.03084
0
LINE
8
BLACK
6
CONTINUOUS
10
6.69211
20
-5.03084
11
6.69138
21
-5.03173
0
LINE
8
BLACK
6
CONTINUOUS
10
6.69138
20
-5.03173
11
6.69049
21
-5.03247
0
LINE
8
BLACK
6
CONTINUOUS
10
6.69049
20
-5.03247
11
6.68946
21
-5.03302
0
LINE
8
BLACK
6
CONTINUOUS
10
6.68946
20
-5.03302
11
6.68836
21
-5.03335
0
LINE
8
BLACK
6
CONTINUOUS
10
6.68836
20
-5.03335
11
6.6872
21
-5.03346
0
LINE
8
BLACK
6
CONTINUOUS
10
6.6872
20
-5.03346
11
6.67539
21
-5.03346
0
LINE
8
BLACK
6
CONTINUOUS
10
6.67539
20
-5.03346
11
6.67424
21
-5.03335
0
LINE
8
BLACK
6
CONTINUOUS
10
6.67424
20
-5.03335
11
6.67313
21
-5.03302
0
LINE
8
BLACK
6
CONTINUOUS
10
6.67313
20
-5.03302
11
6.67211
21
-5.03247
0
LINE
8
BLACK
6
CONTINUOUS
10
6.67211
20
-5.03247
11
6.67122
21
-5.03173
0
LINE
8
BLACK
6
CONTINUOUS
10
6.67122
20
-5.03173
11
6.67048
21
-5.03084
0
LINE
8
BLACK
6
CONTINUOUS
10
6.67048
20
-5.03084
11
6.66994
21
-5.02982
0
LINE
8
BLACK
6
CONTINUOUS
10
6.66994
20
-5.02982
11
6.6696
21
-5.02871
0
LINE
8
BLACK
6
CONTINUOUS
10
6.6696
20
-5.02871
11
6.66949
21
-5.02756
0
LINE
8
BLACK
6
CONTINUOUS
10
6.66949
20
-5.02756
11
6.66949
21
-4.9626
0
LINE
8
BLACK
6
CONTINUOUS
10
6.66949
20
-4.9626
11
6.6696
21
-4.96145
0
LINE
8
BLACK
6
CONTINUOUS
10
6.6696
20
-4.96145
11
6.66994
21
-4.96034
0
LINE
8
BLACK
6
CONTINUOUS
10
6.66994
20
-4.96034
11
6.67048
21
-4.95932
0
LINE
8
BLACK
6
CONTINUOUS
10
6.67048
20
-4.95932
11
6.67122
21
-4.95842
0
LINE
8
BLACK
6
CONTINUOUS
10
6.67122
20
-4.95842
11
6.67211
21
-4.95769
0
LINE
8
BLACK
6
CONTINUOUS
10
6.67211
20
-4.95769
11
6.67313
21
-4.95714
0
LINE
8
BLACK
6
CONTINUOUS
10
6.67313
20
-4.95714
11
6.67424
21
-4.95681
0
LINE
8
BLACK
6
CONTINUOUS
10
6.67424
20
-4.95681
11
6.67539
21
-4.95669
0
LINE
8
BLACK
6
CONTINUOUS
10
6.67539
20
-4.95669
11
6.6872
21
-4.95669
0
LINE
8
BLACK
6
CONTINUOUS
10
6.6872
20
-4.95669
11
6.68836
21
-4.95681
0
LINE
8
BLACK
6
CONTINUOUS
10
6.63836
20
-4.95681
11
6.63946
21
-4.95714
0
LINE
8
BLACK
6
CONTINUOUS
10
6.63946
20
-4.95714
11
6.64049
21
-4.95769
0
LINE
8
BLACK
6
CONTINUOUS
10
6.64049
20
-4.95769
11
6.64138
21
-4.95842
0
LINE
8
BLACK
6
CONTINUOUS
10
6.64138
20
-4.95842
11
6.64211
21
-4.95932
0
LINE
8
BLACK
6
CONTINUOUS
10
6.64211
20
-4.95932
11
6.64266
21
-4.96034
0
LINE
8
BLACK
6
CONTINUOUS
10
6.64266
20
-4.96034
11
6.643
21
-4.96145
0
LINE
8
BLACK
6
CONTINUOUS
10
6.643
20
-4.96145
11
6.64311
21
-4.9626
0
LINE
8
BLACK
6
CONTINUOUS
10
6.64311
20
-4.9626
11
6.64311
21
-5.02756
0
LINE
8
BLACK
6
CONTINUOUS
10
6.64311
20
-5.02756
11
6.643
21
-5.02871
0
LINE
8
BLACK
6
CONTINUOUS
10
6.643
20
-5.02871
11
6.64266
21
-5.02982
0
LINE
8
BLACK
6
CONTINUOUS
10
6.64266
20
-5.02982
11
6.64211
21
-5.03084
0
LINE
8
BLACK
6
CONTINUOUS
10
6.64211
20
-5.03084
11
6.64138
21
-5.03173
0
LINE
8
BLACK
6
CONTINUOUS
10
6.64138
20
-5.03173
11
6.64049
21
-5.03247
0
LINE
8
BLACK
6
CONTINUOUS
10
6.64049
20
-5.03247
11
6.63946
21
-5.03302
0
LINE
8
BLACK
6
CONTINUOUS
10
6.63946
20
-5.03302
11
6.63836
21
-5.03335
0
LINE
8
BLACK
6
CONTINUOUS
10
6.63836
20
-5.03335
11
6.6372
21
-5.03346
0
LINE
8
BLACK
6
CONTINUOUS
10
6.6372
20
-5.03346
11
6.62539
21
-5.03346
0
LINE
8
BLACK
6
CONTINUOUS
10
6.62539
20
-5.03346
11
6.62424
21
-5.03335
0
LINE
8
BLACK
6
CONTINUOUS
10
6.62424
20
-5.03335
11
6.62313
21
-5.03302
0
LINE
8
BLACK
6
CONTINUOUS
10
6.62313
20
-5.03302
11
6.62211
21
-5.03247
0
LINE
8
BLACK
6
CONTINUOUS
10
6.62211
20
-5.03247
11
6.62122
21
-5.03173
0
LINE
8
BLACK
6
CONTINUOUS
10
6.62122
20
-5.03173
11
6.62048
21
-5.03084
0
LINE
8
BLACK
6
CONTINUOUS
10
6.62048
20
-5.03084
11
6.61994
21
-5.02982
0
LINE
8
BLACK
6
CONTINUOUS
10
6.61994
20
-5.02982
11
6.6196
21
-5.02871
0
LINE
8
BLACK
6
CONTINUOUS
10
6.6196
20
-5.02871
11
6.61949
21
-5.02756
0
LINE
8
BLACK
6
CONTINUOUS
10
6.61949
20
-5.02756
11
6.61949
21
-4.9626
0
LINE
8
BLACK
6
CONTINUOUS
10
6.61949
20
-4.9626
11
6.6196
21
-4.96145
0
LINE
8
BLACK
6
CONTINUOUS
10
6.6196
20
-4.96145
11
6.61994
21
-4.96034
0
LINE
8
BLACK
6
CONTINUOUS
10
6.61994
20
-4.96034
11
6.62048
21
-4.95932
0
LINE
8
BLACK
6
CONTINUOUS
10
6.62048
20
-4.95932
11
6.62122
21
-4.95842
0
LINE
8
BLACK
6
CONTINUOUS
10
6.62122
20
-4.95842
11
6.62211
21
-4.95769
0
LINE
8
BLACK
6
CONTINUOUS
10
6.62211
20
-4.95769
11
6.62313
21
-4.95714
0
LINE
8
BLACK
6
CONTINUOUS
10
6.62313
20
-4.95714
11
6.62424
21
-4.95681
0
LINE
8
BLACK
6
CONTINUOUS
10
6.62424
20
-4.95681
11
6.62539
21
-4.95669
0
LINE
8
BLACK
6
CONTINUOUS
10
6.62539
20
-4.95669
11
6.6372
21
-4.95669
0
LINE
8
BLACK
6
CONTINUOUS
10
6.6372
20
-4.95669
11
6.63836
21
-4.95681
0
LINE
8
BLACK
6
CONTINUOUS
10
6.58836
20
-4.95681
11
6.58946
21
-4.95714
0
LINE
8
BLACK
6
CONTINUOUS
10
6.58946
20
-4.95714
11
6.59049
21
-4.95769
0
LINE
8
BLACK
6
CONTINUOUS
10
6.59049
20
-4.95769
11
6.59138
21
-4.95842
0
LINE
8
BLACK
6
CONTINUOUS
10
6.59138
20
-4.95842
11
6.59211
21
-4.95932
0
LINE
8
BLACK
6
CONTINUOUS
10
6.59211
20
-4.95932
11
6.59266
21
-4.96034
0
LINE
8
BLACK
6
CONTINUOUS
10
6.59266
20
-4.96034
11
6.593
21
-4.96145
0
LINE
8
BLACK
6
CONTINUOUS
10
6.593
20
-4.96145
11
6.59311
21
-4.9626
0
LINE
8
BLACK
6
CONTINUOUS
10
6.59311
20
-4.9626
11
6.59311
21
-5.02756
0
LINE
8
BLACK
6
CONTINUOUS
10
6.59311
20
-5.02756
11
6.593
21
-5.02871
0
LINE
8
BLACK
6
CONTINUOUS
10
6.593
20
-5.02871
11
6.59266
21
-5.02982
0
LINE
8
BLACK
6
CONTINUOUS
10
6.59266
20
-5.02982
11
6.59211
21
-5.03084
0
LINE
8
BLACK
6
CONTINUOUS
10
6.59211
20
-5.03084
11
6.59138
21
-5.03173
0
LINE
8
BLACK
6
CONTINUOUS
10
6.59138
20
-5.03173
11
6.59049
21
-5.03247
0
LINE
8
BLACK
6
CONTINUOUS
10
6.59049
20
-5.03247
11
6.58946
21
-5.03302
0
LINE
8
BLACK
6
CONTINUOUS
10
6.58946
20
-5.03302
11
6.58836
21
-5.03335
0
LINE
8
BLACK
6
CONTINUOUS
10
6.58836
20
-5.03335
11
6.5872
21
-5.03346
0
LINE
8
BLACK
6
CONTINUOUS
10
6.5872
20
-5.03346
11
6.57539
21
-5.03346
0
LINE
8
BLACK
6
CONTINUOUS
10
6.57539
20
-5.03346
11
6.57424
21
-5.03335
0
LINE
8
BLACK
6
CONTINUOUS
10
6.57424
20
-5.03335
11
6.57313
21
-5.03302
0
LINE
8
BLACK
6
CONTINUOUS
10
6.57313
20
-5.03302
11
6.57211
21
-5.03247
0
LINE
8
BLACK
6
CONTINUOUS
10
6.57211
20
-5.03247
11
6.57122
21
-5.03173
0
LINE
8
BLACK
6
CONTINUOUS
10
6.57122
20
-5.03173
11
6.57048
21
-5.03084
0
LINE
8
BLACK
6
CONTINUOUS
10
6.57048
20
-5.03084
11
6.56994
21
-5.02982
0
LINE
8
BLACK
6
CONTINUOUS
10
6.56994
20
-5.02982
11
6.5696
21
-5.02871
0
LINE
8
BLACK
6
CONTINUOUS
10
6.5696
20
-5.02871
11
6.56949
21
-5.02756
0
LINE
8
BLACK
6
CONTINUOUS
10
6.56949
20
-5.02756
11
6.56949
21
-4.9626
0
LINE
8
BLACK
6
CONTINUOUS
10
6.56949
20
-4.9626
11
6.5696
21
-4.96145
0
LINE
8
BLACK
6
CONTINUOUS
10
6.5696
20
-4.96145
11
6.56994
21
-4.96034
0
LINE
8
BLACK
6
CONTINUOUS
10
6.56994
20
-4.96034
11
6.57048
21
-4.95932
0
LINE
8
BLACK
6
CONTINUOUS
10
6.57048
20
-4.95932
11
6.57122
21
-4.95842
0
LINE
8
BLACK
6
CONTINUOUS
10
6.57122
20
-4.95842
11
6.57211
21
-4.95769
0
LINE
8
BLACK
6
CONTINUOUS
10
6.57211
20
-4.95769
11
6.57313
21
-4.95714
0
LINE
8
BLACK
6
CONTINUOUS
10
6.57313
20
-4.95714
11
6.57424
21
-4.95681
0
LINE
8
BLACK
6
CONTINUOUS
10
6.57424
20
-4.95681
11
6.57539
21
-4.95669
0
LINE
8
BLACK
6
CONTINUOUS
10
6.57539
20
-4.95669
11
6.5872
21
-4.95669
0
LINE
8
BLACK
6
CONTINUOUS
10
6.5872
20
-4.95669
11
6.58836
21
-4.95681
0
LINE
8
BLACK
6
CONTINUOUS
10
6.53836
20
-4.95681
11
6.53946
21
-4.95714
0
LINE
8
BLACK
6
CONTINUOUS
10
6.53946
20
-4.95714
11
6.54049
21
-4.95769
0
LINE
8
BLACK
6
CONTINUOUS
10
6.54049
20
-4.95769
11
6.54138
21
-4.95842
0
LINE
8
BLACK
6
CONTINUOUS
10
6.54138
20
-4.95842
11
6.54211
21
-4.95932
0
LINE
8
BLACK
6
CONTINUOUS
10
6.54211
20
-4.95932
11
6.54266
21
-4.96034
0
LINE
8
BLACK
6
CONTINUOUS
10
6.54266
20
-4.96034
11
6.543
21
-4.96145
0
LINE
8
BLACK
6
CONTINUOUS
10
6.543
20
-4.96145
11
6.54311
21
-4.9626
0
LINE
8
BLACK
6
CONTINUOUS
10
6.54311
20
-4.9626
11
6.54311
21
-5.02756
0
LINE
8
BLACK
6
CONTINUOUS
10
6.54311
20
-5.02756
11
6.543
21
-5.02871
0
LINE
8
BLACK
6
CONTINUOUS
10
6.543
20
-5.02871
11
6.54266
21
-5.02982
0
LINE
8
BLACK
6
CONTINUOUS
10
6.54266
20
-5.02982
11
6.54211
21
-5.03084
0
LINE
8
BLACK
6
CONTINUOUS
10
6.54211
20
-5.03084
11
6.54138
21
-5.03173
0
LINE
8
BLACK
6
CONTINUOUS
10
6.54138
20
-5.03173
11
6.54049
21
-5.03247
0
LINE
8
BLACK
6
CONTINUOUS
10
6.54049
20
-5.03247
11
6.53946
21
-5.03302
0
LINE
8
BLACK
6
CONTINUOUS
10
6.53946
20
-5.03302
11
6.53836
21
-5.03335
0
LINE
8
BLACK
6
CONTINUOUS
10
6.53836
20
-5.03335
11
6.5372
21
-5.03346
0
LINE
8
BLACK
6
CONTINUOUS
10
6.5372
20
-5.03346
11
6.52539
21
-5.03346
0
LINE
8
BLACK
6
CONTINUOUS
10
6.52539
20
-5.03346
11
6.52424
21
-5.03335
0
LINE
8
BLACK
6
CONTINUOUS
10
6.52424
20
-5.03335
11
6.52313
21
-5.03302
0
LINE
8
BLACK
6
CONTINUOUS
10
6.52313
20
-5.03302
11
6.52211
21
-5.03247
0
LINE
8
BLACK
6
CONTINUOUS
10
6.52211
20
-5.03247
11
6.52122
21
-5.03173
0
LINE
8
BLACK
6
CONTINUOUS
10
6.52122
20
-5.03173
11
6.52048
21
-5.03084
0
LINE
8
BLACK
6
CONTINUOUS
10
6.52048
20
-5.03084
11
6.51994
21
-5.02982
0
LINE
8
BLACK
6
CONTINUOUS
10
6.51994
20
-5.02982
11
6.5196
21
-5.02871
0
LINE
8
BLACK
6
CONTINUOUS
10
6.5196
20
-5.02871
11
6.51949
21
-5.02756
0
LINE
8
BLACK
6
CONTINUOUS
10
6.51949
20
-5.02756
11
6.51949
21
-4.9626
0
LINE
8
BLACK
6
CONTINUOUS
10
6.51949
20
-4.9626
11
6.5196
21
-4.96145
0
LINE
8
BLACK
6
CONTINUOUS
10
6.5196
20
-4.96145
11
6.51994
21
-4.96034
0
LINE
8
BLACK
6
CONTINUOUS
10
6.51994
20
-4.96034
11
6.52048
21
-4.95932
0
LINE
8
BLACK
6
CONTINUOUS
10
6.52048
20
-4.95932
11
6.52122
21
-4.95842
0
LINE
8
BLACK
6
CONTINUOUS
10
6.52122
20
-4.95842
11
6.52211
21
-4.95769
0
LINE
8
BLACK
6
CONTINUOUS
10
6.52211
20
-4.95769
11
6.52313
21
-4.95714
0
LINE
8
BLACK
6
CONTINUOUS
10
6.52313
20
-4.95714
11
6.52424
21
-4.95681
0
LINE
8
BLACK
6
CONTINUOUS
10
6.52424
20
-4.95681
11
6.52539
21
-4.95669
0
LINE
8
BLACK
6
CONTINUOUS
10
6.52539
20
-4.95669
11
6.5372
21
-4.95669
0
LINE
8
BLACK
6
CONTINUOUS
10
6.5372
20
-4.95669
11
6.53836
21
-4.95681
0
LINE
8
BLACK
6
CONTINUOUS
10
6.02224
20
-4.99213
11
5.98681
21
-4.99213
0
LINE
8
BLACK
6
CONTINUOUS
10
5.98681
20
-4.99213
11
5.98681
21
-4.91339
0
LINE
8
BLACK
6
CONTINUOUS
10
5.98681
20
-4.91339
11
6.02224
21
-4.91339
0
LINE
8
BLACK
6
CONTINUOUS
10
6.02224
20
-4.91339
11
6.02224
21
-4.99213
0
LINE
8
BLACK
6
CONTINUOUS
10
5.57224
20
-4.99213
11
5.53681
21
-4.99213
0
LINE
8
BLACK
6
CONTINUOUS
10
5.53681
20
-4.99213
11
5.53681
21
-4.91339
0
LINE
8
BLACK
6
CONTINUOUS
10
5.53681
20
-4.91339
11
5.57224
21
-4.91339
0
LINE
8
BLACK
6
CONTINUOUS
10
5.57224
20
-4.91339
11
5.57224
21
-4.99213
0
LINE
8
BLACK
6
CONTINUOUS
10
5.47224
20
-4.99213
11
5.43681
21
-4.99213
0
LINE
8
BLACK
6
CONTINUOUS
10
5.43681
20
-4.99213
11
5.43681
21
-4.91339
0
LINE
8
BLACK
6
CONTINUOUS
10
5.43681
20
-4.91339
11
5.47224
21
-4.91339
0
LINE
8
BLACK
6
CONTINUOUS
10
5.47224
20
-4.91339
11
5.47224
21
-4.99213
0
LINE
8
BLACK
6
CONTINUOUS
10
5.52224
20
-4.99213
11
5.48681
21
-4.99213
0
LINE
8
BLACK
6
CONTINUOUS
10
5.48681
20
-4.99213
11
5.48681
21
-4.91339
0
LINE
8
BLACK
6
CONTINUOUS
10
5.48681
20
-4.91339
11
5.52224
21
-4.91339
0
LINE
8
BLACK
6
CONTINUOUS
10
5.52224
20
-4.91339
11
5.52224
21
-4.99213
0
LINE
8
BLACK
6
CONTINUOUS
10
5.62224
20
-4.99213
11
5.58681
21
-4.99213
0
LINE
8
BLACK
6
CONTINUOUS
10
5.58681
20
-4.99213
11
5.58681
21
-4.91339
0
LINE
8
BLACK
6
CONTINUOUS
10
5.58681
20
-4.91339
11
5.62224
21
-4.91339
0
LINE
8
BLACK
6
CONTINUOUS
10
5.62224
20
-4.91339
11
5.62224
21
-4.99213
0
LINE
8
BLACK
6
CONTINUOUS
10
5.67224
20
-4.99213
11
5.63681
21
-4.99213
0
LINE
8
BLACK
6
CONTINUOUS
10
5.63681
20
-4.99213
11
5.63681
21
-4.91339
0
LINE
8
BLACK
6
CONTINUOUS
10
5.63681
20
-4.91339
11
5.67224
21
-4.91339
0
LINE
8
BLACK
6
CONTINUOUS
10
5.67224
20
-4.91339
11
5.67224
21
-4.99213
0
LINE
8
BLACK
6
CONTINUOUS
10
5.72224
20
-4.99213
11
5.68681
21
-4.99213
0
LINE
8
BLACK
6
CONTINUOUS
10
5.68681
20
-4.99213
11
5.68681
21
-4.91339
0
LINE
8
BLACK
6
CONTINUOUS
10
5.68681
20
-4.91339
11
5.72224
21
-4.91339
0
LINE
8
BLACK
6
CONTINUOUS
10
5.72224
20
-4.91339
11
5.72224
21
-4.99213
0
LINE
8
BLACK
6
CONTINUOUS
10
5.77224
20
-4.99213
11
5.73681
21
-4.99213
0
LINE
8
BLACK
6
CONTINUOUS
10
5.73681
20
-4.99213
11
5.73681
21
-4.91339
0
LINE
8
BLACK
6
CONTINUOUS
10
5.73681
20
-4.91339
11
5.77224
21
-4.91339
0
LINE
8
BLACK
6
CONTINUOUS
10
5.77224
20
-4.91339
11
5.77224
21
-4.99213
0
LINE
8
BLACK
6
CONTINUOUS
10
5.82224
20
-4.99213
11
5.78681
21
-4.99213
0
LINE
8
BLACK
6
CONTINUOUS
10
5.78681
20
-4.99213
11
5.78681
21
-4.91339
0
LINE
8
BLACK
6
CONTINUOUS
10
5.78681
20
-4.91339
11
5.82224
21
-4.91339
0
LINE
8
BLACK
6
CONTINUOUS
10
5.82224
20
-4.91339
11
5.82224
21
-4.99213
0
LINE
8
BLACK
6
CONTINUOUS
10
5.87224
20
-4.99213
11
5.83681
21
-4.99213
0
LINE
8
BLACK
6
CONTINUOUS
10
5.83681
20
-4.99213
11
5.83681
21
-4.91339
0
LINE
8
BLACK
6
CONTINUOUS
10
5.83681
20
-4.91339
11
5.87224
21
-4.91339
0
LINE
8
BLACK
6
CONTINUOUS
10
5.87224
20
-4.91339
11
5.87224
21
-4.99213
0
LINE
8
BLACK
6
CONTINUOUS
10
5.92224
20
-4.99213
11
5.88681
21
-4.99213
0
LINE
8
BLACK
6
CONTINUOUS
10
5.88681
20
-4.99213
11
5.88681
21
-4.91339
0
LINE
8
BLACK
6
CONTINUOUS
10
5.88681
20
-4.91339
11
5.92224
21
-4.91339
0
LINE
8
BLACK
6
CONTINUOUS
10
5.92224
20
-4.91339
11
5.92224
21
-4.99213
0
LINE
8
BLACK
6
CONTINUOUS
10
5.97224
20
-4.99213
11
5.93681
21
-4.99213
0
LINE
8
BLACK
6
CONTINUOUS
10
5.93681
20
-4.99213
11
5.93681
21
-4.91339
0
LINE
8
BLACK
6
CONTINUOUS
10
5.93681
20
-4.91339
11
5.97224
21
-4.91339
0
LINE
8
BLACK
6
CONTINUOUS
10
5.97224
20
-4.91339
11
5.97224
21
-4.99213
0
LINE
8
BLACK
6
CONTINUOUS
10
6.07224
20
-4.99213
11
6.03681
21
-4.99213
0
LINE
8
BLACK
6
CONTINUOUS
10
6.03681
20
-4.99213
11
6.03681
21
-4.91339
0
LINE
8
BLACK
6
CONTINUOUS
10
6.03681
20
-4.91339
11
6.07224
21
-4.91339
0
LINE
8
BLACK
6
CONTINUOUS
10
6.07224
20
-4.91339
11
6.07224
21
-4.99213
0
LINE
8
BLACK
6
CONTINUOUS
10
6.12224
20
-4.99213
11
6.08681
21
-4.99213
0
LINE
8
BLACK
6
CONTINUOUS
10
6.08681
20
-4.99213
11
6.08681
21
-4.91339
0
LINE
8
BLACK
6
CONTINUOUS
10
6.08681
20
-4.91339
11
6.12224
21
-4.91339
0
LINE
8
BLACK
6
CONTINUOUS
10
6.12224
20
-4.91339
11
6.12224
21
-4.99213
0
LINE
8
BLACK
6
CONTINUOUS
10
6.38617
20
-4.95392
11
6.38793
21
-4.95445
0
LINE
8
BLACK
6
CONTINUOUS
10
6.38793
20
-4.95445
11
6.38955
21
-4.95532
0
LINE
8
BLACK
6
CONTINUOUS
10
6.38955
20
-4.95532
11
6.39096
21
-4.95648
0
LINE
8
BLACK
6
CONTINUOUS
10
6.39096
20
-4.95648
11
6.39212
21
-4.9579
0
LINE
8
BLACK
6
CONTINUOUS
10
6.39212
20
-4.9579
11
6.39299
21
-4.95951
0
LINE
8
BLACK
6
CONTINUOUS
10
6.39299
20
-4.95951
11
6.39352
21
-4.96127
0
LINE
8
BLACK
6
CONTINUOUS
10
6.39352
20
-4.96127
11
6.3937
21
-4.96309
0
LINE
8
BLACK
6
CONTINUOUS
10
6.3937
20
-4.96309
11
6.3937
21
-4.98179
0
LINE
8
BLACK
6
CONTINUOUS
10
6.3937
20
-4.98179
11
6.39352
21
-4.98362
0
LINE
8
BLACK
6
CONTINUOUS
10
6.39352
20
-4.98362
11
6.39299
21
-4.98537
0
LINE
8
BLACK
6
CONTINUOUS
10
6.39299
20
-4.98537
11
6.39212
21
-4.98699
0
LINE
8
BLACK
6
CONTINUOUS
10
6.39212
20
-4.98699
11
6.39096
21
-4.9884
0
LINE
8
BLACK
6
CONTINUOUS
10
6.39096
20
-4.9884
11
6.38955
21
-4.98957
0
LINE
8
BLACK
6
CONTINUOUS
10
6.38955
20
-4.98957
11
6.38793
21
-4.99043
0
LINE
8
BLACK
6
CONTINUOUS
10
6.38793
20
-4.99043
11
6.38617
21
-4.99096
0
LINE
8
BLACK
6
CONTINUOUS
10
6.38617
20
-4.99096
11
6.38435
21
-4.99114
0
LINE
8
BLACK
6
CONTINUOUS
10
6.38435
20
-4.99114
11
6.36171
21
-4.99114
0
LINE
8
BLACK
6
CONTINUOUS
10
6.36171
20
-4.99114
11
6.35989
21
-4.99096
0
LINE
8
BLACK
6
CONTINUOUS
10
6.35989
20
-4.99096
11
6.35813
21
-4.99043
0
LINE
8
BLACK
6
CONTINUOUS
10
6.35813
20
-4.99043
11
6.35652
21
-4.98957
0
LINE
8
BLACK
6
CONTINUOUS
10
6.35652
20
-4.98957
11
6.3551
21
-4.9884
0
LINE
8
BLACK
6
CONTINUOUS
10
6.3551
20
-4.9884
11
6.35394
21
-4.98699
0
LINE
8
BLACK
6
CONTINUOUS
10
6.35394
20
-4.98699
11
6.35307
21
-4.98537
0
LINE
8
BLACK
6
CONTINUOUS
10
6.35307
20
-4.98537
11
6.35254
21
-4.98362
0
LINE
8
BLACK
6
CONTINUOUS
10
6.35254
20
-4.98362
11
6.35236
21
-4.98179
0
LINE
8
BLACK
6
CONTINUOUS
10
6.35236
20
-4.98179
11
6.35236
21
-4.96309
0
LINE
8
BLACK
6
CONTINUOUS
10
6.35236
20
-4.96309
11
6.35254
21
-4.96127
0
LINE
8
BLACK
6
CONTINUOUS
10
6.35254
20
-4.96127
11
6.35307
21
-4.95951
0
LINE
8
BLACK
6
CONTINUOUS
10
6.35307
20
-4.95951
11
6.35394
21
-4.9579
0
LINE
8
BLACK
6
CONTINUOUS
10
6.35394
20
-4.9579
11
6.3551
21
-4.95648
0
LINE
8
BLACK
6
CONTINUOUS
10
6.3551
20
-4.95648
11
6.35652
21
-4.95532
0
LINE
8
BLACK
6
CONTINUOUS
10
6.35652
20
-4.95532
11
6.35813
21
-4.95445
0
LINE
8
BLACK
6
CONTINUOUS
10
6.35813
20
-4.95445
11
6.35989
21
-4.95392
0
LINE
8
BLACK
6
CONTINUOUS
10
6.35989
20
-4.95392
11
6.36171
21
-4.95374
0
LINE
8
BLACK
6
CONTINUOUS
10
6.36171
20
-4.95374
11
6.38435
21
-4.95374
0
LINE
8
BLACK
6
CONTINUOUS
10
6.38435
20
-4.95374
11
6.38617
21
-4.95392
0
LINE
8
BLACK
6
CONTINUOUS
10
6.31728
20
-4.95392
11
6.31903
21
-4.95445
0
LINE
8
BLACK
6
CONTINUOUS
10
6.31903
20
-4.95445
11
6.32065
21
-4.95532
0
LINE
8
BLACK
6
CONTINUOUS
10
6.32065
20
-4.95532
11
6.32206
21
-4.95648
0
LINE
8
BLACK
6
CONTINUOUS
10
6.32206
20
-4.95648
11
6.32323
21
-4.9579
0
LINE
8
BLACK
6
CONTINUOUS
10
6.32323
20
-4.9579
11
6.32409
21
-4.95951
0
LINE
8
BLACK
6
CONTINUOUS
10
6.32409
20
-4.95951
11
6.32462
21
-4.96127
0
LINE
8
BLACK
6
CONTINUOUS
10
6.32462
20
-4.96127
11
6.3248
21
-4.96309
0
LINE
8
BLACK
6
CONTINUOUS
10
6.3248
20
-4.96309
11
6.3248
21
-4.98179
0
LINE
8
BLACK
6
CONTINUOUS
10
6.3248
20
-4.98179
11
6.32462
21
-4.98362
0
LINE
8
BLACK
6
CONTINUOUS
10
6.32462
20
-4.98362
11
6.32409
21
-4.98537
0
LINE
8
BLACK
6
CONTINUOUS
10
6.32409
20
-4.98537
11
6.32323
21
-4.98699
0
LINE
8
BLACK
6
CONTINUOUS
10
6.32323
20
-4.98699
11
6.32206
21
-4.9884
0
LINE
8
BLACK
6
CONTINUOUS
10
6.32206
20
-4.9884
11
6.32065
21
-4.98957
0
LINE
8
BLACK
6
CONTINUOUS
10
6.32065
20
-4.98957
11
6.31903
21
-4.99043
0
LINE
8
BLACK
6
CONTINUOUS
10
6.31903
20
-4.99043
11
6.31728
21
-4.99096
0
LINE
8
BLACK
6
CONTINUOUS
10
6.31728
20
-4.99096
11
6.31545
21
-4.99114
0
LINE
8
BLACK
6
CONTINUOUS
10
6.31545
20
-4.99114
11
6.29281
21
-4.99114
0
LINE
8
BLACK
6
CONTINUOUS
10
6.29281
20
-4.99114
11
6.29099
21
-4.99096
0
LINE
8
BLACK
6
CONTINUOUS
10
6.29099
20
-4.99096
11
6.28924
21
-4.99043
0
LINE
8
BLACK
6
CONTINUOUS
10
6.28924
20
-4.99043
11
6.28762
21
-4.98957
0
LINE
8
BLACK
6
CONTINUOUS
10
6.28762
20
-4.98957
11
6.2862
21
-4.9884
0
LINE
8
BLACK
6
CONTINUOUS
10
6.2862
20
-4.9884
11
6.28504
21
-4.98699
0
LINE
8
BLACK
6
CONTINUOUS
10
6.28504
20
-4.98699
11
6.28418
21
-4.98537
0
LINE
8
BLACK
6
CONTINUOUS
10
6.28418
20
-4.98537
11
6.28364
21
-4.98362
0
LINE
8
BLACK
6
CONTINUOUS
10
6.28364
20
-4.98362
11
6.28346
21
-4.98179
0
LINE
8
BLACK
6
CONTINUOUS
10
6.28346
20
-4.98179
11
6.28346
21
-4.96309
0
LINE
8
BLACK
6
CONTINUOUS
10
6.28346
20
-4.96309
11
6.28364
21
-4.96127
0
LINE
8
BLACK
6
CONTINUOUS
10
6.28364
20
-4.96127
11
6.28418
21
-4.95951
0
LINE
8
BLACK
6
CONTINUOUS
10
6.28418
20
-4.95951
11
6.28504
21
-4.9579
0
LINE
8
BLACK
6
CONTINUOUS
10
6.28504
20
-4.9579
11
6.2862
21
-4.95648
0
LINE
8
BLACK
6
CONTINUOUS
10
6.2862
20
-4.95648
11
6.28762
21
-4.95532
0
LINE
8
BLACK
6
CONTINUOUS
10
6.28762
20
-4.95532
11
6.28924
21
-4.95445
0
LINE
8
BLACK
6
CONTINUOUS
10
6.28924
20
-4.95445
11
6.29099
21
-4.95392
0
LINE
8
BLACK
6
CONTINUOUS
10
6.29099
20
-4.95392
11
6.29281
21
-4.95374
0
LINE
8
BLACK
6
CONTINUOUS
10
6.29281
20
-4.95374
11
6.31545
21
-4.95374
0
LINE
8
BLACK
6
CONTINUOUS
10
6.31545
20
-4.95374
11
6.31728
21
-4.95392
0
LINE
8
BLACK
6
CONTINUOUS
10
6.78735
20
-4.93424
11
6.7892
21
-4.9348
0
LINE
8
BLACK
6
CONTINUOUS
10
6.7892
20
-4.9348
11
6.7909
21
-4.93571
0
LINE
8
BLACK
6
CONTINUOUS
10
6.7909
20
-4.93571
11
6.79239
21
-4.93694
0
LINE
8
BLACK
6
CONTINUOUS
10
6.79239
20
-4.93694
11
6.79362
21
-4.93843
0
LINE
8
BLACK
6
CONTINUOUS
10
6.79362
20
-4.93843
11
6.79453
21
-4.94013
0
LINE
8
BLACK
6
CONTINUOUS
10
6.79453
20
-4.94013
11
6.79509
21
-4.94198
0
LINE
8
BLACK
6
CONTINUOUS
10
6.79509
20
-4.94198
11
6.79528
21
-4.9439
0
LINE
8
BLACK
6
CONTINUOUS
10
6.79528
20
-4.9439
11
6.79528
21
-4.96949
0
LINE
8
BLACK
6
CONTINUOUS
10
6.79528
20
-4.96949
11
6.79509
21
-4.97141
0
LINE
8
BLACK
6
CONTINUOUS
10
6.79509
20
-4.97141
11
6.79453
21
-4.97325
0
LINE
8
BLACK
6
CONTINUOUS
10
6.79453
20
-4.97325
11
6.79362
21
-4.97496
0
LINE
8
BLACK
6
CONTINUOUS
10
6.79362
20
-4.97496
11
6.79239
21
-4.97645
0
LINE
8
BLACK
6
CONTINUOUS
10
6.79239
20
-4.97645
11
6.7909
21
-4.97767
0
LINE
8
BLACK
6
CONTINUOUS
10
6.7909
20
-4.97767
11
6.7892
21
-4.97858
0
LINE
8
BLACK
6
CONTINUOUS
10
6.7892
20
-4.97858
11
6.78735
21
-4.97914
0
LINE
8
BLACK
6
CONTINUOUS
10
6.78735
20
-4.97914
11
6.78543
21
-4.97933
0
LINE
8
BLACK
6
CONTINUOUS
10
6.78543
20
-4.97933
11
6.75
21
-4.97933
0
LINE
8
BLACK
6
CONTINUOUS
10
6.75
20
-4.97933
11
6.74808
21
-4.97914
0
LINE
8
BLACK
6
CONTINUOUS
10
6.74808
20
-4.97914
11
6.74623
21
-4.97858
0
LINE
8
BLACK
6
CONTINUOUS
10
6.74623
20
-4.97858
11
6.74453
21
-4.97767
0
LINE
8
BLACK
6
CONTINUOUS
10
6.74453
20
-4.97767
11
6.74304
21
-4.97645
0
LINE
8
BLACK
6
CONTINUOUS
10
6.74304
20
-4.97645
11
6.74182
21
-4.97496
0
LINE
8
BLACK
6
CONTINUOUS
10
6.74182
20
-4.97496
11
6.74091
21
-4.97325
0
LINE
8
BLACK
6
CONTINUOUS
10
6.74091
20
-4.97325
11
6.74035
21
-4.97141
0
LINE
8
BLACK
6
CONTINUOUS
10
6.74035
20
-4.97141
11
6.74016
21
-4.96949
0
LINE
8
BLACK
6
CONTINUOUS
10
6.74016
20
-4.96949
11
6.74016
21
-4.9439
0
LINE
8
BLACK
6
CONTINUOUS
10
6.74016
20
-4.9439
11
6.74035
21
-4.94198
0
LINE
8
BLACK
6
CONTINUOUS
10
6.74035
20
-4.94198
11
6.74091
21
-4.94013
0
LINE
8
BLACK
6
CONTINUOUS
10
6.74091
20
-4.94013
11
6.74182
21
-4.93843
0
LINE
8
BLACK
6
CONTINUOUS
10
6.74182
20
-4.93843
11
6.74304
21
-4.93694
0
LINE
8
BLACK
6
CONTINUOUS
10
6.74304
20
-4.93694
11
6.74453
21
-4.93571
0
LINE
8
BLACK
6
CONTINUOUS
10
6.74453
20
-4.93571
11
6.74623
21
-4.9348
0
LINE
8
BLACK
6
CONTINUOUS
10
6.74623
20
-4.9348
11
6.74808
21
-4.93424
0
LINE
8
BLACK
6
CONTINUOUS
10
6.74808
20
-4.93424
11
6.75
21
-4.93406
0
LINE
8
BLACK
6
CONTINUOUS
10
6.75
20
-4.93406
11
6.78543
21
-4.93406
0
LINE
8
BLACK
6
CONTINUOUS
10
6.78543
20
-4.93406
11
6.78735
21
-4.93424
0
LINE
8
BLACK
6
CONTINUOUS
10
6.39799
20
-4.87912
11
6.39974
21
-4.87965
0
LINE
8
BLACK
6
CONTINUOUS
10
6.39974
20
-4.87965
11
6.40136
21
-4.88051
0
LINE
8
BLACK
6
CONTINUOUS
10
6.40136
20
-4.88051
11
6.40277
21
-4.88168
0
LINE
8
BLACK
6
CONTINUOUS
10
6.40277
20
-4.88168
11
6.40394
21
-4.88309
0
LINE
8
BLACK
6
CONTINUOUS
10
6.40394
20
-4.88309
11
6.4048
21
-4.88471
0
LINE
8
BLACK
6
CONTINUOUS
10
6.4048
20
-4.88471
11
6.40533
21
-4.88646
0
LINE
8
BLACK
6
CONTINUOUS
10
6.40533
20
-4.88646
11
6.40551
21
-4.88829
0
LINE
8
BLACK
6
CONTINUOUS
10
6.40551
20
-4.88829
11
6.40551
21
-4.90699
0
LINE
8
BLACK
6
CONTINUOUS
10
6.40551
20
-4.90699
11
6.40533
21
-4.90881
0
LINE
8
BLACK
6
CONTINUOUS
10
6.40533
20
-4.90881
11
6.4048
21
-4.91057
0
LINE
8
BLACK
6
CONTINUOUS
10
6.4048
20
-4.91057
11
6.40394
21
-4.91218
0
LINE
8
BLACK
6
CONTINUOUS
10
6.40394
20
-4.91218
11
6.40277
21
-4.9136
0
LINE
8
BLACK
6
CONTINUOUS
10
6.40277
20
-4.9136
11
6.40136
21
-4.91476
0
LINE
8
BLACK
6
CONTINUOUS
10
6.40136
20
-4.91476
11
6.39974
21
-4.91563
0
LINE
8
BLACK
6
CONTINUOUS
10
6.39974
20
-4.91563
11
6.39799
21
-4.91616
0
LINE
8
BLACK
6
CONTINUOUS
10
6.39799
20
-4.91616
11
6.39616
21
-4.91634
0
LINE
8
BLACK
6
CONTINUOUS
10
6.39616
20
-4.91634
11
6.37352
21
-4.91634
0
LINE
8
BLACK
6
CONTINUOUS
10
6.37352
20
-4.91634
11
6.3717
21
-4.91616
0
LINE
8
BLACK
6
CONTINUOUS
10
6.3717
20
-4.91616
11
6.36995
21
-4.91563
0
LINE
8
BLACK
6
CONTINUOUS
10
6.36995
20
-4.91563
11
6.36833
21
-4.91476
0
LINE
8
BLACK
6
CONTINUOUS
10
6.36833
20
-4.91476
11
6.36691
21
-4.9136
0
LINE
8
BLACK
6
CONTINUOUS
10
6.36691
20
-4.9136
11
6.36575
21
-4.91218
0
LINE
8
BLACK
6
CONTINUOUS
10
6.36575
20
-4.91218
11
6.36489
21
-4.91057
0
LINE
8
BLACK
6
CONTINUOUS
10
6.36489
20
-4.91057
11
6.36435
21
-4.90881
0
LINE
8
BLACK
6
CONTINUOUS
10
6.36435
20
-4.90881
11
6.36417
21
-4.90699
0
LINE
8
BLACK
6
CONTINUOUS
10
6.36417
20
-4.90699
11
6.36417
21
-4.88829
0
LINE
8
BLACK
6
CONTINUOUS
10
6.36417
20
-4.88829
11
6.36435
21
-4.88646
0
LINE
8
BLACK
6
CONTINUOUS
10
6.36435
20
-4.88646
11
6.36489
21
-4.88471
0
LINE
8
BLACK
6
CONTINUOUS
10
6.36489
20
-4.88471
11
6.36575
21
-4.88309
0
LINE
8
BLACK
6
CONTINUOUS
10
6.36575
20
-4.88309
11
6.36691
21
-4.88168
0
LINE
8
BLACK
6
CONTINUOUS
10
6.36691
20
-4.88168
11
6.36833
21
-4.88051
0
LINE
8
BLACK
6
CONTINUOUS
10
6.36833
20
-4.88051
11
6.36995
21
-4.87965
0
LINE
8
BLACK
6
CONTINUOUS
10
6.36995
20
-4.87965
11
6.3717
21
-4.87912
0
LINE
8
BLACK
6
CONTINUOUS
10
6.3717
20
-4.87912
11
6.37352
21
-4.87894
0
LINE
8
BLACK
6
CONTINUOUS
10
6.37352
20
-4.87894
11
6.39616
21
-4.87894
0
LINE
8
BLACK
6
CONTINUOUS
10
6.39616
20
-4.87894
11
6.39799
21
-4.87912
0
LINE
8
BLACK
6
CONTINUOUS
10
6.32909
20
-4.87912
11
6.33084
21
-4.87965
0
LINE
8
BLACK
6
CONTINUOUS
10
6.33084
20
-4.87965
11
6.33246
21
-4.88051
0
LINE
8
BLACK
6
CONTINUOUS
10
6.33246
20
-4.88051
11
6.33388
21
-4.88168
0
LINE
8
BLACK
6
CONTINUOUS
10
6.33388
20
-4.88168
11
6.33504
21
-4.88309
0
LINE
8
BLACK
6
CONTINUOUS
10
6.33504
20
-4.88309
11
6.3359
21
-4.88471
0
LINE
8
BLACK
6
CONTINUOUS
10
6.3359
20
-4.88471
11
6.33643
21
-4.88646
0
LINE
8
BLACK
6
CONTINUOUS
10
6.33643
20
-4.88646
11
6.33661
21
-4.88829
0
LINE
8
BLACK
6
CONTINUOUS
10
6.33661
20
-4.88829
11
6.33661
21
-4.90699
0
LINE
8
BLACK
6
CONTINUOUS
10
6.33661
20
-4.90699
11
6.33643
21
-4.90881
0
LINE
8
BLACK
6
CONTINUOUS
10
6.33643
20
-4.90881
11
6.3359
21
-4.91057
0
LINE
8
BLACK
6
CONTINUOUS
10
6.3359
20
-4.91057
11
6.33504
21
-4.91218
0
LINE
8
BLACK
6
CONTINUOUS
10
6.33504
20
-4.91218
11
6.33388
21
-4.9136
0
LINE
8
BLACK
6
CONTINUOUS
10
6.33388
20
-4.9136
11
6.33246
21
-4.91476
0
LINE
8
BLACK
6
CONTINUOUS
10
6.33246
20
-4.91476
11
6.33084
21
-4.91563
0
LINE
8
BLACK
6
CONTINUOUS
10
6.33084
20
-4.91563
11
6.32909
21
-4.91616
0
LINE
8
BLACK
6
CONTINUOUS
10
6.32909
20
-4.91616
11
6.32726
21
-4.91634
0
LINE
8
BLACK
6
CONTINUOUS
10
6.32726
20
-4.91634
11
6.30463
21
-4.91634
0
LINE
8
BLACK
6
CONTINUOUS
10
6.30463
20
-4.91634
11
6.3028
21
-4.91616
0
LINE
8
BLACK
6
CONTINUOUS
10
6.3028
20
-4.91616
11
6.30105
21
-4.91563
0
LINE
8
BLACK
6
CONTINUOUS
10
6.30105
20
-4.91563
11
6.29943
21
-4.91476
0
LINE
8
BLACK
6
CONTINUOUS
10
6.29943
20
-4.91476
11
6.29801
21
-4.9136
0
LINE
8
BLACK
6
CONTINUOUS
10
6.29801
20
-4.9136
11
6.29685
21
-4.91218
0
LINE
8
BLACK
6
CONTINUOUS
10
6.29685
20
-4.91218
11
6.29599
21
-4.91057
0
LINE
8
BLACK
6
CONTINUOUS
10
6.29599
20
-4.91057
11
6.29546
21
-4.90881
0
LINE
8
BLACK
6
CONTINUOUS
10
6.29546
20
-4.90881
11
6.29528
21
-4.90699
0
LINE
8
BLACK
6
CONTINUOUS
10
6.29528
20
-4.90699
11
6.29528
21
-4.88829
0
LINE
8
BLACK
6
CONTINUOUS
10
6.29528
20
-4.88829
11
6.29546
21
-4.88646
0
LINE
8
BLACK
6
CONTINUOUS
10
6.29546
20
-4.88646
11
6.29599
21
-4.88471
0
LINE
8
BLACK
6
CONTINUOUS
10
6.29599
20
-4.88471
11
6.29685
21
-4.88309
0
LINE
8
BLACK
6
CONTINUOUS
10
6.29685
20
-4.88309
11
6.29801
21
-4.88168
0
LINE
8
BLACK
6
CONTINUOUS
10
6.29801
20
-4.88168
11
6.29943
21
-4.88051
0
LINE
8
BLACK
6
CONTINUOUS
10
6.29943
20
-4.88051
11
6.30105
21
-4.87965
0
LINE
8
BLACK
6
CONTINUOUS
10
6.30105
20
-4.87965
11
6.3028
21
-4.87912
0
LINE
8
BLACK
6
CONTINUOUS
10
6.3028
20
-4.87912
11
6.30463
21
-4.87894
0
LINE
8
BLACK
6
CONTINUOUS
10
6.30463
20
-4.87894
11
6.32726
21
-4.87894
0
LINE
8
BLACK
6
CONTINUOUS
10
6.32726
20
-4.87894
11
6.32909
21
-4.87912
0
LINE
8
BLACK
6
CONTINUOUS
10
6.78735
20
-4.85354
11
6.7892
21
-4.8541
0
LINE
8
BLACK
6
CONTINUOUS
10
6.7892
20
-4.8541
11
6.7909
21
-4.85501
0
LINE
8
BLACK
6
CONTINUOUS
10
6.7909
20
-4.85501
11
6.79239
21
-4.85623
0
LINE
8
BLACK
6
CONTINUOUS
10
6.79239
20
-4.85623
11
6.79362
21
-4.85772
0
LINE
8
BLACK
6
CONTINUOUS
10
6.79362
20
-4.85772
11
6.79453
21
-4.85942
0
LINE
8
BLACK
6
CONTINUOUS
10
6.79453
20
-4.85942
11
6.79509
21
-4.86127
0
LINE
8
BLACK
6
CONTINUOUS
10
6.79509
20
-4.86127
11
6.79528
21
-4.86319
0
LINE
8
BLACK
6
CONTINUOUS
10
6.79528
20
-4.86319
11
6.79528
21
-4.88878
0
LINE
8
BLACK
6
CONTINUOUS
10
6.79528
20
-4.88878
11
6.79509
21
-4.8907
0
LINE
8
BLACK
6
CONTINUOUS
10
6.79509
20
-4.8907
11
6.79453
21
-4.89255
0
LINE
8
BLACK
6
CONTINUOUS
10
6.79453
20
-4.89255
11
6.79362
21
-4.89425
0
LINE
8
BLACK
6
CONTINUOUS
10
6.79362
20
-4.89425
11
6.79239
21
-4.89574
0
LINE
8
BLACK
6
CONTINUOUS
10
6.79239
20
-4.89574
11
6.7909
21
-4.89696
0
LINE
8
BLACK
6
CONTINUOUS
10
6.7909
20
-4.89696
11
6.7892
21
-4.89787
0
LINE
8
BLACK
6
CONTINUOUS
10
6.7892
20
-4.89787
11
6.78735
21
-4.89843
0
LINE
8
BLACK
6
CONTINUOUS
10
6.78735
20
-4.89843
11
6.78543
21
-4.89862
0
LINE
8
BLACK
6
CONTINUOUS
10
6.78543
20
-4.89862
11
6.75
21
-4.89862
0
LINE
8
BLACK
6
CONTINUOUS
10
6.75
20
-4.89862
11
6.74808
21
-4.89843
0
LINE
8
BLACK
6
CONTINUOUS
10
6.74808
20
-4.89843
11
6.74623
21
-4.89787
0
LINE
8
BLACK
6
CONTINUOUS
10
6.74623
20
-4.89787
11
6.74453
21
-4.89696
0
LINE
8
BLACK
6
CONTINUOUS
10
6.74453
20
-4.89696
11
6.74304
21
-4.89574
0
LINE
8
BLACK
6
CONTINUOUS
10
6.74304
20
-4.89574
11
6.74182
21
-4.89425
0
LINE
8
BLACK
6
CONTINUOUS
10
6.74182
20
-4.89425
11
6.74091
21
-4.89255
0
LINE
8
BLACK
6
CONTINUOUS
10
6.74091
20
-4.89255
11
6.74035
21
-4.8907
0
LINE
8
BLACK
6
CONTINUOUS
10
6.74035
20
-4.8907
11
6.74016
21
-4.88878
0
LINE
8
BLACK
6
CONTINUOUS
10
6.74016
20
-4.88878
11
6.74016
21
-4.86319
0
LINE
8
BLACK
6
CONTINUOUS
10
6.74016
20
-4.86319
11
6.74035
21
-4.86127
0
LINE
8
BLACK
6
CONTINUOUS
10
6.74035
20
-4.86127
11
6.74091
21
-4.85942
0
LINE
8
BLACK
6
CONTINUOUS
10
6.74091
20
-4.85942
11
6.74182
21
-4.85772
0
LINE
8
BLACK
6
CONTINUOUS
10
6.74182
20
-4.85772
11
6.74304
21
-4.85623
0
LINE
8
BLACK
6
CONTINUOUS
10
6.74304
20
-4.85623
11
6.74453
21
-4.85501
0
LINE
8
BLACK
6
CONTINUOUS
10
6.74453
20
-4.85501
11
6.74623
21
-4.8541
0
LINE
8
BLACK
6
CONTINUOUS
10
6.74623
20
-4.8541
11
6.74808
21
-4.85354
0
LINE
8
BLACK
6
CONTINUOUS
10
6.74808
20
-4.85354
11
6.75
21
-4.85335
0
LINE
8
BLACK
6
CONTINUOUS
10
6.75
20
-4.85335
11
6.78543
21
-4.85335
0
LINE
8
BLACK
6
CONTINUOUS
10
6.78543
20
-4.85335
11
6.78735
21
-4.85354
0
LINE
8
BLACK
6
CONTINUOUS
10
6.18327
20
-4.86083
11
6.10453
21
-4.86083
0
LINE
8
BLACK
6
CONTINUOUS
10
6.10453
20
-4.86083
11
6.10453
21
-4.82539
0
LINE
8
BLACK
6
CONTINUOUS
10
6.10453
20
-4.82539
11
6.18327
21
-4.82539
0
LINE
8
BLACK
6
CONTINUOUS
10
6.18327
20
-4.82539
11
6.18327
21
-4.86083
0
LINE
8
BLACK
6
CONTINUOUS
10
6.45999
20
-4.80923
11
6.46175
21
-4.80977
0
LINE
8
BLACK
6
CONTINUOUS
10
6.46175
20
-4.80977
11
6.46336
21
-4.81063
0
LINE
8
BLACK
6
CONTINUOUS
10
6.46336
20
-4.81063
11
6.46478
21
-4.81179
0
LINE
8
BLACK
6
CONTINUOUS
10
6.46478
20
-4.81179
11
6.46594
21
-4.81321
0
LINE
8
BLACK
6
CONTINUOUS
10
6.46594
20
-4.81321
11
6.46681
21
-4.81483
0
LINE
8
BLACK
6
CONTINUOUS
10
6.46681
20
-4.81483
11
6.46734
21
-4.81658
0
LINE
8
BLACK
6
CONTINUOUS
10
6.46734
20
-4.81658
11
6.46752
21
-4.81841
0
LINE
8
BLACK
6
CONTINUOUS
10
6.46752
20
-4.81841
11
6.46752
21
-4.84104
0
LINE
8
BLACK
6
CONTINUOUS
10
6.46752
20
-4.84104
11
6.46734
21
-4.84287
0
LINE
8
BLACK
6
CONTINUOUS
10
6.46734
20
-4.84287
11
6.46681
21
-4.84462
0
LINE
8
BLACK
6
CONTINUOUS
10
6.46681
20
-4.84462
11
6.46594
21
-4.84624
0
LINE
8
BLACK
6
CONTINUOUS
10
6.46594
20
-4.84624
11
6.46478
21
-4.84766
0
LINE
8
BLACK
6
CONTINUOUS
10
6.46478
20
-4.84766
11
6.46336
21
-4.84882
0
LINE
8
BLACK
6
CONTINUOUS
10
6.46336
20
-4.84882
11
6.46175
21
-4.84968
0
LINE
8
BLACK
6
CONTINUOUS
10
6.46175
20
-4.84968
11
6.45999
21
-4.85021
0
LINE
8
BLACK
6
CONTINUOUS
10
6.45999
20
-4.85021
11
6.45817
21
-4.85039
0
LINE
8
BLACK
6
CONTINUOUS
10
6.45817
20
-4.85039
11
6.43947
21
-4.85039
0
LINE
8
BLACK
6
CONTINUOUS
10
6.43947
20
-4.85039
11
6.43764
21
-4.85021
0
LINE
8
BLACK
6
CONTINUOUS
10
6.43764
20
-4.85021
11
6.43589
21
-4.84968
0
LINE
8
BLACK
6
CONTINUOUS
10
6.43589
20
-4.84968
11
6.43427
21
-4.84882
0
LINE
8
BLACK
6
CONTINUOUS
10
6.43427
20
-4.84882
11
6.43286
21
-4.84766
0
LINE
8
BLACK
6
CONTINUOUS
10
6.43286
20
-4.84766
11
6.43169
21
-4.84624
0
LINE
8
BLACK
6
CONTINUOUS
10
6.43169
20
-4.84624
11
6.43083
21
-4.84462
0
LINE
8
BLACK
6
CONTINUOUS
10
6.43083
20
-4.84462
11
6.4303
21
-4.84287
0
LINE
8
BLACK
6
CONTINUOUS
10
6.4303
20
-4.84287
11
6.43012
21
-4.84104
0
LINE
8
BLACK
6
CONTINUOUS
10
6.43012
20
-4.84104
11
6.43012
21
-4.81841
0
LINE
8
BLACK
6
CONTINUOUS
10
6.43012
20
-4.81841
11
6.4303
21
-4.81658
0
LINE
8
BLACK
6
CONTINUOUS
10
6.4303
20
-4.81658
11
6.43083
21
-4.81483
0
LINE
8
BLACK
6
CONTINUOUS
10
6.43083
20
-4.81483
11
6.43169
21
-4.81321
0
LINE
8
BLACK
6
CONTINUOUS
10
6.43169
20
-4.81321
11
6.43286
21
-4.81179
0
LINE
8
BLACK
6
CONTINUOUS
10
6.43286
20
-4.81179
11
6.43427
21
-4.81063
0
LINE
8
BLACK
6
CONTINUOUS
10
6.43427
20
-4.81063
11
6.43589
21
-4.80977
0
LINE
8
BLACK
6
CONTINUOUS
10
6.43589
20
-4.80977
11
6.43764
21
-4.80923
0
LINE
8
BLACK
6
CONTINUOUS
10
6.43764
20
-4.80923
11
6.43947
21
-4.80906
0
LINE
8
BLACK
6
CONTINUOUS
10
6.43947
20
-4.80906
11
6.45817
21
-4.80906
0
LINE
8
BLACK
6
CONTINUOUS
10
6.45817
20
-4.80906
11
6.45999
21
-4.80923
0
LINE
8
BLACK
6
CONTINUOUS
10
6.68836
20
-4.76192
11
6.68946
21
-4.76226
0
LINE
8
BLACK
6
CONTINUOUS
10
6.68946
20
-4.76226
11
6.69049
21
-4.76281
0
LINE
8
BLACK
6
CONTINUOUS
10
6.69049
20
-4.76281
11
6.69138
21
-4.76354
0
LINE
8
BLACK
6
CONTINUOUS
10
6.69138
20
-4.76354
11
6.69211
21
-4.76444
0
LINE
8
BLACK
6
CONTINUOUS
10
6.69211
20
-4.76444
11
6.69266
21
-4.76546
0
LINE
8
BLACK
6
CONTINUOUS
10
6.69266
20
-4.76546
11
6.693
21
-4.76656
0
LINE
8
BLACK
6
CONTINUOUS
10
6.693
20
-4.76656
11
6.69311
21
-4.76772
0
LINE
8
BLACK
6
CONTINUOUS
10
6.69311
20
-4.76772
11
6.69311
21
-4.83268
0
LINE
8
BLACK
6
CONTINUOUS
10
6.69311
20
-4.83268
11
6.693
21
-4.83383
0
LINE
8
BLACK
6
CONTINUOUS
10
6.693
20
-4.83383
11
6.69266
21
-4.83494
0
LINE
8
BLACK
6
CONTINUOUS
10
6.69266
20
-4.83494
11
6.69211
21
-4.83596
0
LINE
8
BLACK
6
CONTINUOUS
10
6.69211
20
-4.83596
11
6.69138
21
-4.83685
0
LINE
8
BLACK
6
CONTINUOUS
10
6.69138
20
-4.83685
11
6.69049
21
-4.83759
0
LINE
8
BLACK
6
CONTINUOUS
10
6.69049
20
-4.83759
11
6.68946
21
-4.83813
0
LINE
8
BLACK
6
CONTINUOUS
10
6.68946
20
-4.83813
11
6.68836
21
-4.83847
0
LINE
8
BLACK
6
CONTINUOUS
10
6.68836
20
-4.83847
11
6.6872
21
-4.83858
0
LINE
8
BLACK
6
CONTINUOUS
10
6.6872
20
-4.83858
11
6.67539
21
-4.83858
0
LINE
8
BLACK
6
CONTINUOUS
10
6.67539
20
-4.83858
11
6.67424
21
-4.83847
0
LINE
8
BLACK
6
CONTINUOUS
10
6.67424
20
-4.83847
11
6.67313
21
-4.83813
0
LINE
8
BLACK
6
CONTINUOUS
10
6.67313
20
-4.83813
11
6.67211
21
-4.83759
0
LINE
8
BLACK
6
CONTINUOUS
10
6.67211
20
-4.83759
11
6.67122
21
-4.83685
0
LINE
8
BLACK
6
CONTINUOUS
10
6.67122
20
-4.83685
11
6.67048
21
-4.83596
0
LINE
8
BLACK
6
CONTINUOUS
10
6.67048
20
-4.83596
11
6.66994
21
-4.83494
0
LINE
8
BLACK
6
CONTINUOUS
10
6.66994
20
-4.83494
11
6.6696
21
-4.83383
0
LINE
8
BLACK
6
CONTINUOUS
10
6.6696
20
-4.83383
11
6.66949
21
-4.83268
0
LINE
8
BLACK
6
CONTINUOUS
10
6.66949
20
-4.83268
11
6.66949
21
-4.76772
0
LINE
8
BLACK
6
CONTINUOUS
10
6.66949
20
-4.76772
11
6.6696
21
-4.76656
0
LINE
8
BLACK
6
CONTINUOUS
10
6.6696
20
-4.76656
11
6.66994
21
-4.76546
0
LINE
8
BLACK
6
CONTINUOUS
10
6.66994
20
-4.76546
11
6.67048
21
-4.76444
0
LINE
8
BLACK
6
CONTINUOUS
10
6.67048
20
-4.76444
11
6.67122
21
-4.76354
0
LINE
8
BLACK
6
CONTINUOUS
10
6.67122
20
-4.76354
11
6.67211
21
-4.76281
0
LINE
8
BLACK
6
CONTINUOUS
10
6.67211
20
-4.76281
11
6.67313
21
-4.76226
0
LINE
8
BLACK
6
CONTINUOUS
10
6.67313
20
-4.76226
11
6.67424
21
-4.76192
0
LINE
8
BLACK
6
CONTINUOUS
10
6.67424
20
-4.76192
11
6.67539
21
-4.76181
0
LINE
8
BLACK
6
CONTINUOUS
10
6.67539
20
-4.76181
11
6.6872
21
-4.76181
0
LINE
8
BLACK
6
CONTINUOUS
10
6.6872
20
-4.76181
11
6.68836
21
-4.76192
0
LINE
8
BLACK
6
CONTINUOUS
10
6.63836
20
-4.76192
11
6.63946
21
-4.76226
0
LINE
8
BLACK
6
CONTINUOUS
10
6.63946
20
-4.76226
11
6.64049
21
-4.76281
0
LINE
8
BLACK
6
CONTINUOUS
10
6.64049
20
-4.76281
11
6.64138
21
-4.76354
0
LINE
8
BLACK
6
CONTINUOUS
10
6.64138
20
-4.76354
11
6.64211
21
-4.76444
0
LINE
8
BLACK
6
CONTINUOUS
10
6.64211
20
-4.76444
11
6.64266
21
-4.76546
0
LINE
8
BLACK
6
CONTINUOUS
10
6.64266
20
-4.76546
11
6.643
21
-4.76656
0
LINE
8
BLACK
6
CONTINUOUS
10
6.643
20
-4.76656
11
6.64311
21
-4.76772
0
LINE
8
BLACK
6
CONTINUOUS
10
6.64311
20
-4.76772
11
6.64311
21
-4.83268
0
LINE
8
BLACK
6
CONTINUOUS
10
6.64311
20
-4.83268
11
6.643
21
-4.83383
0
LINE
8
BLACK
6
CONTINUOUS
10
6.643
20
-4.83383
11
6.64266
21
-4.83494
0
LINE
8
BLACK
6
CONTINUOUS
10
6.64266
20
-4.83494
11
6.64211
21
-4.83596
0
LINE
8
BLACK
6
CONTINUOUS
10
6.64211
20
-4.83596
11
6.64138
21
-4.83685
0
LINE
8
BLACK
6
CONTINUOUS
10
6.64138
20
-4.83685
11
6.64049
21
-4.83759
0
LINE
8
BLACK
6
CONTINUOUS
10
6.64049
20
-4.83759
11
6.63946
21
-4.83813
0
LINE
8
BLACK
6
CONTINUOUS
10
6.63946
20
-4.83813
11
6.63836
21
-4.83847
0
LINE
8
BLACK
6
CONTINUOUS
10
6.63836
20
-4.83847
11
6.6372
21
-4.83858
0
LINE
8
BLACK
6
CONTINUOUS
10
6.6372
20
-4.83858
11
6.62539
21
-4.83858
0
LINE
8
BLACK
6
CONTINUOUS
10
6.62539
20
-4.83858
11
6.62424
21
-4.83847
0
LINE
8
BLACK
6
CONTINUOUS
10
6.62424
20
-4.83847
11
6.62313
21
-4.83813
0
LINE
8
BLACK
6
CONTINUOUS
10
6.62313
20
-4.83813
11
6.62211
21
-4.83759
0
LINE
8
BLACK
6
CONTINUOUS
10
6.62211
20
-4.83759
11
6.62122
21
-4.83685
0
LINE
8
BLACK
6
CONTINUOUS
10
6.62122
20
-4.83685
11
6.62048
21
-4.83596
0
LINE
8
BLACK
6
CONTINUOUS
10
6.62048
20
-4.83596
11
6.61994
21
-4.83494
0
LINE
8
BLACK
6
CONTINUOUS
10
6.61994
20
-4.83494
11
6.6196
21
-4.83383
0
LINE
8
BLACK
6
CONTINUOUS
10
6.6196
20
-4.83383
11
6.61949
21
-4.83268
0
LINE
8
BLACK
6
CONTINUOUS
10
6.61949
20
-4.83268
11
6.61949
21
-4.76772
0
LINE
8
BLACK
6
CONTINUOUS
10
6.61949
20
-4.76772
11
6.6196
21
-4.76656
0
LINE
8
BLACK
6
CONTINUOUS
10
6.6196
20
-4.76656
11
6.61994
21
-4.76546
0
LINE
8
BLACK
6
CONTINUOUS
10
6.61994
20
-4.76546
11
6.62048
21
-4.76444
0
LINE
8
BLACK
6
CONTINUOUS
10
6.62048
20
-4.76444
11
6.62122
21
-4.76354
0
LINE
8
BLACK
6
CONTINUOUS
10
6.62122
20
-4.76354
11
6.62211
21
-4.76281
0
LINE
8
BLACK
6
CONTINUOUS
10
6.62211
20
-4.76281
11
6.62313
21
-4.76226
0
LINE
8
BLACK
6
CONTINUOUS
10
6.62313
20
-4.76226
11
6.62424
21
-4.76192
0
LINE
8
BLACK
6
CONTINUOUS
10
6.62424
20
-4.76192
11
6.62539
21
-4.76181
0
LINE
8
BLACK
6
CONTINUOUS
10
6.62539
20
-4.76181
11
6.6372
21
-4.76181
0
LINE
8
BLACK
6
CONTINUOUS
10
6.6372
20
-4.76181
11
6.63836
21
-4.76192
0
LINE
8
BLACK
6
CONTINUOUS
10
6.53836
20
-4.76192
11
6.53946
21
-4.76226
0
LINE
8
BLACK
6
CONTINUOUS
10
6.53946
20
-4.76226
11
6.54049
21
-4.76281
0
LINE
8
BLACK
6
CONTINUOUS
10
6.54049
20
-4.76281
11
6.54138
21
-4.76354
0
LINE
8
BLACK
6
CONTINUOUS
10
6.54138
20
-4.76354
11
6.54211
21
-4.76444
0
LINE
8
BLACK
6
CONTINUOUS
10
6.54211
20
-4.76444
11
6.54266
21
-4.76546
0
LINE
8
BLACK
6
CONTINUOUS
10
6.54266
20
-4.76546
11
6.543
21
-4.76656
0
LINE
8
BLACK
6
CONTINUOUS
10
6.543
20
-4.76656
11
6.54311
21
-4.76772
0
LINE
8
BLACK
6
CONTINUOUS
10
6.54311
20
-4.76772
11
6.54311
21
-4.83268
0
LINE
8
BLACK
6
CONTINUOUS
10
6.54311
20
-4.83268
11
6.543
21
-4.83383
0
LINE
8
BLACK
6
CONTINUOUS
10
6.543
20
-4.83383
11
6.54266
21
-4.83494
0
LINE
8
BLACK
6
CONTINUOUS
10
6.54266
20
-4.83494
11
6.54211
21
-4.83596
0
LINE
8
BLACK
6
CONTINUOUS
10
6.54211
20
-4.83596
11
6.54138
21
-4.83685
0
LINE
8
BLACK
6
CONTINUOUS
10
6.54138
20
-4.83685
11
6.54049
21
-4.83759
0
LINE
8
BLACK
6
CONTINUOUS
10
6.54049
20
-4.83759
11
6.53946
21
-4.83813
0
LINE
8
BLACK
6
CONTINUOUS
10
6.53946
20
-4.83813
11
6.53836
21
-4.83847
0
LINE
8
BLACK
6
CONTINUOUS
10
6.53836
20
-4.83847
11
6.5372
21
-4.83858
0
LINE
8
BLACK
6
CONTINUOUS
10
6.5372
20
-4.83858
11
6.52539
21
-4.83858
0
LINE
8
BLACK
6
CONTINUOUS
10
6.52539
20
-4.83858
11
6.52424
21
-4.83847
0
LINE
8
BLACK
6
CONTINUOUS
10
6.52424
20
-4.83847
11
6.52313
21
-4.83813
0
LINE
8
BLACK
6
CONTINUOUS
10
6.52313
20
-4.83813
11
6.52211
21
-4.83759
0
LINE
8
BLACK
6
CONTINUOUS
10
6.52211
20
-4.83759
11
6.52122
21
-4.83685
0
LINE
8
BLACK
6
CONTINUOUS
10
6.52122
20
-4.83685
11
6.52048
21
-4.83596
0
LINE
8
BLACK
6
CONTINUOUS
10
6.52048
20
-4.83596
11
6.51994
21
-4.83494
0
LINE
8
BLACK
6
CONTINUOUS
10
6.51994
20
-4.83494
11
6.5196
21
-4.83383
0
LINE
8
BLACK
6
CONTINUOUS
10
6.5196
20
-4.83383
11
6.51949
21
-4.83268
0
LINE
8
BLACK
6
CONTINUOUS
10
6.51949
20
-4.83268
11
6.51949
21
-4.76772
0
LINE
8
BLACK
6
CONTINUOUS
10
6.51949
20
-4.76772
11
6.5196
21
-4.76656
0
LINE
8
BLACK
6
CONTINUOUS
10
6.5196
20
-4.76656
11
6.51994
21
-4.76546
0
LINE
8
BLACK
6
CONTINUOUS
10
6.51994
20
-4.76546
11
6.52048
21
-4.76444
0
LINE
8
BLACK
6
CONTINUOUS
10
6.52048
20
-4.76444
11
6.52122
21
-4.76354
0
LINE
8
BLACK
6
CONTINUOUS
10
6.52122
20
-4.76354
11
6.52211
21
-4.76281
0
LINE
8
BLACK
6
CONTINUOUS
10
6.52211
20
-4.76281
11
6.52313
21
-4.76226
0
LINE
8
BLACK
6
CONTINUOUS
10
6.52313
20
-4.76226
11
6.52424
21
-4.76192
0
LINE
8
BLACK
6
CONTINUOUS
10
6.52424
20
-4.76192
11
6.52539
21
-4.76181
0
LINE
8
BLACK
6
CONTINUOUS
10
6.52539
20
-4.76181
11
6.5372
21
-4.76181
0
LINE
8
BLACK
6
CONTINUOUS
10
6.5372
20
-4.76181
11
6.53836
21
-4.76192
0
LINE
8
BLACK
6
CONTINUOUS
10
6.58836
20
-4.76192
11
6.58946
21
-4.76226
0
LINE
8
BLACK
6
CONTINUOUS
10
6.58946
20
-4.76226
11
6.59049
21
-4.76281
0
LINE
8
BLACK
6
CONTINUOUS
10
6.59049
20
-4.76281
11
6.59138
21
-4.76354
0
LINE
8
BLACK
6
CONTINUOUS
10
6.59138
20
-4.76354
11
6.59211
21
-4.76444
0
LINE
8
BLACK
6
CONTINUOUS
10
6.59211
20
-4.76444
11
6.59266
21
-4.76546
0
LINE
8
BLACK
6
CONTINUOUS
10
6.59266
20
-4.76546
11
6.593
21
-4.76656
0
LINE
8
BLACK
6
CONTINUOUS
10
6.593
20
-4.76656
11
6.59311
21
-4.76772
0
LINE
8
BLACK
6
CONTINUOUS
10
6.59311
20
-4.76772
11
6.59311
21
-4.83268
0
LINE
8
BLACK
6
CONTINUOUS
10
6.59311
20
-4.83268
11
6.593
21
-4.83383
0
LINE
8
BLACK
6
CONTINUOUS
10
6.593
20
-4.83383
11
6.59266
21
-4.83494
0
LINE
8
BLACK
6
CONTINUOUS
10
6.59266
20
-4.83494
11
6.59211
21
-4.83596
0
LINE
8
BLACK
6
CONTINUOUS
10
6.59211
20
-4.83596
11
6.59138
21
-4.83685
0
LINE
8
BLACK
6
CONTINUOUS
10
6.59138
20
-4.83685
11
6.59049
21
-4.83759
0
LINE
8
BLACK
6
CONTINUOUS
10
6.59049
20
-4.83759
11
6.58946
21
-4.83813
0
LINE
8
BLACK
6
CONTINUOUS
10
6.58946
20
-4.83813
11
6.58836
21
-4.83847
0
LINE
8
BLACK
6
CONTINUOUS
10
6.58836
20
-4.83847
11
6.5872
21
-4.83858
0
LINE
8
BLACK
6
CONTINUOUS
10
6.5872
20
-4.83858
11
6.57539
21
-4.83858
0
LINE
8
BLACK
6
CONTINUOUS
10
6.57539
20
-4.83858
11
6.57424
21
-4.83847
0
LINE
8
BLACK
6
CONTINUOUS
10
6.57424
20
-4.83847
11
6.57313
21
-4.83813
0
LINE
8
BLACK
6
CONTINUOUS
10
6.57313
20
-4.83813
11
6.57211
21
-4.83759
0
LINE
8
BLACK
6
CONTINUOUS
10
6.57211
20
-4.83759
11
6.57122
21
-4.83685
0
LINE
8
BLACK
6
CONTINUOUS
10
6.57122
20
-4.83685
11
6.57048
21
-4.83596
0
LINE
8
BLACK
6
CONTINUOUS
10
6.57048
20
-4.83596
11
6.56994
21
-4.83494
0
LINE
8
BLACK
6
CONTINUOUS
10
6.56994
20
-4.83494
11
6.5696
21
-4.83383
0
LINE
8
BLACK
6
CONTINUOUS
10
6.5696
20
-4.83383
11
6.56949
21
-4.83268
0
LINE
8
BLACK
6
CONTINUOUS
10
6.56949
20
-4.83268
11
6.56949
21
-4.76772
0
LINE
8
BLACK
6
CONTINUOUS
10
6.56949
20
-4.76772
11
6.5696
21
-4.76656
0
LINE
8
BLACK
6
CONTINUOUS
10
6.5696
20
-4.76656
11
6.56994
21
-4.76546
0
LINE
8
BLACK
6
CONTINUOUS
10
6.56994
20
-4.76546
11
6.57048
21
-4.76444
0
LINE
8
BLACK
6
CONTINUOUS
10
6.57048
20
-4.76444
11
6.57122
21
-4.76354
0
LINE
8
BLACK
6
CONTINUOUS
10
6.57122
20
-4.76354
11
6.57211
21
-4.76281
0
LINE
8
BLACK
6
CONTINUOUS
10
6.57211
20
-4.76281
11
6.57313
21
-4.76226
0
LINE
8
BLACK
6
CONTINUOUS
10
6.57313
20
-4.76226
11
6.57424
21
-4.76192
0
LINE
8
BLACK
6
CONTINUOUS
10
6.57424
20
-4.76192
11
6.57539
21
-4.76181
0
LINE
8
BLACK
6
CONTINUOUS
10
6.57539
20
-4.76181
11
6.5872
21
-4.76181
0
LINE
8
BLACK
6
CONTINUOUS
10
6.5872
20
-4.76181
11
6.58836
21
-4.76192
0
LINE
8
BLACK
6
CONTINUOUS
10
6.27362
20
-4.82874
11
6.23819
21
-4.82874
0
LINE
8
BLACK
6
CONTINUOUS
10
6.23819
20
-4.82874
11
6.23819
21
-4.79724
0
LINE
8
BLACK
6
CONTINUOUS
10
6.23819
20
-4.79724
11
6.27362
21
-4.79724
0
LINE
8
BLACK
6
CONTINUOUS
10
6.27362
20
-4.79724
11
6.27362
21
-4.82874
0
LINE
8
BLACK
6
CONTINUOUS
10
6.18327
20
-4.81083
11
6.10453
21
-4.81083
0
LINE
8
BLACK
6
CONTINUOUS
10
6.10453
20
-4.81083
11
6.10453
21
-4.77539
0
LINE
8
BLACK
6
CONTINUOUS
10
6.10453
20
-4.77539
11
6.18327
21
-4.77539
0
LINE
8
BLACK
6
CONTINUOUS
10
6.18327
20
-4.77539
11
6.18327
21
-4.81083
0
LINE
8
BLACK
6
CONTINUOUS
10
6.35236
20
-4.79134
11
6.31693
21
-4.79134
0
LINE
8
BLACK
6
CONTINUOUS
10
6.31693
20
-4.79134
11
6.31693
21
-4.75984
0
LINE
8
BLACK
6
CONTINUOUS
10
6.31693
20
-4.75984
11
6.35236
21
-4.75984
0
LINE
8
BLACK
6
CONTINUOUS
10
6.35236
20
-4.75984
11
6.35236
21
-4.79134
0
LINE
8
BLACK
6
CONTINUOUS
10
6.45999
20
-4.74034
11
6.46175
21
-4.74087
0
LINE
8
BLACK
6
CONTINUOUS
10
6.46175
20
-4.74087
11
6.46336
21
-4.74173
0
LINE
8
BLACK
6
CONTINUOUS
10
6.46336
20
-4.74173
11
6.46478
21
-4.7429
0
LINE
8
BLACK
6
CONTINUOUS
10
6.46478
20
-4.7429
11
6.46594
21
-4.74431
0
LINE
8
BLACK
6
CONTINUOUS
10
6.46594
20
-4.74431
11
6.46681
21
-4.74593
0
LINE
8
BLACK
6
CONTINUOUS
10
6.46681
20
-4.74593
11
6.46734
21
-4.74768
0
LINE
8
BLACK
6
CONTINUOUS
10
6.46734
20
-4.74768
11
6.46752
21
-4.74951
0
LINE
8
BLACK
6
CONTINUOUS
10
6.46752
20
-4.74951
11
6.46752
21
-4.77215
0
LINE
8
BLACK
6
CONTINUOUS
10
6.46752
20
-4.77215
11
6.46734
21
-4.77397
0
LINE
8
BLACK
6
CONTINUOUS
10
6.46734
20
-4.77397
11
6.46681
21
-4.77572
0
LINE
8
BLACK
6
CONTINUOUS
10
6.46681
20
-4.77572
11
6.46594
21
-4.77734
0
LINE
8
BLACK
6
CONTINUOUS
10
6.46594
20
-4.77734
11
6.46478
21
-4.77876
0
LINE
8
BLACK
6
CONTINUOUS
10
6.46478
20
-4.77876
11
6.46336
21
-4.77992
0
LINE
8
BLACK
6
CONTINUOUS
10
6.46336
20
-4.77992
11
6.46175
21
-4.78078
0
LINE
8
BLACK
6
CONTINUOUS
10
6.46175
20
-4.78078
11
6.45999
21
-4.78132
0
LINE
8
BLACK
6
CONTINUOUS
10
6.45999
20
-4.78132
11
6.45817
21
-4.7815
0
LINE
8
BLACK
6
CONTINUOUS
10
6.45817
20
-4.7815
11
6.43947
21
-4.7815
0
LINE
8
BLACK
6
CONTINUOUS
10
6.43947
20
-4.7815
11
6.43764
21
-4.78132
0
LINE
8
BLACK
6
CONTINUOUS
10
6.43764
20
-4.78132
11
6.43589
21
-4.78078
0
LINE
8
BLACK
6
CONTINUOUS
10
6.43589
20
-4.78078
11
6.43427
21
-4.77992
0
LINE
8
BLACK
6
CONTINUOUS
10
6.43427
20
-4.77992
11
6.43286
21
-4.77876
0
LINE
8
BLACK
6
CONTINUOUS
10
6.43286
20
-4.77876
11
6.43169
21
-4.77734
0
LINE
8
BLACK
6
CONTINUOUS
10
6.43169
20
-4.77734
11
6.43083
21
-4.77572
0
LINE
8
BLACK
6
CONTINUOUS
10
6.43083
20
-4.77572
11
6.4303
21
-4.77397
0
LINE
8
BLACK
6
CONTINUOUS
10
6.4303
20
-4.77397
11
6.43012
21
-4.77215
0
LINE
8
BLACK
6
CONTINUOUS
10
6.43012
20
-4.77215
11
6.43012
21
-4.74951
0
LINE
8
BLACK
6
CONTINUOUS
10
6.43012
20
-4.74951
11
6.4303
21
-4.74768
0
LINE
8
BLACK
6
CONTINUOUS
10
6.4303
20
-4.74768
11
6.43083
21
-4.74593
0
LINE
8
BLACK
6
CONTINUOUS
10
6.43083
20
-4.74593
11
6.43169
21
-4.74431
0
LINE
8
BLACK
6
CONTINUOUS
10
6.43169
20
-4.74431
11
6.43286
21
-4.7429
0
LINE
8
BLACK
6
CONTINUOUS
10
6.43286
20
-4.7429
11
6.43427
21
-4.74173
0
LINE
8
BLACK
6
CONTINUOUS
10
6.43427
20
-4.74173
11
6.43589
21
-4.74087
0
LINE
8
BLACK
6
CONTINUOUS
10
6.43589
20
-4.74087
11
6.43764
21
-4.74034
0
LINE
8
BLACK
6
CONTINUOUS
10
6.43764
20
-4.74034
11
6.43947
21
-4.74016
0
LINE
8
BLACK
6
CONTINUOUS
10
6.43947
20
-4.74016
11
6.45817
21
-4.74016
0
LINE
8
BLACK
6
CONTINUOUS
10
6.45817
20
-4.74016
11
6.45999
21
-4.74034
0
LINE
8
BLACK
6
CONTINUOUS
10
6.18327
20
-4.76083
11
6.10453
21
-4.76083
0
LINE
8
BLACK
6
CONTINUOUS
10
6.10453
20
-4.76083
11
6.10453
21
-4.72539
0
LINE
8
BLACK
6
CONTINUOUS
10
6.10453
20
-4.72539
11
6.18327
21
-4.72539
0
LINE
8
BLACK
6
CONTINUOUS
10
6.18327
20
-4.72539
11
6.18327
21
-4.76083
0
LINE
8
BLACK
6
CONTINUOUS
10
5.84823
20
-4.75591
11
5.65138
21
-4.75591
0
LINE
8
BLACK
6
CONTINUOUS
10
5.65138
20
-4.75591
11
5.65138
21
-4.55906
0
LINE
8
BLACK
6
CONTINUOUS
10
5.65138
20
-4.55906
11
5.84823
21
-4.55906
0
LINE
8
BLACK
6
CONTINUOUS
10
5.84823
20
-4.55906
11
5.84823
21
-4.75591
0
LINE
8
BLACK
6
CONTINUOUS
10
6.27362
20
-4.75394
11
6.23819
21
-4.75394
0
LINE
8
BLACK
6
CONTINUOUS
10
6.23819
20
-4.75394
11
6.23819
21
-4.72244
0
LINE
8
BLACK
6
CONTINUOUS
10
6.23819
20
-4.72244
11
6.27362
21
-4.72244
0
LINE
8
BLACK
6
CONTINUOUS
10
6.27362
20
-4.72244
11
6.27362
21
-4.75394
0
LINE
8
BLACK
6
CONTINUOUS
10
6.18327
20
-4.71083
11
6.10453
21
-4.71083
0
LINE
8
BLACK
6
CONTINUOUS
10
6.10453
20
-4.71083
11
6.10453
21
-4.67539
0
LINE
8
BLACK
6
CONTINUOUS
10
6.10453
20
-4.67539
11
6.18327
21
-4.67539
0
LINE
8
BLACK
6
CONTINUOUS
10
6.18327
20
-4.67539
11
6.18327
21
-4.71083
0
LINE
8
BLACK
6
CONTINUOUS
10
6.33893
20
-4.64683
11
6.34068
21
-4.64737
0
LINE
8
BLACK
6
CONTINUOUS
10
6.34068
20
-4.64737
11
6.3423
21
-4.64823
0
LINE
8
BLACK
6
CONTINUOUS
10
6.3423
20
-4.64823
11
6.34372
21
-4.64939
0
LINE
8
BLACK
6
CONTINUOUS
10
6.34372
20
-4.64939
11
6.34488
21
-4.65081
0
LINE
8
BLACK
6
CONTINUOUS
10
6.34488
20
-4.65081
11
6.34574
21
-4.65243
0
LINE
8
BLACK
6
CONTINUOUS
10
6.34574
20
-4.65243
11
6.34628
21
-4.65418
0
LINE
8
BLACK
6
CONTINUOUS
10
6.34628
20
-4.65418
11
6.34646
21
-4.656
0
LINE
8
BLACK
6
CONTINUOUS
10
6.34646
20
-4.656
11
6.34646
21
-4.6747
0
LINE
8
BLACK
6
CONTINUOUS
10
6.34646
20
-4.6747
11
6.34628
21
-4.67653
0
LINE
8
BLACK
6
CONTINUOUS
10
6.34628
20
-4.67653
11
6.34574
21
-4.67828
0
LINE
8
BLACK
6
CONTINUOUS
10
6.34574
20
-4.67828
11
6.34488
21
-4.6799
0
LINE
8
BLACK
6
CONTINUOUS
10
6.34488
20
-4.6799
11
6.34372
21
-4.68132
0
LINE
8
BLACK
6
CONTINUOUS
10
6.34372
20
-4.68132
11
6.3423
21
-4.68248
0
LINE
8
BLACK
6
CONTINUOUS
10
6.3423
20
-4.68248
11
6.34068
21
-4.68334
0
LINE
8
BLACK
6
CONTINUOUS
10
6.34068
20
-4.68334
11
6.33893
21
-4.68388
0
LINE
8
BLACK
6
CONTINUOUS
10
6.33893
20
-4.68388
11
6.33711
21
-4.68406
0
LINE
8
BLACK
6
CONTINUOUS
10
6.33711
20
-4.68406
11
6.31447
21
-4.68406
0
LINE
8
BLACK
6
CONTINUOUS
10
6.31447
20
-4.68406
11
6.31264
21
-4.68388
0
LINE
8
BLACK
6
CONTINUOUS
10
6.31264
20
-4.68388
11
6.31089
21
-4.68334
0
LINE
8
BLACK
6
CONTINUOUS
10
6.31089
20
-4.68334
11
6.30927
21
-4.68248
0
LINE
8
BLACK
6
CONTINUOUS
10
6.30927
20
-4.68248
11
6.30786
21
-4.68132
0
LINE
8
BLACK
6
CONTINUOUS
10
6.30786
20
-4.68132
11
6.30669
21
-4.6799
0
LINE
8
BLACK
6
CONTINUOUS
10
6.30669
20
-4.6799
11
6.30583
21
-4.67828
0
LINE
8
BLACK
6
CONTINUOUS
10
6.30583
20
-4.67828
11
6.3053
21
-4.67653
0
LINE
8
BLACK
6
CONTINUOUS
10
6.3053
20
-4.67653
11
6.30512
21
-4.6747
0
LINE
8
BLACK
6
CONTINUOUS
10
6.30512
20
-4.6747
11
6.30512
21
-4.656
0
LINE
8
BLACK
6
CONTINUOUS
10
6.30512
20
-4.656
11
6.3053
21
-4.65418
0
LINE
8
BLACK
6
CONTINUOUS
10
6.3053
20
-4.65418
11
6.30583
21
-4.65243
0
LINE
8
BLACK
6
CONTINUOUS
10
6.30583
20
-4.65243
11
6.30669
21
-4.65081
0
LINE
8
BLACK
6
CONTINUOUS
10
6.30669
20
-4.65081
11
6.30786
21
-4.64939
0
LINE
8
BLACK
6
CONTINUOUS
10
6.30786
20
-4.64939
11
6.30927
21
-4.64823
0
LINE
8
BLACK
6
CONTINUOUS
10
6.30927
20
-4.64823
11
6.31089
21
-4.64737
0
LINE
8
BLACK
6
CONTINUOUS
10
6.31089
20
-4.64737
11
6.31264
21
-4.64683
0
LINE
8
BLACK
6
CONTINUOUS
10
6.31264
20
-4.64683
11
6.31447
21
-4.64665
0
LINE
8
BLACK
6
CONTINUOUS
10
6.31447
20
-4.64665
11
6.33711
21
-4.64665
0
LINE
8
BLACK
6
CONTINUOUS
10
6.33711
20
-4.64665
11
6.33893
21
-4.64683
0
LINE
8
BLACK
6
CONTINUOUS
10
6.27003
20
-4.64683
11
6.27179
21
-4.64737
0
LINE
8
BLACK
6
CONTINUOUS
10
6.27179
20
-4.64737
11
6.2734
21
-4.64823
0
LINE
8
BLACK
6
CONTINUOUS
10
6.2734
20
-4.64823
11
6.27482
21
-4.64939
0
LINE
8
BLACK
6
CONTINUOUS
10
6.27482
20
-4.64939
11
6.27598
21
-4.65081
0
LINE
8
BLACK
6
CONTINUOUS
10
6.27598
20
-4.65081
11
6.27685
21
-4.65243
0
LINE
8
BLACK
6
CONTINUOUS
10
6.27685
20
-4.65243
11
6.27738
21
-4.65418
0
LINE
8
BLACK
6
CONTINUOUS
10
6.27738
20
-4.65418
11
6.27756
21
-4.656
0
LINE
8
BLACK
6
CONTINUOUS
10
6.27756
20
-4.656
11
6.27756
21
-4.6747
0
LINE
8
BLACK
6
CONTINUOUS
10
6.27756
20
-4.6747
11
6.27738
21
-4.67653
0
LINE
8
BLACK
6
CONTINUOUS
10
6.27738
20
-4.67653
11
6.27685
21
-4.67828
0
LINE
8
BLACK
6
CONTINUOUS
10
6.27685
20
-4.67828
11
6.27598
21
-4.6799
0
LINE
8
BLACK
6
CONTINUOUS
10
6.27598
20
-4.6799
11
6.27482
21
-4.68132
0
LINE
8
BLACK
6
CONTINUOUS
10
6.27482
20
-4.68132
11
6.2734
21
-4.68248
0
LINE
8
BLACK
6
CONTINUOUS
10
6.2734
20
-4.68248
11
6.27179
21
-4.68334
0
LINE
8
BLACK
6
CONTINUOUS
10
6.27179
20
-4.68334
11
6.27003
21
-4.68388
0
LINE
8
BLACK
6
CONTINUOUS
10
6.27003
20
-4.68388
11
6.26821
21
-4.68406
0
LINE
8
BLACK
6
CONTINUOUS
10
6.26821
20
-4.68406
11
6.24557
21
-4.68406
0
LINE
8
BLACK
6
CONTINUOUS
10
6.24557
20
-4.68406
11
6.24375
21
-4.68388
0
LINE
8
BLACK
6
CONTINUOUS
10
6.24375
20
-4.68388
11
6.24199
21
-4.68334
0
LINE
8
BLACK
6
CONTINUOUS
10
6.24199
20
-4.68334
11
6.24038
21
-4.68248
0
LINE
8
BLACK
6
CONTINUOUS
10
6.24038
20
-4.68248
11
6.23896
21
-4.68132
0
LINE
8
BLACK
6
CONTINUOUS
10
6.23896
20
-4.68132
11
6.2378
21
-4.6799
0
LINE
8
BLACK
6
CONTINUOUS
10
6.2378
20
-4.6799
11
6.23693
21
-4.67828
0
LINE
8
BLACK
6
CONTINUOUS
10
6.23693
20
-4.67828
11
6.2364
21
-4.67653
0
LINE
8
BLACK
6
CONTINUOUS
10
6.2364
20
-4.67653
11
6.23622
21
-4.6747
0
LINE
8
BLACK
6
CONTINUOUS
10
6.23622
20
-4.6747
11
6.23622
21
-4.656
0
LINE
8
BLACK
6
CONTINUOUS
10
6.23622
20
-4.656
11
6.2364
21
-4.65418
0
LINE
8
BLACK
6
CONTINUOUS
10
6.2364
20
-4.65418
11
6.23693
21
-4.65243
0
LINE
8
BLACK
6
CONTINUOUS
10
6.23693
20
-4.65243
11
6.2378
21
-4.65081
0
LINE
8
BLACK
6
CONTINUOUS
10
6.2378
20
-4.65081
11
6.23896
21
-4.64939
0
LINE
8
BLACK
6
CONTINUOUS
10
6.23896
20
-4.64939
11
6.24038
21
-4.64823
0
LINE
8
BLACK
6
CONTINUOUS
10
6.24038
20
-4.64823
11
6.24199
21
-4.64737
0
LINE
8
BLACK
6
CONTINUOUS
10
6.24199
20
-4.64737
11
6.24375
21
-4.64683
0
LINE
8
BLACK
6
CONTINUOUS
10
6.24375
20
-4.64683
11
6.24557
21
-4.64665
0
LINE
8
BLACK
6
CONTINUOUS
10
6.24557
20
-4.64665
11
6.26821
21
-4.64665
0
LINE
8
BLACK
6
CONTINUOUS
10
6.26821
20
-4.64665
11
6.27003
21
-4.64683
0
LINE
8
BLACK
6
CONTINUOUS
10
6.53775
20
-4.6429
11
6.5395
21
-4.64343
0
LINE
8
BLACK
6
CONTINUOUS
10
6.5395
20
-4.64343
11
6.54112
21
-4.64429
0
LINE
8
BLACK
6
CONTINUOUS
10
6.54112
20
-4.64429
11
6.54254
21
-4.64546
0
LINE
8
BLACK
6
CONTINUOUS
10
6.54254
20
-4.64546
11
6.5437
21
-4.64687
0
LINE
8
BLACK
6
CONTINUOUS
10
6.5437
20
-4.64687
11
6.54456
21
-4.64849
0
LINE
8
BLACK
6
CONTINUOUS
10
6.54456
20
-4.64849
11
6.5451
21
-4.65024
0
LINE
8
BLACK
6
CONTINUOUS
10
6.5451
20
-4.65024
11
6.54528
21
-4.65207
0
LINE
8
BLACK
6
CONTINUOUS
10
6.54528
20
-4.65207
11
6.54528
21
-4.67077
0
LINE
8
BLACK
6
CONTINUOUS
10
6.54528
20
-4.67077
11
6.5451
21
-4.67259
0
LINE
8
BLACK
6
CONTINUOUS
10
6.5451
20
-4.67259
11
6.54456
21
-4.67435
0
LINE
8
BLACK
6
CONTINUOUS
10
6.54456
20
-4.67435
11
6.5437
21
-4.67596
0
LINE
8
BLACK
6
CONTINUOUS
10
6.5437
20
-4.67596
11
6.54254
21
-4.67738
0
LINE
8
BLACK
6
CONTINUOUS
10
6.54254
20
-4.67738
11
6.54112
21
-4.67854
0
LINE
8
BLACK
6
CONTINUOUS
10
6.54112
20
-4.67854
11
6.5395
21
-4.67941
0
LINE
8
BLACK
6
CONTINUOUS
10
6.5395
20
-4.67941
11
6.53775
21
-4.67994
0
LINE
8
BLACK
6
CONTINUOUS
10
6.53775
20
-4.67994
11
6.53593
21
-4.68012
0
LINE
8
BLACK
6
CONTINUOUS
10
6.53593
20
-4.68012
11
6.51329
21
-4.68012
0
LINE
8
BLACK
6
CONTINUOUS
10
6.51329
20
-4.68012
11
6.51146
21
-4.67994
0
LINE
8
BLACK
6
CONTINUOUS
10
6.51146
20
-4.67994
11
6.50971
21
-4.67941
0
LINE
8
BLACK
6
CONTINUOUS
10
6.50971
20
-4.67941
11
6.50809
21
-4.67854
0
LINE
8
BLACK
6
CONTINUOUS
10
6.50809
20
-4.67854
11
6.50668
21
-4.67738
0
LINE
8
BLACK
6
CONTINUOUS
10
6.50668
20
-4.67738
11
6.50551
21
-4.67596
0
LINE
8
BLACK
6
CONTINUOUS
10
6.50551
20
-4.67596
11
6.50465
21
-4.67435
0
LINE
8
BLACK
6
CONTINUOUS
10
6.50465
20
-4.67435
11
6.50412
21
-4.67259
0
LINE
8
BLACK
6
CONTINUOUS
10
6.50412
20
-4.67259
11
6.50394
21
-4.67077
0
LINE
8
BLACK
6
CONTINUOUS
10
6.50394
20
-4.67077
11
6.50394
21
-4.65207
0
LINE
8
BLACK
6
CONTINUOUS
10
6.50394
20
-4.65207
11
6.50412
21
-4.65024
0
LINE
8
BLACK
6
CONTINUOUS
10
6.50412
20
-4.65024
11
6.50465
21
-4.64849
0
LINE
8
BLACK
6
CONTINUOUS
10
6.50465
20
-4.64849
11
6.50551
21
-4.64687
0
LINE
8
BLACK
6
CONTINUOUS
10
6.50551
20
-4.64687
11
6.50668
21
-4.64546
0
LINE
8
BLACK
6
CONTINUOUS
10
6.50668
20
-4.64546
11
6.50809
21
-4.64429
0
LINE
8
BLACK
6
CONTINUOUS
10
6.50809
20
-4.64429
11
6.50971
21
-4.64343
0
LINE
8
BLACK
6
CONTINUOUS
10
6.50971
20
-4.64343
11
6.51146
21
-4.6429
0
LINE
8
BLACK
6
CONTINUOUS
10
6.51146
20
-4.6429
11
6.51329
21
-4.64272
0
LINE
8
BLACK
6
CONTINUOUS
10
6.51329
20
-4.64272
11
6.53593
21
-4.64272
0
LINE
8
BLACK
6
CONTINUOUS
10
6.53593
20
-4.64272
11
6.53775
21
-4.6429
0
LINE
8
BLACK
6
CONTINUOUS
10
6.60665
20
-4.6429
11
6.6084
21
-4.64343
0
LINE
8
BLACK
6
CONTINUOUS
10
6.6084
20
-4.64343
11
6.61002
21
-4.64429
0
LINE
8
BLACK
6
CONTINUOUS
10
6.61002
20
-4.64429
11
6.61143
21
-4.64546
0
LINE
8
BLACK
6
CONTINUOUS
10
6.61143
20
-4.64546
11
6.6126
21
-4.64687
0
LINE
8
BLACK
6
CONTINUOUS
10
6.6126
20
-4.64687
11
6.61346
21
-4.64849
0
LINE
8
BLACK
6
CONTINUOUS
10
6.61346
20
-4.64849
11
6.61399
21
-4.65024
0
LINE
8
BLACK
6
CONTINUOUS
10
6.61399
20
-4.65024
11
6.61417
21
-4.65207
0
LINE
8
BLACK
6
CONTINUOUS
10
6.61417
20
-4.65207
11
6.61417
21
-4.67077
0
LINE
8
BLACK
6
CONTINUOUS
10
6.61417
20
-4.67077
11
6.61399
21
-4.67259
0
LINE
8
BLACK
6
CONTINUOUS
10
6.61399
20
-4.67259
11
6.61346
21
-4.67435
0
LINE
8
BLACK
6
CONTINUOUS
10
6.61346
20
-4.67435
11
6.6126
21
-4.67596
0
LINE
8
BLACK
6
CONTINUOUS
10
6.6126
20
-4.67596
11
6.61143
21
-4.67738
0
LINE
8
BLACK
6
CONTINUOUS
10
6.61143
20
-4.67738
11
6.61002
21
-4.67854
0
LINE
8
BLACK
6
CONTINUOUS
10
6.61002
20
-4.67854
11
6.6084
21
-4.67941
0
LINE
8
BLACK
6
CONTINUOUS
10
6.6084
20
-4.67941
11
6.60665
21
-4.67994
0
LINE
8
BLACK
6
CONTINUOUS
10
6.60665
20
-4.67994
11
6.60482
21
-4.68012
0
LINE
8
BLACK
6
CONTINUOUS
10
6.60482
20
-4.68012
11
6.58219
21
-4.68012
0
LINE
8
BLACK
6
CONTINUOUS
10
6.58219
20
-4.68012
11
6.58036
21
-4.67994
0
LINE
8
BLACK
6
CONTINUOUS
10
6.58036
20
-4.67994
11
6.57861
21
-4.67941
0
LINE
8
BLACK
6
CONTINUOUS
10
6.57861
20
-4.67941
11
6.57699
21
-4.67854
0
LINE
8
BLACK
6
CONTINUOUS
10
6.57699
20
-4.67854
11
6.57557
21
-4.67738
0
LINE
8
BLACK
6
CONTINUOUS
10
6.57557
20
-4.67738
11
6.57441
21
-4.67596
0
LINE
8
BLACK
6
CONTINUOUS
10
6.57441
20
-4.67596
11
6.57355
21
-4.67435
0
LINE
8
BLACK
6
CONTINUOUS
10
6.57355
20
-4.67435
11
6.57301
21
-4.67259
0
LINE
8
BLACK
6
CONTINUOUS
10
6.57301
20
-4.67259
11
6.57283
21
-4.67077
0
LINE
8
BLACK
6
CONTINUOUS
10
6.57283
20
-4.67077
11
6.57283
21
-4.65207
0
LINE
8
BLACK
6
CONTINUOUS
10
6.57283
20
-4.65207
11
6.57301
21
-4.65024
0
LINE
8
BLACK
6
CONTINUOUS
10
6.57301
20
-4.65024
11
6.57355
21
-4.64849
0
LINE
8
BLACK
6
CONTINUOUS
10
6.57355
20
-4.64849
11
6.57441
21
-4.64687
0
LINE
8
BLACK
6
CONTINUOUS
10
6.57441
20
-4.64687
11
6.57557
21
-4.64546
0
LINE
8
BLACK
6
CONTINUOUS
10
6.57557
20
-4.64546
11
6.57699
21
-4.64429
0
LINE
8
BLACK
6
CONTINUOUS
10
6.57699
20
-4.64429
11
6.57861
21
-4.64343
0
LINE
8
BLACK
6
CONTINUOUS
10
6.57861
20
-4.64343
11
6.58036
21
-4.6429
0
LINE
8
BLACK
6
CONTINUOUS
10
6.58036
20
-4.6429
11
6.58219
21
-4.64272
0
LINE
8
BLACK
6
CONTINUOUS
10
6.58219
20
-4.64272
11
6.60482
21
-4.64272
0
LINE
8
BLACK
6
CONTINUOUS
10
6.60482
20
-4.64272
11
6.60665
21
-4.6429
0
LINE
8
BLACK
6
CONTINUOUS
10
6.18327
20
-4.66083
11
6.10453
21
-4.66083
0
LINE
8
BLACK
6
CONTINUOUS
10
6.10453
20
-4.66083
11
6.10453
21
-4.62539
0
LINE
8
BLACK
6
CONTINUOUS
10
6.10453
20
-4.62539
11
6.18327
21
-4.62539
0
LINE
8
BLACK
6
CONTINUOUS
10
6.18327
20
-4.62539
11
6.18327
21
-4.66083
0
LINE
8
BLACK
6
CONTINUOUS
10
6.30547
20
-4.5799
11
6.30722
21
-4.58044
0
LINE
8
BLACK
6
CONTINUOUS
10
6.30722
20
-4.58044
11
6.30884
21
-4.5813
0
LINE
8
BLACK
6
CONTINUOUS
10
6.30884
20
-4.5813
11
6.31025
21
-4.58246
0
LINE
8
BLACK
6
CONTINUOUS
10
6.31025
20
-4.58246
11
6.31142
21
-4.58388
0
LINE
8
BLACK
6
CONTINUOUS
10
6.31142
20
-4.58388
11
6.31228
21
-4.5855
0
LINE
8
BLACK
6
CONTINUOUS
10
6.31228
20
-4.5855
11
6.31281
21
-4.58725
0
LINE
8
BLACK
6
CONTINUOUS
10
6.31281
20
-4.58725
11
6.31299
21
-4.58907
0
LINE
8
BLACK
6
CONTINUOUS
10
6.31299
20
-4.58907
11
6.31299
21
-4.60778
0
LINE
8
BLACK
6
CONTINUOUS
10
6.31299
20
-4.60778
11
6.31281
21
-4.6096
0
LINE
8
BLACK
6
CONTINUOUS
10
6.31281
20
-4.6096
11
6.31228
21
-4.61135
0
LINE
8
BLACK
6
CONTINUOUS
10
6.31228
20
-4.61135
11
6.31142
21
-4.61297
0
LINE
8
BLACK
6
CONTINUOUS
10
6.31142
20
-4.61297
11
6.31025
21
-4.61439
0
LINE
8
BLACK
6
CONTINUOUS
10
6.31025
20
-4.61439
11
6.30884
21
-4.61555
0
LINE
8
BLACK
6
CONTINUOUS
10
6.30884
20
-4.61555
11
6.30722
21
-4.61641
0
LINE
8
BLACK
6
CONTINUOUS
10
6.30722
20
-4.61641
11
6.30547
21
-4.61695
0
LINE
8
BLACK
6
CONTINUOUS
10
6.30547
20
-4.61695
11
6.30364
21
-4.61713
0
LINE
8
BLACK
6
CONTINUOUS
10
6.30364
20
-4.61713
11
6.281
21
-4.61713
0
LINE
8
BLACK
6
CONTINUOUS
10
6.281
20
-4.61713
11
6.27918
21
-4.61695
0
LINE
8
BLACK
6
CONTINUOUS
10
6.27918
20
-4.61695
11
6.27743
21
-4.61641
0
LINE
8
BLACK
6
CONTINUOUS
10
6.27743
20
-4.61641
11
6.27581
21
-4.61555
0
LINE
8
BLACK
6
CONTINUOUS
10
6.27581
20
-4.61555
11
6.27439
21
-4.61439
0
LINE
8
BLACK
6
CONTINUOUS
10
6.27439
20
-4.61439
11
6.27323
21
-4.61297
0
LINE
8
BLACK
6
CONTINUOUS
10
6.27323
20
-4.61297
11
6.27237
21
-4.61135
0
LINE
8
BLACK
6
CONTINUOUS
10
6.27237
20
-4.61135
11
6.27183
21
-4.6096
0
LINE
8
BLACK
6
CONTINUOUS
10
6.27183
20
-4.6096
11
6.27165
21
-4.60778
0
LINE
8
BLACK
6
CONTINUOUS
10
6.27165
20
-4.60778
11
6.27165
21
-4.58907
0
LINE
8
BLACK
6
CONTINUOUS
10
6.27165
20
-4.58907
11
6.27183
21
-4.58725
0
LINE
8
BLACK
6
CONTINUOUS
10
6.27183
20
-4.58725
11
6.27237
21
-4.5855
0
LINE
8
BLACK
6
CONTINUOUS
10
6.27237
20
-4.5855
11
6.27323
21
-4.58388
0
LINE
8
BLACK
6
CONTINUOUS
10
6.27323
20
-4.58388
11
6.27439
21
-4.58246
0
LINE
8
BLACK
6
CONTINUOUS
10
6.27439
20
-4.58246
11
6.27581
21
-4.5813
0
LINE
8
BLACK
6
CONTINUOUS
10
6.27581
20
-4.5813
11
6.27743
21
-4.58044
0
LINE
8
BLACK
6
CONTINUOUS
10
6.27743
20
-4.58044
11
6.27918
21
-4.5799
0
LINE
8
BLACK
6
CONTINUOUS
10
6.27918
20
-4.5799
11
6.281
21
-4.57972
0
LINE
8
BLACK
6
CONTINUOUS
10
6.281
20
-4.57972
11
6.30364
21
-4.57972
0
LINE
8
BLACK
6
CONTINUOUS
10
6.30364
20
-4.57972
11
6.30547
21
-4.5799
0
LINE
8
BLACK
6
CONTINUOUS
10
6.37436
20
-4.5799
11
6.37612
21
-4.58044
0
LINE
8
BLACK
6
CONTINUOUS
10
6.37612
20
-4.58044
11
6.37773
21
-4.5813
0
LINE
8
BLACK
6
CONTINUOUS
10
6.37773
20
-4.5813
11
6.37915
21
-4.58246
0
LINE
8
BLACK
6
CONTINUOUS
10
6.37915
20
-4.58246
11
6.38031
21
-4.58388
0
LINE
8
BLACK
6
CONTINUOUS
10
6.38031
20
-4.58388
11
6.38118
21
-4.5855
0
LINE
8
BLACK
6
CONTINUOUS
10
6.38118
20
-4.5855
11
6.38171
21
-4.58725
0
LINE
8
BLACK
6
CONTINUOUS
10
6.38171
20
-4.58725
11
6.38189
21
-4.58907
0
LINE
8
BLACK
6
CONTINUOUS
10
6.38189
20
-4.58907
11
6.38189
21
-4.60778
0
LINE
8
BLACK
6
CONTINUOUS
10
6.38189
20
-4.60778
11
6.38171
21
-4.6096
0
LINE
8
BLACK
6
CONTINUOUS
10
6.38171
20
-4.6096
11
6.38118
21
-4.61135
0
LINE
8
BLACK
6
CONTINUOUS
10
6.38118
20
-4.61135
11
6.38031
21
-4.61297
0
LINE
8
BLACK
6
CONTINUOUS
10
6.38031
20
-4.61297
11
6.37915
21
-4.61439
0
LINE
8
BLACK
6
CONTINUOUS
10
6.37915
20
-4.61439
11
6.37773
21
-4.61555
0
LINE
8
BLACK
6
CONTINUOUS
10
6.37773
20
-4.61555
11
6.37612
21
-4.61641
0
LINE
8
BLACK
6
CONTINUOUS
10
6.37612
20
-4.61641
11
6.37436
21
-4.61695
0
LINE
8
BLACK
6
CONTINUOUS
10
6.37436
20
-4.61695
11
6.37254
21
-4.61713
0
LINE
8
BLACK
6
CONTINUOUS
10
6.37254
20
-4.61713
11
6.3499
21
-4.61713
0
LINE
8
BLACK
6
CONTINUOUS
10
6.3499
20
-4.61713
11
6.34808
21
-4.61695
0
LINE
8
BLACK
6
CONTINUOUS
10
6.34808
20
-4.61695
11
6.34632
21
-4.61641
0
LINE
8
BLACK
6
CONTINUOUS
10
6.34632
20
-4.61641
11
6.34471
21
-4.61555
0
LINE
8
BLACK
6
CONTINUOUS
10
6.34471
20
-4.61555
11
6.34329
21
-4.61439
0
LINE
8
BLACK
6
CONTINUOUS
10
6.34329
20
-4.61439
11
6.34213
21
-4.61297
0
LINE
8
BLACK
6
CONTINUOUS
10
6.34213
20
-4.61297
11
6.34126
21
-4.61135
0
LINE
8
BLACK
6
CONTINUOUS
10
6.34126
20
-4.61135
11
6.34073
21
-4.6096
0
LINE
8
BLACK
6
CONTINUOUS
10
6.34073
20
-4.6096
11
6.34055
21
-4.60778
0
LINE
8
BLACK
6
CONTINUOUS
10
6.34055
20
-4.60778
11
6.34055
21
-4.58907
0
LINE
8
BLACK
6
CONTINUOUS
10
6.34055
20
-4.58907
11
6.34073
21
-4.58725
0
LINE
8
BLACK
6
CONTINUOUS
10
6.34073
20
-4.58725
11
6.34126
21
-4.5855
0
LINE
8
BLACK
6
CONTINUOUS
10
6.34126
20
-4.5855
11
6.34213
21
-4.58388
0
LINE
8
BLACK
6
CONTINUOUS
10
6.34213
20
-4.58388
11
6.34329
21
-4.58246
0
LINE
8
BLACK
6
CONTINUOUS
10
6.34329
20
-4.58246
11
6.34471
21
-4.5813
0
LINE
8
BLACK
6
CONTINUOUS
10
6.34471
20
-4.5813
11
6.34632
21
-4.58044
0
LINE
8
BLACK
6
CONTINUOUS
10
6.34632
20
-4.58044
11
6.34808
21
-4.5799
0
LINE
8
BLACK
6
CONTINUOUS
10
6.34808
20
-4.5799
11
6.3499
21
-4.57972
0
LINE
8
BLACK
6
CONTINUOUS
10
6.3499
20
-4.57972
11
6.37254
21
-4.57972
0
LINE
8
BLACK
6
CONTINUOUS
10
6.37254
20
-4.57972
11
6.37436
21
-4.5799
0
LINE
8
BLACK
6
CONTINUOUS
10
6.53775
20
-4.5799
11
6.5395
21
-4.58044
0
LINE
8
BLACK
6
CONTINUOUS
10
6.5395
20
-4.58044
11
6.54112
21
-4.5813
0
LINE
8
BLACK
6
CONTINUOUS
10
6.54112
20
-4.5813
11
6.54254
21
-4.58246
0
LINE
8
BLACK
6
CONTINUOUS
10
6.54254
20
-4.58246
11
6.5437
21
-4.58388
0
LINE
8
BLACK
6
CONTINUOUS
10
6.5437
20
-4.58388
11
6.54456
21
-4.5855
0
LINE
8
BLACK
6
CONTINUOUS
10
6.54456
20
-4.5855
11
6.5451
21
-4.58725
0
LINE
8
BLACK
6
CONTINUOUS
10
6.5451
20
-4.58725
11
6.54528
21
-4.58907
0
LINE
8
BLACK
6
CONTINUOUS
10
6.54528
20
-4.58907
11
6.54528
21
-4.60778
0
LINE
8
BLACK
6
CONTINUOUS
10
6.54528
20
-4.60778
11
6.5451
21
-4.6096
0
LINE
8
BLACK
6
CONTINUOUS
10
6.5451
20
-4.6096
11
6.54456
21
-4.61135
0
LINE
8
BLACK
6
CONTINUOUS
10
6.54456
20
-4.61135
11
6.5437
21
-4.61297
0
LINE
8
BLACK
6
CONTINUOUS
10
6.5437
20
-4.61297
11
6.54254
21
-4.61439
0
LINE
8
BLACK
6
CONTINUOUS
10
6.54254
20
-4.61439
11
6.54112
21
-4.61555
0
LINE
8
BLACK
6
CONTINUOUS
10
6.54112
20
-4.61555
11
6.5395
21
-4.61641
0
LINE
8
BLACK
6
CONTINUOUS
10
6.5395
20
-4.61641
11
6.53775
21
-4.61695
0
LINE
8
BLACK
6
CONTINUOUS
10
6.53775
20
-4.61695
11
6.53593
21
-4.61713
0
LINE
8
BLACK
6
CONTINUOUS
10
6.53593
20
-4.61713
11
6.51329
21
-4.61713
0
LINE
8
BLACK
6
CONTINUOUS
10
6.51329
20
-4.61713
11
6.51146
21
-4.61695
0
LINE
8
BLACK
6
CONTINUOUS
10
6.51146
20
-4.61695
11
6.50971
21
-4.61641
0
LINE
8
BLACK
6
CONTINUOUS
10
6.50971
20
-4.61641
11
6.50809
21
-4.61555
0
LINE
8
BLACK
6
CONTINUOUS
10
6.50809
20
-4.61555
11
6.50668
21
-4.61439
0
LINE
8
BLACK
6
CONTINUOUS
10
6.50668
20
-4.61439
11
6.50551
21
-4.61297
0
LINE
8
BLACK
6
CONTINUOUS
10
6.50551
20
-4.61297
11
6.50465
21
-4.61135
0
LINE
8
BLACK
6
CONTINUOUS
10
6.50465
20
-4.61135
11
6.50412
21
-4.6096
0
LINE
8
BLACK
6
CONTINUOUS
10
6.50412
20
-4.6096
11
6.50394
21
-4.60778
0
LINE
8
BLACK
6
CONTINUOUS
10
6.50394
20
-4.60778
11
6.50394
21
-4.58907
0
LINE
8
BLACK
6
CONTINUOUS
10
6.50394
20
-4.58907
11
6.50412
21
-4.58725
0
LINE
8
BLACK
6
CONTINUOUS
10
6.50412
20
-4.58725
11
6.50465
21
-4.5855
0
LINE
8
BLACK
6
CONTINUOUS
10
6.50465
20
-4.5855
11
6.50551
21
-4.58388
0
LINE
8
BLACK
6
CONTINUOUS
10
6.50551
20
-4.58388
11
6.50668
21
-4.58246
0
LINE
8
BLACK
6
CONTINUOUS
10
6.50668
20
-4.58246
11
6.50809
21
-4.5813
0
LINE
8
BLACK
6
CONTINUOUS
10
6.50809
20
-4.5813
11
6.50971
21
-4.58044
0
LINE
8
BLACK
6
CONTINUOUS
10
6.50971
20
-4.58044
11
6.51146
21
-4.5799
0
LINE
8
BLACK
6
CONTINUOUS
10
6.51146
20
-4.5799
11
6.51329
21
-4.57972
0
LINE
8
BLACK
6
CONTINUOUS
10
6.51329
20
-4.57972
11
6.53593
21
-4.57972
0
LINE
8
BLACK
6
CONTINUOUS
10
6.53593
20
-4.57972
11
6.53775
21
-4.5799
0
LINE
8
BLACK
6
CONTINUOUS
10
6.60665
20
-4.5799
11
6.6084
21
-4.58044
0
LINE
8
BLACK
6
CONTINUOUS
10
6.6084
20
-4.58044
11
6.61002
21
-4.5813
0
LINE
8
BLACK
6
CONTINUOUS
10
6.61002
20
-4.5813
11
6.61143
21
-4.58246
0
LINE
8
BLACK
6
CONTINUOUS
10
6.61143
20
-4.58246
11
6.6126
21
-4.58388
0
LINE
8
BLACK
6
CONTINUOUS
10
6.6126
20
-4.58388
11
6.61346
21
-4.5855
0
LINE
8
BLACK
6
CONTINUOUS
10
6.61346
20
-4.5855
11
6.61399
21
-4.58725
0
LINE
8
BLACK
6
CONTINUOUS
10
6.61399
20
-4.58725
11
6.61417
21
-4.58907
0
LINE
8
BLACK
6
CONTINUOUS
10
6.61417
20
-4.58907
11
6.61417
21
-4.60778
0
LINE
8
BLACK
6
CONTINUOUS
10
6.61417
20
-4.60778
11
6.61399
21
-4.6096
0
LINE
8
BLACK
6
CONTINUOUS
10
6.61399
20
-4.6096
11
6.61346
21
-4.61135
0
LINE
8
BLACK
6
CONTINUOUS
10
6.61346
20
-4.61135
11
6.6126
21
-4.61297
0
LINE
8
BLACK
6
CONTINUOUS
10
6.6126
20
-4.61297
11
6.61143
21
-4.61439
0
LINE
8
BLACK
6
CONTINUOUS
10
6.61143
20
-4.61439
11
6.61002
21
-4.61555
0
LINE
8
BLACK
6
CONTINUOUS
10
6.61002
20
-4.61555
11
6.6084
21
-4.61641
0
LINE
8
BLACK
6
CONTINUOUS
10
6.6084
20
-4.61641
11
6.60665
21
-4.61695
0
LINE
8
BLACK
6
CONTINUOUS
10
6.60665
20
-4.61695
11
6.60482
21
-4.61713
0
LINE
8
BLACK
6
CONTINUOUS
10
6.60482
20
-4.61713
11
6.58219
21
-4.61713
0
LINE
8
BLACK
6
CONTINUOUS
10
6.58219
20
-4.61713
11
6.58036
21
-4.61695
0
LINE
8
BLACK
6
CONTINUOUS
10
6.58036
20
-4.61695
11
6.57861
21
-4.61641
0
LINE
8
BLACK
6
CONTINUOUS
10
6.57861
20
-4.61641
11
6.57699
21
-4.61555
0
LINE
8
BLACK
6
CONTINUOUS
10
6.57699
20
-4.61555
11
6.57557
21
-4.61439
0
LINE
8
BLACK
6
CONTINUOUS
10
6.57557
20
-4.61439
11
6.57441
21
-4.61297
0
LINE
8
BLACK
6
CONTINUOUS
10
6.57441
20
-4.61297
11
6.57355
21
-4.61135
0
LINE
8
BLACK
6
CONTINUOUS
10
6.57355
20
-4.61135
11
6.57301
21
-4.6096
0
LINE
8
BLACK
6
CONTINUOUS
10
6.57301
20
-4.6096
11
6.57283
21
-4.60778
0
LINE
8
BLACK
6
CONTINUOUS
10
6.57283
20
-4.60778
11
6.57283
21
-4.58907
0
LINE
8
BLACK
6
CONTINUOUS
10
6.57283
20
-4.58907
11
6.57301
21
-4.58725
0
LINE
8
BLACK
6
CONTINUOUS
10
6.57301
20
-4.58725
11
6.57355
21
-4.5855
0
LINE
8
BLACK
6
CONTINUOUS
10
6.57355
20
-4.5855
11
6.57441
21
-4.58388
0
LINE
8
BLACK
6
CONTINUOUS
10
6.57441
20
-4.58388
11
6.57557
21
-4.58246
0
LINE
8
BLACK
6
CONTINUOUS
10
6.57557
20
-4.58246
11
6.57699
21
-4.5813
0
LINE
8
BLACK
6
CONTINUOUS
10
6.57699
20
-4.5813
11
6.57861
21
-4.58044
0
LINE
8
BLACK
6
CONTINUOUS
10
6.57861
20
-4.58044
11
6.58036
21
-4.5799
0
LINE
8
BLACK
6
CONTINUOUS
10
6.58036
20
-4.5799
11
6.58219
21
-4.57972
0
LINE
8
BLACK
6
CONTINUOUS
10
6.58219
20
-4.57972
11
6.60482
21
-4.57972
0
LINE
8
BLACK
6
CONTINUOUS
10
6.60482
20
-4.57972
11
6.60665
21
-4.5799
0
LINE
8
BLACK
6
CONTINUOUS
10
6.18327
20
-4.61083
11
6.10453
21
-4.61083
0
LINE
8
BLACK
6
CONTINUOUS
10
6.10453
20
-4.61083
11
6.10453
21
-4.57539
0
LINE
8
BLACK
6
CONTINUOUS
10
6.10453
20
-4.57539
11
6.18327
21
-4.57539
0
LINE
8
BLACK
6
CONTINUOUS
10
6.18327
20
-4.57539
11
6.18327
21
-4.61083
0
LINE
8
BLACK
6
CONTINUOUS
10
6.18327
20
-4.56083
11
6.10453
21
-4.56083
0
LINE
8
BLACK
6
CONTINUOUS
10
6.10453
20
-4.56083
11
6.10453
21
-4.52539
0
LINE
8
BLACK
6
CONTINUOUS
10
6.10453
20
-4.52539
11
6.18327
21
-4.52539
0
LINE
8
BLACK
6
CONTINUOUS
10
6.18327
20
-4.52539
11
6.18327
21
-4.56083
0
LINE
8
BLACK
6
CONTINUOUS
10
6.27003
20
-4.50904
11
6.27179
21
-4.50957
0
LINE
8
BLACK
6
CONTINUOUS
10
6.27179
20
-4.50957
11
6.2734
21
-4.51043
0
LINE
8
BLACK
6
CONTINUOUS
10
6.2734
20
-4.51043
11
6.27482
21
-4.5116
0
LINE
8
BLACK
6
CONTINUOUS
10
6.27482
20
-4.5116
11
6.27598
21
-4.51301
0
LINE
8
BLACK
6
CONTINUOUS
10
6.27598
20
-4.51301
11
6.27685
21
-4.51463
0
LINE
8
BLACK
6
CONTINUOUS
10
6.27685
20
-4.51463
11
6.27738
21
-4.51638
0
LINE
8
BLACK
6
CONTINUOUS
10
6.27738
20
-4.51638
11
6.27756
21
-4.51821
0
LINE
8
BLACK
6
CONTINUOUS
10
6.27756
20
-4.51821
11
6.27756
21
-4.53691
0
LINE
8
BLACK
6
CONTINUOUS
10
6.27756
20
-4.53691
11
6.27738
21
-4.53873
0
LINE
8
BLACK
6
CONTINUOUS
10
6.27738
20
-4.53873
11
6.27685
21
-4.54049
0
LINE
8
BLACK
6
CONTINUOUS
10
6.27685
20
-4.54049
11
6.27598
21
-4.5421
0
LINE
8
BLACK
6
CONTINUOUS
10
6.27598
20
-4.5421
11
6.27482
21
-4.54352
0
LINE
8
BLACK
6
CONTINUOUS
10
6.27482
20
-4.54352
11
6.2734
21
-4.54468
0
LINE
8
BLACK
6
CONTINUOUS
10
6.2734
20
-4.54468
11
6.27179
21
-4.54555
0
LINE
8
BLACK
6
CONTINUOUS
10
6.27179
20
-4.54555
11
6.27003
21
-4.54608
0
LINE
8
BLACK
6
CONTINUOUS
10
6.27003
20
-4.54608
11
6.26821
21
-4.54626
0
LINE
8
BLACK
6
CONTINUOUS
10
6.26821
20
-4.54626
11
6.24557
21
-4.54626
0
LINE
8
BLACK
6
CONTINUOUS
10
6.24557
20
-4.54626
11
6.24375
21
-4.54608
0
LINE
8
BLACK
6
CONTINUOUS
10
6.24375
20
-4.54608
11
6.24199
21
-4.54555
0
LINE
8
BLACK
6
CONTINUOUS
10
6.24199
20
-4.54555
11
6.24038
21
-4.54468
0
LINE
8
BLACK
6
CONTINUOUS
10
6.24038
20
-4.54468
11
6.23896
21
-4.54352
0
LINE
8
BLACK
6
CONTINUOUS
10
6.23896
20
-4.54352
11
6.2378
21
-4.5421
0
LINE
8
BLACK
6
CONTINUOUS
10
6.2378
20
-4.5421
11
6.23693
21
-4.54049
0
LINE
8
BLACK
6
CONTINUOUS
10
6.23693
20
-4.54049
11
6.2364
21
-4.53873
0
LINE
8
BLACK
6
CONTINUOUS
10
6.2364
20
-4.53873
11
6.23622
21
-4.53691
0
LINE
8
BLACK
6
CONTINUOUS
10
6.23622
20
-4.53691
11
6.23622
21
-4.51821
0
LINE
8
BLACK
6
CONTINUOUS
10
6.23622
20
-4.51821
11
6.2364
21
-4.51638
0
LINE
8
BLACK
6
CONTINUOUS
10
6.2364
20
-4.51638
11
6.23693
21
-4.51463
0
LINE
8
BLACK
6
CONTINUOUS
10
6.23693
20
-4.51463
11
6.2378
21
-4.51301
0
LINE
8
BLACK
6
CONTINUOUS
10
6.2378
20
-4.51301
11
6.23896
21
-4.5116
0
LINE
8
BLACK
6
CONTINUOUS
10
6.23896
20
-4.5116
11
6.24038
21
-4.51043
0
LINE
8
BLACK
6
CONTINUOUS
10
6.24038
20
-4.51043
11
6.24199
21
-4.50957
0
LINE
8
BLACK
6
CONTINUOUS
10
6.24199
20
-4.50957
11
6.24375
21
-4.50904
0
LINE
8
BLACK
6
CONTINUOUS
10
6.24375
20
-4.50904
11
6.24557
21
-4.50886
0
LINE
8
BLACK
6
CONTINUOUS
10
6.24557
20
-4.50886
11
6.26821
21
-4.50886
0
LINE
8
BLACK
6
CONTINUOUS
10
6.26821
20
-4.50886
11
6.27003
21
-4.50904
0
LINE
8
BLACK
6
CONTINUOUS
10
6.33893
20
-4.50904
11
6.34068
21
-4.50957
0
LINE
8
BLACK
6
CONTINUOUS
10
6.34068
20
-4.50957
11
6.3423
21
-4.51043
0
LINE
8
BLACK
6
CONTINUOUS
10
6.3423
20
-4.51043
11
6.34372
21
-4.5116
0
LINE
8
BLACK
6
CONTINUOUS
10
6.34372
20
-4.5116
11
6.34488
21
-4.51301
0
LINE
8
BLACK
6
CONTINUOUS
10
6.34488
20
-4.51301
11
6.34574
21
-4.51463
0
LINE
8
BLACK
6
CONTINUOUS
10
6.34574
20
-4.51463
11
6.34628
21
-4.51638
0
LINE
8
BLACK
6
CONTINUOUS
10
6.34628
20
-4.51638
11
6.34646
21
-4.51821
0
LINE
8
BLACK
6
CONTINUOUS
10
6.34646
20
-4.51821
11
6.34646
21
-4.53691
0
LINE
8
BLACK
6
CONTINUOUS
10
6.34646
20
-4.53691
11
6.34628
21
-4.53873
0
LINE
8
BLACK
6
CONTINUOUS
10
6.34628
20
-4.53873
11
6.34574
21
-4.54049
0
LINE
8
BLACK
6
CONTINUOUS
10
6.34574
20
-4.54049
11
6.34488
21
-4.5421
0
LINE
8
BLACK
6
CONTINUOUS
10
6.34488
20
-4.5421
11
6.34372
21
-4.54352
0
LINE
8
BLACK
6
CONTINUOUS
10
6.34372
20
-4.54352
11
6.3423
21
-4.54468
0
LINE
8
BLACK
6
CONTINUOUS
10
6.3423
20
-4.54468
11
6.34068
21
-4.54555
0
LINE
8
BLACK
6
CONTINUOUS
10
6.34068
20
-4.54555
11
6.33893
21
-4.54608
0
LINE
8
BLACK
6
CONTINUOUS
10
6.33893
20
-4.54608
11
6.33711
21
-4.54626
0
LINE
8
BLACK
6
CONTINUOUS
10
6.33711
20
-4.54626
11
6.31447
21
-4.54626
0
LINE
8
BLACK
6
CONTINUOUS
10
6.31447
20
-4.54626
11
6.31264
21
-4.54608
0
LINE
8
BLACK
6
CONTINUOUS
10
6.31264
20
-4.54608
11
6.31089
21
-4.54555
0
LINE
8
BLACK
6
CONTINUOUS
10
6.31089
20
-4.54555
11
6.30927
21
-4.54468
0
LINE
8
BLACK
6
CONTINUOUS
10
6.30927
20
-4.54468
11
6.30786
21
-4.54352
0
LINE
8
BLACK
6
CONTINUOUS
10
6.30786
20
-4.54352
11
6.30669
21
-4.5421
0
LINE
8
BLACK
6
CONTINUOUS
10
6.30669
20
-4.5421
11
6.30583
21
-4.54049
0
LINE
8
BLACK
6
CONTINUOUS
10
6.30583
20
-4.54049
11
6.3053
21
-4.53873
0
LINE
8
BLACK
6
CONTINUOUS
10
6.3053
20
-4.53873
11
6.30512
21
-4.53691
0
LINE
8
BLACK
6
CONTINUOUS
10
6.30512
20
-4.53691
11
6.30512
21
-4.51821
0
LINE
8
BLACK
6
CONTINUOUS
10
6.30512
20
-4.51821
11
6.3053
21
-4.51638
0
LINE
8
BLACK
6
CONTINUOUS
10
6.3053
20
-4.51638
11
6.30583
21
-4.51463
0
LINE
8
BLACK
6
CONTINUOUS
10
6.30583
20
-4.51463
11
6.30669
21
-4.51301
0
LINE
8
BLACK
6
CONTINUOUS
10
6.30669
20
-4.51301
11
6.30786
21
-4.5116
0
LINE
8
BLACK
6
CONTINUOUS
10
6.30786
20
-4.5116
11
6.30927
21
-4.51043
0
LINE
8
BLACK
6
CONTINUOUS
10
6.30927
20
-4.51043
11
6.31089
21
-4.50957
0
LINE
8
BLACK
6
CONTINUOUS
10
6.31089
20
-4.50957
11
6.31264
21
-4.50904
0
LINE
8
BLACK
6
CONTINUOUS
10
6.31264
20
-4.50904
11
6.31447
21
-4.50886
0
LINE
8
BLACK
6
CONTINUOUS
10
6.31447
20
-4.50886
11
6.33711
21
-4.50886
0
LINE
8
BLACK
6
CONTINUOUS
10
6.33711
20
-4.50886
11
6.33893
21
-4.50904
0
LINE
8
BLACK
6
CONTINUOUS
10
6.18327
20
-4.51083
11
6.10453
21
-4.51083
0
LINE
8
BLACK
6
CONTINUOUS
10
6.10453
20
-4.51083
11
6.10453
21
-4.47539
0
LINE
8
BLACK
6
CONTINUOUS
10
6.10453
20
-4.47539
11
6.18327
21
-4.47539
0
LINE
8
BLACK
6
CONTINUOUS
10
6.18327
20
-4.47539
11
6.18327
21
-4.51083
0
LINE
8
BLACK
6
CONTINUOUS
10
6.27362
20
-4.47441
11
6.23819
21
-4.47441
0
LINE
8
BLACK
6
CONTINUOUS
10
6.23819
20
-4.47441
11
6.23819
21
-4.44291
0
LINE
8
BLACK
6
CONTINUOUS
10
6.23819
20
-4.44291
11
6.27362
21
-4.44291
0
LINE
8
BLACK
6
CONTINUOUS
10
6.27362
20
-4.44291
11
6.27362
21
-4.47441
0
LINE
8
BLACK
6
CONTINUOUS
10
6.18327
20
-4.46083
11
6.10453
21
-4.46083
0
LINE
8
BLACK
6
CONTINUOUS
10
6.10453
20
-4.46083
11
6.10453
21
-4.42539
0
LINE
8
BLACK
6
CONTINUOUS
10
6.10453
20
-4.42539
11
6.18327
21
-4.42539
0
LINE
8
BLACK
6
CONTINUOUS
10
6.18327
20
-4.42539
11
6.18327
21
-4.46083
0
LINE
8
BLACK
6
CONTINUOUS
10
6.35236
20
-4.43701
11
6.31693
21
-4.43701
0
LINE
8
BLACK
6
CONTINUOUS
10
6.31693
20
-4.43701
11
6.31693
21
-4.40551
0
LINE
8
BLACK
6
CONTINUOUS
10
6.31693
20
-4.40551
11
6.35236
21
-4.40551
0
LINE
8
BLACK
6
CONTINUOUS
10
6.35236
20
-4.40551
11
6.35236
21
-4.43701
0
LINE
8
BLACK
6
CONTINUOUS
10
6.18327
20
-4.41083
11
6.10453
21
-4.41083
0
LINE
8
BLACK
6
CONTINUOUS
10
6.10453
20
-4.41083
11
6.10453
21
-4.37539
0
LINE
8
BLACK
6
CONTINUOUS
10
6.10453
20
-4.37539
11
6.18327
21
-4.37539
0
LINE
8
BLACK
6
CONTINUOUS
10
6.18327
20
-4.37539
11
6.18327
21
-4.41083
0
LINE
8
BLACK
6
CONTINUOUS
10
6.27362
20
-4.39961
11
6.23819
21
-4.39961
0
LINE
8
BLACK
6
CONTINUOUS
10
6.23819
20
-4.39961
11
6.23819
21
-4.36811
0
LINE
8
BLACK
6
CONTINUOUS
10
6.23819
20
-4.36811
11
6.27362
21
-4.36811
0
LINE
8
BLACK
6
CONTINUOUS
10
6.27362
20
-4.36811
11
6.27362
21
-4.39961
0
LINE
8
BLACK
6
CONTINUOUS
10
6.33795
20
-4.29644
11
6.3397
21
-4.29697
0
LINE
8
BLACK
6
CONTINUOUS
10
6.3397
20
-4.29697
11
6.34132
21
-4.29784
0
LINE
8
BLACK
6
CONTINUOUS
10
6.34132
20
-4.29784
11
6.34273
21
-4.299
0
LINE
8
BLACK
6
CONTINUOUS
10
6.34273
20
-4.299
11
6.3439
21
-4.30042
0
LINE
8
BLACK
6
CONTINUOUS
10
6.3439
20
-4.30042
11
6.34476
21
-4.30203
0
LINE
8
BLACK
6
CONTINUOUS
10
6.34476
20
-4.30203
11
6.34529
21
-4.30379
0
LINE
8
BLACK
6
CONTINUOUS
10
6.34529
20
-4.30379
11
6.34547
21
-4.30561
0
LINE
8
BLACK
6
CONTINUOUS
10
6.34547
20
-4.30561
11
6.34547
21
-4.32431
0
LINE
8
BLACK
6
CONTINUOUS
10
6.34547
20
-4.32431
11
6.34529
21
-4.32614
0
LINE
8
BLACK
6
CONTINUOUS
10
6.34529
20
-4.32614
11
6.34476
21
-4.32789
0
LINE
8
BLACK
6
CONTINUOUS
10
6.34476
20
-4.32789
11
6.3439
21
-4.32951
0
LINE
8
BLACK
6
CONTINUOUS
10
6.3439
20
-4.32951
11
6.34273
21
-4.33092
0
LINE
8
BLACK
6
CONTINUOUS
10
6.34273
20
-4.33092
11
6.34132
21
-4.33209
0
LINE
8
BLACK
6
CONTINUOUS
10
6.34132
20
-4.33209
11
6.3397
21
-4.33295
0
LINE
8
BLACK
6
CONTINUOUS
10
6.3397
20
-4.33295
11
6.33795
21
-4.33348
0
LINE
8
BLACK
6
CONTINUOUS
10
6.33795
20
-4.33348
11
6.33612
21
-4.33366
0
LINE
8
BLACK
6
CONTINUOUS
10
6.33612
20
-4.33366
11
6.31348
21
-4.33366
0
LINE
8
BLACK
6
CONTINUOUS
10
6.31348
20
-4.33366
11
6.31166
21
-4.33348
0
LINE
8
BLACK
6
CONTINUOUS
10
6.31166
20
-4.33348
11
6.30991
21
-4.33295
0
LINE
8
BLACK
6
CONTINUOUS
10
6.30991
20
-4.33295
11
6.30829
21
-4.33209
0
LINE
8
BLACK
6
CONTINUOUS
10
6.30829
20
-4.33209
11
6.30687
21
-4.33092
0
LINE
8
BLACK
6
CONTINUOUS
10
6.30687
20
-4.33092
11
6.30571
21
-4.32951
0
LINE
8
BLACK
6
CONTINUOUS
10
6.30571
20
-4.32951
11
6.30485
21
-4.32789
0
LINE
8
BLACK
6
CONTINUOUS
10
6.30485
20
-4.32789
11
6.30431
21
-4.32614
0
LINE
8
BLACK
6
CONTINUOUS
10
6.30431
20
-4.32614
11
6.30413
21
-4.32431
0
LINE
8
BLACK
6
CONTINUOUS
10
6.30413
20
-4.32431
11
6.30413
21
-4.30561
0
LINE
8
BLACK
6
CONTINUOUS
10
6.30413
20
-4.30561
11
6.30431
21
-4.30379
0
LINE
8
BLACK
6
CONTINUOUS
10
6.30431
20
-4.30379
11
6.30485
21
-4.30203
0
LINE
8
BLACK
6
CONTINUOUS
10
6.30485
20
-4.30203
11
6.30571
21
-4.30042
0
LINE
8
BLACK
6
CONTINUOUS
10
6.30571
20
-4.30042
11
6.30687
21
-4.299
0
LINE
8
BLACK
6
CONTINUOUS
10
6.30687
20
-4.299
11
6.30829
21
-4.29784
0
LINE
8
BLACK
6
CONTINUOUS
10
6.30829
20
-4.29784
11
6.30991
21
-4.29697
0
LINE
8
BLACK
6
CONTINUOUS
10
6.30991
20
-4.29697
11
6.31166
21
-4.29644
0
LINE
8
BLACK
6
CONTINUOUS
10
6.31166
20
-4.29644
11
6.31348
21
-4.29626
0
LINE
8
BLACK
6
CONTINUOUS
10
6.31348
20
-4.29626
11
6.33612
21
-4.29626
0
LINE
8
BLACK
6
CONTINUOUS
10
6.33612
20
-4.29626
11
6.33795
21
-4.29644
0
LINE
8
BLACK
6
CONTINUOUS
10
6.26905
20
-4.29644
11
6.2708
21
-4.29697
0
LINE
8
BLACK
6
CONTINUOUS
10
6.2708
20
-4.29697
11
6.27242
21
-4.29784
0
LINE
8
BLACK
6
CONTINUOUS
10
6.27242
20
-4.29784
11
6.27384
21
-4.299
0
LINE
8
BLACK
6
CONTINUOUS
10
6.27384
20
-4.299
11
6.275
21
-4.30042
0
LINE
8
BLACK
6
CONTINUOUS
10
6.275
20
-4.30042
11
6.27586
21
-4.30203
0
LINE
8
BLACK
6
CONTINUOUS
10
6.27586
20
-4.30203
11
6.2764
21
-4.30379
0
LINE
8
BLACK
6
CONTINUOUS
10
6.2764
20
-4.30379
11
6.27657
21
-4.30561
0
LINE
8
BLACK
6
CONTINUOUS
10
6.27657
20
-4.30561
11
6.27657
21
-4.32431
0
LINE
8
BLACK
6
CONTINUOUS
10
6.27657
20
-4.32431
11
6.2764
21
-4.32614
0
LINE
8
BLACK
6
CONTINUOUS
10
6.2764
20
-4.32614
11
6.27586
21
-4.32789
0
LINE
8
BLACK
6
CONTINUOUS
10
6.27586
20
-4.32789
11
6.275
21
-4.32951
0
LINE
8
BLACK
6
CONTINUOUS
10
6.275
20
-4.32951
11
6.27384
21
-4.33092
0
LINE
8
BLACK
6
CONTINUOUS
10
6.27384
20
-4.33092
11
6.27242
21
-4.33209
0
LINE
8
BLACK
6
CONTINUOUS
10
6.27242
20
-4.33209
11
6.2708
21
-4.33295
0
LINE
8
BLACK
6
CONTINUOUS
10
6.2708
20
-4.33295
11
6.26905
21
-4.33348
0
LINE
8
BLACK
6
CONTINUOUS
10
6.26905
20
-4.33348
11
6.26722
21
-4.33366
0
LINE
8
BLACK
6
CONTINUOUS
10
6.26722
20
-4.33366
11
6.24459
21
-4.33366
0
LINE
8
BLACK
6
CONTINUOUS
10
6.24459
20
-4.33366
11
6.24276
21
-4.33348
0
LINE
8
BLACK
6
CONTINUOUS
10
6.24276
20
-4.33348
11
6.24101
21
-4.33295
0
LINE
8
BLACK
6
CONTINUOUS
10
6.24101
20
-4.33295
11
6.23939
21
-4.33209
0
LINE
8
BLACK
6
CONTINUOUS
10
6.23939
20
-4.33209
11
6.23797
21
-4.33092
0
LINE
8
BLACK
6
CONTINUOUS
10
6.23797
20
-4.33092
11
6.23681
21
-4.32951
0
LINE
8
BLACK
6
CONTINUOUS
10
6.23681
20
-4.32951
11
6.23595
21
-4.32789
0
LINE
8
BLACK
6
CONTINUOUS
10
6.23595
20
-4.32789
11
6.23542
21
-4.32614
0
LINE
8
BLACK
6
CONTINUOUS
10
6.23542
20
-4.32614
11
6.23524
21
-4.32431
0
LINE
8
BLACK
6
CONTINUOUS
10
6.23524
20
-4.32431
11
6.23524
21
-4.30561
0
LINE
8
BLACK
6
CONTINUOUS
10
6.23524
20
-4.30561
11
6.23542
21
-4.30379
0
LINE
8
BLACK
6
CONTINUOUS
10
6.23542
20
-4.30379
11
6.23595
21
-4.30203
0
LINE
8
BLACK
6
CONTINUOUS
10
6.23595
20
-4.30203
11
6.23681
21
-4.30042
0
LINE
8
BLACK
6
CONTINUOUS
10
6.23681
20
-4.30042
11
6.23797
21
-4.299
0
LINE
8
BLACK
6
CONTINUOUS
10
6.23797
20
-4.299
11
6.23939
21
-4.29784
0
LINE
8
BLACK
6
CONTINUOUS
10
6.23939
20
-4.29784
11
6.24101
21
-4.29697
0
LINE
8
BLACK
6
CONTINUOUS
10
6.24101
20
-4.29697
11
6.24276
21
-4.29644
0
LINE
8
BLACK
6
CONTINUOUS
10
6.24276
20
-4.29644
11
6.24459
21
-4.29626
0
LINE
8
BLACK
6
CONTINUOUS
10
6.24459
20
-4.29626
11
6.26722
21
-4.29626
0
LINE
8
BLACK
6
CONTINUOUS
10
6.26722
20
-4.29626
11
6.26905
21
-4.29644
0
LINE
8
BLACK
6
CONTINUOUS
10
5.67224
20
-4.32283
11
5.63681
21
-4.32283
0
LINE
8
BLACK
6
CONTINUOUS
10
5.63681
20
-4.32283
11
5.63681
21
-4.24409
0
LINE
8
BLACK
6
CONTINUOUS
10
5.63681
20
-4.24409
11
5.67224
21
-4.24409
0
LINE
8
BLACK
6
CONTINUOUS
10
5.67224
20
-4.24409
11
5.67224
21
-4.32283
0
LINE
8
BLACK
6
CONTINUOUS
10
5.52224
20
-4.32283
11
5.48681
21
-4.32283
0
LINE
8
BLACK
6
CONTINUOUS
10
5.48681
20
-4.32283
11
5.48681
21
-4.24409
0
LINE
8
BLACK
6
CONTINUOUS
10
5.48681
20
-4.24409
11
5.52224
21
-4.24409
0
LINE
8
BLACK
6
CONTINUOUS
10
5.52224
20
-4.24409
11
5.52224
21
-4.32283
0
LINE
8
BLACK
6
CONTINUOUS
10
5.47224
20
-4.32283
11
5.43681
21
-4.32283
0
LINE
8
BLACK
6
CONTINUOUS
10
5.43681
20
-4.32283
11
5.43681
21
-4.24409
0
LINE
8
BLACK
6
CONTINUOUS
10
5.43681
20
-4.24409
11
5.47224
21
-4.24409
0
LINE
8
BLACK
6
CONTINUOUS
10
5.47224
20
-4.24409
11
5.47224
21
-4.32283
0
LINE
8
BLACK
6
CONTINUOUS
10
5.57224
20
-4.32283
11
5.53681
21
-4.32283
0
LINE
8
BLACK
6
CONTINUOUS
10
5.53681
20
-4.32283
11
5.53681
21
-4.24409
0
LINE
8
BLACK
6
CONTINUOUS
10
5.53681
20
-4.24409
11
5.57224
21
-4.24409
0
LINE
8
BLACK
6
CONTINUOUS
10
5.57224
20
-4.24409
11
5.57224
21
-4.32283
0
LINE
8
BLACK
6
CONTINUOUS
10
5.62224
20
-4.32283
11
5.58681
21
-4.32283
0
LINE
8
BLACK
6
CONTINUOUS
10
5.58681
20
-4.32283
11
5.58681
21
-4.24409
0
LINE
8
BLACK
6
CONTINUOUS
10
5.58681
20
-4.24409
11
5.62224
21
-4.24409
0
LINE
8
BLACK
6
CONTINUOUS
10
5.62224
20
-4.24409
11
5.62224
21
-4.32283
0
LINE
8
BLACK
6
CONTINUOUS
10
6.12224
20
-4.32283
11
6.08681
21
-4.32283
0
LINE
8
BLACK
6
CONTINUOUS
10
6.08681
20
-4.32283
11
6.08681
21
-4.24409
0
LINE
8
BLACK
6
CONTINUOUS
10
6.08681
20
-4.24409
11
6.12224
21
-4.24409
0
LINE
8
BLACK
6
CONTINUOUS
10
6.12224
20
-4.24409
11
6.12224
21
-4.32283
0
LINE
8
BLACK
6
CONTINUOUS
10
5.72224
20
-4.32283
11
5.68681
21
-4.32283
0
LINE
8
BLACK
6
CONTINUOUS
10
5.68681
20
-4.32283
11
5.68681
21
-4.24409
0
LINE
8
BLACK
6
CONTINUOUS
10
5.68681
20
-4.24409
11
5.72224
21
-4.24409
0
LINE
8
BLACK
6
CONTINUOUS
10
5.72224
20
-4.24409
11
5.72224
21
-4.32283
0
LINE
8
BLACK
6
CONTINUOUS
10
5.77224
20
-4.32283
11
5.73681
21
-4.32283
0
LINE
8
BLACK
6
CONTINUOUS
10
5.73681
20
-4.32283
11
5.73681
21
-4.24409
0
LINE
8
BLACK
6
CONTINUOUS
10
5.73681
20
-4.24409
11
5.77224
21
-4.24409
0
LINE
8
BLACK
6
CONTINUOUS
10
5.77224
20
-4.24409
11
5.77224
21
-4.32283
0
LINE
8
BLACK
6
CONTINUOUS
10
5.82224
20
-4.32283
11
5.78681
21
-4.32283
0
LINE
8
BLACK
6
CONTINUOUS
10
5.78681
20
-4.32283
11
5.78681
21
-4.24409
0
LINE
8
BLACK
6
CONTINUOUS
10
5.78681
20
-4.24409
11
5.82224
21
-4.24409
0
LINE
8
BLACK
6
CONTINUOUS
10
5.82224
20
-4.24409
11
5.82224
21
-4.32283
0
LINE
8
BLACK
6
CONTINUOUS
10
5.87224
20
-4.32283
11
5.83681
21
-4.32283
0
LINE
8
BLACK
6
CONTINUOUS
10
5.83681
20
-4.32283
11
5.83681
21
-4.24409
0
LINE
8
BLACK
6
CONTINUOUS
10
5.83681
20
-4.24409
11
5.87224
21
-4.24409
0
LINE
8
BLACK
6
CONTINUOUS
10
5.87224
20
-4.24409
11
5.87224
21
-4.32283
0
LINE
8
BLACK
6
CONTINUOUS
10
5.92224
20
-4.32283
11
5.88681
21
-4.32283
0
LINE
8
BLACK
6
CONTINUOUS
10
5.88681
20
-4.32283
11
5.88681
21
-4.24409
0
LINE
8
BLACK
6
CONTINUOUS
10
5.88681
20
-4.24409
11
5.92224
21
-4.24409
0
LINE
8
BLACK
6
CONTINUOUS
10
5.92224
20
-4.24409
11
5.92224
21
-4.32283
0
LINE
8
BLACK
6
CONTINUOUS
10
5.97224
20
-4.32283
11
5.93681
21
-4.32283
0
LINE
8
BLACK
6
CONTINUOUS
10
5.93681
20
-4.32283
11
5.93681
21
-4.24409
0
LINE
8
BLACK
6
CONTINUOUS
10
5.93681
20
-4.24409
11
5.97224
21
-4.24409
0
LINE
8
BLACK
6
CONTINUOUS
10
5.97224
20
-4.24409
11
5.97224
21
-4.32283
0
LINE
8
BLACK
6
CONTINUOUS
10
6.02224
20
-4.32283
11
5.98681
21
-4.32283
0
LINE
8
BLACK
6
CONTINUOUS
10
5.98681
20
-4.32283
11
5.98681
21
-4.24409
0
LINE
8
BLACK
6
CONTINUOUS
10
5.98681
20
-4.24409
11
6.02224
21
-4.24409
0
LINE
8
BLACK
6
CONTINUOUS
10
6.02224
20
-4.24409
11
6.02224
21
-4.32283
0
LINE
8
BLACK
6
CONTINUOUS
10
6.07224
20
-4.32283
11
6.03681
21
-4.32283
0
LINE
8
BLACK
6
CONTINUOUS
10
6.03681
20
-4.32283
11
6.03681
21
-4.24409
0
LINE
8
BLACK
6
CONTINUOUS
10
6.03681
20
-4.24409
11
6.07224
21
-4.24409
0
LINE
8
BLACK
6
CONTINUOUS
10
6.07224
20
-4.24409
11
6.07224
21
-4.32283
0
LINE
8
BLACK
6
CONTINUOUS
10
5.51378
20
-4.13583
11
5.43504
21
-4.13583
0
LINE
8
BLACK
6
CONTINUOUS
10
5.43504
20
-4.13583
11
5.43504
21
-4.07677
0
LINE
8
BLACK
6
CONTINUOUS
10
5.43504
20
-4.07677
11
5.51378
21
-4.07677
0
LINE
8
BLACK
6
CONTINUOUS
10
5.51378
20
-4.07677
11
5.51378
21
-4.13583
0
LINE
8
BLACK
6
CONTINUOUS
10
5.76181
20
-4.09055
11
5.68307
21
-4.09055
0
LINE
8
BLACK
6
CONTINUOUS
10
5.68307
20
-4.09055
11
5.68307
21
-3.94094
0
LINE
8
BLACK
6
CONTINUOUS
10
5.68307
20
-3.94094
11
5.76181
21
-3.94094
0
LINE
8
BLACK
6
CONTINUOUS
10
5.76181
20
-3.94094
11
5.76181
21
-4.09055
0
LINE
8
BLACK
6
CONTINUOUS
10
5.51378
20
-4.04528
11
5.43504
21
-4.04528
0
LINE
8
BLACK
6
CONTINUOUS
10
5.43504
20
-4.04528
11
5.43504
21
-3.98622
0
LINE
8
BLACK
6
CONTINUOUS
10
5.43504
20
-3.98622
11
5.51378
21
-3.98622
0
LINE
8
BLACK
6
CONTINUOUS
10
5.51378
20
-3.98622
11
5.51378
21
-4.04528
0
LINE
8
BLACK
6
CONTINUOUS
10
5.51378
20
-3.95472
11
5.43504
21
-3.95472
0
LINE
8
BLACK
6
CONTINUOUS
10
5.43504
20
-3.95472
11
5.43504
21
-3.89567
0
LINE
8
BLACK
6
CONTINUOUS
10
5.43504
20
-3.89567
11
5.51378
21
-3.89567
0
LINE
8
BLACK
6
CONTINUOUS
10
5.51378
20
-3.89567
11
5.51378
21
-3.95472
  0
ENDSEC
  0
EOF
